<?xml version="1.0" encoding="UTF-8"?>
<svg id="_1" data-name=" 1" xmlns="http://www.w3.org/2000/svg" viewBox="0 250 2644.97 3050">
  <defs>
    <style>
      .cls-1 {
        fill: #0d9488;
      }

      .cls-2, .cls-3 {
        fill: #042f2e;
      }

      .cls-4 {
        fill: #fafcfc;
      }

      .cls-3 {
        stroke: #fafcfc;
        stroke-miterlimit: 10;
        stroke-width: 50px;
      }

      .cls-5 {
        fill: #ccfbf1;
      }
    </style>
  </defs>
  <g>
    <path class="cls-4" d="M597.88,2698.41c-3.08.68-7.46,1.54-13.1,2.57-5.66,1.02-11.74,1.54-18.25,1.54-13.02,0-22.19-2.4-27.49-7.19-5.31-4.79-7.97-12.85-7.97-24.16v-257.98c0-6.5,1.71-11.48,5.14-14.9,3.42-3.42,8.22-6.17,14.39-8.22,10.96-3.77,23.9-6.42,38.8-7.97,14.9-1.54,30.24-2.31,45.99-2.31,45.22,0,79.14,9.33,101.75,28.01,22.61,18.68,33.91,44.46,33.91,77.34,0,21.59-5.66,40.35-16.96,56.27-11.3,15.92-26.9,28.19-46.77,36.75,15.07,19.52,29.55,38.11,43.43,55.76,13.88,17.65,24.24,31.44,31.09,41.37-2.74,8.91-7.54,15.86-14.39,20.81-6.86,4.97-14.39,7.46-22.61,7.46-10.62,0-18.76-2.4-24.41-7.19-5.66-4.79-11.22-11.31-16.7-19.52l-58.07-86.85h-47.79v108.44-.02ZM639,2537.55c19.52,0,35.2-4.28,47.02-12.85,11.82-8.56,17.73-21.59,17.73-39.06,0-34.6-23.12-51.9-69.38-51.9-6.86,0-13.45.34-19.79,1.02-6.34.69-12.26,1.38-17.73,2.06v100.73h42.15Z"/>
    <path class="cls-4" d="M877.98,2606.41c4.79,17.48,13.7,30.16,26.72,38.03,13.01,7.89,29.11,11.82,48.3,11.82,14.39,0,27.66-2.13,39.83-6.42,12.16-4.28,22.01-8.81,29.55-13.62,4.79,2.74,8.73,6.51,11.82,11.31,3.08,4.8,4.62,9.94,4.62,15.41,0,6.86-2.31,12.93-6.93,18.25-4.62,5.32-10.97,9.86-19.01,13.62-8.06,3.78-17.56,6.68-28.52,8.73-10.97,2.06-22.79,3.08-35.46,3.08-20.22,0-38.64-2.74-55.25-8.22-16.62-5.48-30.84-13.79-42.66-24.92-11.82-11.13-21.07-24.92-27.75-41.37-6.68-16.45-10.02-35.63-10.02-57.56s3.26-39.74,9.77-55.5c6.5-15.76,15.32-28.95,26.47-39.57,11.13-10.61,24.07-18.5,38.8-23.65,14.72-5.13,30.32-7.71,46.77-7.71s32.2,2.66,46.25,7.97c14.05,5.31,26.04,12.68,35.97,22.1,9.93,9.42,17.73,20.73,23.38,33.91,5.66,13.19,8.48,27.49,8.48,42.91,0,9.6-2.49,16.79-7.46,21.59-4.97,4.8-11.91,7.89-20.81,9.25l-142.86,20.56h0ZM935.02,2496.95c-16.79,0-30.84,5.58-42.14,16.7-11.3,11.13-17.65,26.98-19.01,47.54l114.09-16.96c-1.38-12.67-6.34-23.72-14.9-33.15-8.57-9.42-21.25-14.13-38.03-14.13h0Z"/>
    <path class="cls-4" d="M1286.02,2450.18c8.9,0,16.36,2.06,22.36,6.17,5.99,4.11,8.99,10.97,8.99,20.56,0,4.46-1.29,11.66-3.86,21.58-2.57,9.94-6,21.41-10.28,34.44-4.29,13.02-9.17,27.07-14.65,42.14-5.49,15.08-11.13,29.89-16.96,44.46-5.83,14.57-11.66,28.36-17.47,41.37-5.83,13.02-11.13,23.99-15.93,32.89-3.43,2.74-8.57,4.97-15.41,6.68-6.86,1.71-14.39,2.57-22.61,2.57-9.94,0-18.42-1.29-25.44-3.86-7.02-2.57-12.08-6.76-15.16-12.59-3.09-5.82-6.86-13.88-11.3-24.16-4.46-10.28-9.25-21.92-14.39-34.95-5.13-13.01-10.46-26.8-15.93-41.37-5.49-14.56-10.71-29.04-15.68-43.43-4.97-14.39-9.6-28.27-13.88-41.63-4.29-13.36-7.8-25.35-10.53-35.97,3.42-4.11,8.3-7.62,14.65-10.53,6.33-2.91,12.92-4.37,19.79-4.37,8.9,0,16.19,2.06,21.85,6.17,5.66,4.11,10.02,11.48,13.1,22.1l25.69,84.79c2.06,6.86,4.37,14.13,6.93,21.85,2.57,7.71,5.06,15.25,7.46,22.61,2.39,7.37,4.7,14.39,6.93,21.07,2.22,6.68,4.02,12.26,5.4,16.7h2.06c9.93-30.15,19.7-61.24,29.29-93.27,9.59-32.04,17.99-63.64,25.18-94.82,4.11-2.39,8.81-4.19,14.13-5.4,5.31-1.2,10.53-1.8,15.68-1.8h-.01Z"/>
    <path class="cls-4" d="M1362.59,2382.87c0-9.93,3.51-18.41,10.53-25.44,7.02-7.01,16.01-10.53,26.98-10.53s19.87,3.52,26.72,10.53c6.85,7.02,10.28,15.5,10.28,25.44s-3.43,18.93-10.28,25.96c-6.86,7.02-15.77,10.53-26.72,10.53s-19.97-3.51-26.98-10.53c-7.02-7.01-10.53-15.68-10.53-25.96ZM1367.73,2457.38c2.73-.68,6.76-1.54,12.08-2.57,5.31-1.02,11.05-1.54,17.21-1.54,12.33,0,21.32,2.23,26.98,6.68,5.66,4.46,8.48,12.33,8.48,23.64v214.81c-2.74.68-6.77,1.54-12.08,2.57-5.31,1.02-11.05,1.54-17.21,1.54-12.33,0-21.32-2.23-26.98-6.68-5.66-4.45-8.48-12.33-8.48-23.65v-214.81h0Z"/>
    <path class="cls-4" d="M1552.73,2606.41c4.79,17.48,13.7,30.16,26.72,38.03,13.01,7.89,29.11,11.82,48.3,11.82,14.39,0,27.66-2.13,39.83-6.42,12.16-4.28,22.01-8.81,29.55-13.62,4.79,2.74,8.73,6.51,11.82,11.31,3.08,4.8,4.62,9.94,4.62,15.41,0,6.86-2.31,12.93-6.93,18.25-4.62,5.32-10.97,9.86-19.01,13.62-8.06,3.78-17.56,6.68-28.52,8.73-10.97,2.06-22.79,3.08-35.46,3.08-20.22,0-38.64-2.74-55.25-8.22-16.62-5.48-30.84-13.79-42.66-24.92s-21.07-24.92-27.75-41.37c-6.68-16.45-10.02-35.63-10.02-57.56s3.26-39.74,9.77-55.5c6.5-15.76,15.32-28.95,26.47-39.57,11.13-10.61,24.07-18.5,38.8-23.65,14.72-5.13,30.32-7.71,46.77-7.71s32.2,2.66,46.25,7.97c14.05,5.31,26.04,12.68,35.97,22.1,9.93,9.42,17.73,20.73,23.38,33.91,5.66,13.19,8.48,27.49,8.48,42.91,0,9.6-2.49,16.79-7.46,21.59-4.97,4.8-11.91,7.89-20.81,9.25l-142.86,20.56h0ZM1609.78,2496.95c-16.79,0-30.84,5.58-42.14,16.7-11.3,11.13-17.65,26.98-19.01,47.54l114.09-16.96c-1.38-12.67-6.34-23.72-14.9-33.15-8.57-9.42-21.25-14.13-38.03-14.13h0Z"/>
    <path class="cls-4" d="M1937.13,2541.15c-3.78,14.06-7.8,28.27-12.08,42.66-4.29,14.39-8.57,28.36-12.85,41.88-4.29,13.53-8.4,26.13-12.33,37.77-3.94,11.66-7.28,21.58-10.02,29.8-3.78,2.74-8.57,5.06-14.39,6.93-5.83,1.88-13.19,2.82-22.1,2.82-9.94,0-18.59-1.47-25.96-4.37-7.37-2.91-12.42-7.28-15.16-13.1-4.11-8.22-8.73-21.32-13.88-39.31-5.14-17.99-10.46-37.68-15.93-59.1-5.49-21.41-10.53-43.17-15.16-65.27-4.62-22.1-8.48-41.37-11.57-57.81,3.42-3.42,8.13-6.59,14.13-9.51,5.99-2.91,12.59-4.37,19.79-4.37,9.59,0,17.12,2.31,22.61,6.93,5.48,4.62,9.08,12.08,10.79,22.36,6.5,41.11,12.67,75.98,18.5,104.58,5.82,28.61,9.93,48.05,12.33,58.33h2.06c1.37-5.82,3.68-14.39,6.93-25.69,3.26-11.31,7.02-24.32,11.3-39.06,4.28-14.72,8.9-30.49,13.88-47.28,4.97-16.78,10.02-33.74,15.16-50.88,4.79-2.73,9.85-4.88,15.16-6.42s11.57-2.31,18.76-2.31c9.25,0,17.04,1.54,23.38,4.62,6.33,3.08,10.53,7.71,12.59,13.88,5.13,16.45,10.02,32.56,14.65,48.3,4.62,15.77,8.81,30.41,12.59,43.94,3.77,13.53,7.11,25.61,10.02,36.24,2.91,10.62,5.22,18.85,6.93,24.67h2.57c5.82-28.44,11.9-58.07,18.25-88.91,6.33-30.84,11.73-62.69,16.19-95.58,4.11-2.39,8.73-4.28,13.88-5.66,5.14-1.37,10.28-2.06,15.41-2.06,8.9,0,16.19,2.06,21.85,6.17,5.66,4.11,8.48,10.79,8.48,20.05,0,4.8-1.02,12.59-3.08,23.38-2.06,10.79-4.71,23.12-7.97,37-3.26,13.88-6.86,28.61-10.79,44.19-3.94,15.59-7.97,30.67-12.08,45.22-4.11,14.57-8.06,27.75-11.82,39.57-3.78,11.82-7.02,20.99-9.77,27.49-3.43,2.74-8.66,5.06-15.68,6.93-7.02,1.88-14.65,2.82-22.87,2.82-21.58,0-34.44-5.31-38.55-15.93-2.74-7.53-6-16.78-9.77-27.75-3.78-10.96-7.63-22.95-11.57-35.98-3.94-13.01-7.89-26.55-11.82-40.6-3.94-14.05-7.63-27.92-11.05-41.63l.04.04Z"/>
  </g>
  <g>
    <path class="cls-4" d="M425.47,3129.16c-3.43,2.74-7.89,4.97-13.36,6.68-5.49,1.72-11.82,2.57-19.01,2.57-8.91,0-16.37-1.11-22.36-3.34-6-2.22-10.2-6.25-12.59-12.08-14.06-34.95-25.87-64.75-35.46-89.42-9.6-24.67-17.3-45.74-23.12-63.21h-2.57c-1.02,22.96-1.98,44.02-2.82,63.21-.86,19.19-1.63,37.95-2.31,56.27-.69,18.33-1.47,36.92-2.31,55.76-.86,18.85-1.98,39.23-3.34,61.16-3.43,1.02-7.71,2.06-12.85,3.08s-10.62,1.54-16.45,1.54c-22.96,0-34.44-8.56-34.44-25.69,0-5.48.26-13.96.77-25.44s1.2-24.84,2.06-40.08c.86-15.25,1.88-31.95,3.08-50.1,1.2-18.16,2.39-36.49,3.6-54.99,1.2-18.5,2.48-36.75,3.86-54.73,1.37-17.99,2.57-34.69,3.6-50.1,2.73-3.42,7.79-6.93,15.16-10.53,7.37-3.6,16.87-5.4,28.52-5.4,13.01,0,23.55,2.14,31.6,6.42,8.05,4.29,14.13,11.39,18.25,21.32,4.45,10.62,9.17,22.28,14.13,34.95,4.97,12.68,10.02,25.69,15.16,39.06,5.14,13.36,10.19,26.47,15.16,39.31,4.97,12.85,9.68,24.92,14.13,36.24h2.06c11.65-32.2,23.2-63.38,34.69-93.53,11.48-30.15,21.49-55.67,30.07-76.57,4.11-2.06,9.42-3.77,15.93-5.14,6.5-1.37,13.19-2.06,20.05-2.06,12.67,0,22.78,1.89,30.32,5.66,7.53,3.78,12.16,9.42,13.88,16.96,1.37,6.51,2.91,16.88,4.62,31.09,1.71,14.22,3.42,30.41,5.13,48.57,1.71,18.17,3.42,37.51,5.13,58.07,1.71,20.56,3.26,40.35,4.62,59.36,1.37,19.01,2.57,36.4,3.6,52.16,1.02,15.77,1.71,28.1,2.06,37-4.46,2.74-9.17,4.79-14.13,6.17-4.97,1.37-11.05,2.06-18.25,2.06-8.91,0-16.7-1.8-23.38-5.4-6.68-3.6-10.37-10.36-11.05-20.3-1.38-21.59-2.57-42.74-3.6-63.47-1.03-20.72-1.89-40.35-2.57-58.85-.69-18.5-1.38-35.54-2.06-51.14-.69-15.59-1.2-29.04-1.54-40.35h-2.57c-5.49,16.11-13.02,36.58-22.61,61.41-9.6,24.85-21.76,56.79-36.49,95.84h0Z"/>
    <path class="cls-4" d="M662.89,3149.2c-8.22-17.12-17.99-40.25-29.29-69.38-11.3-29.11-22.61-64.4-33.91-105.86,3.42-4.11,8.22-7.62,14.39-10.53,6.17-2.91,12.85-4.37,20.05-4.37,8.9,0,16.19,2.06,21.85,6.17,5.66,4.11,10.19,11.48,13.62,22.1,16.1,51.74,34.44,104.15,54.99,157.25h2.06c4.45-11.3,9.17-24.16,14.13-38.55,4.97-14.39,9.77-29.46,14.39-45.22,4.62-15.76,8.99-31.68,13.1-47.79,4.11-16.1,7.71-31.68,10.79-46.77,4.11-2.06,8.48-3.77,13.1-5.14,4.62-1.37,9.51-2.06,14.65-2.06,8.9,0,16.61,2.06,23.12,6.17,6.5,4.11,9.77,10.79,9.77,20.05,0,10.28-2.23,24.76-6.68,43.42-4.46,18.68-10.37,38.72-17.73,60.13-7.37,21.41-15.68,43-24.92,64.75-9.26,21.76-18.5,40.86-27.75,57.3-17.82,31.51-34,55.07-48.57,70.66-14.57,15.59-28.87,23.38-42.91,23.38-10.97,0-19.79-3.17-26.47-9.51-6.68-6.34-10.88-14.31-12.59-23.9,5.48-4.8,11.3-10.37,17.47-16.7,6.17-6.34,12.33-13.1,18.5-20.3,6.17-7.2,11.99-14.57,17.47-22.1,5.48-7.53,10.28-14.9,14.39-22.1-3.09-1.02-6.09-2.31-8.99-3.86-2.91-1.54-5.83-3.86-8.73-6.93-2.91-3.08-6-7.01-9.25-11.82-3.26-4.79-6.6-10.96-10.02-18.5v.03Z"/>
    <path class="cls-4" d="M1006.44,3199.05c-6.34-6.5-9.51-15.25-9.51-26.21v-241.54c0-10.96,3.17-19.61,9.51-25.96,6.33-6.33,14.98-9.51,25.96-9.51h170.1c1.71,2.74,3.26,6.34,4.62,10.79,1.37,4.46,2.06,9.42,2.06,14.9,0,8.91-2.06,15.77-6.17,20.56-4.11,4.8-9.77,7.2-16.96,7.2h-124.36v72.97h125.4c1.71,2.74,3.34,6.26,4.88,10.53,1.54,4.29,2.31,9.17,2.31,14.65,0,18.5-7.89,27.75-23.64,27.75h-108.95v79.66h142.86c1.71,2.74,3.34,6.42,4.88,11.05,1.54,4.62,2.31,9.69,2.31,15.16,0,18.5-7.89,27.75-23.64,27.75h-155.71c-10.97,0-19.61-3.26-25.96-9.77v.03Z"/>
    <path class="cls-4" d="M1627.5,3207.27c-2.74.68-6.77,1.54-12.08,2.57-5.31,1.02-11.05,1.54-17.21,1.54-12.33,0-21.32-2.23-26.98-6.68-5.66-4.45-8.48-12.33-8.48-23.65v-133.62c0-13.7-3.78-23.64-11.3-29.8-7.54-6.17-17.47-9.26-29.8-9.26-8.22,0-16.19,1.54-23.9,4.62-7.71,3.09-14.48,7.2-20.3,12.33,1.03,4.8,1.54,9.6,1.54,14.39v167.53c-2.74.68-6.77,1.54-12.08,2.57-5.31,1.02-11.05,1.54-17.21,1.54-12.33,0-21.32-2.23-26.98-6.68-5.66-4.45-8.48-12.33-8.48-23.65v-133.62c0-13.7-3.94-23.64-11.82-29.8-7.89-6.17-17.99-9.26-30.32-9.26-8.57,0-16.45,1.38-23.64,4.11-7.19,2.74-13.19,5.49-17.99,8.22v186.55c-3.08.68-7.19,1.54-12.33,2.57-5.13,1.02-10.97,1.54-17.47,1.54-12,0-20.9-2.23-26.72-6.68-5.83-4.45-8.73-12.33-8.73-23.65v-164.97c0-7.88,1.71-14.47,5.13-19.79,3.42-5.31,8.73-10.36,15.93-15.16,10.28-6.85,23.29-12.59,39.06-17.21,15.76-4.62,32.04-6.93,48.82-6.93,31.17,0,56.53,8.4,76.06,25.18,9.93-7.2,21.32-13.19,34.18-17.99,12.85-4.79,28.01-7.19,45.48-7.19,13.36,0,26.04,1.63,38.03,4.88,11.99,3.26,22.36,8.48,31.09,15.68,8.73,7.2,15.68,16.37,20.81,27.49,5.14,11.13,7.71,24.41,7.71,39.83v162.4l-.02.02Z"/>
    <path class="cls-4" d="M1786.8,2957c33.57,0,60.38,7.19,80.43,21.58,20.05,14.39,30.07,36.67,30.07,66.8v118.72c0,8.22-2.06,14.73-6.17,19.53-4.11,4.8-9.25,9.08-15.41,12.85-9.6,5.83-21.76,10.46-36.49,13.88s-31.52,5.13-50.36,5.13c-34.27,0-61.25-6.6-80.94-19.79-19.7-13.19-29.55-32.97-29.55-59.36,0-22.95,7.28-40.51,21.85-52.68,14.56-12.16,35.71-19.61,63.47-22.36l70.4-7.19v-9.26c0-13.01-4.71-22.61-14.13-28.78-9.42-6.17-22.7-9.26-39.83-9.26-13.36,0-26.39,1.63-39.06,4.88-12.68,3.26-23.99,7.28-33.91,12.08-3.78-2.73-6.93-6.42-9.51-11.05-2.58-4.62-3.86-9.68-3.86-15.16,0-6.85,1.62-12.41,4.88-16.7,3.26-4.28,8.48-8.13,15.68-11.57,9.93-4.11,21.24-7.2,33.91-9.26,12.67-2.06,25.51-3.08,38.55-3.08l-.02.02ZM1788.86,3166.16c9.93,0,19.01-.94,27.24-2.82,8.22-1.88,14.21-4.19,17.99-6.93v-57.05l-49.85,4.62c-13.71,1.38-24.16,4.37-31.35,8.99-7.19,4.62-10.79,11.91-10.79,21.85s3.68,17.65,11.05,23.12c7.37,5.49,19.27,8.22,35.71,8.22h0Z"/>
    <path class="cls-4" d="M1958.44,2891.73c0-9.93,3.51-18.41,10.53-25.44,7.02-7.01,16.01-10.53,26.98-10.53s19.87,3.52,26.72,10.53c6.85,7.02,10.28,15.5,10.28,25.44s-3.43,18.93-10.28,25.96c-6.86,7.02-15.77,10.53-26.72,10.53s-19.97-3.51-26.98-10.53c-7.02-7.01-10.53-15.68-10.53-25.96ZM1963.58,2966.25c2.73-.68,6.76-1.54,12.08-2.57,5.31-1.02,11.05-1.54,17.21-1.54,12.33,0,21.32,2.23,26.98,6.68,5.66,4.46,8.48,12.33,8.48,23.64v214.81c-2.74.68-6.77,1.54-12.08,2.57-5.31,1.02-11.05,1.54-17.21,1.54-12.33,0-21.32-2.23-26.98-6.68-5.66-4.45-8.48-12.33-8.48-23.65v-214.81h0Z"/>
    <path class="cls-4" d="M2152.44,3209.84c-5.31,1.02-11.05,1.54-17.21,1.54-12.33,0-21.32-2.23-26.98-6.68-5.66-4.45-8.48-12.33-8.48-23.65v-307.32c2.73-1.02,6.76-1.97,12.08-2.82,5.31-.86,11.05-1.29,17.21-1.29,12.33,0,21.32,2.23,26.98,6.68,5.66,4.46,8.48,12.33,8.48,23.65v307.32c-2.74.68-6.77,1.54-12.08,2.57h0Z"/>
    <path class="cls-4" d="M2422.49,3138.92c0,23.99-8.91,42.75-26.72,56.27-17.82,13.53-43.86,20.3-78.12,20.3-14.06,0-26.81-1.02-38.29-3.08-11.48-2.06-21.41-5.05-29.8-8.99-8.4-3.93-14.9-8.73-19.52-14.39-4.62-5.66-6.93-11.9-6.93-18.76,0-6.5,1.46-12.16,4.37-16.96,2.91-4.79,6.76-8.73,11.57-11.82,9.59,6.17,20.64,11.66,33.15,16.45,12.5,4.8,26.98,7.19,43.42,7.19,14.05,0,24.67-2.31,31.86-6.93,7.19-4.62,10.79-11.05,10.79-19.27,0-14.05-10.28-23.29-30.84-27.75l-28.78-6.68c-25.36-5.82-44.11-14.56-56.27-26.21-12.17-11.65-18.25-27.24-18.25-46.77,0-22.27,8.9-40.34,26.72-54.21,17.81-13.88,42.83-20.81,75.03-20.81,12.33,0,23.72.94,34.18,2.82,10.45,1.89,19.52,4.62,27.24,8.22,7.71,3.6,13.7,7.89,17.99,12.85,4.28,4.97,6.42,10.71,6.42,17.21,0,6.17-1.38,11.57-4.11,16.19-2.74,4.62-6,8.31-9.77,11.05-3.09-2.06-7.11-4.11-12.08-6.17-4.97-2.06-10.46-3.93-16.45-5.66-6-1.71-12.33-3.17-19.01-4.37-6.68-1.2-13.28-1.8-19.79-1.8-13.36,0-23.81,2.14-31.35,6.42-7.54,4.29-11.31,10.37-11.31,18.25,0,5.83,2.13,10.62,6.42,14.39,4.28,3.78,11.73,6.86,22.36,9.26l25.18,6.17c28.44,6.51,48.99,16.02,61.67,28.52,12.67,12.51,19.01,28.87,19.01,49.08h.01Z"/>
  </g>
  <g>
    <g>
      <g>
        <path class="cls-3" d="M2297.71,594.91c-37.58-5.7-51.53,32.07-39.58,63.37,21.19,55.48,96,5.55,67.28-47.53-3.95-2.19-8.29-6.51-11.87-7.92-4.78-1.88-11.87-7.31-15.83-7.92Z"/>
        <path class="cls-3" d="M320.63,662.42c33.89,44.4,93.97-13.79,60.25-54.37-29.35-35.31-97.04,6.17-60.25,54.37h0Z"/>
        <path class="cls-3" d="M391.86,436.67c11.18,18.02,3.07,48.05,11.08,62.21,7.88,13.92,36.61,16.67,50.36,6.82,25.84-18.51-5.86-73.86,48.32-90.28,21.11-6.4,85.16-9.29,60.28-49.92-19.31-31.54-79.28.78-94.87-51.6-6.5-21.79-4.59-87.1-48.19-68.54-31.75,13.52-7.9,65.31-40.46,90.28-28.91,22.18-91.67-3.51-78.46,54.44,8.5,37.28,67.87,7.8,91.95,46.57v.02Z"/>
        <path class="cls-3" d="M2155.39,414.52c48.04,17.16,15.62,96.57,61.55,101.15,46.96,4.68,22.08-67.46,49.33-92.83,18.1-16.86,59.97-8.21,73.83-19.24,10.22-8.13,12.14-29.19,5.34-40.66-15.34-25.89-75.75,1.08-93.32-53.13-6.87-21.22-.87-64.59-31.94-67.36-45.05-4.02-32.81,33.53-39.01,63.56-12.76,61.78-90.38,20.19-97.01,65.41-7.07,48.28,43.89,33.36,71.22,43.11h.02Z"/>
      </g>
      <path class="cls-3" d="M2240.22,1458.26c123.37-96.99,219.07-246.51,168.44-409.98-27.37-88.36-144.64-176.84-237.22-134.14-89.16,41.12-64.18,98.93-95.37,173.89-1.73,4.15-22.69,51.73-31.63,41.57,84.6-307.31-19.51-602.97-265.61-797.65-539.31-426.66-1304.31,48.23-1198.56,712.3,1.8,11.31,23.75,72.73,19.54,77.44-14.76-1.45-26.43-29.82-30.77-42.44-11-31.98-10.97-72.03-23.86-102.87-9.71-23.24-42.54-56.82-66.3-64.36-116.22-36.86-228.44,46.13-250.15,161.12-32.17,170.44,64.3,312.58,196.45,407.53-139.15,224.31,94.33,429.03,317.14,405.43-8.46,140.52,93.87,259.6,235.29,269.52,126.32,8.88,223.26-39.31,312.96-122.85,9.47-8.81,14.61-19.38,24.06-27.67,6.51-1.37,51.06,48.95,60.88,57.31,113.4,96.62,308.34,135.14,435.15,43.27,60.56-43.88,104.38-141.57,87.33-215.61h69.26c19.2,0,65.73-14.3,85.94-20.94,131.86-43.42,227.23-152.59,212.83-297.86-4.57-46.16-22.75-60.46-52.84-88.83-3.33-3.15-3.62-2.71-2.51-8.19,11.07-1.83,20.99-9.24,29.58-16h-.02ZM346.19,1249.81c-9.48-22.26-16.16-45.3-19.44-68.72-2.48-17.69-4.96-42.68-4.54-67.25.39-23.03,3.36-45.67,11.28-61.57l.1-.2c.54-1.06,1.09-2.09,1.66-3.09,3.87-6.68,11.43-14.66,20.6-22.28,6.15-5.11,13.04-10.05,20.03-14.32,1.53-.95,3.09-1.86,4.62-2.73.95-.54,1.89-1.06,2.84-1.57,1.89-1.01,3.79-1.96,5.65-2.82,3.74-1.75,7.38-3.2,10.84-4.28,1.73-.54,3.43-.98,5.04-1.32,1.63-.34,3.2-.59,4.7-.7.75-.07,1.49-.1,2.2-.1,58.44-.39,41.87,45.02,50.62,84.08,15.1,67.43,78.25,131.97,138.68,162.23,4.88,2.45,12.72,4.99,21.07,7.49,1.99.6,4.02,1.19,6.04,1.8.75.21,1.5.44,2.24.65,12.68,3.72,24.71,7.25,27.77,10.14,1.86,1.75,4.62,5.6,7.88,10.64,10.95,16.91,27.7,47.43,35.76,58.53.29.39.59.82.88,1.22.51.7,1.03,1.42,1.55,2.15.98,1.37,1.98,2.79,3,4.24.47.67.93,1.32,1.4,2.01,9.39,13.38,20.14,28.99,29.66,39.01,8.28,8.72,18.25,16.52,28.57,24.08,2.95,2.15,5.93,4.29,8.9,6.43,10.4,7.48,20.76,14.9,29.76,22.95-5.76,5.65-12.03,11.79-18.72,17.76-2.97,2.66-6.04,5.27-9.17,7.8-.78.64-1.57,1.26-2.37,1.88-14.3,11.18-30.12,20.27-46.83,22.07-147.61,15.95-322.03-94.79-382.28-236.26l.02.02ZM2170.69,1604c-1.65,23.7-13.99,47.97-23.37,68.23-7.62,16.49-16.8,31-27.26,43.68-2.64,3.2-5.4,6.25-8.21,9.22-2.76,2.91-5.57,5.75-8.47,8.44-3.92,3.62-7.95,7.05-12.13,10.28-23.86,18.51-51.86,30.67-82.43,37.36-25.53,5.6-52.85,7.39-81.12,5.83-23.95-1.32-46.78-4.42-68.75-9.06-100.4-21.14-182.02-74.76-261.53-143.53-2.6-2.24-6.32-4.9-10.48-7.74-.49-.33-.98-.67-1.47-1.01-.36-.24-.72-.49-1.08-.73-.64-.44-1.29-.88-1.94-1.32-10.33-7-21.73-14.74-25.06-20.55-11.96-20.88.39-71.35.59-100.74.02-3.04-.08-5.86-.38-8.39-2.17-19.6-18.66-30.39-36.87-32.56-1.83-.21-3.66-.34-5.5-.39-2.76-.07-5.53.07-8.28.38-6.4.73-12.62,2.53-18.12,5.37-53.49,27.52-47.21,118.52-29.99,189.44.51,2.06,1.01,4.1,1.52,6.12.2.8.41,1.58.62,2.37,6.1,23.42,13.22,44.15,19.49,58.94,3.56,8.41,7.67,16.93,12.29,25.48,1.53,2.86,3.13,5.71,4.8,8.55,37.2,64.2,102.18,127.96,173.79,148.46,3.18.91,6.38,1.73,9.58,2.48,3.2.73,6.43,1.39,9.65,1.94,11.3,1.94,22.71,2.74,34.16,2.25,1.73-.08,3.62-.31,5.63-.67.41-.07.82-.15,1.22-.23.82-.16,1.66-.33,2.53-.52.87-.2,1.73-.39,2.63-.6.8-.2,1.62-.39,2.43-.6.18-.05.38-.1.55-.15,23.77-6.09,55.5-17.32,57.98,18.17.55,7.95-.72,19.36-3.54,31.29-.26,1.08-.52,2.17-.8,3.26-5.06,19.62-14.14,39.91-25.95,47.89-.18.13-.38.23-.55.34-.47.31-.95.62-1.44.88-.67.36-1.35.69-2.04.98-1.91,4.52-5.11,8.75-9.22,12.68-2.25,2.15-4.78,4.21-7.52,6.17-1.42,1.01-2.87,2.01-4.39,2.97-1.78,1.13-3.62,2.22-5.52,3.26-1.89,1.04-3.84,2.06-5.81,3.02-16.8,8.23-36.12,13.52-49.1,15.03-19.55,2.29-39.47,2.82-59.32,1.65-.47-.03-.95-.07-1.42-.08-3.43-.21-6.86-.49-10.27-.8-.75-.07-1.49-.15-2.24-.21-3.3-.33-6.59-.7-9.88-1.13-.55-.07-1.13-.15-1.68-.23-3.15-.42-6.3-.9-9.43-1.4-1.14-.18-2.29-.38-3.41-.57-4.8-.83-9.57-1.76-14.32-2.81-80.54-17.63-153.01-64.87-185.74-140.7-1.39-3.23-2.71-6.51-3.95-9.84-.96-2.58-1.91-5.19-2.79-7.84-.65-1.94-1.26-3.92-1.86-5.89-.11-.36-.2-.72-.29-1.08-.36-1.32-.67-2.66-.93-4.02-.38-1.94-.67-3.9-.96-5.83-.49-3.15-.96-6.2-1.76-8.9-2.32-7.79-4.93-19.11-8.03-31.21-6.15-23.93-14.28-50.85-26.23-59.28-8.73-6.17-16.39-9.01-23.13-9.3-1.22-.05-2.42-.02-3.57.08-.59.05-1.16.13-1.73.23-1.7.28-3.33.73-4.91,1.35-3.15,1.22-6.04,3.07-8.7,5.42-.88.78-1.75,1.62-2.58,2.5-.05.05-.1.1-.13.15-.73.78-1.44,1.6-2.12,2.45-14.77,18.17-21.43,52.3-25.72,71.77-1.49,6.73-1.94,13.19-2.32,19.28-.08,1.29-.15,2.55-.23,3.8,0,.11,0,.23-.02.34-.1,1.44-.2,2.84-.31,4.21v.02c-.11,1.39-.26,2.74-.44,4.08h0c-.18,1.34-.39,2.63-.65,3.9-3.38,16.5-9.11,32.03-16.76,46.47-.91,1.73-1.84,3.43-2.82,5.13-1.7,2.97-3.44,5.91-5.3,8.78-5.89,9.12-12.58,17.76-19.96,25.89-2.95,3.25-6.01,6.41-9.17,9.48-74.25,72.38-204.54,97.77-294.27,50.78-27.67-14.49-49.18-27.68-60.61-60.15-2.11-6.01-4.1-14.97-5.04-24.63-.18-1.76-.31-3.56-.41-5.37-.05-1.04-.1-2.11-.13-3.17-.05-1.94-.05-3.9,0-5.83.11-3.88.47-7.72,1.11-11.34.49-2.73,1.13-5.34,1.98-7.77.72-2.07,1.58-4.02,2.6-5.79.31-.54.62-1.06.95-1.57.93-1.44,1.99-2.74,3.17-3.9.87-.87,1.8-1.66,2.81-2.35,1.8-1.22,3.82-2.19,6.09-2.79,7.88-2.09,29.22,2.37,41.26,3.74.8.1,1.57.16,2.29.23,9.43.8,18.61,1.06,27.5.78,8.9-.28,17.51-1.06,25.89-2.33,2.09-.33,4.16-.67,6.22-1.04,98.74-18.22,159.56-105.33,192.01-202.91,0-.05.03-.1.05-.13,3.25-9.76,6.2-19.64,8.88-29.54l.64-2.4c.98-3.69,1.94-7.39,2.84-11.1,8.41-34.25,22.02-131.68-7.72-168.91-.8-1.01-1.66-1.96-2.53-2.87-.8-.83-1.62-1.65-2.46-2.4-5.35-4.78-11.83-7.95-19.6-9.03-14.76-2.02-33.35-1.86-45.39,5.4-1,.6-1.93,1.26-2.82,1.96-.82.64-1.62,1.31-2.35,2.04-5.11,5.08-7.95,12.32-7,22.48,1.11,11.85,2.66,23.83,3.64,35.99.24,3.04.46,6.1.62,9.17.16,3.07.26,6.15.31,9.27.08,6.19-.1,12.45-.67,18.79-3.61,40.07-21.79,51.87-51.71,75-4.1,3.17-8.39,6.45-12.85,9.79-3.35,2.51-6.79,5.09-10.32,7.69-3.53,2.61-7.15,5.26-10.85,7.92-3.71,2.68-7.48,5.37-11.34,8.08-3.85,2.71-7.79,5.45-11.77,8.19-1.86,1.29-3.75,2.56-5.65,3.85-1.62,1.09-3.23,2.19-4.86,3.28-1.91,1.29-3.84,2.56-5.76,3.85-1.86,1.22-3.74,2.46-5.63,3.69-3.2,2.09-6.41,4.16-9.66,6.24-1.04.67-2.09,1.32-3.13,1.98-13.11,8.28-26.57,16.34-40.19,23.91-1.32.73-2.66,1.47-3.98,2.2-43.86,24.04-88.85,42.7-126.93,46.23-97.3,8.98-220.16-13.45-267.08-106.88-7.15-14.23-14.46-28.91-19.18-44.12-.07-.2-.11-.39-.18-.59-.49-1.62-.95-3.23-1.39-4.86-.47-1.76-.9-3.54-1.27-5.34-.23-1.03-.44-2.07-.62-3.12-2.43-13.03-2.46-26.44,1.57-40.3,2.02-7,4.52-12.41,7.38-16.5.42-.6.85-1.16,1.27-1.7.69-.85,1.37-1.63,2.09-2.35,4.7-4.7,10.17-6.64,16.14-6.71.54,0,1.06,0,1.62.03.87.03,1.75.11,2.63.23.24.03.51.07.75.1.73.1,1.47.23,2.22.38.41.08.82.16,1.24.26.54.13,1.08.26,1.63.39,1.08.28,2.19.6,3.28.96.54.18,1.08.36,1.62.55,1.06.38,2.14.78,3.2,1.21,4.51,1.81,9.12,4.08,13.78,6.55,1.45.78,2.92,1.57,4.39,2.38,1.16.64,2.32,1.29,3.46,1.93.57.33,1.16.65,1.73.98,2.32,1.29,4.62,2.6,6.9,3.87,1.14.64,2.29,1.26,3.43,1.88,5.68,3.09,11.23,5.88,16.49,7.88,10.82,4.11,21.71,7.44,32.58,10.05,85.79,20.57,171.5-4.99,233.5-63.9,1.37-1.31,2.73-2.61,4.08-3.95,2.69-2.66,5.34-5.4,7.93-8.19,1.31-1.4,2.58-2.81,3.85-4.24,11.46-12.86,21.89-27,31.13-42.31,1.55-2.56,3.4-5.89,5.4-9.73.39-.77.8-1.55,1.21-2.37,6.15-12.1,13.35-28.43,17.48-42.78.56-1.91,1.04-3.79,1.47-5.62.21-.91.41-1.81.6-2.71.73-3.56,1.18-6.87,1.27-9.84.1-2.97-.16-5.58-.87-7.74-3.48-10.79-8.9-17.25-15.25-21.02-1.44-.85-2.92-1.57-4.46-2.17-.65-.26-1.31-.49-1.98-.72-1.31-.42-2.63-.75-3.98-1.03-1.21-.24-2.42-.44-3.64-.59-.87-.1-1.73-.18-2.6-.24-.85-.07-1.71-.1-2.56-.11h-.07c-13.92-.36-27.91,3.66-34.85.47-.07-.03-.16-.1-.24-.15-.2-.11-.41-.28-.67-.47-.56-.44-1.22-1.06-2.04-1.88-1.01-1.01-2.22-2.3-3.56-3.79-.44-.49-.91-1.01-1.39-1.55-.95-1.08-1.96-2.24-3.02-3.46-.52-.62-1.06-1.24-1.62-1.89-.8-.93-1.62-1.91-2.45-2.91-.65-.78-1.31-1.57-1.98-2.37-.69-.83-1.39-1.68-2.09-2.53-1.37-1.66-2.74-3.35-4.13-5.03-1.06-1.31-2.14-2.63-3.18-3.92-.13-.15-.24-.31-.38-.46-2.79-3.46-5.5-6.82-7.92-9.86-.11-.15-.23-.28-.34-.42-.88-1.11-1.73-2.17-2.53-3.18-.16-.21-.33-.41-.49-.62-2.4-3.02-4.33-5.44-5.48-6.89-.05-.07-.11-.15-.16-.21-6.19-7.75-12.13-15.54-17.87-23.37-4.78-6.53-9.43-13.07-13.91-19.67-2.71-3.98-5.35-7.98-7.95-11.98-1.13-1.73-2.24-3.48-3.35-5.21-2.51-3.97-4.99-7.95-7.41-11.93-4.44-7.33-8.68-14.69-12.76-22.1-2.71-4.93-5.35-9.88-7.92-14.85-2.56-4.96-5.04-9.96-7.44-14.95-2.4-4.99-4.73-10.02-6.97-15.05-7.87-17.63-14.79-35.45-20.81-53.52-.87-2.58-1.7-5.17-2.53-7.75-6.59-20.73-12-41.77-16.29-63.14-2.14-10.69-4.02-21.45-5.6-32.3-.39-2.71-.78-5.44-1.14-8.16-1.42-10.66-2.58-21.4-3.48-32.24-.03-.46-.08-.91-.11-1.37-.65-7.97-1.16-15.98-1.55-24.03-.15-3.02-.26-6.06-.38-9.09-.87-25.27-.44-51.03,1.22-77.29,1.31-20.5,3.35-41.3,6.1-62.44,32.97-252.66,268.53-472.47,513.89-527.39,107.45-24.06,210.01-17.76,308.99,13.56,12.91,4.08,25.76,8.6,38.55,13.53,25.58,9.86,50.93,21.37,76.08,34.44,91.85,47.76,164.22,101.84,223.35,176.03,2.56,3.23,5.11,6.5,7.64,9.79,3.23,4.24,6.41,8.59,9.58,12.96,16.5,22.87,31.94,47.55,46.45,74.43,25.87,47.94,44.94,100.45,57.23,155.2,2.79,12.41,5.22,24.93,7.31,37.54,1.06,6.43,2.04,12.88,2.92,19.36,2.04,14.9,3.59,29.9,4.67,44.99.08,1.14.16,2.29.24,3.43,5.5,82.97-3.56,167.69-27.23,246.95-12.55,42.05-29.25,82.54-50.03,120.45-1.73,3.15-3.49,6.28-5.27,9.4-6.25,10.92-12.86,21.61-19.83,32.04-16.98,25.45-35.99,49.39-57.13,71.41-.77.8-1.52,1.57-2.25,2.29-22.72,22.51-28.12,9.04-59.12,5.58-.07.13-.28.29-.6.49-.16.1-.34.21-.55.34-.1.07-.21.11-.31.18-.26.15-.55.33-.85.51-.15.08-.29.16-.44.26-.28.16-.55.34-.87.54-2.07,1.32-4.49,3.22-5.84,5.88-2.82,5.58-5.06,10.85-6.79,15.91-6.46,18.89-5.66,34.75.11,51.6.07.2.15.41.21.6.34,1,.72,1.99,1.09,2.99,3.26,8.6,7.75,17.55,13.17,27.32,51.47,92.96,153.26,142.97,256.58,132,1.81-.2,3.62-.41,5.44-.64,10.89-1.39,21.76-3.44,32.6-6.2.42-.11.88-.24,1.32-.38,24.89-7,85.66-41.51,102.59-36.68.67.2,1.35.47,2.02.83.47.26.95.55,1.44.88.54.36,1.08.77,1.6,1.19.33.28.67.57,1,.87.95.87,1.88,1.83,2.76,2.82.08.1.16.18.24.28,2.06,2.35,3.84,4.9,5.08,6.94.64,1.04,1.22,2.09,1.78,3.13,3.87,7.38,5.83,15.05,6.4,22.87.24,3.35.23,6.73,0,10.1v-.02ZM1601.16,1739.62c-7.1-12.81-12.42-26.23-15.25-39.7,11.1,18.93,23.24,36.4,36.81,52.35.8.57,1.65,1.19,2.5,1.84.07.05.13.1.2.15,2.61,1.99,5.42,4.26,8.32,6.68.02,0,.03.03.05.05,5.08,4.24,10.43,8.94,15.51,13.37.7.6,1.4,1.21,2.09,1.81.24.21.51.42.75.65.67.57,1.32,1.14,1.96,1.7.2.16.39.33.57.49.78.67,1.55,1.32,2.32,1.98.2.16.38.33.57.47.78.65,1.55,1.31,2.29,1.91.07.07.15.11.21.18.7.57,1.39,1.13,2.04,1.66.13.1.26.21.39.31.69.55,1.35,1.08,1.99,1.57.13.1.24.2.38.28.65.51,1.29.98,1.89,1.4,8.16,5.81,16.57,14.48,26.69,18.84l54.11,23c-1.21.18-2.4.31-3.61.44-.36.03-.72.07-1.08.1-.88.08-1.78.15-2.66.2-.36.02-.72.05-1.06.07-1.16.05-2.33.08-3.49.1h-.75c-.93,0-1.86-.02-2.77-.05-.44,0-.9-.03-1.34-.07-.77-.03-1.52-.08-2.29-.15-.44-.03-.9-.07-1.34-.1-1.08-.1-2.14-.21-3.22-.34-.51-.07-1.01-.13-1.52-.21-.64-.08-1.27-.18-1.91-.28-.59-.1-1.18-.2-1.76-.29-.54-.1-1.09-.2-1.63-.31-1.31-.24-2.6-.52-3.88-.83-.26-.07-.54-.11-.8-.18-.7-.16-1.4-.36-2.11-.54-.39-.1-.78-.21-1.18-.31-.72-.2-1.44-.39-2.15-.6-.31-.08-.6-.18-.91-.28-1.66-.51-3.33-1.04-4.98-1.62-5.99-1.22-20.34-7.35-27.88-11.74-25.81-15.02-50.85-39.24-67.85-66.84h0c-1.45-2.37-2.86-4.75-4.18-7.17l-.03.02ZM892.7,1826.7c57.73-11.85,105.17-39.37,148.46-79.13-22.48,40.74-71.97,72.62-116.79,83.1-11.08,2.58-35.09,10.99-31.67-3.97ZM2207.02,1368.32c-.33.31-.64.62-.96.95-2.55,2.48-5.13,4.93-7.72,7.36-.33.29-.64.6-.96.9-2.64,2.45-5.29,4.9-7.97,7.28-.2.18-.41.36-.6.54-5.53,4.95-11.13,9.76-16.76,14.46-.31.26-.6.51-.91.77-2.66,2.2-5.32,4.36-8,6.51-.42.34-.87.69-1.29,1.04-2.63,2.09-5.27,4.16-7.92,6.2-.44.34-.88.67-1.31,1.01-2.68,2.06-5.37,4.1-8.05,6.09-.33.24-.65.47-.98.72-2.82,2.09-5.65,4.16-8.47,6.19-2.27,1.62-4.57,3.23-6.9,4.85-.2.13-.39.26-.59.41-2.17,1.5-4.37,2.99-6.59,4.46-.26.16-.51.34-.77.51-2.24,1.47-4.49,2.94-6.77,4.41-.21.13-.42.28-.64.41-2.46,1.57-4.95,3.1-7.46,4.64-.02,0-.05.03-.07.05-2.51,1.53-5.08,3.05-7.64,4.54-.21.11-.42.24-.64.36-2.42,1.4-4.85,2.77-7.3,4.13-.26.15-.54.29-.8.44-2.46,1.35-4.95,2.69-7.46,4-.21.11-.42.23-.64.33-4.15,2.17-8.36,4.26-12.6,6.28-.41.2-.82.38-1.21.57-1.14.54-2.29,1.08-3.43,1.6-.41.18-.8.38-1.21.56-1.4.64-2.81,1.27-4.23,1.89-.08.03-.18.08-.26.11-1.63.72-3.26,1.42-4.91,2.11-.03,0-.05.02-.08.03-1.57.65-3.15,1.31-4.72,1.94-.16.07-.34.13-.51.2-9.32,3.72-18.8,7.02-28.37,9.76h-.02c-2.71.78-5.44,1.5-8.16,2.19-.02,0-.05,0-.07.02-2.71.69-5.44,1.32-8.16,1.91h-.07c-2.74.59-5.48,1.13-8.23,1.62h0c-5.5.98-11,1.73-16.5,2.27h-.03c-3.04.29-6.07.51-9.11.67-.47.02-.93.03-1.4.07-1.09.05-2.19.08-3.3.11-.52,0-1.06.02-1.58.03-1.09.02-2.19.02-3.28.02h-1.4c-3.09-.03-6.17-.15-9.24-.36-.47-.03-.95-.07-1.42-.1-1.08-.08-2.15-.16-3.23-.28-.54-.05-1.06-.1-1.6-.16-1.08-.11-2.14-.24-3.22-.38-.47-.07-.95-.11-1.42-.18-2.86-.38-5.71-.83-8.55-1.39-2.74-.52-5.47-1.13-8.18-1.81-.44-.11-.9-.23-1.34-.36-.95-.24-1.91-.51-2.86-.77-.54-.15-1.08-.31-1.62-.47-.87-.24-1.71-.51-2.58-.78-.57-.18-1.14-.36-1.7-.56-.83-.28-1.65-.54-2.46-.83-.57-.2-1.14-.41-1.73-.6-.82-.29-1.63-.6-2.45-.91-.57-.21-1.13-.44-1.7-.65-.83-.33-1.66-.69-2.51-1.03-.54-.23-1.08-.44-1.6-.67-.91-.39-1.83-.82-2.74-1.22-.44-.2-.9-.41-1.34-.6-1.35-.64-2.71-1.29-4.05-1.98-2.29-1.16-4.37-2.42-6.32-3.74-.87-.59-1.7-1.21-2.51-1.83-.26-.2-.51-.39-.75-.59-.57-.44-1.13-.9-1.68-1.37-.26-.21-.51-.42-.75-.64-.64-.56-1.26-1.11-1.86-1.66-.11-.1-.23-.21-.34-.31h0l-.05-.05c-.9-.85-1.78-1.71-2.64-2.6-.24-.26-.51-.52-.75-.77-.64-.65-1.26-1.32-1.88-1.99-.28-.29-.54-.59-.82-.87-.65-.72-1.31-1.42-1.94-2.14-.98-1.08-1.94-2.15-2.92-3.22-.28-.31-.55-.6-.83-.9-4.08-4.44-8.41-8.78-13.92-12.6-.05-.18,0-.42.1-.72.02-.08.05-.15.08-.24h0c.05-.13.13-.29.21-.46.05-.11.1-.23.16-.36h0c.03-.07.08-.13.11-.21.11-.2.23-.41.38-.62h0s.08-.15.13-.23h0s.07-.08.08-.13c.42-.65.93-1.37,1.53-2.19h0c.24-.33.51-.67.77-1.01h0c.34-.42.69-.88,1.06-1.35.05-.07.1-.11.15-.18h0s.08-.1.13-.15c0-.02.03-.03.05-.05.33-.41.67-.82,1.03-1.24l.02-.02c.75-.91,1.58-1.88,2.45-2.89.18-.2.34-.39.51-.59,0-.02.03-.03.05-.05.05-.05.1-.11.15-.16.02-.03.05-.05.07-.07.34-.39.7-.8,1.06-1.21,2.37-2.71,5.06-5.66,7.95-8.83h0l.03-.03c9.53-10.35,21.35-22.62,31.81-33.51,1.44-1.5,2.86-2.97,4.24-4.41.31-.31.6-.62.9-.95,2.3-2.4,4.52-4.7,6.56-6.86,0,0,.03-.03.03-.05l.02-.02c.59-.62,1.18-1.22,1.75-1.83.07-.07.15-.15.21-.21.59-.6,1.14-1.21,1.7-1.8.03-.03.05-.07.08-.08.03-.05.08-.08.11-.13.26-.28.52-.56.78-.82.1-.11.21-.21.31-.33.07-.08.15-.15.21-.23.18-.2.36-.39.54-.57.23-.24.44-.47.65-.7h0c.2-.2.38-.41.55-.6.08-.08.16-.16.23-.26.13-.13.24-.28.38-.41.16-.18.34-.38.51-.56.24-.28.49-.54.73-.8.2-.21.39-.42.57-.64.23-.24.44-.49.65-.73.13-.15.24-.28.38-.42.16-.2.34-.38.51-.56.11-.13.23-.24.33-.38.08-.08.15-.16.21-.24.08-.1.16-.18.24-.28.11-.13.21-.24.33-.38.15-.16.28-.33.41-.47.08-.1.16-.2.24-.28.2-.24.39-.47.55-.69,23.49-29.2,40.42-68.7,71.36-88.99,17.89-11.74,34.29-12.83,53.57-23.62,8.42-4.72,16.42-9.88,24.01-15.43,1.18-.87,2.33-1.73,3.49-2.61,9.09-6.89,17.6-14.33,25.53-22.28,5.53-5.55,10.77-11.34,15.77-17.33,2.32-2.79,4.57-5.62,6.79-8.49.95-1.24,1.89-2.48,2.82-3.74,1.75-2.37,3.48-4.75,5.16-7.17,2.5-3.59,4.91-7.23,7.26-10.92,19.07-30.05,33.2-63.64,43.57-98.36,9.09-30.41.26-62.7,43.58-62.63,46.13.07,74.78,43.24,85.07,82.46h0c.62,2.33,1.19,4.67,1.71,7,.18.75.33,1.5.49,2.25.34,1.57.69,3.15,1,4.72.18.9.34,1.8.51,2.69.26,1.42.52,2.84.77,4.24.16.96.29,1.91.44,2.87.21,1.35.41,2.71.59,4.06.13.98.24,1.96.38,2.94.16,1.32.31,2.64.46,3.97.1.98.2,1.98.29,2.95.11,1.32.23,2.63.33,3.95.07.98.15,1.96.2,2.92.08,1.32.15,2.64.2,3.95.03.96.08,1.91.11,2.87.03,1.35.07,2.69.08,4.03,0,.91.03,1.83.03,2.76,0,1.42-.03,2.82-.05,4.23,0,.83-.02,1.68-.05,2.51-.05,1.63-.13,3.25-.21,4.88-.03.6-.05,1.22-.08,1.83-.13,2.24-.29,4.46-.49,6.68-.03.41-.08.82-.13,1.22-.16,1.81-.36,3.61-.57,5.42-.1.78-.2,1.55-.29,2.32-.18,1.44-.38,2.86-.57,4.28-.13.88-.28,1.75-.41,2.63-.21,1.32-.42,2.63-.65,3.93-.16.91-.34,1.83-.51,2.74-.24,1.27-.47,2.53-.73,3.79-.2.93-.39,1.86-.59,2.79-.26,1.24-.54,2.48-.83,3.72-.21.93-.44,1.86-.67,2.79-.29,1.24-.62,2.46-.93,3.71-.24.91-.47,1.83-.72,2.76-.34,1.24-.69,2.48-1.04,3.72-.26.9-.51,1.8-.78,2.68-.38,1.27-.78,2.55-1.18,3.82-.26.85-.52,1.7-.8,2.53-.44,1.37-.91,2.73-1.39,4.08-.26.73-.51,1.49-.77,2.22-.6,1.7-1.22,3.4-1.86,5.09-.15.39-.28.77-.42,1.16-.8,2.07-1.62,4.15-2.45,6.22-.23.57-.47,1.13-.72,1.7-.62,1.5-1.24,2.99-1.89,4.47-.33.77-.67,1.52-1.01,2.29-.57,1.29-1.14,2.56-1.73,3.85-.38.83-.77,1.65-1.16,2.48-.57,1.21-1.14,2.4-1.71,3.59-.41.85-.85,1.71-1.26,2.56-.57,1.16-1.16,2.32-1.76,3.48-.44.87-.88,1.71-1.34,2.58-.6,1.14-1.21,2.29-1.81,3.41-.46.87-.93,1.71-1.4,2.58-.62,1.14-1.26,2.27-1.89,3.4-.47.85-.95,1.68-1.44,2.51-.67,1.16-1.34,2.3-2.01,3.44-.47.8-.95,1.62-1.44,2.42-.72,1.19-1.45,2.38-2.19,3.57-.46.73-.91,1.49-1.37,2.22-.83,1.32-1.66,2.63-2.51,3.93-.39.6-.77,1.21-1.16,1.81-5.57,8.52-11.49,16.85-17.74,24.99-.16.21-.33.44-.49.65-2.24,2.89-4.51,5.76-6.81,8.62-.23.29-.47.59-.7.87-2.3,2.82-4.64,5.63-7,8.41-.21.24-.42.49-.64.73-2.43,2.84-4.9,5.66-7.41,8.46-.05.07-.11.13-.16.18-5.14,5.71-10.4,11.31-15.78,16.78-.21.21-.42.44-.64.65-2.55,2.58-5.11,5.13-7.69,7.64l-.02-.08Z"/>
    </g>
    <g>
      <g>
        <path class="cls-2" d="M2297.71,594.91c-37.58-5.7-51.53,32.07-39.58,63.37,21.19,55.48,96,5.55,67.28-47.53-3.95-2.19-8.29-6.51-11.87-7.92-4.78-1.88-11.87-7.31-15.83-7.92Z"/>
        <path class="cls-2" d="M320.63,662.42c33.89,44.4,93.97-13.79,60.25-54.37-29.35-35.31-97.04,6.17-60.25,54.37h0Z"/>
        <path class="cls-2" d="M391.86,436.67c11.18,18.02,3.07,48.05,11.08,62.21,7.88,13.92,36.61,16.67,50.36,6.82,25.84-18.51-5.86-73.86,48.32-90.28,21.11-6.4,85.16-9.29,60.28-49.92-19.31-31.54-79.28.78-94.87-51.6-6.5-21.79-4.59-87.1-48.19-68.54-31.75,13.52-7.9,65.31-40.46,90.28-28.91,22.18-91.67-3.51-78.46,54.44,8.5,37.28,67.87,7.8,91.95,46.57v.02Z"/>
        <path class="cls-2" d="M2155.39,414.52c48.04,17.16,15.62,96.57,61.55,101.15,46.96,4.68,22.08-67.46,49.33-92.83,18.1-16.86,59.97-8.21,73.83-19.24,10.22-8.13,12.14-29.19,5.34-40.66-15.34-25.89-75.75,1.08-93.32-53.13-6.87-21.22-.87-64.59-31.94-67.36-45.05-4.02-32.81,33.53-39.01,63.56-12.76,61.78-90.38,20.19-97.01,65.41-7.07,48.28,43.89,33.36,71.22,43.11h.02Z"/>
      </g>
      <g>
        <path class="cls-1" d="M326.75,1181.09l7.92-5.89c53.34,102.38,152.86,182.6,268.22,202.86,44.76,7.87,90.2,4.39,135.46,5.03-9.52-10.01-20.27-25.63-29.66-39.01-.47-.67-.95-1.34-1.4-2.01-1.01-1.45-2.02-2.87-3-4.24-.52-.73-1.03-1.45-1.55-2.15-.29-.41-.59-.83-.88-1.22-8.06-11.12-24.79-41.62-35.76-58.53-3.26-5.04-6.04-8.9-7.88-10.64-3.07-2.89-15.1-6.41-27.77-10.14-.75-.21-1.5-.44-2.24-.65-2.02-.59-4.05-1.19-6.04-1.8-8.36-2.51-16.19-5.06-21.07-7.49-60.43-30.26-123.58-94.8-138.68-162.23-8.75-39.06,7.82-84.47-50.62-84.08-.72,0-1.45.03-2.2.1-1.5.13-3.07.36-4.7.7-1.63.34-3.31.78-5.04,1.32-3.46,1.08-7.12,2.53-10.84,4.28-1.86.87-3.75,1.81-5.65,2.82-.95.51-1.89,1.03-2.84,1.57-1.53.87-3.09,1.78-4.62,2.73-6.99,4.28-13.87,9.21-20.03,14.32-9.17,7.62-16.73,15.6-20.6,22.28-.57,1-1.13,2.02-1.66,3.09l-.1.2c-7.93,15.9-10.89,38.54-11.28,61.57-.42,24.57,2.06,49.56,4.54,67.25h-.02Z"/>
        <path class="cls-1" d="M2164.3,1571.02c-.55-1.06-1.14-2.11-1.78-3.13-1.24-2.04-3.02-4.59-5.08-6.94-.08-.1-.16-.18-.24-.28-.88-1-1.81-1.96-2.76-2.82-.33-.29-.65-.59-1-.87-.54-.44-1.06-.83-1.6-1.19-.47-.33-.95-.62-1.44-.88-.69-.36-1.35-.65-2.02-.83-16.91-4.83-77.68,29.68-102.59,36.68-.44.13-.9.26-1.32.38-10.84,2.76-21.73,4.82-32.6,6.2-1.81.23-3.62.44-5.44.64-103.31,10.97-205.1-39.04-256.58-132-5.42-9.79-9.91-18.72-13.17-27.32-.38-1-.75-1.99-1.09-2.99-.07-.2-.15-.41-.21-.6-5.78-16.86-6.56-32.73-.11-51.6,1.73-5.06,3.97-10.33,6.79-15.91,1.34-2.64,3.77-4.54,5.84-5.88.29-.2.59-.38.87-.54.15-.1.29-.18.44-.26.31-.18.59-.34.85-.51.11-.07.21-.13.31-.18.21-.13.39-.23.55-.34.31-.2.54-.38.6-.49h0c51.73-101.07,111.73-220.98,126.14-335.19,31.44-249.32-52.12-519.12-255.13-674.63-4.7-3.61-11.46-3.59-9.53-12.05-25.14-13.07-50.49-24.58-76.08-34.44-12.8-4.93-25.64-9.43-38.55-13.53-98.98-31.32-201.54-37.62-308.99-13.56-245.37,54.93-480.92,274.71-513.89,527.39-2.76,21.14-4.8,41.95-6.1,62.44-1.66,26.26-2.11,52.02-1.22,77.29.1,3.04.23,6.07.38,9.09.38,8.06.9,16.06,1.55,24.03.03.46.08.91.11,1.37.91,10.82,2.06,21.58,3.48,32.24.36,2.73.75,5.45,1.14,8.16,1.58,10.85,3.46,21.63,5.6,32.3,4.29,21.37,9.7,42.41,16.29,63.14.82,2.6,1.66,5.17,2.53,7.75,6.02,18.07,12.94,35.91,20.81,53.52,2.25,5.03,4.57,10.05,6.97,15.05,2.4,4.99,4.88,9.99,7.44,14.95,2.56,4.96,5.19,9.92,7.92,14.85,4.08,7.39,8.32,14.77,12.76,22.1,2.42,3.98,4.9,7.97,7.41,11.93,1.11,1.75,2.22,3.48,3.35,5.21,2.6,4,5.24,8,7.95,11.98,4.47,6.58,9.12,13.14,13.91,19.67,5.73,7.83,11.69,15.62,17.87,23.37.05.07.11.15.16.21,1.16,1.45,3.07,3.87,5.48,6.89.16.2.33.41.49.62.8,1,1.65,2.07,2.53,3.18.11.15.23.28.34.42,2.42,3.04,5.11,6.4,7.92,9.86.13.15.24.31.38.46,1.06,1.31,2.12,2.61,3.18,3.92,1.37,1.7,2.76,3.38,4.13,5.03.7.85,1.4,1.7,2.09,2.53.67.8,1.32,1.6,1.98,2.37.83,1,1.65,1.96,2.45,2.91.54.64,1.08,1.27,1.62,1.89,1.06,1.22,2.06,2.38,3.02,3.46.47.54.95,1.06,1.39,1.55,1.34,1.49,2.55,2.77,3.56,3.79.82.82,1.5,1.44,2.04,1.88.26.21.47.36.67.47.08.05.16.11.24.15,6.94,3.18,20.91-.83,34.85-.47h.07c.85.02,1.71.07,2.56.11.87.07,1.73.15,2.6.24,1.22.15,2.45.34,3.64.59,1.34.28,2.68.62,3.98,1.03.67.21,1.32.46,1.98.72,1.52.6,3,1.32,4.46,2.17,6.35,3.77,11.77,10.23,15.25,21.02.69,2.15.95,4.77.87,7.74-.1,2.97-.54,6.28-1.27,9.84-.18.88-.38,1.8-.6,2.71-.42,1.83-.93,3.71-1.47,5.62-4.13,14.35-11.33,30.69-17.48,42.78-.41.8-.82,1.6-1.21,2.37-1.99,3.84-3.85,7.15-5.4,9.73-9.24,15.31-19.67,29.45-31.13,42.31-1.27,1.44-2.56,2.84-3.85,4.24-2.6,2.79-5.24,5.53-7.93,8.19-1.34,1.34-2.71,2.64-4.08,3.95-61.99,58.91-147.71,84.49-233.5,63.9-10.87-2.61-21.74-5.94-32.58-10.05-5.26-2.01-10.81-4.8-16.49-7.88-1.14-.62-2.27-1.24-3.43-1.88-2.29-1.27-4.59-2.58-6.9-3.87-.57-.33-1.16-.65-1.73-.98-1.16-.65-2.32-1.29-3.46-1.93-1.47-.8-2.92-1.6-4.39-2.38-4.65-2.46-9.27-4.75-13.78-6.55-1.08-.42-2.14-.83-3.2-1.21-.54-.2-1.08-.38-1.62-.55-1.11-.36-2.2-.69-3.28-.96-.54-.15-1.09-.28-1.63-.39-.41-.1-.83-.18-1.24-.26-.75-.15-1.49-.28-2.22-.38-.24-.03-.51-.07-.75-.1-.88-.11-1.76-.18-2.63-.23-.54-.02-1.08-.03-1.62-.03-5.97.07-11.44,2.01-16.14,6.71-.72.72-1.42,1.5-2.09,2.35-.44.54-.87,1.09-1.27,1.7-2.86,4.08-5.35,9.5-7.38,16.5-4.03,13.87-4,27.29-1.57,40.3.2,1.04.41,2.07.62,3.12.39,1.78.82,3.56,1.27,5.34.42,1.63.9,3.25,1.39,4.86.07.2.11.39.18.59,4.72,15.21,12.05,29.9,19.18,44.12h0c19.9,10.92,34.44,24.26,56.69,32.38,72.36,26.43,185.66,18.72,258.98-3.62,102.93-31.36,192.76-107.52,250.28-197.29,3.28-5.13,3.4-11.56,11.87-9.7-.95-10.15,1.89-17.4,7-22.48.73-.73,1.53-1.39,2.35-2.04.9-.7,1.83-1.35,2.82-1.96,12.05-7.26,30.64-7.43,45.39-5.4,7.77,1.08,14.25,4.24,19.6,9.03.85.75,1.66,1.57,2.46,2.4.87.91,1.73,1.88,2.53,2.87,29.74,37.22,16.13,134.65,7.72,168.91-.91,3.71-1.86,7.41-2.84,11.1-.21.8-.42,1.6-.64,2.4-2.69,9.91-5.65,19.78-8.88,29.54,0,.05-.03.1-.05.13-32.45,97.58-93.27,184.68-192.01,202.91-2.06.38-4.13.73-6.22,1.04-8.36,1.27-16.99,2.07-25.89,2.33-8.9.28-18.05.02-27.5-.78-.72-.07-1.47-.13-2.29-.23-12.05-1.37-33.36-5.83-41.26-3.74-2.27.6-4.29,1.55-6.09,2.79-1.01.69-1.94,1.49-2.81,2.35-1.18,1.16-2.22,2.46-3.17,3.9-.33.51-.65,1.03-.95,1.57-1.01,1.8-1.88,3.72-2.6,5.79-.83,2.43-1.49,5.04-1.98,7.77-.65,3.62-1,7.46-1.11,11.34-.07,1.93-.07,3.88,0,5.83.03,1.06.07,2.11.13,3.17.1,1.8.23,3.59.41,5.37.95,9.66,2.94,18.62,5.04,24.63,11.41,32.47,32.94,45.66,60.61,60.15l83.25-13.73c95.6-20.83,179.63-60.67,243.31-136.74,8.57-10.23,13.47-28.86,25.68-31.73,4.29-19.47,10.95-53.6,25.72-71.77.69-.85,1.4-1.66,2.12-2.45.05-.05.1-.1.13-.15.83-.88,1.7-1.71,2.58-2.5,2.66-2.35,5.57-4.19,8.7-5.42,1.57-.6,3.2-1.06,4.91-1.35.57-.1,1.14-.16,1.73-.23,1.16-.11,2.35-.15,3.57-.08,6.73.29,14.4,3.13,23.13,9.3,11.93,8.44,20.08,35.36,26.23,59.28,3.1,12.1,5.71,23.42,8.03,31.21h0l73.31,63.28c47.78,36.48,141.91,86.22,201.62,91.33,29.71,2.55,90.4,2.84,116.9-8.06h0c.69-.28,1.37-.6,2.04-.98.49-.26.96-.57,1.44-.88.18-.11.38-.21.55-.34,11.8-7.98,20.89-28.27,25.95-47.89.28-1.09.55-2.17.8-3.26,2.81-11.93,4.1-23.34,3.54-31.29-2.48-35.49-34.21-24.26-57.98-18.17-.18.05-.38.1-.55.15-.82.21-1.63.41-2.43.6-.88.21-1.76.42-2.63.6-.87.2-1.7.36-2.53.52-.41.08-.82.15-1.22.23-2.01.36-3.9.59-5.63.67-11.44.49-22.85-.31-34.16-2.25-3.23-.55-6.45-1.21-9.65-1.94-3.2-.73-6.4-1.57-9.58-2.48-71.61-20.5-136.59-84.24-173.79-148.46-1.65-2.86-3.25-5.71-4.8-8.55-4.62-8.55-8.75-17.09-12.29-25.48-6.27-14.8-13.38-35.53-19.49-58.94-.21-.78-.41-1.58-.62-2.37-.52-2.02-1.03-4.06-1.52-6.12-17.22-70.92-23.51-161.92,29.99-189.44,5.5-2.82,11.72-4.62,18.12-5.37,2.74-.31,5.52-.44,8.28-.38,1.84.05,3.67.18,5.5.39,18.2,2.17,34.7,12.96,36.87,32.56,12.19-2.22,9.52.69,13.97,7.67,15.03,23.47,25.09,49.95,43.35,71.59,104.14,123.38,348.54,206.79,495.43,123.4,13.52-7.67,22.88-19.39,36.92-24.44,9.37-20.26,21.71-44.53,23.37-68.23.24-3.38.26-6.76,0-10.1-.55-7.82-2.51-15.49-6.4-22.87l.03.07ZM1338.89,338.13c56.56-11.64,66.63,90.69,7.3,82.3-47.29-6.69-48.94-73.73-7.3-82.3ZM974.74,516.59c110.87-22.66,128.79,133.26,33.79,148.67-96.27,15.6-118.93-131.27-33.79-148.67ZM1083.52,1098.16c-9.99,7.95-20.93,14.74-32.5,20.11-.96.44-1.93.88-2.91,1.31-2.92,1.29-5.88,2.48-8.86,3.57-3.98,1.47-8.03,2.76-12.13,3.87-2.04.56-4.11,1.08-6.17,1.55-1.03.23-2.07.46-3.12.67-1.91.39-3.82.73-5.73,1.04-.31.05-.62.1-.93.15-44.99,6.94-93.78-7.88-132.35-56.23-31.31-39.22-37.46-85.78-25.35-126.98.23-.8.47-1.6.73-2.4,1.11-3.54,2.35-7.04,3.72-10.5,2.19-5.5,4.72-10.85,7.54-16.08.65-1.19,1.31-2.37,1.99-3.54,22.26-38.38,61.88-67.41,111.4-73.26,31.72-3.74,66.22,7.85,94.84,27.49,21.42,14.69,39.53,33.89,50.68,54.57,10.07,18.67,15.16,37.59,16.16,56.04,2.51,46.62-21.2,90.1-57.02,118.62h-.02ZM1157.05,377.88c72.44-6.25,105.9,103.27,35.18,134.58-105.9,46.86-147-124.92-35.18-134.58h0ZM1224.01,560.11c65.67-15.13,94.07,71.53,36.78,96.17-75.17,32.34-92.75-83.28-36.78-96.17ZM1408.46,1141.67c-8.73,8.42-17.99,15.49-26.2,20.39-4.82,2.87-9.58,5.44-14.32,7.7-3.15,1.52-6.28,2.89-9.4,4.13-42.1,16.8-81.06,9.09-119.39-24.63-15.08-13.27-34.51-37.27-40.01-60.12-.11-.51-.23-1-.34-1.5-.73-3.44-1.16-6.87-1.19-10.2-.08-12.67,5.42-24.29,19.96-32.65,16.94-9.73,28.89-5.27,39.66,4.26,12.57,11.12,23.51,29.14,38.85,39.55,1.09.75,2.22,1.45,3.36,2.11.57.33,1.14.65,1.73.96,2.74,1.45,5.65,2.63,8.72,3.49.39.11.8.21,1.19.31.96.24,1.94.44,2.92.62.26.05.54.1.8.13,1.27.2,2.56.34,3.9.42,49.96,3.02,64.9-93.19,110.91-44.94,8.19,8.59,11.74,18.13,11.95,27.98.46,21.63-15.2,44.66-33.12,61.96v.02ZM1547.12,1092.58c-2.2-2.11-4.34-4.23-6.38-6.37-1.52-1.6-2.99-3.2-4.41-4.8-5.89-6.64-11.02-13.4-15.41-20.27-1.16-1.81-2.27-3.62-3.33-5.45-1.49-2.56-2.87-5.13-4.16-7.7-3.26-6.53-5.91-13.12-8-19.73-.64-2.04-1.24-4.1-1.76-6.14-.47-1.83-.91-3.64-1.31-5.47-.57-2.66-1.06-5.32-1.45-7.97-.88-5.97-1.34-11.93-1.37-17.84-.03-4.73.21-9.43.69-14.1.24-2.33.54-4.65.91-6.97,9.09-57.77,55.87-108.12,112.12-123.79,4.51-1.26,9.06-2.29,13.66-3.09,5.76-1,11.59-1.62,17.47-1.84,2.35-.1,4.7-.11,7.07-.08s4.73.13,7.1.31c3.56.24,7.12.65,10.69,1.21,5.11.8,10.2,1.93,15.29,3.4,1.63.47,3.28.98,4.91,1.52,2.02.67,4.05,1.39,6.07,2.17,6.33,2.45,12.63,5.44,18.85,9.03,1.94,1.11,3.87,2.29,5.78,3.51,1.18.75,2.35,1.52,3.51,2.32,13.16,8.94,25.86,20.63,37.79,35.44,107.47,133.42-86.32,314.71-214.35,192.72h.02Z"/>
        <path class="cls-1" d="M1905.65,1383.42l26.61-.08c.44-.08.88-.16,1.34-.24h81.14c9.22,0,41.46-7.85,52.58-10.76,8.1-2.12,16.11-4.57,24.06-7.33,1.52-.52,3.02-1.08,4.52-1.63,2.45-.9,4.88-1.81,7.31-2.76,1.52-.6,3.04-1.22,4.55-1.84,3.26-1.34,6.51-2.73,9.73-4.18,2.99-1.34,5.97-2.71,8.94-4.13,2.86-1.37,5.68-2.81,8.5-4.26.95-.49,1.89-.98,2.84-1.47.03-.02.08-.05.11-.07,1.68-.88,3.35-1.8,5.03-2.71.55-.31,1.09-.62,1.65-.91,1.18-.65,2.33-1.31,3.51-1.98.62-.36,1.22-.7,1.84-1.06,1.13-.65,2.25-1.32,3.38-1.99.59-.34,1.16-.69,1.75-1.04,1.34-.82,2.68-1.63,4-2.46.33-.21.67-.41,1-.62,1.65-1.03,3.3-2.09,4.93-3.15.46-.29.91-.6,1.35-.9,1.19-.78,2.37-1.57,3.56-2.37.57-.39,1.16-.78,1.73-1.18,1.08-.73,2.15-1.49,3.22-2.22.57-.39,1.14-.8,1.7-1.19,1.16-.83,2.32-1.66,3.48-2.5.44-.33.88-.64,1.32-.95,1.58-1.16,3.15-2.32,4.7-3.51.31-.23.6-.47.91-.7,1.26-.96,2.51-1.93,3.75-2.91.52-.41,1.04-.82,1.55-1.24,1.04-.82,2.07-1.65,3.1-2.5.55-.44,1.09-.9,1.63-1.34,1.04-.87,2.09-1.73,3.13-2.61.47-.39.95-.8,1.42-1.19,2.99-2.55,5.93-5.14,8.83-7.79.46-.41.9-.83,1.35-1.24,1.01-.93,2.01-1.86,3-2.79.51-.47,1.01-.96,1.52-1.44.96-.91,1.91-1.84,2.87-2.76.47-.46.95-.91,1.42-1.39,1.13-1.11,2.25-2.25,3.38-3.38.26-.26.52-.52.78-.8,1.37-1.4,2.73-2.81,4.08-4.23.36-.38.72-.77,1.08-1.16.98-1.04,1.98-2.11,2.94-3.17.46-.51.91-1.01,1.37-1.52.88-.98,1.76-1.98,2.64-2.95.44-.51.9-1.01,1.34-1.52.95-1.09,1.89-2.19,2.84-3.3.33-.39.67-.78,1-1.18,1.26-1.5,2.51-3,3.75-4.52.23-.28.44-.56.67-.83,1.01-1.24,2.01-2.5,2.99-3.75.41-.51.8-1.03,1.21-1.55.82-1.04,1.63-2.11,2.43-3.17.41-.56.83-1.09,1.24-1.65.82-1.09,1.63-2.2,2.45-3.31.34-.47.7-.96,1.04-1.44,2.29-3.17,4.51-6.38,6.66-9.63.33-.51.65-1,.98-1.5.75-1.14,1.5-2.29,2.24-3.43.38-.57.73-1.16,1.09-1.73.72-1.13,1.42-2.25,2.11-3.4.34-.56.67-1.09,1.01-1.65.83-1.37,1.63-2.74,2.45-4.11.18-.31.36-.6.54-.91.98-1.68,1.94-3.38,2.87-5.08.24-.44.49-.9.73-1.35.69-1.26,1.37-2.53,2.06-3.79.31-.59.62-1.19.93-1.78.6-1.16,1.21-2.33,1.81-3.51.29-.6.6-1.19.9-1.8.64-1.29,1.27-2.58,1.89-3.87.23-.46.46-.93.67-1.39.83-1.75,1.65-3.51,2.45-5.27.15-.33.28-.65.42-.96.65-1.45,1.27-2.91,1.91-4.36.24-.59.51-1.19.75-1.78.51-1.22,1.01-2.43,1.5-3.66.26-.64.51-1.27.77-1.89.49-1.26.98-2.53,1.47-3.79.21-.56.42-1.11.64-1.66,1.35-3.62,2.63-7.28,3.82-10.97.18-.57.36-1.14.54-1.7.41-1.29.82-2.58,1.21-3.88.2-.65.39-1.31.59-1.96.38-1.27.73-2.53,1.09-3.8.18-.62.34-1.24.52-1.86.41-1.53.82-3.07,1.21-4.6.08-.34.18-.69.26-1.04.47-1.88.91-3.75,1.34-5.65.11-.51.23-1.03.33-1.53.31-1.39.6-2.79.88-4.18.13-.67.26-1.32.39-1.99.24-1.29.49-2.56.72-3.85.11-.67.24-1.34.36-2.01.24-1.4.47-2.82.69-4.23.08-.52.16-1.03.24-1.55.29-1.93.55-3.85.8-5.78.05-.36.08-.73.13-1.11.2-1.57.38-3.15.54-4.72.07-.65.13-1.31.2-1.98.13-1.32.24-2.63.36-3.95.05-.7.11-1.39.16-2.09.1-1.35.18-2.73.26-4.08.03-.62.08-1.22.1-1.84.1-1.96.18-3.92.23-5.89h0c-10.3-39.22-38.95-82.4-85.07-82.46-43.32-.07-34.49,32.21-43.58,62.63-10.38,34.72-24.52,68.3-43.57,98.36-2.35,3.71-4.77,7.35-7.26,10.92-1.68,2.42-3.4,4.8-5.16,7.17-.93,1.26-1.88,2.5-2.82,3.74-2.2,2.87-4.47,5.7-6.79,8.49-4.99,5.99-10.23,11.79-15.77,17.33-7.93,7.95-16.44,15.39-25.53,22.28-1.16.88-2.32,1.75-3.49,2.61-7.59,5.55-15.57,10.71-24.01,15.43-19.28,10.79-35.68,11.88-53.57,23.62-30.95,20.29-47.88,59.79-71.36,88.99-.02.03-.05.07-.08.1-.15.18-.31.38-.47.57h0c-.36.42-.77.9-1.21,1.4-.07.07-.11.13-.18.21,0,0-.02.03-.03.03-.72.8-1.53,1.71-2.45,2.71l-.03.03c-.23.24-.44.49-.67.73l-.03.03c-.29.31-.59.64-.88.96-.07.07-.13.13-.2.21,0,0-.03.03-.03.05-.18.2-.38.41-.57.6-.18.2-.38.39-.55.59-.03.03-.07.07-.1.11-.18.2-.36.38-.54.57l-.05.05s-.11.11-.16.18c-.36.38-.72.77-1.09,1.16-.02.02-.03.03-.05.07-.02.02-.05.05-.07.07-.57.6-1.18,1.24-1.78,1.88-.07.07-.13.15-.21.21-.57.6-1.14,1.21-1.75,1.83l-.02.02h0c-2.06,2.17-4.28,4.49-6.61,6.9-.08.08-.15.15-.21.23.05.23.1.46.15.69l-.05.03Z"/>
      </g>
      <g>
        <path class="cls-5" d="M728.48,1486.09c16.7-1.81,32.53-10.89,46.83-22.07.8-.62,1.58-1.26,2.37-1.88,3.13-2.53,6.2-5.16,9.17-7.8,6.69-5.97,12.96-12.11,18.72-17.76-8.98-8.05-19.34-15.47-29.76-22.95-2.97-2.14-5.94-4.28-8.9-6.43-10.32-7.56-20.29-15.36-28.57-24.08-45.28-.65-90.72,2.82-135.46-5.03-115.35-20.26-214.87-100.48-268.22-202.86l-7.92,5.89h0c3.28,23.42,9.96,46.46,19.44,68.72,60.25,141.49,234.67,252.21,382.28,236.26v-.02Z"/>
        <path class="cls-5" d="M1613.01,337.46c-1.94,8.46,4.83,8.44,9.53,12.05,203.01,155.51,286.56,425.33,255.13,674.63-14.4,114.21-74.4,234.14-126.14,335.19,31,3.44,36.4,16.93,59.12-5.58.73-.72,1.49-1.49,2.25-2.29,21.14-22.02,40.15-45.97,57.13-71.41,6.95-10.43,13.56-21.12,19.83-32.04,1.78-3.12,3.54-6.25,5.27-9.4,20.78-37.9,37.48-78.4,50.03-120.45,23.67-79.26,32.73-163.98,27.23-246.95-.08-1.14-.16-2.29-.24-3.43-1.08-15.07-2.63-30.07-4.67-44.99-.88-6.48-1.86-12.93-2.92-19.36-2.09-12.62-4.52-25.14-7.31-37.54-12.29-54.76-31.36-107.26-57.23-155.2-14.51-26.88-29.95-51.55-46.45-74.43-3.17-4.37-6.35-8.72-9.58-12.96-2.51-3.3-5.06-6.56-7.64-9.79-59.11-74.2-131.5-128.27-223.35-176.03l.02-.02Z"/>
        <path class="cls-5" d="M2110.39,1696.65c-146.89,83.39-391.29,0-495.43-123.4-18.27-21.64-28.34-48.12-43.35-71.59-4.47-6.99-1.78-9.89-13.97-7.67.28,2.53.39,5.35.38,8.39-.2,29.4-12.55,79.88-.59,100.75,3.33,5.81,14.72,13.55,25.06,20.55.65.44,1.31.88,1.94,1.32.36.24.72.49,1.08.73.49.34,1,.67,1.47,1.01,4.16,2.86,7.88,5.5,10.48,7.74,79.51,68.75,161.14,122.39,261.53,143.53,21.97,4.62,44.81,7.72,68.75,9.06,28.27,1.57,55.6-.23,81.12-5.83,30.57-6.69,58.57-18.85,82.43-37.36,4.16-3.23,8.21-6.66,12.13-10.28,2.91-2.69,5.71-5.53,8.47-8.44,2.81-2.97,5.57-6.02,8.21-9.22,10.48-12.68,19.64-27.21,27.26-43.68-14.05,5.04-23.41,16.76-36.92,24.44l-.03-.03Z"/>
        <path class="cls-5" d="M1070.82,1511.62c-57.52,89.76-147.35,165.94-250.28,197.3-73.32,22.35-186.62,30.05-258.98,3.62-22.25-8.13-36.79-21.46-56.69-32.38,46.91,93.42,169.79,115.86,267.08,106.88,38.08-3.51,83.07-22.17,126.93-46.23,1.32-.73,2.66-1.47,3.98-2.2,13.61-7.57,27.1-15.64,40.19-23.91,1.04-.65,2.09-1.32,3.13-1.98,3.25-2.07,6.48-4.15,9.66-6.24,1.88-1.22,3.75-2.46,5.63-3.69,1.94-1.27,3.85-2.56,5.76-3.85,1.63-1.09,3.25-2.19,4.86-3.28,1.89-1.29,3.79-2.56,5.65-3.85,3.98-2.74,7.92-5.47,11.77-8.19,3.85-2.71,7.64-5.42,11.34-8.08,3.71-2.68,7.33-5.32,10.85-7.92,3.53-2.61,6.97-5.17,10.32-7.69,4.46-3.36,8.75-6.63,12.85-9.79,29.9-23.11,48.1-34.93,51.71-75,.57-6.33.75-12.58.67-18.79-.05-3.1-.15-6.19-.31-9.27-.16-3.07-.38-6.12-.62-9.17-.98-12.18-2.53-24.14-3.64-35.99-8.47-1.86-8.59,4.57-11.87,9.7v.02Z"/>
        <path class="cls-5" d="M1646.51,2020.91c-59.69-5.11-153.84-54.84-201.62-91.33l-73.31-63.28c.8,2.69,1.29,5.73,1.76,8.88.29,1.91.59,3.87.96,5.83.26,1.35.57,2.69.93,4.02.1.36.18.73.29,1.08.59,1.98,1.21,3.95,1.86,5.89.88,2.64,1.81,5.26,2.79,7.84,1.24,3.33,2.56,6.61,3.95,9.84,32.73,75.84,105.2,123.07,185.74,140.7,4.75,1.04,9.52,1.98,14.32,2.81,1.14.2,2.29.39,3.41.57,3.13.51,6.28.98,9.43,1.4.55.08,1.13.15,1.68.23,3.28.42,6.58.8,9.88,1.13.75.08,1.49.15,2.24.21,3.41.33,6.84.59,10.27.8.47.03.95.07,1.42.08,19.85,1.18,39.76.64,59.32-1.65,12.98-1.52,32.3-6.81,49.1-15.03,1.98-.96,3.92-1.98,5.81-3.02s3.74-2.14,5.52-3.26c1.52-.96,2.97-1.96,4.39-2.97,2.73-1.96,5.27-4.02,7.52-6.17,4.1-3.92,7.31-8.16,9.22-12.68-26.51,10.9-87.18,10.61-116.9,8.06l.02.03Z"/>
        <path class="cls-5" d="M1239.06,1882.2c-63.68,76.06-147.71,115.91-243.31,136.74l-83.25,13.73c89.73,46.98,220.02,21.58,294.27-50.78,3.17-3.09,6.22-6.25,9.17-9.48,7.38-8.11,14.07-16.76,19.96-25.89,1.86-2.87,3.61-5.81,5.3-8.78.96-1.7,1.91-3.41,2.82-5.13,7.64-14.46,13.38-29.97,16.76-46.47.26-1.27.47-2.58.65-3.9h0c.18-1.32.31-2.69.44-4.08v-.02c.11-1.37.21-2.77.31-4.21,0-.11,0-.23.02-.34.08-1.26.15-2.51.23-3.8.38-6.09.83-12.55,2.32-19.28-12.21,2.87-17.11,21.5-25.68,31.73l-.03-.03Z"/>
        <path class="cls-5" d="M2321.04,1137.54c0-1.34-.03-2.69-.08-4.03-.03-.96-.07-1.91-.11-2.87-.05-1.32-.11-2.64-.2-3.95-.07-.98-.13-1.96-.2-2.92-.1-1.31-.2-2.63-.33-3.95-.08-.98-.18-1.98-.29-2.95-.13-1.32-.29-2.64-.46-3.97-.11-.98-.24-1.96-.38-2.94-.18-1.35-.39-2.71-.59-4.06-.15-.96-.29-1.91-.44-2.87-.23-1.42-.51-2.82-.77-4.24-.16-.9-.33-1.8-.51-2.69-.31-1.57-.65-3.13-1-4.72-.16-.75-.31-1.5-.49-2.25-.54-2.33-1.11-4.67-1.71-7-.05,1.98-.13,3.93-.23,5.89-.03.62-.07,1.22-.1,1.84-.08,1.35-.16,2.73-.26,4.08-.05.7-.1,1.39-.16,2.09-.11,1.32-.23,2.64-.36,3.95-.07.65-.13,1.31-.2,1.98-.16,1.58-.34,3.15-.54,4.72-.05.36-.08.73-.13,1.11-.24,1.93-.51,3.85-.8,5.78-.08.52-.16,1.03-.24,1.55-.21,1.42-.44,2.82-.69,4.23-.11.67-.23,1.34-.36,2.01-.23,1.29-.47,2.56-.72,3.85-.13.67-.26,1.32-.39,1.99-.28,1.4-.59,2.79-.88,4.18-.11.51-.21,1.03-.33,1.53-.42,1.89-.87,3.77-1.34,5.65-.08.34-.18.69-.26,1.04-.39,1.53-.78,3.07-1.21,4.59-.16.62-.34,1.24-.52,1.86-.36,1.27-.72,2.55-1.09,3.8-.2.65-.39,1.31-.59,1.96-.39,1.29-.8,2.6-1.21,3.88-.18.57-.36,1.14-.54,1.7-1.19,3.67-2.46,7.33-3.82,10.97-.21.56-.42,1.11-.64,1.66-.47,1.27-.96,2.53-1.47,3.79-.24.64-.51,1.27-.75,1.89-.49,1.22-1,2.45-1.5,3.66-.24.59-.49,1.19-.75,1.78-.62,1.45-1.26,2.91-1.89,4.36-.15.33-.28.65-.42.98-.8,1.76-1.62,3.53-2.43,5.27-.23.47-.44.93-.67,1.39-.62,1.29-1.24,2.58-1.88,3.85-.29.6-.6,1.21-.91,1.8-.59,1.18-1.19,2.33-1.8,3.49-.31.6-.62,1.19-.93,1.78-.67,1.27-1.35,2.53-2.04,3.79-.24.46-.49.91-.75,1.35-.95,1.7-1.89,3.38-2.87,5.06-.18.31-.38.62-.55.93-.8,1.37-1.62,2.74-2.43,4.1-.34.56-.67,1.11-1.01,1.66-.69,1.13-1.39,2.25-2.09,3.36-.38.59-.73,1.16-1.11,1.75-.73,1.14-1.47,2.29-2.22,3.43-.33.51-.65,1.01-1,1.5-2.15,3.25-4.39,6.45-6.66,9.61-.36.49-.7.96-1.06,1.45-.8,1.11-1.62,2.2-2.43,3.3-.41.56-.83,1.11-1.26,1.66-.8,1.06-1.6,2.11-2.42,3.15-.41.52-.82,1.04-1.22,1.57-.98,1.24-1.96,2.48-2.95,3.71-.23.29-.47.59-.7.88-1.24,1.52-2.48,3.02-3.74,4.52-.34.41-.69.8-1.01,1.19-.93,1.09-1.88,2.19-2.82,3.26-.46.52-.91,1.03-1.35,1.55-.87.98-1.75,1.96-2.63,2.94-.46.51-.93,1.03-1.39,1.53-.96,1.06-1.94,2.11-2.92,3.13-.38.39-.73.78-1.11,1.18-1.34,1.42-2.69,2.82-4.06,4.21-.28.28-.55.56-.83.83-1.11,1.13-2.22,2.24-3.33,3.35-.47.47-.95.93-1.44,1.4-.95.91-1.89,1.84-2.86,2.76-.51.49-1.01.96-1.53,1.45-.98.93-1.98,1.86-2.99,2.77-.46.42-.91.85-1.37,1.26-1.45,1.32-2.91,2.63-4.37,3.92-1.47,1.29-2.95,2.58-4.44,3.84-.47.41-.96.82-1.45,1.22-1.03.87-2.06,1.73-3.1,2.58-.55.46-1.09.9-1.65,1.35-1.03.83-2.04,1.65-3.07,2.48-.52.42-1.04.83-1.58,1.26-.24.18-.47.38-.72.57-1,.78-2.01,1.55-3,2.32-.31.24-.62.49-.95.72-1.55,1.18-3.12,2.35-4.68,3.49-.44.33-.9.65-1.34.96-.83.6-1.66,1.22-2.51,1.83-.31.23-.62.44-.93.65-.57.41-1.14.8-1.73,1.21-.54.38-1.06.75-1.6,1.13s-1.08.73-1.62,1.09c-.57.39-1.16.78-1.75,1.19-1.18.8-2.35,1.58-3.54,2.35-.46.31-.91.6-1.37.91-.13.08-.24.16-.36.24-1.52.98-3.04,1.94-4.55,2.91-.34.21-.69.42-1.03.64-1.32.82-2.64,1.63-3.97,2.43-.59.36-1.18.7-1.76,1.04-1.11.67-2.24,1.32-3.35,1.98-.62.36-1.24.72-1.86,1.08-1.16.67-2.32,1.32-3.48,1.96-.55.31-1.11.62-1.66.93-1.66.91-3.33,1.83-5.01,2.71-.03.02-.08.05-.11.07-1.18.62-2.37,1.22-3.54,1.83-2.6,1.34-5.19,2.64-7.8,3.9-2.95,1.44-5.94,2.79-8.94,4.13-3.23,1.44-6.46,2.84-9.73,4.18-1.52.62-3.04,1.24-4.55,1.84-2.11.83-4.23,1.63-6.35,2.42-1.83.67-3.66,1.34-5.48,1.98-7.93,2.77-15.96,5.22-24.06,7.33-11.12,2.91-43.35,10.76-52.58,10.76l-82.46.24s-.06.01-.1.02l-26.51.08c-.05-.23-.1-.46-.15-.69-.22.24-.45.47-.68.71,0,0,0,0,0,0-1.39,1.44-2.79,2.91-4.24,4.41-10.48,10.89-22.3,23.16-31.81,33.51l-.03.03s-.05.05-.07.07c-1.32,1.44-2.58,2.82-3.8,4.16-.07.07-.13.13-.2.21-.57.62-1.11,1.24-1.65,1.84-.03.03-.07.08-.1.11-.57.64-1.13,1.27-1.68,1.89-.03.05-.07.08-.11.13-.11.13-.23.26-.34.39-.38.44-.77.87-1.13,1.29-.05.05-.1.11-.15.16-.2.23-.38.44-.55.65-.78.9-1.52,1.78-2.2,2.6-.08.1-.16.2-.24.28-.38.46-.73.9-1.09,1.32-.05.05-.08.1-.13.15-.05.07-.1.13-.15.2-.31.39-.62.78-.91,1.14-.05.07-.1.13-.16.21-.28.36-.54.7-.78,1.03-.07.1-.13.18-.21.28-.52.7-.96,1.34-1.34,1.91-.03.05-.07.1-.1.13-.05.08-.1.15-.13.21-.13.23-.26.42-.38.62,0,0-.02.03-.03.05-.03.05-.07.11-.1.16-.07.13-.11.24-.18.36-.05.11-.11.23-.16.33-.02.05-.03.08-.05.13-.03.08-.05.16-.08.24-.02.07-.05.13-.07.2,0,.05-.02.1-.03.13-.02.15-.03.29,0,.39,1.96,1.35,3.77,2.79,5.48,4.26,3.09,2.66,5.81,5.48,8.44,8.34,1.26,1.37,2.51,2.74,3.75,4.13.65.72,1.29,1.42,1.94,2.14.26.29.54.59.82.87.62.67,1.26,1.32,1.88,1.99.24.26.49.52.75.77.87.88,1.73,1.75,2.64,2.6.02,0,.03.03.05.05.11.1.23.21.34.31.6.57,1.22,1.13,1.86,1.66.24.21.51.42.75.64.54.46,1.11.91,1.68,1.37.24.2.51.39.75.59.82.62,1.65,1.24,2.51,1.83h.02c.96.65,1.98,1.31,3.02,1.93,1.04.62,2.14,1.22,3.28,1.8,1.34.69,2.69,1.34,4.05,1.98.44.21.9.41,1.34.6.91.42,1.83.83,2.74,1.22.54.23,1.06.46,1.6.67.83.34,1.66.7,2.51,1.03.57.23,1.13.44,1.7.65.82.31,1.63.62,2.45.91.57.21,1.14.41,1.73.6.82.29,1.65.56,2.46.83.57.18,1.14.38,1.7.56.85.26,1.71.52,2.58.78.54.16,1.08.33,1.62.47.95.26,1.91.52,2.86.77.44.11.9.24,1.34.36,1.4.34,2.81.69,4.21,1,1.32.29,2.64.56,3.97.82s2.64.49,3.98.7c1.52.24,3.04.47,4.57.67.47.07.95.11,1.42.18,1.08.13,2.14.26,3.22.38.54.05,1.06.11,1.6.16,1.08.1,2.15.2,3.23.28.47.03.95.08,1.42.1,3.07.2,6.15.33,9.24.36h1.4c1.09,0,2.19,0,3.28-.02.52,0,1.06-.02,1.58-.03,1.09-.03,2.19-.07,3.3-.11.47-.02.93-.03,1.4-.07,1.55-.08,3.1-.16,4.65-.28,1.49-.11,2.97-.24,4.47-.38h.05c2.38-.23,4.77-.51,7.15-.82.36-.05.73-.1,1.09-.15,2.29-.31,4.57-.67,6.86-1.06.47-.08.93-.16,1.4-.24,2.74-.49,5.5-1.03,8.23-1.62h.07c2.73-.59,5.45-1.22,8.16-1.91.02,0,.05,0,.07-.02,2.73-.69,5.44-1.42,8.16-2.19h.02c2.73-.78,5.44-1.6,8.15-2.48,1.76-.56,3.51-1.14,5.26-1.73,5.03-1.71,10.02-3.57,14.97-5.55.16-.07.34-.13.51-.2,1.58-.64,3.15-1.27,4.72-1.94.03,0,.05-.02.08-.03,1.65-.69,3.28-1.39,4.91-2.11.08-.03.18-.08.26-.11,1.42-.62,2.82-1.26,4.23-1.89.41-.18.8-.36,1.21-.56,1.14-.52,2.29-1.06,3.43-1.6.41-.2.82-.38,1.21-.57,1.49-.7,2.97-1.42,4.46-2.15,2.74-1.35,5.45-2.73,8.15-4.13.21-.11.42-.23.64-.33,2.5-1.31,4.99-2.64,7.46-4,.26-.15.54-.29.8-.44,2.45-1.35,4.9-2.74,7.3-4.13.21-.11.42-.24.64-.36,2.58-1.5,5.13-3,7.64-4.54.02,0,.05-.03.07-.05,2.51-1.53,4.99-3.09,7.46-4.64.21-.13.42-.28.64-.41,2.29-1.45,4.54-2.92,6.77-4.41.26-.16.52-.34.77-.51,2.24-1.49,4.42-2.97,6.59-4.46.2-.13.39-.26.59-.41,2.33-1.62,4.64-3.23,6.9-4.85,2.82-2.02,5.65-4.1,8.47-6.19.33-.24.65-.47.98-.72,2.69-1.99,5.37-4.03,8.05-6.09.44-.34.88-.67,1.31-1.01,2.64-2.04,5.27-4.11,7.92-6.2.44-.34.87-.69,1.29-1.04,2.68-2.14,5.34-4.31,8-6.51.31-.26.6-.51.91-.77,5.65-4.7,11.25-9.52,16.76-14.46.2-.18.41-.36.6-.54,2.68-2.4,5.34-4.83,7.97-7.28.33-.29.65-.6.96-.9,2.6-2.43,5.17-4.88,7.72-7.36l.08.08c.33-.31.65-.62.96-.95,2.58-2.51,5.14-5.06,7.69-7.64.21-.21.42-.44.64-.65,5.39-5.48,10.64-11.07,15.78-16.78.05-.07.11-.13.16-.18,2.5-2.79,4.98-5.62,7.41-8.46.21-.24.42-.49.64-.73,2.37-2.77,4.7-5.58,7-8.41.23-.29.47-.59.7-.87,2.3-2.84,4.57-5.71,6.81-8.62.16-.21.33-.44.49-.65,4.7-6.14,9.24-12.37,13.56-18.72.13-.2.26-.38.39-.57,1.29-1.89,2.55-3.79,3.79-5.7.39-.6.77-1.21,1.16-1.81.85-1.31,1.68-2.61,2.51-3.93.46-.73.91-1.49,1.37-2.22.73-1.19,1.47-2.38,2.19-3.57.49-.8.95-1.6,1.44-2.42.67-1.14,1.35-2.29,2.01-3.44.49-.83.96-1.68,1.44-2.51.64-1.13,1.27-2.27,1.89-3.4.47-.85.93-1.71,1.4-2.58.62-1.14,1.22-2.27,1.81-3.41.46-.87.9-1.71,1.34-2.58.59-1.16,1.18-2.32,1.76-3.48.42-.85.85-1.7,1.26-2.56.59-1.19,1.16-2.4,1.71-3.59.39-.83.78-1.65,1.16-2.48.59-1.27,1.16-2.56,1.73-3.85.34-.77.69-1.52,1.01-2.29.65-1.49,1.27-2.99,1.89-4.47.23-.57.47-1.13.72-1.7.85-2.07,1.66-4.15,2.45-6.22.15-.39.28-.77.42-1.16.64-1.7,1.26-3.4,1.86-5.09.26-.73.51-1.49.77-2.22.47-1.35.93-2.71,1.39-4.08.28-.85.54-1.68.8-2.53.41-1.27.8-2.55,1.18-3.82.26-.9.52-1.78.78-2.68.36-1.24.7-2.48,1.04-3.72.24-.91.49-1.83.72-2.76.33-1.22.64-2.46.93-3.71.23-.93.44-1.86.67-2.79.29-1.24.55-2.48.83-3.72.2-.93.39-1.86.59-2.79.26-1.26.51-2.53.73-3.79.16-.91.34-1.83.51-2.74.23-1.31.44-2.63.65-3.93.13-.88.28-1.75.41-2.63.21-1.42.39-2.86.57-4.28.1-.77.21-1.55.29-2.32.21-1.8.39-3.61.57-5.42.03-.41.08-.82.13-1.22.2-2.22.36-4.46.49-6.68.03-.6.05-1.22.08-1.83.08-1.62.16-3.25.21-4.88.03-.83.03-1.68.05-2.51.03-1.4.05-2.82.05-4.23,0-.91-.02-1.83-.03-2.76Z"/>
      </g>
      <path class="cls-2" d="M2240.22,1458.26c123.37-96.99,219.07-246.51,168.44-409.98-27.37-88.36-144.64-176.84-237.22-134.14-89.16,41.12-64.18,98.93-95.37,173.89-1.73,4.15-22.69,51.73-31.63,41.57,84.6-307.31-19.51-602.97-265.61-797.65-539.31-426.66-1304.31,48.23-1198.56,712.3,1.8,11.31,23.75,72.73,19.54,77.44-14.76-1.45-26.43-29.82-30.77-42.44-11-31.98-10.97-72.03-23.86-102.87-9.71-23.24-42.54-56.82-66.3-64.36-116.22-36.86-228.44,46.13-250.15,161.12-32.17,170.44,64.3,312.58,196.45,407.53-139.15,224.31,94.33,429.03,317.14,405.43-8.46,140.52,93.87,259.6,235.29,269.52,126.32,8.88,223.26-39.31,312.96-122.85,9.47-8.81,14.61-19.38,24.06-27.67,6.51-1.37,51.06,48.95,60.88,57.31,113.4,96.62,308.34,135.14,435.15,43.27,60.56-43.88,104.38-141.57,87.33-215.61h69.26c19.2,0,65.73-14.3,85.94-20.94,131.86-43.42,227.23-152.59,212.83-297.86-4.57-46.16-22.75-60.46-52.84-88.83-3.33-3.15-3.62-2.71-2.51-8.19,11.07-1.83,20.99-9.24,29.58-16h-.02ZM346.19,1249.81c-9.48-22.26-16.16-45.3-19.44-68.72-2.48-17.69-4.96-42.68-4.54-67.25.39-23.03,3.36-45.67,11.28-61.57l.1-.2c.54-1.06,1.09-2.09,1.66-3.09,3.87-6.68,11.43-14.66,20.6-22.28,6.15-5.11,13.04-10.05,20.03-14.32,1.53-.95,3.09-1.86,4.62-2.73.95-.54,1.89-1.06,2.84-1.57,1.89-1.01,3.79-1.96,5.65-2.82,3.74-1.75,7.38-3.2,10.84-4.28,1.73-.54,3.43-.98,5.04-1.32,1.63-.34,3.2-.59,4.7-.7.75-.07,1.49-.1,2.2-.1,58.44-.39,41.87,45.02,50.62,84.08,15.1,67.43,78.25,131.97,138.68,162.23,4.88,2.45,12.72,4.99,21.07,7.49,1.99.6,4.02,1.19,6.04,1.8.75.21,1.5.44,2.24.65,12.68,3.72,24.71,7.25,27.77,10.14,1.86,1.75,4.62,5.6,7.88,10.64,10.95,16.91,27.7,47.43,35.76,58.53.29.39.59.82.88,1.22.51.7,1.03,1.42,1.55,2.15.98,1.37,1.98,2.79,3,4.24.47.67.93,1.32,1.4,2.01,9.39,13.38,20.14,28.99,29.66,39.01,8.28,8.72,18.25,16.52,28.57,24.08,2.95,2.15,5.93,4.29,8.9,6.43,10.4,7.48,20.76,14.9,29.76,22.95-5.76,5.65-12.03,11.79-18.72,17.76-2.97,2.66-6.04,5.27-9.17,7.8-.78.64-1.57,1.26-2.37,1.88-14.3,11.18-30.12,20.27-46.83,22.07-147.61,15.95-322.03-94.79-382.28-236.26l.02.02ZM2170.69,1604c-1.65,23.7-13.99,47.97-23.37,68.23-7.62,16.49-16.8,31-27.26,43.68-2.64,3.2-5.4,6.25-8.21,9.22-2.76,2.91-5.57,5.75-8.47,8.44-3.92,3.62-7.95,7.05-12.13,10.28-23.86,18.51-51.86,30.67-82.43,37.36-25.53,5.6-52.85,7.39-81.12,5.83-23.95-1.32-46.78-4.42-68.75-9.06-100.4-21.14-182.02-74.76-261.53-143.53-2.6-2.24-6.32-4.9-10.48-7.74-.49-.33-.98-.67-1.47-1.01-.36-.24-.72-.49-1.08-.73-.64-.44-1.29-.88-1.94-1.32-10.33-7-21.73-14.74-25.06-20.55-11.96-20.88.39-71.35.59-100.74.02-3.04-.08-5.86-.38-8.39-2.17-19.6-18.66-30.39-36.87-32.56-1.83-.21-3.66-.34-5.5-.39-2.76-.07-5.53.07-8.28.38-6.4.73-12.62,2.53-18.12,5.37-53.49,27.52-47.21,118.52-29.99,189.44.51,2.06,1.01,4.1,1.52,6.12.2.8.41,1.58.62,2.37,6.1,23.42,13.22,44.15,19.49,58.94,3.56,8.41,7.67,16.93,12.29,25.48,1.53,2.86,3.13,5.71,4.8,8.55,37.2,64.2,102.18,127.96,173.79,148.46,3.18.91,6.38,1.73,9.58,2.48,3.2.73,6.43,1.39,9.65,1.94,11.3,1.94,22.71,2.74,34.16,2.25,1.73-.08,3.62-.31,5.63-.67.41-.07.82-.15,1.22-.23.82-.16,1.66-.33,2.53-.52.87-.2,1.73-.39,2.63-.6.8-.2,1.62-.39,2.43-.6.18-.05.38-.1.55-.15,23.77-6.09,55.5-17.32,57.98,18.17.55,7.95-.72,19.36-3.54,31.29-.26,1.08-.52,2.17-.8,3.26-5.06,19.62-14.14,39.91-25.95,47.89-.18.13-.38.23-.55.34-.47.31-.95.62-1.44.88-.67.36-1.35.69-2.04.98-1.91,4.52-5.11,8.75-9.22,12.68-2.25,2.15-4.78,4.21-7.52,6.17-1.42,1.01-2.87,2.01-4.39,2.97-1.78,1.13-3.62,2.22-5.52,3.26-1.89,1.04-3.84,2.06-5.81,3.02-16.8,8.23-36.12,13.52-49.1,15.03-19.55,2.29-39.47,2.82-59.32,1.65-.47-.03-.95-.07-1.42-.08-3.43-.21-6.86-.49-10.27-.8-.75-.07-1.49-.15-2.24-.21-3.3-.33-6.59-.7-9.88-1.13-.55-.07-1.13-.15-1.68-.23-3.15-.42-6.3-.9-9.43-1.4-1.14-.18-2.29-.38-3.41-.57-4.8-.83-9.57-1.76-14.32-2.81-80.54-17.63-153.01-64.87-185.74-140.7-1.39-3.23-2.71-6.51-3.95-9.84-.96-2.58-1.91-5.19-2.79-7.84-.65-1.94-1.26-3.92-1.86-5.89-.11-.36-.2-.72-.29-1.08-.36-1.32-.67-2.66-.93-4.02-.38-1.94-.67-3.9-.96-5.83-.49-3.15-.96-6.2-1.76-8.9-2.32-7.79-4.93-19.11-8.03-31.21-6.15-23.93-14.28-50.85-26.23-59.28-8.73-6.17-16.39-9.01-23.13-9.3-1.22-.05-2.42-.02-3.57.08-.59.05-1.16.13-1.73.23-1.7.28-3.33.73-4.91,1.35-3.15,1.22-6.04,3.07-8.7,5.42-.88.78-1.75,1.62-2.58,2.5-.05.05-.1.1-.13.15-.73.78-1.44,1.6-2.12,2.45-14.77,18.17-21.43,52.3-25.72,71.77-1.49,6.73-1.94,13.19-2.32,19.28-.08,1.29-.15,2.55-.23,3.8,0,.11,0,.23-.02.34-.1,1.44-.2,2.84-.31,4.21v.02c-.11,1.39-.26,2.74-.44,4.08h0c-.18,1.34-.39,2.63-.65,3.9-3.38,16.5-9.11,32.03-16.76,46.47-.91,1.73-1.84,3.43-2.82,5.13-1.7,2.97-3.44,5.91-5.3,8.78-5.89,9.12-12.58,17.76-19.96,25.89-2.95,3.25-6.01,6.41-9.17,9.48-74.25,72.38-204.54,97.77-294.27,50.78-27.67-14.49-49.18-27.68-60.61-60.15-2.11-6.01-4.1-14.97-5.04-24.63-.18-1.76-.31-3.56-.41-5.37-.05-1.04-.1-2.11-.13-3.17-.05-1.94-.05-3.9,0-5.83.11-3.88.47-7.72,1.11-11.34.49-2.73,1.13-5.34,1.98-7.77.72-2.07,1.58-4.02,2.6-5.79.31-.54.62-1.06.95-1.57.93-1.44,1.99-2.74,3.17-3.9.87-.87,1.8-1.66,2.81-2.35,1.8-1.22,3.82-2.19,6.09-2.79,7.88-2.09,29.22,2.37,41.26,3.74.8.1,1.57.16,2.29.23,9.43.8,18.61,1.06,27.5.78,8.9-.28,17.51-1.06,25.89-2.33,2.09-.33,4.16-.67,6.22-1.04,98.74-18.22,159.56-105.33,192.01-202.91,0-.05.03-.1.05-.13,3.25-9.76,6.2-19.64,8.88-29.54l.64-2.4c.98-3.69,1.94-7.39,2.84-11.1,8.41-34.25,22.02-131.68-7.72-168.91-.8-1.01-1.66-1.96-2.53-2.87-.8-.83-1.62-1.65-2.46-2.4-5.35-4.78-11.83-7.95-19.6-9.03-14.76-2.02-33.35-1.86-45.39,5.4-1,.6-1.93,1.26-2.82,1.96-.82.64-1.62,1.31-2.35,2.04-5.11,5.08-7.95,12.32-7,22.48,1.11,11.85,2.66,23.83,3.64,35.99.24,3.04.46,6.1.62,9.17.16,3.07.26,6.15.31,9.27.08,6.19-.1,12.45-.67,18.79-3.61,40.07-21.79,51.87-51.71,75-4.1,3.17-8.39,6.45-12.85,9.79-3.35,2.51-6.79,5.09-10.32,7.69-3.53,2.61-7.15,5.26-10.85,7.92-3.71,2.68-7.48,5.37-11.34,8.08-3.85,2.71-7.79,5.45-11.77,8.19-1.86,1.29-3.75,2.56-5.65,3.85-1.62,1.09-3.23,2.19-4.86,3.28-1.91,1.29-3.84,2.56-5.76,3.85-1.86,1.22-3.74,2.46-5.63,3.69-3.2,2.09-6.41,4.16-9.66,6.24-1.04.67-2.09,1.32-3.13,1.98-13.11,8.28-26.57,16.34-40.19,23.91-1.32.73-2.66,1.47-3.98,2.2-43.86,24.04-88.85,42.7-126.93,46.23-97.3,8.98-220.16-13.45-267.08-106.88-7.15-14.23-14.46-28.91-19.18-44.12-.07-.2-.11-.39-.18-.59-.49-1.62-.95-3.23-1.39-4.86-.47-1.76-.9-3.54-1.27-5.34-.23-1.03-.44-2.07-.62-3.12-2.43-13.03-2.46-26.44,1.57-40.3,2.02-7,4.52-12.41,7.38-16.5.42-.6.85-1.16,1.27-1.7.69-.85,1.37-1.63,2.09-2.35,4.7-4.7,10.17-6.64,16.14-6.71.54,0,1.06,0,1.62.03.87.03,1.75.11,2.63.23.24.03.51.07.75.1.73.1,1.47.23,2.22.38.41.08.82.16,1.24.26.54.13,1.08.26,1.63.39,1.08.28,2.19.6,3.28.96.54.18,1.08.36,1.62.55,1.06.38,2.14.78,3.2,1.21,4.51,1.81,9.12,4.08,13.78,6.55,1.45.78,2.92,1.57,4.39,2.38,1.16.64,2.32,1.29,3.46,1.93.57.33,1.16.65,1.73.98,2.32,1.29,4.62,2.6,6.9,3.87,1.14.64,2.29,1.26,3.43,1.88,5.68,3.09,11.23,5.88,16.49,7.88,10.82,4.11,21.71,7.44,32.58,10.05,85.79,20.57,171.5-4.99,233.5-63.9,1.37-1.31,2.73-2.61,4.08-3.95,2.69-2.66,5.34-5.4,7.93-8.19,1.31-1.4,2.58-2.81,3.85-4.24,11.46-12.86,21.89-27,31.13-42.31,1.55-2.56,3.4-5.89,5.4-9.73.39-.77.8-1.55,1.21-2.37,6.15-12.1,13.35-28.43,17.48-42.78.56-1.91,1.04-3.79,1.47-5.62.21-.91.41-1.81.6-2.71.73-3.56,1.18-6.87,1.27-9.84.1-2.97-.16-5.58-.87-7.74-3.48-10.79-8.9-17.25-15.25-21.02-1.44-.85-2.92-1.57-4.46-2.17-.65-.26-1.31-.49-1.98-.72-1.31-.42-2.63-.75-3.98-1.03-1.21-.24-2.42-.44-3.64-.59-.87-.1-1.73-.18-2.6-.24-.85-.07-1.71-.1-2.56-.11h-.07c-13.92-.36-27.91,3.66-34.85.47-.07-.03-.16-.1-.24-.15-.2-.11-.41-.28-.67-.47-.56-.44-1.22-1.06-2.04-1.88-1.01-1.01-2.22-2.3-3.56-3.79-.44-.49-.91-1.01-1.39-1.55-.95-1.08-1.96-2.24-3.02-3.46-.52-.62-1.06-1.24-1.62-1.89-.8-.93-1.62-1.91-2.45-2.91-.65-.78-1.31-1.57-1.98-2.37-.69-.83-1.39-1.68-2.09-2.53-1.37-1.66-2.74-3.35-4.13-5.03-1.06-1.31-2.14-2.63-3.18-3.92-.13-.15-.24-.31-.38-.46-2.79-3.46-5.5-6.82-7.92-9.86-.11-.15-.23-.28-.34-.42-.88-1.11-1.73-2.17-2.53-3.18-.16-.21-.33-.41-.49-.62-2.4-3.02-4.33-5.44-5.48-6.89-.05-.07-.11-.15-.16-.21-6.19-7.75-12.13-15.54-17.87-23.37-4.78-6.53-9.43-13.07-13.91-19.67-2.71-3.98-5.35-7.98-7.95-11.98-1.13-1.73-2.24-3.48-3.35-5.21-2.51-3.97-4.99-7.95-7.41-11.93-4.44-7.33-8.68-14.69-12.76-22.1-2.71-4.93-5.35-9.88-7.92-14.85-2.56-4.96-5.04-9.96-7.44-14.95-2.4-4.99-4.73-10.02-6.97-15.05-7.87-17.63-14.79-35.45-20.81-53.52-.87-2.58-1.7-5.17-2.53-7.75-6.59-20.73-12-41.77-16.29-63.14-2.14-10.69-4.02-21.45-5.6-32.3-.39-2.71-.78-5.44-1.14-8.16-1.42-10.66-2.58-21.4-3.48-32.24-.03-.46-.08-.91-.11-1.37-.65-7.97-1.16-15.98-1.55-24.03-.15-3.02-.26-6.06-.38-9.09-.87-25.27-.44-51.03,1.22-77.29,1.31-20.5,3.35-41.3,6.1-62.44,32.97-252.66,268.53-472.47,513.89-527.39,107.45-24.06,210.01-17.76,308.99,13.56,12.91,4.08,25.76,8.6,38.55,13.53,25.58,9.86,50.93,21.37,76.08,34.44,91.85,47.76,164.22,101.84,223.35,176.03,2.56,3.23,5.11,6.5,7.64,9.79,3.23,4.24,6.41,8.59,9.58,12.96,16.5,22.87,31.94,47.55,46.45,74.43,25.87,47.94,44.94,100.45,57.23,155.2,2.79,12.41,5.22,24.93,7.31,37.54,1.06,6.43,2.04,12.88,2.92,19.36,2.04,14.9,3.59,29.9,4.67,44.99.08,1.14.16,2.29.24,3.43,5.5,82.97-3.56,167.69-27.23,246.95-12.55,42.05-29.25,82.54-50.03,120.45-1.73,3.15-3.49,6.28-5.27,9.4-6.25,10.92-12.86,21.61-19.83,32.04-16.98,25.45-35.99,49.39-57.13,71.41-.77.8-1.52,1.57-2.25,2.29-22.72,22.51-28.12,9.04-59.12,5.58-.07.13-.28.29-.6.49-.16.1-.34.21-.55.34-.1.07-.21.11-.31.18-.26.15-.55.33-.85.51-.15.08-.29.16-.44.26-.28.16-.55.34-.87.54-2.07,1.32-4.49,3.22-5.84,5.88-2.82,5.58-5.06,10.85-6.79,15.91-6.46,18.89-5.66,34.75.11,51.6.07.2.15.41.21.6.34,1,.72,1.99,1.09,2.99,3.26,8.6,7.75,17.55,13.17,27.32,51.47,92.96,153.26,142.97,256.58,132,1.81-.2,3.62-.41,5.44-.64,10.89-1.39,21.76-3.44,32.6-6.2.42-.11.88-.24,1.32-.38,24.89-7,85.66-41.51,102.59-36.68.67.2,1.35.47,2.02.83.47.26.95.55,1.44.88.54.36,1.08.77,1.6,1.19.33.28.67.57,1,.87.95.87,1.88,1.83,2.76,2.82.08.1.16.18.24.28,2.06,2.35,3.84,4.9,5.08,6.94.64,1.04,1.22,2.09,1.78,3.13,3.87,7.38,5.83,15.05,6.4,22.87.24,3.35.23,6.73,0,10.1v-.02ZM1601.16,1739.62c-7.1-12.81-12.42-26.23-15.25-39.7,11.1,18.93,23.24,36.4,36.81,52.35.8.57,1.65,1.19,2.5,1.84.07.05.13.1.2.15,2.61,1.99,5.42,4.26,8.32,6.68.02,0,.03.03.05.05,5.08,4.24,10.43,8.94,15.51,13.37.7.6,1.4,1.21,2.09,1.81.24.21.51.42.75.65.67.57,1.32,1.14,1.96,1.7.2.16.39.33.57.49.78.67,1.55,1.32,2.32,1.98.2.16.38.33.57.47.78.65,1.55,1.31,2.29,1.91.07.07.15.11.21.18.7.57,1.39,1.13,2.04,1.66.13.1.26.21.39.31.69.55,1.35,1.08,1.99,1.57.13.1.24.2.38.28.65.51,1.29.98,1.89,1.4,8.16,5.81,16.57,14.48,26.69,18.84l54.11,23c-1.21.18-2.4.31-3.61.44-.36.03-.72.07-1.08.1-.88.08-1.78.15-2.66.2-.36.02-.72.05-1.06.07-1.16.05-2.33.08-3.49.1h-.75c-.93,0-1.86-.02-2.77-.05-.44,0-.9-.03-1.34-.07-.77-.03-1.52-.08-2.29-.15-.44-.03-.9-.07-1.34-.1-1.08-.1-2.14-.21-3.22-.34-.51-.07-1.01-.13-1.52-.21-.64-.08-1.27-.18-1.91-.28-.59-.1-1.18-.2-1.76-.29-.54-.1-1.09-.2-1.63-.31-1.31-.24-2.6-.52-3.88-.83-.26-.07-.54-.11-.8-.18-.7-.16-1.4-.36-2.11-.54-.39-.1-.78-.21-1.18-.31-.72-.2-1.44-.39-2.15-.6-.31-.08-.6-.18-.91-.28-1.66-.51-3.33-1.04-4.98-1.62-5.99-1.22-20.34-7.35-27.88-11.74-25.81-15.02-50.85-39.24-67.85-66.84h0c-1.45-2.37-2.86-4.75-4.18-7.17l-.03.02ZM892.7,1826.7c57.73-11.85,105.17-39.37,148.46-79.13-22.48,40.74-71.97,72.62-116.79,83.1-11.08,2.58-35.09,10.99-31.67-3.97ZM2207.02,1368.32c-.33.31-.64.62-.96.95-2.55,2.48-5.13,4.93-7.72,7.36-.33.29-.64.6-.96.9-2.64,2.45-5.29,4.9-7.97,7.28-.2.18-.41.36-.6.54-5.53,4.95-11.13,9.76-16.76,14.46-.31.26-.6.51-.91.77-2.66,2.2-5.32,4.36-8,6.51-.42.34-.87.69-1.29,1.04-2.63,2.09-5.27,4.16-7.92,6.2-.44.34-.88.67-1.31,1.01-2.68,2.06-5.37,4.1-8.05,6.09-.33.24-.65.47-.98.72-2.82,2.09-5.65,4.16-8.47,6.19-2.27,1.62-4.57,3.23-6.9,4.85-.2.13-.39.26-.59.41-2.17,1.5-4.37,2.99-6.59,4.46-.26.16-.51.34-.77.51-2.24,1.47-4.49,2.94-6.77,4.41-.21.13-.42.28-.64.41-2.46,1.57-4.95,3.1-7.46,4.64-.02,0-.05.03-.07.05-2.51,1.53-5.08,3.05-7.64,4.54-.21.11-.42.24-.64.36-2.42,1.4-4.85,2.77-7.3,4.13-.26.15-.54.29-.8.44-2.46,1.35-4.95,2.69-7.46,4-.21.11-.42.23-.64.33-4.15,2.17-8.36,4.26-12.6,6.28-.41.2-.82.38-1.21.57-1.14.54-2.29,1.08-3.43,1.6-.41.18-.8.38-1.21.56-1.4.64-2.81,1.27-4.23,1.89-.08.03-.18.08-.26.11-1.63.72-3.26,1.42-4.91,2.11-.03,0-.05.02-.08.03-1.57.65-3.15,1.31-4.72,1.94-.16.07-.34.13-.51.2-9.32,3.72-18.8,7.02-28.37,9.76h-.02c-2.71.78-5.44,1.5-8.16,2.19-.02,0-.05,0-.07.02-2.71.69-5.44,1.32-8.16,1.91h-.07c-2.74.59-5.48,1.13-8.23,1.62h0c-5.5.98-11,1.73-16.5,2.27h-.03c-3.04.29-6.07.51-9.11.67-.47.02-.93.03-1.4.07-1.09.05-2.19.08-3.3.11-.52,0-1.06.02-1.58.03-1.09.02-2.19.02-3.28.02h-1.4c-3.09-.03-6.17-.15-9.24-.36-.47-.03-.95-.07-1.42-.1-1.08-.08-2.15-.16-3.23-.28-.54-.05-1.06-.1-1.6-.16-1.08-.11-2.14-.24-3.22-.38-.47-.07-.95-.11-1.42-.18-2.86-.38-5.71-.83-8.55-1.39-2.74-.52-5.47-1.13-8.18-1.81-.44-.11-.9-.23-1.34-.36-.95-.24-1.91-.51-2.86-.77-.54-.15-1.08-.31-1.62-.47-.87-.24-1.71-.51-2.58-.78-.57-.18-1.14-.36-1.7-.56-.83-.28-1.65-.54-2.46-.83-.57-.2-1.14-.41-1.73-.6-.82-.29-1.63-.6-2.45-.91-.57-.21-1.13-.44-1.7-.65-.83-.33-1.66-.69-2.51-1.03-.54-.23-1.08-.44-1.6-.67-.91-.39-1.83-.82-2.74-1.22-.44-.2-.9-.41-1.34-.6-1.35-.64-2.71-1.29-4.05-1.98-2.29-1.16-4.37-2.42-6.32-3.74-.87-.59-1.7-1.21-2.51-1.83-.26-.2-.51-.39-.75-.59-.57-.44-1.13-.9-1.68-1.37-.26-.21-.51-.42-.75-.64-.64-.56-1.26-1.11-1.86-1.66-.11-.1-.23-.21-.34-.31h0l-.05-.05c-.9-.85-1.78-1.71-2.64-2.6-.24-.26-.51-.52-.75-.77-.64-.65-1.26-1.32-1.88-1.99-.28-.29-.54-.59-.82-.87-.65-.72-1.31-1.42-1.94-2.14-.98-1.08-1.94-2.15-2.92-3.22-.28-.31-.55-.6-.83-.9-4.08-4.44-8.41-8.78-13.92-12.6-.05-.18,0-.42.1-.72.02-.08.05-.15.08-.24h0c.05-.13.13-.29.21-.46.05-.11.1-.23.16-.36h0c.03-.07.08-.13.11-.21.11-.2.23-.41.38-.62h0s.08-.15.13-.23h0s.07-.08.08-.13c.42-.65.93-1.37,1.53-2.19h0c.24-.33.51-.67.77-1.01h0c.34-.42.69-.88,1.06-1.35.05-.07.1-.11.15-.18h0s.08-.1.13-.15c0-.02.03-.03.05-.05.33-.41.67-.82,1.03-1.24l.02-.02c.75-.91,1.58-1.88,2.45-2.89.18-.2.34-.39.51-.59,0-.02.03-.03.05-.05.05-.05.1-.11.15-.16.02-.03.05-.05.07-.07.34-.39.7-.8,1.06-1.21,2.37-2.71,5.06-5.66,7.95-8.83h0l.03-.03c9.53-10.35,21.35-22.62,31.81-33.51,1.44-1.5,2.86-2.97,4.24-4.41.31-.31.6-.62.9-.95,2.3-2.4,4.52-4.7,6.56-6.86,0,0,.03-.03.03-.05l.02-.02c.59-.62,1.18-1.22,1.75-1.83.07-.07.15-.15.21-.21.59-.6,1.14-1.21,1.7-1.8.03-.03.05-.07.08-.08.03-.05.08-.08.11-.13.26-.28.52-.56.78-.82.1-.11.21-.21.31-.33.07-.08.15-.15.21-.23.18-.2.36-.39.54-.57.23-.24.44-.47.65-.7h0c.2-.2.38-.41.55-.6.08-.08.16-.16.23-.26.13-.13.24-.28.38-.41.16-.18.34-.38.51-.56.24-.28.49-.54.73-.8.2-.21.39-.42.57-.64.23-.24.44-.49.65-.73.13-.15.24-.28.38-.42.16-.2.34-.38.51-.56.11-.13.23-.24.33-.38.08-.08.15-.16.21-.24.08-.1.16-.18.24-.28.11-.13.21-.24.33-.38.15-.16.28-.33.41-.47.08-.1.16-.2.24-.28.2-.24.39-.47.55-.69,23.49-29.2,40.42-68.7,71.36-88.99,17.89-11.74,34.29-12.83,53.57-23.62,8.42-4.72,16.42-9.88,24.01-15.43,1.18-.87,2.33-1.73,3.49-2.61,9.09-6.89,17.6-14.33,25.53-22.28,5.53-5.55,10.77-11.34,15.77-17.33,2.32-2.79,4.57-5.62,6.79-8.49.95-1.24,1.89-2.48,2.82-3.74,1.75-2.37,3.48-4.75,5.16-7.17,2.5-3.59,4.91-7.23,7.26-10.92,19.07-30.05,33.2-63.64,43.57-98.36,9.09-30.41.26-62.7,43.58-62.63,46.13.07,74.78,43.24,85.07,82.46h0c.62,2.33,1.19,4.67,1.71,7,.18.75.33,1.5.49,2.25.34,1.57.69,3.15,1,4.72.18.9.34,1.8.51,2.69.26,1.42.52,2.84.77,4.24.16.96.29,1.91.44,2.87.21,1.35.41,2.71.59,4.06.13.98.24,1.96.38,2.94.16,1.32.31,2.64.46,3.97.1.98.2,1.98.29,2.95.11,1.32.23,2.63.33,3.95.07.98.15,1.96.2,2.92.08,1.32.15,2.64.2,3.95.03.96.08,1.91.11,2.87.03,1.35.07,2.69.08,4.03,0,.91.03,1.83.03,2.76,0,1.42-.03,2.82-.05,4.23,0,.83-.02,1.68-.05,2.51-.05,1.63-.13,3.25-.21,4.88-.03.6-.05,1.22-.08,1.83-.13,2.24-.29,4.46-.49,6.68-.03.41-.08.82-.13,1.22-.16,1.81-.36,3.61-.57,5.42-.1.78-.2,1.55-.29,2.32-.18,1.44-.38,2.86-.57,4.28-.13.88-.28,1.75-.41,2.63-.21,1.32-.42,2.63-.65,3.93-.16.91-.34,1.83-.51,2.74-.24,1.27-.47,2.53-.73,3.79-.2.93-.39,1.86-.59,2.79-.26,1.24-.54,2.48-.83,3.72-.21.93-.44,1.86-.67,2.79-.29,1.24-.62,2.46-.93,3.71-.24.91-.47,1.83-.72,2.76-.34,1.24-.69,2.48-1.04,3.72-.26.9-.51,1.8-.78,2.68-.38,1.27-.78,2.55-1.18,3.82-.26.85-.52,1.7-.8,2.53-.44,1.37-.91,2.73-1.39,4.08-.26.73-.51,1.49-.77,2.22-.6,1.7-1.22,3.4-1.86,5.09-.15.39-.28.77-.42,1.16-.8,2.07-1.62,4.15-2.45,6.22-.23.57-.47,1.13-.72,1.7-.62,1.5-1.24,2.99-1.89,4.47-.33.77-.67,1.52-1.01,2.29-.57,1.29-1.14,2.56-1.73,3.85-.38.83-.77,1.65-1.16,2.48-.57,1.21-1.14,2.4-1.71,3.59-.41.85-.85,1.71-1.26,2.56-.57,1.16-1.16,2.32-1.76,3.48-.44.87-.88,1.71-1.34,2.58-.6,1.14-1.21,2.29-1.81,3.41-.46.87-.93,1.71-1.4,2.58-.62,1.14-1.26,2.27-1.89,3.4-.47.85-.95,1.68-1.44,2.51-.67,1.16-1.34,2.3-2.01,3.44-.47.8-.95,1.62-1.44,2.42-.72,1.19-1.45,2.38-2.19,3.57-.46.73-.91,1.49-1.37,2.22-.83,1.32-1.66,2.63-2.51,3.93-.39.6-.77,1.21-1.16,1.81-5.57,8.52-11.49,16.85-17.74,24.99-.16.21-.33.44-.49.65-2.24,2.89-4.51,5.76-6.81,8.62-.23.29-.47.59-.7.87-2.3,2.82-4.64,5.63-7,8.41-.21.24-.42.49-.64.73-2.43,2.84-4.9,5.66-7.41,8.46-.05.07-.11.13-.16.18-5.14,5.71-10.4,11.31-15.78,16.78-.21.21-.42.44-.64.65-2.55,2.58-5.11,5.13-7.69,7.64l-.02-.08Z"/>
      <g>
        <path class="cls-2" d="M1140.53,979.54c-1-18.43-6.09-37.35-16.16-56.04-11.15-20.68-29.27-39.88-50.68-54.57-28.61-19.64-63.12-31.23-94.84-27.49-49.51,5.84-89.12,34.88-111.4,73.26-.69,1.18-1.34,2.35-1.99,3.54-2.84,5.21-5.35,10.58-7.54,16.08-1.37,3.44-2.61,6.95-3.72,10.5-.24.8-.49,1.6-.73,2.4-12.11,41.2-5.96,87.75,25.35,126.98,38.57,48.35,87.36,63.17,132.35,56.23.31-.05.62-.1.93-.15,1.93-.31,3.84-.65,5.73-1.04,1.04-.21,2.07-.44,3.12-.67,2.07-.47,4.13-.98,6.17-1.55,4.1-1.11,8.15-2.42,12.13-3.87,2.99-1.09,5.94-2.29,8.86-3.57.98-.42,1.94-.87,2.91-1.31,11.57-5.37,22.51-12.16,32.5-20.11,35.81-28.52,59.55-72,57.02-118.62h.02ZM1007.68,997.12c-7.33,4.05-14.23,6.63-20.65,7.97-1.08.23-2.12.41-3.17.57-2.09.31-4.11.49-6.1.54-1,.03-1.96.02-2.92-.02-15.38-.59-27.16-8.88-34.49-20.42-.91-1.44-1.76-2.94-2.55-4.47-1.16-2.3-2.17-4.7-3-7.17-.56-1.63-1.04-3.31-1.45-4.99-.41-1.7-.75-3.4-1-5.13-.26-1.71-.44-3.46-.54-5.19-.1-1.73-.13-3.48-.07-5.21.28-8.42,2.46-16.7,6.74-23.82.21-.34.41-.69.62-1.01,6.81-10.66,18.44-18.54,35.63-20.09,48.28-4.36,83.61,60.43,32.92,88.45l.02-.02Z"/>
        <path class="cls-2" d="M1547.12,1092.58c128.04,121.96,321.82-59.3,214.35-192.72-11.92-14.8-24.63-26.49-37.79-35.44-1.18-.8-2.33-1.57-3.51-2.32-1.93-1.22-3.85-2.4-5.78-3.51-6.22-3.57-12.52-6.58-18.85-9.03-2.02-.78-4.05-1.5-6.07-2.17-1.63-.54-3.28-1.04-4.91-1.52-5.09-1.45-10.2-2.6-15.29-3.4-3.56-.56-7.13-.96-10.69-1.21-2.37-.16-4.73-.28-7.1-.31s-4.72,0-7.07.08c-5.88.23-11.7.85-17.47,1.84-4.6.8-9.17,1.83-13.66,3.09-56.25,15.67-103.03,66.03-112.12,123.79-.36,2.32-.67,4.64-.91,6.97-.49,4.67-.72,9.37-.69,14.1.03,5.91.47,11.87,1.37,17.84.39,2.66.88,5.3,1.45,7.97.39,1.83.82,3.64,1.31,5.47.54,2.06,1.13,4.1,1.76,6.14,2.07,6.61,4.72,13.21,8,19.73,1.29,2.58,2.68,5.14,4.16,7.7,1.06,1.83,2.17,3.64,3.33,5.45,4.39,6.87,9.52,13.65,15.41,20.27,1.44,1.62,2.89,3.22,4.41,4.8,2.04,2.14,4.16,4.26,6.38,6.37h-.02ZM1588.82,935.16c5.09-12.39,16.22-22.57,34.98-26.44,4.83-1,9.52-1.32,13.97-1.09,1.52.08,3.02.23,4.47.44,3.61.51,7.05,1.4,10.32,2.63,1.31.49,2.58,1.03,3.82,1.62,1.49.7,2.91,1.49,4.29,2.32,1.94,1.18,3.79,2.48,5.53,3.88.67.54,1.32,1.09,1.98,1.68,20.78,18.74,24.5,53.91-5.71,74.74-45.67,31.47-82.14-13.45-76.42-49.78.18-1.11.39-2.2.65-3.3.54-2.29,1.22-4.52,2.12-6.69h0Z"/>
      </g>
      <path class="cls-2" d="M1318.71,1096.67c-1.32-.08-2.63-.23-3.9-.42-.28-.05-.54-.08-.8-.13-1-.18-1.98-.38-2.92-.62-.41-.1-.8-.21-1.19-.31-3.07-.87-5.96-2.04-8.72-3.49-.59-.31-1.16-.62-1.73-.96-1.14-.67-2.27-1.37-3.36-2.11-15.34-10.41-26.28-28.43-38.85-39.55-10.77-9.53-22.72-14.01-39.66-4.26-14.54,8.36-20.06,19.98-19.96,32.65.02,3.35.44,6.76,1.19,10.2.11.51.23,1,.34,1.5,5.52,22.85,24.93,46.85,40.01,60.12,38.33,33.71,77.29,41.43,119.39,24.63,3.12-1.24,6.25-2.63,9.4-4.13,4.73-2.27,9.5-4.85,14.32-7.7,8.21-4.9,17.47-11.96,26.2-20.39,17.92-17.3,33.58-40.33,33.12-61.96-.21-9.84-3.75-19.39-11.95-27.98-46.03-48.23-60.95,47.97-110.91,44.94v-.02Z"/>
      <g>
        <path class="cls-2" d="M1008.53,665.24c95-15.41,77.08-171.33-33.79-148.67-85.14,17.4-62.48,164.27,33.79,148.67h0Z"/>
        <path class="cls-2" d="M1157.05,377.88c-111.81,9.66-70.73,181.45,35.18,134.58,70.73-31.29,37.27-140.83-35.18-134.58h0Z"/>
        <path class="cls-2" d="M1260.78,656.28c57.29-24.65,28.89-111.31-36.78-96.17-55.97,12.9-38.38,128.51,36.78,96.17h0Z"/>
        <path class="cls-2" d="M1346.17,420.43c59.33,8.39,49.26-93.94-7.3-82.3-41.64,8.57-39.99,75.61,7.3,82.3h0Z"/>
      </g>
      <g>
        <path class="cls-4" d="M974.74,908.67c-17.19,1.55-28.83,9.43-35.63,20.09-.21.34-.42.67-.62,1.01-4.28,7.12-6.46,15.39-6.74,23.82-.07,1.73-.03,3.46.07,5.21.1,1.73.28,3.46.54,5.19.26,1.71.59,3.43,1,5.13.41,1.68.9,3.36,1.45,4.99.83,2.46,1.84,4.86,3,7.17.78,1.53,1.62,3.02,2.55,4.47,7.33,11.54,19.11,19.83,34.49,20.42.96.03,1.94.05,2.92.02,1.98-.05,4.02-.23,6.1-.54,1.04-.15,2.11-.34,3.17-.57,6.41-1.34,13.32-3.9,20.65-7.97,50.68-28.03,15.34-92.81-32.92-88.45l-.02.02Z"/>
        <path class="cls-4" d="M1662.49,994.93c30.21-20.83,26.49-55.99,5.71-74.74-.64-.57-1.31-1.13-1.98-1.68-1.75-1.42-3.59-2.71-5.53-3.88-1.39-.83-2.81-1.62-4.29-2.32-1.24-.59-2.51-1.13-3.82-1.62-3.26-1.22-6.71-2.11-10.32-2.63-1.47-.21-2.95-.36-4.47-.44-4.46-.23-9.14.1-13.97,1.09-18.76,3.85-29.89,14.04-34.98,26.44-.9,2.17-1.58,4.41-2.12,6.69-.26,1.09-.47,2.19-.65,3.3-5.71,36.35,30.75,81.26,76.42,49.78h0Z"/>
      </g>
    </g>
  </g>
</svg>