<?xml version="1.0" encoding="UTF-8"?>
<svg id="_1" data-name=" 1" xmlns="http://www.w3.org/2000/svg" viewBox="0 200 4155 1200">
  <defs>
    <style>
      .cls-1 {
        fill: #0d9488;
      }

      .cls-2 {
        fill: #042f2e;
      }

      .cls-3 {
        fill: #fafcfc;
      }

      .cls-4 {
        fill: #ccfbf1;
      }
    </style>
  </defs>
  <g>
    <path class="cls-2" d="M1462.7,451.54c-23.02-3.49-31.57,19.65-24.25,38.82,12.98,33.99,58.81,3.4,41.22-29.12-2.42-1.34-5.08-3.99-7.27-4.85-2.93-1.15-7.27-4.48-9.7-4.85Z"/>
    <path class="cls-2" d="M251.47,492.9c20.76,27.2,57.57-8.45,36.91-33.31-17.98-21.63-59.45,3.78-36.91,33.31h0Z"/>
    <path class="cls-2" d="M295.11,354.6c6.85,11.04,1.88,29.44,6.79,38.11,4.83,8.53,22.43,10.21,30.85,4.18,15.83-11.34-3.59-45.25,29.6-55.31,12.93-3.92,52.17-5.69,36.93-30.58-11.83-19.32-48.57.48-58.12-31.61-3.98-13.35-2.81-53.36-29.52-41.99-19.45,8.28-4.84,40.01-24.79,55.31-17.71,13.59-56.16-2.15-48.07,33.35,5.21,22.84,41.58,4.78,56.33,28.53h0Z"/>
    <path class="cls-2" d="M1375.51,341.03c29.43,10.51,9.57,59.16,37.71,61.97,28.77,2.87,13.53-41.33,30.22-56.87,11.09-10.33,36.74-5.03,45.23-11.79,6.26-4.98,7.44-17.88,3.27-24.91-9.4-15.86-46.41.66-57.17-32.55-4.21-13-.53-39.57-19.57-41.27-27.6-2.46-20.1,20.54-23.9,38.94-7.82,37.85-55.37,12.37-59.43,40.07-4.33,29.58,26.89,20.44,43.63,26.41h.01Z"/>
  </g>
  <g>
    <path class="cls-1" d="M255.22,810.66l4.85-3.61c32.68,62.72,93.65,111.87,164.32,124.28,27.42,4.82,55.26,2.69,82.99,3.08-5.83-6.13-12.42-15.7-18.17-23.9-.29-.41-.58-.82-.86-1.23-.62-.89-1.24-1.76-1.84-2.6-.32-.45-.63-.89-.95-1.32-.18-.25-.36-.51-.54-.75-4.94-6.81-15.19-25.5-21.91-35.86-2-3.09-3.7-5.45-4.83-6.52-1.88-1.77-9.25-3.93-17.01-6.21-.46-.13-.92-.27-1.37-.4-1.24-.36-2.48-.73-3.7-1.1-5.12-1.54-9.92-3.1-12.91-4.59-37.02-18.54-75.71-58.08-84.96-99.39-5.36-23.93,4.79-51.75-31.01-51.51-.44,0-.89.02-1.35.06-.92.08-1.88.22-2.88.43-1,.21-2.03.48-3.09.81-2.12.66-4.36,1.55-6.64,2.62-1.14.53-2.3,1.11-3.46,1.73-.58.31-1.16.63-1.74.96-.94.53-1.89,1.09-2.83,1.67-4.28,2.62-8.5,5.64-12.27,8.77-5.62,4.67-10.25,9.56-12.62,13.65-.35.61-.69,1.24-1.02,1.89l-.06.12c-4.86,9.74-6.67,23.61-6.91,37.72-.26,15.05,1.26,30.36,2.78,41.2h0Z"/>
    <path class="cls-1" d="M1380.97,1049.54c-.34-.65-.7-1.29-1.09-1.92-.76-1.25-1.85-2.81-3.11-4.25-.05-.06-.1-.11-.15-.17-.54-.61-1.11-1.2-1.69-1.73-.2-.18-.4-.36-.61-.53-.33-.27-.65-.51-.98-.73-.29-.2-.58-.38-.88-.54-.42-.22-.83-.4-1.24-.51-10.36-2.96-47.59,18.18-62.85,22.47-.27.08-.55.16-.81.23-6.64,1.69-13.31,2.95-19.97,3.8-1.11.14-2.22.27-3.33.39-63.29,6.72-125.65-23.92-157.19-80.87-3.32-6-6.07-11.47-8.07-16.74-.23-.61-.46-1.22-.67-1.83-.04-.12-.09-.25-.13-.37-3.54-10.33-4.02-20.05-.07-31.61,1.06-3.1,2.43-6.33,4.16-9.75.82-1.62,2.31-2.78,3.58-3.6.18-.12.36-.23.53-.33.09-.06.18-.11.27-.16.19-.11.36-.21.52-.31.07-.04.13-.08.19-.11.13-.08.24-.14.34-.21.19-.12.33-.23.37-.3h0c31.69-61.92,68.45-135.38,77.28-205.35,19.26-152.74-31.93-318.03-156.3-413.3-2.88-2.21-7.02-2.2-5.84-7.38-15.4-8.01-30.93-15.06-46.61-21.1-7.84-3.02-15.71-5.78-23.62-8.29-60.64-19.19-123.47-23.05-189.3-8.31-150.32,33.65-294.63,168.3-314.83,323.1-1.69,12.95-2.94,25.7-3.74,38.25-1.02,16.09-1.29,31.87-.75,47.35.06,1.86.14,3.72.23,5.57.23,4.94.55,9.84.95,14.72.02.28.05.56.07.84.56,6.63,1.26,13.22,2.13,19.75.22,1.67.46,3.34.7,5,.97,6.65,2.12,13.25,3.43,19.79,2.63,13.09,5.94,25.98,9.98,38.68.5,1.59,1.02,3.17,1.55,4.75,3.69,11.07,7.93,22,12.75,32.79,1.38,3.08,2.8,6.16,4.27,9.22,1.47,3.06,2.99,6.12,4.56,9.16,1.57,3.04,3.18,6.08,4.85,9.1,2.5,4.53,5.1,9.05,7.82,13.54,1.48,2.44,3,4.88,4.54,7.31.68,1.07,1.36,2.13,2.05,3.19,1.59,2.45,3.21,4.9,4.87,7.34,2.74,4.03,5.59,8.05,8.52,12.05,3.51,4.8,7.16,9.57,10.95,14.32.03.04.07.09.1.13.71.89,1.88,2.37,3.36,4.22.1.12.2.25.3.38.49.61,1.01,1.27,1.55,1.95.07.09.14.17.21.26,1.48,1.86,3.13,3.92,4.85,6.04.08.09.15.19.23.28.65.8,1.3,1.6,1.95,2.4.84,1.04,1.69,2.07,2.53,3.08.43.52.86,1.04,1.28,1.55.41.49.81.98,1.21,1.45.51.61,1.01,1.2,1.5,1.78.33.39.66.78.99,1.16.65.75,1.26,1.46,1.85,2.12.29.33.58.65.85.95.82.91,1.56,1.7,2.18,2.32.5.5.92.88,1.25,1.15.16.13.29.22.41.29.05.03.1.07.15.09,4.25,1.95,12.81-.51,21.35-.29h.04c.52.01,1.05.04,1.57.07.53.04,1.06.09,1.59.15.75.09,1.5.21,2.23.36.82.17,1.64.38,2.44.63.41.13.81.28,1.21.44.93.37,1.84.81,2.73,1.33,3.89,2.31,7.21,6.27,9.34,12.88.42,1.32.58,2.92.53,4.74-.06,1.82-.33,3.85-.78,6.03-.11.54-.23,1.1-.37,1.66-.26,1.12-.57,2.27-.9,3.44-2.53,8.79-6.94,18.8-10.71,26.21-.25.49-.5.98-.74,1.45-1.22,2.35-2.36,4.38-3.31,5.96-5.66,9.38-12.05,18.04-19.07,25.92-.78.88-1.57,1.74-2.36,2.6-1.59,1.71-3.21,3.39-4.86,5.02-.82.82-1.66,1.62-2.5,2.42-37.98,36.09-90.49,51.76-143.05,39.15-6.66-1.6-13.32-3.64-19.96-6.16-3.22-1.23-6.62-2.94-10.1-4.83-.7-.38-1.39-.76-2.1-1.15-1.4-.78-2.81-1.58-4.23-2.37-.35-.2-.71-.4-1.06-.6-.71-.4-1.42-.79-2.12-1.18-.9-.49-1.79-.98-2.69-1.46-2.85-1.51-5.68-2.91-8.44-4.01-.66-.26-1.31-.51-1.96-.74-.33-.12-.66-.23-.99-.34-.68-.22-1.35-.42-2.01-.59-.33-.09-.67-.17-1-.24-.25-.06-.51-.11-.76-.16-.46-.09-.91-.17-1.36-.23-.15-.02-.31-.04-.46-.06-.54-.07-1.08-.11-1.61-.14-.33-.01-.66-.02-.99-.02-3.66.04-7.01,1.23-9.89,4.11-.44.44-.87.92-1.28,1.44-.27.33-.53.67-.78,1.04-1.75,2.5-3.28,5.82-4.52,10.11-2.47,8.5-2.45,16.72-.96,24.69.12.64.25,1.27.38,1.91.24,1.09.5,2.18.78,3.27.26,1,.55,1.99.85,2.98.04.12.07.24.11.36,2.89,9.32,7.38,18.32,11.75,27.03h0c12.19,6.69,21.1,14.86,34.73,19.84,44.33,16.19,113.74,11.47,158.66-2.22,63.06-19.21,118.09-65.87,153.33-120.87,2.01-3.14,2.08-7.08,7.27-5.94-.58-6.22,1.16-10.66,4.29-13.77.45-.45.94-.85,1.44-1.25.55-.43,1.12-.83,1.73-1.2,7.38-4.45,18.77-4.55,27.81-3.31,4.76.66,8.73,2.6,12.01,5.53.52.46,1.02.96,1.51,1.47.53.56,1.06,1.15,1.55,1.76,18.22,22.8,9.88,82.49,4.73,103.48-.56,2.27-1.14,4.54-1.74,6.8l-.39,1.47c-1.65,6.07-3.46,12.12-5.44,18.1,0,.03-.02.06-.03.08-19.88,59.78-57.14,113.14-117.63,124.31-1.26.23-2.53.45-3.81.64-5.12.78-10.41,1.27-15.86,1.43-5.45.17-11.06.01-16.85-.48-.44-.04-.9-.08-1.4-.14-7.38-.84-20.44-3.57-25.28-2.29-1.39.37-2.63.95-3.73,1.71-.62.42-1.19.91-1.72,1.44-.72.71-1.36,1.51-1.94,2.39-.2.31-.4.63-.58.96-.62,1.1-1.15,2.28-1.59,3.55-.51,1.49-.91,3.09-1.21,4.76-.4,2.22-.61,4.57-.68,6.95-.04,1.18-.04,2.38,0,3.57.02.65.04,1.29.08,1.94.06,1.1.14,2.2.25,3.29.58,5.92,1.8,11.41,3.09,15.09,6.99,19.89,20.18,27.97,37.13,36.85l51-8.41c58.57-12.76,110.05-37.17,149.06-83.77,5.25-6.27,8.25-17.68,15.73-19.44,2.63-11.93,6.71-32.84,15.76-43.97.42-.52.86-1.02,1.3-1.5.03-.03.06-.06.08-.09.51-.54,1.04-1.05,1.58-1.53,1.63-1.44,3.41-2.57,5.33-3.32.96-.37,1.96-.65,3.01-.83.35-.06.7-.1,1.06-.14.71-.07,1.44-.09,2.19-.05,4.12.18,8.82,1.92,14.17,5.7,7.31,5.17,12.3,21.66,16.07,36.32,1.9,7.41,3.5,14.35,4.92,19.12h0l44.91,38.77c29.27,22.35,86.94,52.82,123.52,55.95,18.2,1.56,55.38,1.74,71.62-4.94h0c.42-.17.84-.37,1.25-.6.3-.16.59-.35.88-.54.11-.07.23-.13.34-.21,7.23-4.89,12.8-17.32,15.9-29.34.17-.67.34-1.33.49-2,1.72-7.31,2.51-14.3,2.17-19.17-1.52-21.74-20.96-14.86-35.52-11.13-.11.03-.23.06-.34.09-.5.13-1,.25-1.49.37-.54.13-1.08.26-1.61.37-.53.12-1.04.22-1.55.32-.25.05-.5.09-.75.14-1.23.22-2.39.36-3.45.41-7.01.3-14-.19-20.93-1.38-1.98-.34-3.95-.74-5.91-1.19-1.96-.45-3.92-.96-5.87-1.52-43.87-12.56-83.68-51.61-106.47-90.95-1.01-1.75-1.99-3.5-2.94-5.24-2.83-5.24-5.36-10.47-7.53-15.61-3.84-9.07-8.2-21.77-11.94-36.11-.13-.48-.25-.97-.38-1.45-.32-1.24-.63-2.49-.93-3.75-10.55-43.45-14.4-99.2,18.37-116.06,3.37-1.73,7.18-2.83,11.1-3.29,1.68-.19,3.38-.27,5.07-.23,1.13.03,2.25.11,3.37.24,11.15,1.33,21.26,7.94,22.59,19.95,7.47-1.36,5.83.42,8.56,4.7,9.21,14.38,15.37,30.6,26.56,43.86,63.8,75.59,213.53,126.69,303.52,75.6,8.28-4.7,14.02-11.88,22.62-14.97,5.74-12.41,13.3-27.28,14.32-41.8.15-2.07.16-4.14,0-6.19-.34-4.79-1.54-9.49-3.92-14.01l.02.04ZM875.29,294.23c34.65-7.13,40.82,55.56,4.47,50.42-28.97-4.1-29.98-45.17-4.47-50.42ZM652.2,403.56c67.92-13.88,78.9,81.64,20.7,91.08-58.98,9.56-72.86-80.42-20.7-91.08ZM718.84,759.85c-6.12,4.87-12.82,9.03-19.91,12.32-.59.27-1.18.54-1.78.8-1.79.79-3.6,1.52-5.43,2.19-2.44.9-4.92,1.69-7.43,2.37-1.25.34-2.52.66-3.78.95-.63.14-1.27.28-1.91.41-1.17.24-2.34.45-3.51.64-.19.03-.38.06-.57.09-27.56,4.25-57.45-4.83-81.08-34.45-19.18-24.03-22.95-52.55-15.53-77.79.14-.49.29-.98.45-1.47.68-2.17,1.44-4.31,2.28-6.43,1.34-3.37,2.89-6.65,4.62-9.85.4-.73.8-1.45,1.22-2.17,13.64-23.51,37.91-41.3,68.25-44.88,19.43-2.29,40.57,4.81,58.1,16.84,13.12,9,24.22,20.76,31.05,33.43,6.17,11.44,9.29,23.03,9.9,34.33,1.54,28.56-12.99,55.2-34.93,72.67h0ZM763.89,318.58c44.38-3.83,64.88,63.27,21.55,82.45-64.88,28.71-90.06-76.53-21.55-82.45h0ZM804.91,430.22c40.23-9.27,57.63,43.82,22.53,58.92-46.05,19.81-56.82-51.02-22.53-58.92ZM917.91,786.51c-5.35,5.16-11.02,9.49-16.05,12.49-2.95,1.76-5.87,3.33-8.77,4.72-1.93.93-3.85,1.77-5.76,2.53-25.79,10.29-49.66,5.57-73.14-15.09-9.24-8.13-21.14-22.83-24.51-36.83-.07-.31-.14-.61-.21-.92-.45-2.11-.71-4.21-.73-6.25-.05-7.76,3.32-14.88,12.23-20,10.38-5.96,17.7-3.23,24.3,2.61,7.7,6.81,14.4,17.85,23.8,24.23.67.46,1.36.89,2.06,1.29.35.2.7.4,1.06.59,1.68.89,3.46,1.61,5.34,2.14.24.07.49.13.73.19.59.15,1.19.27,1.79.38.16.03.33.06.49.08.78.12,1.57.21,2.39.26,30.61,1.85,39.76-57.09,67.95-27.53,5.02,5.26,7.19,11.11,7.32,17.14.28,13.25-9.31,27.36-20.29,37.96h0ZM1002.86,756.43c-1.35-1.29-2.66-2.59-3.91-3.9-.93-.98-1.83-1.96-2.7-2.94-3.61-4.07-6.75-8.21-9.44-12.42-.71-1.11-1.39-2.22-2.04-3.34-.91-1.57-1.76-3.14-2.55-4.72-2-4-3.62-8.04-4.9-12.09-.39-1.25-.76-2.51-1.08-3.76-.29-1.12-.56-2.23-.8-3.35-.35-1.63-.65-3.26-.89-4.88-.54-3.66-.82-7.31-.84-10.93-.02-2.9.13-5.78.42-8.64.15-1.43.33-2.85.56-4.27,5.57-35.39,34.23-66.24,68.69-75.84,2.76-.77,5.55-1.4,8.37-1.89,3.53-.61,7.1-.99,10.7-1.13,1.44-.06,2.88-.07,4.33-.05s2.9.08,4.35.19c2.18.15,4.36.4,6.55.74,3.13.49,6.25,1.18,9.37,2.08,1,.29,2.01.6,3.01.93,1.24.41,2.48.85,3.72,1.33,3.88,1.5,7.74,3.33,11.55,5.53,1.19.68,2.37,1.4,3.54,2.15.72.46,1.44.93,2.15,1.42,8.06,5.48,15.84,12.64,23.15,21.71,65.84,81.74-52.88,192.8-131.32,118.07h.01Z"/>
    <path class="cls-1" d="M1222.51,934.61l16.3-.05c.27-.05.54-.1.82-.15h49.71c5.65,0,25.4-4.81,32.21-6.59,4.96-1.3,9.87-2.8,14.74-4.49.93-.32,1.85-.66,2.77-1,1.5-.55,2.99-1.11,4.48-1.69.93-.37,1.86-.75,2.79-1.13,2-.82,3.99-1.67,5.96-2.56,1.83-.82,3.66-1.66,5.48-2.53,1.75-.84,3.48-1.72,5.21-2.61.58-.3,1.16-.6,1.74-.9.02-.01.05-.03.07-.04,1.03-.54,2.05-1.1,3.08-1.66.34-.19.67-.38,1.01-.56.72-.4,1.43-.8,2.15-1.21.38-.22.75-.43,1.13-.65.69-.4,1.38-.81,2.07-1.22.36-.21.71-.42,1.07-.64.82-.5,1.64-1,2.45-1.51.2-.13.41-.25.61-.38,1.01-.63,2.02-1.28,3.02-1.93.28-.18.56-.37.83-.55.73-.48,1.45-.96,2.18-1.45.35-.24.71-.48,1.06-.72.66-.45,1.32-.91,1.97-1.36.35-.24.7-.49,1.04-.73.71-.51,1.42-1.02,2.13-1.53.27-.2.54-.39.81-.58.97-.71,1.93-1.42,2.88-2.15.19-.14.37-.29.56-.43.77-.59,1.54-1.18,2.3-1.78.32-.25.64-.5.95-.76.64-.5,1.27-1.01,1.9-1.53.34-.27.67-.55,1-.82.64-.53,1.28-1.06,1.92-1.6.29-.24.58-.49.87-.73,1.83-1.56,3.63-3.15,5.41-4.77.28-.25.55-.51.83-.76.62-.57,1.23-1.14,1.84-1.71.31-.29.62-.59.93-.88.59-.56,1.17-1.13,1.76-1.69.29-.28.58-.56.87-.85.69-.68,1.38-1.38,2.07-2.07.16-.16.32-.32.48-.49.84-.86,1.67-1.72,2.5-2.59.22-.23.44-.47.66-.71.6-.64,1.21-1.29,1.8-1.94.28-.31.56-.62.84-.93.54-.6,1.08-1.21,1.62-1.81.27-.31.55-.62.82-.93.58-.67,1.16-1.34,1.74-2.02.2-.24.41-.48.61-.72.77-.92,1.54-1.84,2.3-2.77.14-.17.27-.34.41-.51.62-.76,1.23-1.53,1.83-2.3.25-.31.49-.63.74-.95.5-.64,1-1.29,1.49-1.94.25-.34.51-.67.76-1.01.5-.67,1-1.35,1.5-2.03.21-.29.43-.59.64-.88,1.4-1.94,2.76-3.91,4.08-5.9.2-.31.4-.61.6-.92.46-.7.92-1.4,1.37-2.1.23-.35.45-.71.67-1.06.44-.69.87-1.38,1.29-2.08.21-.34.41-.67.62-1.01.51-.84,1-1.68,1.5-2.52.11-.19.22-.37.33-.56.6-1.03,1.19-2.07,1.76-3.11.15-.27.3-.55.45-.83.42-.77.84-1.55,1.26-2.32.19-.36.38-.73.57-1.09.37-.71.74-1.43,1.11-2.15.18-.37.37-.73.55-1.1.39-.79.78-1.58,1.16-2.37.14-.28.28-.57.41-.85.51-1.07,1.01-2.15,1.5-3.23.09-.2.17-.4.26-.59.4-.89.78-1.78,1.17-2.67.15-.36.31-.73.46-1.09.31-.75.62-1.49.92-2.24.16-.39.31-.78.47-1.16.3-.77.6-1.55.9-2.32.13-.34.26-.68.39-1.02.83-2.22,1.61-4.46,2.34-6.72.11-.35.22-.7.33-1.04.25-.79.5-1.58.74-2.38.12-.4.24-.8.36-1.2.23-.78.45-1.55.67-2.33.11-.38.21-.76.32-1.14.25-.94.5-1.88.74-2.82.05-.21.11-.42.16-.64.29-1.15.56-2.3.82-3.46.07-.31.14-.63.2-.94.19-.85.37-1.71.54-2.56.08-.41.16-.81.24-1.22.15-.79.3-1.57.44-2.36.07-.41.15-.82.22-1.23.15-.86.29-1.73.42-2.59.05-.32.1-.63.15-.95.18-1.18.34-2.36.49-3.54.03-.22.05-.45.08-.68.12-.96.23-1.93.33-2.89.04-.4.08-.8.12-1.21.08-.81.15-1.61.22-2.42.03-.43.07-.85.1-1.28.06-.83.11-1.67.16-2.5.02-.38.05-.75.06-1.13.06-1.2.11-2.4.14-3.61h0c-6.31-24.03-23.86-50.48-52.12-50.52-26.54-.04-21.13,19.73-26.7,38.37-6.36,21.27-15.02,41.84-26.69,60.26-1.44,2.27-2.92,4.5-4.45,6.69-1.03,1.48-2.08,2.94-3.16,4.39-.57.77-1.15,1.53-1.73,2.29-1.35,1.76-2.74,3.49-4.16,5.2-3.06,3.67-6.27,7.22-9.66,10.62-4.86,4.87-10.07,9.43-15.64,13.65-.71.54-1.42,1.07-2.14,1.6-4.65,3.4-9.54,6.56-14.71,9.45-11.81,6.61-21.86,7.28-32.82,14.47-18.96,12.43-29.33,36.63-43.72,54.52-.01.02-.03.04-.05.06-.09.11-.19.23-.29.35h0c-.22.26-.47.55-.74.86-.04.04-.07.08-.11.13,0,0-.01.02-.02.02-.44.49-.94,1.05-1.5,1.66l-.02.02c-.14.15-.27.3-.41.45l-.02.02c-.18.19-.36.39-.54.59-.04.04-.08.08-.12.13,0,0-.02.02-.02.03-.11.12-.23.25-.35.37-.11.12-.23.24-.34.36-.02.02-.04.04-.06.07-.11.12-.22.23-.33.35l-.03.03s-.07.07-.1.11c-.22.23-.44.47-.67.71-.01.01-.02.02-.03.04-.01.01-.03.03-.04.04-.35.37-.72.76-1.09,1.15-.04.04-.08.09-.13.13-.35.37-.7.74-1.07,1.12h-.01c-1.26,1.34-2.62,2.76-4.05,4.24-.05.05-.09.09-.13.14.03.14.06.28.09.42l-.03.02Z"/>
  </g>
  <g>
    <path class="cls-4" d="M501.33,997.51c10.23-1.11,19.93-6.67,28.69-13.52.49-.38.97-.77,1.45-1.15,1.92-1.55,3.8-3.16,5.62-4.78,4.1-3.66,7.94-7.42,11.47-10.88-5.5-4.93-11.85-9.48-18.23-14.06-1.82-1.31-3.64-2.62-5.45-3.94-6.32-4.63-12.43-9.41-17.5-14.75-27.74-.4-55.58,1.73-82.99-3.08-70.67-12.41-131.64-61.56-164.32-124.28l-4.85,3.61h0c2.01,14.35,6.1,28.46,11.91,42.1,36.91,86.68,143.77,154.51,234.2,144.74h0Z"/>
    <path class="cls-4" d="M1043.23,293.82c-1.19,5.18,2.96,5.17,5.84,7.38,124.37,95.27,175.56,260.57,156.3,413.3-8.82,69.97-45.58,143.44-77.28,205.35,18.99,2.11,22.3,10.37,36.22-3.42.45-.44.91-.91,1.38-1.4,12.95-13.49,24.6-28.16,35-43.75,4.26-6.39,8.31-12.94,12.15-19.63,1.09-1.91,2.17-3.83,3.23-5.76,12.73-23.22,22.96-48.03,30.65-73.79,14.5-48.56,20.05-100.46,16.68-151.29-.05-.7-.1-1.4-.15-2.1-.66-9.23-1.61-18.42-2.86-27.56-.54-3.97-1.14-7.92-1.79-11.86-1.28-7.73-2.77-15.4-4.48-23-7.53-33.55-19.21-65.71-35.06-95.08-8.89-16.47-18.35-31.58-28.46-45.6-1.94-2.68-3.89-5.34-5.87-7.94-1.54-2.02-3.1-4.02-4.68-6-36.21-45.46-80.56-78.58-136.83-107.84h.01Z"/>
    <path class="cls-4" d="M1347.94,1126.51c-89.99,51.09-239.72,0-303.52-75.6-11.19-13.26-17.36-29.48-26.56-43.86-2.74-4.28-1.09-6.06-8.56-4.7.17,1.55.24,3.28.23,5.14-.12,18.01-7.69,48.94-.36,61.72,2.04,3.56,9.02,8.3,15.35,12.59.4.27.8.54,1.19.81.22.15.44.3.66.45.3.21.61.41.9.62,2.55,1.75,4.83,3.37,6.42,4.74,48.71,42.12,98.72,74.98,160.22,87.93,13.46,2.83,27.45,4.73,42.12,5.55,17.32.96,34.06-.14,49.7-3.57,18.73-4.1,35.88-11.55,50.5-22.89,2.55-1.98,5.03-4.08,7.43-6.3,1.78-1.65,3.5-3.39,5.19-5.17,1.72-1.82,3.41-3.69,5.03-5.65,6.42-7.77,12.03-16.67,16.7-26.76-8.61,3.09-14.34,10.27-22.62,14.97l-.02-.02Z"/>
    <path class="cls-4" d="M711.06,1013.15c-35.24,54.99-90.27,101.66-153.33,120.87-44.92,13.69-114.33,18.41-158.66,2.22-13.63-4.98-22.54-13.15-34.73-19.84,28.74,57.23,104.02,70.98,163.62,65.48,23.33-2.15,50.89-13.58,77.76-28.32.81-.45,1.63-.9,2.44-1.35,8.34-4.64,16.6-9.58,24.62-14.65.64-.4,1.28-.81,1.92-1.21,1.99-1.27,3.97-2.54,5.92-3.82,1.15-.75,2.3-1.51,3.45-2.26,1.19-.78,2.36-1.57,3.53-2.36,1-.67,1.99-1.34,2.98-2.01,1.16-.79,2.32-1.57,3.46-2.36,2.44-1.68,4.85-3.35,7.21-5.02,2.36-1.66,4.68-3.32,6.95-4.95,2.27-1.64,4.49-3.26,6.65-4.85,2.16-1.6,4.27-3.17,6.32-4.71,2.73-2.06,5.36-4.06,7.87-6,18.32-14.16,29.47-21.4,31.68-45.95.35-3.88.46-7.71.41-11.51-.03-1.9-.09-3.79-.19-5.68-.1-1.88-.23-3.75-.38-5.62-.6-7.46-1.55-14.79-2.23-22.05-5.19-1.14-5.26,2.8-7.27,5.94h0Z"/>
    <path class="cls-4" d="M1063.75,1325.16c-36.57-3.13-94.25-33.6-123.52-55.95l-44.91-38.77c.49,1.65.79,3.51,1.08,5.44.18,1.17.36,2.37.59,3.57.16.83.35,1.65.57,2.46.06.22.11.45.18.66.36,1.21.74,2.42,1.14,3.61.54,1.62,1.11,3.22,1.71,4.8.76,2.04,1.57,4.05,2.42,6.03,20.05,46.46,64.45,75.4,113.79,86.2,2.91.64,5.83,1.21,8.77,1.72.7.12,1.4.24,2.09.35,1.92.31,3.85.6,5.78.86.34.05.69.09,1.03.14,2.01.26,4.03.49,6.05.69.46.05.91.09,1.37.13,2.09.2,4.19.36,6.29.49.29.02.58.04.87.05,12.16.72,24.36.39,36.34-1.01,7.95-.93,19.79-4.17,30.08-9.21,1.21-.59,2.4-1.21,3.56-1.85s2.29-1.31,3.38-2c.93-.59,1.82-1.2,2.69-1.82,1.67-1.2,3.23-2.46,4.61-3.78,2.51-2.4,4.48-5,5.65-7.77-16.24,6.68-53.41,6.5-71.62,4.94v.02Z"/>
    <path class="cls-4" d="M814.13,1240.18c-39.01,46.6-90.49,71.01-149.06,83.77l-51,8.41c54.97,28.78,134.79,13.22,180.28-31.11,1.94-1.89,3.81-3.83,5.62-5.81,4.52-4.97,8.62-10.27,12.23-15.86,1.14-1.76,2.21-3.56,3.25-5.38.59-1.04,1.17-2.09,1.73-3.14,4.68-8.86,8.2-18.36,10.27-28.47.16-.78.29-1.58.4-2.39h0c.11-.81.19-1.65.27-2.5h0c.07-.85.13-1.71.19-2.59,0-.07,0-.14.01-.21.05-.77.09-1.54.14-2.33.23-3.73.51-7.69,1.42-11.81-7.48,1.76-10.48,13.17-15.73,19.44l-.02-.02Z"/>
    <path class="cls-4" d="M1476.99,783.98c0-.82-.02-1.65-.05-2.47-.02-.59-.04-1.17-.07-1.76-.03-.81-.07-1.62-.12-2.42-.04-.6-.08-1.2-.12-1.79-.06-.8-.12-1.61-.2-2.42-.05-.6-.11-1.21-.18-1.81-.08-.81-.18-1.62-.28-2.43-.07-.6-.15-1.2-.23-1.8-.11-.83-.24-1.66-.36-2.49-.09-.59-.18-1.17-.27-1.76-.14-.87-.31-1.73-.47-2.6-.1-.55-.2-1.1-.31-1.65-.19-.96-.4-1.92-.61-2.89-.1-.46-.19-.92-.3-1.38-.33-1.43-.68-2.86-1.05-4.29-.03,1.21-.08,2.41-.14,3.61-.02.38-.04.75-.06,1.13-.05.83-.1,1.67-.16,2.5-.03.43-.06.85-.1,1.28-.07.81-.14,1.62-.22,2.42-.04.4-.08.8-.12,1.21-.1.97-.21,1.93-.33,2.89-.03.22-.05.45-.08.68-.15,1.18-.31,2.36-.49,3.54-.05.32-.1.63-.15.95-.13.87-.27,1.73-.42,2.59-.07.41-.14.82-.22,1.23-.14.79-.29,1.57-.44,2.36-.08.41-.16.81-.24,1.22-.17.86-.36,1.71-.54,2.56-.07.31-.13.63-.2.94-.26,1.16-.53,2.31-.82,3.46-.05.21-.11.42-.16.64-.24.94-.48,1.88-.74,2.81-.1.38-.21.76-.32,1.14-.22.78-.44,1.56-.67,2.33-.12.4-.24.8-.36,1.2-.24.79-.49,1.59-.74,2.38-.11.35-.22.7-.33,1.04-.73,2.25-1.51,4.49-2.34,6.72-.13.34-.26.68-.39,1.02-.29.78-.59,1.55-.9,2.32-.15.39-.31.78-.46,1.16-.3.75-.61,1.5-.92,2.24-.15.36-.3.73-.46,1.09-.38.89-.77,1.78-1.16,2.67-.09.2-.17.4-.26.6-.49,1.08-.99,2.16-1.49,3.23-.14.29-.27.57-.41.85-.38.79-.76,1.58-1.15,2.36-.18.37-.37.74-.56,1.1-.36.72-.73,1.43-1.1,2.14-.19.37-.38.73-.57,1.09-.41.78-.83,1.55-1.25,2.32-.15.28-.3.56-.46.83-.58,1.04-1.16,2.07-1.76,3.1-.11.19-.23.38-.34.57-.49.84-.99,1.68-1.49,2.51-.21.34-.41.68-.62,1.02-.42.69-.85,1.38-1.28,2.06-.23.36-.45.71-.68,1.07-.45.7-.9,1.4-1.36,2.1-.2.31-.4.62-.61.92-1.32,1.99-2.69,3.95-4.08,5.89-.22.3-.43.59-.65.89-.49.68-.99,1.35-1.49,2.02-.25.34-.51.68-.77,1.02-.49.65-.98,1.29-1.48,1.93l-.75.96c-.6.76-1.2,1.52-1.81,2.27-.14.18-.29.36-.43.54-.76.93-1.52,1.85-2.29,2.77-.21.25-.42.49-.62.73-.57.67-1.15,1.34-1.73,2-.28.32-.56.63-.83.95-.53.6-1.07,1.2-1.61,1.8-.28.31-.57.63-.85.94-.59.65-1.19,1.29-1.79,1.92-.23.24-.45.48-.68.72-.82.87-1.65,1.73-2.49,2.58-.17.17-.34.34-.51.51-.68.69-1.36,1.37-2.04,2.05-.29.29-.58.57-.88.86-.58.56-1.16,1.13-1.75,1.69-.31.3-.62.59-.94.89-.6.57-1.21,1.14-1.83,1.7-.28.26-.56.52-.84.77-.89.81-1.78,1.61-2.68,2.4-.9.79-1.81,1.58-2.72,2.35-.29.25-.59.5-.89.75-.63.53-1.26,1.06-1.9,1.58-.34.28-.67.55-1.01.83-.63.51-1.25,1.01-1.88,1.52-.32.26-.64.51-.97.77-.15.11-.29.23-.44.35-.61.48-1.23.95-1.84,1.42-.19.15-.38.3-.58.44-.95.72-1.91,1.44-2.87,2.14-.27.2-.55.4-.82.59-.51.37-1.02.75-1.54,1.12-.19.14-.38.27-.57.4-.35.25-.7.49-1.06.74-.33.23-.65.46-.98.69s-.66.45-.99.67c-.35.24-.71.48-1.07.73-.72.49-1.44.97-2.17,1.44-.28.19-.56.37-.84.56-.08.05-.15.1-.22.15-.93.6-1.86,1.19-2.79,1.78-.21.13-.42.26-.63.39-.81.5-1.62,1-2.43,1.49-.36.22-.72.43-1.08.64-.68.41-1.37.81-2.05,1.21-.38.22-.76.44-1.14.66-.71.41-1.42.81-2.13,1.2-.34.19-.68.38-1.02.57-1.02.56-2.04,1.12-3.07,1.66-.02.01-.05.03-.07.04-.72.38-1.45.75-2.17,1.12-1.59.82-3.18,1.62-4.78,2.39-1.81.88-3.64,1.71-5.48,2.53-1.98.88-3.96,1.74-5.96,2.56-.93.38-1.86.76-2.79,1.13-1.29.51-2.59,1-3.89,1.48-1.12.41-2.24.82-3.36,1.21-4.86,1.7-9.78,3.2-14.74,4.49-6.81,1.78-26.56,6.59-32.21,6.59l-50.52.15s-.04,0-.06.01l-16.24.05c-.03-.14-.06-.28-.09-.42-.14.15-.28.29-.41.43,0,0,0,0,0,0-.85.88-1.71,1.78-2.6,2.7-6.42,6.67-13.66,14.19-19.49,20.53l-.02.02s-.03.03-.04.04c-.81.88-1.58,1.73-2.33,2.55-.04.04-.08.08-.12.13-.35.38-.68.76-1.01,1.13-.02.02-.04.05-.06.07-.35.39-.69.78-1.03,1.16-.02.03-.04.05-.07.08-.07.08-.14.16-.21.24-.23.27-.47.53-.69.79-.03.03-.06.07-.09.1-.12.14-.23.27-.34.4-.48.55-.93,1.09-1.35,1.59-.05.06-.1.12-.15.17-.23.28-.45.55-.67.81-.03.03-.05.06-.08.09-.03.04-.06.08-.09.12-.19.24-.38.48-.56.7-.03.04-.06.08-.1.13-.17.22-.33.43-.48.63-.04.06-.08.11-.13.17-.32.43-.59.82-.82,1.17-.02.03-.04.06-.06.08-.03.05-.06.09-.08.13-.08.14-.16.26-.23.38,0,0-.01.02-.02.03-.02.03-.04.07-.06.1-.04.08-.07.15-.11.22-.03.07-.07.14-.1.2-.01.03-.02.05-.03.08-.02.05-.03.1-.05.15-.01.04-.03.08-.04.12,0,.03-.01.06-.02.08-.01.09-.02.18,0,.24,1.2.83,2.31,1.71,3.36,2.61,1.89,1.63,3.56,3.36,5.17,5.11.77.84,1.54,1.68,2.3,2.53.4.44.79.87,1.19,1.31.16.18.33.36.5.53.38.41.77.81,1.15,1.22.15.16.3.32.46.47.53.54,1.06,1.07,1.62,1.59.01,0,.02.02.03.03.07.06.14.13.21.19.37.35.75.69,1.14,1.02.15.13.31.26.46.39.33.28.68.56,1.03.84.15.12.31.24.46.36.5.38,1.01.76,1.54,1.12h.01c.59.4,1.21.8,1.85,1.18s1.31.75,2.01,1.1c.82.42,1.65.82,2.48,1.21.27.13.55.25.82.37.56.26,1.12.51,1.68.75.33.14.65.28.98.41.51.21,1.02.43,1.54.63.35.14.69.27,1.04.4.5.19,1,.38,1.5.56.35.13.7.25,1.06.37.5.18,1.01.34,1.51.51.35.11.7.23,1.04.34.52.16,1.05.32,1.58.48.33.1.66.2.99.29.58.16,1.17.32,1.75.47.27.07.55.15.82.22.86.21,1.72.42,2.58.61.81.18,1.62.34,2.43.5s1.62.3,2.44.43c.93.15,1.86.29,2.8.41.29.04.58.07.87.11.66.08,1.31.16,1.97.23.33.03.65.07.98.1.66.06,1.32.12,1.98.17.29.02.58.05.87.06,1.88.12,3.77.2,5.66.22h.86c.67,0,1.34,0,2.01-.01.32,0,.65-.01.97-.02.67-.02,1.34-.04,2.02-.07.29-.01.57-.02.86-.04.95-.05,1.9-.1,2.85-.17.91-.07,1.82-.15,2.74-.23h.03c1.46-.14,2.92-.31,4.38-.5.22-.03.45-.06.67-.09,1.4-.19,2.8-.41,4.2-.65.29-.05.57-.1.86-.15,1.68-.3,3.37-.63,5.04-.99h.04c1.67-.36,3.34-.75,5-1.17.01,0,.03,0,.04-.01,1.67-.42,3.33-.87,5-1.34h.01c1.67-.48,3.33-.98,4.99-1.52,1.08-.34,2.15-.7,3.22-1.06,3.08-1.05,6.14-2.19,9.17-3.4.1-.04.21-.08.31-.12.97-.39,1.93-.78,2.89-1.19.02,0,.03-.01.05-.02,1.01-.42,2.01-.85,3.01-1.29.05-.02.11-.05.16-.07.87-.38,1.73-.77,2.59-1.16.25-.11.49-.22.74-.34.7-.32,1.4-.65,2.1-.98.25-.12.5-.23.74-.35.91-.43,1.82-.87,2.73-1.32,1.68-.83,3.34-1.67,4.99-2.53.13-.07.26-.14.39-.2,1.53-.8,3.06-1.62,4.57-2.45.16-.09.33-.18.49-.27,1.5-.83,3-1.68,4.47-2.53.13-.07.26-.15.39-.22,1.58-.92,3.14-1.84,4.68-2.78.01,0,.03-.02.04-.03,1.54-.94,3.06-1.89,4.57-2.84.13-.08.26-.17.39-.25,1.4-.89,2.78-1.79,4.15-2.7.16-.1.32-.21.47-.31,1.37-.91,2.71-1.82,4.04-2.73.12-.08.24-.16.36-.25,1.43-.99,2.84-1.98,4.23-2.97,1.73-1.24,3.46-2.51,5.19-3.79.2-.15.4-.29.6-.44,1.65-1.22,3.29-2.47,4.93-3.73.27-.21.54-.41.8-.62,1.62-1.25,3.23-2.52,4.85-3.8.27-.21.53-.42.79-.64,1.64-1.31,3.27-2.64,4.9-3.99.19-.16.37-.31.56-.47,3.46-2.88,6.89-5.83,10.27-8.86.12-.11.25-.22.37-.33,1.64-1.47,3.27-2.96,4.88-4.46.2-.18.4-.37.59-.55,1.59-1.49,3.17-2.99,4.73-4.51l.05.05c.2-.19.4-.38.59-.58,1.58-1.54,3.15-3.1,4.71-4.68.13-.13.26-.27.39-.4,3.3-3.36,6.52-6.78,9.67-10.28.03-.04.07-.08.1-.11,1.53-1.71,3.05-3.44,4.54-5.18.13-.15.26-.3.39-.45,1.45-1.7,2.88-3.42,4.29-5.15.14-.18.29-.36.43-.53,1.41-1.74,2.8-3.5,4.17-5.28.1-.13.2-.27.3-.4,2.88-3.76,5.66-7.58,8.31-11.47.08-.12.16-.23.24-.35.79-1.16,1.56-2.32,2.32-3.49.24-.37.47-.74.71-1.11.52-.8,1.03-1.6,1.54-2.41.28-.45.56-.91.84-1.36.45-.73.9-1.46,1.34-2.19.3-.49.58-.98.88-1.48.41-.7.83-1.4,1.23-2.11.3-.51.59-1.03.88-1.54.39-.69.78-1.39,1.16-2.08.29-.52.57-1.05.86-1.58.38-.7.75-1.39,1.11-2.09.28-.53.55-1.05.82-1.58.36-.71.72-1.42,1.08-2.13.26-.52.52-1.04.77-1.57.36-.73.71-1.47,1.05-2.2.24-.51.48-1.01.71-1.52.36-.78.71-1.57,1.06-2.36.21-.47.42-.93.62-1.4.4-.91.78-1.83,1.16-2.74.14-.35.29-.69.44-1.04.52-1.27,1.02-2.54,1.5-3.81.09-.24.17-.47.26-.71.39-1.04.77-2.08,1.14-3.12.16-.45.31-.91.47-1.36.29-.83.57-1.66.85-2.5.17-.52.33-1.03.49-1.55.25-.78.49-1.56.72-2.34.16-.55.32-1.09.48-1.64.22-.76.43-1.52.64-2.28.15-.56.3-1.12.44-1.69.2-.75.39-1.51.57-2.27.14-.57.27-1.14.41-1.71.18-.76.34-1.52.51-2.28.12-.57.24-1.14.36-1.71.16-.77.31-1.55.45-2.32.1-.56.21-1.12.31-1.68.14-.8.27-1.61.4-2.41.08-.54.17-1.07.25-1.61.13-.87.24-1.75.35-2.62.06-.47.13-.95.18-1.42.13-1.1.24-2.21.35-3.32.02-.25.05-.5.08-.75.12-1.36.22-2.73.3-4.09.02-.37.03-.75.05-1.12.05-.99.1-1.99.13-2.99.02-.51.02-1.03.03-1.54.02-.86.03-1.73.03-2.59,0-.56-.01-1.12-.02-1.69Z"/>
  </g>
  <path class="cls-2" d="M1427.48,980.46c75.58-59.42,134.21-151.02,103.19-251.17-16.77-54.13-88.61-108.34-145.33-82.18-54.62,25.19-39.32,60.61-58.43,106.53-1.06,2.54-13.9,31.69-19.38,25.47,51.83-188.27-11.95-369.4-162.72-488.67-330.4-261.39-799.07,29.55-734.28,436.38,1.1,6.93,14.55,44.56,11.97,47.44-9.04-.89-16.19-18.27-18.85-26-6.74-19.59-6.72-44.13-14.62-63.02-5.95-14.24-26.06-34.81-40.62-39.43-71.2-22.58-139.95,28.26-153.25,98.71-19.71,104.42,39.39,191.5,120.35,249.67-85.25,137.42,57.79,262.84,194.29,248.38-5.18,86.09,57.51,159.04,144.15,165.12,77.39,5.44,136.78-24.08,191.73-75.26,5.8-5.4,8.95-11.87,14.74-16.95,3.99-.84,31.28,29.99,37.3,35.11,69.47,59.19,188.9,82.79,266.59,26.51,37.1-26.88,63.95-86.73,53.5-132.09h42.43c11.76,0,40.27-8.76,52.65-12.83,80.78-26.6,139.21-93.48,130.39-182.48-2.8-28.28-13.94-37.04-32.37-54.42-2.04-1.93-2.22-1.66-1.54-5.02,6.78-1.12,12.86-5.66,18.12-9.8h-.01ZM267.13,852.76c-5.81-13.64-9.9-27.75-11.91-42.1-1.52-10.84-3.04-26.15-2.78-41.2.24-14.11,2.06-27.98,6.91-37.72l.06-.12c.33-.65.67-1.28,1.02-1.89,2.37-4.09,7-8.98,12.62-13.65,3.77-3.13,7.99-6.16,12.27-8.77.94-.58,1.89-1.14,2.83-1.67.58-.33,1.16-.65,1.74-.96,1.16-.62,2.32-1.2,3.46-1.73,2.29-1.07,4.52-1.96,6.64-2.62,1.06-.33,2.1-.6,3.09-.81,1-.21,1.96-.36,2.88-.43.46-.04.91-.06,1.35-.06,35.8-.24,25.65,27.58,31.01,51.51,9.25,41.31,47.94,80.85,84.96,99.39,2.99,1.5,7.79,3.06,12.91,4.59,1.22.37,2.46.73,3.7,1.1.46.13.92.27,1.37.4,7.77,2.28,15.14,4.44,17.01,6.21,1.14,1.07,2.83,3.43,4.83,6.52,6.71,10.36,16.97,29.06,21.91,35.86.18.24.36.5.54.75.31.43.63.87.95,1.32.6.84,1.21,1.71,1.84,2.6.29.41.57.81.86,1.23,5.75,8.2,12.34,17.76,18.17,23.9,5.07,5.34,11.18,10.12,17.5,14.75,1.81,1.32,3.63,2.63,5.45,3.94,6.37,4.58,12.72,9.13,18.23,14.06-3.53,3.46-7.37,7.22-11.47,10.88-1.82,1.63-3.7,3.23-5.62,4.78-.48.39-.96.77-1.45,1.15-8.76,6.85-18.45,12.42-28.69,13.52-90.43,9.77-197.29-58.07-234.2-144.74h.01ZM1384.88,1069.75c-1.01,14.52-8.57,29.39-14.32,41.8-4.67,10.1-10.29,18.99-16.7,26.76-1.62,1.96-3.31,3.83-5.03,5.65-1.69,1.78-3.41,3.52-5.19,5.17-2.4,2.22-4.87,4.32-7.43,6.3-14.62,11.34-31.77,18.79-50.5,22.89-15.64,3.43-32.38,4.53-49.7,3.57-14.67-.81-28.66-2.71-42.12-5.55-61.51-12.95-111.51-45.8-160.22-87.93-1.59-1.37-3.87-3-6.42-4.74-.3-.2-.6-.41-.9-.62-.22-.15-.44-.3-.66-.45-.39-.27-.79-.54-1.19-.81-6.33-4.29-13.31-9.03-15.35-12.59-7.33-12.79.24-43.71.36-61.72.01-1.86-.05-3.59-.23-5.14-1.33-12.01-11.43-18.62-22.59-19.95-1.12-.13-2.24-.21-3.37-.24-1.69-.04-3.39.04-5.07.23-3.92.45-7.73,1.55-11.1,3.29-32.77,16.86-28.92,72.61-18.37,116.06.31,1.26.62,2.51.93,3.75.12.49.25.97.38,1.45,3.74,14.35,8.1,27.05,11.94,36.11,2.18,5.15,4.7,10.37,7.53,15.61.94,1.75,1.92,3.5,2.94,5.24,22.79,39.33,62.6,78.39,106.47,90.95,1.95.56,3.91,1.06,5.87,1.52,1.96.45,3.94.85,5.91,1.19,6.92,1.19,13.91,1.68,20.93,1.38,1.06-.05,2.22-.19,3.45-.41.25-.04.5-.09.75-.14.5-.1,1.02-.2,1.55-.32s1.06-.24,1.61-.37c.49-.12.99-.24,1.49-.37.11-.03.23-.06.34-.09,14.56-3.73,34-10.61,35.52,11.13.34,4.87-.44,11.86-2.17,19.17-.16.66-.32,1.33-.49,2-3.1,12.02-8.66,24.45-15.9,29.34-.11.08-.23.14-.34.21-.29.19-.58.38-.88.54-.41.22-.83.42-1.25.6-1.17,2.77-3.13,5.36-5.65,7.77-1.38,1.32-2.93,2.58-4.61,3.78-.87.62-1.76,1.23-2.69,1.82-1.09.69-2.22,1.36-3.38,2s-2.35,1.26-3.56,1.85c-10.29,5.04-22.13,8.28-30.08,9.21-11.98,1.4-24.18,1.73-36.34,1.01-.29-.02-.58-.04-.87-.05-2.1-.13-4.2-.3-6.29-.49-.46-.04-.91-.09-1.37-.13-2.02-.2-4.04-.43-6.05-.69-.34-.04-.69-.09-1.03-.14-1.93-.26-3.86-.55-5.78-.86-.7-.11-1.4-.23-2.09-.35-2.94-.51-5.86-1.08-8.77-1.72-49.34-10.8-93.74-39.74-113.79-86.2-.85-1.98-1.66-3.99-2.42-6.03-.59-1.58-1.17-3.18-1.71-4.8-.4-1.19-.77-2.4-1.14-3.61-.07-.22-.12-.44-.18-.66-.22-.81-.41-1.63-.57-2.46-.23-1.19-.41-2.39-.59-3.57-.3-1.93-.59-3.8-1.08-5.45-1.42-4.77-3.02-11.71-4.92-19.12-3.77-14.66-8.75-31.15-16.07-36.32-5.35-3.78-10.04-5.52-14.17-5.7-.75-.03-1.48-.01-2.19.05-.36.03-.71.08-1.06.14-1.04.17-2.04.45-3.01.83-1.93.75-3.7,1.88-5.33,3.32-.54.48-1.07.99-1.58,1.53-.03.03-.06.06-.08.09-.45.48-.88.98-1.3,1.5-9.05,11.13-13.13,32.04-15.76,43.97-.91,4.12-1.19,8.08-1.42,11.81-.05.79-.09,1.56-.14,2.33,0,.07,0,.14-.01.21-.06.88-.12,1.74-.19,2.58h0c-.07.86-.16,1.69-.27,2.51h0c-.11.82-.24,1.61-.4,2.39-2.07,10.11-5.58,19.62-10.27,28.47-.56,1.06-1.13,2.1-1.73,3.14-1.04,1.82-2.11,3.62-3.25,5.38-3.61,5.59-7.71,10.88-12.23,15.86-1.81,1.99-3.68,3.93-5.62,5.81-45.49,44.34-125.31,59.9-180.28,31.11-16.95-8.88-30.13-16.96-37.13-36.85-1.29-3.68-2.51-9.17-3.09-15.09-.11-1.08-.19-2.18-.25-3.29-.03-.64-.06-1.29-.08-1.94-.03-1.19-.03-2.39,0-3.57.07-2.38.29-4.73.68-6.95.3-1.67.69-3.27,1.21-4.76.44-1.27.97-2.46,1.59-3.55.19-.33.38-.65.58-.96.57-.88,1.22-1.68,1.94-2.39.53-.53,1.1-1.02,1.72-1.44,1.1-.75,2.34-1.34,3.73-1.71,4.83-1.28,17.9,1.45,25.28,2.29.49.06.96.1,1.4.14,5.78.49,11.4.65,16.85.48,5.45-.17,10.73-.65,15.86-1.43,1.28-.2,2.55-.41,3.81-.64,60.49-11.16,97.75-64.53,117.63-124.31,0-.03.02-.06.03-.08,1.99-5.98,3.8-12.03,5.44-18.1l.39-1.47c.6-2.26,1.19-4.53,1.74-6.8,5.15-20.98,13.49-80.67-4.73-103.48-.49-.62-1.02-1.2-1.55-1.76-.49-.51-.99-1.01-1.51-1.47-3.28-2.93-7.25-4.87-12.01-5.53-9.04-1.24-20.43-1.14-27.81,3.31-.61.37-1.18.77-1.73,1.2-.5.39-.99.8-1.44,1.25-3.13,3.11-4.87,7.55-4.29,13.77.68,7.26,1.63,14.6,2.23,22.05.15,1.86.28,3.74.38,5.62.1,1.88.16,3.77.19,5.68.05,3.79-.06,7.63-.41,11.51-2.21,24.55-13.35,31.78-31.68,45.95-2.51,1.94-5.14,3.95-7.87,6-2.05,1.54-4.16,3.12-6.32,4.71-2.16,1.6-4.38,3.22-6.65,4.85-2.27,1.64-4.58,3.29-6.95,4.95-2.36,1.66-4.77,3.34-7.21,5.02-1.14.79-2.3,1.57-3.46,2.36-.99.67-1.98,1.34-2.98,2.01-1.17.79-2.35,1.57-3.53,2.36-1.14.75-2.29,1.51-3.45,2.26-1.96,1.28-3.93,2.55-5.92,3.82-.64.41-1.28.81-1.92,1.21-8.03,5.07-16.28,10.01-24.62,14.65-.81.45-1.63.9-2.44,1.35-26.87,14.73-54.43,26.16-77.76,28.32-59.61,5.5-134.88-8.24-163.62-65.48-4.38-8.72-8.86-17.71-11.75-27.03-.04-.12-.07-.24-.11-.36-.3-.99-.58-1.98-.85-2.98-.29-1.08-.55-2.17-.78-3.27-.14-.63-.27-1.27-.38-1.91-1.49-7.98-1.51-16.2.96-24.69,1.24-4.29,2.77-7.6,4.52-10.11.26-.37.52-.71.78-1.04.42-.52.84-1,1.28-1.44,2.88-2.88,6.23-4.07,9.89-4.11.33,0,.65,0,.99.02.53.02,1.07.07,1.61.14.15.02.31.04.46.06.45.06.9.14,1.36.23.25.05.5.1.76.16.33.08.66.16,1,.24.66.17,1.34.37,2.01.59.33.11.66.22.99.34.65.23,1.31.48,1.96.74,2.76,1.11,5.59,2.5,8.44,4.01.89.48,1.79.96,2.69,1.46.71.39,1.42.79,2.12,1.18.35.2.71.4,1.06.6,1.42.79,2.83,1.59,4.23,2.37.7.39,1.4.77,2.1,1.15,3.48,1.89,6.88,3.6,10.1,4.83,6.63,2.52,13.3,4.56,19.96,6.16,52.56,12.6,105.07-3.06,143.05-39.15.84-.8,1.67-1.6,2.5-2.42,1.65-1.63,3.27-3.31,4.86-5.02.8-.86,1.58-1.72,2.36-2.6,7.02-7.88,13.41-16.54,19.07-25.92.95-1.57,2.08-3.61,3.31-5.96.24-.47.49-.95.74-1.45,3.77-7.41,8.18-17.42,10.71-26.21.34-1.17.64-2.32.9-3.44.13-.56.25-1.11.37-1.66.45-2.18.72-4.21.78-6.03.06-1.82-.1-3.42-.53-4.74-2.13-6.61-5.45-10.57-9.34-12.88-.88-.52-1.79-.96-2.73-1.33-.4-.16-.8-.3-1.21-.44-.8-.26-1.61-.46-2.44-.63-.74-.15-1.48-.27-2.23-.36-.53-.06-1.06-.11-1.59-.15-.52-.04-1.05-.06-1.57-.07h-.04c-8.53-.22-17.1,2.24-21.35.29-.04-.02-.1-.06-.15-.09-.12-.07-.25-.17-.41-.29-.34-.27-.75-.65-1.25-1.15-.62-.62-1.36-1.41-2.18-2.32-.27-.3-.56-.62-.85-.95-.58-.66-1.2-1.37-1.85-2.12-.32-.38-.65-.76-.99-1.16-.49-.57-.99-1.17-1.5-1.78-.4-.48-.8-.96-1.21-1.45-.42-.51-.85-1.03-1.28-1.55-.84-1.02-1.68-2.05-2.53-3.08-.65-.8-1.31-1.61-1.95-2.4-.08-.09-.15-.19-.23-.28-1.71-2.12-3.37-4.18-4.85-6.04-.07-.09-.14-.17-.21-.26-.54-.68-1.06-1.33-1.55-1.95-.1-.13-.2-.25-.3-.38-1.47-1.85-2.65-3.33-3.36-4.22-.03-.04-.07-.09-.1-.13-3.79-4.75-7.43-9.52-10.95-14.32-2.93-4-5.78-8.01-8.52-12.05-1.66-2.44-3.28-4.89-4.87-7.34-.69-1.06-1.37-2.13-2.05-3.19-1.54-2.43-3.06-4.87-4.54-7.31-2.72-4.49-5.32-9-7.82-13.54-1.66-3.02-3.28-6.05-4.85-9.1-1.57-3.04-3.09-6.1-4.56-9.16-1.47-3.06-2.9-6.14-4.27-9.22-4.82-10.8-9.06-21.72-12.75-32.79-.53-1.58-1.04-3.17-1.55-4.75-4.04-12.7-7.35-25.59-9.98-38.68-1.31-6.55-2.46-13.14-3.43-19.79-.24-1.66-.48-3.33-.7-5-.87-6.53-1.58-13.11-2.13-19.75-.02-.28-.05-.56-.07-.84-.4-4.88-.71-9.79-.95-14.72-.09-1.85-.16-3.71-.23-5.57-.53-15.48-.27-31.26.75-47.35.8-12.56,2.05-25.3,3.74-38.25,20.2-154.79,164.51-289.45,314.83-323.1,65.83-14.74,128.66-10.88,189.3,8.31,7.91,2.5,15.78,5.27,23.62,8.29,15.67,6.04,31.2,13.09,46.61,21.1,56.27,29.26,100.61,62.39,136.83,107.84,1.57,1.98,3.13,3.98,4.68,6,1.98,2.6,3.93,5.26,5.87,7.94,10.11,14.01,19.57,29.13,28.46,45.6,15.85,29.37,27.53,61.54,35.06,95.08,1.71,7.6,3.2,15.27,4.48,23,.65,3.94,1.25,7.89,1.79,11.86,1.25,9.13,2.2,18.32,2.86,27.56.05.7.1,1.4.15,2.1,3.37,50.83-2.18,102.73-16.68,151.29-7.69,25.76-17.92,50.57-30.65,73.79-1.06,1.93-2.14,3.85-3.23,5.76-3.83,6.69-7.88,13.24-12.15,19.63-10.4,15.59-22.05,30.26-35,43.75-.47.49-.93.96-1.38,1.4-13.92,13.79-17.23,5.54-36.22,3.42-.04.08-.17.18-.37.3-.1.06-.21.13-.34.21-.06.04-.13.07-.19.11-.16.09-.34.2-.52.31-.09.05-.18.1-.27.16-.17.1-.34.21-.53.33-1.27.81-2.75,1.97-3.58,3.6-1.73,3.42-3.1,6.65-4.16,9.75-3.96,11.57-3.47,21.29.07,31.61.04.12.09.25.13.37.21.61.44,1.22.67,1.83,2,5.27,4.75,10.75,8.07,16.74,31.53,56.95,93.89,87.59,157.19,80.87,1.11-.12,2.22-.25,3.33-.39,6.67-.85,13.33-2.11,19.97-3.8.26-.07.54-.15.81-.23,15.25-4.29,52.48-25.43,62.85-22.47.41.12.83.29,1.24.51.29.16.58.34.88.54.33.22.66.47.98.73.2.17.41.35.61.53.58.53,1.15,1.12,1.69,1.73.05.06.1.11.15.17,1.26,1.44,2.35,3,3.11,4.25.39.64.75,1.28,1.09,1.92,2.37,4.52,3.57,9.22,3.92,14.01.15,2.05.14,4.12,0,6.19h0ZM1035.97,1152.83c-4.35-7.85-7.61-16.07-9.34-24.32,6.8,11.6,14.24,22.3,22.55,32.07.49.35,1.01.73,1.53,1.13.04.03.08.06.12.09,1.6,1.22,3.32,2.61,5.1,4.09.01,0,.02.02.03.03,3.11,2.6,6.39,5.48,9.5,8.19.43.37.86.74,1.28,1.11.15.13.31.26.46.4.41.35.81.7,1.2,1.04.12.1.24.2.35.3.48.41.95.81,1.42,1.21.12.1.23.2.35.29.48.4.95.8,1.4,1.17.04.04.09.07.13.11.43.35.85.69,1.25,1.02.08.06.16.13.24.19.42.34.83.66,1.22.96.08.06.15.12.23.17.4.31.79.6,1.16.86,5,3.56,10.15,8.87,16.35,11.54l33.15,14.09c-.74.11-1.47.19-2.21.27-.22.02-.44.04-.66.06-.54.05-1.09.09-1.63.12-.22.01-.44.03-.65.04-.71.03-1.43.05-2.14.06h-.46c-.57,0-1.14-.01-1.7-.03-.27,0-.55-.02-.82-.04-.47-.02-.93-.05-1.4-.09-.27-.02-.55-.04-.82-.06-.66-.06-1.31-.13-1.97-.21-.31-.04-.62-.08-.93-.13-.39-.05-.78-.11-1.17-.17-.36-.06-.72-.12-1.08-.18-.33-.06-.67-.12-1-.19-.8-.15-1.59-.32-2.38-.51-.16-.04-.33-.07-.49-.11-.43-.1-.86-.22-1.29-.33-.24-.06-.48-.13-.72-.19-.44-.12-.88-.24-1.32-.37-.19-.05-.37-.11-.56-.17-1.02-.31-2.04-.64-3.05-.99-3.67-.75-12.46-4.5-17.08-7.19-15.81-9.2-31.15-24.04-41.57-40.95h0c-.89-1.45-1.75-2.91-2.56-4.39h-.02ZM601.94,1206.18c35.37-7.26,64.43-24.12,90.95-48.48-13.77,24.96-44.09,44.49-71.55,50.91-6.79,1.58-21.5,6.73-19.4-2.43ZM1407.14,925.36c-.2.19-.39.38-.59.58-1.56,1.52-3.14,3.02-4.73,4.51-.2.18-.39.37-.59.55-1.62,1.5-3.24,3-4.88,4.46-.12.11-.25.22-.37.33-3.39,3.03-6.82,5.98-10.27,8.86-.19.16-.37.31-.56.47-1.63,1.35-3.26,2.67-4.9,3.99-.26.21-.53.42-.79.64-1.61,1.28-3.23,2.55-4.85,3.8-.27.21-.54.41-.8.62-1.64,1.26-3.29,2.51-4.93,3.73-.2.15-.4.29-.6.44-1.73,1.28-3.46,2.55-5.19,3.79-1.39.99-2.8,1.98-4.23,2.97-.12.08-.24.16-.36.25-1.33.92-2.68,1.83-4.04,2.73-.16.1-.31.21-.47.31-1.37.9-2.75,1.8-4.15,2.7-.13.08-.26.17-.39.25-1.51.96-3.03,1.9-4.57,2.84-.01,0-.03.02-.04.03-1.54.94-3.11,1.87-4.68,2.78-.13.07-.26.15-.39.22-1.48.86-2.97,1.7-4.47,2.53-.16.09-.33.18-.49.27-1.51.83-3.03,1.65-4.57,2.45-.13.07-.26.14-.39.2-2.54,1.33-5.12,2.61-7.72,3.85-.25.12-.5.23-.74.35-.7.33-1.4.66-2.1.98-.25.11-.49.23-.74.34-.86.39-1.72.78-2.59,1.16-.05.02-.11.05-.16.07-1,.44-2,.87-3.01,1.29-.02,0-.03.01-.05.02-.96.4-1.93.8-2.89,1.19-.1.04-.21.08-.31.12-5.71,2.28-11.52,4.3-17.38,5.98h-.01c-1.66.48-3.33.92-5,1.34-.01,0-.03,0-.04.01-1.66.42-3.33.81-5,1.17h-.04c-1.68.36-3.36.69-5.04.99h0c-3.37.6-6.74,1.06-10.11,1.39h-.02c-1.86.18-3.72.31-5.58.41-.29.01-.57.02-.86.04-.67.03-1.34.05-2.02.07-.32,0-.65.01-.97.02-.67.01-1.34.01-2.01.01h-.86c-1.89-.02-3.78-.09-5.66-.22-.29-.02-.58-.04-.87-.06-.66-.05-1.32-.1-1.98-.17-.33-.03-.65-.06-.98-.1-.66-.07-1.31-.15-1.97-.23-.29-.04-.58-.07-.87-.11-1.75-.23-3.5-.51-5.24-.85-1.68-.32-3.35-.69-5.01-1.11-.27-.07-.55-.14-.82-.22-.58-.15-1.17-.31-1.75-.47-.33-.09-.66-.19-.99-.29-.53-.15-1.05-.31-1.58-.48-.35-.11-.7-.22-1.04-.34-.51-.17-1.01-.33-1.51-.51-.35-.12-.7-.25-1.06-.37-.5-.18-1-.37-1.5-.56-.35-.13-.69-.27-1.04-.4-.51-.2-1.02-.42-1.54-.63-.33-.14-.66-.27-.98-.41-.56-.24-1.12-.5-1.68-.75-.27-.12-.55-.25-.82-.37-.83-.39-1.66-.79-2.48-1.21-1.4-.71-2.68-1.48-3.87-2.29-.53-.36-1.04-.74-1.54-1.12-.16-.12-.31-.24-.46-.36-.35-.27-.69-.55-1.03-.84-.16-.13-.31-.26-.46-.39-.39-.34-.77-.68-1.14-1.02-.07-.06-.14-.13-.21-.19h0l-.03-.03c-.55-.52-1.09-1.05-1.62-1.59-.15-.16-.31-.32-.46-.47-.39-.4-.77-.81-1.15-1.22-.17-.18-.33-.36-.5-.53-.4-.44-.8-.87-1.19-1.31-.6-.66-1.19-1.32-1.79-1.97-.17-.19-.34-.37-.51-.55-2.5-2.72-5.15-5.38-8.53-7.72-.03-.11,0-.26.06-.44.01-.05.03-.09.05-.15h0c.03-.08.08-.18.13-.28.03-.07.06-.14.1-.22h0s.05-.08.07-.13c.07-.12.14-.25.23-.38h0s.05-.09.08-.14h0s.04-.05.05-.08c.26-.4.57-.84.94-1.34h0c.15-.2.31-.41.47-.62h0c.21-.26.42-.54.65-.83.03-.04.06-.07.09-.11h0s.05-.06.08-.09c0-.01.02-.02.03-.03.2-.25.41-.5.63-.76h.01c.46-.57.97-1.16,1.5-1.78.11-.12.21-.24.31-.36,0-.01.02-.02.03-.03.03-.03.06-.07.09-.1.01-.02.03-.03.04-.04.21-.24.43-.49.65-.74,1.45-1.66,3.1-3.47,4.87-5.41h0l.02-.02c5.84-6.34,13.08-13.86,19.49-20.53.88-.92,1.75-1.82,2.6-2.7.19-.19.37-.38.55-.58,1.41-1.47,2.77-2.88,4.02-4.2,0,0,.02-.02.02-.03h.01c.36-.39.72-.76,1.07-1.13.04-.04.09-.09.13-.13.36-.37.7-.74,1.04-1.1.02-.02.03-.04.05-.05.02-.03.05-.05.07-.08.16-.17.32-.34.48-.5.06-.07.13-.13.19-.2.04-.05.09-.09.13-.14.11-.12.22-.24.33-.35.14-.15.27-.29.4-.43h0c.12-.12.23-.25.34-.37.05-.05.1-.1.14-.16.08-.08.15-.17.23-.25.1-.11.21-.23.31-.34.15-.17.3-.33.45-.49.12-.13.24-.26.35-.39.14-.15.27-.3.4-.45.08-.09.15-.17.23-.26.1-.12.21-.23.31-.34.07-.08.14-.15.2-.23.05-.05.09-.1.13-.15.05-.06.1-.11.15-.17.07-.08.13-.15.2-.23.09-.1.17-.2.25-.29.05-.06.1-.12.15-.17.12-.15.24-.29.34-.42,14.39-17.89,24.76-42.09,43.72-54.52,10.96-7.19,21.01-7.86,32.82-14.47,5.16-2.89,10.06-6.05,14.71-9.45.72-.53,1.43-1.06,2.14-1.6,5.57-4.22,10.78-8.78,15.64-13.65,3.39-3.4,6.6-6.95,9.66-10.62,1.42-1.71,2.8-3.44,4.16-5.2.58-.76,1.16-1.52,1.73-2.29,1.07-1.45,2.13-2.91,3.16-4.39,1.53-2.2,3.01-4.43,4.45-6.69,11.68-18.41,20.34-38.99,26.69-60.26,5.57-18.63.16-38.41,26.7-38.37,28.26.04,45.81,26.49,52.12,50.52h0c.38,1.43.73,2.86,1.05,4.29.11.46.2.92.3,1.38.21.96.42,1.93.61,2.89.11.55.21,1.1.31,1.65.16.87.32,1.74.47,2.6.1.59.18,1.17.27,1.76.13.83.25,1.66.36,2.49.08.6.15,1.2.23,1.8.1.81.19,1.62.28,2.43.06.6.12,1.21.18,1.81.07.81.14,1.61.2,2.42.04.6.09,1.2.12,1.79.05.81.09,1.62.12,2.42.02.59.05,1.17.07,1.76.02.83.04,1.65.05,2.47,0,.56.02,1.12.02,1.69,0,.87-.02,1.73-.03,2.59,0,.51-.01,1.03-.03,1.54-.03,1-.08,1.99-.13,2.99-.02.37-.03.75-.05,1.12-.08,1.37-.18,2.73-.3,4.09-.02.25-.05.5-.08.75-.1,1.11-.22,2.21-.35,3.32-.06.48-.12.95-.18,1.42-.11.88-.23,1.75-.35,2.62-.08.54-.17,1.07-.25,1.61-.13.81-.26,1.61-.4,2.41-.1.56-.21,1.12-.31,1.68-.15.78-.29,1.55-.45,2.32l-.36,1.71c-.16.76-.33,1.52-.51,2.28-.13.57-.27,1.14-.41,1.71-.18.76-.38,1.51-.57,2.27-.15.56-.29,1.12-.44,1.69-.21.76-.42,1.52-.64,2.28-.16.55-.31,1.1-.48,1.64-.23.78-.48,1.56-.72,2.34-.16.52-.32,1.04-.49,1.55-.27.84-.56,1.67-.85,2.5-.16.45-.31.91-.47,1.36-.37,1.04-.75,2.08-1.14,3.12-.09.24-.17.47-.26.71-.49,1.27-.99,2.54-1.5,3.81-.14.35-.29.69-.44,1.04-.38.92-.76,1.83-1.16,2.74-.2.47-.41.93-.62,1.4-.35.79-.7,1.57-1.06,2.36-.23.51-.47,1.01-.71,1.52-.35.74-.7,1.47-1.05,2.2-.25.52-.52,1.05-.77,1.57-.35.71-.71,1.42-1.08,2.13-.27.53-.54,1.05-.82,1.58-.37.7-.74,1.4-1.11,2.09-.28.53-.57,1.05-.86,1.58-.38.7-.77,1.39-1.16,2.08-.29.52-.58,1.03-.88,1.54-.41.71-.82,1.41-1.23,2.11-.29.49-.58.99-.88,1.48-.44.73-.89,1.46-1.34,2.19-.28.45-.56.91-.84,1.36-.51.81-1.02,1.61-1.54,2.41-.24.37-.47.74-.71,1.11-3.41,5.22-7.04,10.32-10.87,15.31-.1.13-.2.27-.3.4-1.37,1.77-2.76,3.53-4.17,5.28-.14.18-.29.36-.43.53-1.41,1.73-2.84,3.45-4.29,5.15-.13.15-.26.3-.39.45-1.49,1.74-3,3.47-4.54,5.18-.03.04-.07.08-.1.11-3.15,3.5-6.37,6.93-9.67,10.28-.13.13-.26.27-.39.4-1.56,1.58-3.13,3.14-4.71,4.68v-.05Z"/>
  <g>
    <path class="cls-2" d="M753.77,687.18c-.61-11.29-3.73-22.88-9.9-34.33-6.83-12.67-17.93-24.43-31.05-33.43-17.53-12.03-38.67-19.13-58.1-16.84-30.33,3.58-54.6,21.37-68.25,44.88-.42.72-.82,1.44-1.22,2.17-1.74,3.19-3.28,6.48-4.62,9.85-.84,2.11-1.6,4.26-2.28,6.43-.15.49-.3.98-.45,1.47-7.42,25.24-3.65,53.76,15.53,77.79,23.63,29.62,53.52,38.7,81.08,34.45.19-.03.38-.06.57-.09,1.18-.19,2.35-.4,3.51-.64.64-.13,1.27-.27,1.91-.41,1.27-.29,2.53-.6,3.78-.95,2.51-.68,4.99-1.48,7.43-2.37,1.83-.67,3.64-1.4,5.43-2.19.6-.26,1.19-.53,1.78-.8,7.09-3.29,13.79-7.45,19.91-12.32,21.94-17.47,36.48-44.11,34.93-72.67h0ZM672.38,697.95c-4.49,2.48-8.72,4.06-12.65,4.88-.66.14-1.3.25-1.94.35-1.28.19-2.52.3-3.74.33-.61.02-1.2.01-1.79-.01-9.42-.36-16.64-5.44-21.13-12.51-.56-.88-1.08-1.8-1.56-2.74-.71-1.41-1.33-2.88-1.84-4.39-.34-1-.64-2.03-.89-3.06-.25-1.04-.46-2.08-.61-3.14-.16-1.05-.27-2.12-.33-3.18-.06-1.06-.08-2.13-.04-3.19.17-5.16,1.51-10.23,4.13-14.59.13-.21.25-.42.38-.62,4.17-6.53,11.3-11.36,21.83-12.31,29.58-2.67,51.22,37.02,20.17,54.19h.01Z"/>
    <path class="cls-2" d="M1002.86,756.43c78.44,74.72,197.16-36.33,131.32-118.07-7.3-9.07-15.09-16.23-23.15-21.71-.72-.49-1.43-.96-2.15-1.42-1.18-.75-2.36-1.47-3.54-2.15-3.81-2.19-7.67-4.03-11.55-5.53-1.24-.48-2.48-.92-3.72-1.33-1-.33-2.01-.64-3.01-.93-3.12-.89-6.25-1.59-9.37-2.08-2.18-.34-4.37-.59-6.55-.74-1.45-.1-2.9-.17-4.35-.19s-2.89,0-4.33.05c-3.6.14-7.17.52-10.7,1.13-2.82.49-5.62,1.12-8.37,1.89-34.46,9.6-63.12,40.45-68.69,75.84-.22,1.42-.41,2.84-.56,4.27-.3,2.86-.44,5.74-.42,8.64.02,3.62.29,7.27.84,10.93.24,1.63.54,3.25.89,4.88.24,1.12.5,2.23.8,3.35.33,1.26.69,2.51,1.08,3.76,1.27,4.05,2.89,8.09,4.9,12.09.79,1.58,1.64,3.15,2.55,4.72.65,1.12,1.33,2.23,2.04,3.34,2.69,4.21,5.83,8.36,9.44,12.42.88.99,1.77,1.97,2.7,2.94,1.25,1.31,2.55,2.61,3.91,3.9h0ZM1028.41,659.99c3.12-7.59,9.94-13.83,21.43-16.2,2.96-.61,5.83-.81,8.56-.67.93.05,1.85.14,2.74.27,2.21.31,4.32.86,6.32,1.61.8.3,1.58.63,2.34.99.91.43,1.78.91,2.63,1.42,1.19.72,2.32,1.52,3.39,2.38.41.33.81.67,1.21,1.03,12.73,11.48,15.01,33.03-3.5,45.79-27.98,19.28-50.32-8.24-46.82-30.5.11-.68.24-1.35.4-2.02.33-1.4.75-2.77,1.3-4.1h0Z"/>
  </g>
  <path class="cls-2" d="M862.93,758.94c-.81-.05-1.61-.14-2.39-.26-.17-.03-.33-.05-.49-.08-.61-.11-1.21-.23-1.79-.38-.25-.06-.49-.13-.73-.19-1.88-.53-3.65-1.25-5.34-2.14-.36-.19-.71-.38-1.06-.59-.7-.41-1.39-.84-2.06-1.29-9.4-6.38-16.1-17.42-23.8-24.23-6.6-5.84-13.92-8.58-24.3-2.61-8.91,5.12-12.29,12.24-12.23,20,.01,2.05.27,4.14.73,6.25.07.31.14.61.21.92,3.38,14,15.27,28.7,24.51,36.83,23.48,20.65,47.35,25.38,73.14,15.09,1.91-.76,3.83-1.61,5.76-2.53,2.9-1.39,5.82-2.97,8.77-4.72,5.03-3,10.7-7.33,16.05-12.49,10.98-10.6,20.57-24.71,20.29-37.96-.13-6.03-2.3-11.88-7.32-17.14-28.2-29.55-37.34,29.39-67.95,27.53h0Z"/>
  <g>
    <path class="cls-2" d="M672.9,494.63c58.2-9.44,47.22-104.96-20.7-91.08-52.16,10.66-38.28,100.64,20.7,91.08h0Z"/>
    <path class="cls-2" d="M763.89,318.58c-68.5,5.92-43.33,111.16,21.55,82.45,43.33-19.17,22.83-86.28-21.55-82.45h0Z"/>
    <path class="cls-2" d="M827.44,489.14c35.1-15.1,17.7-68.19-22.53-58.92-34.29,7.9-23.51,78.73,22.53,58.92h0Z"/>
    <path class="cls-2" d="M879.75,344.65c36.35,5.14,30.18-57.55-4.47-50.42-25.51,5.25-24.5,46.32,4.47,50.42h0Z"/>
  </g>
  <g>
    <path class="cls-3" d="M652.2,643.76c-10.53.95-17.66,5.78-21.83,12.31-.13.21-.26.41-.38.62-2.62,4.36-3.96,9.43-4.13,14.59-.04,1.06-.02,2.12.04,3.19.06,1.06.17,2.12.33,3.18.16,1.05.36,2.1.61,3.14.25,1.03.55,2.06.89,3.06.51,1.51,1.13,2.98,1.84,4.39.48.94.99,1.85,1.56,2.74,4.49,7.07,11.71,12.15,21.13,12.51.59.02,1.19.03,1.79.01,1.21-.03,2.46-.14,3.74-.33.64-.09,1.29-.21,1.94-.35,3.93-.82,8.16-2.39,12.65-4.88,31.05-17.17,9.4-56.86-20.17-54.19h-.01Z"/>
    <path class="cls-3" d="M1073.54,696.61c18.51-12.76,16.23-34.3,3.5-45.79-.39-.35-.8-.69-1.21-1.03-1.07-.87-2.2-1.66-3.39-2.38-.85-.51-1.72-.99-2.63-1.42-.76-.36-1.54-.69-2.34-.99-2-.75-4.11-1.29-6.32-1.61-.9-.13-1.81-.22-2.74-.27-2.73-.14-5.6.06-8.56.67-11.49,2.36-18.31,8.6-21.43,16.2-.55,1.33-.97,2.7-1.3,4.1-.16.67-.29,1.34-.4,2.02-3.5,22.27,18.84,49.78,46.82,30.5h0Z"/>
  </g>
  <g>
    <path class="cls-2" d="M1799.11,698.74c-3.13.69-7.58,1.57-13.32,2.61-5.75,1.04-11.94,1.57-18.55,1.57-13.24,0-22.56-2.44-27.95-7.31-5.4-4.87-8.1-13.06-8.1-24.56v-262.29c0-6.61,1.74-11.67,5.23-15.15,3.48-3.48,8.36-6.27,14.63-8.36,11.14-3.83,24.3-6.53,39.45-8.1,15.15-1.57,30.74-2.35,46.76-2.35,45.98,0,80.46,9.49,103.45,28.48,22.99,18.99,34.48,45.2,34.48,78.63,0,21.95-5.75,41.02-17.24,57.21-11.49,16.19-27.35,28.66-47.55,37.36,15.32,19.85,30.04,38.75,44.15,56.69,14.11,17.94,24.64,31.96,31.61,42.06-2.79,9.06-7.67,16.12-14.63,21.16-6.97,5.05-14.63,7.58-22.99,7.58-10.8,0-19.07-2.44-24.82-7.31s-11.41-11.5-16.98-19.85l-59.04-88.3h-48.59v110.25-.02ZM1840.91,535.2c19.85,0,35.79-4.35,47.81-13.06,12.02-8.7,18.03-21.95,18.03-39.71,0-35.18-23.51-52.77-70.54-52.77-6.97,0-13.67.35-20.12,1.04-6.45.7-12.46,1.4-18.03,2.09v102.41h42.85Z"/>
    <path class="cls-2" d="M2083.88,605.21c4.87,17.77,13.93,30.66,27.17,38.67,13.23,8.02,29.6,12.02,49.11,12.02,14.63,0,28.12-2.17,40.49-6.53,12.36-4.35,22.38-8.96,30.04-13.85,4.87,2.79,8.88,6.62,12.02,11.5,3.13,4.88,4.7,10.11,4.7,15.67,0,6.97-2.35,13.15-7.05,18.55-4.7,5.41-11.15,10.02-19.33,13.85-8.19,3.84-17.85,6.79-29,8.88-11.15,2.09-23.17,3.13-36.05,3.13-20.56,0-39.28-2.79-56.17-8.36-16.9-5.57-31.35-14.02-43.37-25.34-12.02-11.32-21.42-25.34-28.21-42.06-6.79-16.72-10.19-36.22-10.19-58.52s3.31-40.4,9.93-56.43c6.61-16.02,15.58-29.43,26.91-40.23,11.32-10.79,24.47-18.81,39.45-24.04,14.97-5.22,30.83-7.84,47.55-7.84s32.74,2.7,47.02,8.1c14.28,5.4,26.47,12.89,36.57,22.47s18.03,21.08,23.77,34.48c5.75,13.41,8.62,27.95,8.62,43.63,0,9.76-2.53,17.07-7.58,21.95-5.05,4.88-12.11,8.02-21.16,9.4l-145.25,20.9h0ZM2141.87,493.92c-17.07,0-31.35,5.67-42.84,16.98-11.49,11.32-17.94,27.43-19.33,48.33l115.99-17.24c-1.4-12.88-6.45-24.12-15.15-33.7-8.71-9.58-21.6-14.37-38.66-14.37h-.01Z"/>
    <path class="cls-2" d="M2498.73,446.37c9.05,0,16.63,2.09,22.73,6.27,6.09,4.18,9.14,11.15,9.14,20.9,0,4.53-1.31,11.85-3.92,21.94-2.61,10.11-6.1,21.77-10.45,35.01-4.36,13.24-9.32,27.52-14.89,42.84-5.58,15.33-11.32,30.39-17.24,45.2-5.93,14.81-11.85,28.83-17.76,42.06-5.93,13.24-11.32,24.39-16.2,33.44-3.49,2.79-8.71,5.05-15.67,6.79-6.97,1.74-14.63,2.61-22.99,2.61-10.11,0-18.73-1.31-25.86-3.92-7.14-2.61-12.28-6.87-15.41-12.8-3.14-5.92-6.97-14.11-11.49-24.56-4.53-10.45-9.4-22.29-14.63-35.53-5.22-13.23-10.63-27.25-16.2-42.06-5.58-14.8-10.89-29.52-15.94-44.15-5.05-14.63-9.76-28.74-14.11-42.32-4.36-13.58-7.93-25.77-10.71-36.57,3.48-4.18,8.44-7.75,14.89-10.71,6.44-2.96,13.14-4.44,20.12-4.44,9.05,0,16.46,2.09,22.21,6.27s10.19,11.67,13.32,22.47l26.12,86.21c2.09,6.97,4.44,14.37,7.05,22.21,2.61,7.84,5.14,15.5,7.58,22.99,2.43,7.49,4.78,14.63,7.05,21.42,2.26,6.79,4.09,12.46,5.49,16.98h2.09c10.1-30.65,20.03-62.26,29.78-94.83s18.29-64.7,25.6-96.4c4.18-2.43,8.96-4.26,14.37-5.49,5.4-1.22,10.71-1.83,15.94-1.83h-.01Z"/>
    <path class="cls-2" d="M2576.58,377.93c0-10.1,3.57-18.72,10.71-25.86,7.14-7.13,16.28-10.71,27.43-10.71s20.2,3.58,27.17,10.71c6.96,7.14,10.45,15.76,10.45,25.86s-3.49,19.25-10.45,26.39c-6.97,7.14-16.03,10.71-27.17,10.71s-20.3-3.57-27.43-10.71c-7.14-7.13-10.71-15.94-10.71-26.39ZM2581.81,453.69c2.78-.69,6.87-1.57,12.28-2.61,5.4-1.04,11.23-1.57,17.5-1.57,12.54,0,21.68,2.27,27.43,6.79,5.75,4.53,8.62,12.54,8.62,24.03v218.4c-2.79.69-6.88,1.57-12.28,2.61-5.4,1.04-11.23,1.57-17.5,1.57-12.54,0-21.68-2.27-27.43-6.79-5.75-4.52-8.62-12.54-8.62-24.04v-218.4h0Z"/>
    <path class="cls-2" d="M2769.9,605.21c4.87,17.77,13.93,30.66,27.17,38.67,13.23,8.02,29.6,12.02,49.11,12.02,14.63,0,28.12-2.17,40.49-6.53,12.36-4.35,22.38-8.96,30.04-13.85,4.87,2.79,8.88,6.62,12.02,11.5,3.13,4.88,4.7,10.11,4.7,15.67,0,6.97-2.35,13.15-7.05,18.55-4.7,5.41-11.15,10.02-19.33,13.85-8.19,3.84-17.85,6.79-29,8.88-11.15,2.09-23.17,3.13-36.05,3.13-20.56,0-39.28-2.79-56.17-8.36-16.9-5.57-31.35-14.02-43.37-25.34-12.02-11.32-21.42-25.34-28.21-42.06-6.79-16.72-10.19-36.22-10.19-58.52s3.31-40.4,9.93-56.43c6.61-16.02,15.58-29.43,26.91-40.23,11.32-10.79,24.47-18.81,39.45-24.04,14.97-5.22,30.83-7.84,47.55-7.84s32.74,2.7,47.02,8.1c14.28,5.4,26.47,12.89,36.57,22.47s18.03,21.08,23.77,34.48c5.75,13.41,8.62,27.95,8.62,43.63,0,9.76-2.53,17.07-7.58,21.95-5.05,4.88-12.11,8.02-21.16,9.4l-145.25,20.9h.01ZM2827.9,493.92c-17.07,0-31.35,5.67-42.84,16.98-11.49,11.32-17.94,27.43-19.33,48.33l115.99-17.24c-1.4-12.88-6.45-24.12-15.15-33.7-8.71-9.58-21.6-14.37-38.66-14.37h-.01Z"/>
    <path class="cls-2" d="M3160.72,538.86c-3.84,14.29-7.93,28.74-12.28,43.37-4.36,14.63-8.71,28.83-13.06,42.58-4.36,13.76-8.54,26.57-12.54,38.4-4.01,11.85-7.4,21.94-10.19,30.3-3.84,2.79-8.71,5.14-14.63,7.05-5.93,1.91-13.41,2.87-22.47,2.87-10.11,0-18.9-1.49-26.39-4.44-7.49-2.96-12.63-7.4-15.41-13.32-4.18-8.36-8.88-21.68-14.11-39.97-5.23-18.29-10.63-38.31-16.2-60.09-5.58-21.77-10.71-43.89-15.41-66.36-4.7-22.47-8.62-42.06-11.76-58.78,3.48-3.48,8.27-6.7,14.37-9.67,6.09-2.96,12.8-4.44,20.12-4.44,9.75,0,17.41,2.35,22.99,7.05,5.57,4.7,9.23,12.28,10.97,22.73,6.61,41.8,12.88,77.25,18.81,106.33,5.92,29.09,10.1,48.85,12.54,59.3h2.09c1.39-5.92,3.74-14.63,7.05-26.12,3.31-11.5,7.14-24.73,11.49-39.71,4.35-14.97,9.05-31,14.11-48.07,5.05-17.06,10.19-34.3,15.41-51.73,4.87-2.78,10.01-4.96,15.41-6.53s11.76-2.35,19.07-2.35c9.4,0,17.32,1.57,23.77,4.7,6.44,3.13,10.71,7.84,12.8,14.11,5.22,16.72,10.19,33.1,14.89,49.11,4.7,16.03,8.96,30.92,12.8,44.67,3.83,13.76,7.23,26.04,10.19,36.84,2.96,10.8,5.31,19.16,7.05,25.08h2.61c5.92-28.91,12.1-59.04,18.55-90.39,6.44-31.35,11.93-63.74,16.46-97.18,4.18-2.43,8.88-4.35,14.11-5.75,5.23-1.39,10.45-2.09,15.67-2.09,9.05,0,16.46,2.09,22.21,6.27s8.62,10.97,8.62,20.38c0,4.88-1.04,12.8-3.13,23.77-2.09,10.97-4.79,23.51-8.1,37.62-3.31,14.11-6.97,29.09-10.97,44.93-4.01,15.85-8.1,31.18-12.28,45.98-4.18,14.81-8.19,28.21-12.02,40.23-3.84,12.02-7.14,21.34-9.93,27.95-3.49,2.79-8.8,5.14-15.94,7.05s-14.89,2.87-23.25,2.87c-21.94,0-35.01-5.4-39.19-16.2-2.79-7.66-6.1-17.06-9.93-28.21-3.84-11.14-7.76-23.33-11.76-36.58-4.01-13.23-8.02-26.99-12.02-41.28-4.01-14.28-7.76-28.39-11.23-42.32l.04.04Z"/>
    <path class="cls-2" d="M1933.3,1136.68c-3.49,2.79-8.02,5.05-13.58,6.79-5.58,1.75-12.02,2.61-19.33,2.61-9.06,0-16.64-1.13-22.73-3.4-6.1-2.26-10.37-6.35-12.8-12.28-14.29-35.53-26.3-65.83-36.05-90.91-9.76-25.08-17.59-46.5-23.51-64.27h-2.61c-1.04,23.34-2.01,44.76-2.87,64.27-.87,19.51-1.66,38.58-2.35,57.21-.7,18.64-1.49,37.54-2.35,56.69-.87,19.16-2.01,39.89-3.4,62.18-3.49,1.04-7.84,2.09-13.06,3.13s-10.8,1.57-16.72,1.57c-23.34,0-35.01-8.7-35.01-26.12,0-5.57.26-14.19.78-25.86s1.22-25.25,2.09-40.75c.87-15.5,1.91-32.48,3.13-50.94,1.22-18.46,2.43-37.1,3.66-55.91,1.22-18.81,2.52-37.36,3.92-55.64,1.39-18.29,2.61-35.27,3.66-50.94,2.78-3.48,7.92-7.05,15.41-10.71,7.49-3.66,17.15-5.49,29-5.49,13.23,0,23.94,2.18,32.13,6.53,8.18,4.36,14.37,11.58,18.55,21.68,4.52,10.8,9.32,22.65,14.37,35.53,5.05,12.89,10.19,26.12,15.41,39.71,5.23,13.58,10.36,26.91,15.41,39.97,5.05,13.06,9.84,25.34,14.37,36.84h2.09c11.84-32.74,23.59-64.44,35.27-95.09,11.67-30.65,21.85-56.6,30.57-77.85,4.18-2.09,9.58-3.83,16.2-5.23,6.61-1.39,13.41-2.09,20.38-2.09,12.88,0,23.16,1.92,30.83,5.75,7.66,3.84,12.36,9.58,14.11,17.24,1.39,6.62,2.96,17.16,4.7,31.61,1.74,14.46,3.48,30.92,5.22,49.38,1.74,18.47,3.48,38.14,5.22,59.04,1.74,20.9,3.31,41.02,4.7,60.35,1.39,19.33,2.61,37.01,3.66,53.03,1.04,16.03,1.74,28.57,2.09,37.62-4.53,2.79-9.32,4.87-14.37,6.27-5.05,1.39-11.23,2.09-18.55,2.09-9.06,0-16.98-1.83-23.77-5.49s-10.54-10.53-11.23-20.64c-1.4-21.95-2.61-43.45-3.66-64.53-1.05-21.07-1.92-41.02-2.61-59.83-.7-18.81-1.4-36.13-2.09-51.99-.7-15.85-1.22-29.52-1.57-41.02h-2.61c-5.58,16.38-13.24,37.19-22.99,62.44-9.76,25.26-22.12,57.74-37.1,97.44h-.01Z"/>
    <path class="cls-2" d="M2174.69,1157.06c-8.36-17.41-18.29-40.92-29.78-70.54-11.49-29.6-22.99-65.48-34.48-107.63,3.48-4.18,8.36-7.75,14.63-10.71,6.27-2.96,13.06-4.44,20.38-4.44,9.05,0,16.46,2.09,22.21,6.27s10.36,11.67,13.85,22.47c16.37,52.6,35.01,105.89,55.91,159.88h2.09c4.52-11.49,9.32-24.56,14.37-39.19,5.05-14.63,9.93-29.95,14.63-45.98,4.7-16.02,9.14-32.21,13.32-48.59,4.18-16.37,7.84-32.21,10.97-47.55,4.18-2.09,8.62-3.83,13.32-5.23,4.7-1.39,9.67-2.09,14.89-2.09,9.05,0,16.89,2.09,23.51,6.27,6.61,4.18,9.93,10.97,9.93,20.38,0,10.45-2.27,25.17-6.79,44.15-4.53,18.99-10.54,39.37-18.03,61.13-7.49,21.77-15.94,43.72-25.34,65.83-9.41,22.12-18.81,41.54-28.21,58.26-18.12,32.04-34.57,55.99-49.38,71.84-14.81,15.85-29.35,23.77-43.63,23.77-11.15,0-20.12-3.22-26.91-9.67-6.79-6.45-11.06-14.55-12.8-24.3,5.57-4.88,11.49-10.54,17.76-16.98,6.27-6.45,12.54-13.32,18.81-20.64,6.27-7.32,12.19-14.81,17.76-22.47,5.57-7.66,10.45-15.15,14.63-22.47-3.14-1.04-6.19-2.35-9.14-3.92-2.96-1.57-5.93-3.92-8.88-7.05-2.96-3.13-6.1-7.13-9.4-12.02-3.31-4.87-6.71-11.14-10.19-18.81v.03Z"/>
    <path class="cls-2" d="M2523.97,1207.74c-6.45-6.61-9.67-15.5-9.67-26.65v-245.57c0-11.14,3.22-19.94,9.67-26.39,6.44-6.44,15.23-9.67,26.39-9.67h172.94c1.74,2.79,3.31,6.45,4.7,10.97,1.39,4.53,2.09,9.58,2.09,15.15,0,9.06-2.09,16.03-6.27,20.9-4.18,4.88-9.93,7.32-17.24,7.32h-126.44v74.19h127.49c1.74,2.79,3.4,6.36,4.96,10.71,1.57,4.36,2.35,9.32,2.35,14.89,0,18.81-8.02,28.21-24.03,28.21h-110.77v80.99h145.25c1.74,2.79,3.4,6.53,4.96,11.23,1.57,4.7,2.35,9.85,2.35,15.41,0,18.81-8.02,28.21-24.03,28.21h-158.31c-11.15,0-19.94-3.31-26.39-9.93v.03Z"/>
    <path class="cls-2" d="M3155.4,1216.1c-2.79.69-6.88,1.57-12.28,2.61-5.4,1.04-11.23,1.57-17.5,1.57-12.54,0-21.68-2.27-27.43-6.79s-8.62-12.54-8.62-24.04v-135.85c0-13.93-3.84-24.03-11.49-30.3-7.67-6.27-17.76-9.41-30.3-9.41-8.36,0-16.46,1.57-24.3,4.7-7.84,3.14-14.72,7.32-20.64,12.54,1.05,4.88,1.57,9.76,1.57,14.63v170.33c-2.79.69-6.88,1.57-12.28,2.61-5.4,1.04-11.23,1.57-17.5,1.57-12.54,0-21.68-2.27-27.43-6.79s-8.62-12.54-8.62-24.04v-135.85c0-13.93-4.01-24.03-12.02-30.3-8.02-6.27-18.29-9.41-30.83-9.41-8.71,0-16.72,1.4-24.03,4.18-7.31,2.79-13.41,5.58-18.29,8.36v189.66c-3.13.69-7.31,1.57-12.54,2.61-5.22,1.04-11.15,1.57-17.76,1.57-12.2,0-21.25-2.27-27.17-6.79-5.93-4.52-8.88-12.54-8.88-24.04v-167.72c0-8.01,1.74-14.71,5.22-20.12,3.48-5.4,8.88-10.53,16.2-15.41,10.45-6.96,23.68-12.8,39.71-17.5,16.02-4.7,32.57-7.05,49.64-7.05,31.69,0,57.47,8.54,77.33,25.6,10.1-7.32,21.68-13.41,34.75-18.29,13.06-4.87,28.48-7.31,46.24-7.31,13.58,0,26.47,1.66,38.66,4.96,12.19,3.31,22.73,8.62,31.61,15.94,8.88,7.32,15.94,16.64,21.16,27.95,5.23,11.32,7.84,24.82,7.84,40.49v165.11l-.02.02Z"/>
    <path class="cls-2" d="M3317.36,961.65c34.13,0,61.39,7.31,81.77,21.94,20.38,14.63,30.57,37.28,30.57,67.92v120.7c0,8.36-2.09,14.98-6.27,19.86s-9.4,9.23-15.67,13.06c-9.76,5.93-22.12,10.63-37.1,14.11s-32.05,5.22-51.2,5.22c-34.84,0-62.27-6.71-82.29-20.12-20.03-13.41-30.04-33.52-30.04-60.35,0-23.33,7.4-41.19,22.21-53.56,14.8-12.36,36.31-19.94,64.53-22.73l71.58-7.31v-9.41c0-13.23-4.79-22.99-14.37-29.26s-23.08-9.41-40.49-9.41c-13.58,0-26.83,1.66-39.71,4.96-12.89,3.31-24.39,7.4-34.48,12.28-3.84-2.78-7.05-6.53-9.67-11.23-2.62-4.7-3.92-9.84-3.92-15.41,0-6.96,1.65-12.62,4.96-16.98,3.31-4.35,8.62-8.27,15.94-11.76,10.1-4.18,21.59-7.32,34.48-9.41,12.88-2.09,25.94-3.13,39.19-3.13l-.02.02ZM3319.45,1174.3c10.1,0,19.33-.96,27.69-2.87,8.36-1.91,14.45-4.26,18.29-7.05v-58l-50.68,4.7c-13.94,1.4-24.56,4.44-31.87,9.14s-10.97,12.11-10.97,22.21,3.74,17.94,11.23,23.51c7.49,5.58,19.59,8.36,36.31,8.36h0Z"/>
    <path class="cls-2" d="M3491.87,895.29c0-10.1,3.57-18.72,10.71-25.86,7.14-7.13,16.28-10.71,27.43-10.71s20.2,3.58,27.17,10.71c6.96,7.14,10.45,15.76,10.45,25.86s-3.49,19.25-10.45,26.39c-6.97,7.14-16.03,10.71-27.17,10.71s-20.3-3.57-27.43-10.71c-7.14-7.13-10.71-15.94-10.71-26.39ZM3497.09,971.05c2.78-.69,6.87-1.57,12.28-2.61,5.4-1.04,11.23-1.57,17.5-1.57,12.54,0,21.68,2.27,27.43,6.79,5.75,4.53,8.62,12.54,8.62,24.03v218.4c-2.79.69-6.88,1.57-12.28,2.61-5.4,1.04-11.23,1.57-17.5,1.57-12.54,0-21.68-2.27-27.43-6.79s-8.62-12.54-8.62-24.04v-218.4h0Z"/>
    <path class="cls-2" d="M3689.1,1218.71c-5.4,1.04-11.23,1.57-17.5,1.57-12.54,0-21.68-2.27-27.43-6.79s-8.62-12.54-8.62-24.04v-312.45c2.78-1.04,6.87-2,12.28-2.87,5.4-.87,11.23-1.31,17.5-1.31,12.54,0,21.68,2.27,27.43,6.79,5.75,4.53,8.62,12.54,8.62,24.04v312.45c-2.79.69-6.88,1.57-12.28,2.61h0Z"/>
    <path class="cls-2" d="M3963.66,1146.61c0,24.39-9.06,43.46-27.17,57.21-18.12,13.76-44.59,20.64-79.42,20.64-14.29,0-27.26-1.04-38.93-3.13-11.67-2.09-21.77-5.13-30.3-9.14-8.54-4-15.15-8.88-19.85-14.63-4.7-5.75-7.05-12.1-7.05-19.07,0-6.61,1.48-12.36,4.44-17.24,2.96-4.87,6.87-8.88,11.76-12.02,9.75,6.27,20.98,11.85,33.7,16.72,12.71,4.88,27.43,7.31,44.15,7.31,14.28,0,25.08-2.35,32.39-7.05,7.31-4.7,10.97-11.23,10.97-19.59,0-14.28-10.45-23.68-31.35-28.21l-29.26-6.79c-25.78-5.92-44.85-14.8-57.21-26.65-12.37-11.84-18.55-27.69-18.55-47.55,0-22.64,9.05-41.01,27.17-55.12,18.11-14.11,43.54-21.16,76.28-21.16,12.54,0,24.12.96,34.75,2.87,10.62,1.92,19.85,4.7,27.69,8.36,7.84,3.66,13.93,8.02,18.29,13.06,4.35,5.05,6.53,10.89,6.53,17.5,0,6.27-1.4,11.76-4.18,16.46-2.79,4.7-6.1,8.45-9.93,11.23-3.14-2.09-7.23-4.18-12.28-6.27-5.05-2.09-10.63-4-16.72-5.75-6.1-1.74-12.54-3.22-19.33-4.44-6.79-1.22-13.5-1.83-20.12-1.83-13.58,0-24.21,2.18-31.87,6.53-7.67,4.36-11.5,10.54-11.5,18.55,0,5.93,2.17,10.8,6.53,14.63,4.35,3.84,11.93,6.97,22.73,9.41l25.6,6.27c28.91,6.62,49.81,16.29,62.7,29,12.88,12.72,19.33,29.35,19.33,49.9h.01Z"/>
  </g>
</svg>