<?xml version="1.0" encoding="UTF-8"?>
<svg id="Delphi" xmlns="http://www.w3.org/2000/svg" viewBox="0 0 860 1015">
  <defs>
    <style>
      .cls-1 {
        fill: #e17933;
      }

      .cls-2 {
        fill: #fff;
      }

      .cls-3 {
        fill: #f6c93c;
      }

      .cls-4 {
        fill: #d1e0f6;
      }

      .cls-5 {
        fill: #c9c9c9;
      }

      .cls-6 {
        fill: #ba6e3a;
      }

      .cls-7 {
        fill: #182d33;
      }

      .cls-8 {
        fill: #706967;
      }

      .cls-9 {
        fill: #d5a727;
      }

      .cls-10 {
        fill: #0b90df;
      }

      .cls-11 {
        fill: #f7c963;
      }

      .cls-12 {
        fill: #f39922;
      }
    </style>
  </defs>
  <g>
    <polygon class="cls-1" points="265 -14.89 236.56 -14.89 421.11 1029.89 449.54 1029.89 265 -14.89"/>
    <polygon class="cls-7" points="228.44 -14.89 412.99 1029.89 429.24 1029.89 244.69 -14.89 228.44 -14.89"/>
    <polygon class="cls-7" points="273.12 -14.89 256.87 -14.89 441.42 1029.89 457.67 1029.89 273.12 -14.89"/>
  </g>
  <g>
    <g>
      <path class="cls-1" d="m343.16,590.12h-190.96c-7.73,0-14-6.27-14-14s6.27-14,14-14h190.96c7.73,0,14,6.27,14,14s-6.27,14-14,14Z"/>
      <path class="cls-7" d="m343.16,598.12h-190.96c-12.13,0-22-9.87-22-22s9.87-22,22-22h190.96c12.13,0,22,9.87,22,22s-9.87,22-22,22Zm-190.96-28c-3.31,0-6,2.69-6,6s2.69,6,6,6h190.96c3.31,0,6-2.69,6-6s-2.69-6-6-6h-190.96Z"/>
    </g>
    <g>
      <path class="cls-1" d="m321.02,457.75h-190.96c-7.73,0-14-6.27-14-14s6.27-14,14-14h190.96c7.73,0,14,6.27,14,14s-6.27,14-14,14Z"/>
      <path class="cls-7" d="m321.02,465.75h-190.96c-12.13,0-22-9.87-22-22s9.87-22,22-22h190.96c12.13,0,22,9.87,22,22s-9.87,22-22,22Zm-190.96-28c-3.31,0-6,2.69-6,6s2.69,6,6,6h190.96c3.31,0,6-2.69,6-6s-2.69-6-6-6h-190.96Z"/>
    </g>
    <g>
      <path class="cls-1" d="m409.57,987.24h-190.96c-7.73,0-14-6.27-14-14s6.27-14,14-14h190.96c7.73,0,14,6.27,14,14s-6.27,14-14,14Z"/>
      <path class="cls-7" d="m409.57,995.24h-190.96c-12.13,0-22-9.87-22-22s9.87-22,22-22h190.96c12.13,0,22,9.87,22,22s-9.87,22-22,22Zm-190.96-28c-3.31,0-6,2.69-6,6s2.69,6,6,6h190.96c3.31,0,6-2.69,6-6s-2.69-6-6-6h-190.96Z"/>
    </g>
    <g>
      <path class="cls-1" d="m387.43,854.87h-190.96c-7.73,0-14-6.27-14-14s6.27-14,14-14h190.96c7.73,0,14,6.27,14,14s-6.27,14-14,14Z"/>
      <path class="cls-7" d="m387.43,862.87h-190.96c-12.13,0-22-9.87-22-22s9.87-22,22-22h190.96c12.13,0,22,9.87,22,22s-9.87,22-22,22Zm-190.96-28c-3.31,0-6,2.69-6,6s2.69,6,6,6h190.96c3.31,0,6-2.69,6-6s-2.69-6-6-6h-190.96Z"/>
    </g>
    <g>
      <path class="cls-1" d="m365.29,722.49h-190.96c-7.73,0-14-6.27-14-14s6.27-14,14-14h190.96c7.73,0,14,6.27,14,14s-6.27,14-14,14Z"/>
      <path class="cls-7" d="m365.29,730.49h-190.96c-12.13,0-22-9.87-22-22s9.87-22,22-22h190.96c12.13,0,22,9.87,22,22s-9.87,22-22,22Zm-190.96-28c-3.31,0-6,2.69-6,6s2.69,6,6,6h190.96c3.31,0,6-2.69,6-6s-2.69-6-6-6h-190.96Z"/>
    </g>
    <g>
      <path class="cls-1" d="m298.88,325.38H107.93c-7.73,0-14-6.27-14-14s6.27-14,14-14h190.96c7.73,0,14,6.27,14,14s-6.27,14-14,14Z"/>
      <path class="cls-7" d="m298.88,333.38H107.93c-12.13,0-22-9.87-22-22s9.87-22,22-22h190.96c12.13,0,22,9.87,22,22s-9.87,22-22,22Zm-190.96-28c-3.31,0-6,2.69-6,6s2.69,6,6,6h190.96c3.31,0,6-2.69,6-6s-2.69-6-6-6H107.93Z"/>
    </g>
    <g>
      <path class="cls-1" d="m276.75,193H85.79c-7.73,0-14-6.27-14-14s6.27-14,14-14h190.96c7.73,0,14,6.27,14,14s-6.27,14-14,14Z"/>
      <path class="cls-7" d="m276.75,201H85.79c-12.13,0-22-9.87-22-22s9.87-22,22-22h190.96c12.13,0,22,9.87,22,22s-9.87,22-22,22Zm-190.96-28c-3.31,0-6,2.69-6,6s2.69,6,6,6h190.96c3.31,0,6-2.69,6-6s-2.69-6-6-6H85.79Z"/>
    </g>
    <g>
      <path class="cls-1" d="m254.61,60.63H63.65c-7.73,0-14-6.27-14-14s6.27-14,14-14h190.96c7.73,0,14,6.27,14,14s-6.27,14-14,14Z"/>
      <path class="cls-7" d="m254.61,68.63H63.65c-12.13,0-22-9.87-22-22s9.87-22,22-22h190.96c12.13,0,22,9.87,22,22s-9.87,22-22,22ZM63.65,40.63c-3.31,0-6,2.69-6,6s2.69,6,6,6h190.96c3.31,0,6-2.69,6-6s-2.69-6-6-6H63.65Z"/>
    </g>
  </g>
  <path class="cls-10" d="m399.39,548.28s-59.06,23.55-72.26-30.52c-7.49-30.67-10.83-98.35-32.22-119.74-21.99-21.99-66.39-13.83-74.22,24.26l18.26,12c-14.61,168,113.48,182.87,113.48,182.87"/>
  <path class="cls-4" d="m251.48,433.76s3.65,68.87,37.04,104.87,54.78,45.39,54.78,45.39l-9.91,27.65s-80.35-33.91-91.83-106.43"/>
  <path class="cls-7" d="m352.45,631.15c-.54,0-1.08-.03-1.63-.09-1.47-.17-36.48-4.5-69.47-31.51-19.39-15.87-34.14-36.28-43.83-60.64-11.82-29.71-16.03-65.32-12.51-105.84.67-7.7,7.45-13.41,15.16-12.73,7.7.67,13.4,7.46,12.73,15.16-5.63,64.79,9.9,112.69,46.18,142.39,26.71,21.87,54.68,25.33,54.96,25.36,7.68.89,13.18,7.84,12.29,15.52-.83,7.13-6.88,12.39-13.89,12.39Z"/>
  <path class="cls-7" d="m371.7,567.44c-9.34,0-19.56-1.63-29.14-6.58-10.08-5.2-23.31-16.32-29.03-39.78-2.25-9.21-4.1-21.24-6.06-33.97-4.35-28.29-10.32-67.05-22.46-79.19-7.22-7.22-18.83-9.8-29.58-6.58-6.42,1.93-17.7,7.58-21.02,23.76-1.56,7.57-8.96,12.45-16.53,10.9-7.57-1.56-12.45-8.96-10.9-16.53,4.5-21.9,19.61-38.7,40.41-44.94,20.48-6.15,43.02-.81,57.42,13.6,18.62,18.62,24.84,59.05,30.33,94.73,1.86,12.12,3.63,23.56,5.59,31.59,2.63,10.76,7.42,17.8,14.66,21.53,13.2,6.8,32.94,1.65,38.81-.7,7.18-2.87,15.33.64,18.19,7.82,2.86,7.18-.64,15.33-7.82,18.19-2.27.9-16.15,6.15-32.87,6.15Z"/>
  <path class="cls-10" d="m439.37,398.81s-28.07-17.2-20.76-87.88c7.3-70.68-11.91-114.73-48.71-132.41-31.11-14.95-58.01,1.37-51.8,29.15,4.3,19.21,28.18,22.32,22.88,64.51-5.29,42.19-46.45,126.48,19.18,181.66"/>
  <path class="cls-4" d="m328.96,195.33c-1.83,10.7,29.51,25.01,37.57,48.52,12.13,35.41-6.52,58.17-9.13,102.26-1.58,26.69,2.61,28.7,2.61,28.7l-31.83,32.35s-2.09-60,5.22-98.61c7.3-38.61,1.57-63.13-4.7-82.96"/>
  <path class="cls-7" d="m360.16,467.85c-3.18,0-6.38-1.08-9-3.28-58.96-49.58-41.68-119.27-30.24-165.39,2.79-11.26,5.2-20.98,6.18-28.74,2.7-21.51-3.3-28.84-10.25-37.33-4.77-5.83-10.18-12.44-12.41-22.38-3.76-16.8,1.32-32.65,13.59-42.4,14.64-11.63,36.84-12.57,57.93-2.43,22.1,10.62,38.21,28.76,47.9,53.92,9.54,24.79,12.46,55.92,8.68,92.55-6.1,59.02,14.38,74.64,14.59,74.79-.28-.2-.44-.28-.44-.28l-14.63,23.88c-3.64-2.23-35.35-24.03-27.38-101.25,3.33-32.2.99-58.98-6.96-79.61-7.04-18.28-18.44-31.32-33.89-38.74-13.57-6.52-23.77-4.55-28.39-.88-4.84,3.84-4.67,9.93-3.68,14.36.74,3.3,2.93,6.1,6.75,10.76,8.68,10.6,20.56,25.12,16.36,58.55-1.18,9.4-3.9,20.37-6.78,31.99-10.92,44.05-24.52,98.87,21.09,137.21,5.92,4.98,6.68,13.81,1.71,19.73-2.77,3.29-6.73,4.99-10.72,4.99Z"/>
  <g>
    <path class="cls-10" d="m597.52,659.71s43.24,34.53,98.14,19.16c5.85-1.64,16.19-5.91,26.15-18.21,13.38-16.52,29.26-23.87,48.68-4.8,28.67,28.16,6.42,81.98-50.31,108.12-65.2,30.04-154.62.42-212.33-82.57"/>
    <path class="cls-4" d="m771.92,701.8s-43.89,46.81-104.1,38.02c-60.21-8.79-126.83-87.95-126.83-87.95,0,0-23.23,35.36-20.14,51.71,3.09,16.35,134.12,114.65,214.53,46.94"/>
    <path class="cls-7" d="m605.32,649.94c27.53,15.34,55.3,24.07,86.58,15.32,5.27-1.55,9.78-4.33,14.07-8.31,4.37-4.09,7.53-8.97,12.12-13.18,6.06-5.77,13.39-10.71,22.22-12.62,13.38-3.19,27.42,2.86,37.09,11.69,6.03,5.23,11.05,11.58,14.51,18.81,5.99,12.53,6.68,27.29,3.5,40.38-9.88,38.98-44.92,66.81-81.25,79.8-73.3,25.31-152.78-13.49-200.28-69.83-4.12-4.85-8.01-9.89-11.49-15.21-1.68-2.7-3.3-5.43-4.78-8.25-3.23-6.16-.86-13.77,5.3-17,5.02-2.63,11-1.54,14.79,2.28,2.2,2.21,4.26,4.52,6.24,6.87,1.42,1.63,4.25,4.83,5.6,6.51,10.89,13.08,22.8,25.5,36.23,35.92,28.26,22.23,63.13,37.67,99.36,37.97,18.8.26,37.65-4.01,54.31-12.76,18.43-9.58,35.73-24.28,44.5-42.87,3.96-8.36,6.14-18.63,3.67-27.5-1-3.29-2.44-6.39-4.63-9.1-2.42-3.16-6.11-6.37-9.35-8.27-2.31-1.33-4.74-2.24-7.33-1.67-5.41,1.37-9.79,6.27-13.53,10.71-9.49,11.74-22.39,20.74-37.57,23.9-23.09,5.67-48.03,3.83-70.26-3.98-12.83-4.51-25.09-10.93-35.22-20.09-2.77-2.4-2.5-6.97.52-9.04,0,0,15.08-10.5,15.08-10.5h0Z"/>
  </g>
  <circle class="cls-10" cx="534.94" cy="507.88" r="216.39"/>
  <g>
    <circle class="cls-7" cx="394.13" cy="419.17" r="44.61"/>
    <circle class="cls-2" cx="381.75" cy="404.42" r="15.46"/>
  </g>
  <g>
    <circle class="cls-7" cx="569.72" cy="522.5" r="44.61"/>
    <circle class="cls-2" cx="557.34" cy="507.75" r="15.46"/>
  </g>
  <path class="cls-4" d="m691.83,601.76c-29.14,49.51-94.96,86.09-145.04,97.57l17.22,33.39c50.8-14.99,132.5-63.46,161.48-112.71,53.5-90.92,33.01-204.92-43.37-272.1,50.02,69.74,57.62,172.46,9.72,253.85Z"/>
  <path class="cls-7" d="m534.54,739.37c-40.75,0-80.92-10.85-116.96-32.06-53.27-31.35-91.14-81.56-106.64-141.39-15.5-59.83-6.77-122.12,24.57-175.39,31.35-53.27,81.56-91.14,141.39-106.64,59.83-15.5,122.12-6.77,175.39,24.57,53.27,31.35,91.14,81.56,106.64,141.39,15.5,59.83,6.77,122.12-24.57,175.39h0c-31.35,53.27-81.56,91.14-141.39,106.64-19.35,5.01-38.95,7.49-58.43,7.49Zm.74-432.96c-16.95,0-34.01,2.16-50.85,6.52-52.07,13.49-95.78,46.45-123.06,92.82-27.28,46.36-34.88,100.57-21.39,152.65,13.49,52.07,46.45,95.78,92.81,123.06,46.36,27.28,100.57,34.88,152.65,21.39,52.07-13.49,95.78-46.45,123.06-92.81l12.93,7.61-12.93-7.61c27.28-46.36,34.88-100.57,21.39-152.65-13.49-52.07-46.45-95.78-92.81-123.06-31.37-18.46-66.34-27.91-101.8-27.91Z"/>
  <g>
    <path class="cls-7" d="m445.32,303.83c-1.99,1.42-3.96,2.88-5.88,4.4-10.08,7.98-19.89,16.48-30.68,23.51,1.94,4.29,5.17,8.05,9.53,10.62,11.24,6.61,25.71,2.86,32.32-8.37,5.96-10.14,3.5-22.9-5.29-30.16Z"/>
    <circle class="cls-7" cx="495.84" cy="310.36" r="21.78"/>
    <circle class="cls-7" cx="492.31" cy="365.87" r="15.91"/>
    <circle class="cls-7" cx="556.45" cy="321.05" r="13.17"/>
  </g>
  <path class="cls-7" d="m456.24,482.6c-.73,10.18,7.72,18.88,17.71,18.68,3.28-.04,6.71-1.15,9.86-3.18,5.43-3.3,12.51-1.56,15.81,3.87,2.95,4.86,1.87,11.03-2.27,14.64-5.96,5.19-13.86,8.59-21.86,9.18-16.3,1.44-32.71-8.22-39.37-23.17-3.36-7.28-4.23-15.84-2.59-23.57,3.51-14.1,23.67-10.84,22.72,3.55h0Z"/>
  <g>
    <path class="cls-10" d="m547.65,677.19s-2.28,47.92,33.5,72.54c23.23,15.98,55.36-1.44,66.95,21.93,10.53,21.25-21.61,79.39-95.52,58.47-79.25-22.44-108.66-122-96.68-143.13"/>
    <path class="cls-4" d="m625.22,810.08s-44.99,5.79-92.64-31.82c-47.64-37.61-45.15-99.91-58.45-100.48-13.3-.57-31.98,87.74,48.35,136.14,80.33,48.4,109.89,1.08,109.89,1.08"/>
    <path class="cls-7" d="m560.14,677.79c.02-.08.03,0,.04.04.01.04.03.09.04.14.08.37.15.69.21,1.07,0,0,.27,1.55.27,1.55l.54,3.19c1.09,6.23,2.16,13.1,3.91,19.09,4.18,14.51,12.06,27.3,24.52,35.58,7.92,4.95,17.21,4.75,27.07,5.2,8.23.27,19.06.81,27.67,5.13,7.02,3.29,13.1,9.54,16.49,16.59,10.32,22.45-4.2,49.29-21.12,63.68-25.26,21.86-60.48,23.92-91.21,14.84-56.21-16.17-95.49-69.05-107.25-124.79-1.6-8.58-2.41-17.77-.67-26.85.85-3.96,1.97-7.65,4.38-11.39,3.4-6.01,11.03-8.12,17.04-4.71,6.01,3.4,8.12,11.03,4.71,17.04.16.05.16.39.13.87-.11,2.32-.12,4.59.1,7.27,5.15,50.23,42.16,103.69,92.61,115.89,24.58,6.53,53.55,3.29,69.28-18.42,3.96-5.59,8.19-14.07,6.44-20.71-1.39-3.08-3.68-4.19-7.18-4.93-8.5-1.62-18.95-.86-28.71-2.26-8.51-1-18.68-4.11-26.24-9.47-17.41-11.75-29.59-31.05-35.02-50.81-3.01-10.62-4.72-21.64-3.22-32.63,0,0,.2-1.35.2-1.35.33-6.9,6.19-12.22,13.08-11.89,6.9.33,12.22,6.19,11.89,13.08h0Z"/>
  </g>
  <g>
    <path class="cls-10" d="m482.32,829.56c-1.24-30.22-47.3-19.79-48.23-70.69-.25-13.44,2.4-25.58,6.28-36.04.84-1.09,1.67-2.21,2.47-3.35,5.16-7.39,9.01-15.24,11.58-23.21,1.34-1.9,14.08-20.02,15.3-21.56l-95.89-66.98c-1.03,1.67-13.65,19.87-14.98,21.78-6.59,5.15-12.64,11.46-17.8,18.86-.8,1.15-1.56,2.3-2.3,3.47-8.49,7.24-18.98,13.91-31.68,18.3-48.11,16.63-54.16-30.2-82.97-20.97-26,8.33-41.73,60.94,17.9,97.71,45.34,27.96,80.57,13.22,102.76-5.63,1.46,1.28,2.98,2.5,4.6,3.63s3.29,2.15,4.99,3.07c-10.06,27.33-11.78,65.48,30.07,98.43,55.05,43.34,99.02,10.47,97.9-16.81Z"/>
    <path class="cls-4" d="m204.6,694.5s34.71,26.16,77.8,31.44c43.09,5.28,70.29-7.7,70.29-7.7,0,0-24.11,35.19-64.4,40.93-40.29,5.74-80.5-41.92-80.5-41.92"/>
    <path class="cls-7" d="m372.46,631.57c-1.14,5.05-4.2,9.05-7.31,12.99-3.09,3.9-6.41,7.63-9.92,11.2-10.72,10.79-23.47,19.63-37.55,25.53-22.05,9.31-44.28,9.85-64.4-4.76-5.37-3.76-9.02-7.02-13.49-10.3-1.82-1.28-3.53-2.48-5.52-3.26-3.65-1.56-7.45.21-10.32,2.55-6.51,5.75-9.2,14.97-8.46,24,2.21,22.51,21.47,38.49,40.25,48.77,16.51,9.01,35.6,12.93,53.58,7.18,10.83-3.46,20.39-9.46,28.97-17.27,6.02-5.17,10.56-11.9,16.82-16.85,10.32-8.62,25.07,1.82,20.49,14.32-1.83,4.71-4.69,8.81-7.98,12.58-10.01,11.43-21.56,21.1-35.32,28.2-18.62,9.69-41.13,12.66-61.48,7.8-27.19-6.32-55.83-24.49-71.5-47.61-13.68-19.86-17.82-46.77-5.68-68.73,6.04-11.19,16.86-20.71,29.69-23.45,12.16-2.82,23.7,1.2,33.36,8.5,9.79,7.07,17.69,16.09,30.03,16.44,14.08.1,28.64-7.43,39.8-15.87,6.14-4.79,11.69-10.36,16.59-16.46,2.45-3.1,4.78-6.59,8.16-8.81,9.96-7.53,23.8,1.12,21.17,13.3h0Z"/>
    <path class="cls-4" d="m446.47,863.46s-36.5-23.59-56.29-62.23c-19.78-38.64-16.96-68.65-16.96-68.65,0,0-24.75,34.74-16.28,74.55,8.47,39.81,67.06,61.16,67.06,61.16"/>
    <path class="cls-7" d="m473.7,689.26c.09,0,.01.15,0,.24-.02.1-.07.22-.1.33-1.32,3.58-3.81,6.48-5.98,9.58-2.33,3.36-4.53,6.85-6.49,10.45-7.78,14.13-12.64,29.94-12.78,45.98-.14,7.91.98,14.99,3.67,20.32,5.41,10.65,15.91,14.3,26,21.37,5.19,3.51,10.72,8.59,13.95,14.4,10.71,18.75,2.29,42.21-13.24,55.02-13.41,11.71-32.52,16.39-49.53,14.46-31.16-3.49-60.2-24.65-78.22-49.38-23.14-32.25-20.59-72.61-1.93-106.18,2.45-4.49,5.38-8.73,9.3-12.23,9.86-8.62,24.57,1.1,20.78,13.41-2.54,8.18-7.68,15.21-10.62,23.19-8.98,21.85-8.45,46.07,5.72,65.46,16.06,21.9,50.03,45.83,77.69,34.25,8.08-3.52,15.07-10.28,15.95-18.54.46-4.89-2.29-7.45-6.27-10.18-2.97-2.07-6.94-4.33-11.22-7.06-22.09-13.45-31.21-33.12-30.55-58.71.41-26.03,9.96-51.14,24.79-72.19,3.03-4.38,6.44-8.66,11.15-11.4,4.81-4.95,12.73-5.06,17.68-.25,4.95,4.81,5.06,12.73.25,17.68h0Z"/>
  </g>
  <g>
    <polygon class="cls-1" points="19.95 -14.89 204.5 1029.89 232.94 1029.89 48.39 -14.89 19.95 -14.89"/>
    <polygon class="cls-7" points="11.83 -14.89 196.38 1029.89 212.63 1029.89 28.08 -14.89 11.83 -14.89"/>
    <polygon class="cls-7" points="40.26 -14.89 224.81 1029.89 241.06 1029.89 56.51 -14.89 40.26 -14.89"/>
  </g>
  <circle class="cls-7" cx="485.48" cy="200.02" r="12.91"/>
  <path class="cls-7" d="m479.26,145.74c-6.19-2.12-12.45-3.43-18.76-4.25-3.45-.45-6.12-3.2-6.55-6.66-.01-.12-.03-.24-.04-.36-.87-6.09-1.99-12.17-4.17-18.26-.73-2.01-2.33-3.72-4.5-4.5-3.87-1.38-8.12.63-9.5,4.5-2.08,6.09-3.39,12.25-4.21,18.45-.45,3.4-3.12,6.09-6.53,6.52-3.24.41-6.46.97-9.66,1.71-3.04.72-6.09,1.56-9.13,2.83-1.76.74-3.27,2.16-4.07,4.07-1.62,3.87.2,8.31,4.07,9.93,5.95,2.41,12.03,3.62,18.26,4.48.04,0,.08.01.13.02,3.44.44,6.18,3.1,6.63,6.54.41,3.14.96,6.26,1.67,9.36.72,3.04,1.56,6.09,2.83,9.13.74,1.76,2.16,3.27,4.07,4.07,3.87,1.62,8.31-.2,9.93-4.07,2.41-5.95,3.62-12.03,4.48-18.26.02-.14.04-.29.06-.43.44-3.49,3.18-6.21,6.67-6.65.02,0,.04,0,.06,0,6.09-.87,12.17-1.99,18.26-4.17,2.01-.73,3.72-2.33,4.5-4.5,1.38-3.87-.63-8.12-4.5-9.5Z"/>
  <g>
    <g>
      <path class="cls-12" d="m468,297.07c103.83,50.09,252.69,121.37,273.39,137.74,0,0,49.4-127.26-39.91-183.91-104.87-66.52-195.91-16.43-237.13,42.26"/>
      <path class="cls-7" d="m741.39,448.8c-3.12,0-6.18-1.04-8.68-3.02-18.05-14.27-156.71-81.12-248.47-125.35l-22.32-10.76c-2.48-1.19-4.44-3.02-5.79-5.19-6.18-4.48-7.63-13.11-3.23-19.38,24.87-35.41,62.18-62.21,102.36-73.52,50.03-14.08,103.19-4.58,153.73,27.48,40.93,25.96,61.66,69.34,59.94,125.45-1.25,40.83-13.94,73.96-14.48,75.35-1.61,4.14-5.09,7.28-9.37,8.44-1.21.33-2.45.49-3.68.49Zm-256.58-159.18l11.58,5.59c109.69,52.88,199.02,96.26,237.04,118.05,3.27-12.34,6.99-30.45,7.52-50.31,1.22-45.96-14.58-79.69-46.98-100.23-95.69-60.7-172.46-15.97-209.17,26.91Z"/>
    </g>
    <g>
      <path class="cls-12" d="m462,298.63s-35.24,34.48,36,72c102.52,54,175.3,27.39,175.3,27.39-9.82-3.63-111.53-68.71-211.3-99.39Z"/>
      <path class="cls-7" d="m624.7,418.63c-32.98,0-79.25-7.18-133.22-35.61-31.28-16.48-48.68-35.41-51.72-56.27-3.22-22.06,10.84-36.55,12.46-38.13,3.67-3.59,9-4.88,13.9-3.38,79.78,24.53,161.2,70.89,195.96,90.69,7.07,4.03,14.39,8.19,16.25,9.01,5.41,2.08,8.99,7.28,8.98,13.09-.01,5.87-3.68,11.11-9.19,13.12-1.59.58-21.14,7.46-53.41,7.46Zm-156.6-103.36c-.7,2.19-1.07,4.82-.6,7.74,1.82,11.11,14.97,23.62,37.02,35.23,49.76,26.21,91.7,32.04,118.12,32.32,2.88.03,5.64,0,8.28-.09-37.4-20.96-100.29-54.54-162.82-75.21Zm210.06,69.62s.06.02.08.03c-.03-.01-.06-.02-.08-.03Z"/>
    </g>
    <path class="cls-7" d="m622.69,365.32c-1.26,0-2.55-.3-3.74-.94-3.9-2.07-5.39-6.91-3.32-10.81.46-.86,11.44-21.39,31.19-41.92,26.72-27.77,56.76-42.05,86.94-41.35,4.42.11,7.91,3.77,7.81,8.19s-3.75,7.87-8.19,7.81c-62.31-1.51-103.21,74.01-103.61,74.77-1.44,2.7-4.21,4.25-7.07,4.25Z"/>
    <path class="cls-7" d="m513.91,311.85c-1.34,0-2.69-.33-3.93-1.04-3.84-2.18-5.2-7.05-3.02-10.89.49-.86,12.17-21.32,33.16-41.78,28.29-27.56,60.05-41.72,91.89-41.04,4.42.1,7.92,3.76,7.82,8.18-.1,4.42-3.74,7.93-8.18,7.82-66.72-1.49-110.34,73.94-110.77,74.7-1.47,2.6-4.18,4.05-6.97,4.05Z"/>
    <g>
      <path class="cls-8" d="m761.93,414.85c-1.99.03-7.14-3.22-8.94-4.37-145.79-92.94-277.72-135.7-278.99-136.1-5.53-1.75-3.54-6.9-.07-11.54,4.11-5.48,10.45-9.78,15.98-8.02,1.3.41,126.12,43.45,274.37,137.96,4.89,3.12,5.3,9.09,3.21,14.5-1.64,4.26-2.15,7.52-5.55,7.58Z"/>
      <path class="cls-7" d="m761.9,422.85c-3.19,0-6.81-1.54-13.21-5.63-145.11-92.51-275.81-134.81-277.12-135.23-5.71-1.81-7.75-5.76-8.45-7.96-1.51-4.71-.03-10.09,4.41-16.01,6.99-9.32,16.49-13.48,24.8-10.85,1.16.37,125.64,42.83,276.25,138.84,7.64,4.87,10.14,14.34,6.37,24.12-.24.62-.45,1.22-.65,1.78-1.24,3.5-3.83,10.77-12.22,10.92h0c-.06,0-.12,0-.17,0Zm-281.81-154.89c22.42,7.58,143.34,50.43,277.2,135.77.94.6,1.74,1.09,2.42,1.49.1-.27.21-.55.31-.83.06-.16,1.48-3.9-.04-4.87-148.11-94.42-271.35-136.71-272.55-137.11-.83-.27-4.16,1.32-7.09,5.22-.09.12-.17.23-.25.33Z"/>
    </g>
    <g>
      <ellipse class="cls-3" cx="576.72" cy="298.66" rx="48.43" ry="44.71" transform="translate(29.71 648.78) rotate(-60)"/>
      <path class="cls-7" d="m573.44,358.17c-9.26,0-18.51-2.31-26.94-7.18-27.08-15.63-35.55-51.83-18.89-80.69,7.98-13.82,20.51-23.97,35.29-28.57,15.12-4.71,30.76-3.08,44.04,4.59,27.08,15.63,35.55,51.83,18.89,80.69h0c-11.47,19.87-31.92,31.16-52.38,31.16Zm6.47-95.06c-3.26,0-6.59.51-9.88,1.53-9,2.8-16.68,9.07-21.64,17.66-10.04,17.4-5.51,38.89,10.11,47.91,15.62,9.02,36.5,2.2,46.54-15.2,10.04-17.4,5.51-38.89-10.11-47.91-4.59-2.65-9.72-3.99-15.02-3.99Zm35.52,57.9h0,0Z"/>
    </g>
    <ellipse class="cls-2" cx="569.22" cy="280.11" rx="12.78" ry="9.91" transform="translate(-45.01 438.85) rotate(-40.69)"/>
    <path class="cls-9" d="m588.38,326.96c-8.66,5-20.21,5.84-20.64.47s7.68-3.84,16.34-8.84,10.91-12.88,15.02-9.26c4.16,3.65-2.06,12.64-10.72,17.64Z"/>
    <g>
      <path class="cls-11" d="m572.08,226.76c-3.66,0-6.74-2.84-6.98-6.55l-1.28-19.82c-.25-3.86,2.68-7.19,6.54-7.44,3.86-.25,7.19,2.68,7.44,6.54l1.28,19.82c.25,3.86-2.68,7.19-6.54,7.44-.15,0-.31.01-.46.01Z"/>
      <path class="cls-11" d="m490.77,277.89c-3.75,0-6.85-2.97-6.99-6.75-.14-3.86,2.88-7.11,6.74-7.25l19.58-.71c3.89-.11,7.11,2.88,7.25,6.74s-2.88,7.11-6.74,7.25l-19.58.71c-.09,0-.17,0-.26,0Z"/>
      <path class="cls-11" d="m518.69,252.04c-1.2,0-2.41-.31-3.52-.95l-17.52-10.21c-3.34-1.95-4.47-6.23-2.53-9.57s6.23-4.47,9.57-2.53l17.52,10.21c3.34,1.95,4.47,6.23,2.53,9.57-1.3,2.23-3.65,3.48-6.06,3.48Z"/>
      <path class="cls-11" d="m539.29,232.74c-2.94,0-5.67-1.86-6.64-4.8l-5.83-17.59c-1.22-3.67.77-7.63,4.44-8.85,3.67-1.22,7.63.77,8.85,4.44l5.83,17.59c1.22,3.67-.77,7.63-4.44,8.85-.73.24-1.47.36-2.2.36Z"/>
    </g>
  </g>
  <g>
    <g>
      <path class="cls-6" d="m522.43,843.29c-4.13-6.54-2.18-15.18,4.35-19.31l169.35-107.06c6.54-4.13,15.18-2.18,19.31,4.35s2.18,15.18-4.35,19.31l-169.35,107.06c-6.54,4.13-15.18,2.18-19.31-4.35Z"/>
      <path class="cls-7" d="m534.31,857.82c-1.62,0-3.26-.18-4.88-.55-5.73-1.29-10.62-4.74-13.76-9.71h0c-3.14-4.97-4.16-10.86-2.87-16.59,1.29-5.73,4.74-10.62,9.71-13.76l169.35-107.06c4.97-3.14,10.86-4.16,16.59-2.87,5.73,1.29,10.62,4.74,13.76,9.71,3.14,4.97,4.16,10.86,2.87,16.59-1.29,5.73-4.74,10.62-9.71,13.76l-169.35,107.06c-3.56,2.25-7.6,3.41-11.71,3.41Zm169.29-135.06c-1.1,0-2.2.3-3.2.93l-169.35,107.06c-1.35.86-2.29,2.19-2.65,3.75-.35,1.56-.07,3.17.78,4.52h0c.86,1.36,2.19,2.29,3.75,2.65,1.56.35,3.17.08,4.52-.78l169.35-107.06c1.35-.86,2.29-2.19,2.65-3.75.35-1.56.07-3.17-.78-4.53-1.14-1.8-3.09-2.79-5.08-2.79Z"/>
    </g>
    <g>
      <path class="cls-6" d="m716.83,736.96l19.85-12.55c6.54-4.13,8.48-12.78,4.35-19.31s-12.78-8.48-19.31-4.35l-19.85,12.55,14.96,23.67Z"/>
      <path class="cls-7" d="m714.34,748l-23.51-37.19,26.61-16.82c10.25-6.48,23.87-3.42,30.35,6.84,6.48,10.25,3.41,23.87-6.84,30.35l-26.61,16.82Zm-1.44-32.22l6.41,10.14,13.08-8.27c2.8-1.77,3.63-5.48,1.86-8.28-1.77-2.8-5.48-3.63-8.28-1.87l-13.08,8.27Z"/>
    </g>
    <g>
      <path class="cls-5" d="m685.51,741.37s8.77,15.02,11.18,14.51c2.41-.51,8.34-3.25,8.34-3.25,15.3,24.21,26,76.61,26,76.61,29.04-34.54,3.03-90.41-10.22-111.36-13.82-21.86-52.55-68.42-96.21-56.99,0,0,42.75,32.14,58.05,56.34,0,0-5.02,4.18-6.51,6.14s8.31,16.32,8.31,16.32l1.07,1.69Z"/>
      <path class="cls-7" d="m731.03,839.24c-.82,0-1.65-.1-2.46-.31-3.72-.94-6.57-3.93-7.34-7.69-.09-.46-8.6-41.62-20.66-66.06-.64.2-1.25.36-1.8.48-7.24,1.54-12.35-2.92-21.8-19.09l-.88-1.39c-10.55-15.48-12.4-22-7.9-27.89.34-.45.75-.93,1.21-1.42-16.9-21.38-50.44-46.71-50.81-47-3.06-2.31-4.54-6.16-3.8-9.92.74-3.76,3.57-6.77,7.28-7.74,21.85-5.71,45.33.43,67.92,17.76,21.15,16.23,35.41,37.45,39.28,43.57,3.79,6,16.61,27.62,22.29,53.81,6.09,28.1,1.64,52.07-12.87,69.33-1.93,2.29-4.74,3.56-7.65,3.56Zm-26-96.61c3.34,0,6.57,1.67,8.46,4.66,8.47,13.4,15.47,34.21,20.27,51.26,4.57-33.67-20.08-73.24-21.39-75.32-11.26-17.81-33.56-43.46-58.76-51.54,13.31,11.63,29.05,26.84,37.5,40.2,2.68,4.24,1.8,9.81-2.05,13.02-.44.37-.9.76-1.36,1.16,1.34,2.35,3.19,5.31,5.01,7.98.07.1.13.2.19.29l1.07,1.69c.06.1.12.2.18.3h0c1.63,2.79,3.51,5.73,5.06,7.95.55-.24,1.11-.49,1.63-.73,1.35-.62,2.78-.92,4.18-.92Z"/>
    </g>
  </g>
  <g>
    <path class="cls-10" d="m648.4,760.18c-17.88-14.94-55.71-9.47-76.95,17.33-19.01,23.98-8.03,57,23.86,56.68,31.89-.32,83.58-48.54,53.1-74.01Z"/>
    <path class="cls-7" d="m594.86,848.2c-18.81,0-34.52-9.21-42.11-24.71-8.39-17.13-5.43-38.08,7.73-54.67,13.59-17.14,33.65-28.22,55.04-30.41,16.46-1.69,31.33,2.23,41.87,11.04h0c13.45,11.24,17.66,27.51,11.55,44.63-9.84,27.54-45.55,53.85-73.49,54.13-.19,0-.39,0-.58,0Zm27.86-82.17c-1.42,0-2.88.07-4.35.23-13.72,1.41-27.16,8.87-35.95,19.96-6.29,7.93-8.06,17.73-4.52,24.96,2.93,5.98,8.89,9.08,17.26,9.02,16.28-.16,41.53-19.1,47.4-35.55,2.68-7.51.08-11.04-3.14-13.72h0c-3.78-3.16-9.83-4.89-16.7-4.89Z"/>
  </g>
</svg>