<?xml version="1.0" encoding="UTF-8"?>
<svg id="Layer_2" data-name="Layer 2" xmlns="http://www.w3.org/2000/svg" viewBox="0 0 759.1 694.4">
  <defs>
    <style>
      .cls-1 {
        fill: #182d33;
      }

      .cls-2 {
        fill: #c6b198;
      }

      .cls-3 {
        fill: #b6d3d8;
      }

      .cls-4 {
        fill: #d3e2f8;
      }

      .cls-5 {
        fill: #fff;
      }

      .cls-6 {
        fill: #465b60;
      }

      .cls-7 {
        fill: #666;
      }

      .cls-8 {
        fill: #d39d67;
      }

      .cls-9 {
        fill: #0b92e1;
      }
    </style>
  </defs>
  <g id="O">
    <g>
      <g>
        <path class="cls-2" d="M93.04,521.53S20.26,671.79,14,680.4h420.26l61.04-154.17-402.26-4.7Z"/>
        <path class="cls-1" d="M434.26,694.4H14c-5.27,0-10.09-2.95-12.48-7.65-2.36-4.64-1.95-10.2,1.05-14.44,5.4-8.32,50.59-100.56,77.87-156.88,2.37-4.88,7.37-7.95,12.76-7.9l402.26,4.7c4.61.05,8.89,2.37,11.46,6.2s3.09,8.67,1.39,12.96l-61.04,154.17c-2.11,5.34-7.27,8.85-13.02,8.85ZM2.68,672.17s-.04.06-.07.09c.02-.03.04-.06.07-.09ZM37.33,666.4h387.42l50.05-126.41-373.03-4.35c-15.3,31.54-46.82,96.29-64.44,130.77Z"/>
      </g>
      <path class="cls-1" d="M79.36,627.9c-.4,0-.81-.08-1.2-.25-1.52-.67-2.21-2.44-1.54-3.95l34.03-77.54c.67-1.52,2.44-2.21,3.95-1.54,1.52.67,2.21,2.44,1.54,3.95l-34.03,77.54c-.49,1.12-1.59,1.8-2.75,1.8Z"/>
      <path class="cls-1" d="M68.39,652.88c-.4,0-.81-.08-1.2-.25-1.52-.67-2.21-2.44-1.54-3.95l5.18-11.81c.67-1.52,2.44-2.21,3.95-1.54,1.52.67,2.21,2.44,1.54,3.95l-5.18,11.81c-.49,1.12-1.59,1.8-2.75,1.8Z"/>
      <g>
        <path class="cls-1" d="M99.18,629.09c-.4,0-.81-.08-1.2-.25-1.52-.67-2.21-2.44-1.54-3.95l34.56-78.73c.67-1.52,2.44-2.21,3.95-1.54,1.52.67,2.21,2.44,1.54,3.95l-34.56,78.73c-.49,1.12-1.59,1.8-2.75,1.8Z"/>
        <path class="cls-1" d="M88.74,652.88c-.4,0-.81-.08-1.2-.25-1.52-.67-2.21-2.44-1.54-3.95l5.93-13.51c.67-1.52,2.44-2.21,3.95-1.54,1.52.67,2.21,2.44,1.54,3.95l-5.93,13.51c-.49,1.12-1.59,1.8-2.75,1.8Z"/>
      </g>
      <g>
        <path class="cls-1" d="M119.92,629.09c-.4,0-.81-.08-1.2-.25-1.52-.67-2.21-2.44-1.54-3.95l34.56-78.73c.67-1.52,2.44-2.21,3.95-1.54,1.52.67,2.21,2.44,1.54,3.95l-34.56,78.73c-.49,1.12-1.59,1.8-2.75,1.8Z"/>
        <path class="cls-1" d="M109.48,652.88c-.4,0-.81-.08-1.2-.25-1.52-.67-2.21-2.44-1.54-3.95l5.93-13.51c.67-1.52,2.44-2.21,3.95-1.54,1.52.67,2.21,2.44,1.54,3.95l-5.93,13.51c-.49,1.12-1.59,1.8-2.75,1.8Z"/>
      </g>
      <g>
        <path class="cls-1" d="M140.66,629.09c-.4,0-.81-.08-1.2-.25-1.52-.67-2.21-2.44-1.54-3.95l34.56-78.73c.67-1.52,2.44-2.21,3.95-1.54,1.52.67,2.21,2.44,1.54,3.95l-34.56,78.73c-.49,1.12-1.59,1.8-2.75,1.8Z"/>
        <path class="cls-1" d="M130.22,652.88c-.4,0-.81-.08-1.2-.25-1.52-.67-2.21-2.44-1.54-3.95l5.93-13.51c.67-1.52,2.44-2.21,3.95-1.54,1.52.67,2.21,2.44,1.54,3.95l-5.93,13.51c-.49,1.12-1.59,1.8-2.75,1.8Z"/>
      </g>
      <g>
        <path class="cls-1" d="M161.4,629.09c-.4,0-.81-.08-1.2-.25-1.52-.67-2.21-2.44-1.54-3.95l34.56-78.73c.67-1.52,2.44-2.21,3.95-1.54,1.52.67,2.21,2.44,1.54,3.95l-34.56,78.73c-.49,1.12-1.59,1.8-2.75,1.8Z"/>
        <path class="cls-1" d="M150.96,652.88c-.4,0-.81-.08-1.2-.25-1.52-.67-2.21-2.44-1.54-3.95l5.93-13.51c.67-1.52,2.44-2.21,3.95-1.54,1.52.67,2.21,2.44,1.54,3.95l-5.93,13.51c-.49,1.12-1.59,1.8-2.75,1.8Z"/>
      </g>
      <g>
        <path class="cls-1" d="M182.14,629.09c-.4,0-.81-.08-1.2-.25-1.52-.67-2.21-2.44-1.54-3.95l34.56-78.73c.67-1.52,2.44-2.21,3.95-1.54,1.52.67,2.21,2.44,1.54,3.95l-34.56,78.73c-.49,1.12-1.59,1.8-2.75,1.8Z"/>
        <path class="cls-1" d="M171.69,652.88c-.4,0-.81-.08-1.2-.25-1.52-.67-2.21-2.44-1.54-3.95l5.93-13.51c.67-1.52,2.44-2.21,3.95-1.54,1.52.67,2.21,2.44,1.54,3.95l-5.93,13.51c-.49,1.12-1.59,1.8-2.75,1.8Z"/>
      </g>
      <g>
        <path class="cls-1" d="M202.88,629.09c-.4,0-.81-.08-1.2-.25-1.52-.67-2.21-2.44-1.54-3.95l34.56-78.73c.67-1.52,2.43-2.21,3.95-1.54,1.52.67,2.21,2.44,1.54,3.95l-34.56,78.73c-.49,1.12-1.59,1.8-2.75,1.8Z"/>
        <path class="cls-1" d="M192.43,652.88c-.4,0-.81-.08-1.2-.25-1.52-.67-2.21-2.44-1.54-3.95l5.93-13.51c.67-1.52,2.44-2.21,3.95-1.54,1.52.67,2.21,2.44,1.54,3.95l-5.93,13.51c-.49,1.12-1.59,1.8-2.75,1.8Z"/>
      </g>
      <g>
        <path class="cls-1" d="M223.62,629.09c-.4,0-.81-.08-1.2-.25-1.52-.67-2.21-2.44-1.54-3.95l34.56-78.73c.67-1.52,2.43-2.21,3.95-1.54,1.52.67,2.21,2.44,1.54,3.95l-34.56,78.73c-.49,1.12-1.59,1.8-2.75,1.8Z"/>
        <path class="cls-1" d="M213.17,652.88c-.4,0-.81-.08-1.2-.25-1.52-.67-2.21-2.44-1.54-3.95l5.93-13.51c.67-1.52,2.44-2.21,3.95-1.54,1.52.67,2.21,2.44,1.54,3.95l-5.93,13.51c-.49,1.12-1.59,1.8-2.75,1.8Z"/>
      </g>
      <g>
        <path class="cls-9" d="M325.17,418.22s-38.63,19.62-74.11-5.45c-23.03-16.27-17.79-52.45-43.73-55.23-23.58-2.53-67.02,47.73-21.83,109.84,48.46,66.6,152.05,59.77,167.74,41.22"/>
        <path class="cls-4" d="M179.19,392.29s10.12,44.22,61.89,75.92c51.77,31.7,109.36,7.82,114.49,20.1,5.13,12.28-71.27,60.35-144.46,1.71-73.2-58.64-39.02-102.74-39.02-102.74"/>
        <path class="cls-1" d="M330.83,429.36c-9.89,6.47-21.57,9.16-33.27,9.97-18.84,1.46-38.89-3.78-54.46-14.91-13.95-9.46-20.51-25.48-26.32-39.81-1.77-4.17-3.58-7.67-5.21-9.68-1.62-1.99-2.72-2.71-5.09-3.11,0,0-.41-.06-.41-.06-.3-.09-.33.03-.57-.05-1.13.15-2.02.31-3.56,1.02-10.15,4.83-17.24,16.28-20.11,27.4-4.56,17.94,1.14,36.92,10.88,52.25,21.49,35.61,63.95,53.17,104.63,54.73,15.85.66,31.84-1.08,46.36-6.59,11.18-12.22,29.3,3.03,19.09,16.15-6.49,8.36-16.4,12.23-26,14.9-23.88,5.66-48.46,4.54-72.23-.25-40.21-8.19-77.56-31.08-98.31-67.25-12.57-21.11-18.65-46.87-12.29-71.07,6.93-29.53,39.61-63.89,71.34-43.79,19.79,13.26,18.36,40.46,34.04,52.11,10.6,7.55,23.25,10.91,36.39,10.03,8.02-.42,16.02-2.85,23.79-4.28,15.03-6.91,25.84,14.15,11.32,22.29h0Z"/>
      </g>
      <g>
        <path class="cls-6" d="M236.78,545.51l-19.68,19.57c-15.03,14.94-60.8-6.72-102.24-48.4-41.43-41.67-62.85-87.57-47.82-102.52l20.88-20.76c-1.99,1.98-3.35,4.52-4.1,7.52-4.89,19.55,15.99,58.87,51.92,95,35.29,35.49,73.72,56.47,93.63,52.69,2.85-.54,5.32-1.59,7.35-3.18l.06.09Z"/>
        <path class="cls-6" d="M237.98,544.32c-.4.4-.82.77-1.26,1.11-2.03,1.59-4.5,2.64-7.35,3.18l-.02-2.45c1.58-20.58-18.86-57.22-52.53-91.08-33.92-34.12-70.75-54.82-91.24-53.02l-1.75-1.14c.75-3,2.11-5.53,4.1-7.52,15.03-14.94,60.81,6.73,102.24,48.4,41.44,41.68,62.85,87.57,47.82,102.52Z"/>
        <path class="cls-3" d="M229.35,546.16l.02,2.45c-19.91,3.78-58.34-17.2-93.63-52.69-35.93-36.14-56.81-75.45-51.92-95l1.75,1.14c20.49-1.8,57.32,18.9,91.24,53.02,33.67,33.86,54.11,70.51,52.53,91.08Z"/>
        <path class="cls-1" d="M224.44,559.09c-8.11,0-18.55-2.35-31.95-8.7-20.33-9.62-43-26.46-63.84-47.42-40.79-41.02-70.3-94.27-47.78-116.66,22.52-22.39,75.59,7.42,116.38,48.44,40.79,41.02,70.3,94.27,47.78,116.66l-7.05-7.09,7.05,7.09c-4.1,4.08-10.56,7.68-20.59,7.68ZM101.37,398.64c-3.01,0-5.18.65-6.4,1.85-6.83,6.79,3.87,44.14,47.86,88.37,19.25,19.36,39.92,34.79,58.21,43.44,16.3,7.72,26.76,8.03,29.89,4.92,6.83-6.79-3.87-44.14-47.86-88.37-36.16-36.37-67.8-50.22-81.7-50.22Z"/>
        <path class="cls-1" d="M229.35,552.15c-.15,0-.31,0-.47-.02-3.3-.25-5.78-3.14-5.52-6.44,1.21-15.78-14.17-49.54-50.81-86.39-35.35-35.55-70.26-52.71-86.45-51.27-3.3.29-6.21-2.15-6.5-5.45-.29-3.3,2.15-6.21,5.45-6.5,22.85-2.02,61.44,19.99,96.02,54.76,34.21,34.41,56.02,72.89,54.26,95.77-.24,3.15-2.87,5.54-5.98,5.54Z"/>
        <path class="cls-1" d="M203.56,579.85c-8.11,0-18.55-2.35-31.95-8.7-20.33-9.62-43-26.46-63.84-47.42-20.84-20.95-37.55-43.72-47.05-64.11-14.03-30.08-8.14-45.18-.72-52.55l20.88-20.76c3.92-3.89,10.25-3.88,14.14.04,3.89,3.92,3.88,10.25-.04,14.14l-20.88,20.76c-3.13,3.11-2.88,13.57,4.75,29.92,8.56,18.34,23.87,39.1,43.11,58.46s39.92,34.79,58.21,43.44c16.3,7.72,26.76,8.03,29.89,4.92l19.68-19.57c3.92-3.89,10.25-3.88,14.14.04,3.89,3.92,3.88,10.25-.04,14.14l-19.68,19.57c-4.1,4.08-10.56,7.68-20.59,7.68Z"/>
        <g>
          <path class="cls-7" d="M292.05,647.71l-76.82-77.26c-1.99-2,.74-7.93,6.09-13.25s11.3-8.01,13.28-6.01l76.82,77.26c1.99,2-.74,7.93-6.09,13.25-5.35,5.32-11.3,8.01-13.28,6.01Z"/>
          <path class="cls-1" d="M293.84,657.4c-3.14,0-5.94-1.09-8.17-3.34h0s-76.82-77.26-76.82-77.26c-1.77-1.78-5.47-6.86-1.5-15.48,1.61-3.51,4.25-7.14,7.63-10.5,3.38-3.36,7.02-5.98,10.54-7.57,8.65-3.91,13.7-.19,15.47,1.59l76.81,77.26c1.77,1.78,5.47,6.86,1.51,15.48-1.61,3.51-4.25,7.13-7.63,10.49-6.15,6.12-12.49,9.31-17.84,9.31ZM298.42,641.35h.01s0,0-.01,0ZM224.67,567.17l70.72,71.13c1.01-.67,2.26-1.65,3.6-2.98,1.34-1.33,2.33-2.58,3-3.58l-70.73-71.13c-1.01.67-2.26,1.65-3.6,2.98-1.34,1.33-2.33,2.58-3,3.58Z"/>
        </g>
        <path class="cls-5" d="M161.43,469.4c-1.59,0-3.18-.63-4.36-1.88-2.6-2.75-5.4-5.5-8.3-8.16-2.44-2.24-2.61-6.03-.37-8.48,2.24-2.44,6.03-2.61,8.48-.37,3.11,2.85,6.11,5.8,8.91,8.76,2.28,2.41,2.17,6.21-.24,8.48-1.16,1.1-2.64,1.64-4.12,1.64Z"/>
        <path class="cls-5" d="M141.98,451.74c-1.3,0-2.61-.42-3.71-1.28-17.61-13.85-33.36-21.2-33.51-21.27-3.01-1.39-4.32-4.95-2.93-7.96,1.39-3.01,4.95-4.32,7.96-2.94.69.32,17.12,7.96,35.9,22.73,2.6,2.05,3.06,5.82,1.01,8.43-1.18,1.51-2.94,2.29-4.72,2.29Z"/>
      </g>
      <g>
        <path class="cls-9" d="M563.39,412.75s54.78,7.83,94.3-33.26c4.21-4.38,10.96-13.3,13.3-28.96,3.15-21.03,13.11-35.41,39.52-28.83,38.99,9.72,47.11,67.4,11.48,118.7-40.96,58.96-133.04,78.78-224.87,36.52"/>
        <path class="cls-4" d="M735.04,360.57s-14.09,62.61-70.43,85.57c-56.35,22.96-153.91-11.48-153.91-11.48,0,0-2.09,42.26,8.87,54.78,10.96,12.52,173.74,30.78,208.7-68.35"/>
        <path class="cls-1" d="M565.16,400.37c31.25-.73,59.64-7.23,82.05-30.37,3.97-4.06,6.51-8.88,8.25-14.64,1.69-5.74,1.94-11.55,3.76-17.51,2.29-8.05,6.11-16.03,12.75-22.15,12.43-11.78,31.07-11.6,46.3-6.59,16.46,5.32,29.2,18.63,35.26,34.43,14.88,39.43-1.95,84.57-27.68,115.3-50.33,58.99-138.52,65.86-208.02,41.39-6.01-2.09-11.92-4.46-17.62-7.28-2.82-1.47-5.6-3-8.3-4.68-5.91-3.67-7.72-11.43-4.05-17.34,2.99-4.81,8.7-6.91,13.9-5.53,3.02.79,5.97,1.74,8.86,2.76,2.05.68,6.11,2.01,8.13,2.77,16.02,5.75,32.59,10.42,49.45,12.58,35.63,4.82,73.51.45,104.89-17.66,16.34-9.31,30.41-22.55,40.33-38.54,11.64-18.67,19.38-41.45,16.16-63.13-1.24-8-4.59-16.44-10.33-21.95-2.53-2.32-5.35-4.27-8.6-5.49-3.69-1.5-8.5-2.39-12.25-2.38-2.66.03-5.22.48-7.16,2.28-3.96,3.93-5.25,10.37-6.23,16.09-2.22,14.93-8.78,29.23-20.26,39.65-17.02,16.6-39.45,27.66-62.58,32.2-13.34,2.62-27.16,3.3-40.54.55-3.61-.67-5.69-4.74-4.14-8.05,0,0,7.68-16.69,7.68-16.69h0Z"/>
      </g>
      <circle class="cls-9" cx="420.57" cy="311.14" r="216.39"/>
      <path class="cls-4" d="M599.78,308.86c0,57.45-20.36,109.94-53.98,150.07h37.51c36.18-38.68,58.34-90.65,58.34-147.79,0-105.49-75.48-193.35-175.38-212.51,78.48,34.74,133.51,115.79,133.51,210.23Z"/>
      <path class="cls-1" d="M420.57,542.53c-61.81,0-119.91-24.07-163.62-67.77-43.7-43.7-67.77-101.81-67.77-163.62s24.07-119.91,67.77-163.62c43.7-43.7,101.81-67.77,163.62-67.77s119.91,24.07,163.62,67.77c43.7,43.7,67.77,101.81,67.77,163.62s-24.07,119.91-67.77,163.62c-43.7,43.7-101.81,67.77-163.62,67.77ZM420.57,109.75c-111.05,0-201.39,90.34-201.39,201.39s90.34,201.39,201.39,201.39,201.39-90.34,201.39-201.39-90.34-201.39-201.39-201.39Z"/>
      <circle class="cls-1" cx="304.74" cy="339.97" r="44.61"/>
      <g>
        <circle class="cls-1" cx="245.6" cy="209.84" r="23.61"/>
        <circle class="cls-1" cx="292.44" cy="162.49" r="21.78"/>
        <circle class="cls-1" cx="321.58" cy="209.87" r="15.91"/>
        <circle class="cls-1" cx="348.11" cy="136.26" r="13.17"/>
      </g>
      <circle class="cls-5" cx="295.02" cy="336.08" r="15.46"/>
      <path class="cls-1" d="M259.21,431.97c8.38,5.77,20.25,2.78,25.05-5.92,1.62-2.86,2.38-6.38,2.21-10.12-.12-6.35,4.94-11.6,11.29-11.72,5.68-.1,10.47,3.93,11.51,9.32,1.49,7.76.46,16.3-3.05,23.52-6.95,14.81-23.55,24.14-39.82,22.38-7.98-.75-15.82-4.31-21.68-9.61-10.43-10.12,2.53-25.91,14.49-17.86h0Z"/>
      <g>
        <path class="cls-9" d="M557.91,458.92s14.87,40.7,57.91,46.57c27.93,3.81,48.78-26.22,69.65-10.57,18.97,14.23,16.45,80.62-58.96,95.22-80.87,15.65-151.96-60-150.78-84.26"/>
        <path class="cls-4" d="M682.35,539.53s-37.57,25.43-97.04,13.3-85.3-68.87-97.43-63.39c-12.13,5.48,10.96,92.74,104.48,99.78s98.61-48.52,98.61-48.52"/>
        <path class="cls-1" d="M569.65,454.63c4.71,6.35,8.9,13.58,14.48,19.36,8.35,8.86,18.72,14.81,30.51,17.01,3.3.65,6.62.94,10,.38,8.12-1.26,15.67-5.44,24.01-9.09,7.73-3.58,19.31-7.55,29.37-5.71,20.97,3.72,30.61,21.64,31.58,41.08.81,17.19-4.47,33.45-14.02,47.24-13.23,19.12-34.56,31.34-56.71,37.06-60.07,16.45-124.47-13.91-161.94-61.18-5.38-7.16-9.96-14.59-12.49-23.48-1-3.88-1.65-7.65-1.19-12.03.33-6.9,6.19-12.21,13.09-11.88,6.9.33,12.21,6.19,11.88,13.09.17-.02.31.27.5.7,1.66,3.82,4.05,7.78,6.61,11.39,30.27,42.02,88.02,70.94,139.27,54.81,17.32-5.11,33.89-15.83,41.77-32.48,4.55-9.61,6.48-21.62,2.68-31.19-.64-1.58-1.21-2.29-1.91-3.18-.22-.1-.17-.21-.45-.35-.95-.69-2.2-1.35-3.23-1.49-4.36-.36-7.88,1.3-13.37,3.58-4.15,1.81-8.77,4.07-13.94,6.14-9.43,3.97-21.68,6.72-32.46,5.02-24.92-3.23-47.44-18.83-60.55-39.87-3.08-5.09-5.57-10.55-6.98-16.36-5.07-15.76,17.15-23.95,23.48-8.58h0Z"/>
      </g>
      <path class="cls-9" d="M440.52,517.62c-23.91,39.67-31.3,148.7-123.65,147.91-67.24-.57-85.35-51.26-82.64-69.32,2.72-18.06,17.92-27.26,27.75-30.12,11.42-3.32,40.19,2.88,45.7,25.87,0,0,31.22-55.17,38.93-99.39"/>
      <path class="cls-4" d="M262.87,637.62s51.65,15.13,87.13-11.48c35.48-26.61,53.74-98.09,53.74-98.09,0,0,14.09,29.22,9.39,55.83s-32.87,80.35-98.09,84"/>
      <path class="cls-1" d="M317.84,679.54c-.36,0-.73,0-1.09,0-41.55-.35-65.19-17.91-77.71-32.57-15.62-18.3-20.62-39.72-18.65-52.83,3.55-23.56,22.52-37.07,37.68-41.48,11.4-3.31,28.16-.53,40.74,6.78,2.64,1.53,5.08,3.23,7.3,5.08,9.4-19.36,22.3-49.07,26.7-74.34,1.33-7.62,8.58-12.72,16.2-11.39,7.62,1.33,12.72,8.58,11.39,16.2-8.03,46.07-39.21,101.54-40.53,103.88-2.83,5.01-8.44,7.77-14.14,6.97-5.7-.8-10.32-5.01-11.66-10.6-1.14-4.76-4.28-8.65-9.32-11.59-7.83-4.55-16.54-4.78-18.85-4.11-1.6.47-15.74,4.96-17.81,18.76-.65,4.29,1.54,17.93,12.26,30.49,8.73,10.23,25.65,22.49,56.65,22.75.28,0,.56,0,.84,0,58.73,0,77.02-52.53,93.17-98.91,5.58-16.02,10.85-31.14,17.53-42.23,3.99-6.62,12.6-8.76,19.22-4.76,6.62,3.99,8.75,12.6,4.76,19.22-5.18,8.6-9.99,22.39-15.07,36.99-8.65,24.85-18.46,53.02-35.9,76-20.99,27.67-49.14,41.7-83.7,41.7Z"/>
      <g>
        <path class="cls-9" d="M598.76,605.86c-18.33-24.07-50.11,10.86-80.02-30.33-7.9-10.87-12.68-22.35-15.49-33.14.06-1.38.1-2.77.1-4.16,0-9.02-1.34-17.66-3.8-25.65,0-2.33.08-24.47.19-26.43h-86v75.09c3.28,7.7,6.4,15.46,9.46,23.25,2.85,5.25,5.75,10.48,8.5,15.77,1.85-1.05,4.74-.4,5.24,2.01.71,3.39,1.11,6.8,1.35,10.23.98.06,1.97.09,2.97.09,1.97,0,3.92-.12,5.85-.34,7.4,28.17,27.84,60.42,81.02,63.47,69.95,4.01,87.17-48.12,70.63-69.85Z"/>
        <path class="cls-4" d="M588.78,654.18s-43.43,1.57-81.78-18.78c-38.35-20.35-81.78-76.04-81.78-76.04,0,0-2.61,55.83,57.91,99.91,32.9,23.96,90,11.74,90,11.74"/>
        <path class="cls-1" d="M513.36,496.74c.14.02.19.39.25.63.89,4.36.03,8.77.03,13.2-.09,4.78.14,9.57.67,14.3,1.64,14.1,6.02,27.52,13.78,39.24,4.61,6.91,10.11,13.3,17.32,16.44,8.01,3.39,15.75,2.32,25.4,1.79,11.02-.9,23.93.37,33.05,8.21,15.84,12.79,18.74,36.26,11.03,53.89-5.23,12.79-15.42,23.44-26.94,30.5-21.57,13.08-46.9,16.27-71.35,14.62-72.66-5.72-105.85-76.67-115.35-140.65-1.68-11.52-3.27-22.56-1.57-34.4,2.32-14,21.87-14.38,24.86-.69,1.01,4.96,1.74,10.25,2.41,15.55,3.87,34.59,12.76,70.61,33.76,98.77,17.71,23.78,43.13,35.13,72.56,33.12,21.14-1.12,45.82-7.8,54.93-27.92,2.92-6.83,3.03-15.62-2.57-20.56-.73-.6-1.34-.94-2.33-1.27-1.9-.7-5.88-.88-10.92-.56-21.4,1.88-39.42-.11-55.88-16.26-22.12-22.29-31.66-54.03-30.98-84.72.17-6.26.4-12.69,3.38-18.4,4.07-16.05,27.25-11.2,24.45,5.19h0Z"/>
      </g>
      <g>
        <path class="cls-9" d="M302.26,545.53c-11.41-8.88-25.57-39.13-13.04-56.35,12.52-17.22,47.48-49.04,69.91-27.13,22.43,21.91-3.65,66.26-3.65,66.26,0,0-25.04,39.13-53.22,17.22Z"/>
        <path class="cls-1" d="M320.1,566.19c-9.25,0-18.28-3.26-26.44-9.61-8.36-6.5-16.12-18.73-20.26-31.9-5.31-16.92-3.72-32.45,4.49-43.73,10.11-13.91,34.07-38.01,59.69-40.18,11.93-1.01,22.75,2.89,31.32,11.27,9.07,8.86,18.23,25.6,10.33,55-4.16,15.48-11.39,27.86-11.69,28.38-.09.15-.18.3-.28.45-1.68,2.62-17.08,25.74-40.37,29.75-2.27.39-4.54.58-6.79.58ZM341.26,468.62c-.43,0-.87.02-1.32.06-12.17,1.03-29.93,15.72-39.4,28.75-6.72,9.24,2.83,31.24,10.32,37.06h0c5.15,4,8.88,3.94,11.25,3.54,9.3-1.56,18.66-12.88,21.46-17.07,5.36-9.34,17.48-37.46,5.78-48.88-2.44-2.38-4.91-3.45-8.08-3.45Z"/>
      </g>
      <g>
        <path class="cls-8" d="M255.83,145.88s-54,36.26-52.43,73.04,111.91-33.91,134.61-73.04"/>
        <path class="cls-1" d="M215.13,241.67c-2.54,0-4.95-.26-7.2-.81-10.2-2.51-16.56-10.51-17.02-21.41-.8-18.83,9.01-38.87,29.16-59.57,14.05-14.43,28.2-23.99,28.79-24.39,5.73-3.85,13.5-2.32,17.35,3.41,3.85,5.73,2.32,13.5-3.41,17.35-13.11,8.84-46.43,36.56-46.93,60.52,6.58-.16,24.59-5.71,53.23-24.56,26.69-17.57,50.04-38.71,58.1-52.6,3.46-5.97,11.11-8,17.08-4.54,5.97,3.46,8,11.11,4.54,17.08-11.97,20.63-41.48,44.72-65.12,60.38-17.24,11.42-47.4,29.14-68.57,29.15Z"/>
      </g>
      <g>
        <path class="cls-8" d="M240.71,164.13s-15.75-131.86,58.12-149.56c73.87-17.7,125.48,83.34,125.48,83.34,0,0-22.27,25.69-83.11,50.23-66.48,26.82-100.49,15.98-100.49,15.98Z"/>
        <path class="cls-1" d="M260.88,178.73c-15.16,0-23.26-2.46-23.97-2.69-4.67-1.49-8.04-5.56-8.62-10.43-.7-5.84-16.11-143.14,67.62-163.2,34.76-8.33,70.16,5,102.37,38.53,23.15,24.1,36.59,50.18,37.15,51.28,2.32,4.54,1.65,10.02-1.69,13.87-.99,1.14-24.97,28.26-87.87,53.64-38.18,15.41-66.72,18.99-85,18.99ZM252.37,153.4c12.88,1.12,41.17.5,84.15-16.84,39.63-15.99,62.08-32.45,72.06-40.97-13.4-22.08-54.79-81.33-106.84-68.86-51.94,12.44-51.13,98.09-49.37,126.67Z"/>
      </g>
      <g>
        <path class="cls-1" d="M301.48,160.58c-1.74,0-3.34-1.15-3.84-2.91-20.35-71.49-10.64-137.22-10.54-137.88.33-2.18,2.38-3.68,4.56-3.35,2.18.33,3.68,2.38,3.35,4.56-.1.64-9.53,64.73,10.33,134.47.61,2.12-.63,4.34-2.75,4.94-.37.1-.74.15-1.1.15Z"/>
        <path class="cls-1" d="M369.3,134.49c-1.71,0-3.3-1.11-3.83-2.83-21.86-71.68-61.25-112.75-61.65-113.16-1.54-1.58-1.51-4.12.08-5.66,1.58-1.54,4.11-1.51,5.65.07,1.67,1.71,41.11,42.76,63.57,116.41.64,2.11-.55,4.35-2.66,4.99-.39.12-.78.17-1.17.17Z"/>
        <path class="cls-1" d="M248.26,87.53c-1.9,0-3.58-1.35-3.93-3.28-.4-2.17,1.05-4.26,3.22-4.65.96-.17,96.32-17.8,118.07-45.99,1.35-1.75,3.86-2.07,5.61-.72,1.75,1.35,2.07,3.86.72,5.61-23.62,30.6-118.93,48.23-122.97,48.97-.24.04-.48.06-.72.06Z"/>
        <path class="cls-1" d="M243.04,139.71c-2.05,0-3.8-1.57-3.98-3.66-.19-2.2,1.44-4.14,3.65-4.33.97-.08,97.62-8.83,157.5-56.53,1.73-1.38,4.24-1.09,5.62.64,1.38,1.73,1.09,4.24-.64,5.62-61.8,49.23-157.75,57.9-161.81,58.25-.12,0-.23.01-.34.01Z"/>
      </g>
      <path class="cls-1" d="M273.01,557.56c-.4,0-.81-.08-1.2-.25-1.52-.67-2.21-2.44-1.54-3.95l3.16-7.2c.67-1.52,2.43-2.21,3.95-1.54,1.52.67,2.21,2.44,1.54,3.95l-3.16,7.2c-.49,1.12-1.59,1.8-2.75,1.8Z"/>
      <path class="cls-1" d="M231.17,652.88c-.4,0-.81-.08-1.2-.25-1.52-.67-2.21-2.44-1.54-3.95l7.33-16.7c.67-1.52,2.43-2.21,3.95-1.54,1.52.67,2.21,2.44,1.54,3.95l-7.33,16.7c-.49,1.12-1.59,1.8-2.75,1.8Z"/>
      <path class="cls-1" d="M291.03,562.87c-.4,0-.81-.08-1.2-.25-1.52-.67-2.21-2.44-1.54-3.95l5.49-12.52c.67-1.52,2.43-2.21,3.95-1.54,1.52.67,2.21,2.44,1.54,3.95l-5.49,12.52c-.49,1.12-1.59,1.8-2.75,1.8Z"/>
      <path class="cls-1" d="M304.6,578.3c-.4,0-.81-.08-1.2-.25-1.52-.67-2.21-2.44-1.54-3.95l12.26-27.94c.67-1.52,2.43-2.21,3.95-1.54,1.52.67,2.21,2.44,1.54,3.95l-12.26,27.94c-.49,1.12-1.59,1.8-2.75,1.8Z"/>
      <path class="cls-1" d="M397.09,652.88c-.4,0-.81-.08-1.2-.25-1.52-.67-2.21-2.44-1.54-3.95l22.66-51.62c.67-1.52,2.43-2.21,3.95-1.54,1.52.67,2.21,2.44,1.54,3.95l-22.66,51.62c-.49,1.12-1.59,1.8-2.75,1.8Z"/>
      <path class="cls-1" d="M413.52,652.88c-.4,0-.81-.08-1.2-.25-1.52-.67-2.21-2.44-1.54-3.95l14.52-33.07c.67-1.52,2.43-2.21,3.95-1.54,1.52.67,2.21,2.44,1.54,3.95l-14.52,33.07c-.49,1.12-1.59,1.8-2.75,1.8Z"/>
      <path class="cls-1" d="M150.69,318.16c-6.19-2.12-12.45-3.43-18.76-4.25-3.45-.45-6.12-3.2-6.55-6.66-.01-.12-.03-.24-.04-.36-.87-6.09-1.99-12.17-4.17-18.26-.73-2.01-2.33-3.72-4.5-4.5-3.87-1.38-8.12.63-9.5,4.5-2.08,6.09-3.39,12.25-4.21,18.45-.45,3.4-3.12,6.09-6.53,6.52s-6.46.97-9.66,1.71c-3.04.72-6.09,1.56-9.13,2.83-1.76.74-3.27,2.16-4.07,4.07-1.62,3.87.2,8.31,4.07,9.93,5.95,2.41,12.03,3.62,18.26,4.48.04,0,.08.01.13.02,3.44.44,6.18,3.1,6.63,6.54.41,3.14.96,6.26,1.67,9.36.72,3.04,1.56,6.09,2.83,9.13.74,1.76,2.16,3.27,4.07,4.07,3.87,1.62,8.31-.2,9.93-4.07,2.41-5.95,3.62-12.03,4.48-18.26.02-.14.04-.29.06-.43.44-3.49,3.18-6.21,6.67-6.65.02,0,.04,0,.06,0,6.09-.87,12.17-1.99,18.26-4.17,2.01-.73,3.72-2.33,4.5-4.5,1.38-3.87-.63-8.12-4.5-9.5Z"/>
      <circle class="cls-1" cx="159.83" cy="278.66" r="10.96"/>
    </g>
  </g>
</svg>