<?xml version="1.0" encoding="UTF-8"?>
<svg id="Delphi" xmlns="http://www.w3.org/2000/svg" viewBox="0 0 1125 800">
  <defs>
    <style>
      .cls-1 {
        fill: #fff;
      }

      .cls-2 {
        fill: #b96d35;
      }

      .cls-3 {
        fill: #d1e0f6;
      }

      .cls-4 {
        fill: #a35623;
      }

      .cls-5 {
        fill: #182d33;
      }

      .cls-6 {
        fill: #b0b0b0;
      }

      .cls-7 {
        fill: #da8c4d;
      }

      .cls-8 {
        fill: #0b90df;
      }

      .cls-9 {
        fill: #f8ad3b;
      }
    </style>
  </defs>
  <g>
    <path class="cls-8" d="m521.86,373.01s54.66-8.61,80.37-59.5c2.74-5.43,6.56-15.94,4.21-31.59-3.16-21.03,2.13-37.7,29.31-39.16,40.13-2.16,64.83,50.59,45.84,110.09-21.83,68.39-104.03,114.39-204.22,100.97"/>
    <path class="cls-3" d="m670.61,272.71s4.93,63.98-42.19,102.48-150.49,34.24-150.49,34.24c0,0,10.42,41.01,24.57,49.76,14.15,8.75,175.12-21.61,179.41-126.64"/>
    <path class="cls-5" d="m519.91,360.66c29.17-9.7,54.46-24.15,69.05-52.27,4.08-7.19,4.72-15.98,3.48-24.3-1.1-7.44-1.52-14.98-.04-22.81,3.6-19.62,19.25-30.58,38.41-32.41,27.32-3.33,49.71,12.34,61.38,36.18,15.77,33.02,12.17,71.49-1.49,104.29-33.57,76.91-126.79,109.34-205.66,98.89-3.12-.58-6.24-1.23-9.31-2.04-14.25-4.14-11.39-24.57,3.32-24.78,5.56-.13,11.68.09,17.25.31,17,.79,34.21.38,50.96-2.5,38.13-6.26,75.67-23.6,100.43-53.8,10.19-12.49,17.77-27,21.87-42.59,5.64-21.26,6.35-45.32-3.1-65.09-3.53-7.28-9.22-14.37-16.32-17.95-6.66-3.46-15.26-3.5-22.25-1.4-2.54.81-4.85,1.99-6.18,4.28-2.64,4.92-1.98,11.45-1.23,17.21,2.26,14.92.2,30.52-7.72,43.85-11.39,20.87-29.59,38.03-50.35,49.16-11.98,6.42-24.99,11.14-38.59,12.44-3.65.42-6.83-2.86-6.32-6.48,0,0,2.43-18.21,2.43-18.21h0Z"/>
  </g>
  <g>
    <path class="cls-8" d="m545.65,382.87s83.23,25.02,85.28,68.43c2.04,43.4-68.43,69.96-70.47,78.64s5.62,37.28-24,43.4c-52.09,10.78-68.43-52.09-56.17-82.72,12.26-30.64,65.36-50.55,65.36-50.55l-37.79-3.06"/>
    <path class="cls-3" d="m612.03,423.47s4.6,22.72-4.34,34.47c-8.94,11.74-63.83,42.38-70.21,59.49s5.36,44.94,5.36,44.94c0,0,4.34-20.68,12.51-28.6,8.17-7.91,72.26-32.43,74.81-64.85"/>
    <path class="cls-5" d="m523.87,588.69c-17.24,0-32.04-6.58-42.62-19.22-18.19-21.73-19-54.88-10.39-76.4,13.71-34.26,62.46-62.18,67.98-65.25,6.76-3.76,15.28-1.33,19.04,5.42,3.76,6.75,1.33,15.28-5.42,19.04-12.58,7.02-47.09,29.92-55.6,51.18-5.34,13.35-4.62,35.51,5.86,48.02,6.98,8.33,17.08,10.99,30.9,8.13,10.65-2.2,12.36-7.21,12.4-22.15.01-3.96.02-7.39.81-10.75,1.9-8.07,8.5-12.25,21.64-20.59,18.53-11.76,49.54-31.44,48.47-54.18-1.27-27.09-51.87-47.53-69.5-52.55-7.43-2.12-11.75-9.86-9.64-17.29,2.11-7.43,9.83-11.76,17.27-9.65.86.24,21.21,6.07,42.05,17.64,30.19,16.76,46.71,37.69,47.78,60.54,1.83,38.98-37.77,64.12-61.44,79.14-3.23,2.05-7.01,4.45-9.45,6.17,0,.55,0,1.11,0,1.61-.02,6.61-.04,16.6-4.13,26.09-3.69,8.55-11.98,19.56-30.6,23.41-5.31,1.1-10.47,1.64-15.42,1.64Z"/>
  </g>
  <g>
    <path class="cls-8" d="m219.14,373.01s-54.66-8.61-80.37-59.5c-2.74-5.43-6.56-15.94-4.21-31.59,3.16-21.03-2.13-37.7-29.31-39.16-40.13-2.16-64.83,50.59-45.84,110.09,21.83,68.39,104.03,114.39,204.22,100.97"/>
    <path class="cls-3" d="m70.39,272.71s-4.93,63.98,42.19,102.48c47.12,38.5,150.49,34.24,150.49,34.24,0,0-10.42,41.01-24.57,49.76-14.15,8.75-175.12-21.61-179.41-126.64"/>
    <path class="cls-5" d="m217.2,385.36c-33.07-3.61-65.18-25.41-83.6-52.86-2.75-4.02-5.21-8.39-7.46-12.7-4.52-8.89-6.56-19.32-6.45-28.89-.18-8.02,2.54-16.48,1.04-24.22-.76-4.56-3.39-7.05-7.6-8.28-7.46-2.23-16.69-2.06-23.55,2.14-7.51,4.22-13.22,12.49-16.51,20.53-8.29,20.3-6.87,44.58-.47,65.69,5.76,19.34,17.18,36.76,31.84,50.57,38.13,36.09,93.36,47.79,144.58,44.22,4.31-.07,9.22-.32,13.57-.11,14.4.84,16.58,20.82,2.72,24.76-6.15,1.65-12.44,2.62-18.77,3.26-31.92,2.36-64.33-1.36-94.71-11.78-43.36-14.68-83.24-45.44-101.5-88.33-13.03-31.3-16.83-67.15-3.74-99.37,6.28-14.94,16.59-28.15,31.45-35.71,13.63-6.78,29.27-7.46,43.84-2.97,24.14,7.72,30.5,30.01,26.7,52.79-1.19,7.98-.66,16.46,3.01,23.44.28.53,1.1,2.04,1.39,2.6,8.87,16.29,22.63,29.26,39,38.17,8.8,4.74,18.16,8.62,27.63,11.82,0,0,.86.3.86.3.24.09.63.2.63.25,0,0,2.43,18.18,2.43,18.18.53,3.64-2.67,6.93-6.32,6.51h0Z"/>
  </g>
  <circle class="cls-8" cx="372.02" cy="286.64" r="216.39"/>
  <g>
    <circle class="cls-5" cx="504.28" cy="297.86" r="44.61"/>
    <circle class="cls-1" cx="522.43" cy="299.85" r="15.46"/>
  </g>
  <g>
    <circle class="cls-5" cx="301.06" cy="297.86" r="44.61"/>
    <circle class="cls-1" cx="319.21" cy="299.85" r="15.46"/>
  </g>
  <path class="cls-3" d="m192.8,284.36c0,57.45,20.36,109.94,53.98,150.07h-37.51c-36.18-38.68-58.34-90.65-58.34-147.79,0-105.49,75.48-193.35,175.38-212.51-78.48,34.74-133.51,115.79-133.51,210.23Z"/>
  <path class="cls-5" d="m372.02,518.04c-61.81,0-119.91-24.07-163.62-67.77s-67.77-101.81-67.77-163.62,24.07-119.91,67.77-163.62,101.81-67.77,163.62-67.77,119.91,24.07,163.62,67.77,67.77,101.81,67.77,163.62-24.07,119.91-67.77,163.62-101.81,67.77-163.62,67.77Zm0-432.78c-111.05,0-201.39,90.34-201.39,201.39s90.34,201.39,201.39,201.39,201.39-90.34,201.39-201.39-90.34-201.39-201.39-201.39Z"/>
  <g>
    <circle class="cls-5" cx="502.45" cy="179.82" r="23.61"/>
    <circle class="cls-5" cx="451.84" cy="136.51" r="21.78"/>
    <circle class="cls-5" cx="426.74" cy="186.14" r="15.91"/>
    <circle class="cls-5" cx="394.19" cy="114.99" r="13.17"/>
  </g>
  <path class="cls-5" d="m439.96,329.49c-5.07,15.64-20.66,26.33-37.03,26.16-16.36.17-31.97-10.52-37.03-26.16-4.07-13.49,14.12-21.22,21.05-9.09,1.68,3.35,4.08,6.04,6.89,7.74,8.86,5.4,20.62,1.83,25.06-7.74,7.01-12.22,25.14-4.29,21.05,9.08h0Z"/>
  <g>
    <path class="cls-8" d="m224.77,581.36c18.33-24.07,50.11,10.86,80.02-30.33,7.9-10.87,12.68-22.35,15.49-33.14-.06-1.38-.1-2.77-.1-4.16,0-9.02,1.34-17.66,3.8-25.65,0-2.33-.08-24.47-.19-26.43h116.96c-.11,1.96-.19,24.11-.19,26.43,2.46,8,3.8,16.64,3.8,25.65,0,1.4-.04,2.78-.1,4.16,2.82,10.79,7.6,22.27,15.49,33.14,29.92,41.19,61.7,6.26,80.02,30.33,16.54,21.72-.68,73.86-70.63,69.85-53.18-3.05-73.61-35.3-81.02-63.47-1.93.22-3.88.34-5.85.34-1.97,0-3.92-.12-5.85-.34-7.4,28.17-27.84,60.42-81.02,63.47-69.95,4.01-87.17-48.12-70.63-69.85Z"/>
    <path class="cls-3" d="m529.79,629.69s-43.43,1.57-81.78-18.78c-38.35-20.35-53.22-46.57-53.22-46.57,0,0-.39,42.65,29.35,70.43,29.74,27.78,90,11.74,90,11.74"/>
    <path class="cls-5" d="m454.36,472.24c.08-.06.09.11.13.19.04.09.07.22.09.33.81,3.68.26,7.43.12,11.17-.14,4.05-.09,8.13.22,12.17,1.2,15.95,5.94,31.48,15.01,44.62,4.4,6.48,9.41,11.55,14.66,14.32,10.65,5.55,21.37,2.41,33.78,2.52,6.4,0,13.49.92,19.75,4.09,25.67,13.1,26.98,47.78,12.78,69.32-18.2,29.03-55.14,37.34-87.08,34.12-39.83-3.34-71.52-24.15-85.69-62.35-4.31-12.16-7.32-24.88-7.37-37.77.07-2.56.34-5.13.96-7.68,1.67-6.89,8.61-11.13,15.5-9.46,7.8,1.95,9.81,8.65,10.88,15.56.92,6.02,1.44,12.16,2.92,18.05,4.01,17.68,13.63,34.59,29.31,44.18,1.3.9,3.5,2.01,4.88,2.8,1.47.66,3.69,1.8,5.2,2.34,27.68,11.07,79.51,10.5,89.78-23.76,1.79-6.79,1.41-15.76-4.86-19.5-1.19-.63-3.43-1.13-7.05-1.13-9,.12-19.63,1.6-29.73-.13-11.76-1.7-23.65-8.29-31.76-16.7-18.59-19.09-28.17-45.3-29.98-71.43-.37-5.12-.4-10.24-.19-15.37.18-5.36.76-10.83,3.29-15.69,4.06-16.04,27.24-11.21,24.45,5.19h0Z"/>
    <path class="cls-3" d="m234.74,629.69s43.43,1.57,81.78-18.78c38.35-20.35,53.22-46.57,53.22-46.57,0,0,.39,42.65-29.35,70.43-29.74,27.78-90,11.74-90,11.74"/>
    <path class="cls-5" d="m334.62,467.05c2.53,4.87,3.11,10.33,3.29,15.69.21,5.13.18,10.25-.19,15.37-1.81,26.14-11.4,52.34-29.98,71.43-8.1,8.41-20,15-31.76,16.7-10.09,1.73-20.75.25-29.73.13-3.62,0-5.86.5-7.05,1.13-.63.37-1.21.65-1.85,1.37-2.44,2.5-3.52,5.45-3.88,9.41-.81,13.09,7.89,24.64,19.4,30.94,19.42,10.66,47.99,9.62,68.57,2.6.91-.34,3.14-1.26,4.01-1.58.81-.38,3.02-1.43,3.86-1.82.84-.44,2.89-1.62,3.7-2.04.75-.47,2.75-1.79,3.53-2.27,14.34-9.86,23.13-25.87,26.96-42.67,2.18-8.21,1.96-16.91,4.59-25.05,4.07-12.35,21.63-11.55,24.71.91,2.29,10.15.11,20.48-1.97,30.5-2.34,10.2-5.96,20.15-11.11,29.38-9.11,16.67-23.78,30.39-41.11,38.24-24.82,11.39-58.35,13.56-84.43,5.48-28.23-8.37-51.92-33.86-49.49-65.02,1.9-22.63,18.25-38.96,41.46-38.32,9.39-.01,17.14,1.51,25.28.29,10.3-1.77,16.55-7.76,23.15-17.13,4.46-6.46,7.92-13.55,10.38-21.04,3.76-11.32,5.31-23.73,4.85-35.75-.14-3.74-.69-7.49.12-11.17.03-.11.05-.24.09-.33.04-.07.06-.24.13-.19-2.81-16.29,20.32-21.33,24.45-5.19h0Z"/>
  </g>
  <g>
    <path class="cls-8" d="m215.78,382.87s-83.23,25.02-85.28,68.43,68.43,69.96,70.47,78.64-5.62,37.28,24,43.4c52.09,10.78,68.43-52.09,56.17-82.72-12.26-30.64-65.36-50.55-65.36-50.55l37.79-3.06"/>
    <path class="cls-3" d="m149.39,423.47s-4.6,22.72,4.34,34.47c8.94,11.74,63.83,42.38,70.21,59.49,6.38,17.11-5.36,44.94-5.36,44.94,0,0-4.34-20.68-12.51-28.6-8.17-7.91-72.26-32.43-74.81-64.85"/>
    <path class="cls-5" d="m237.55,588.69c-4.95,0-10.11-.54-15.42-1.64-18.61-3.85-26.91-14.86-30.6-23.41-4.09-9.49-4.11-19.48-4.13-26.09,0-.5,0-1.05,0-1.61-2.43-1.72-6.22-4.12-9.45-6.17-23.66-15.02-63.27-40.16-61.44-79.14,1.07-22.85,17.6-43.78,47.78-60.54,20.84-11.57,41.19-17.39,42.05-17.64,7.44-2.1,15.18,2.22,17.28,9.66,2.1,7.44-2.22,15.18-9.66,17.28-17.64,5.03-68.21,25.46-69.49,52.55-1.07,22.74,29.94,42.42,48.47,54.18,13.14,8.34,19.74,12.53,21.64,20.59.79,3.36.8,6.79.81,10.75.04,14.94,1.75,19.95,12.4,22.15,13.82,2.86,23.93.2,30.9-8.13,10.48-12.51,11.2-34.67,5.86-48.02-8.54-21.35-43.03-44.18-55.6-51.18-6.76-3.76-9.18-12.29-5.42-19.04,3.76-6.76,12.29-9.18,19.04-5.42,5.51,3.07,54.27,30.98,67.98,65.25,8.61,21.52,7.8,54.67-10.39,76.4-10.58,12.63-25.38,19.22-42.62,19.22Z"/>
  </g>
  <g>
    <path class="cls-9" d="m537.73,458.7s30.89-87.32,164.17-114.13c0,0,286.98,30.64,349.79,81.19l40.6,59.74-243.57,52.85"/>
    <path class="cls-2" d="m828.03,504.66s23.49-85.02,98.55-101.87l-225.19-35.23s-76.09,11.23-128.68,82.21l255.32,54.89Z"/>
    <path class="cls-4" d="m576.74,444.52l253.82,52.54c.96-2.62,2.21-5.81,3.78-9.43l-250.34-51.82c-2.46,2.79-4.88,5.69-7.26,8.71Z"/>
    <path class="cls-4" d="m593.1,426.1l247.7,48.13c1.57-2.96,3.3-6.03,5.21-9.17l-243.97-47.4c-3,2.68-5.99,5.49-8.95,8.45Z"/>
    <path class="cls-4" d="m614.25,407.56l-.21,1.16,240.53,43.53c2.19-2.98,4.54-5.95,7.05-8.89l-237.44-42.97c-3.29,2.24-6.6,4.62-9.92,7.17Z"/>
    <path class="cls-4" d="m638.74,391.29l-.13.77,234.63,39.2c3.18-2.94,6.56-5.77,10.15-8.44l-231.18-38.62c-4.35,2.11-8.86,4.46-13.47,7.1Z"/>
    <path class="cls-4" d="m920.12,404.45l-228.41-34.82c-5.41,1.37-12.83,3.53-21.54,6.83l231.23,35.25c5.82-2.88,12.05-5.35,18.72-7.26Z"/>
    <path class="cls-9" d="m964.37,411.98c-111.83,26.81-111.83,119.49-111.83,119.49l237.45-44.43s-19.82-100.43-125.62-75.06Z"/>
    <path class="cls-2" d="m881.9,513.09c8.41-24.66,27.11-60.51,87.64-75.02,9.84-2.36,19.18-3.55,27.77-3.55,24.76,0,44.45,10.07,58.5,29.92,3.33,4.71,6,9.48,8.11,13.88l-182.02,34.78Z"/>
    <path class="cls-4" d="m1056.44,465.34l-168.46,32.79c-1.85,3.83-3.39,7.56-4.71,11.11l178.7-34.79c-1.58-2.97-3.42-6.05-5.53-9.11Z"/>
    <path class="cls-4" d="m1040.66,448.43l-137.31,26.42c-3.46,3.93-6.43,7.93-9,11.92l155.4-29.9c-2.85-3.14-5.88-5.95-9.09-8.43Z"/>
    <path class="cls-4" d="m1009.62,435.41l-72.03,13.86c-8.96,4.36-16.5,9.31-22.88,14.59l115.19-22.16c-6.23-3.09-12.99-5.19-20.28-6.28Z"/>
    <path class="cls-9" d="m853.37,541.36l229.98-47.03.44-2.29,4.08.79.53.71s.13-.18.36-.53l.18.03-55.1,193.26-191.65,68.61-1.64-.63,7.63-214.16,5.19,1.24Z"/>
    <polygon class="cls-9" points="536.75 465.99 848.18 540.12 840.55 754.28 573.14 652 536.75 465.99"/>
    <g>
      <polygon class="cls-2" points="1012.36 668.71 1051.88 527.32 873.96 564.43 868.48 721.25 1012.36 668.71"/>
      <polygon class="cls-4" points="873.5 577.51 1047.91 541.52 1044.83 552.57 873.14 587.99 873.5 577.51"/>
      <polygon class="cls-4" points="872.44 607.95 1040.34 568.62 1037.21 579.82 872.07 618.51 872.44 607.95"/>
      <polygon class="cls-4" points="871.38 638.37 1032.77 595.7 1029.59 607.08 871.01 649.01 871.38 638.37"/>
      <polygon class="cls-4" points="870.32 668.77 1025.2 622.78 1021.96 634.37 869.94 679.5 870.32 668.77"/>
      <polygon class="cls-4" points="1017.64 649.85 1014.33 661.67 868.88 709.98 869.26 699.12 1017.64 649.85"/>
      <polygon class="cls-2" points="822.47 559.99 568.74 498.38 595.01 635.36 816.81 721.89 822.47 559.99"/>
      <g>
        <polygon class="cls-4" points="817.55 700.65 817.18 711.33 594.21 631.18 592.04 619.84 592.11 619.61 817.55 700.65"/>
        <polygon class="cls-4" points="818.35 677.93 588.7 602.44 586.51 591 818.72 667.34 818.35 677.93"/>
        <polygon class="cls-4" points="819.51 644.52 583.18 573.68 581.02 562.4 819.88 633.99 819.51 644.52"/>
        <polygon class="cls-4" points="575.52 533.75 821.05 600.63 820.68 611.08 577.66 544.89 575.52 533.75"/>
        <polygon class="cls-4" points="570.02 505.07 822.21 567.23 821.85 577.64 572.14 516.09 570.02 505.07"/>
      </g>
    </g>
    <path class="cls-7" d="m1087.87,492.83l.53.71s.13-.18.36-.53l-.89-.18Z"/>
    <path class="cls-5" d="m842.19,768.91c-1.7,0-3.39-.31-5-.92l-269.05-102.91c-4.51-1.72-7.81-5.65-8.74-10.39l-36.39-186.01c-1.48-7.59,3.46-14.94,11.05-16.43,7.59-1.48,14.94,3.46,16.43,11.05l34.9,178.39,256.96,98.29,179.99-64.44,53.13-186.34c2.12-7.44,9.87-11.74,17.3-9.62,7.44,2.12,11.75,9.87,9.62,17.3l-55.1,193.26c-1.24,4.34-4.49,7.82-8.74,9.34l-191.65,68.61c-1.53.55-3.12.82-4.72.82Z"/>
    <path class="cls-5" d="m853.37,555.36c-1.09,0-2.18-.13-3.24-.38l-316.62-75.37c-7.52-1.79-12.17-9.34-10.38-16.86s9.34-12.17,16.86-10.38l313.6,74.65,226.94-46.41c7.58-1.55,14.97,3.34,16.52,10.91,1.55,7.58-3.34,14.97-10.91,16.52l-229.98,47.03c-.93.19-1.87.28-2.8.28Z"/>
    <path class="cls-5" d="m842.2,760.21c-.13,0-.27,0-.41,0-7.73-.22-13.82-6.66-13.6-14.39l5.59-196.48c.22-7.73,6.66-13.83,14.39-13.6,7.73.22,13.82,6.66,13.6,14.39l-5.59,196.48c-.22,7.59-6.44,13.6-13.99,13.6Z"/>
    <path class="cls-5" d="m852.54,545.5c-7.73,0-14-6.3-14-14.03,0-1.09.18-26.97,15.59-56.22,14.1-26.76,44.11-61.81,106.97-76.88,36.16-8.67,67.34-4.83,92.66,11.42,39.89,25.58,49.56,72.56,49.95,74.55,1.5,7.58-3.44,14.95-11.02,16.45-7.57,1.5-14.92-3.42-16.44-10.98-.14-.67-8.1-37.66-37.81-56.57-18.63-11.86-42.46-14.43-70.82-7.63-41.76,10.01-71.41,30.73-88.13,61.59-12.61,23.28-12.96,44.14-12.96,44.35,0,7.73-6.27,13.97-14,13.97Z"/>
    <path class="cls-5" d="m537.74,472.74c-1.56,0-3.14-.26-4.69-.81-7.29-2.58-11.1-10.61-8.52-17.9.36-1.01,9.04-25.02,35.25-52.08,23.63-24.4,66.99-56.54,139.36-71.1,1.4-.28,2.83-.35,4.25-.2.72.08,73.13,7.87,152.28,21.77,107.99,18.96,176.89,39.97,204.8,62.44,6.02,4.85,6.98,13.66,2.13,19.68-4.85,6.02-13.66,6.97-19.68,2.13-48.44-38.99-259.96-69.22-340.34-77.94-63.21,13.15-100.96,40.67-121.55,61.55-22.52,22.84-30.04,42.96-30.11,43.16-2.03,5.74-7.41,9.3-13.17,9.3Z"/>
    <g>
      <path class="cls-6" d="m663.91,462.81l-1.97,16.9c-.26,2.23,1.19,4.31,3.38,4.82l43.65,10.29c2.52.59,5.01-1.09,5.39-3.65l2.5-16.57c.34-2.27-1.11-4.43-3.34-4.96l-44.18-10.62c-2.58-.62-5.12,1.15-5.43,3.79Z"/>
      <path class="cls-5" d="m709.98,500.94c-.8,0-1.59-.09-2.38-.28l-43.65-10.29c-5.15-1.21-8.58-6.1-7.96-11.36l1.97-16.9c.34-2.96,1.94-5.64,4.39-7.34s5.51-2.29,8.41-1.59l44.18,10.62c5.3,1.28,8.69,6.3,7.87,11.69l-2.5,16.57c-.43,2.87-2.06,5.45-4.47,7.08-1.74,1.17-3.78,1.79-5.85,1.79Zm-41.92-21.92l40.63,9.57,2.03-13.45-41.05-9.87-1.6,13.75Zm1.81-15.51h0s0,0,0,0Zm-5.96-.69h0,0Z"/>
    </g>
    <g>
      <path class="cls-6" d="m682.34,521.5c-.32-.01-.65-.04-.97-.08-5.47-.73-9.32-5.75-8.6-11.23l4.19-31.53c.73-5.47,5.76-9.33,11.23-8.6,5.47.73,9.32,5.75,8.6,11.23l-4.19,31.53c-.68,5.15-5.17,8.86-10.26,8.68Z"/>
      <path class="cls-5" d="m682.71,527.51c-.19,0-.39,0-.58-.01-.52-.02-1.05-.06-1.56-.13-4.22-.56-7.99-2.74-10.59-6.13s-3.72-7.6-3.16-11.83l4.19-31.53c.56-4.24,2.74-8,6.14-10.6,3.4-2.6,7.6-3.72,11.83-3.15,4.23.56,7.99,2.74,10.59,6.13s3.72,7.6,3.16,11.83l-4.19,31.53c-1.06,8.02-7.82,13.89-15.83,13.9Zm4.15-51.53c-.87,0-1.71.28-2.42.82-.85.65-1.4,1.59-1.54,2.65l-4.19,31.53c-.14,1.06.14,2.11.79,2.96.65.85,1.59,1.39,2.65,1.53.14.02.26.03.38.03,0,0,0,0,.01,0,2.05.09,3.82-1.42,4.09-3.47l4.19-31.53c.14-1.06-.14-2.11-.79-2.96-.65-.85-1.59-1.39-2.65-1.53-.18-.02-.36-.04-.54-.04Z"/>
    </g>
    <g>
      <path class="cls-6" d="m707.98,498.82l-48.43-6.06-.66,47.44s14.64,11.43,48.05,7.34l1.05-48.72Z"/>
      <path class="cls-5" d="m692.89,556.93c-25.52,0-37.72-8.85-39.23-10.03-2.1-1.64-3.31-4.16-3.27-6.82l.66-47.44c.03-2.42,1.1-4.71,2.92-6.29,1.82-1.59,4.23-2.32,6.64-2.02l48.43,6.06c4.32.54,7.54,4.26,7.44,8.62l-1.05,48.72c-.09,4.22-3.27,7.74-7.47,8.25-5.47.67-10.49.95-15.07.95Zm-25.44-21.67c4.87,2.18,15,5.4,31.14,4.5l.72-33.45-31.4-3.93-.46,32.88Z"/>
    </g>
    <g>
      <g>
        <path class="cls-5" d="m607.23,534.23l-3.16,2.44c-1.21-4.14-2.63-6.43-4.25-6.83-1.72-.43-2.3.89-1.75,3.93.22,1.2.56,2.26,1.03,3.18.47.91,1.32,1.82,2.55,2.73,2.07,1.52,3.64,2.92,4.7,4.21,1.06,1.28,2.1,3.16,3.11,5.64,1,2.47,1.74,5.11,2.23,7.93.75,4.38.75,7.95.02,10.72s-2.33,3.73-4.79,2.99c-1.84-.55-3.59-2.11-5.27-4.67-1.68-2.57-3.13-6.07-4.36-10.55l3.45-1.25c1.26,4.6,2.88,7.17,4.89,7.75.97.28,1.61,0,1.92-.86.31-.86.34-1.98.09-3.37s-.66-2.58-1.24-3.49c-.58-.91-1.55-1.88-2.93-2.91-2.55-1.92-4.52-4.13-5.91-6.63-1.39-2.5-2.5-5.93-3.31-10.3-.83-4.46-.94-8.11-.33-10.94.62-2.85,1.96-4.05,4.03-3.56,3.7.87,6.8,5.53,9.26,13.87Z"/>
        <path class="cls-5" d="m624.24,527.35l4.92,32.16c.76,5,1.11,8.61,1.03,10.88-.08,2.25-.59,3.96-1.53,5.13-.94,1.16-2.32,1.46-4.13.91-1.81-.54-3.35-1.64-4.63-3.31-1.28-1.66-2.4-3.82-3.35-6.48-.95-2.67-1.84-6.45-2.67-11.37l-5.34-31.65,4.93,1.17,5.21,31.81c.43,2.65.84,4.61,1.21,5.9.37,1.29.87,2.36,1.5,3.23.63.87,1.32,1.41,2.07,1.63.84.24,1.46.08,1.87-.48s.62-1.41.6-2.55c-.01-1.14-.24-3.11-.68-5.92l-5.03-32.03,4.01.95Z"/>
        <path class="cls-5" d="m637.57,562.13l2.65,18.31-4.64-1.39-7.59-50.8,8.07,1.91c1.82.43,3.29,1.27,4.41,2.53,1.11,1.25,2.23,3.27,3.35,6.06,1.11,2.78,1.92,6.04,2.41,9.75.35,2.59.48,5.05.4,7.38-.08,2.31-.39,4.06-.93,5.23-.54,1.17-1.12,1.88-1.74,2.14-.62.26-1.64.19-3.08-.21l-3.3-.92Zm-1.5-9.27l3.07.82c1.18.31,1.91-.16,2.2-1.42.29-1.27.3-2.81.05-4.62-.29-2.13-.8-3.89-1.51-5.29-.71-1.4-1.62-2.24-2.71-2.51l-3.1-.77,2,13.8Z"/>
        <path class="cls-5" d="m656.04,567.25l2.33,18.63-4.86-1.45-6.74-51.72,8.46,2.01c1.91.45,3.44,1.32,4.59,2.6,1.14,1.28,2.27,3.35,3.38,6.2,1.1,2.84,1.87,6.16,2.3,9.95.3,2.64.38,5.14.24,7.51-.14,2.35-.51,4.12-1.12,5.31-.6,1.18-1.23,1.9-1.89,2.16-.66.26-1.74.17-3.24-.24l-3.46-.96Zm-1.35-9.44l3.22.86c1.24.33,2.02-.15,2.35-1.43.33-1.29.39-2.85.17-4.7-.26-2.17-.74-3.97-1.46-5.4s-1.65-2.29-2.8-2.58l-3.25-.81,1.76,14.06Z"/>
        <path class="cls-5" d="m675.22,571.3l2.12,20.25-5.04-1.51-5.81-52.67,9.93,2.35c1.86.44,3.41,1.33,4.64,2.66,1.23,1.33,2.36,3.5,3.36,6.49s1.66,6.17,1.97,9.55c.6,6.53-.29,10.8-2.64,12.87l6.25,24.05-5.69-1.71-5.39-21.32-3.69-1.02Zm-2.39-22.8l1.45,13.79,3.19.85c1.05.28,1.79.3,2.23.07.44-.23.79-.9,1.04-2.03s.31-2.49.15-4.08-.47-2.93-.96-4.23-.98-2.15-1.45-2.55c-.47-.39-1.32-.74-2.53-1.04l-3.11-.77Z"/>
        <path class="cls-5" d="m707.04,557.72l-11.41-2.85.92,11.34,8.84,2.32.73,10.25-8.75-2.4.93,11.52,11.03,3.18.71,10.28-16.27-4.87-4.67-53.74,17.18,4.07.75,10.9Z"/>
        <path class="cls-5" d="m727.79,564.56l-4.84,2.53c-.91-4.68-2.46-7.3-4.63-7.84-2.3-.57-3.35.86-3.14,4.26.08,1.35.36,2.55.85,3.59.48,1.04,1.49,2.1,3.03,3.17,2.59,1.81,4.5,3.46,5.74,4.94,1.24,1.48,2.33,3.63,3.26,6.43.93,2.79,1.47,5.76,1.61,8.9.23,4.88-.43,8.8-1.96,11.79-1.51,2.96-3.9,3.93-7.16,2.95-2.43-.73-4.56-2.55-6.41-5.47-1.85-2.92-3.21-6.87-4.08-11.87l4.99-1.16c.89,5.14,2.66,8.07,5.32,8.84,1.29.37,2.22.1,2.8-.82.58-.92.83-2.16.75-3.7s-.44-2.89-1.07-3.92c-.63-1.04-1.8-2.17-3.51-3.4-3.17-2.28-5.48-4.84-6.95-7.69-1.47-2.85-2.36-6.71-2.69-11.59s.17-9.06,1.54-12.17c1.38-3.15,3.46-4.41,6.24-3.75,4.97,1.17,8.43,6.54,10.29,15.98Z"/>
        <path class="cls-5" d="m750.51,570.28l-5.19,2.53c-.84-4.77-2.41-7.46-4.69-8.02-2.42-.6-3.57.84-3.44,4.32.05,1.38.32,2.6.8,3.66.48,1.06,1.52,2.15,3.13,3.26,2.69,1.87,4.67,3.56,5.94,5.08,1.27,1.52,2.37,3.72,3.28,6.58.91,2.85,1.4,5.87,1.47,9.07.11,4.96-.69,8.95-2.39,11.98-1.68,2.99-4.23,3.95-7.65,2.93-2.55-.77-4.75-2.64-6.63-5.62-1.88-2.99-3.21-7.01-4-12.1l5.3-1.13c.81,5.23,2.6,8.23,5.39,9.04,1.36.39,2.35.13,2.99-.8.64-.93.94-2.19.89-3.76-.05-1.61-.39-2.94-1.03-4-.64-1.06-1.85-2.22-3.62-3.49-3.29-2.35-5.67-4.98-7.15-7.88-1.48-2.92-2.32-6.85-2.54-11.83s.42-9.23,1.95-12.39c1.54-3.2,3.78-4.46,6.71-3.77,5.24,1.24,8.75,6.74,10.47,16.37Z"/>
        <path class="cls-5" d="m775.1,574.71l-13.28-3.32.12,12,10.27,2.7v10.83s-10.16-2.79-10.16-2.79l.13,12.14,12.77,3.68-.05,10.82-18.79-5.63-.99-56.75,20.02,4.75-.05,11.56Z"/>
        <path class="cls-5" d="m779.2,564.11l8.91,2.11c3.68.87,6.41,2.6,8.18,5.18,1.76,2.58,3.3,6.34,4.59,11.26,1.29,4.89,1.81,10.73,1.57,17.47-.29,8.34-1.75,14.83-4.34,19.55-2.55,4.63-5.88,6.3-9.99,5.06l-9.41-2.82.49-57.81Zm6.52,12.85l-.58,36.46,2.69.78c2.39.69,4.21-.59,5.48-3.86s1.99-7.45,2.12-12.45c.1-3.56-.16-6.97-.77-10.22-.61-3.27-1.42-5.67-2.42-7.18-1-1.51-2.22-2.45-3.66-2.81l-2.87-.71Z"/>
      </g>
      <g>
        <path class="cls-5" d="m640.73,612.85l-4.48-.88c-1.04-6.33-2.56-9.85-4.54-10.51-2.27-.75-2.61,3.75-1.07,13.33.88,5.44,1.76,9.2,2.67,11.32s1.89,3.36,2.97,3.76c1.76.64,2.42-1.65,1.98-6.93l4.29,2.09c.5,5.06.26,8.64-.7,10.77-.96,2.11-2.4,2.8-4.34,2.07-2.37-.88-4.59-3.49-6.68-7.85-2.1-4.38-3.73-10.01-4.88-16.95-1.1-6.6-1.28-11.84-.53-15.68.76-3.89,2.43-5.45,5.02-4.62,4.53,1.44,7.99,8.22,10.31,20.09Z"/>
        <path class="cls-5" d="m654.31,644.15c-2.51-.94-4.75-3.79-6.74-8.58-2-4.82-3.46-10.35-4.39-16.64-.96-6.49-1.06-11.74-.28-15.73.79-4.04,2.52-5.65,5.22-4.79,2.74.87,5.15,3.99,7.2,9.3s3.44,10.95,4.22,16.99c.83,6.44.82,11.54-.02,15.33-.83,3.75-2.57,5.1-5.2,4.12Zm-4.99-36.88c-2.38-.78-2.86,3.74-1.49,13.4s3.16,14.55,5.47,15.39c2.25.82,2.75-3.44,1.47-12.95-1.31-9.74-3.14-15.08-5.46-15.84Z"/>
        <path class="cls-5" d="m675.43,607.84l4.95,45.42-3.97-1.48-11.32-32.72c.11.79.18,1.3.22,1.55.13.79.23,1.46.3,1.99l3.22,26.36-3.53-1.31-5.66-44.85,5.12,1.64,10.08,29.52c-.21-1.34-.35-2.35-.43-3.03l-2.75-24.28,3.77,1.21Z"/>
        <path class="cls-5" d="m693.27,613.54l.85,9.51-5.32-1.76,3.46,36.39-4.85-1.81-3.66-36.25-5.22-1.73-1-9.39,15.73,5.03Z"/>
        <path class="cls-5" d="m704.81,617.24l10.28,48.95-5.42-2.02-2.02-9.64-6.91-2.5-.55,8.62-4.28-1.59,2.85-43.74,6.04,1.93Zm-3.57,26.87l4.57,1.61-3.59-17.16-.98,15.55Z"/>
        <path class="cls-5" d="m733.31,644.35l-5.68-1.21c-.43-6.82-1.89-10.68-4.37-11.5-2.83-.93-3.91,3.86-3.28,14.17.36,5.84.97,9.89,1.83,12.2s1.96,3.69,3.29,4.18c2.18.79,3.36-1.6,3.55-7.23l5.25,2.5c-.09,5.41-.91,9.2-2.47,11.39-1.54,2.17-3.51,2.8-5.91,1.91-2.93-1.09-5.41-4-7.49-8.75-2.09-4.78-3.39-10.86-3.89-18.31-.48-7.1.02-12.71,1.54-16.77,1.54-4.12,3.92-5.7,7.16-4.66,5.66,1.81,9.18,9.27,10.47,22.1Z"/>
        <path class="cls-5" d="m751.26,632.1l.23,9.94-6.07-2.01,1.16,37.9-5.49-2.05-1.4-37.75-5.94-1.97-.43-9.81,17.95,5.74Z"/>
        <path class="cls-5" d="m771.91,649.9l-5.09,1.63c-.7-4.18-2.16-6.64-4.36-7.36-2.34-.77-3.48.35-3.44,3.34.02,1.18.25,2.26.69,3.22.44.96,1.43,2,2.96,3.12,2.57,1.88,4.45,3.54,5.65,4.98,1.2,1.44,2.21,3.43,3.03,5.98.82,2.54,1.22,5.19,1.22,7.94,0,4.28-.88,7.63-2.59,10.06-1.7,2.4-4.2,2.98-7.5,1.74-2.46-.92-4.56-2.76-6.32-5.52-1.76-2.77-2.96-6.37-3.6-10.83l5.18-.43c.66,4.58,2.33,7.35,5.03,8.33,1.31.48,2.28.35,2.92-.39.64-.74.96-1.78.95-3.14s-.31-2.57-.91-3.54c-.6-.98-1.74-2.1-3.43-3.37-3.15-2.36-5.39-4.86-6.76-7.51-1.37-2.66-2.1-6.12-2.19-10.42-.09-4.39.63-7.87,2.18-10.41,1.57-2.57,3.77-3.42,6.59-2.52,5.04,1.61,8.32,6.68,9.77,15.11Z"/>
      </g>
    </g>
    <g>
      <g>
        <path class="cls-6" d="m714.82,333.38c-3.44-1.36-6.85-2.71-10.26-4-3.36-1.3-6.7-2.56-10.02-3.79-6.53-2.43-15.35-.18-19.67,4.88l-4.49,5.23c-4.29,5.01-2.87,11.02,3.16,13.55,3.08,1.29,6.17,2.59,9.26,3.94,3.14,1.34,6.26,2.73,9.41,4.12,6.33,2.82,15.56,1.09,20.63-3.99l5.3-5.34c5.17-5.18,3.65-11.81-3.32-14.59Zm-6.14,10.52l-5.09,5.33c-1.1,1.15-3.18,1.57-4.65.94-3.24-1.39-6.44-2.76-9.66-4.09-3.17-1.33-6.34-2.62-9.48-3.9-1.4-.57-1.73-1.96-.72-3.09l4.64-5.26c1.01-1.15,3.01-1.63,4.45-1.06,3.24,1.25,6.51,2.52,9.79,3.84,3.32,1.31,6.64,2.67,10,4.04,1.52.62,1.85,2.08.74,3.25Z"/>
        <path class="cls-5" d="m699.04,361.65c-2.83,0-5.6-.52-8.05-1.61l-1.14-.51c-2.75-1.22-5.48-2.43-8.22-3.6-3.39-1.47-6.72-2.87-9.24-3.93-3.82-1.6-6.38-4.41-7.2-7.9-.83-3.51.21-7.19,2.92-10.37l4.49-5.23c5.21-6.08,15.31-8.6,23-5.74,3.94,1.46,7.14,2.67,10.06,3.8,2.97,1.13,5.96,2.31,8.98,3.5l1.29.51s0,0,0,0c4.35,1.73,7.29,4.91,8.08,8.72.77,3.7-.6,7.63-3.74,10.78l-5.29,5.34c-4,4-10.09,6.23-15.93,6.23Zm-10.27-34.05c-4.39,0-9.04,1.8-11.63,4.81l-4.49,5.23c-1.43,1.68-2.02,3.48-1.64,5.08.37,1.58,1.68,2.91,3.68,3.75,2.54,1.06,5.89,2.47,9.3,3.95,2.75,1.17,5.51,2.39,8.28,3.62l1.15.51c5.23,2.33,13.15.79,17.29-3.37l5.29-5.34c1.72-1.72,2.47-3.61,2.12-5.33-.37-1.8-1.98-3.38-4.41-4.35l-1.29-.51c-2.99-1.18-5.96-2.35-8.93-3.48-2.91-1.13-6.08-2.33-10-3.78-1.45-.54-3.07-.8-4.72-.8Zm11.67,25.86c-.93,0-1.84-.17-2.68-.52l-1.23-.53c-2.81-1.2-5.6-2.4-8.4-3.55-3.49-1.47-6.89-2.85-9.47-3.89-1.58-.64-2.7-1.89-3.06-3.42-.36-1.54.08-3.15,1.21-4.43l4.64-5.26c1.83-2.08,5.18-2.89,7.79-1.88,3.94,1.52,6.97,2.7,9.82,3.85,2.88,1.13,5.77,2.32,8.69,3.51l1.32.54c1.66.67,2.82,1.98,3.16,3.58.34,1.59-.16,3.23-1.39,4.51l-5.09,5.33c-1.33,1.39-3.34,2.16-5.32,2.16Zm-18.14-13.49c2.37.96,5.23,2.13,8.14,3.35,2.81,1.16,5.62,2.36,8.46,3.58l1.22.52c.32.13,1.06,0,1.3-.26l4.07-4.27h-.01c-2.89-1.19-5.76-2.36-8.64-3.49-2.85-1.14-5.85-2.32-9.77-3.83-.3-.12-.95.06-1.12.25l-3.66,4.15Zm24.21,1.86l2.17,2.07-2.17-2.07s0,0,0,0h0Z"/>
      </g>
      <g>
        <path class="cls-6" d="m761.23,355.14l-9.89-5.59-9.84-5.51c-1.64-.91-3.39-1.47-5.3-1.73-1.9-.26-3.84-.2-5.72.16-3.74.71-7.19,2.69-9.52,5.62l-4.84,6.11c-2.33,2.94-3.11,6.3-2.62,9.37.25,1.53.84,2.99,1.75,4.28.9,1.28,2.21,2.48,3.8,3.39l9.65,5.54,9.68,5.61c6.44,3.76,15.71,2.1,20.67-3.73l5.15-6.07c4.97-5.84,3.62-13.69-2.98-17.45Zm-6.2,12.12l-5.1,6.07c-1.11,1.32-3.2,1.7-4.66.85l-9.74-5.61-9.71-5.53c-1.45-.82-1.75-2.56-.67-3.88l4.99-6.06c1.08-1.31,3.15-1.72,4.61-.9l9.78,5.52,9.83,5.6c1.48.84,1.78,2.6.67,3.92Z"/>
        <path class="cls-5" d="m746.1,387.38c-3.24,0-6.45-.77-9.22-2.39l-19.31-11.14c-1.91-1.09-3.56-2.56-4.76-4.26-1.17-1.65-1.93-3.51-2.26-5.52-.66-4.1.49-8.26,3.22-11.72l4.84-6.11c2.74-3.46,6.75-5.84,11.31-6.71,2.21-.43,4.46-.49,6.69-.19,2.32.32,4.4,1,6.35,2.08l19.75,11.11s0,0,0,0c3.97,2.26,6.56,5.81,7.29,9.98.74,4.22-.5,8.48-3.51,12.01l-5.15,6.07c-3.73,4.38-9.54,6.77-15.24,6.77Zm-12.27-42.23c-.93,0-1.86.09-2.78.27-3.1.59-5.92,2.25-7.74,4.54l-4.84,6.11c-1.68,2.12-2.39,4.62-2.01,7.03.18,1.1.6,2.12,1.24,3.02.68.97,1.69,1.86,2.83,2.51l19.35,11.17c5.17,3.02,12.89,1.6,16.88-3.08l5.15-6.07c1.83-2.15,2.6-4.67,2.17-7.09-.42-2.38-1.96-4.45-4.35-5.81l-19.71-11.09c-1.28-.71-2.67-1.16-4.25-1.38-.65-.09-1.3-.13-1.95-.13Zm13.17,32.48c-1.12,0-2.25-.27-3.23-.84l-19.44-11.13c-1.45-.82-2.45-2.2-2.74-3.79-.3-1.6.16-3.28,1.24-4.6l4.99-6.06c1.99-2.42,5.68-3.13,8.4-1.6l19.62,11.12c1.47.84,2.48,2.24,2.77,3.84.29,1.62-.18,3.3-1.29,4.62l-5.1,6.07c-1.29,1.54-3.26,2.37-5.22,2.37Zm-19.23-16.92l18.99,10.88c.19.11.69.03.87-.18l4.8-5.71-19.15-10.86c-.18-.1-.65-.02-.82.19l-4.68,5.69Z"/>
      </g>
      <g>
        <path class="cls-6" d="m808.52,383l-10.05-6.11-10.03-5.98c-6.65-3.92-16.09-2.31-21.06,3.54l-5.17,6.07c-4.96,5.84-3.75,13.72,2.68,17.61l9.71,5.94,9.7,6.05c6.44,4.05,15.95,2.72,21.25-3.06l5.5-6.02c5.3-5.78,4.19-13.93-2.52-18.04Zm-6.72,12.22l-5.42,6.04c-1.18,1.31-3.33,1.63-4.8.7l-9.8-6.07-9.81-5.95c-1.47-.88-1.74-2.67-.61-3.98l5.23-6.07c1.14-1.32,3.27-1.67,4.76-.79l9.93,5.97,9.94,6.09c1.49.93,1.75,2.75.57,4.06Z"/>
        <path class="cls-5" d="m792.82,415.48c-3.56,0-7.09-.92-10.12-2.83l-9.69-6.04-9.69-5.92c-3.83-2.32-6.31-5.89-6.99-10.04-.69-4.24.59-8.53,3.59-12.07l5.17-6.07c5.88-6.93,17.04-8.8,24.87-4.18l10.04,5.99,10.07,6.13s0,0,0,0c4.02,2.46,6.56,6.2,7.17,10.53.6,4.27-.86,8.68-4,12.1l-5.49,6.01c-3.84,4.18-9.41,6.4-14.94,6.4Zm-12.52-43.71c-4.01,0-8.1,1.63-10.64,4.62l-5.17,6.07c-1.85,2.17-2.64,4.74-2.24,7.21.39,2.4,1.88,4.49,4.19,5.88l9.72,5.95,9.72,6.06c5.29,3.33,13.12,2.18,17.45-2.54l5.5-6.01c1.96-2.13,2.84-4.69,2.49-7.22-.35-2.52-1.9-4.73-4.36-6.24l-10.04-6.11-10.01-5.97c-1.96-1.16-4.27-1.71-6.6-1.71Zm13.18,33.71c-1.23,0-2.45-.32-3.5-.98l-9.79-6.06-9.78-5.94c-1.44-.86-2.42-2.28-2.68-3.89-.26-1.62.23-3.31,1.36-4.61l5.23-6.07c2.07-2.41,5.83-3.03,8.56-1.41l9.95,5.98,9.97,6.11c1.48.92,2.45,2.38,2.69,4.01.23,1.64-.3,3.32-1.45,4.61l-5.42,6.04c-1.3,1.45-3.22,2.22-5.12,2.22Zm-19.58-17.88l9.43,5.73,9.83,6.08c.23.15.77.08.98-.16l5.16-5.75-9.59-5.88-9.91-5.96c-.22-.13-.76-.04-.94.18l-4.96,5.76Z"/>
      </g>
      <g>
        <path class="cls-6" d="m856.1,413.9c-3.34-2.3-6.67-4.6-10.04-6.83-3.34-2.26-6.69-4.47-10.06-6.67-6.68-4.38-16.47-3.11-21.76,2.67l-5.53,6.01c-5.31,5.8-4.39,13.89,1.97,18.16,3.22,2.15,6.42,4.32,9.6,6.52,3.21,2.19,6.38,4.42,9.56,6.66,6.32,4.48,16.1,3.63,21.88-1.98l5.99-5.86c5.79-5.63,5.09-14.06-1.6-18.68Zm-7.53,12.17l-5.88,5.9c-1.27,1.28-3.5,1.49-4.95.48-3.23-2.26-6.44-4.51-9.7-6.72-3.23-2.22-6.48-4.4-9.74-6.56-1.46-.97-1.65-2.82-.44-4.12l5.62-5.99c1.22-1.3,3.42-1.56,4.9-.58,3.32,2.18,6.63,4.38,9.92,6.62,3.32,2.22,6.6,4.5,9.89,6.78,1.48,1.03,1.66,2.9.37,4.19Z"/>
        <path class="cls-5" d="m839.33,446.32c-4,0-7.96-1.13-11.24-3.45l-.9-.63c-2.81-1.98-5.72-4.03-8.61-6-2.9-2.01-6.02-4.13-9.58-6.5-3.79-2.55-6.15-6.29-6.66-10.54-.52-4.34.95-8.65,4.15-12.14l5.53-6.02c6.29-6.87,17.78-8.28,25.62-3.14,3.72,2.42,7.02,4.61,10.09,6.69,3.17,2.1,6.37,4.31,9.46,6.44l.6.41s0,0,0,0c3.99,2.76,6.39,6.74,6.76,11.21.37,4.45-1.33,8.74-4.78,12.1l-5.98,5.85c-3.89,3.78-9.21,5.73-14.47,5.73Zm-12.45-45.53c-3.91,0-7.86,1.49-10.43,4.3l-5.53,6.02c-1.99,2.17-2.92,4.79-2.61,7.37.3,2.49,1.73,4.72,4.04,6.27,3.58,2.39,6.73,4.53,9.64,6.54,2.91,1.98,5.84,4.04,8.67,6.04l.9.64c5.21,3.7,13.31,2.94,18.06-1.68l5.98-5.85c2.15-2.09,3.21-4.68,2.99-7.3-.22-2.64-1.71-5.04-4.19-6.77l-.6-.41c-3.08-2.12-6.25-4.31-9.4-6.39-3.06-2.07-6.34-4.24-10.03-6.65-2.18-1.43-4.82-2.12-7.48-2.12Zm12.98,35.29c-1.36,0-2.72-.39-3.85-1.18l-.76-.54c-2.91-2.03-5.91-4.14-8.89-6.15-2.93-2.02-6.1-4.15-9.72-6.55-1.43-.95-2.35-2.43-2.54-4.07-.19-1.65.38-3.33,1.57-4.6l5.62-5.99c2.21-2.36,6.05-2.81,8.75-1.03,3.7,2.43,6.96,4.61,9.95,6.65,3.08,2.06,6.18,4.21,9.19,6.29l.72.5c1.44,1,2.35,2.53,2.5,4.19.15,1.67-.47,3.34-1.71,4.58l-5.88,5.9c-1.31,1.31-3.13,1.99-4.94,1.99Zm-19.61-19.21c3.52,2.33,6.62,4.43,9.47,6.39,3,2.03,6.03,4.15,8.95,6.19l.77.54c.24.17.84.13,1.11-.14l5.66-5.68-.46-.32c-2.99-2.07-6.07-4.21-9.13-6.25-2.99-2.04-6.22-4.19-9.9-6.61-.27-.18-.85-.11-1.07.12l-5.4,5.76Z"/>
      </g>
      <g>
        <path class="cls-6" d="m906.66,453.2c-.82-1.64-2.08-3.13-3.7-4.43l-9.78-7.74c-3.25-2.56-6.61-5.01-9.89-7.51-3.29-2.46-7.43-3.59-11.52-3.32-4.08.27-8.04,1.85-10.94,4.66l-6.03,5.84c-2.9,2.81-4.23,6.31-4.07,9.67.16,3.37,1.73,6.69,4.84,9.07,3.1,2.42,6.27,4.78,9.34,7.25l9.22,7.47c1.53,1.25,3.33,2.15,5.22,2.75,1.88.62,3.89.91,5.92.87,4.06-.07,8.17-1.45,11.33-4.13l6.57-5.59c3.16-2.69,4.75-6.2,4.72-9.72-.01-1.76-.42-3.51-1.23-5.17Zm-12.31,7.54l-6.46,5.64c-1.4,1.22-3.69,1.29-5.1.16l-9.39-7.55c-3.12-2.5-6.35-4.89-9.5-7.33-1.42-1.09-1.49-3-.16-4.25l6.14-5.79c1.33-1.26,3.6-1.38,5.06-.28,3.23,2.47,6.53,4.89,9.72,7.43l9.61,7.66c1.45,1.15,1.48,3.09.08,4.31Z"/>
        <path class="cls-5" d="m884.91,480.8c-2.25,0-4.44-.34-6.5-1.02-2.34-.74-4.43-1.85-6.18-3.28l-9.21-7.47c-1.93-1.56-3.96-3.12-5.92-4.62-1.13-.86-2.25-1.73-3.37-2.6-3.65-2.79-5.78-6.81-5.99-11.29-.21-4.4,1.56-8.66,4.98-11.97l6.03-5.84c3.32-3.22,7.88-5.18,12.83-5.5,4.91-.33,9.71,1.07,13.51,3.91,1.17.89,2.33,1.76,3.49,2.63,2.13,1.59,4.33,3.24,6.46,4.93l9.78,7.74c1.98,1.58,3.5,3.4,4.52,5.43v.03c1.02,2.05,1.54,4.23,1.55,6.47.03,4.56-2.02,8.83-5.78,12.03l-6.57,5.58c-3.57,3.03-8.27,4.75-13.22,4.84-.14,0-.27,0-.41,0Zm-11.94-47.63c-.33,0-.67.01-1.01.03-3.53.23-6.74,1.59-9.05,3.82l-6.03,5.84c-2.16,2.1-3.29,4.72-3.16,7.38.13,2.69,1.43,5.11,3.67,6.82,1.12.88,2.24,1.73,3.35,2.58,1.99,1.53,4.05,3.1,6.05,4.72l9.22,7.48c1.17.96,2.6,1.7,4.24,2.23,1.58.52,3.24.75,4.96.73,3.57-.07,6.93-1.28,9.44-3.42l6.57-5.58c2.38-2.02,3.69-4.66,3.67-7.41,0-1.32-.32-2.62-.92-3.85-.63-1.24-1.6-2.39-2.89-3.42l-9.77-7.73c-2.07-1.63-4.24-3.26-6.34-4.83-1.17-.88-2.35-1.76-3.51-2.64-2.38-1.78-5.37-2.75-8.5-2.75Zm12.24,37.17c-1.55,0-3.09-.49-4.3-1.47l-9.38-7.55c-1.98-1.58-4.05-3.16-6.05-4.69-1.14-.87-2.28-1.73-3.41-2.61-1.35-1.04-2.19-2.59-2.27-4.25-.09-1.68.6-3.35,1.89-4.56l6.14-5.79c2.39-2.26,6.31-2.47,8.93-.49,1.14.87,2.28,1.73,3.42,2.59,2.1,1.58,4.26,3.21,6.36,4.88l9.61,7.66c1.38,1.1,2.2,2.71,2.24,4.4.04,1.7-.71,3.35-2.05,4.52l-6.46,5.64c-1.29,1.13-2.98,1.7-4.66,1.7Zm-19.27-20.9c1.06.82,2.11,1.62,3.16,2.42,2.03,1.55,4.14,3.15,6.17,4.78l9.39,7.56c.26.21.92.2,1.25-.08l6.29-5.5-9.42-7.51c-2.04-1.62-4.17-3.23-6.24-4.79-1.15-.87-2.3-1.73-3.44-2.61-.28-.21-.91-.17-1.18.08l-5.99,5.65Z"/>
      </g>
      <g>
        <path class="cls-6" d="m951.69,492.65c-.73-1.72-1.88-3.36-3.45-4.8l-9.4-8.63c-3.14-2.85-6.37-5.6-9.54-8.4-3.18-2.75-7.31-4.22-11.54-4.21-4.21,0-8.38,1.35-11.56,4.03l-6.61,5.57c-3.18,2.68-4.8,6.16-4.89,9.62-.07,3.45,1.26,6.97,4.25,9.63,2.98,2.69,6.03,5.35,8.99,8.09l8.84,8.32c1.47,1.39,3.23,2.45,5.13,3.19,1.87.77,3.91,1.21,5.98,1.31,4.15.21,8.47-.9,11.91-3.43l7.16-5.26c3.45-2.53,5.34-6.02,5.59-9.63.13-1.8-.16-3.64-.86-5.39Zm-13.19,6.87l-7.04,5.33c-1.53,1.16-3.88,1.06-5.23-.2l-9.01-8.41c-3.01-2.78-6.11-5.46-9.15-8.19-1.37-1.22-1.29-3.18.16-4.37l6.73-5.5c1.46-1.2,3.79-1.17,5.19.07,3.11,2.76,6.29,5.49,9.37,8.31l9.23,8.54c1.39,1.29,1.28,3.27-.25,4.43Z"/>
        <path class="cls-5" d="m928.91,519.39c-.39,0-.78,0-1.17-.03-2.44-.12-4.79-.64-6.96-1.53-2.29-.89-4.34-2.17-6.05-3.78l-8.84-8.32c-1.86-1.72-3.81-3.46-5.69-5.15-1.09-.97-2.17-1.94-3.25-2.91-3.47-3.08-5.34-7.32-5.24-11.92.12-4.51,2.23-8.71,5.96-11.85l6.61-5.57c3.62-3.05,8.41-4.73,13.47-4.73.02,0,.05,0,.07,0,5,0,9.77,1.75,13.45,4.94,1.13,1,2.25,1.97,3.37,2.95,2.05,1.79,4.17,3.63,6.22,5.5l9.41,8.65c1.86,1.71,3.26,3.67,4.18,5.84,0,.02.02.04.02.06.87,2.17,1.22,4.42,1.06,6.71-.32,4.65-2.74,8.85-6.81,11.84l-7.16,5.26c-3.57,2.62-8.03,4.04-12.67,4.04Zm-11.16-49.78c-3.66,0-7.07,1.18-9.62,3.32l-6.61,5.57c-2.4,2.02-3.75,4.64-3.83,7.4-.06,2.8,1.09,5.4,3.24,7.31,1.09.98,2.16,1.94,3.24,2.9,1.91,1.7,3.88,3.46,5.8,5.24l8.86,8.33c1.15,1.08,2.55,1.95,4.16,2.58,1.6.65,3.28,1.02,5.05,1.11,3.68.18,7.22-.82,9.98-2.85l7.16-5.26c2.62-1.93,4.18-4.56,4.38-7.42.09-1.37-.12-2.73-.64-4.04-.58-1.36-1.49-2.62-2.71-3.73l-9.4-8.63c-2-1.81-4.09-3.64-6.12-5.4-1.13-.98-2.26-1.97-3.38-2.95-2.57-2.23-5.95-3.43-9.54-3.46h-.02Zm11.2,39.04c-1.75,0-3.49-.61-4.77-1.81l-9.01-8.41c-1.9-1.75-3.89-3.51-5.82-5.22-1.1-.97-2.2-1.95-3.29-2.92-1.29-1.14-2.01-2.77-1.98-4.44.03-1.71.85-3.35,2.24-4.49l6.73-5.51c2.59-2.12,6.58-2.06,9.08.14,1.1.98,2.2,1.95,3.3,2.91,2.01,1.76,4.09,3.59,6.11,5.43l9.24,8.55c1.31,1.21,2.01,2.89,1.93,4.59-.09,1.72-.96,3.34-2.41,4.43l-7.04,5.33c-1.25.95-2.79,1.41-4.32,1.41Zm-18.75-22.72c1.05.94,2.09,1.86,3.12,2.78,1.95,1.73,3.97,3.51,5.92,5.32l9.02,8.43c.27.25.98.29,1.37,0l6.96-5.26-9.12-8.44c-1.96-1.79-4.02-3.6-6-5.34-1.11-.97-2.22-1.95-3.32-2.93-.29-.26-.98-.26-1.3,0l-6.65,5.44Z"/>
      </g>
      <g>
        <path class="cls-6" d="m994.72,536.3c-.62-1.82-1.67-3.58-3.16-5.17l-8.94-9.52c-3-3.13-6.09-6.2-9.12-9.28-6-6.17-16.72-6.88-23.63-1.82l-7.2,5.24c-6.9,5.05-7.73,13.77-2.14,19.68,2.85,2.97,5.74,5.92,8.57,8.93l8.4,9.15c1.4,1.53,3.11,2.74,5,3.63,1.87.91,3.91,1.51,6.02,1.77,4.23.51,8.73-.32,12.45-2.66l7.74-4.88c3.73-2.35,5.94-5.79,6.48-9.48.27-1.84.13-3.74-.46-5.58Zm-14.04,6.11l-7.62,4.96c-1.65,1.07-4.05.81-5.34-.58l-8.56-9.26c-2.88-3.05-5.83-6.03-8.73-9.04-1.31-1.34-1.08-3.35.51-4.47l7.31-5.17c1.59-1.12,3.97-.93,5.31.44,2.97,3.05,6,6.08,8.95,9.18l8.78,9.41c1.32,1.42,1.05,3.45-.61,4.53Z"/>
        <path class="cls-5" d="m970.96,562.05c-.93,0-1.86-.06-2.8-.17-2.44-.3-4.79-.98-6.97-2.05-2.27-1.07-4.27-2.53-5.9-4.3l-8.4-9.15c-1.79-1.91-3.63-3.81-5.47-5.71-1.02-1.06-2.04-2.11-3.05-3.17-3.28-3.46-4.86-7.84-4.45-12.33.42-4.64,2.9-8.85,6.99-11.84l7.21-5.24c8.2-6.01,20.56-5.04,27.55,2.15,1.05,1.07,2.12,2.15,3.19,3.23,1.99,2.01,3.98,4.03,5.94,6.07l8.97,9.54c1.76,1.87,3.04,3.97,3.81,6.26v.04c.73,2.21.93,4.61.59,6.93-.69,4.71-3.48,8.83-7.85,11.58l-7.74,4.88c-3.4,2.15-7.45,3.27-11.61,3.27Zm-10.39-51.9c-3.18,0-6.37.91-8.92,2.78l-7.21,5.24c-2.67,1.96-4.29,4.63-4.55,7.54-.25,2.75.75,5.47,2.82,7.65.99,1.04,2.01,2.09,3.02,3.13,1.86,1.92,3.72,3.85,5.56,5.81l8.42,9.18c1.1,1.2,2.47,2.19,4.07,2.95,1.62.79,3.32,1.29,5.1,1.5,3.77.46,7.49-.33,10.49-2.22l7.74-4.88c2.87-1.81,4.68-4.43,5.11-7.37.21-1.43.09-2.84-.34-4.2-.5-1.46-1.34-2.82-2.5-4.05l-8.94-9.52c-1.92-2-3.89-3.99-5.86-5.98-1.07-1.08-2.15-2.17-3.21-3.26-2.74-2.82-6.77-4.28-10.79-4.28Zm10.18,40.88c-1.96,0-3.9-.76-5.23-2.2l-8.56-9.26c-1.83-1.93-3.71-3.86-5.58-5.79-1.04-1.07-2.07-2.13-3.1-3.2-1.21-1.25-1.82-2.94-1.66-4.62.16-1.73,1.11-3.33,2.6-4.38l7.31-5.17c2.78-1.97,6.82-1.62,9.18.79,1.05,1.08,2.11,2.15,3.16,3.23,1.95,1.98,3.9,3.97,5.82,5.98l8.8,9.43c1.23,1.32,1.81,3.06,1.6,4.77-.21,1.74-1.22,3.31-2.77,4.31l-7.62,4.96c-1.19.77-2.57,1.14-3.94,1.14Zm-18.09-24.55c1.02,1.06,2.02,2.08,3.02,3.11,1.9,1.95,3.8,3.9,5.67,5.88l8.58,9.29c.27.29,1.04.39,1.5.1l7.62-4.96s0,0,0,0l-8.73-9.37c-1.88-1.97-3.81-3.93-5.73-5.89-1.06-1.08-2.12-2.16-3.17-3.24-.3-.31-1.04-.36-1.43-.09l-7.31,5.17s0,0-.01,0Z"/>
      </g>
      <g>
        <path class="cls-6" d="m1035.39,584.1c-.49-1.91-1.43-3.79-2.83-5.52l-8.41-10.4-8.62-10.16c-5.65-6.76-16.6-8.23-24.06-3.54l-7.78,4.85c-7.46,4.69-8.98,13.55-3.72,20l8.08,9.75,7.87,9.97c1.31,1.66,2.96,3.03,4.83,4.08,1.86,1.06,3.88,1.82,6.03,2.24,4.29.83,8.96.3,12.95-1.83l8.31-4.44c4-2.14,6.54-5.5,7.38-9.24.41-1.86.44-3.83-.04-5.75Zm-14.86,5.25l-8.2,4.53c-1.78.98-4.21.54-5.42-.98l-8.03-10.1-8.24-9.88c-1.23-1.47-.84-3.51.87-4.54l7.89-4.77c1.71-1.04,4.14-.67,5.4.83l8.45,10.04,8.25,10.27c1.24,1.55.8,3.61-.98,4.59Z"/>
        <path class="cls-5" d="m1010.71,608.74c-1.49,0-3-.14-4.49-.43-2.42-.46-4.76-1.33-6.95-2.57-2.25-1.27-4.18-2.89-5.7-4.83l-7.87-9.97-8.03-9.7c-3.07-3.76-4.34-8.32-3.6-12.85.77-4.71,3.62-8.83,8.03-11.6l7.78-4.86c8.84-5.55,21.38-3.69,27.95,4.16l8.6,10.15,8.46,10.45c1.65,2.04,2.79,4.28,3.4,6.66,0,0,0,0,0,.01.57,2.28.59,4.74.06,7.13-1.07,4.76-4.23,8.74-8.9,11.24l-8.31,4.44c-3.17,1.69-6.77,2.56-10.45,2.56Zm-9.41-54c-2.89,0-5.79.74-8.23,2.28l-7.78,4.86c-2.92,1.83-4.8,4.5-5.29,7.49-.46,2.81.36,5.68,2.31,8.07l8.06,9.73,7.92,10.03c1.04,1.32,2.37,2.43,3.95,3.32,1.63.93,3.35,1.57,5.13,1.91,3.84.74,7.73.2,10.97-1.53l8.31-4.44c3.11-1.66,5.19-4.24,5.87-7.26.33-1.47.32-2.97-.02-4.35-.4-1.54-1.15-3.01-2.25-4.37l-8.41-10.4-8.57-10.11c-2.84-3.4-7.4-5.22-11.94-5.22Zm8.95,42.66c-2.17,0-4.32-.92-5.68-2.63l-8.03-10.1-8.19-9.82c-1.13-1.35-1.62-3.09-1.34-4.78.29-1.74,1.37-3.29,2.95-4.25l7.89-4.77c2.97-1.8,7.03-1.16,9.24,1.46l8.46,10.04,8.29,10.32c1.14,1.42,1.6,3.21,1.26,4.92-.34,1.74-1.48,3.26-3.12,4.17l-8.19,4.53c-1.1.61-2.32.9-3.54.9Zm-17.28-26.38l8.22,9.86,8.08,10.16c.27.34,1.09.51,1.62.22l8.19-4.53s0,0,0,0c.04-.02.07-.04.1-.06l-8.26-10.29-8.41-9.99c-.28-.33-1.07-.49-1.55-.2l-7.89,4.77s-.08.05-.1.07Z"/>
      </g>
      <g>
        <path class="cls-6" d="m1064.94,632.96l-4.96-11.45-5.43-11.77c-3.68-8.13-13.47-11.65-21.3-7.87l-8.14,3.9c-7.8,3.76-10.56,12.85-6.66,20.29l5.8,10.86,5.33,10.59c1.74,3.43,4.81,5.89,8.28,7.18,3.48,1.27,7.5,1.34,11.23-.11l7.77-3.02c3.75-1.46,6.55-4.22,8.04-7.57,1.54-3.38,1.64-7.33.02-11.04Zm-12.44,8.63l-7.85,3.19c-1.7.69-3.71-.04-4.47-1.63l-5.23-10.84-5.7-11.13c-.87-1.7-.17-3.75,1.58-4.55l8.07-3.69c1.75-.81,3.88-.02,4.73,1.74l5.55,11.49,5.08,11.19c.75,1.64-.04,3.54-1.75,4.23Z"/>
        <path class="cls-5" d="m1043.35,658.67c-2.2,0-4.4-.38-6.51-1.15-4.42-1.64-7.94-4.71-9.94-8.65l-5.34-10.6-5.77-10.8c-2.31-4.42-2.74-9.39-1.21-14.01,1.51-4.57,4.78-8.26,9.22-10.4l8.15-3.9c4.51-2.18,9.65-2.41,14.48-.66,4.88,1.77,8.73,5.32,10.85,10l5.42,11.75,4.99,11.52c1.92,4.41,1.9,9.19-.05,13.47-1.86,4.17-5.3,7.42-9.69,9.12l-7.77,3.03c-2.2.85-4.51,1.28-6.84,1.28Zm-3.43-55.32c-1.85,0-3.68.41-5.37,1.23l-8.15,3.9c-2.95,1.42-5.13,3.87-6.12,6.88-1.01,3.06-.72,6.37.82,9.32l5.79,10.84,5.37,10.65c1.31,2.58,3.67,4.61,6.65,5.72,2.95,1.07,6.19,1.04,9.1-.09l7.77-3.03c2.9-1.13,5.17-3.25,6.39-5.99,1.24-2.73,1.24-5.79.01-8.62,0,0,0,0,0,0l-4.96-11.45-5.4-11.71c-1.45-3.21-4.09-5.64-7.44-6.85-1.47-.53-2.97-.8-4.46-.8Zm3.35,44.7c-2.42,0-4.72-1.33-5.81-3.59l-5.23-10.84-5.67-11.07c-.8-1.56-.93-3.32-.36-4.96.57-1.64,1.76-2.95,3.35-3.68l8.07-3.69c3.23-1.48,7.12-.06,8.68,3.16l5.55,11.49,5.11,11.25c.69,1.53.73,3.23.11,4.78-.63,1.58-1.86,2.81-3.47,3.47l-7.85,3.19c-.82.33-1.66.49-2.5.49Zm-2.93-32.42c-.07,0-.14.01-.2.04l-8.07,3.69c-.09.04-.16.11-.19.19s-.02.17.03.26l5.7,11.13,5.26,10.91c.06.12.37.26.64.15l7.85-3.19s0,0,0,0c.1-.04.14-.1.15-.13l-5.08-11.27-5.52-11.43c-.11-.22-.35-.36-.58-.36Z"/>
      </g>
      <g>
        <path class="cls-6" d="m727.56,360.73c-8.69-4.95-17.43-9.6-26.33-14.09-2.28-1.14-2.87-3.74-1.33-5.82s4.66-2.82,6.97-1.68c4.49,2.26,8.98,4.54,13.44,6.92,2.25,1.17,4.47,2.38,6.69,3.61,2.24,1.22,4.45,2.45,6.63,3.69,2.26,1.27,2.73,3.95,1.05,5.99-1.68,2.03-4.87,2.65-7.12,1.37Z"/>
        <path class="cls-5" d="m730.18,364.4c-1.43,0-2.84-.34-4.1-1.05,0,0,0,0,0,0-8.21-4.68-16.78-9.27-26.2-14.01-1.86-.93-3.19-2.58-3.65-4.51-.47-1.96,0-4.06,1.27-5.78,2.4-3.23,7.11-4.36,10.71-2.57,4.31,2.17,8.9,4.49,13.51,6.96,1.99,1.04,4.14,2.2,6.74,3.63,2.24,1.22,4.45,2.46,6.66,3.7,1.84,1.03,3.1,2.76,3.47,4.74.37,2-.21,4.11-1.59,5.78-1.67,2.02-4.25,3.12-6.81,3.12Zm-1.14-6.27c.99.56,2.58.24,3.33-.68.25-.3.36-.6.31-.86-.05-.29-.31-.49-.52-.61-2.18-1.23-4.37-2.46-6.6-3.67-2.57-1.42-4.67-2.56-6.65-3.58-4.59-2.45-9.13-4.75-13.4-6.9-1-.5-2.54-.12-3.21.79-.22.29-.3.58-.25.81.06.26.31.44.51.54,9.52,4.8,18.17,9.43,26.47,14.16Z"/>
      </g>
      <g>
        <path class="cls-6" d="m773.81,387.61c-8.84-5.31-17.7-10.49-26.54-15.61-2.26-1.3-2.72-4.01-1.02-6.05s4.92-2.63,7.2-1.33c8.9,5.11,17.82,10.3,26.73,15.62,2.3,1.37,2.72,4.15.95,6.18-1.77,2.04-5.05,2.56-7.33,1.19Z"/>
        <path class="cls-5" d="m776.66,391.36c-1.53,0-3.06-.38-4.39-1.18,0,0,0,0,0,0-7.98-4.79-16.4-9.74-26.49-15.58-1.83-1.05-3.09-2.8-3.44-4.79-.36-2.01.23-4.12,1.62-5.78,2.63-3.15,7.46-4.04,11-2.01,10.04,5.77,18.8,10.88,26.78,15.64,1.85,1.1,3.1,2.89,3.42,4.92.33,2.04-.31,4.16-1.75,5.81-1.69,1.94-4.22,2.98-6.74,2.98Zm-1.31-6.33c1.04.62,2.71.33,3.52-.59.27-.31.39-.63.35-.92-.05-.34-.34-.57-.57-.71-7.96-4.75-16.69-9.84-26.69-15.59-1.01-.58-2.64-.27-3.41.65-.25.3-.37.62-.32.89.05.31.32.52.53.64,10.13,5.86,18.57,10.83,26.58,15.63Z"/>
      </g>
      <g>
        <path class="cls-6" d="m820.28,416.87c-8.81-5.84-17.65-11.54-26.57-17.08-2.27-1.43-2.67-4.21-.87-6.24,1.8-2.03,5.14-2.54,7.43-1.1,9,5.55,17.95,11.29,26.86,17.16,2.3,1.52,2.62,4.38.71,6.38-1.91,2-5.3,2.4-7.56.89Z"/>
        <path class="cls-5" d="m823.44,420.78c-1.7,0-3.39-.46-4.82-1.41h0c-9.39-6.22-18.05-11.79-26.49-17.04-1.84-1.16-3.06-2.99-3.34-5.01-.29-2.03.37-4.13,1.82-5.76,2.79-3.14,7.73-3.87,11.27-1.66,8.58,5.29,17.39,10.92,26.92,17.19,1.84,1.22,3.03,3.1,3.26,5.17.23,2.08-.51,4.18-2.03,5.78-1.71,1.79-4.15,2.73-6.57,2.73Zm-26.14-26.16c-.83,0-1.69.32-2.21.91-.28.31-.41.65-.37.94.05.36.35.62.59.77,8.47,5.26,17.19,10.87,26.62,17.12,0,0,0,0,0,0,1.05.7,2.83.48,3.73-.46.3-.32.45-.66.41-.97-.04-.39-.35-.67-.6-.83-9.47-6.24-18.24-11.83-26.78-17.11-.4-.25-.89-.37-1.4-.37Z"/>
      </g>
      <g>
        <path class="cls-6" d="m866.08,449.42c-8.51-6.62-17.29-12.9-26.06-19.09-2.25-1.57-2.5-4.46-.55-6.45,1.95-1.99,5.38-2.32,7.67-.74,8.89,6.24,17.8,12.57,26.45,19.26,2.25,1.71,2.38,4.66.29,6.59-2.09,1.93-5.58,2.12-7.8.43Z"/>
        <path class="cls-5" d="m869.66,453.57c-1.93,0-3.85-.58-5.4-1.77,0,0-.01-.01-.02-.02-8.87-6.9-18.04-13.43-25.95-19.01-1.77-1.24-2.91-3.14-3.1-5.2-.2-2.09.58-4.2,2.14-5.79,2.97-3.04,8.03-3.52,11.52-1.1,9.99,7.01,18.33,12.97,26.58,19.35,1.76,1.33,2.84,3.32,2.94,5.43.1,2.12-.79,4.21-2.45,5.74-1.71,1.57-3.99,2.38-6.25,2.38Zm-1.75-6.53c1.05.79,2.92.67,3.93-.26.35-.32.54-.69.52-1.04-.02-.43-.33-.76-.59-.95-8.18-6.32-16.45-12.24-26.36-19.19-1.06-.74-2.88-.56-3.8.38-.32.33-.49.7-.45,1.04.04.4.33.68.58.85,7.97,5.63,17.21,12.2,26.17,19.18Z"/>
      </g>
      <g>
        <path class="cls-6" d="m910.48,485.91l-6.2-5.51-6.32-5.35c-4.22-3.53-8.34-7.13-12.66-10.53-2.19-1.76-2.23-4.73-.09-6.64,2.14-1.91,5.68-2.02,7.9-.24,4.39,3.43,8.58,7.06,12.87,10.63l6.43,5.4,6.3,5.56c2.17,1.91,2.07,4.95-.22,6.78-2.29,1.83-5.87,1.78-8-.11Z"/>
        <path class="cls-5" d="m914.52,490.37c-2.19,0-4.37-.74-6.03-2.21h0l-6.2-5.5-6.27-5.31c-1.22-1.02-2.45-2.06-3.67-3.1-2.89-2.45-5.88-4.99-8.9-7.36-1.74-1.4-2.76-3.4-2.81-5.5-.06-2.14.88-4.23,2.57-5.74,3.23-2.89,8.4-3.04,11.78-.35,3.13,2.45,6.22,5.05,9.21,7.56,1.23,1.04,2.46,2.08,3.71,3.11l6.44,5.41,6.36,5.61c1.69,1.49,2.63,3.57,2.58,5.71-.05,2.16-1.11,4.23-2.91,5.66-1.67,1.33-3.76,2-5.84,2Zm-2.05-6.7c1.03.91,3,.92,4.14.01.41-.33.65-.73.66-1.12.01-.47-.29-.84-.55-1.07l-6.3-5.56-6.37-5.36c-1.24-1.03-2.48-2.08-3.72-3.12-2.94-2.48-5.98-5.04-9.06-7.44-1.12-.89-3.01-.83-4.06.11-.38.34-.58.73-.57,1.11.01.43.3.76.55.96,3.08,2.42,6.12,4.99,9.05,7.48,1.21,1.03,2.43,2.06,3.66,3.09l6.34,5.36,6.26,5.55Z"/>
      </g>
      <g>
        <path class="cls-6" d="m953.06,526.47l-5.92-6.08-6.06-5.93c-4.03-3.93-7.98-7.9-12.14-11.69-2.1-1.96-1.91-5.01.42-6.82,2.33-1.81,5.96-1.67,8.1.32,4.22,3.83,8.24,7.84,12.34,11.81l6.16,5.99,6.02,6.15c2.07,2.12,1.74,5.22-.75,6.94-2.48,1.71-6.15,1.41-8.18-.68Z"/>
        <path class="cls-5" d="m957.56,531.26c-2.47,0-4.92-.92-6.65-2.7l-5.92-6.08-6.01-5.88c-1.01-.99-2.03-1.98-3.04-2.98-2.92-2.87-5.95-5.84-9.02-8.64-1.65-1.54-2.53-3.63-2.43-5.75.1-2.17,1.21-4.23,3.04-5.65,3.5-2.71,8.76-2.5,11.98.49,3.18,2.88,6.3,5.92,9.31,8.86,1.02,1,2.05,2,3.08,2.99l6.17,6,6.07,6.2c1.59,1.63,2.39,3.8,2.18,5.96-.21,2.19-1.44,4.22-3.37,5.55-1.6,1.1-3.5,1.64-5.38,1.64Zm-24.34-33.58c-.73,0-1.46.21-2.02.64-.44.34-.7.76-.72,1.18-.02.47.26.84.51,1.07,3.12,2.85,6.19,5.86,9.15,8.77,1.01.99,2.02,1.98,3.03,2.97l6.06,5.94,5.97,6.13s0,0,0,0c1.02,1.05,3.04,1.19,4.32.3.48-.33.76-.75.81-1.18.04-.4-.13-.81-.5-1.19l-6.02-6.15-6.11-5.94c-1.03-1-2.06-2-3.09-3-2.98-2.9-6.05-5.91-9.17-8.73-.58-.54-1.41-.81-2.23-.81Z"/>
      </g>
      <g>
        <path class="cls-6" d="m993.49,571.05l-5.59-6.65-5.74-6.51c-3.81-4.32-7.56-8.66-11.51-12.84-2-2.16-1.57-5.27.96-6.96s6.23-1.29,8.27.9c4.02,4.23,7.83,8.61,11.71,12.98l5.84,6.58,5.69,6.72c1.95,2.32,1.37,5.48-1.31,7.06-2.68,1.58-6.4,1-8.32-1.28Z"/>
        <path class="cls-5" d="m998.44,576.22c-2.75,0-5.48-1.13-7.25-3.25l-5.59-6.65-8.01-9.09c-2.96-3.36-6.01-6.84-9.13-10.13-1.57-1.7-2.28-3.82-2.03-5.99.26-2.2,1.54-4.22,3.5-5.53,3.76-2.5,9.09-1.91,12.13,1.35,3.23,3.39,6.38,6.95,9.42,10.39l8.18,9.22,5.73,6.78c1.49,1.76,2.13,4.02,1.76,6.18-.38,2.21-1.78,4.18-3.84,5.4-1.5.88-3.2,1.31-4.88,1.31Zm-23.27-36.18c-.68,0-1.35.18-1.9.54-.51.34-.82.78-.87,1.24-.05.4.11.81.45,1.18,3.17,3.35,6.26,6.87,9.25,10.27l8.05,9.13,5.63,6.7s0,0,0,0c.98,1.17,3.08,1.46,4.49.63.54-.32.89-.76.97-1.23.07-.43-.07-.88-.43-1.3l-5.69-6.72-8.13-9.17c-3.01-3.4-6.13-6.92-9.3-10.26-.62-.66-1.58-1.01-2.53-1.01Z"/>
      </g>
      <g>
        <path class="cls-6" d="m1031.39,619.58c-1.74-2.4-3.44-4.83-5.21-7.21l-5.36-7.08c-3.56-4.7-7.07-9.4-10.79-13.97-1.88-2.35-1.19-5.51,1.53-7.06,2.72-1.55,6.48-.87,8.39,1.52,3.78,4.62,7.36,9.38,10.98,14.13l5.46,7.16c1.8,2.41,3.53,4.86,5.3,7.29,1.82,2.51.97,5.71-1.9,7.13-2.87,1.42-6.63.56-8.42-1.92Z"/>
        <path class="cls-5" d="m1036.8,625.19c-3.05,0-6.06-1.38-7.84-3.85-.62-.85-1.23-1.7-1.84-2.56-1.11-1.55-2.21-3.09-3.35-4.62l-6.76-8.93c-3-3.98-6.11-8.09-9.3-12.01-1.46-1.83-2.02-4.02-1.6-6.19.43-2.22,1.88-4.17,3.97-5.37,4.01-2.28,9.38-1.29,12.22,2.25,3.3,4.03,6.5,8.24,9.6,12.31l6.88,9.04c1.19,1.59,2.33,3.18,3.48,4.77.62.86,1.24,1.72,1.86,2.58,1.37,1.9,1.85,4.22,1.32,6.38-.55,2.22-2.12,4.12-4.31,5.2-1.37.68-2.86,1-4.34,1Zm-22-38.74c-.62,0-1.23.14-1.75.44-.58.33-.95.79-1.05,1.29-.08.43.05.88.38,1.29,3.24,3.98,6.38,8.14,9.42,12.16l6.77,8.95c1.17,1.58,2.3,3.15,3.42,4.72.6.85,1.21,1.69,1.82,2.53,0,0,0,0,0,0,.93,1.29,3.1,1.75,4.65.98.61-.3,1.02-.75,1.15-1.27.11-.46,0-.95-.35-1.42-.62-.86-1.25-1.73-1.88-2.59-1.12-1.56-2.25-3.12-3.4-4.66l-6.87-9.02c-3.07-4.03-6.24-8.2-9.49-12.17-.65-.8-1.75-1.24-2.84-1.24Z"/>
      </g>
      <g>
        <path class="cls-6" d="m684.7,331.87c-2.7-1.11-7.21-2.04-11.55-1.69-6.54.53-9.38,1.18-11.01,4.21-1.18,2.2,1.09,5.11,2.33,5.2,1.24.1,5.91-1.58,7.63-1.72,5.81-.48,8.59,1.5,9.96,1.21,3.41-.71,5.52-6.03,2.65-7.21Z"/>
        <path class="cls-5" d="m664.57,342.6c-.11,0-.23,0-.33-.01-2.03-.16-3.66-1.87-4.51-3.43-1.14-2.08-1.22-4.33-.23-6.18,2.45-4.57,6.9-5.26,13.41-5.78,5.13-.41,10.18.77,12.94,1.91h0c2.19.91,3.41,3.04,3.18,5.58-.28,3.01-2.73,6.58-6.35,7.34-1.22.25-2.35-.07-3.54-.4-1.52-.43-3.61-1.02-6.79-.76-.52.04-2.08.48-3.12.76-2.19.61-3.57.97-4.65.97Zm10.48-9.49c-.56,0-1.11.02-1.66.07-6.43.52-7.79,1.12-8.61,2.64,0,.11.16.43.34.68.71-.16,1.78-.45,2.5-.65,1.69-.47,3.15-.87,4.23-.96,4.25-.35,7.17.47,8.91.96.3.08.66.19.89.24.63-.26,1.17-1.08,1.35-1.66-2-.72-4.95-1.32-7.94-1.32Zm8.5,1.54s0,0,0,0h0s0,0,0,0Z"/>
      </g>
      <g>
        <path class="cls-6" d="m1046.77,637.59c-4.02,1.78-3.35,4.22-2.4,6.47s7.09,16.23,8.05,19.89c.96,3.66,7.95,2.44,8.62-4.03.67-6.47-6.71-20.36-8.91-22.05-2.2-1.69-5.36-.28-5.36-.28Z"/>
        <path class="cls-5" d="m1055.33,669c-2.83,0-5.13-1.67-5.81-4.28-.77-2.96-5.67-14.29-7.27-18.01l-.63-1.47c-2.05-4.83-.73-8.32,3.94-10.39.52-.23,4.9-2.04,8.41.64,2.93,2.24,10.85,17.17,10.07,24.74-.58,5.62-4.62,8.47-8.14,8.74-.19.01-.38.02-.56.02Zm0-5.8h0,0Zm-.06-.2c.22.01.63-.04,1.1-.32.55-.33,1.5-1.16,1.69-3.06.54-5.23-6-17.76-7.8-19.4-.48-.37-1.74-.11-2.29.12-1.13.5-1.32.87-1.32.88-.02.07-.05.41.49,1.67l.62,1.44c3.04,7.05,6.62,15.49,7.52,18.67Zm-8.5-25.4h0,0Z"/>
      </g>
    </g>
    <g>
      <g>
        <path class="cls-6" d="m1095.56,430.2c-1.28-3.33-3.59-6.34-6.54-8.44-2.98-2.15-6.05-4.16-9.14-6.25-3.12-2.14-6.33-4.12-9.56-6.2-3.25-2.12-6.74-2.68-9.64-2.04-2.99.68-5.41,2.72-6.57,5.97l-2.52,7.03c-1.26,3.53-.96,7.62.49,11.3,1.47,3.74,4.13,6.89,7.56,8.89,3.4,1.95,6.8,3.78,10.07,5.82,3.25,1.97,6.48,3.85,9.61,5.91,3.09,2,6.34,2.23,9.05,1.27,2.65-.98,4.81-3.25,5.83-6.6l2.04-6.68c.94-3.08.63-6.66-.68-10Zm-7.56,4.19l-2.13,6.74c-.48,1.51-1.99,2.02-3.37,1.1-3.08-2.09-6.26-4.02-9.46-6.03-3.22-2.07-6.56-3.95-9.9-5.95-1.52-.9-2.32-2.91-1.78-4.47l2.4-6.94c.5-1.46,2.13-1.88,3.62-.95,3.28,2.04,6.54,3.99,9.7,6.1,3.13,2.05,6.25,4.03,9.27,6.16,1.36.93,2.09,2.83,1.65,4.24Z"/>
        <path class="cls-5" d="m1085.19,457.02c-2.58,0-5.17-.78-7.51-2.29-2.31-1.52-4.62-2.91-7.07-4.38-.82-.49-1.64-.99-2.47-1.49-2.3-1.43-4.59-2.72-7.03-4.09-.99-.56-1.98-1.12-2.98-1.69-4-2.33-7.14-6.02-8.86-10.39-1.8-4.55-1.99-9.31-.53-13.41l2.52-7.04c1.46-4.08,4.64-6.96,8.73-7.89,3.88-.87,8.23.02,11.95,2.45.85.55,1.72,1.1,2.59,1.65,2.32,1.47,4.72,3,7.03,4.59l2.13,1.43c2.33,1.56,4.74,3.18,7.07,4.86,3.39,2.41,6.09,5.89,7.58,9.79,1.59,4.08,1.86,8.33.75,11.96l-2.04,6.68c-1.25,4.09-4.05,7.2-7.67,8.54-1.36.48-2.78.72-4.21.72Zm-22.18-46.98c-.58,0-1.14.06-1.68.18-2.1.48-3.62,1.88-4.4,4.05l-2.52,7.04c-.96,2.68-.79,6.03.46,9.18,1.23,3.13,3.46,5.76,6.28,7.4.96.55,1.94,1.1,2.92,1.65,2.38,1.34,4.84,2.73,7.22,4.21.79.48,1.6.97,2.42,1.46,2.39,1.44,4.87,2.92,7.26,4.5,2.06,1.33,4.34,1.68,6.4.95,1.83-.68,3.26-2.33,3.96-4.65l2.04-6.68c.72-2.34.5-5.19-.6-8.03,0,0,0-.01,0-.02-1.07-2.81-3.02-5.32-5.47-7.06-2.26-1.63-4.52-3.15-6.92-4.75l-2.16-1.45c-2.25-1.54-4.5-2.97-6.88-4.49-.87-.56-1.75-1.11-2.63-1.68-1.82-1.19-3.82-1.81-5.68-1.81Zm20.89,35.66c-1.05,0-2.11-.32-3.06-.96-2.3-1.56-4.59-2.99-7.02-4.5-.79-.49-1.59-.99-2.38-1.49-2.28-1.46-4.56-2.8-6.97-4.22-.95-.56-1.91-1.12-2.87-1.69-2.72-1.6-4.08-5.13-3.08-8.03l2.4-6.94c.51-1.49,1.64-2.64,3.09-3.16,1.58-.56,3.38-.33,4.94.63.92.57,1.83,1.13,2.73,1.69,2.33,1.43,4.73,2.91,7.06,4.47l2.23,1.45c2.34,1.52,4.76,3.1,7.11,4.75,2.42,1.66,3.62,4.94,2.78,7.6l-2.13,6.74c-.51,1.62-1.67,2.84-3.17,3.37-.54.19-1.09.28-1.65.28Zm-17.62-24.95l-2.09,6.03c-.05.18.13.71.47.91.96.57,1.9,1.12,2.85,1.68,2.36,1.38,4.8,2.82,7.15,4.33.76.48,1.55.97,2.34,1.46,2.09,1.3,4.24,2.64,6.34,4.04l1.79-5.67c.01-.19-.17-.68-.48-.89-2.28-1.6-4.55-3.08-6.95-4.64l-2.26-1.48c-2.25-1.5-4.51-2.89-6.89-4.36-.75-.46-1.51-.93-2.26-1.4Zm.32-.92h0s0,0,0,0Z"/>
      </g>
      <g>
        <path class="cls-6" d="m1049.59,400.96c-1.01-1.67-2.4-3.26-4.12-4.64-1.72-1.34-3.77-2.48-6.04-3.31l-6.86-2.5-6.92-2.35-6.92-2.33-6.97-2.19c-2.32-.72-4.62-1.07-6.8-1.03-2.19.06-4.24.48-6.05,1.2-3.61,1.45-6.21,4.13-7.04,7.68l-1.73,7.38c-.83,3.55.19,7.27,2.41,10.4,1.11,1.56,2.53,2.98,4.2,4.15,1.66,1.2,3.56,2.2,5.66,2.85l6.33,1.98,6.29,2.12,6.29,2.13,6.24,2.27c2.07.75,4.18,1.13,6.22,1.16,2.04.07,4.01-.19,5.83-.76,3.63-1.14,6.65-3.51,8.09-6.85l2.98-6.95c1.44-3.34.95-7.07-1.08-10.43Zm-11.18,5.72l-2.72,7.05c-.59,1.53-2.64,2.2-4.56,1.5l-6.43-2.34-6.48-2.19-6.48-2.19-6.52-2.04c-1.95-.61-3.19-2.4-2.76-3.98l2-7.3c.43-1.58,2.44-2.36,4.47-1.72l6.78,2.12,6.73,2.27,6.73,2.28,6.67,2.43c2,.73,3.15,2.57,2.56,4.1Z"/>
        <path class="cls-5" d="m1034.41,428.97c-.25,0-.49,0-.74-.01-2.4-.04-4.82-.49-7.15-1.34l-6.24-2.27-12.5-4.22-6.27-1.96c-2.31-.72-4.51-1.83-6.52-3.29-1.9-1.34-3.55-2.97-4.88-4.84-2.86-4.02-3.88-8.57-2.89-12.83l1.73-7.38c1.02-4.37,4.25-7.94,8.84-9.78,2.15-.87,4.54-1.34,7.07-1.42,2.55-.04,5.16.35,7.78,1.17l6.98,2.19,13.91,4.7,6.93,2.52c2.53.92,4.83,2.19,6.86,3.76,2,1.61,3.62,3.43,4.84,5.45h0c2.61,4.32,3.06,8.99,1.27,13.17l-2.98,6.95c-1.73,4.02-5.26,7.05-9.95,8.53-1.93.61-3.97.91-6.09.91Zm-29.15-43.35c-.09,0-.18,0-.26,0-1.79.05-3.48.39-4.98.99-2.8,1.12-4.66,3.1-5.24,5.58l-1.73,7.38c-.6,2.55.09,5.38,1.94,7.98.94,1.31,2.11,2.47,3.48,3.44,1.52,1.1,3.13,1.91,4.82,2.44l6.33,1.98,12.64,4.27,6.3,2.3c1.71.62,3.47.95,5.25.98,1.75.07,3.37-.15,4.88-.63,2.99-.94,5.21-2.78,6.23-5.17l2.98-6.95c1.01-2.35.69-5.08-.89-7.69-.85-1.4-2.03-2.73-3.43-3.85-1.5-1.16-3.26-2.12-5.19-2.83l-6.86-2.5-13.77-4.65-6.91-2.17c-1.91-.59-3.79-.9-5.59-.9Zm27.43,32.9c-.85,0-1.73-.15-2.6-.47l-6.42-2.34-12.89-4.36-6.46-2.02c-3.53-1.11-5.62-4.46-4.75-7.63l2-7.3c.39-1.42,1.34-2.61,2.7-3.35,1.61-.88,3.64-1.04,5.57-.44l6.78,2.12,13.53,4.57,6.74,2.45c1.89.69,3.41,2.04,4.17,3.72.63,1.4.69,2.92.16,4.28l-2.72,7.05c-.9,2.33-3.21,3.71-5.79,3.71Zm-27.29-15.4c.08.13.31.36.71.49l6.52,2.04,13.02,4.4,6.49,2.36c.38.14.67.1.81.06l2.56-6.62c-.11-.13-.33-.32-.69-.45l-6.67-2.43-13.39-4.53-6.72-2.1c-.35-.11-.61-.09-.76-.07l-1.88,6.85Zm30.21,2.47h0,0Zm-28.25-9.61h0s0,0,0,0Z"/>
      </g>
      <g>
        <path class="cls-6" d="m984.59,379.87c-2.56-3.14-6.54-5.76-11.26-6.84-4.73-1.12-9.46-2.28-14.22-3.24l-7.13-1.51c-2.37-.52-4.76-.91-7.14-1.37-4.75-.89-9.17-.21-12.38,1.76-3.22,1.93-5.22,4.98-5.35,8.68l-.28,7.69c-.13,3.7,1.54,7.34,4.27,10.22,2.73,2.84,6.5,5.08,10.78,5.88,2.15.42,4.3.76,6.45,1.23l6.44,1.36c4.3.86,8.57,1.92,12.85,2.93,4.27.97,8.37.56,11.68-1.05,3.3-1.61,5.8-4.37,6.59-7.93l1.64-7.4c.79-3.56-.35-7.27-2.92-10.42Zm-9.77,7.11l-1.36,7.47c-.3,1.62-2.15,2.56-4.13,2.09-4.42-1.04-8.83-2.13-13.26-3.02l-6.64-1.41c-2.21-.48-4.44-.84-6.66-1.27-1.99-.37-3.51-2.02-3.39-3.68l.58-7.64c.12-1.66,1.92-2.69,4-2.31,2.31.45,4.63.83,6.93,1.33l6.92,1.46c4.62.93,9.21,2.06,13.81,3.15,2.07.49,3.51,2.21,3.21,3.83Z"/>
        <path class="cls-5" d="m972.1,410.18c-1.69,0-3.43-.19-5.17-.59l-2.31-.55c-3.43-.82-6.98-1.67-10.46-2.36l-6.47-1.37c-1.34-.29-2.66-.53-4.05-.79-.78-.14-1.57-.29-2.35-.44-4.62-.86-9.02-3.26-12.37-6.74-3.45-3.65-5.26-8.05-5.1-12.41l.28-7.69c.16-4.59,2.65-8.65,6.81-11.14,3.9-2.38,9.05-3.15,14.48-2.13.83.16,1.65.31,2.47.46,1.55.29,3.16.58,4.76.93l7.11,1.5c4.06.82,8.17,1.8,12.14,2.74l2.15.51c5.05,1.15,9.76,4.02,12.89,7.86h0c3.24,3.98,4.49,8.58,3.52,12.97l-1.64,7.4c-.95,4.26-3.94,7.9-8.2,9.98-2.54,1.24-5.45,1.87-8.49,1.87Zm-31.28-40.65c-2.59,0-4.97.58-6.8,1.7-1.74,1.04-3.8,2.95-3.92,6.23l-.28,7.69c-.1,2.73,1.13,5.59,3.45,8.05,2.47,2.57,5.73,4.35,9.15,4.99.78.15,1.54.29,2.3.43,1.38.25,2.81.51,4.24.82l6.42,1.36c3.55.71,7.16,1.57,10.64,2.4l2.28.54c3.51.79,6.95.5,9.68-.83,2.65-1.29,4.42-3.38,4.97-5.88l1.64-7.4c.57-2.56-.25-5.35-2.31-7.88h0c-2.31-2.83-5.81-4.95-9.6-5.81l-2.18-.52c-3.92-.94-7.98-1.9-11.96-2.71l-7.15-1.51c-1.52-.33-3.07-.61-4.58-.89-.84-.15-1.68-.31-2.51-.47-1.17-.22-2.33-.33-3.45-.33Zm29.52,30.13c-.57,0-1.14-.07-1.71-.2l-2.31-.55c-3.56-.85-7.24-1.73-10.85-2.45l-6.68-1.41c-1.39-.3-2.75-.55-4.18-.81-.81-.15-1.61-.29-2.42-.45-3.49-.65-6.05-3.66-5.81-6.85l.58-7.65c.11-1.53.86-2.9,2.1-3.86,1.45-1.12,3.43-1.55,5.44-1.17.82.16,1.63.31,2.44.45,1.5.27,3.05.56,4.59.89l6.9,1.46c3.88.78,7.8,1.71,11.59,2.62l2.29.54c3.66.87,6.06,4.07,5.47,7.29l-1.36,7.47c-.27,1.49-1.14,2.78-2.45,3.63-1.05.68-2.31,1.04-3.62,1.04Zm-27.97-12.36c.08.16.41.49.94.59.81.16,1.59.3,2.38.44,1.43.26,2.9.53,4.37.85l6.63,1.4c3.69.74,7.42,1.63,11.03,2.49l2.3.55c.24.06.43.04.54.02l1.28-7.03c-.11-.15-.41-.42-.92-.54l-2.29-.54c-3.74-.89-7.61-1.81-11.41-2.58l-6.95-1.47c-1.46-.32-2.96-.59-4.41-.86-.83-.15-1.65-.3-2.47-.46-.19-.04-.35-.03-.47-.02l-.54,7.16Z"/>
      </g>
      <g>
        <path class="cls-6" d="m859,379.12l-1.38-7.83c-.66-3.76-3.13-7.26-6.66-9.7-3.52-2.45-8.14-4.02-12.84-3.93-4.7.17-9.42.26-14.11.51-4.66.31-9.36.53-14,.94-4.62.43-8.3,2.35-10.41,5.09-2.09,2.83-2.63,6.43-1.24,10.16l2.88,7.76c1.39,3.73,4.35,6.9,7.92,9.01,3.61,2.19,7.83,3.37,11.93,2.99,4.13-.37,8.31-.55,12.46-.83,4.17-.22,8.39-.29,12.58-.45,4.19-.08,7.69-1.57,10.02-4.07,2.32-2.51,3.51-5.85,2.85-9.62Zm-15.28,3.11c-4.34.16-8.71.24-13.04.47-4.31.3-8.64.49-12.92.87-1.92.18-3.93-1.05-4.49-2.74l-2.56-7.79c-.56-1.69.63-3.22,2.64-3.41,4.48-.4,9.02-.6,13.54-.91,4.53-.24,9.1-.32,13.65-.49,2.05-.08,4.03,1.35,4.39,3.04l1.69,7.84c.37,1.72-.95,3.05-2.9,3.13Z"/>
        <path class="cls-5" d="m819.54,397.17c-4,0-8.18-1.21-11.93-3.5-4.34-2.57-7.61-6.31-9.17-10.53l-2.88-7.76c-1.7-4.55-1.1-9.29,1.65-12.99,2.75-3.57,7.19-5.79,12.54-6.29,3.11-.27,6.27-.46,9.32-.65,1.59-.09,3.17-.19,4.76-.3,3.19-.17,6.38-.27,9.47-.36,1.58-.05,3.15-.1,4.73-.15,5.12-.1,10.45,1.53,14.67,4.47,4.24,2.93,7.12,7.18,7.9,11.65l1.38,7.83s0,0,0,0c.78,4.49-.5,8.81-3.61,12.17-2.95,3.16-7.26,4.95-12.17,5.04-1.5.06-3.07.11-4.64.15-2.58.08-5.24.16-7.83.3-1.48.1-3.02.2-4.56.29-2.57.15-5.23.31-7.8.54-.6.06-1.21.08-1.82.08Zm18.95-36.53c-.11,0-.21,0-.32,0-1.53.06-3.12.1-4.71.15-3.06.09-6.22.19-9.29.35-1.56.1-3.16.2-4.76.3-3.01.18-6.12.37-9.13.63-3.6.34-6.63,1.77-8.3,3.93-1.52,2.06-1.81,4.59-.81,7.29l2.88,7.76c1.07,2.89,3.49,5.61,6.64,7.47,3.26,1.98,6.84,2.89,10.11,2.58,2.67-.24,5.37-.4,7.99-.55,1.52-.09,3.04-.18,4.55-.29,2.7-.14,5.41-.23,8.02-.3,1.55-.05,3.1-.09,4.65-.15,3.32-.06,6.12-1.17,7.94-3.12,1.27-1.37,2.67-3.72,2.09-7.06l-1.38-7.83c-.51-2.9-2.48-5.72-5.41-7.75-3.12-2.17-7.03-3.4-10.77-3.4Zm-21.14,25.94c-3.08,0-6-1.98-6.94-4.82l-2.56-7.8c-.53-1.6-.32-3.31.58-4.69.98-1.5,2.67-2.46,4.63-2.65,2.98-.26,5.99-.44,8.91-.62,1.57-.09,3.14-.19,4.7-.29,3.04-.16,6.08-.25,9.02-.34,1.57-.05,3.15-.1,4.72-.15,3.47-.12,6.76,2.25,7.44,5.41l1.69,7.83c.35,1.62,0,3.21-.99,4.48-1.07,1.38-2.79,2.21-4.72,2.28h0c-1.58.06-3.16.11-4.74.16-2.71.08-5.52.17-8.25.31-1.52.1-3.08.2-4.65.29-2.69.16-5.48.33-8.17.57-.22.02-.45.03-.67.03Zm26.36-4.35h0,0Zm-29.99-9.62l2.39,7.28c.09.26.72.76,1.36.69,2.79-.25,5.62-.42,8.36-.58,1.55-.09,3.1-.19,4.64-.29,2.84-.15,5.68-.24,8.43-.32,1.56-.05,3.11-.09,4.67-.15l-1.58-7.33c-.08-.21-.67-.69-1.35-.67-1.58.06-3.17.11-4.76.15-2.91.09-5.92.18-8.84.33-1.54.1-3.12.2-4.71.29-2.84.17-5.77.35-8.61.59Z"/>
      </g>
      <g>
        <path class="cls-6" d="m797.12,382.62l-2.99-7.74c-1.43-3.71-4.54-6.9-8.46-8.92-3.88-1.98-8.58-2.85-13.05-2.14-2.26.33-4.46.76-6.67,1.18l-6.63,1.26c-4.45.79-8.75,1.83-13.11,2.77-2.16.49-4.05,1.29-5.55,2.41-1.49,1.13-2.63,2.51-3.37,4.05-1.49,3.08-1.36,6.78.65,10.39l4.17,7.51c2.01,3.61,5.46,6.48,9.34,8.21,1.94.86,4,1.44,6.05,1.68,2.06.26,4.15.23,6.12-.21,3.98-.86,7.92-1.82,11.96-2.53l6.03-1.15c2.01-.39,4.01-.78,6.05-1.07,4.04-.64,7.07-2.73,8.78-5.59,1.71-2.82,2.12-6.38.69-10.12Zm-13.99,5.33c-2.1.31-4.17.71-6.24,1.11l-6.21,1.18c-4.16.73-8.21,1.72-12.31,2.6-1.83.41-4.03-.6-4.89-2.24l-3.95-7.57c-.86-1.64,0-3.32,1.9-3.74,4.25-.92,8.44-1.94,12.77-2.7l6.45-1.23c2.15-.41,4.29-.83,6.48-1.15,1.96-.31,4.14.8,4.84,2.47l3.27,7.7c.71,1.67-.25,3.27-2.13,3.57Z"/>
        <path class="cls-5" d="m760.07,406.46c-.95,0-1.94-.06-2.95-.19-2.32-.27-4.65-.92-6.9-1.92-4.69-2.09-8.5-5.46-10.74-9.49l-4.17-7.52c-2.41-4.33-2.67-9.12-.73-13.15.96-1.99,2.39-3.72,4.26-5.14,1.84-1.37,4.09-2.35,6.7-2.94,1.27-.27,2.5-.55,3.73-.83,3.08-.69,6.27-1.4,9.51-1.98l6.8-1.29c2.13-.41,4.34-.83,6.59-1.16,4.95-.79,10.23.07,14.85,2.43,4.72,2.44,8.23,6.17,9.9,10.51l2.99,7.74s0,0,0,0c1.7,4.43,1.37,8.95-.92,12.75-2.24,3.76-6.11,6.25-10.88,7-1.91.28-3.73.63-5.66,1l-6.32,1.2c-2.81.49-5.6,1.12-8.31,1.72-1.19.27-2.38.53-3.58.79-1.31.29-2.71.44-4.18.44Zm15.69-39.88c-.9,0-1.8.07-2.67.21-2.16.32-4.3.73-6.37,1.13l-6.84,1.3c-3.15.56-6.27,1.25-9.29,1.93-1.25.28-2.5.56-3.75.83-1.76.4-3.25,1.03-4.39,1.88-1.08.82-1.92,1.81-2.46,2.94-1.1,2.28-.9,4.99.57,7.63l4.17,7.52c1.59,2.86,4.48,5.38,7.94,6.92,1.7.75,3.44,1.24,5.18,1.44,1.9.24,3.61.18,5.12-.16,1.21-.26,2.38-.52,3.56-.79,2.77-.62,5.64-1.26,8.54-1.77l6.26-1.19c1.91-.37,3.89-.75,5.9-1.04,2.94-.46,5.31-1.95,6.63-4.16,1.34-2.22,1.5-4.81.47-7.5l-2.99-7.74c-1.13-2.93-3.69-5.6-7.04-7.33-2.62-1.34-5.62-2.05-8.53-2.05Zm-18.25,29.35c-2.71,0-5.42-1.53-6.68-3.95l-3.95-7.57c-.83-1.58-.9-3.38-.18-4.91.74-1.59,2.23-2.74,4.09-3.15,1.24-.27,2.45-.54,3.67-.81,2.99-.67,6.08-1.36,9.23-1.92l6.71-1.28c2.04-.39,4.15-.8,6.3-1.11,3.32-.53,6.79,1.31,8.04,4.27l3.27,7.7c.69,1.63.62,3.4-.2,4.87-.84,1.51-2.38,2.55-4.22,2.84h-.04c-1.92.28-3.87.66-5.75,1.02l-6.56,1.25c-2.92.51-5.82,1.16-8.63,1.79-1.2.27-2.4.54-3.61.8-.49.11-.99.16-1.5.16Zm-5.05-13.8l3.69,7.08c.23.44,1.07.81,1.58.7,1.21-.26,2.39-.53,3.58-.79,2.87-.64,5.84-1.31,8.86-1.84l6.51-1.24c1.82-.35,3.7-.71,5.61-1l-3.06-7.19c-.13-.3-.9-.79-1.61-.68-2.06.3-4.1.69-6.08,1.07l-6.76,1.29c-3.05.54-6.07,1.21-9,1.87-1.1.25-2.2.49-3.31.73Zm30.66,5.82h0,0Z"/>
      </g>
      <g>
        <path class="cls-6" d="m580.24,461.14l-6.24-6.7c-5.98-6.46-16.57-8.52-23.53-4.45-3.48,2.04-6.96,4.09-10.39,6.21-3.46,2.08-6.85,4.26-10.26,6.41-3.38,2.18-5.1,5.46-5.14,8.9-.01,3.49,1.65,7.16,4.94,10.2l6.83,6.33c3.29,3.04,7.54,4.93,11.69,5.55,4.21.66,8.31.04,11.45-1.98,3.19-2.01,6.35-4.05,9.62-6,3.22-1.99,6.52-3.93,9.82-5.87,6.58-3.84,7.19-12.14,1.21-18.58Zm-9.8,9.64c-3.35,1.97-6.71,3.94-9.99,5.97-3.33,1.99-6.55,4.07-9.81,6.13-1.47.92-3.79.57-5.25-.83l-6.68-6.43c-1.45-1.39-1.44-3.34.07-4.28,3.35-2.11,6.67-4.25,10.07-6.29,3.37-2.08,6.79-4.09,10.22-6.11,1.54-.91,3.92-.46,5.29.98l6.33,6.64c1.37,1.44,1.25,3.32-.25,4.21Z"/>
        <path class="cls-5" d="m551.3,496.83c-1.19,0-2.4-.09-3.63-.29-4.95-.74-9.67-2.98-13.26-6.31l-6.83-6.33c-3.82-3.54-5.92-7.95-5.9-12.41.06-4.63,2.44-8.78,6.52-11.41l2.35-1.48c2.6-1.65,5.29-3.35,8-4.98,3.49-2.15,7.17-4.32,10.41-6.22,8.1-4.72,20.32-2.48,27.25,5l6.23,6.69s0,0,0,0c3.72,4.02,5.46,8.97,4.78,13.59-.6,4.05-2.97,7.46-6.68,9.63-3.22,1.89-6.56,3.85-9.76,5.83-2.47,1.48-4.89,3.01-7.23,4.49l-2.37,1.5c-2.75,1.77-6.18,2.7-9.88,2.7Zm7.41-45.93c-2.44,0-4.79.54-6.73,1.68-3.37,1.98-6.86,4.03-10.33,6.17-2.68,1.6-5.34,3.29-7.91,4.92l-2.33,1.48c-2.37,1.53-3.71,3.81-3.74,6.4-.01,2.74,1.4,5.57,3.98,7.95l6.83,6.33c2.72,2.51,6.3,4.21,10.09,4.78,3.64.57,6.96.02,9.38-1.54l2.38-1.5c2.37-1.5,4.83-3.06,7.32-4.55,3.23-1.99,6.59-3.97,9.85-5.88,2.14-1.25,3.44-3.09,3.77-5.33.42-2.81-.76-5.95-3.24-8.62l-6.24-6.69c-3.32-3.58-8.39-5.58-13.09-5.58Zm-10.01,35.48c-1.93,0-3.92-.75-5.4-2.17l-6.68-6.43c-1.43-1.38-2.15-3.2-1.96-4.99.17-1.64,1.09-3.09,2.52-3.99l2.32-1.47c2.53-1.61,5.16-3.27,7.8-4.85,3.24-2,6.42-3.87,10.24-6.12,2.7-1.6,6.65-.95,8.99,1.5l6.33,6.64c1.34,1.41,1.97,3.22,1.73,4.97-.22,1.62-1.18,3.03-2.62,3.9,0,0,0,0-.02,0-3.26,1.91-6.63,3.89-9.94,5.94-2.52,1.51-5,3.08-7.4,4.6l-2.39,1.51c-1.04.65-2.27.97-3.52.97Zm-7.82-12.83l6.58,6.34c.55.53,1.37.57,1.58.44l2.37-1.5c2.43-1.54,4.95-3.13,7.49-4.66,3.16-1.95,6.37-3.84,9.49-5.67l-6.2-6.51c-.51-.54-1.38-.6-1.59-.48-3.81,2.24-6.96,4.1-10.18,6.08-2.61,1.57-5.2,3.21-7.71,4.79l-1.83,1.16Zm-.51.32h0s0,0,0,0Zm30.06-3.09h0,0Z"/>
      </g>
      <g>
        <path class="cls-6" d="m630.12,435.17l-5.79-6.93c-2.78-3.33-6.79-5.64-11.03-6.65-4.25-1.02-8.74-.76-12.35,1.09-3.62,1.85-7.31,3.65-10.88,5.55l-10.76,5.66c-7.08,3.85-7.97,12.21-1.96,18.68l6.21,6.71c5.97,6.43,16.38,8.67,23.18,4.98l10.35-5.45c3.44-1.84,6.96-3.55,10.44-5.33,3.46-1.78,5.5-4.66,5.98-7.96.48-3.3-.6-7.03-3.38-10.36Zm-10.59,9.05c-3.52,1.8-7.1,3.54-10.57,5.39l-10.48,5.52c-1.55.84-3.9.34-5.23-1.13l-6.13-6.75c-1.33-1.47-1.13-3.36.45-4.21l10.64-5.6c3.53-1.88,7.17-3.65,10.75-5.48,1.62-.82,3.97-.27,5.25,1.23l5.89,6.88c1.28,1.49,1.03,3.36-.56,4.16Z"/>
        <path class="cls-5" d="m599.13,469.08c-6.37,0-13.14-2.75-17.78-7.75l-6.21-6.72c-3.67-3.95-5.35-8.85-4.6-13.43.69-4.2,3.29-7.73,7.34-9.93l10.8-5.68c2.34-1.25,4.77-2.47,7.11-3.65,1.27-.64,2.54-1.28,3.8-1.92,4.12-2.11,9.24-2.58,14.42-1.34,5.03,1.21,9.52,3.92,12.63,7.65l5.79,6.92s0,0,0,0c3.24,3.87,4.67,8.39,4.05,12.71-.64,4.4-3.34,8.03-7.58,10.2-1.25.64-2.5,1.26-3.74,1.89-2.2,1.1-4.47,2.24-6.65,3.41l-10.37,5.46c-2.69,1.46-5.79,2.16-9,2.16Zm9.29-45.08c-2.25,0-4.36.46-6.1,1.35-1.28.65-2.56,1.3-3.84,1.94-2.31,1.16-4.71,2.37-7,3.58l-10.77,5.67c-2.38,1.29-3.86,3.24-4.25,5.6-.45,2.73.68,5.79,3.08,8.38l6.21,6.72c5.02,5.4,13.97,7.41,19.54,4.38l10.39-5.47c2.23-1.19,4.54-2.35,6.77-3.47,1.24-.62,2.47-1.24,3.7-1.87,2.5-1.28,4.02-3.26,4.38-5.72.38-2.61-.59-5.45-2.72-8l-5.79-6.92c-2.29-2.74-5.64-4.75-9.43-5.66-1.41-.34-2.82-.51-4.17-.51Zm-11.68,34.55c-2.08,0-4.23-.89-5.72-2.53l-6.13-6.75c-1.3-1.43-1.88-3.25-1.58-5,.28-1.63,1.3-3.04,2.82-3.87l10.67-5.62c2.3-1.23,4.68-2.42,6.99-3.58,1.27-.64,2.54-1.27,3.79-1.92,2.88-1.46,6.7-.62,8.9,1.95l5.89,6.88c1.26,1.47,1.78,3.3,1.43,5.03-.32,1.61-1.38,2.98-2.91,3.76-1.26.64-2.52,1.28-3.79,1.92-2.23,1.12-4.53,2.27-6.73,3.45l-10.49,5.52c-.95.52-2.03.77-3.13.77Zm-7.25-13.14l5.97,6.58c.5.55,1.36.62,1.58.51l10.51-5.53c2.26-1.21,4.59-2.38,6.85-3.51,1.08-.54,2.16-1.08,3.24-1.63l-5.73-6.68c-.43-.5-1.3-.67-1.62-.5-1.26.64-2.54,1.29-3.82,1.93-2.27,1.14-4.62,2.32-6.87,3.52l-10.12,5.33Zm28.67-3.86l1.37,2.67-1.35-2.68h-.01Z"/>
      </g>
      <g>
        <path class="cls-6" d="m682.6,412.48l-5.15-7.2c-2.48-3.46-6.29-5.99-10.49-7.27-4.18-1.25-8.82-1.33-12.65.3-3.86,1.62-7.76,3.19-11.58,4.84l-11.42,5.02c-7.5,3.46-9.06,11.7-3.5,18.37l5.76,6.94c5.56,6.66,15.84,9.42,22.93,6.15l10.82-4.76c3.62-1.57,7.29-3.05,10.94-4.58,3.61-1.54,5.96-4.18,6.74-7.42.79-3.22.07-6.95-2.41-10.42Zm-11.54,8.21c-3.71,1.56-7.45,3.06-11.13,4.66l-11,4.83c-1.63.74-3.95.13-5.18-1.39l-5.64-7c-1.22-1.52-.88-3.38.79-4.14l11.24-4.94c3.76-1.63,7.59-3.17,11.38-4.76,1.71-.71,4.04-.03,5.19,1.53l5.3,7.14c1.15,1.55.72,3.38-.94,4.07Z"/>
        <path class="cls-5" d="m649.79,444.05c-6.75,0-13.92-3.14-18.51-8.63l-5.76-6.95c-3.35-4.01-4.7-8.87-3.7-13.3.96-4.25,3.89-7.7,8.25-9.71l11.46-5.04c2.53-1.1,5.12-2.17,7.61-3.2,1.34-.55,2.68-1.11,4.01-1.67,4.2-1.79,9.56-1.94,14.67-.41,4.99,1.51,9.28,4.49,12.06,8.39l5.15,7.2s0,0,0,0c2.9,4.06,3.92,8.63,2.88,12.88-1.01,4.19-4.02,7.56-8.47,9.46-1.34.56-2.67,1.11-4,1.66-2.31.96-4.63,1.91-6.92,2.91l-10.81,4.75c-2.43,1.12-5.14,1.66-7.93,1.66Zm10.99-43.97c-1.92,0-3.73.33-5.29,1-1.36.57-2.71,1.13-4.05,1.68-2.48,1.02-5.03,2.08-7.51,3.15l-11.4,5.01c-2.58,1.19-4.32,3.17-4.86,5.56-.6,2.64.28,5.54,2.46,8.15l5.76,6.95c4.66,5.58,13.53,8.03,19.36,5.34l10.87-4.78c2.34-1.01,4.68-1.98,7.03-2.95,1.32-.55,2.64-1.09,3.96-1.64,2.69-1.15,4.42-3,4.98-5.35.62-2.53-.07-5.36-1.93-7.97l-5.15-7.2c-2.02-2.83-5.19-5.01-8.91-6.14-1.79-.54-3.6-.8-5.32-.8Zm-13.39,33.42c-2.22,0-4.5-1.02-5.97-2.83l-5.65-7c-1.2-1.49-1.66-3.32-1.25-5.03.39-1.64,1.53-2.99,3.14-3.73l11.27-4.95c2.48-1.07,5-2.11,7.43-3.12,1.33-.55,2.67-1.1,4-1.66,3.01-1.25,6.77-.17,8.76,2.51l5.3,7.14c1.13,1.52,1.51,3.36,1.04,5.04-.45,1.61-1.63,2.92-3.24,3.59-1.32.55-2.64,1.1-3.97,1.65-2.38.99-4.77,1.97-7.12,2.99l-10.99,4.83c-.86.39-1.8.58-2.75.58Zm-6.74-13.34l5.44,6.74c.41.5,1.27.69,1.6.55l11.04-4.85c2.4-1.04,4.82-2.04,7.23-3.04,1.15-.47,2.29-.95,3.44-1.43l-5.1-6.87c-.35-.47-1.23-.71-1.62-.54-1.33.56-2.67,1.11-4.02,1.67-2.41,1-4.91,2.03-7.33,3.08l-10.68,4.7Z"/>
      </g>
      <g>
        <path class="cls-6" d="m738.19,394.39l-4.24-7.5c-4.03-7.22-14.19-11.2-22.58-8.79l-12.4,3.84-12.21,4.1c-4.06,1.36-6.65,4.16-7.67,7.38-1.01,3.23-.37,6.96,2.08,10.44l5.1,7.22c4.95,6.95,14.97,10.33,22.43,7.72l11.37-3.82,11.5-3.56c7.67-2.2,10.65-9.81,6.61-17.03Zm-12.69,7.01l-11.77,3.64-11.62,3.9c-1.75.58-4.02-.21-5.09-1.78l-4.94-7.28c-1.08-1.59-.51-3.39,1.29-3.98l11.95-4.01,12.13-3.76c1.82-.56,4.13.36,5.09,1.97l4.44,7.44c.97,1.62.28,3.32-1.48,3.86Z"/>
        <path class="cls-5" d="m703.25,422.7c-7.32,0-15.04-3.71-19.43-9.87l-5.11-7.23c-2.94-4.15-3.82-8.79-2.5-13.06,1.38-4.36,4.87-7.75,9.58-9.33l12.2-4.1,12.47-3.86c9.72-2.79,21.39,1.79,26.09,10.19l4.23,7.48s0,0,0,.01c2.45,4.38,2.86,9.07,1.16,13.2-1.64,3.98-5.04,6.88-9.57,8.18l-11.44,3.54-11.3,3.8c-2.03.71-4.2,1.05-6.41,1.05Zm13.23-42.28c-1.46,0-2.91.19-4.29.58l-12.35,3.82-12.14,4.08c-2.91.98-4.96,2.91-5.76,5.44-.75,2.43-.16,5.2,1.67,7.8l5.1,7.22c4.16,5.85,12.69,8.82,18.99,6.62l11.4-3.83,11.57-3.58c2.79-.8,4.81-2.47,5.73-4.72.99-2.39.69-5.23-.85-7.98l-4.24-7.49c-2.7-4.84-8.89-7.97-14.85-7.97Zm-15.61,31.73c-2.46,0-4.94-1.22-6.34-3.28l-4.94-7.28c-1.06-1.56-1.34-3.4-.78-5.05.55-1.63,1.87-2.89,3.61-3.46l11.94-4.01,12.2-3.78c3.12-.96,6.88.49,8.55,3.3l4.44,7.44c.93,1.56,1.12,3.36.51,4.94-.61,1.58-1.95,2.79-3.69,3.33l-11.77,3.65-11.55,3.88c-.7.23-1.44.34-2.18.34Zm-6.05-13.56l4.68,6.91c.33.49,1.22.76,1.67.61l11.6-3.9,11.39-3.53-4.2-7.03c-.26-.44-1.15-.79-1.63-.64l-12.13,3.75-11.38,3.82Z"/>
      </g>
      <g>
        <path class="cls-6" d="m917.89,366.46c-1.54-1.43-3.39-2.66-5.45-3.62-2.06-.97-4.35-1.65-6.73-1.88l-7.18-.77-3.59-.38-3.59-.29-7.17-.58-3.58-.28-3.58-.19c-4.75-.23-8.88.99-11.59,3.42-2.72,2.39-4.03,5.76-3.41,9.53l1.27,7.83c.61,3.77,2.95,7.23,6.13,9.77,3.18,2.51,7.24,4.33,11.49,4.53l3.2.17,3.21.25,6.43.52,3.22.26,3.22.35,6.45.69c2.14.21,4.17.1,6.03-.32,1.86-.43,3.55-1.2,4.98-2.22,2.87-2.05,4.75-5.18,4.84-8.88l.18-7.71c.09-3.72-1.71-7.32-4.78-10.18Zm-11.53,18.84l-6.67-.72-3.33-.36-3.33-.27-6.65-.54-3.33-.26-3.32-.18c-1.98-.11-3.77-1.57-3.98-3.27l-.95-7.82c-.21-1.7,1.31-2.99,3.39-2.88l3.47.19,3.47.27,6.95.56,3.47.28,3.48.37,6.96.75c2.09.22,3.81,1.78,3.83,3.48l.12,7.75c.02,1.67-1.58,2.85-3.58,2.64Z"/>
        <path class="cls-5" d="m908.7,398.88c-.77,0-1.56-.04-2.36-.12l-9.7-1.05-12.77-1.02-3.13-.17c-4.54-.21-9.23-2.05-13.19-5.17-3.96-3.17-6.52-7.3-7.23-11.64l-1.27-7.83c-.76-4.66.84-9.13,4.39-12.26,3.28-2.95,8.16-4.45,13.72-4.16l3.6.19,14.42,1.16,10.84,1.17c2.6.26,5.2.98,7.68,2.15,2.33,1.08,4.43,2.48,6.22,4.14h0c3.81,3.54,5.85,7.97,5.74,12.45l-.18,7.7c-.11,4.45-2.33,8.55-6.09,11.24-1.78,1.28-3.82,2.19-6.05,2.71-1.48.34-3.03.5-4.65.5Zm-32.83-37.45c-3.52,0-6.49.94-8.43,2.68-2.05,1.81-2.89,4.16-2.46,6.81l1.27,7.83c.46,2.83,2.3,5.71,5.04,7.91,2.96,2.34,6.43,3.72,9.75,3.88l3.22.17,12.94,1.04,9.75,1.05c1.79.17,3.5.08,5.05-.27,1.45-.34,2.76-.92,3.9-1.74,2.25-1.61,3.52-3.92,3.59-6.51l.18-7.7c.07-2.75-1.29-5.56-3.83-7.91-1.33-1.23-2.9-2.28-4.67-3.1-1.88-.88-3.81-1.42-5.76-1.62l-10.79-1.16-14.25-1.14-3.51-.19c-.33-.02-.67-.02-.99-.02Zm30.93,26.9c-.25,0-.5-.01-.75-.04,0,0,0,0-.01,0l-10-1.08-13.22-1.06-3.24-.17c-3.42-.18-6.41-2.77-6.8-5.9l-.96-7.83c-.2-1.6.3-3.13,1.4-4.31,1.24-1.33,3.11-2.03,5.13-1.92l3.47.19,13.98,1.12,10.51,1.13c3.6.37,6.46,3.2,6.51,6.42l.12,7.74c.02,1.58-.61,3.03-1.78,4.1-1.14,1.04-2.7,1.61-4.35,1.61Zm-.13-6.01c.11.01.19,0,.26,0l-.11-7.36c-.05-.06-.47-.47-1.14-.54l-10.45-1.12-13.81-1.11-3.39-.18c-.07,0-.14,0-.19,0l.9,7.34c.05.15.53.6,1.16.64l3.32.18,13.39,1.08,10.07,1.08Zm-28.89-10.8h0s0,0,0,0Z"/>
      </g>
      <g>
        <path class="cls-6" d="m548.2,480.79c-6.46,4.77-13.82,10.51-19.83,15.7-1.54,1.33-4.08-1-5.75-2.56-1.69-1.57-1.76-3.95-.17-5.32,6.17-5.33,12.59-10.4,19.17-15.27,1.7-1.24,4.32-.87,5.84.82,1.52,1.69,2.41,5.42.74,6.63Z"/>
        <path class="cls-5" d="m527.37,499.92c-2.7,0-5.32-2.44-6.79-3.8-1.48-1.37-2.31-3.25-2.27-5.15.03-1.8.8-3.45,2.18-4.64,5.97-5.16,12.3-10.2,19.36-15.42,2.97-2.16,7.3-1.62,9.85,1.23,1.65,1.83,2.62,4.79,2.37,7.19-.17,1.63-.91,3-2.08,3.86-7.34,5.42-14.31,10.94-19.64,15.55-.96.83-1.97,1.17-2.96,1.17Zm-.96-5.7s0,0,0,0c0,0,0,0,0,0Zm17.56-18.62c-.23,0-.44.06-.59.16-6.91,5.11-13.13,10.06-18.97,15.11-.09.07-.1.13-.11.2,0,.15.09.4.36.65.48.45,1.61,1.5,2.36,1.96,7.02-6.02,14.81-11.92,19.08-15.09.02-.6-.33-1.83-.88-2.44-.34-.38-.84-.56-1.26-.56Z"/>
      </g>
      <g>
        <path class="cls-6" d="m596.08,452.68c-9.4,5.08-18.76,10.22-27.89,15.56-2.34,1.38-5.98.7-8.13-1.51-2.16-2.21-1.98-5.14.4-6.54,9.26-5.42,18.7-10.6,28.2-15.73,2.44-1.32,6.11-.5,8.14,1.77,2.04,2.28,1.7,5.15-.71,6.45Z"/>
        <path class="cls-5" d="m565.38,471.95c-2.69,0-5.5-1.09-7.47-3.12-1.76-1.8-2.6-4.11-2.3-6.33.27-2.02,1.48-3.81,3.32-4.89,9.89-5.79,19.85-11.23,28.3-15.79,3.65-1.97,8.83-.91,11.8,2.41,1.65,1.85,2.38,4.16,2,6.33-.35,2.01-1.64,3.74-3.53,4.76h0c-8.33,4.5-18.16,9.87-27.81,15.51-1.28.75-2.78,1.11-4.32,1.11Zm25.95-25.12c-.48,0-.91.09-1.24.27-8.4,4.54-18.31,9.95-28.11,15.68-.38.22-.41.44-.42.52-.04.29.11.79.65,1.34,1.29,1.33,3.42,1.63,4.46,1.02,9.73-5.7,19.61-11.09,27.99-15.62h0c.41-.22.45-.45.47-.52.05-.27-.08-.75-.56-1.29-.84-.94-2.15-1.4-3.23-1.4Z"/>
      </g>
      <g>
        <path class="cls-6" d="m646.71,427.63c-4.91,2.29-9.87,4.52-14.73,6.86-4.84,2.37-9.75,4.66-14.52,7.12-2.46,1.24-6.08.39-8.09-1.9s-1.6-5.18.89-6.44c4.82-2.49,9.8-4.81,14.7-7.21,4.93-2.37,9.95-4.63,14.93-6.95,2.6-1.14,6.22-.16,8.08,2.21,1.86,2.36,1.3,5.19-1.26,6.31Z"/>
        <path class="cls-5" d="m614.91,445.16c-2.87,0-5.85-1.25-7.8-3.49-1.63-1.86-2.32-4.18-1.89-6.35.4-2.03,1.74-3.76,3.69-4.74,3.3-1.7,6.73-3.35,10.04-4.95,1.57-.76,3.13-1.51,4.69-2.27,3.35-1.61,6.77-3.18,10.08-4.7,1.64-.75,3.28-1.51,4.91-2.27,3.89-1.71,9.01-.35,11.7,3.07,1.51,1.92,2.08,4.24,1.55,6.37-.5,2-1.93,3.64-3.92,4.53-1.62.75-3.25,1.5-4.88,2.25-3.23,1.49-6.56,3.02-9.8,4.57-1.53.75-3.09,1.5-4.65,2.25-3.24,1.56-6.58,3.17-9.79,4.83-1.2.6-2.55.89-3.92.89Zm27.37-23.54c-.42,0-.83.07-1.18.23-1.58.74-3.23,1.49-4.87,2.25-3.28,1.51-6.68,3.07-9.97,4.65-1.55.76-3.13,1.52-4.71,2.28-3.28,1.58-6.67,3.22-9.92,4.89-.32.16-.49.34-.53.55-.05.26.06.72.52,1.25,1.2,1.37,3.35,1.77,4.48,1.2,3.26-1.68,6.64-3.31,9.92-4.89,1.55-.75,3.1-1.49,4.64-2.25,3.3-1.58,6.66-3.13,9.9-4.63,1.63-.75,3.26-1.5,4.88-2.26.02,0,.04-.02.06-.03.22-.09.48-.26.55-.51s-.02-.68-.44-1.2c-.75-.95-2.13-1.54-3.34-1.54Z"/>
      </g>
      <g>
        <path class="cls-6" d="m700.14,406.28c-5.25,1.81-10.41,3.75-15.6,5.64-5.1,2.03-10.28,3.94-15.33,6.06-2.59,1.08-6.16.02-7.98-2.37-1.81-2.38-1.15-5.2,1.49-6.3,5.12-2.15,10.39-4.1,15.58-6.16,5.29-1.93,10.54-3.9,15.89-5.75,2.76-.93,6.31.31,7.92,2.76s.73,5.19-1.98,6.1Z"/>
        <path class="cls-5" d="m667.01,421.39c-3.07,0-6.26-1.45-8.17-3.96-1.46-1.92-1.97-4.23-1.41-6.33.55-2.03,2.05-3.69,4.14-4.55,3.34-1.4,6.8-2.74,10.13-4.03,1.83-.71,3.67-1.42,5.49-2.14,1.44-.53,2.8-1.03,4.17-1.53,3.86-1.42,7.86-2.89,11.85-4.27,4.06-1.37,9.06.37,11.41,3.96,1.3,1.98,1.64,4.29.93,6.32-.69,1.99-2.31,3.54-4.45,4.27-3.83,1.32-7.69,2.74-11.42,4.11-1.37.5-2.75,1.01-4.12,1.51-1.74.69-3.56,1.4-5.39,2.1-3.24,1.25-6.59,2.55-9.81,3.9-1.05.44-2.2.65-3.36.65Zm29.15-21.29c-.35,0-.69.05-1,.15-3.92,1.35-7.88,2.81-11.72,4.22-1.37.5-2.73,1.01-4.1,1.5-1.76.7-3.61,1.42-5.46,2.13-3.3,1.28-6.72,2.6-9.99,3.97-.21.09-.57.28-.65.58-.08.29.07.72.39,1.14.99,1.29,3.1,1.97,4.44,1.41,3.29-1.38,6.67-2.69,9.95-3.96,1.81-.7,3.62-1.4,5.42-2.12,1.45-.53,2.82-1.03,4.19-1.54,3.76-1.38,7.66-2.82,11.55-4.16,0,0,.01,0,.02,0,.22-.07.6-.24.71-.54.09-.26-.01-.67-.28-1.08-.68-1.04-2.14-1.72-3.45-1.72Z"/>
      </g>
      <g>
        <path class="cls-6" d="m756.79,390.05c-5.61,1.16-11.04,2.66-16.56,4.01-2.77.66-5.44,1.49-8.16,2.23-2.71.77-5.43,1.5-8.12,2.3-2.74.85-6.21-.47-7.76-2.96-1.54-2.48-.52-5.2,2.29-6.07,2.75-.81,5.53-1.57,8.3-2.35,2.78-.76,5.51-1.61,8.34-2.28,5.64-1.39,11.2-2.91,16.95-4.11,2.94-.65,6.35.89,7.61,3.45,1.26,2.55-.03,5.14-2.89,5.77Z"/>
        <path class="cls-5" d="m722.22,401.85c-3.34,0-6.79-1.76-8.57-4.63-1.23-1.97-1.5-4.25-.76-6.26.75-2.01,2.47-3.57,4.7-4.26,1.82-.54,3.63-1.04,5.43-1.55.98-.27,1.96-.55,2.93-.82,1-.27,1.96-.54,2.92-.82,1.79-.51,3.65-1.04,5.55-1.49,1.65-.4,3.31-.83,4.97-1.25,3.91-.99,7.96-2.02,12.06-2.88,4.23-.93,9.04,1.28,10.91,5.06,1,2.03,1.05,4.28.14,6.17-.93,1.94-2.78,3.34-5.07,3.85h-.04c-3.85.81-7.71,1.79-11.44,2.74-1.67.42-3.33.85-5.01,1.26-1.75.41-3.42.89-5.19,1.4-.97.28-1.93.55-2.9.82-.93.27-1.91.54-2.88.81-1.73.48-3.46.97-5.17,1.47-.83.26-1.71.38-2.59.38Zm31.23-18.17c-.25,0-.5.03-.73.08-4.01.83-7.99,1.85-11.84,2.82-1.68.43-3.36.85-5.04,1.27-1.79.43-3.5.92-5.31,1.43-.98.28-1.97.56-2.96.83-.95.27-1.94.55-2.92.82-1.77.5-3.55.99-5.31,1.51-.41.13-.73.35-.82.61-.09.25,0,.61.23.99.82,1.32,2.89,2.12,4.32,1.67,1.78-.53,3.54-1.02,5.3-1.51.96-.27,1.93-.54,2.89-.81.98-.27,1.92-.53,2.86-.8,1.75-.5,3.57-1.02,5.43-1.46,1.64-.4,3.29-.82,4.94-1.24,3.79-.96,7.71-1.96,11.68-2.78.47-.11.82-.32.94-.58.15-.31,0-.71-.11-.93-.55-1.12-2.11-1.93-3.53-1.93Zm3.34,6.37h0,0Z"/>
      </g>
      <g>
        <path class="cls-6" d="m816.69,380.68l-8.76.82c-2.93.24-5.79.69-8.68,1.03-5.8.65-11.48,1.65-17.21,2.53-2.94.43-6.22-1.16-7.39-3.74-1.16-2.56.28-5.16,3.32-5.61,5.88-.91,11.71-1.94,17.71-2.61,2.99-.35,5.94-.81,8.96-1.06l9.04-.85c3.1-.32,6.29,1.73,7.05,4.33.78,2.65-1.07,4.84-4.05,5.15Z"/>
        <path class="cls-5" d="m781.07,388.14c-3.87,0-7.63-2.23-9.15-5.57-.94-2.06-.89-4.31.13-6.19,1.06-1.95,3.06-3.27,5.48-3.63,1.34-.21,2.71-.43,4.07-.65,4.46-.71,9.07-1.45,13.74-1.98,1.02-.12,2.05-.25,3.08-.39,1.94-.25,3.94-.51,5.97-.68l9.01-.85c4.44-.45,9.03,2.45,10.21,6.47.59,2.02.31,4.05-.81,5.71-1.22,1.82-3.34,3.01-5.81,3.27,0,0-.02,0-.03,0l-8.76.82c-1.85.15-3.62.38-5.49.63-1.04.14-2.08.27-3.13.39-4.35.48-8.72,1.19-12.95,1.86-1.38.22-2.76.44-4.14.66-.48.07-.96.1-1.43.1Zm33.26-13.97c-.11,0-.23,0-.34.02l-9.06.85c-1.93.16-3.77.4-5.72.66-1.06.14-2.11.28-3.17.4-4.54.51-9.08,1.24-13.48,1.94-1.37.22-2.74.44-4.12.65-.56.08-.96.29-1.11.57-.14.26-.05.6.06.83.6,1.32,2.57,2.25,4.22,2.01,1.35-.21,2.72-.43,4.09-.65,4.3-.69,8.75-1.4,13.22-1.9,1-.12,2.01-.25,3.02-.38,1.86-.24,3.79-.5,5.75-.66l8.71-.82c.79-.08,1.26-.39,1.43-.64.04-.07.16-.25.04-.67-.31-1.07-1.91-2.21-3.53-2.21Zm2.36,6.51h0,0Z"/>
      </g>
      <g>
        <path class="cls-6" d="m879.25,380.06l-9.06-.48-9.02-.23c-1.5-.03-3.01-.09-4.51-.1h-4.49c-2.99.04-5.99,0-8.97.07-3.04.1-6.04-1.95-6.7-4.58-.65-2.63,1.38-4.84,4.53-4.94,3.07-.07,6.16-.04,9.25-.06h4.63c1.55,0,3.1.06,4.65.09l9.3.24,9.33.5c1.6.09,3.1.69,4.23,1.61,1.13.94,1.88,2.18,2.01,3.49s-.41,2.44-1.34,3.22c-.94.8-2.29,1.26-3.84,1.17Z"/>
        <path class="cls-5" d="m879.62,383.07c-.17,0-.35,0-.53-.01l-9.06-.48-10.55-.27c-.95-.03-1.9-.05-2.84-.06h-4.45c-2.94.04-5.95,0-8.91.07-4.41.15-8.69-2.86-9.68-6.85-.51-2.03-.11-4.05,1.12-5.67,1.38-1.82,3.64-2.91,6.23-2.99,2.05-.05,4.09-.05,6.12-.05,1.07,0,2.13,0,3.2,0h4.64c1.05,0,2.06.02,3.08.05l10.95.28,9.42.5c2.2.12,4.32.93,5.97,2.29,1.81,1.51,2.9,3.47,3.09,5.53.21,2.25-.67,4.37-2.42,5.81-1.42,1.21-3.33,1.87-5.38,1.87Zm-22.96-6.83c1.02,0,2.01.04,2.99.06l10.62.27,9.14.49s0,0,0,0c.7.03,1.34-.13,1.73-.47.3-.25.32-.46.3-.66-.04-.46-.39-1.01-.94-1.46-.65-.53-1.56-.87-2.47-.92l-9.33-.5-10.88-.28c-.98-.03-1.96-.05-2.93-.06h-4.59c-1.07.02-2.14.02-3.22.02-1.99,0-3.98,0-5.96.05-.86.03-1.39.33-1.6.61-.09.12-.17.28-.09.61.28,1.11,1.85,2.31,3.57,2.31.04,0,.08,0,.12,0,3.04-.07,6.04-.03,9.04-.06h4.5Z"/>
      </g>
      <g>
        <path class="cls-6" d="m942.85,387.98c-12.11-2.35-24.27-4.1-36.41-5.55-3.11-.33-5.73-2.72-5.85-5.33-.12-2.61,2.39-4.44,5.61-4.1,12.49,1.49,25,3.29,37.46,5.71,3.21.6,5.59,3.15,5.32,5.7-.27,2.54-3.01,4.15-6.12,3.57Z"/>
        <path class="cls-5" d="m944.1,391.09c-.6,0-1.2-.06-1.81-.17,0,0-.01,0-.02,0-10.85-2.11-22.35-3.86-36.19-5.51-4.55-.49-8.3-4.08-8.49-8.17-.09-1.97.65-3.8,2.09-5.15,1.7-1.6,4.19-2.36,6.83-2.07,14.19,1.7,26.52,3.57,37.71,5.74,4.77.89,8.17,4.83,7.73,8.97-.2,1.9-1.18,3.58-2.76,4.76-1.41,1.05-3.2,1.61-5.08,1.61Zm-.7-6.07c.86.16,1.69.03,2.2-.36.34-.25.37-.49.38-.58.08-.76-1-2.08-2.88-2.43-11.22-2.18-23.05-3.98-37.26-5.68-1-.1-1.72.17-2.04.48-.19.18-.22.33-.21.5.05,1,1.44,2.3,3.18,2.49,14.02,1.68,25.66,3.45,36.65,5.58Z"/>
      </g>
      <g>
        <path class="cls-6" d="m1005.84,403.72c-5.91-1.92-11.91-3.55-17.87-5.29-2.99-.82-6-1.58-8.99-2.38l-4.5-1.18-4.52-1.07c-3.09-.73-5.28-3.38-4.9-5.9.38-2.53,3.27-3.96,6.46-3.21l4.64,1.11,4.62,1.21c3.08.82,6.17,1.6,9.24,2.44,6.12,1.78,12.28,3.46,18.35,5.43,3.14.98,5.07,3.75,4.33,6.17-.75,2.43-3.81,3.62-6.85,2.67Z"/>
        <path class="cls-5" d="m1007.94,407.05c-1,0-2.01-.15-3-.46-.01,0-.02,0-.03-.01-4.2-1.37-8.54-2.61-12.74-3.81-1.68-.48-3.36-.96-5.04-1.45-1.84-.5-3.74-1-5.63-1.49-1.1-.29-2.2-.57-3.29-.87l-4.49-1.18-4.45-1.06c-4.64-1.1-7.79-5.17-7.18-9.27.28-1.85,1.32-3.48,2.93-4.56,1.97-1.33,4.59-1.73,7.19-1.12l4.64,1.11,4.69,1.23c1.08.29,2.16.57,3.24.85,2.01.53,4.03,1.05,6.03,1.6,1.7.49,3.35.97,5,1.44,4.42,1.27,9,2.58,13.48,4.03,4.75,1.49,7.52,5.84,6.27,9.91-.54,1.76-1.79,3.23-3.51,4.13-1.23.65-2.65.98-4.11.98Zm-1.19-6.19c.91.28,1.85.24,2.51-.1.21-.11.48-.3.57-.59.19-.61-.66-1.9-2.36-2.43-4.41-1.43-8.93-2.73-13.31-3.98-1.66-.48-3.32-.95-4.98-1.43-1.94-.53-3.93-1.05-5.92-1.57-1.08-.28-2.17-.57-3.25-.85l-4.61-1.21-4.58-1.09c-1.13-.27-2-.05-2.45.25-.31.21-.34.41-.35.48-.11.75.86,2.12,2.63,2.54l4.52,1.07,4.57,1.2c1.1.29,2.19.58,3.28.86,1.92.5,3.84,1,5.75,1.53,1.72.5,3.39.98,5.06,1.46,4.24,1.21,8.63,2.47,12.93,3.87Z"/>
      </g>
      <g>
        <path class="cls-6" d="m1062.35,426.6c-2.51-1.23-5.07-2.37-7.63-3.49-2.56-1.12-5.1-2.3-7.69-3.38-5.18-2.12-10.33-4.31-15.58-6.22-2.68-1.01-4.12-4.01-3.22-6.68s3.88-4,6.64-2.95c5.39,1.97,10.67,4.22,15.98,6.39,2.65,1.1,5.25,2.31,7.88,3.46,2.63,1.16,5.25,2.32,7.83,3.58,2.67,1.27,3.86,4.37,2.65,6.92-1.21,2.55-4.28,3.61-6.87,2.38Z"/>
        <path class="cls-5" d="m1064.6,430.12c-1.21,0-2.42-.27-3.55-.81,0,0-.02,0-.03-.01-2.37-1.16-4.71-2.2-7.52-3.44-.92-.4-1.84-.82-2.77-1.23-1.59-.71-3.24-1.45-4.86-2.12-1.13-.46-2.28-.94-3.43-1.41-3.93-1.62-8-3.3-12.03-4.77-4.2-1.59-6.44-6.28-5.03-10.46.69-2.03,2.14-3.66,4.08-4.58,2.02-.96,4.32-1.04,6.47-.22,4.27,1.56,8.54,3.32,12.68,5.03,1.13.46,2.25.93,3.38,1.39,1.77.74,3.52,1.52,5.21,2.27.91.41,1.83.82,2.74,1.22,2.85,1.25,5.41,2.39,7.95,3.64,4.12,1.97,5.95,6.86,4.04,10.9-.92,1.94-2.55,3.41-4.58,4.14-.89.32-1.82.48-2.74.48Zm-.96-6.22c.54.25,1.14.29,1.69.09.52-.19.94-.56,1.17-1.05.5-1.05-.05-2.37-1.23-2.93-2.47-1.21-4.97-2.32-7.75-3.55-.92-.4-1.85-.82-2.78-1.23-1.65-.74-3.36-1.5-5.05-2.2-1.12-.46-2.25-.92-3.38-1.39-4.08-1.68-8.3-3.42-12.48-4.95-.64-.24-1.27-.23-1.81.02-.32.15-.75.46-.96,1.07-.39,1.14.27,2.48,1.44,2.92,4.11,1.5,8.24,3.2,12.22,4.84,1.14.47,2.28.94,3.43,1.41,1.71.71,3.4,1.46,5.02,2.19.91.41,1.82.81,2.73,1.21,2.26,1,5.07,2.23,7.74,3.54Z"/>
      </g>
      <g>
        <path class="cls-6" d="m1092.3,459.63c-.68-1.75-1.45-3.43-2.22-5.12-.78-1.68-1.51-3.4-2.32-5.06-1.67-3.29-3.27-6.63-5.11-9.81-.92-1.65.16-4.26,2.41-5.84,2.25-1.58,4.83-1.48,5.77.22,1.89,3.26,3.53,6.69,5.24,10.07.84,1.7,1.59,3.46,2.39,5.19.79,1.73,1.58,3.46,2.28,5.25.74,1.83-.55,4.43-2.89,5.81-2.34,1.38-4.82,1.06-5.54-.71Z"/>
        <path class="cls-5" d="m1094.97,464.21c-.73,0-1.44-.11-2.11-.34-1.55-.53-2.74-1.63-3.34-3.11,0-.01-.01-.03-.02-.04-.63-1.61-1.34-3.2-2.15-4.96-.28-.6-.55-1.21-.83-1.83-.49-1.1-.96-2.13-1.46-3.15-.36-.71-.73-1.45-1.1-2.19-1.24-2.49-2.53-5.06-3.92-7.45-1.72-3.1-.3-7.29,3.28-9.8,2.03-1.42,4.38-1.97,6.44-1.5,1.61.37,2.91,1.33,3.68,2.72,1.5,2.59,2.87,5.34,4.2,7.99.36.73.73,1.45,1.09,2.17.58,1.17,1.11,2.34,1.61,3.48.27.6.54,1.21.82,1.81.87,1.91,1.65,3.62,2.35,5.43,1.3,3.21-.48,7.3-4.16,9.48-1.43.84-2.95,1.28-4.4,1.28Zm0-6h0c.25,0,.73-.08,1.35-.44,1.24-.73,1.67-1.84,1.62-2.14-.65-1.65-1.35-3.22-2.21-5.09-.28-.61-.56-1.23-.84-1.86-.51-1.13-.99-2.2-1.5-3.25-.36-.71-.73-1.44-1.09-2.17-1.26-2.52-2.57-5.13-3.97-7.56-.25-.02-.82.07-1.54.57-1.05.74-1.45,1.67-1.46,2.01,1.43,2.48,2.74,5.1,4.01,7.64.36.73.73,1.46,1.1,2.18.57,1.14,1.08,2.28,1.57,3.38.27.59.53,1.18.8,1.77.8,1.73,1.51,3.31,2.16,4.95Zm-6.73-22.67s0,0,0,0c0,0,0,0,0,0Z"/>
      </g>
    </g>
  </g>
  <g>
    <circle class="cls-5" cx="635.45" cy="180.57" r="12.91"/>
    <path class="cls-5" d="m696.63,93.62c-6.19-2.12-12.45-3.43-18.76-4.25-3.45-.45-6.12-3.2-6.55-6.66-.01-.12-.03-.24-.04-.36-.87-6.09-1.99-12.17-4.17-18.26-.73-2.01-2.33-3.72-4.5-4.5-3.87-1.38-8.12.63-9.5,4.5-2.08,6.09-3.39,12.25-4.21,18.45-.45,3.4-3.12,6.09-6.53,6.52s-6.46.97-9.66,1.71c-3.04.72-6.09,1.56-9.13,2.83-1.76.74-3.27,2.16-4.07,4.07-1.62,3.87.2,8.31,4.07,9.93,5.95,2.41,12.03,3.62,18.26,4.48.04,0,.08.01.13.02,3.44.44,6.18,3.1,6.63,6.54.41,3.14.96,6.26,1.67,9.36.72,3.04,1.56,6.09,2.83,9.13.74,1.76,2.16,3.27,4.07,4.07,3.87,1.62,8.31-.2,9.93-4.07,2.41-5.95,3.62-12.03,4.48-18.26.02-.14.04-.29.06-.43.44-3.49,3.18-6.21,6.67-6.65.02,0,.04,0,.06,0,6.09-.87,12.17-1.99,18.26-4.17,2.01-.73,3.72-2.33,4.5-4.5,1.38-3.87-.63-8.12-4.5-9.5Z"/>
  </g>
</svg>