<?xml version="1.0" encoding="UTF-8"?>
<svg id="_1" data-name=" 1" xmlns="http://www.w3.org/2000/svg" viewBox="0 0 2737.4 2737.4">
  <defs>
    <style>
      .cls-1 {
        fill: #0b93e2;
      }

      .cls-2, .cls-3 {
        fill: #182d33;
      }

      .cls-4 {
        fill: #fafcfc;
      }

      .cls-3 {
        stroke: #fafcfc;
        stroke-miterlimit: 10;
        stroke-width: 30px;
      }

      .cls-5 {
        fill: #d4e3f9;
      }
    </style>
  </defs>
  <g>
    <g>
      <path class="cls-3" d="M2157.74,908.49c-30.4-4.61-41.69,25.95-32.03,51.27,17.14,44.89,77.67,4.49,54.44-38.46-3.2-1.77-6.71-5.27-9.6-6.41-3.87-1.52-9.6-5.92-12.81-6.41Z"/>
      <path class="cls-3" d="M558.11,963.12c27.42,35.92,76.03-11.16,48.75-43.99-23.75-28.57-78.51,4.99-48.75,43.99h0Z"/>
      <path class="cls-3" d="M615.74,780.47c9.05,14.58,2.48,38.88,8.97,50.33,6.38,11.27,29.62,13.48,40.74,5.52,20.91-14.98-4.74-59.76,39.09-73.05,17.08-5.18,68.9-7.51,48.77-40.39-15.62-25.52-64.15.63-76.76-41.75-5.26-17.63-3.71-70.47-38.99-55.45-25.69,10.94-6.39,52.84-32.74,73.05-23.39,17.95-74.17-2.84-63.48,44.04,6.88,30.16,54.91,6.31,74.39,37.68h0Z"/>
      <path class="cls-3" d="M2042.59,762.55c38.87,13.88,12.64,78.13,49.8,81.84,38,3.79,17.87-54.58,39.91-75.11,14.65-13.64,48.52-6.64,59.73-15.57,8.27-6.58,9.83-23.61,4.32-32.9-12.41-20.95-61.29.87-75.5-42.99-5.56-17.17-.7-52.26-25.85-54.5-36.45-3.25-26.55,27.13-31.56,51.43-10.33,49.99-73.13,16.34-78.49,52.92-5.72,39.07,35.51,26.99,57.62,34.88h.01Z"/>
    </g>
    <path class="cls-3" d="M2111.23,1607.02c99.82-78.47,177.25-199.45,136.28-331.71-22.15-71.49-117.02-143.08-191.93-108.53-72.14,33.27-51.93,80.05-77.17,140.69-1.4,3.35-18.36,41.85-25.59,33.64,68.45-248.64-15.78-487.86-214.9-645.37-436.35-345.21-1055.31,39.03-969.74,576.31,1.45,9.15,19.22,58.85,15.81,62.65-11.94-1.18-21.38-24.13-24.89-34.34-8.9-25.87-8.87-58.28-19.31-83.23-7.86-18.81-34.42-45.97-53.65-52.07-94.03-29.82-184.83,37.32-202.39,130.36-26.03,137.9,52.02,252.91,158.94,329.73-112.59,181.49,76.32,347.13,256.59,328.03-6.84,113.7,75.95,210.04,190.37,218.07,102.21,7.18,180.64-31.8,253.21-99.39,7.66-7.13,11.82-15.68,19.47-22.39,5.27-1.11,41.31,39.61,49.26,46.37,91.75,78.17,249.47,109.34,352.08,35.01,49-35.5,84.46-114.54,70.66-174.45h56.04c15.53,0,53.18-11.57,69.53-16.94,106.68-35.13,183.85-123.46,172.2-241-3.7-37.35-18.41-48.92-42.75-71.87-2.69-2.55-2.93-2.19-2.03-6.63,8.95-1.48,16.98-7.47,23.93-12.94h-.01ZM578.79,1438.37c-7.67-18.01-13.07-36.65-15.73-55.6-2.01-14.32-4.01-34.54-3.67-54.41.32-18.63,2.72-36.95,9.13-49.82l.08-.16c.44-.86.88-1.69,1.35-2.5,3.13-5.4,9.24-11.86,16.67-18.03,4.98-4.13,10.55-8.14,16.2-11.58,1.24-.77,2.5-1.51,3.74-2.21.77-.44,1.53-.86,2.3-1.27,1.53-.82,3.06-1.58,4.57-2.28,3.02-1.41,5.97-2.59,8.77-3.46,1.4-.44,2.77-.79,4.08-1.07,1.32-.28,2.59-.48,3.8-.57.61-.05,1.2-.08,1.78-.08,47.28-.32,33.88,36.42,40.95,68.03,12.22,54.56,63.31,106.78,112.2,131.26,3.95,1.98,10.29,4.04,17.05,6.06,1.61.49,3.25.96,4.89,1.45.61.17,1.22.36,1.81.53,10.26,3.01,19.99,5.86,22.46,8.2,1.51,1.41,3.74,4.53,6.38,8.61,8.86,13.68,22.41,38.38,28.94,47.36.24.32.48.66.71.99.41.57.83,1.15,1.25,1.74.79,1.11,1.6,2.26,2.43,3.43.38.54.75,1.07,1.14,1.62,7.59,10.83,16.3,23.46,24,31.56,6.7,7.05,14.77,13.37,23.11,19.48,2.39,1.74,4.79,3.47,7.2,5.2,8.41,6.05,16.8,12.06,24.08,18.57-4.66,4.57-9.73,9.54-15.15,14.37-2.4,2.15-4.89,4.27-7.42,6.31-.63.52-1.27,1.02-1.91,1.52-11.57,9.05-24.37,16.4-37.89,17.86-119.43,12.9-260.56-76.69-309.3-191.15h.01ZM2054.97,1724.95c-1.33,19.18-11.32,38.81-18.91,55.2-6.17,13.34-13.59,25.08-22.06,35.34-2.14,2.59-4.37,5.06-6.64,7.46-2.23,2.35-4.5,4.65-6.85,6.83-3.17,2.93-6.43,5.71-9.81,8.32-19.31,14.98-41.96,24.82-66.69,30.23-20.66,4.53-42.76,5.98-65.64,4.71-19.37-1.07-37.85-3.58-55.63-7.33-81.23-17.1-147.27-60.49-211.6-116.13-2.1-1.81-5.11-3.96-8.48-6.26-.4-.26-.79-.54-1.19-.82-.29-.2-.58-.4-.87-.59-.52-.36-1.04-.71-1.57-1.07-8.36-5.67-17.58-11.93-20.27-16.63-9.68-16.89.32-57.73.48-81.51.01-2.46-.07-4.74-.3-6.79-1.76-15.86-15.1-24.59-29.83-26.35-1.48-.17-2.96-.28-4.45-.32-2.23-.05-4.48.05-6.7.3-5.18.59-10.21,2.05-14.66,4.34-43.28,22.27-38.19,95.89-24.26,153.28.41,1.66.82,3.31,1.23,4.95.16.65.33,1.28.5,1.91,4.94,18.95,10.7,35.72,15.77,47.69,2.88,6.8,6.21,13.7,9.94,20.62,1.24,2.31,2.54,4.62,3.88,6.92,30.1,51.94,82.67,103.53,140.61,120.11,2.58.74,5.16,1.4,7.75,2.01,2.59.59,5.2,1.12,7.81,1.57,9.14,1.57,18.37,2.22,27.64,1.82,1.4-.07,2.93-.25,4.56-.54.33-.05.66-.12.99-.18.66-.13,1.35-.26,2.05-.42.7-.16,1.4-.32,2.13-.49.65-.16,1.31-.32,1.97-.49.15-.04.3-.08.45-.12,19.23-4.93,44.9-14.01,46.91,14.7.45,6.43-.58,15.66-2.87,25.32-.21.87-.42,1.76-.65,2.64-4.09,15.87-11.44,32.29-21,38.75-.15.11-.3.18-.45.28-.38.25-.77.5-1.16.71-.54.29-1.1.55-1.65.79-1.55,3.66-4.13,7.08-7.46,10.26-1.82,1.74-3.87,3.41-6.09,4.99-1.15.82-2.32,1.62-3.55,2.4-1.44.91-2.93,1.8-4.46,2.64s-3.1,1.66-4.7,2.44c-13.59,6.66-29.23,10.94-39.73,12.16-15.82,1.85-31.93,2.28-47.99,1.33-.38-.03-.77-.05-1.15-.07-2.77-.17-5.55-.4-8.31-.65-.61-.05-1.2-.12-1.81-.17-2.67-.26-5.34-.57-7.99-.91-.45-.05-.91-.12-1.36-.18-2.55-.34-5.1-.73-7.63-1.14-.92-.15-1.85-.3-2.76-.46-3.88-.67-7.74-1.43-11.58-2.27-65.16-14.26-123.8-52.48-150.28-113.84-1.12-2.61-2.19-5.27-3.2-7.96-.78-2.09-1.55-4.2-2.26-6.34-.53-1.57-1.02-3.17-1.51-4.77-.09-.29-.16-.58-.24-.87-.29-1.07-.54-2.15-.75-3.25-.3-1.57-.54-3.16-.78-4.71-.4-2.55-.78-5.02-1.43-7.2-1.88-6.3-3.99-15.47-6.5-25.25-4.98-19.36-11.56-41.14-21.22-47.97-7.07-4.99-13.26-7.29-18.71-7.53-.99-.04-1.95-.01-2.89.07-.48.04-.94.11-1.4.18-1.37.22-2.69.59-3.98,1.1-2.55.99-4.89,2.48-7.04,4.38-.71.63-1.41,1.31-2.09,2.02-.04.04-.08.08-.11.12-.59.63-1.16,1.29-1.72,1.98-11.95,14.7-17.34,42.31-20.81,58.07-1.2,5.44-1.57,10.67-1.88,15.6-.07,1.04-.12,2.06-.18,3.08,0,.09,0,.18-.01.28-.08,1.16-.16,2.3-.25,3.41h0c-.09,1.14-.21,2.23-.36,3.31h0c-.15,1.08-.32,2.13-.53,3.16-2.73,13.35-7.37,25.91-13.56,37.6-.74,1.4-1.49,2.77-2.28,4.15-1.37,2.4-2.79,4.78-4.29,7.11-4.77,7.38-10.18,14.37-16.15,20.95-2.39,2.63-4.86,5.19-7.42,7.67-60.08,58.56-165.49,79.11-238.09,41.09-22.39-11.73-39.79-22.4-49.04-48.67-1.7-4.86-3.31-12.11-4.08-19.93-.15-1.43-.25-2.88-.33-4.35-.04-.85-.08-1.7-.11-2.56-.04-1.57-.04-3.16,0-4.71.09-3.14.38-6.25.9-9.18.4-2.21.91-4.32,1.6-6.29.58-1.68,1.28-3.25,2.1-4.69.25-.44.5-.86.77-1.27.75-1.16,1.61-2.22,2.56-3.16.7-.7,1.45-1.35,2.27-1.9,1.45-.99,3.09-1.77,4.93-2.26,6.38-1.69,23.64,1.91,33.39,3.02.65.08,1.27.13,1.85.18,7.63.65,15.06.86,22.25.63,7.2-.22,14.17-.86,20.95-1.89,1.69-.26,3.37-.54,5.03-.85,79.89-14.74,129.1-85.22,155.35-164.17,0-.04.03-.08.04-.11,2.63-7.9,5.02-15.89,7.18-23.9l.52-1.94c.79-2.98,1.57-5.98,2.3-8.98,6.8-27.71,17.82-106.54-6.25-136.66-.65-.82-1.35-1.58-2.05-2.32-.65-.67-1.31-1.33-1.99-1.94-4.33-3.87-9.57-6.43-15.86-7.3-11.94-1.64-26.98-1.51-36.73,4.37-.81.49-1.56,1.02-2.28,1.58-.66.52-1.31,1.06-1.9,1.65-4.13,4.11-6.43,9.97-5.67,18.19.9,9.59,2.15,19.28,2.95,29.12.2,2.46.37,4.94.5,7.42.13,2.48.21,4.98.25,7.5.07,5.01-.08,10.08-.54,15.2-2.92,32.42-17.63,41.97-41.84,60.68-3.31,2.56-6.79,5.22-10.39,7.92-2.71,2.03-5.49,4.12-8.35,6.22-2.85,2.11-5.78,4.25-8.78,6.41-3,2.17-6.05,4.35-9.18,6.54-3.12,2.19-6.3,4.41-9.52,6.63-1.51,1.04-3.04,2.07-4.57,3.12-1.31.88-2.61,1.77-3.94,2.65-1.55,1.04-3.1,2.07-4.66,3.12-1.51.99-3.02,1.99-4.56,2.98-2.59,1.69-5.19,3.37-7.82,5.04-.85.54-1.69,1.07-2.54,1.6-10.61,6.7-21.5,13.22-32.51,19.35-1.07.59-2.15,1.19-3.22,1.78-35.49,19.45-71.88,34.55-102.7,37.4-78.73,7.26-178.13-10.88-216.09-86.48-5.78-11.52-11.7-23.39-15.52-35.7-.05-.16-.09-.32-.15-.48-.4-1.31-.77-2.61-1.12-3.94-.38-1.43-.73-2.87-1.03-4.32-.18-.83-.36-1.68-.5-2.52-1.97-10.54-1.99-21.39,1.27-32.61,1.64-5.67,3.66-10.04,5.97-13.35.34-.49.69-.94,1.03-1.37.55-.69,1.11-1.32,1.69-1.9,3.8-3.8,8.23-5.38,13.06-5.43.44,0,.86,0,1.31.03.7.03,1.41.09,2.13.18.2.03.41.05.61.08.59.08,1.19.18,1.8.3.33.07.66.13,1,.21.44.11.87.21,1.32.32.87.22,1.77.49,2.65.78.44.15.87.29,1.31.45.86.3,1.73.63,2.59.98,3.65,1.47,7.38,3.3,11.15,5.3,1.18.63,2.36,1.27,3.55,1.93.94.52,1.88,1.04,2.8,1.56.46.26.94.53,1.4.79,1.88,1.04,3.74,2.1,5.59,3.13.92.52,1.85,1.02,2.77,1.52,4.6,2.5,9.09,4.75,13.34,6.38,8.76,3.33,17.56,6.02,26.36,8.14,69.41,16.64,138.76-4.04,188.92-51.7,1.11-1.06,2.21-2.11,3.3-3.2,2.18-2.15,4.32-4.37,6.42-6.63,1.06-1.14,2.09-2.27,3.12-3.43,9.27-10.41,17.71-21.84,25.19-34.23,1.25-2.07,2.75-4.77,4.37-7.87.32-.62.65-1.25.98-1.91,4.98-9.79,10.8-23.01,14.14-34.61.45-1.55.85-3.06,1.19-4.54.17-.74.33-1.47.49-2.19.59-2.88.95-5.56,1.03-7.96.08-2.4-.13-4.52-.7-6.26-2.81-8.73-7.2-13.96-12.34-17.01-1.16-.69-2.36-1.27-3.61-1.76-.53-.21-1.06-.4-1.6-.58-1.06-.34-2.13-.61-3.22-.83-.98-.2-1.95-.36-2.95-.48-.7-.08-1.4-.15-2.1-.2-.69-.05-1.39-.08-2.07-.09h-.05c-11.27-.29-22.58,2.96-28.2.38-.05-.03-.13-.08-.2-.12-.16-.09-.33-.22-.54-.38-.45-.36-.99-.86-1.65-1.52-.82-.82-1.8-1.86-2.88-3.06-.36-.4-.74-.82-1.12-1.25-.77-.87-1.58-1.81-2.44-2.8-.42-.5-.86-1-1.31-1.53-.65-.75-1.31-1.55-1.98-2.35-.53-.63-1.06-1.27-1.6-1.91-.55-.67-1.12-1.36-1.69-2.05-1.11-1.35-2.22-2.71-3.34-4.07-.86-1.06-1.73-2.13-2.58-3.17-.11-.12-.2-.25-.3-.37-2.26-2.8-4.45-5.52-6.41-7.98-.09-.12-.18-.22-.28-.34-.71-.9-1.4-1.76-2.05-2.58-.13-.17-.26-.33-.4-.5-1.94-2.44-3.5-4.4-4.44-5.57-.04-.05-.09-.12-.13-.17-5.01-6.27-9.81-12.57-14.46-18.91-3.87-5.28-7.63-10.58-11.25-15.91-2.19-3.22-4.33-6.46-6.43-9.69-.91-1.4-1.81-2.81-2.71-4.21-2.03-3.21-4.04-6.43-6-9.65-3.59-5.93-7.03-11.89-10.33-17.88-2.19-3.99-4.33-7.99-6.41-12.02-2.07-4.01-4.08-8.06-6.02-12.1s-3.83-8.11-5.64-12.18c-6.37-14.26-11.97-28.68-16.84-43.3-.7-2.09-1.37-4.19-2.05-6.27-5.34-16.77-9.71-33.8-13.18-51.08-1.73-8.65-3.25-17.35-4.53-26.14-.32-2.19-.63-4.4-.92-6.6-1.15-8.62-2.09-17.31-2.81-26.08-.03-.37-.07-.74-.09-1.11-.53-6.44-.94-12.93-1.25-19.44-.12-2.44-.21-4.9-.3-7.36-.7-20.44-.36-41.28.99-62.53,1.06-16.59,2.71-33.41,4.94-50.52,26.68-204.43,217.26-382.27,415.79-426.71,86.94-19.47,169.92-14.37,250,10.97,10.45,3.3,20.84,6.96,31.19,10.95,20.69,7.98,41.2,17.29,61.56,27.87,74.31,38.64,132.87,82.4,180.71,142.42,2.07,2.61,4.13,5.26,6.18,7.92,2.61,3.43,5.19,6.95,7.75,10.49,13.35,18.5,25.85,38.47,37.59,60.22,20.93,38.79,36.36,81.27,46.3,125.57,2.26,10.04,4.23,20.17,5.92,30.38.86,5.2,1.65,10.42,2.36,15.66,1.65,12.06,2.91,24.19,3.78,36.4.07.92.13,1.85.2,2.77,4.45,67.13-2.88,135.67-22.03,199.8-10.16,34.02-23.67,66.79-40.48,97.45-1.4,2.55-2.83,5.08-4.27,7.61-5.06,8.84-10.41,17.49-16.05,25.92-13.74,20.59-29.12,39.96-46.22,57.78-.62.65-1.23,1.27-1.82,1.85-18.38,18.21-22.76,7.32-47.83,4.52-.05.11-.22.24-.49.4-.13.08-.28.17-.45.28-.08.05-.17.09-.25.15-.21.12-.45.26-.69.41-.12.07-.24.13-.36.21-.22.13-.45.28-.7.44-1.68,1.07-3.63,2.6-4.73,4.75-2.28,4.52-4.09,8.78-5.49,12.88-5.23,15.28-4.58,28.12.09,41.75.05.16.12.33.17.49.28.81.58,1.61.88,2.42,2.64,6.96,6.27,14.2,10.66,22.11,41.64,75.21,124,115.68,207.6,106.8,1.47-.16,2.93-.33,4.4-.52,8.81-1.12,17.6-2.79,26.37-5.02.34-.09.71-.2,1.07-.3,20.14-5.67,69.31-33.58,83-29.68.54.16,1.1.38,1.64.67.38.21.77.45,1.16.71.44.29.87.62,1.29.96.26.22.54.46.81.7.77.7,1.52,1.48,2.23,2.28.07.08.13.15.2.22,1.66,1.9,3.1,3.96,4.11,5.61.52.85.99,1.69,1.44,2.54,3.13,5.97,4.71,12.18,5.18,18.5.2,2.71.18,5.44,0,8.17h0ZM1594.17,1834.67c-5.74-10.37-10.05-21.22-12.34-32.12,8.98,15.32,18.81,29.45,29.78,42.35.65.46,1.33.96,2.02,1.49.05.04.11.08.16.12,2.11,1.61,4.38,3.45,6.74,5.4.01,0,.03.03.04.04,4.11,3.43,8.44,7.24,12.55,10.82.57.49,1.14.98,1.69,1.47.2.17.41.34.61.53.54.46,1.07.92,1.58,1.37.16.13.32.26.46.4.63.54,1.25,1.07,1.88,1.6.16.13.3.26.46.38.63.53,1.25,1.06,1.85,1.55.05.05.12.09.17.15.57.46,1.12.91,1.65,1.35.11.08.21.17.32.25.55.45,1.1.87,1.61,1.27.11.08.2.16.3.22.53.41,1.04.79,1.53,1.14,6.6,4.7,13.4,11.71,21.59,15.24l43.78,18.61c-.98.15-1.94.25-2.92.36-.29.03-.58.05-.87.08-.71.07-1.44.12-2.15.16-.29.01-.58.04-.86.05-.94.04-1.89.07-2.83.08h-.61c-.75,0-1.51-.01-2.25-.04-.36,0-.73-.03-1.08-.05-.62-.03-1.23-.07-1.85-.12-.36-.03-.73-.05-1.08-.08-.87-.08-1.73-.17-2.6-.28-.41-.05-.82-.11-1.23-.17-.52-.07-1.03-.15-1.55-.22-.48-.08-.95-.16-1.43-.24-.44-.08-.88-.16-1.32-.25-1.06-.2-2.1-.42-3.14-.67-.21-.05-.44-.09-.65-.15-.57-.13-1.14-.29-1.7-.44-.32-.08-.63-.17-.95-.25-.58-.16-1.16-.32-1.74-.49-.25-.07-.49-.15-.74-.22-1.35-.41-2.69-.85-4.03-1.31-4.85-.99-16.46-5.94-22.56-9.5-20.88-12.15-41.14-31.75-54.9-54.08h0c-1.18-1.91-2.31-3.84-3.38-5.8h-.03ZM1020.96,1905.13c46.71-9.59,85.09-31.85,120.12-64.03-18.19,32.96-58.23,58.76-94.49,67.24-8.97,2.09-28.39,8.89-25.62-3.21ZM2084.37,1534.25c-.26.25-.52.5-.78.77-2.06,2.01-4.15,3.99-6.25,5.96-.26.24-.52.49-.78.73-2.14,1.98-4.28,3.96-6.44,5.89-.16.15-.33.29-.49.44-4.48,4-9.01,7.9-13.56,11.7-.25.21-.49.41-.74.62-2.15,1.78-4.31,3.53-6.47,5.27-.34.28-.7.55-1.04.85-2.13,1.69-4.27,3.37-6.41,5.02-.36.28-.71.54-1.06.82-2.17,1.66-4.35,3.31-6.51,4.93-.26.2-.53.38-.79.58-2.28,1.69-4.57,3.37-6.85,5.01-1.84,1.31-3.7,2.61-5.59,3.92-.16.11-.32.21-.48.33-1.76,1.21-3.54,2.42-5.34,3.61-.21.13-.41.28-.62.41-1.81,1.19-3.63,2.38-5.48,3.57-.17.11-.34.22-.52.33-1.99,1.27-4,2.51-6.04,3.75-.01,0-.04.03-.05.04-2.03,1.24-4.11,2.47-6.18,3.67-.17.09-.34.2-.52.29-1.95,1.14-3.92,2.25-5.9,3.34-.21.12-.44.24-.65.36-1.99,1.1-4,2.18-6.04,3.24-.17.09-.34.18-.52.26-3.35,1.76-6.76,3.45-10.2,5.08-.33.16-.66.3-.98.46-.92.44-1.85.87-2.77,1.29-.33.15-.65.3-.98.45-1.14.52-2.27,1.03-3.42,1.53-.07.03-.15.07-.21.09-1.32.58-2.64,1.15-3.98,1.7-.03,0-.04.01-.07.03-1.27.53-2.55,1.06-3.82,1.57-.13.05-.28.11-.41.16-7.54,3.01-15.21,5.68-22.95,7.9h-.01c-2.19.63-4.4,1.21-6.6,1.77-.01,0-.04,0-.05.01-2.19.55-4.4,1.07-6.6,1.55h-.05c-2.22.48-4.44.91-6.66,1.31h0c-4.45.79-8.9,1.4-13.35,1.84h-.03c-2.46.24-4.91.41-7.37.54-.38.01-.75.03-1.14.05-.88.04-1.77.07-2.67.09-.42,0-.86.01-1.28.03-.88.01-1.77.01-2.65.01h-1.14c-2.5-.03-4.99-.12-7.48-.29-.38-.03-.77-.05-1.15-.08-.87-.07-1.74-.13-2.61-.22-.44-.04-.86-.08-1.29-.13-.87-.09-1.73-.2-2.6-.3-.38-.05-.77-.09-1.15-.15-2.31-.3-4.62-.67-6.92-1.12-2.22-.42-4.42-.91-6.62-1.47-.36-.09-.73-.18-1.08-.29-.77-.2-1.55-.41-2.31-.62-.44-.12-.87-.25-1.31-.38-.7-.2-1.39-.41-2.09-.63-.46-.15-.92-.29-1.37-.45-.67-.22-1.33-.44-1.99-.67-.46-.16-.92-.33-1.4-.49-.66-.24-1.32-.49-1.98-.74-.46-.17-.91-.36-1.37-.53-.67-.26-1.35-.55-2.03-.83-.44-.18-.87-.36-1.29-.54-.74-.32-1.48-.66-2.22-.99-.36-.16-.73-.33-1.08-.49-1.1-.52-2.19-1.04-3.28-1.6-1.85-.94-3.54-1.95-5.11-3.02-.7-.48-1.37-.98-2.03-1.48-.21-.16-.41-.32-.61-.48-.46-.36-.91-.73-1.36-1.11-.21-.17-.41-.34-.61-.52-.52-.45-1.02-.9-1.51-1.35-.09-.08-.18-.17-.28-.25h0l-.04-.04c-.73-.69-1.44-1.39-2.14-2.1-.2-.21-.41-.42-.61-.62-.52-.53-1.02-1.07-1.52-1.61-.22-.24-.44-.48-.66-.7-.53-.58-1.06-1.15-1.57-1.73-.79-.87-1.57-1.74-2.36-2.6-.22-.25-.45-.49-.67-.73-3.3-3.59-6.8-7.11-11.27-10.2-.04-.15,0-.34.08-.58.01-.07.04-.12.07-.2h0c.04-.11.11-.24.17-.37.04-.09.08-.18.13-.29h0c.03-.05.07-.11.09-.17.09-.16.18-.33.3-.5h0s.07-.12.11-.18h0s.05-.07.07-.11c.34-.53.75-1.11,1.24-1.77h0c.2-.26.41-.54.62-.82h0c.28-.34.55-.71.86-1.1.04-.05.08-.09.12-.15h0s.07-.08.11-.12c0-.01.03-.03.04-.04.26-.33.54-.66.83-1h.01c.61-.75,1.28-1.53,1.98-2.35.15-.16.28-.32.41-.48,0-.01.03-.03.04-.04.04-.04.08-.09.12-.13.01-.03.04-.04.05-.05.28-.32.57-.65.86-.98,1.91-2.19,4.09-4.58,6.43-7.14h0l.03-.03c7.71-8.37,17.27-18.3,25.74-27.11,1.16-1.21,2.31-2.4,3.43-3.57.25-.25.49-.5.73-.77,1.86-1.94,3.66-3.8,5.31-5.55,0,0,.03-.03.03-.04h.01c.48-.52.95-1,1.41-1.49.05-.05.12-.12.17-.17.48-.49.92-.98,1.37-1.45.03-.03.04-.05.07-.07.03-.04.07-.07.09-.11.21-.22.42-.45.63-.66.08-.09.17-.17.25-.26.05-.07.12-.12.17-.18.15-.16.29-.32.44-.46.18-.2.36-.38.53-.57h0c.16-.16.3-.33.45-.49.07-.07.13-.13.18-.21.11-.11.2-.22.3-.33.13-.15.28-.3.41-.45.2-.22.4-.44.59-.65.16-.17.32-.34.46-.52.18-.2.36-.4.53-.59.11-.12.2-.22.3-.34.13-.16.28-.3.41-.45.09-.11.18-.2.26-.3.07-.07.12-.13.17-.2.07-.08.13-.15.2-.22.09-.11.17-.2.26-.3.12-.13.22-.26.33-.38.07-.08.13-.16.2-.22.16-.2.32-.38.45-.55,19-23.63,32.7-55.59,57.74-72,14.47-9.5,27.75-10.38,43.34-19.11,6.81-3.82,13.29-7.99,19.43-12.48.95-.7,1.89-1.4,2.83-2.11,7.36-5.57,14.24-11.6,20.66-18.03,4.48-4.49,8.72-9.18,12.76-14.03,1.88-2.26,3.7-4.54,5.49-6.87.77-1,1.53-2.01,2.28-3.02,1.41-1.91,2.81-3.84,4.17-5.8,2.02-2.91,3.98-5.85,5.88-8.84,15.43-24.31,26.86-51.49,35.25-79.58,7.36-24.6.21-50.73,35.26-50.67,37.32.05,60.5,34.98,68.83,66.72h0c.5,1.89.96,3.78,1.39,5.67.15.61.26,1.21.4,1.82.28,1.27.55,2.55.81,3.82.15.73.28,1.45.41,2.18.21,1.15.42,2.3.62,3.43.13.78.24,1.55.36,2.32.17,1.1.33,2.19.48,3.29.11.79.2,1.58.3,2.38.13,1.07.25,2.14.37,3.21.08.79.16,1.6.24,2.39.09,1.07.18,2.13.26,3.2.05.79.12,1.58.16,2.36.07,1.07.12,2.14.16,3.2.03.78.07,1.55.09,2.32.03,1.1.05,2.18.07,3.26,0,.74.03,1.48.03,2.23,0,1.15-.03,2.28-.04,3.42,0,.67-.01,1.36-.04,2.03-.04,1.32-.11,2.63-.17,3.95-.03.49-.04.99-.07,1.48-.11,1.81-.24,3.61-.4,5.4-.03.33-.07.66-.11.99-.13,1.47-.29,2.92-.46,4.38-.08.63-.16,1.25-.24,1.88-.15,1.16-.3,2.31-.46,3.46-.11.71-.22,1.41-.33,2.13-.17,1.07-.34,2.13-.53,3.18-.13.74-.28,1.48-.41,2.22-.2,1.03-.38,2.05-.59,3.06l-.48,2.26c-.21,1-.44,2.01-.67,3.01-.17.75-.36,1.51-.54,2.26-.24,1-.5,1.99-.75,3-.2.74-.38,1.48-.58,2.23-.28,1-.55,2.01-.85,3.01-.21.73-.41,1.45-.63,2.17-.3,1.03-.63,2.06-.95,3.09-.21.69-.42,1.37-.65,2.05-.36,1.11-.74,2.21-1.12,3.3-.21.59-.41,1.2-.62,1.8-.49,1.37-.99,2.75-1.51,4.12-.12.32-.22.62-.34.94-.65,1.68-1.31,3.35-1.98,5.03-.18.46-.38.91-.58,1.37-.5,1.21-1,2.42-1.53,3.62-.26.62-.54,1.23-.82,1.85-.46,1.04-.92,2.07-1.4,3.12-.3.67-.62,1.33-.94,2.01-.46.98-.92,1.94-1.39,2.91-.33.69-.69,1.39-1.02,2.07-.46.94-.94,1.88-1.43,2.81-.36.7-.71,1.39-1.08,2.09-.49.92-.98,1.85-1.47,2.76-.37.7-.75,1.39-1.14,2.09-.5.92-1.02,1.84-1.53,2.75-.38.69-.77,1.36-1.16,2.03-.54.94-1.08,1.86-1.62,2.79-.38.65-.77,1.31-1.16,1.95-.58.96-1.18,1.93-1.77,2.89-.37.59-.74,1.2-1.11,1.8-.67,1.07-1.35,2.13-2.03,3.18-.32.49-.62.98-.94,1.47-4.5,6.89-9.3,13.63-14.36,20.22-.13.17-.26.36-.4.53-1.81,2.34-3.65,4.66-5.51,6.97-.18.24-.38.48-.57.7-1.86,2.28-3.75,4.56-5.67,6.8-.17.2-.34.4-.52.59-1.97,2.3-3.96,4.58-6,6.84-.04.05-.09.11-.13.15-4.16,4.62-8.41,9.15-12.77,13.58-.17.17-.34.36-.52.53-2.06,2.09-4.13,4.15-6.22,6.18v-.07Z"/>
  </g>
  <g>
    <g>
      <path class="cls-2" d="M2157.74,908.49c-30.4-4.61-41.69,25.95-32.03,51.27,17.14,44.89,77.67,4.49,54.44-38.46-3.2-1.77-6.71-5.27-9.6-6.41-3.87-1.52-9.6-5.92-12.81-6.41Z"/>
      <path class="cls-2" d="M558.11,963.12c27.42,35.92,76.03-11.16,48.75-43.99-23.75-28.57-78.51,4.99-48.75,43.99h0Z"/>
      <path class="cls-2" d="M615.74,780.47c9.05,14.58,2.48,38.88,8.97,50.33,6.38,11.27,29.62,13.48,40.74,5.52,20.91-14.98-4.74-59.76,39.09-73.05,17.08-5.18,68.9-7.51,48.77-40.39-15.62-25.52-64.15.63-76.76-41.75-5.26-17.63-3.71-70.47-38.99-55.45-25.69,10.94-6.39,52.84-32.74,73.05-23.39,17.95-74.17-2.84-63.48,44.04,6.88,30.16,54.91,6.31,74.39,37.68h0Z"/>
      <path class="cls-2" d="M2042.59,762.55c38.87,13.88,12.64,78.13,49.8,81.84,38,3.79,17.87-54.58,39.91-75.11,14.65-13.64,48.52-6.64,59.73-15.57,8.27-6.58,9.83-23.61,4.32-32.9-12.41-20.95-61.29.87-75.5-42.99-5.56-17.17-.7-52.26-25.85-54.5-36.45-3.25-26.55,27.13-31.56,51.43-10.33,49.99-73.13,16.34-78.49,52.92-5.72,39.07,35.51,26.99,57.62,34.88h.01Z"/>
    </g>
    <g>
      <path class="cls-1" d="M563.06,1382.77l6.41-4.77c43.16,82.83,123.68,147.74,217.01,164.13,36.21,6.37,72.98,3.55,109.6,4.07-7.7-8.1-16.4-20.73-24-31.56-.38-.54-.77-1.08-1.14-1.62-.82-1.18-1.64-2.32-2.43-3.43-.42-.59-.83-1.18-1.25-1.74-.24-.33-.48-.67-.71-.99-6.52-8.99-20.06-33.68-28.94-47.36-2.64-4.08-4.89-7.2-6.38-8.61-2.48-2.34-12.22-5.19-22.46-8.2-.61-.17-1.22-.36-1.81-.53-1.64-.48-3.28-.96-4.89-1.45-6.76-2.03-13.1-4.09-17.05-6.06-48.89-24.49-99.99-76.7-112.2-131.26-7.08-31.6,6.33-68.34-40.95-68.03-.58,0-1.18.03-1.78.08-1.22.11-2.48.29-3.8.57s-2.68.63-4.08,1.07c-2.8.87-5.76,2.05-8.77,3.46-1.51.7-3.04,1.47-4.57,2.28-.77.41-1.53.83-2.3,1.27-1.24.7-2.5,1.44-3.74,2.21-5.65,3.46-11.23,7.45-16.2,11.58-7.42,6.17-13.54,12.63-16.67,18.03-.46.81-.91,1.64-1.35,2.5l-.08.16c-6.42,12.86-8.81,31.18-9.13,49.82-.34,19.88,1.66,40.1,3.67,54.41h-.01Z"/>
      <path class="cls-1" d="M2049.81,1698.26c-.45-.86-.92-1.7-1.44-2.54-1-1.65-2.44-3.71-4.11-5.61-.07-.08-.13-.15-.2-.22-.71-.81-1.47-1.58-2.23-2.28-.26-.24-.53-.48-.81-.7-.44-.36-.86-.67-1.29-.96-.38-.26-.77-.5-1.16-.71-.55-.29-1.1-.53-1.64-.67-13.68-3.91-62.85,24.01-83,29.68-.36.11-.73.21-1.07.3-8.77,2.23-17.58,3.9-26.37,5.02-1.47.18-2.93.36-4.4.52-83.59,8.87-165.94-31.59-207.6-106.8-4.38-7.92-8.02-15.15-10.66-22.11-.3-.81-.61-1.61-.88-2.42-.05-.16-.12-.33-.17-.49-4.68-13.64-5.31-26.48-.09-41.75,1.4-4.09,3.21-8.36,5.49-12.88,1.08-2.14,3.05-3.67,4.73-4.75.24-.16.48-.3.7-.44.12-.08.24-.15.36-.21.25-.15.48-.28.69-.41.09-.05.17-.11.25-.15.17-.11.32-.18.45-.28.25-.16.44-.3.49-.4h0c41.85-81.78,90.4-178.79,102.06-271.2,25.44-201.72-42.17-420.01-206.42-545.83-3.8-2.92-9.27-2.91-7.71-9.75-20.34-10.58-40.85-19.89-61.56-27.87-10.35-3.99-20.75-7.63-31.19-10.95-80.09-25.34-163.06-30.44-250-10.97-198.52,44.44-389.11,222.27-415.79,426.71-2.23,17.1-3.88,33.94-4.94,50.52-1.35,21.25-1.7,42.09-.99,62.53.08,2.46.18,4.91.3,7.36.3,6.52.73,13,1.25,19.44.03.37.07.74.09,1.11.74,8.76,1.66,17.46,2.81,26.08.29,2.21.61,4.41.92,6.6,1.28,8.78,2.8,17.5,4.53,26.14,3.47,17.29,7.84,34.31,13.18,51.08.66,2.1,1.35,4.19,2.05,6.27,4.87,14.62,10.47,29.05,16.84,43.3,1.82,4.07,3.7,8.14,5.64,12.18,1.94,4.04,3.95,8.08,6.02,12.1,2.07,4.01,4.2,8.03,6.41,12.02,3.3,5.98,6.74,11.95,10.33,17.88,1.95,3.22,3.96,6.44,6,9.65.9,1.41,1.8,2.81,2.71,4.21,2.1,3.24,4.24,6.47,6.43,9.69,3.62,5.32,7.38,10.63,11.25,15.91,4.64,6.34,9.46,12.64,14.46,18.91.04.05.09.12.13.17.94,1.18,2.48,3.13,4.44,5.57.13.16.26.33.4.5.65.81,1.33,1.68,2.05,2.58.09.12.18.22.28.34,1.95,2.46,4.13,5.18,6.41,7.98.11.12.2.25.3.37.86,1.06,1.72,2.11,2.58,3.17,1.11,1.37,2.23,2.73,3.34,4.07.57.69,1.14,1.37,1.69,2.05.54.65,1.07,1.29,1.6,1.91.67.81,1.33,1.58,1.98,2.35.44.52.87,1.03,1.31,1.53.86.99,1.66,1.93,2.44,2.8.38.44.77.86,1.12,1.25,1.08,1.2,2.06,2.25,2.88,3.06.66.66,1.21,1.16,1.65,1.52.21.17.38.29.54.38.07.04.13.09.2.12,5.61,2.58,16.92-.67,28.2-.38h.05c.69.01,1.39.05,2.07.09.7.05,1.4.12,2.1.2.99.12,1.98.28,2.95.48,1.08.22,2.17.5,3.22.83.54.17,1.07.37,1.6.58,1.23.49,2.43,1.07,3.61,1.76,5.14,3.05,9.52,8.28,12.34,17.01.55,1.74.77,3.86.7,6.26-.08,2.4-.44,5.08-1.03,7.96-.15.71-.3,1.45-.49,2.19-.34,1.48-.75,3-1.19,4.54-3.34,11.61-9.17,24.83-14.14,34.61-.33.65-.66,1.29-.98,1.91-1.61,3.1-3.12,5.78-4.37,7.87-7.47,12.39-15.91,23.82-25.19,34.23-1.03,1.16-2.07,2.3-3.12,3.43-2.1,2.26-4.24,4.48-6.42,6.63-1.08,1.08-2.19,2.14-3.3,3.2-50.16,47.66-119.51,68.36-188.92,51.7-8.8-2.11-17.59-4.81-26.36-8.14-4.25-1.62-8.74-3.88-13.34-6.38-.92-.5-1.84-1-2.77-1.52-1.85-1.03-3.71-2.09-5.59-3.13-.46-.26-.94-.53-1.4-.79-.94-.53-1.88-1.04-2.8-1.56-1.19-.65-2.36-1.29-3.55-1.93-3.76-1.99-7.5-3.84-11.15-5.3-.87-.34-1.73-.67-2.59-.98-.44-.16-.87-.3-1.31-.45-.9-.29-1.78-.55-2.65-.78-.44-.12-.88-.22-1.32-.32-.33-.08-.67-.15-1-.21-.61-.12-1.2-.22-1.8-.3-.2-.03-.41-.05-.61-.08-.71-.09-1.43-.15-2.13-.18-.44-.01-.87-.03-1.31-.03-4.83.05-9.26,1.62-13.06,5.43-.58.58-1.15,1.22-1.69,1.9-.36.44-.7.88-1.03,1.37-2.31,3.3-4.33,7.69-5.97,13.35-3.26,11.23-3.24,22.08-1.27,32.61.16.85.33,1.68.5,2.52.32,1.44.66,2.88,1.03,4.32.34,1.32.73,2.63,1.12,3.94.05.16.09.32.15.48,3.82,12.31,9.75,24.19,15.52,35.7h0c16.1,8.84,27.87,19.63,45.87,26.2,58.55,21.38,150.21,15.15,209.54-2.93,83.28-25.37,155.96-86.99,202.5-159.63,2.65-4.15,2.75-9.35,9.6-7.84-.77-8.21,1.53-14.08,5.67-18.19.59-.59,1.24-1.12,1.9-1.65.73-.57,1.48-1.1,2.28-1.58,9.75-5.88,24.79-6.01,36.73-4.37,6.29.87,11.53,3.43,15.86,7.3.69.61,1.35,1.27,1.99,1.94.7.74,1.4,1.52,2.05,2.32,24.06,30.11,13.05,108.94,6.25,136.66-.74,3-1.51,6-2.3,8.98-.17.65-.34,1.29-.52,1.94-2.18,8.02-4.57,16.01-7.18,23.9,0,.04-.03.08-.04.11-26.25,78.95-75.46,149.42-155.35,164.17-1.66.3-3.34.59-5.03.85-6.76,1.03-13.75,1.68-20.95,1.89-7.2.22-14.61.01-22.25-.63-.58-.05-1.19-.11-1.85-.18-9.75-1.11-26.99-4.71-33.39-3.02-1.84.49-3.47,1.25-4.93,2.26-.82.55-1.57,1.2-2.27,1.9-.95.94-1.8,1.99-2.56,3.16-.26.41-.53.83-.77,1.27-.82,1.45-1.52,3.01-2.1,4.69-.67,1.97-1.2,4.08-1.6,6.29-.53,2.93-.81,6.04-.9,9.18-.05,1.56-.05,3.14,0,4.71.03.86.05,1.7.11,2.56.08,1.45.18,2.91.33,4.35.77,7.82,2.38,15.07,4.08,19.93,9.23,26.27,26.65,36.94,49.04,48.67l67.35-11.11c77.35-16.85,145.34-49.09,196.86-110.63,6.93-8.28,10.9-23.35,20.77-25.67,3.47-15.76,8.86-43.37,20.81-58.07.55-.69,1.14-1.35,1.72-1.98.04-.04.08-.08.11-.12.67-.71,1.37-1.39,2.09-2.02,2.15-1.9,4.5-3.39,7.04-4.38,1.27-.49,2.59-.86,3.98-1.1.46-.08.92-.13,1.4-.18.94-.09,1.9-.12,2.89-.07,5.44.24,11.65,2.54,18.71,7.53,9.65,6.83,16.24,28.61,21.22,47.97,2.51,9.79,4.62,18.95,6.5,25.25h0l59.31,51.2c38.66,29.52,114.82,69.76,163.13,73.89,24.04,2.06,73.14,2.3,94.59-6.52h0c.55-.22,1.11-.49,1.65-.79.4-.21.78-.46,1.16-.71.15-.09.3-.17.45-.28,9.55-6.46,16.9-22.87,21-38.75.22-.88.45-1.76.65-2.64,2.27-9.65,3.31-18.89,2.87-25.32-2.01-28.71-27.68-19.63-46.91-14.7-.15.04-.3.08-.45.12-.66.17-1.32.33-1.97.49-.71.17-1.43.34-2.13.49-.7.16-1.37.29-2.05.42-.33.07-.66.12-.99.18-1.62.29-3.16.48-4.56.54-9.26.4-18.49-.25-27.64-1.82-2.61-.45-5.22-.98-7.81-1.57-2.59-.59-5.18-1.27-7.75-2.01-57.94-16.59-110.51-68.16-140.61-120.11-1.33-2.31-2.63-4.62-3.88-6.92-3.74-6.92-7.08-13.83-9.94-20.62-5.07-11.98-10.83-28.75-15.77-47.69-.17-.63-.33-1.28-.5-1.91-.42-1.64-.83-3.29-1.23-4.95-13.93-57.38-19.02-131.01,24.26-153.28,4.45-2.28,9.48-3.74,14.66-4.34,2.22-.25,4.46-.36,6.7-.3,1.49.04,2.97.15,4.45.32,14.73,1.76,28.08,10.49,29.83,26.35,9.87-1.8,7.7.55,11.3,6.21,12.16,18.99,20.3,40.41,35.08,57.92,84.26,99.83,282,167.32,400.85,99.84,10.94-6.21,18.52-15.69,29.87-19.77,7.58-16.39,17.56-36.03,18.91-55.2.2-2.73.21-5.47,0-8.17-.45-6.33-2.03-12.53-5.18-18.5l.03.05ZM1381.97,700.74c45.76-9.42,53.91,73.38,5.9,66.59-38.26-5.41-39.59-59.65-5.9-66.59ZM1087.34,845.13c89.7-18.33,104.2,107.82,27.34,120.29-77.89,12.63-96.22-106.21-27.34-120.29ZM1175.35,1315.67c-8.08,6.43-16.93,11.93-26.29,16.27-.78.36-1.56.71-2.35,1.06-2.36,1.04-4.75,2.01-7.17,2.89-3.22,1.19-6.5,2.23-9.81,3.13-1.65.45-3.33.87-4.99,1.25-.83.18-1.68.37-2.52.54-1.55.32-3.09.59-4.64.85-.25.04-.5.08-.75.12-36.4,5.61-75.87-6.38-107.08-45.5-25.33-31.74-30.31-69.4-20.51-102.73.18-.65.38-1.29.59-1.94.9-2.87,1.9-5.69,3.01-8.49,1.77-4.45,3.82-8.78,6.1-13.01.53-.96,1.06-1.91,1.61-2.87,18.01-31.05,50.07-54.54,90.14-59.27,25.66-3.02,53.58,6.35,76.73,22.24,17.33,11.89,31.99,27.42,41.01,44.15,8.15,15.11,12.27,30.42,13.07,45.34,2.03,37.72-17.16,72.9-46.13,95.97h-.01ZM1234.85,732.9c58.61-5.06,85.69,83.56,28.46,108.89-85.69,37.92-118.94-101.07-28.46-108.89h0ZM1289.02,880.34c53.13-12.24,76.11,57.87,29.75,77.81-60.82,26.16-75.04-67.38-29.75-77.81ZM1438.26,1350.88c-7.07,6.81-14.55,12.53-21.2,16.5-3.9,2.32-7.75,4.4-11.58,6.23-2.55,1.23-5.08,2.34-7.61,3.34-34.06,13.59-65.58,7.36-96.59-19.93-12.2-10.74-27.92-30.15-32.37-48.64-.09-.41-.18-.81-.28-1.21-.59-2.79-.94-5.56-.96-8.25-.07-10.25,4.38-19.65,16.15-26.41,13.71-7.87,23.38-4.27,32.09,3.45,10.17,8.99,19.02,23.57,31.43,32,.88.61,1.8,1.18,2.72,1.7.46.26.92.53,1.4.78,2.22,1.18,4.57,2.13,7.05,2.83.32.09.65.17.96.25.78.2,1.57.36,2.36.5.21.04.44.08.65.11,1.03.16,2.07.28,3.16.34,40.43,2.44,52.51-75.4,89.74-36.36,6.63,6.95,9.5,14.67,9.67,22.64.37,17.5-12.3,36.13-26.8,50.13h0ZM1550.45,1311.15c-1.78-1.7-3.51-3.42-5.16-5.15-1.23-1.29-2.42-2.59-3.57-3.88-4.77-5.38-8.91-10.84-12.47-16.4-.94-1.47-1.84-2.93-2.69-4.41-1.2-2.07-2.32-4.15-3.37-6.23-2.64-5.28-4.78-10.62-6.47-15.97-.52-1.65-1-3.31-1.43-4.97-.38-1.48-.74-2.95-1.06-4.42-.46-2.15-.86-4.31-1.18-6.44-.71-4.83-1.08-9.65-1.11-14.43-.03-3.83.17-7.63.55-11.41.2-1.89.44-3.76.74-5.64,7.36-46.74,45.21-87.48,90.72-100.16,3.65-1.02,7.33-1.85,11.05-2.5,4.66-.81,9.38-1.31,14.13-1.49,1.9-.08,3.8-.09,5.72-.07s3.83.11,5.74.25c2.88.2,5.76.53,8.65.98,4.13.65,8.25,1.56,12.37,2.75,1.32.38,2.65.79,3.98,1.23,1.64.54,3.28,1.12,4.91,1.76,5.12,1.98,10.22,4.4,15.25,7.3,1.57.9,3.13,1.85,4.68,2.84.95.61,1.9,1.23,2.84,1.88,10.64,7.24,20.92,16.69,30.57,28.67,86.95,107.95-69.84,254.63-173.43,155.93h.01Z"/>
      <path class="cls-1" d="M1840.53,1546.47l21.53-.07c.36-.07.71-.13,1.08-.2h65.65c7.46,0,33.55-6.35,42.54-8.7,6.55-1.72,13.04-3.7,19.47-5.93,1.23-.42,2.44-.87,3.66-1.32,1.98-.73,3.95-1.47,5.92-2.23,1.23-.49,2.46-.99,3.68-1.49,2.64-1.08,5.27-2.21,7.87-3.38,2.42-1.08,4.83-2.19,7.24-3.34,2.31-1.11,4.6-2.27,6.88-3.45.77-.4,1.53-.79,2.3-1.19.03-.01.07-.04.09-.05,1.36-.71,2.71-1.45,4.07-2.19.45-.25.88-.5,1.33-.74.95-.53,1.89-1.06,2.84-1.6.5-.29.99-.57,1.49-.86.91-.53,1.82-1.07,2.73-1.61.48-.28.94-.55,1.41-.85,1.08-.66,2.17-1.32,3.24-1.99.26-.17.54-.33.81-.5,1.33-.83,2.67-1.69,3.99-2.55.37-.24.74-.49,1.1-.73.96-.63,1.91-1.27,2.88-1.91.46-.32.94-.63,1.4-.95.87-.59,1.74-1.2,2.6-1.8.46-.32.92-.65,1.37-.96.94-.67,1.88-1.35,2.81-2.02.36-.26.71-.52,1.07-.77,1.28-.94,2.55-1.88,3.8-2.84.25-.18.49-.38.74-.57,1.02-.78,2.03-1.56,3.04-2.35.42-.33.85-.66,1.25-1,.85-.66,1.68-1.33,2.51-2.02.45-.36.88-.73,1.32-1.08.85-.7,1.69-1.4,2.54-2.11.38-.32.77-.65,1.15-.96,2.42-2.06,4.79-4.16,7.14-6.3.37-.33.73-.67,1.1-1,.82-.75,1.62-1.51,2.43-2.26.41-.38.82-.78,1.23-1.16.78-.74,1.55-1.49,2.32-2.23.38-.37.77-.74,1.15-1.12.91-.9,1.82-1.82,2.73-2.73.21-.21.42-.42.63-.65,1.11-1.14,2.21-2.27,3.3-3.42.29-.3.58-.62.87-.94.79-.85,1.6-1.7,2.38-2.56.37-.41.74-.82,1.11-1.23.71-.79,1.43-1.6,2.14-2.39.36-.41.73-.82,1.08-1.23.77-.88,1.53-1.77,2.3-2.67.26-.32.54-.63.81-.95,1.02-1.21,2.03-2.43,3.04-3.66.18-.22.36-.45.54-.67.82-1,1.62-2.02,2.42-3.04.33-.41.65-.83.98-1.25.66-.85,1.32-1.7,1.97-2.56.33-.45.67-.88,1-1.33.66-.88,1.32-1.78,1.98-2.68.28-.38.57-.78.85-1.16,1.85-2.56,3.65-5.16,5.39-7.79.26-.41.53-.81.79-1.21.61-.92,1.22-1.85,1.81-2.77.3-.46.59-.94.88-1.4.58-.91,1.15-1.82,1.7-2.75.28-.45.54-.88.82-1.33.67-1.11,1.32-2.22,1.98-3.33.15-.25.29-.49.44-.74.79-1.36,1.57-2.73,2.32-4.11.2-.36.4-.73.59-1.1.55-1.02,1.11-2.05,1.66-3.06.25-.48.5-.96.75-1.44.49-.94.98-1.89,1.47-2.84.24-.49.49-.96.73-1.45.52-1.04,1.03-2.09,1.53-3.13.18-.37.37-.75.54-1.12.67-1.41,1.33-2.84,1.98-4.27.12-.26.22-.53.34-.78.53-1.18,1.03-2.35,1.55-3.53.2-.48.41-.96.61-1.44.41-.99.82-1.97,1.22-2.96.21-.52.41-1.03.62-1.53.4-1.02.79-2.05,1.19-3.06.17-.45.34-.9.52-1.35,1.1-2.93,2.13-5.89,3.09-8.87.15-.46.29-.92.44-1.37.33-1.04.66-2.09.98-3.14.16-.53.32-1.06.48-1.58.3-1.03.59-2.05.88-3.08.15-.5.28-1,.42-1.51.33-1.24.66-2.48.98-3.72.07-.28.15-.55.21-.85.38-1.52.74-3.04,1.08-4.57.09-.41.18-.83.26-1.24.25-1.12.49-2.26.71-3.38.11-.54.21-1.07.32-1.61.2-1.04.4-2.07.58-3.12.09-.54.2-1.08.29-1.62.2-1.14.38-2.28.55-3.42.07-.42.13-.83.2-1.25.24-1.56.45-3.12.65-4.68.04-.29.07-.59.11-.9.16-1.27.3-2.55.44-3.82.05-.53.11-1.06.16-1.6.11-1.07.2-2.13.29-3.2.04-.57.09-1.12.13-1.69.08-1.1.15-2.21.21-3.3.03-.5.07-.99.08-1.49.08-1.58.15-3.17.18-4.77h0c-8.33-31.74-31.51-66.67-68.83-66.72-35.05-.05-27.91,26.06-35.26,50.67-8.4,28.09-19.84,55.26-35.25,79.58-1.9,3-3.86,5.94-5.88,8.84-1.36,1.95-2.75,3.88-4.17,5.8-.75,1.02-1.52,2.02-2.28,3.02-1.78,2.32-3.62,4.61-5.49,6.87-4.04,4.85-8.28,9.54-12.76,14.03-6.42,6.43-13.3,12.45-20.66,18.03-.94.71-1.88,1.41-2.83,2.11-6.14,4.49-12.6,8.66-19.43,12.48-15.6,8.73-28.87,9.61-43.34,19.11-25.04,16.42-38.74,48.38-57.74,72-.01.03-.04.05-.07.08-.12.15-.25.3-.38.46h0c-.29.34-.62.73-.98,1.14-.05.05-.09.11-.15.17,0,0-.01.03-.03.03-.58.65-1.24,1.39-1.98,2.19l-.03.03c-.18.2-.36.4-.54.59l-.03.03c-.24.25-.48.52-.71.78-.05.05-.11.11-.16.17,0,0-.03.03-.03.04-.15.16-.3.33-.46.49-.15.16-.3.32-.45.48-.03.03-.05.05-.08.09-.15.16-.29.3-.44.46l-.04.04s-.09.09-.13.15c-.29.3-.58.62-.88.94-.01.01-.03.03-.04.05-.01.01-.04.04-.05.05-.46.49-.95,1-1.44,1.52-.05.05-.11.12-.17.17-.46.49-.92.98-1.41,1.48h-.01c-1.66,1.77-3.46,3.65-5.35,5.6-.07.07-.12.12-.17.18.04.18.08.37.12.55l-.04.03Z"/>
    </g>
    <g>
      <path class="cls-5" d="M888.09,1629.54c13.51-1.47,26.32-8.81,37.89-17.86.65-.5,1.28-1.02,1.91-1.52,2.54-2.05,5.02-4.17,7.42-6.31,5.41-4.83,10.49-9.8,15.15-14.37-7.26-6.51-15.65-12.52-24.08-18.57-2.4-1.73-4.81-3.46-7.2-5.2-8.35-6.11-16.42-12.43-23.11-19.48-36.64-.53-73.4,2.28-109.6-4.07-93.33-16.39-173.85-81.3-217.01-164.13l-6.41,4.77h0c2.65,18.95,8.06,37.59,15.73,55.6,48.75,114.48,189.87,204.06,309.3,191.15h0Z"/>
      <path class="cls-5" d="M1603.76,700.2c-1.57,6.84,3.91,6.83,7.71,9.75,164.25,125.82,231.86,344.13,206.42,545.83-11.65,92.41-60.2,189.44-102.06,271.2,25.08,2.79,29.45,13.7,47.83-4.52.59-.58,1.2-1.2,1.82-1.85,17.1-17.82,32.49-37.19,46.22-57.78,5.63-8.44,10.97-17.09,16.05-25.92,1.44-2.52,2.87-5.06,4.27-7.61,16.81-30.67,30.32-63.43,40.48-97.45,19.15-64.13,26.48-132.67,22.03-199.8-.07-.92-.13-1.85-.2-2.77-.87-12.19-2.13-24.33-3.78-36.4-.71-5.24-1.51-10.46-2.36-15.66-1.69-10.21-3.66-20.34-5.92-30.38-9.94-44.31-25.37-86.78-46.3-125.57-11.74-21.75-24.23-41.71-37.59-60.22-2.56-3.54-5.14-7.05-7.75-10.49-2.03-2.67-4.09-5.31-6.18-7.92-47.82-60.04-106.39-103.78-180.71-142.42h.01Z"/>
      <path class="cls-5" d="M2006.18,1799.91c-118.85,67.47-316.59,0-400.85-99.84-14.78-17.51-22.93-38.93-35.08-57.92-3.62-5.65-1.44-8-11.3-6.21.22,2.05.32,4.33.3,6.79-.16,23.79-10.16,64.63-.48,81.51,2.69,4.7,11.91,10.96,20.27,16.63.53.36,1.06.71,1.57,1.07.29.2.58.4.87.59.4.28.81.54,1.19.82,3.37,2.31,6.38,4.45,8.48,6.26,64.33,55.63,130.38,99.02,211.6,116.13,17.78,3.74,36.25,6.25,55.63,7.33,22.87,1.27,44.98-.18,65.64-4.71,24.74-5.41,47.39-15.25,66.69-30.23,3.37-2.61,6.64-5.39,9.81-8.32,2.35-2.18,4.62-4.48,6.85-6.83,2.27-2.4,4.5-4.87,6.64-7.46,8.48-10.26,15.89-22.02,22.06-35.34-11.37,4.08-18.94,13.56-29.87,19.77l-.03-.03Z"/>
      <path class="cls-5" d="M1165.07,1650.2c-46.54,72.62-119.22,134.26-202.5,159.63-59.32,18.08-150.99,24.31-209.54,2.93-18-6.58-29.77-17.37-45.87-26.2,37.96,75.58,137.38,93.74,216.09,86.48,30.81-2.84,67.21-17.93,102.7-37.4,1.07-.59,2.15-1.19,3.22-1.78,11.01-6.13,21.92-12.65,32.51-19.35.85-.53,1.69-1.07,2.54-1.6,2.63-1.68,5.24-3.35,7.82-5.04,1.52-.99,3.04-1.99,4.56-2.98,1.57-1.03,3.12-2.07,4.66-3.12,1.32-.88,2.63-1.77,3.94-2.65,1.53-1.04,3.06-2.07,4.57-3.12,3.22-2.22,6.41-4.42,9.52-6.63,3.12-2.19,6.18-4.38,9.18-6.54,3-2.17,5.93-4.31,8.78-6.41,2.85-2.11,5.64-4.19,8.35-6.22,3.61-2.72,7.08-5.36,10.39-7.92,24.19-18.7,38.92-28.26,41.84-60.68.46-5.12.61-10.18.54-15.2-.04-2.51-.12-5.01-.25-7.5-.13-2.48-.3-4.95-.5-7.42-.79-9.85-2.05-19.53-2.95-29.12-6.85-1.51-6.95,3.7-9.6,7.84h0Z"/>
      <path class="cls-5" d="M1630.86,2062.26c-48.3-4.13-124.47-44.37-163.13-73.89l-59.31-51.2c.65,2.18,1.04,4.64,1.43,7.18.24,1.55.48,3.13.78,4.71.21,1.1.46,2.18.75,3.25.08.29.15.59.24.87.48,1.6.98,3.2,1.51,4.77.71,2.14,1.47,4.25,2.26,6.34,1,2.69,2.07,5.35,3.2,7.96,26.48,61.36,85.12,99.58,150.28,113.84,3.84.85,7.7,1.6,11.58,2.27.92.16,1.85.32,2.76.46,2.54.41,5.08.79,7.63,1.14.45.07.91.12,1.36.18,2.65.34,5.32.65,7.99.91.61.07,1.2.12,1.81.17,2.76.26,5.53.48,8.31.65.38.03.77.05,1.15.07,16.06.95,32.17.52,47.99-1.33,10.5-1.23,26.14-5.51,39.73-12.16,1.6-.78,3.17-1.6,4.7-2.44s3.02-1.73,4.46-2.64c1.23-.78,2.4-1.58,3.55-2.4,2.21-1.58,4.27-3.25,6.09-4.99,3.31-3.17,5.92-6.6,7.46-10.26-21.45,8.82-70.54,8.58-94.59,6.52v.03Z"/>
      <path class="cls-5" d="M1301.2,1950.03c-51.52,61.54-119.51,93.78-196.86,110.63l-67.35,11.11c72.6,38.01,178.01,17.46,238.09-41.09,2.56-2.5,5.03-5.06,7.42-7.67,5.97-6.56,11.38-13.56,16.15-20.95,1.51-2.32,2.92-4.7,4.29-7.11.78-1.37,1.55-2.76,2.28-4.15,6.18-11.7,10.83-24.25,13.56-37.6.21-1.03.38-2.09.53-3.16h0c.15-1.07.25-2.18.36-3.3h0c.09-1.12.17-2.26.25-3.42,0-.09,0-.18.01-.28.07-1.02.12-2.03.18-3.08.3-4.93.67-10.16,1.88-15.6-9.88,2.32-13.84,17.39-20.77,25.67l-.03-.03Z"/>
      <path class="cls-5" d="M2176.62,1347.54c0-1.08-.03-2.18-.07-3.26-.03-.78-.05-1.55-.09-2.32-.04-1.07-.09-2.14-.16-3.2-.05-.79-.11-1.58-.16-2.36-.08-1.06-.16-2.13-.26-3.2-.07-.79-.15-1.6-.24-2.39-.11-1.07-.24-2.14-.37-3.21-.09-.79-.2-1.58-.3-2.38-.15-1.1-.32-2.19-.48-3.29-.12-.78-.24-1.55-.36-2.32-.18-1.15-.41-2.28-.62-3.43-.13-.73-.26-1.45-.41-2.18-.25-1.27-.53-2.54-.81-3.82-.13-.61-.25-1.21-.4-1.82-.44-1.89-.9-3.78-1.39-5.67-.04,1.6-.11,3.18-.18,4.77-.03.5-.05.99-.08,1.49-.07,1.1-.13,2.21-.21,3.3-.04.57-.08,1.12-.13,1.69-.09,1.07-.18,2.14-.29,3.2-.05.53-.11,1.06-.16,1.6-.13,1.28-.28,2.55-.44,3.82-.04.29-.07.59-.11.9-.2,1.56-.41,3.12-.65,4.68-.07.42-.13.83-.2,1.25-.17,1.15-.36,2.28-.55,3.42-.09.54-.18,1.08-.29,1.62-.18,1.04-.38,2.07-.58,3.12-.11.54-.21,1.07-.32,1.61-.22,1.14-.48,2.26-.71,3.38-.09.41-.17.83-.26,1.24-.34,1.53-.7,3.05-1.08,4.57-.07.28-.15.55-.21.85-.32,1.24-.63,2.48-.98,3.71-.13.5-.28,1-.42,1.51-.29,1.03-.58,2.06-.88,3.08-.16.53-.32,1.06-.48,1.58-.32,1.04-.65,2.1-.98,3.14-.15.46-.29.92-.44,1.37-.96,2.97-1.99,5.93-3.09,8.87-.17.45-.34.9-.52,1.35-.38,1.03-.78,2.05-1.19,3.06-.2.52-.41,1.03-.61,1.53-.4.99-.81,1.98-1.22,2.96-.2.48-.4.96-.61,1.44-.5,1.18-1.02,2.35-1.53,3.53-.12.26-.22.53-.34.79-.65,1.43-1.31,2.85-1.97,4.27-.18.38-.36.75-.54,1.12-.5,1.04-1,2.09-1.52,3.12-.24.49-.49.98-.74,1.45-.48.95-.96,1.89-1.45,2.83-.25.49-.5.96-.75,1.44-.54,1.03-1.1,2.05-1.65,3.06-.2.37-.4.74-.61,1.1-.77,1.37-1.53,2.73-2.32,4.09-.15.25-.3.5-.45.75-.65,1.11-1.31,2.22-1.97,3.31-.28.45-.54.9-.82,1.35-.55.91-1.12,1.82-1.69,2.72-.3.48-.59.94-.9,1.41-.59.92-1.19,1.85-1.8,2.77-.26.41-.53.82-.81,1.21-1.74,2.63-3.55,5.22-5.39,7.78-.29.4-.57.78-.86,1.18-.65.9-1.31,1.78-1.97,2.67-.33.45-.67.9-1.02,1.35-.65.86-1.29,1.7-1.95,2.55-.33.42-.66.85-.99,1.27-.79,1-1.58,2.01-2.39,3-.18.24-.38.48-.57.71-1,1.23-2.01,2.44-3.02,3.66-.28.33-.55.65-.82.96-.75.88-1.52,1.77-2.28,2.64-.37.42-.74.83-1.1,1.25-.7.79-1.41,1.58-2.13,2.38-.37.41-.75.83-1.12,1.24-.78.86-1.57,1.7-2.36,2.54-.3.32-.59.63-.9.95-1.08,1.15-2.18,2.28-3.29,3.41-.22.22-.45.45-.67.67-.9.91-1.8,1.81-2.69,2.71-.38.38-.77.75-1.16,1.14-.77.74-1.53,1.49-2.31,2.23-.41.4-.82.78-1.24,1.18-.79.75-1.6,1.51-2.42,2.25-.37.34-.74.69-1.11,1.02-1.18,1.07-2.35,2.13-3.54,3.17-1.19,1.04-2.39,2.09-3.59,3.1-.38.33-.78.66-1.18.99-.83.7-1.66,1.4-2.51,2.09-.45.37-.88.73-1.33,1.1-.83.67-1.65,1.33-2.48,2.01-.42.34-.85.67-1.28,1.02-.2.15-.38.3-.58.46-.81.63-1.62,1.25-2.43,1.88-.25.2-.5.4-.77.58-1.25.95-2.52,1.9-3.79,2.83-.36.26-.73.53-1.08.78-.67.49-1.35.99-2.03,1.48-.25.18-.5.36-.75.53-.46.33-.92.65-1.4.98-.44.3-.86.61-1.29.91s-.87.59-1.31.88c-.46.32-.94.63-1.41.96-.95.65-1.9,1.28-2.87,1.9-.37.25-.74.49-1.11.74-.11.07-.2.13-.29.2-1.23.79-2.46,1.57-3.68,2.35-.28.17-.55.34-.83.52-1.07.66-2.14,1.32-3.21,1.97-.48.29-.95.57-1.43.85-.9.54-1.81,1.07-2.71,1.6-.5.29-1,.58-1.51.87-.94.54-1.88,1.07-2.81,1.58-.45.25-.9.5-1.35.75-1.35.74-2.69,1.48-4.05,2.19-.03.01-.07.04-.09.05-.95.5-1.91.99-2.87,1.48-2.1,1.08-4.2,2.14-6.31,3.16-2.39,1.16-4.81,2.26-7.24,3.34-2.61,1.16-5.23,2.3-7.87,3.38-1.23.5-2.46,1-3.68,1.49-1.7.67-3.42,1.32-5.14,1.95-1.48.54-2.96,1.08-4.44,1.6-6.42,2.25-12.92,4.23-19.47,5.93-8.99,2.35-35.08,8.7-42.54,8.7l-66.72.2s-.05,0-.08.01l-21.45.07c-.04-.18-.08-.37-.12-.55-.18.2-.36.38-.55.57,0,0,0,0,0,0-1.12,1.16-2.26,2.35-3.43,3.57-8.48,8.81-18.04,18.74-25.74,27.11l-.03.03s-.04.04-.05.05c-1.07,1.16-2.09,2.28-3.08,3.37-.05.05-.11.11-.16.17-.46.5-.9,1-1.33,1.49-.03.03-.05.07-.08.09-.46.52-.91,1.03-1.36,1.53-.03.04-.05.07-.09.11-.09.11-.18.21-.28.32-.3.36-.62.7-.91,1.04-.04.04-.08.09-.12.13-.16.18-.3.36-.45.53-.63.73-1.23,1.44-1.78,2.1-.07.08-.13.16-.2.22-.3.37-.59.73-.88,1.07-.04.04-.07.08-.11.12-.04.05-.08.11-.12.16-.25.32-.5.63-.74.92-.04.05-.08.11-.13.17-.22.29-.44.57-.63.83-.05.08-.11.15-.17.22-.42.57-.78,1.08-1.08,1.55-.03.04-.05.08-.08.11-.04.07-.08.12-.11.17-.11.18-.21.34-.3.5,0,0-.01.03-.03.04-.03.04-.05.09-.08.13-.05.11-.09.2-.15.29-.04.09-.09.18-.13.26-.01.04-.03.07-.04.11-.03.07-.04.13-.07.2-.01.05-.04.11-.05.16,0,.04-.01.08-.03.11-.01.12-.03.24,0,.32,1.58,1.1,3.05,2.26,4.44,3.45,2.5,2.15,4.7,4.44,6.83,6.75,1.02,1.11,2.03,2.22,3.04,3.34.53.58,1.04,1.15,1.57,1.73.21.24.44.48.66.7.5.54,1.02,1.07,1.52,1.61.2.21.4.42.61.62.7.71,1.4,1.41,2.14,2.1.01,0,.03.03.04.04.09.08.18.17.28.25.49.46.99.91,1.51,1.35.2.17.41.34.61.52.44.37.9.74,1.36,1.11.2.16.41.32.61.48.66.5,1.33,1,2.03,1.48h.01c.78.53,1.6,1.06,2.44,1.56.85.5,1.73.99,2.65,1.45,1.08.55,2.18,1.08,3.28,1.6.36.17.73.33,1.08.49.74.34,1.48.67,2.22.99.44.18.86.37,1.29.54.67.28,1.35.57,2.03.83.46.18.91.36,1.37.53.66.25,1.32.5,1.98.74.46.17.92.33,1.4.49.66.24,1.33.45,1.99.67.46.15.92.3,1.37.45.69.21,1.39.42,2.09.63.44.13.87.26,1.31.38.77.21,1.55.42,2.31.62.36.09.73.2,1.08.29,1.14.28,2.27.55,3.41.81,1.07.24,2.14.45,3.21.66s2.14.4,3.22.57c1.23.2,2.46.38,3.7.54.38.05.77.09,1.15.15.87.11,1.73.21,2.6.3.44.04.86.09,1.29.13.87.08,1.74.16,2.61.22.38.03.77.07,1.15.08,2.48.16,4.98.26,7.48.29h1.14c.88,0,1.77,0,2.65-.01.42,0,.86-.01,1.28-.03.88-.03,1.77-.05,2.67-.09.38-.01.75-.03,1.14-.05,1.25-.07,2.51-.13,3.76-.22,1.2-.09,2.4-.2,3.62-.3h.04c1.93-.18,3.86-.41,5.78-.66.29-.04.59-.08.88-.12,1.85-.25,3.7-.54,5.55-.86.38-.07.75-.13,1.14-.2,2.22-.4,4.45-.83,6.66-1.31h.05c2.21-.48,4.41-.99,6.6-1.55.01,0,.04,0,.05-.01,2.21-.55,4.4-1.15,6.6-1.77h.01c2.21-.63,4.4-1.29,6.59-2.01,1.43-.45,2.84-.92,4.25-1.4,4.07-1.39,8.11-2.89,12.11-4.49.13-.05.28-.11.41-.16,1.28-.52,2.55-1.03,3.82-1.57.03,0,.04-.01.07-.03,1.33-.55,2.65-1.12,3.98-1.7.07-.03.15-.07.21-.09,1.15-.5,2.28-1.02,3.42-1.53.33-.15.65-.29.98-.45.92-.42,1.85-.86,2.77-1.29.33-.16.66-.3.98-.46,1.2-.57,2.4-1.15,3.61-1.74,2.22-1.1,4.41-2.21,6.59-3.34.17-.09.34-.18.52-.26,2.02-1.06,4.04-2.14,6.04-3.24.21-.12.44-.24.65-.36,1.98-1.1,3.96-2.22,5.9-3.34.17-.09.34-.2.52-.29,2.09-1.21,4.15-2.43,6.18-3.67.01,0,.04-.03.05-.04,2.03-1.24,4.04-2.5,6.04-3.75.17-.11.34-.22.52-.33,1.85-1.18,3.67-2.36,5.48-3.57.21-.13.42-.28.62-.41,1.81-1.2,3.58-2.4,5.34-3.61.16-.11.32-.21.48-.33,1.89-1.31,3.75-2.61,5.59-3.92,2.28-1.64,4.57-3.31,6.85-5.01.26-.2.53-.38.79-.58,2.18-1.61,4.35-3.26,6.51-4.93.36-.28.71-.54,1.06-.82,2.14-1.65,4.27-3.33,6.41-5.02.36-.28.7-.55,1.04-.85,2.17-1.73,4.32-3.49,6.47-5.27.25-.21.49-.41.74-.62,4.57-3.8,9.1-7.7,13.56-11.7.16-.15.33-.29.49-.44,2.17-1.94,4.32-3.91,6.44-5.89.26-.24.53-.49.78-.73,2.1-1.97,4.19-3.95,6.25-5.96l.07.07c.26-.25.53-.5.78-.77,2.09-2.03,4.16-4.09,6.22-6.18.17-.17.34-.36.52-.53,4.36-4.44,8.61-8.95,12.77-13.58.04-.05.09-.11.13-.15,2.02-2.26,4.03-4.54,6-6.84.17-.2.34-.4.52-.59,1.91-2.25,3.8-4.52,5.67-6.8.18-.24.38-.48.57-.7,1.86-2.3,3.7-4.62,5.51-6.97.13-.17.26-.36.4-.53,3.8-4.97,7.48-10.01,10.97-15.15.11-.16.21-.3.32-.46,1.04-1.53,2.06-3.06,3.06-4.61.32-.49.62-.98.94-1.47.69-1.06,1.36-2.11,2.03-3.18.37-.59.74-1.2,1.11-1.8.59-.96,1.19-1.93,1.77-2.89.4-.65.77-1.29,1.16-1.95.54-.92,1.1-1.85,1.62-2.79.4-.67.78-1.36,1.16-2.03.52-.91,1.03-1.84,1.53-2.75.38-.69.75-1.39,1.14-2.09.5-.92.99-1.84,1.47-2.76.37-.7.73-1.39,1.08-2.09.48-.94.95-1.88,1.43-2.81.34-.69.69-1.37,1.02-2.07.48-.96.94-1.94,1.39-2.91.32-.67.63-1.33.94-2.01.48-1.03.94-2.07,1.4-3.12.28-.62.55-1.23.82-1.85.53-1.2,1.03-2.42,1.53-3.62.18-.46.38-.91.58-1.37.69-1.68,1.35-3.35,1.98-5.03.12-.32.22-.62.34-.94.52-1.37,1.02-2.75,1.51-4.12.21-.59.41-1.2.62-1.8.38-1.1.75-2.19,1.12-3.3.22-.69.44-1.36.65-2.05.33-1.03.65-2.06.95-3.09.21-.73.42-1.44.63-2.17.29-1,.57-2.01.85-3.01.2-.74.4-1.48.58-2.23.26-.99.52-1.99.75-3,.18-.75.36-1.51.54-2.26.24-1,.45-2.01.67-3.01.16-.75.32-1.51.48-2.26.21-1.02.41-2.05.59-3.06.13-.74.28-1.48.41-2.22.18-1.06.36-2.13.53-3.18.11-.71.22-1.41.33-2.13.17-1.15.32-2.31.46-3.46.08-.62.17-1.25.24-1.88.17-1.45.32-2.92.46-4.38.03-.33.07-.66.11-.99.16-1.8.29-3.61.4-5.4.03-.49.04-.99.07-1.48.07-1.31.13-2.63.17-3.95.03-.67.03-1.36.04-2.03.03-1.14.04-2.28.04-3.42,0-.74-.01-1.48-.03-2.23Z"/>
    </g>
    <path class="cls-2" d="M2111.23,1607.02c99.82-78.47,177.25-199.45,136.28-331.71-22.15-71.49-117.02-143.08-191.93-108.53-72.14,33.27-51.93,80.05-77.17,140.69-1.4,3.35-18.36,41.85-25.59,33.64,68.45-248.64-15.78-487.86-214.9-645.37-436.35-345.21-1055.31,39.03-969.74,576.31,1.45,9.15,19.22,58.85,15.81,62.65-11.94-1.18-21.38-24.13-24.89-34.34-8.9-25.87-8.87-58.28-19.31-83.23-7.86-18.81-34.42-45.97-53.65-52.07-94.03-29.82-184.83,37.32-202.39,130.36-26.03,137.9,52.02,252.91,158.94,329.73-112.59,181.49,76.32,347.13,256.59,328.03-6.84,113.7,75.95,210.04,190.37,218.07,102.21,7.18,180.64-31.8,253.21-99.39,7.66-7.13,11.82-15.68,19.47-22.39,5.27-1.11,41.31,39.61,49.26,46.37,91.75,78.17,249.47,109.34,352.08,35.01,49-35.5,84.46-114.54,70.66-174.45h56.04c15.53,0,53.18-11.57,69.53-16.94,106.68-35.13,183.85-123.46,172.2-241-3.7-37.35-18.41-48.92-42.75-71.87-2.69-2.55-2.93-2.19-2.03-6.63,8.95-1.48,16.98-7.47,23.93-12.94h-.01ZM578.79,1438.37c-7.67-18.01-13.07-36.65-15.73-55.6-2.01-14.32-4.01-34.54-3.67-54.41.32-18.63,2.72-36.95,9.13-49.82l.08-.16c.44-.86.88-1.69,1.35-2.5,3.13-5.4,9.24-11.86,16.67-18.03,4.98-4.13,10.55-8.14,16.2-11.58,1.24-.77,2.5-1.51,3.74-2.21.77-.44,1.53-.86,2.3-1.27,1.53-.82,3.06-1.58,4.57-2.28,3.02-1.41,5.97-2.59,8.77-3.46,1.4-.44,2.77-.79,4.08-1.07,1.32-.28,2.59-.48,3.8-.57.61-.05,1.2-.08,1.78-.08,47.28-.32,33.88,36.42,40.95,68.03,12.22,54.56,63.31,106.78,112.2,131.26,3.95,1.98,10.29,4.04,17.05,6.06,1.61.49,3.25.96,4.89,1.45.61.17,1.22.36,1.81.53,10.26,3.01,19.99,5.86,22.46,8.2,1.51,1.41,3.74,4.53,6.38,8.61,8.86,13.68,22.41,38.38,28.94,47.36.24.32.48.66.71.99.41.57.83,1.15,1.25,1.74.79,1.11,1.6,2.26,2.43,3.43.38.54.75,1.07,1.14,1.62,7.59,10.83,16.3,23.46,24,31.56,6.7,7.05,14.77,13.37,23.11,19.48,2.39,1.74,4.79,3.47,7.2,5.2,8.41,6.05,16.8,12.06,24.08,18.57-4.66,4.57-9.73,9.54-15.15,14.37-2.4,2.15-4.89,4.27-7.42,6.31-.63.52-1.27,1.02-1.91,1.52-11.57,9.05-24.37,16.4-37.89,17.86-119.43,12.9-260.56-76.69-309.3-191.15h.01ZM2054.97,1724.95c-1.33,19.18-11.32,38.81-18.91,55.2-6.17,13.34-13.59,25.08-22.06,35.34-2.14,2.59-4.37,5.06-6.64,7.46-2.23,2.35-4.5,4.65-6.85,6.83-3.17,2.93-6.43,5.71-9.81,8.32-19.31,14.98-41.96,24.82-66.69,30.23-20.66,4.53-42.76,5.98-65.64,4.71-19.37-1.07-37.85-3.58-55.63-7.33-81.23-17.1-147.27-60.49-211.6-116.13-2.1-1.81-5.11-3.96-8.48-6.26-.4-.26-.79-.54-1.19-.82-.29-.2-.58-.4-.87-.59-.52-.36-1.04-.71-1.57-1.07-8.36-5.67-17.58-11.93-20.27-16.63-9.68-16.89.32-57.73.48-81.51.01-2.46-.07-4.74-.3-6.79-1.76-15.86-15.1-24.59-29.83-26.35-1.48-.17-2.96-.28-4.45-.32-2.23-.05-4.48.05-6.7.3-5.18.59-10.21,2.05-14.66,4.34-43.28,22.27-38.19,95.89-24.26,153.28.41,1.66.82,3.31,1.23,4.95.16.65.33,1.28.5,1.91,4.94,18.95,10.7,35.72,15.77,47.69,2.88,6.8,6.21,13.7,9.94,20.62,1.24,2.31,2.54,4.62,3.88,6.92,30.1,51.94,82.67,103.53,140.61,120.11,2.58.74,5.16,1.4,7.75,2.01,2.59.59,5.2,1.12,7.81,1.57,9.14,1.57,18.37,2.22,27.64,1.82,1.4-.07,2.93-.25,4.56-.54.33-.05.66-.12.99-.18.66-.13,1.35-.26,2.05-.42.7-.16,1.4-.32,2.13-.49.65-.16,1.31-.32,1.97-.49.15-.04.3-.08.45-.12,19.23-4.93,44.9-14.01,46.91,14.7.45,6.43-.58,15.66-2.87,25.32-.21.87-.42,1.76-.65,2.64-4.09,15.87-11.44,32.29-21,38.75-.15.11-.3.18-.45.28-.38.25-.77.5-1.16.71-.54.29-1.1.55-1.65.79-1.55,3.66-4.13,7.08-7.46,10.26-1.82,1.74-3.87,3.41-6.09,4.99-1.15.82-2.32,1.62-3.55,2.4-1.44.91-2.93,1.8-4.46,2.64s-3.1,1.66-4.7,2.44c-13.59,6.66-29.23,10.94-39.73,12.16-15.82,1.85-31.93,2.28-47.99,1.33-.38-.03-.77-.05-1.15-.07-2.77-.17-5.55-.4-8.31-.65-.61-.05-1.2-.12-1.81-.17-2.67-.26-5.34-.57-7.99-.91-.45-.05-.91-.12-1.36-.18-2.55-.34-5.1-.73-7.63-1.14-.92-.15-1.85-.3-2.76-.46-3.88-.67-7.74-1.43-11.58-2.27-65.16-14.26-123.8-52.48-150.28-113.84-1.12-2.61-2.19-5.27-3.2-7.96-.78-2.09-1.55-4.2-2.26-6.34-.53-1.57-1.02-3.17-1.51-4.77-.09-.29-.16-.58-.24-.87-.29-1.07-.54-2.15-.75-3.25-.3-1.57-.54-3.16-.78-4.71-.4-2.55-.78-5.02-1.43-7.2-1.88-6.3-3.99-15.47-6.5-25.25-4.98-19.36-11.56-41.14-21.22-47.97-7.07-4.99-13.26-7.29-18.71-7.53-.99-.04-1.95-.01-2.89.07-.48.04-.94.11-1.4.18-1.37.22-2.69.59-3.98,1.1-2.55.99-4.89,2.48-7.04,4.38-.71.63-1.41,1.31-2.09,2.02-.04.04-.08.08-.11.12-.59.63-1.16,1.29-1.72,1.98-11.95,14.7-17.34,42.31-20.81,58.07-1.2,5.44-1.57,10.67-1.88,15.6-.07,1.04-.12,2.06-.18,3.08,0,.09,0,.18-.01.28-.08,1.16-.16,2.3-.25,3.41h0c-.09,1.14-.21,2.23-.36,3.31h0c-.15,1.08-.32,2.13-.53,3.16-2.73,13.35-7.37,25.91-13.56,37.6-.74,1.4-1.49,2.77-2.28,4.15-1.37,2.4-2.79,4.78-4.29,7.11-4.77,7.38-10.18,14.37-16.15,20.95-2.39,2.63-4.86,5.19-7.42,7.67-60.08,58.56-165.49,79.11-238.09,41.09-22.39-11.73-39.79-22.4-49.04-48.67-1.7-4.86-3.31-12.11-4.08-19.93-.15-1.43-.25-2.88-.33-4.35-.04-.85-.08-1.7-.11-2.56-.04-1.57-.04-3.16,0-4.71.09-3.14.38-6.25.9-9.18.4-2.21.91-4.32,1.6-6.29.58-1.68,1.28-3.25,2.1-4.69.25-.44.5-.86.77-1.27.75-1.16,1.61-2.22,2.56-3.16.7-.7,1.45-1.35,2.27-1.9,1.45-.99,3.09-1.77,4.93-2.26,6.38-1.69,23.64,1.91,33.39,3.02.65.08,1.27.13,1.85.18,7.63.65,15.06.86,22.25.63,7.2-.22,14.17-.86,20.95-1.89,1.69-.26,3.37-.54,5.03-.85,79.89-14.74,129.1-85.22,155.35-164.17,0-.04.03-.08.04-.11,2.63-7.9,5.02-15.89,7.18-23.9l.52-1.94c.79-2.98,1.57-5.98,2.3-8.98,6.8-27.71,17.82-106.54-6.25-136.66-.65-.82-1.35-1.58-2.05-2.32-.65-.67-1.31-1.33-1.99-1.94-4.33-3.87-9.57-6.43-15.86-7.3-11.94-1.64-26.98-1.51-36.73,4.37-.81.49-1.56,1.02-2.28,1.58-.66.52-1.31,1.06-1.9,1.65-4.13,4.11-6.43,9.97-5.67,18.19.9,9.59,2.15,19.28,2.95,29.12.2,2.46.37,4.94.5,7.42.13,2.48.21,4.98.25,7.5.07,5.01-.08,10.08-.54,15.2-2.92,32.42-17.63,41.97-41.84,60.68-3.31,2.56-6.79,5.22-10.39,7.92-2.71,2.03-5.49,4.12-8.35,6.22-2.85,2.11-5.78,4.25-8.78,6.41-3,2.17-6.05,4.35-9.18,6.54-3.12,2.19-6.3,4.41-9.52,6.63-1.51,1.04-3.04,2.07-4.57,3.12-1.31.88-2.61,1.77-3.94,2.65-1.55,1.04-3.1,2.07-4.66,3.12-1.51.99-3.02,1.99-4.56,2.98-2.59,1.69-5.19,3.37-7.82,5.04-.85.54-1.69,1.07-2.54,1.6-10.61,6.7-21.5,13.22-32.51,19.35-1.07.59-2.15,1.19-3.22,1.78-35.49,19.45-71.88,34.55-102.7,37.4-78.73,7.26-178.13-10.88-216.09-86.48-5.78-11.52-11.7-23.39-15.52-35.7-.05-.16-.09-.32-.15-.48-.4-1.31-.77-2.61-1.12-3.94-.38-1.43-.73-2.87-1.03-4.32-.18-.83-.36-1.68-.5-2.52-1.97-10.54-1.99-21.39,1.27-32.61,1.64-5.67,3.66-10.04,5.97-13.35.34-.49.69-.94,1.03-1.37.55-.69,1.11-1.32,1.69-1.9,3.8-3.8,8.23-5.38,13.06-5.43.44,0,.86,0,1.31.03.7.03,1.41.09,2.13.18.2.03.41.05.61.08.59.08,1.19.18,1.8.3.33.07.66.13,1,.21.44.11.87.21,1.32.32.87.22,1.77.49,2.65.78.44.15.87.29,1.31.45.86.3,1.73.63,2.59.98,3.65,1.47,7.38,3.3,11.15,5.3,1.18.63,2.36,1.27,3.55,1.93.94.52,1.88,1.04,2.8,1.56.46.26.94.53,1.4.79,1.88,1.04,3.74,2.1,5.59,3.13.92.52,1.85,1.02,2.77,1.52,4.6,2.5,9.09,4.75,13.34,6.38,8.76,3.33,17.56,6.02,26.36,8.14,69.41,16.64,138.76-4.04,188.92-51.7,1.11-1.06,2.21-2.11,3.3-3.2,2.18-2.15,4.32-4.37,6.42-6.63,1.06-1.14,2.09-2.27,3.12-3.43,9.27-10.41,17.71-21.84,25.19-34.23,1.25-2.07,2.75-4.77,4.37-7.87.32-.62.65-1.25.98-1.91,4.98-9.79,10.8-23.01,14.14-34.61.45-1.55.85-3.06,1.19-4.54.17-.74.33-1.47.49-2.19.59-2.88.95-5.56,1.03-7.96.08-2.4-.13-4.52-.7-6.26-2.81-8.73-7.2-13.96-12.34-17.01-1.16-.69-2.36-1.27-3.61-1.76-.53-.21-1.06-.4-1.6-.58-1.06-.34-2.13-.61-3.22-.83-.98-.2-1.95-.36-2.95-.48-.7-.08-1.4-.15-2.1-.2-.69-.05-1.39-.08-2.07-.09h-.05c-11.27-.29-22.58,2.96-28.2.38-.05-.03-.13-.08-.2-.12-.16-.09-.33-.22-.54-.38-.45-.36-.99-.86-1.65-1.52-.82-.82-1.8-1.86-2.88-3.06-.36-.4-.74-.82-1.12-1.25-.77-.87-1.58-1.81-2.44-2.8-.42-.5-.86-1-1.31-1.53-.65-.75-1.31-1.55-1.98-2.35-.53-.63-1.06-1.27-1.6-1.91-.55-.67-1.12-1.36-1.69-2.05-1.11-1.35-2.22-2.71-3.34-4.07-.86-1.06-1.73-2.13-2.58-3.17-.11-.12-.2-.25-.3-.37-2.26-2.8-4.45-5.52-6.41-7.98-.09-.12-.18-.22-.28-.34-.71-.9-1.4-1.76-2.05-2.58-.13-.17-.26-.33-.4-.5-1.94-2.44-3.5-4.4-4.44-5.57-.04-.05-.09-.12-.13-.17-5.01-6.27-9.81-12.57-14.46-18.91-3.87-5.28-7.63-10.58-11.25-15.91-2.19-3.22-4.33-6.46-6.43-9.69-.91-1.4-1.81-2.81-2.71-4.21-2.03-3.21-4.04-6.43-6-9.65-3.59-5.93-7.03-11.89-10.33-17.88-2.19-3.99-4.33-7.99-6.41-12.02-2.07-4.01-4.08-8.06-6.02-12.1s-3.83-8.11-5.64-12.18c-6.37-14.26-11.97-28.68-16.84-43.3-.7-2.09-1.37-4.19-2.05-6.27-5.34-16.77-9.71-33.8-13.18-51.08-1.73-8.65-3.25-17.35-4.53-26.14-.32-2.19-.63-4.4-.92-6.6-1.15-8.62-2.09-17.31-2.81-26.08-.03-.37-.07-.74-.09-1.11-.53-6.44-.94-12.93-1.25-19.44-.12-2.44-.21-4.9-.3-7.36-.7-20.44-.36-41.28.99-62.53,1.06-16.59,2.71-33.41,4.94-50.52,26.68-204.43,217.26-382.27,415.79-426.71,86.94-19.47,169.92-14.37,250,10.97,10.45,3.3,20.84,6.96,31.19,10.95,20.69,7.98,41.2,17.29,61.56,27.87,74.31,38.64,132.87,82.4,180.71,142.42,2.07,2.61,4.13,5.26,6.18,7.92,2.61,3.43,5.19,6.95,7.75,10.49,13.35,18.5,25.85,38.47,37.59,60.22,20.93,38.79,36.36,81.27,46.3,125.57,2.26,10.04,4.23,20.17,5.92,30.38.86,5.2,1.65,10.42,2.36,15.66,1.65,12.06,2.91,24.19,3.78,36.4.07.92.13,1.85.2,2.77,4.45,67.13-2.88,135.67-22.03,199.8-10.16,34.02-23.67,66.79-40.48,97.45-1.4,2.55-2.83,5.08-4.27,7.61-5.06,8.84-10.41,17.49-16.05,25.92-13.74,20.59-29.12,39.96-46.22,57.78-.62.65-1.23,1.27-1.82,1.85-18.38,18.21-22.76,7.32-47.83,4.52-.05.11-.22.24-.49.4-.13.08-.28.17-.45.28-.08.05-.17.09-.25.15-.21.12-.45.26-.69.41-.12.07-.24.13-.36.21-.22.13-.45.28-.7.44-1.68,1.07-3.63,2.6-4.73,4.75-2.28,4.52-4.09,8.78-5.49,12.88-5.23,15.28-4.58,28.12.09,41.75.05.16.12.33.17.49.28.81.58,1.61.88,2.42,2.64,6.96,6.27,14.2,10.66,22.11,41.64,75.21,124,115.68,207.6,106.8,1.47-.16,2.93-.33,4.4-.52,8.81-1.12,17.6-2.79,26.37-5.02.34-.09.71-.2,1.07-.3,20.14-5.67,69.31-33.58,83-29.68.54.16,1.1.38,1.64.67.38.21.77.45,1.16.71.44.29.87.62,1.29.96.26.22.54.46.81.7.77.7,1.52,1.48,2.23,2.28.07.08.13.15.2.22,1.66,1.9,3.1,3.96,4.11,5.61.52.85.99,1.69,1.44,2.54,3.13,5.97,4.71,12.18,5.18,18.5.2,2.71.18,5.44,0,8.17h0ZM1594.17,1834.67c-5.74-10.37-10.05-21.22-12.34-32.12,8.98,15.32,18.81,29.45,29.78,42.35.65.46,1.33.96,2.02,1.49.05.04.11.08.16.12,2.11,1.61,4.38,3.45,6.74,5.4.01,0,.03.03.04.04,4.11,3.43,8.44,7.24,12.55,10.82.57.49,1.14.98,1.69,1.47.2.17.41.34.61.53.54.46,1.07.92,1.58,1.37.16.13.32.26.46.4.63.54,1.25,1.07,1.88,1.6.16.13.3.26.46.38.63.53,1.25,1.06,1.85,1.55.05.05.12.09.17.15.57.46,1.12.91,1.65,1.35.11.08.21.17.32.25.55.45,1.1.87,1.61,1.27.11.08.2.16.3.22.53.41,1.04.79,1.53,1.14,6.6,4.7,13.4,11.71,21.59,15.24l43.78,18.61c-.98.15-1.94.25-2.92.36-.29.03-.58.05-.87.08-.71.07-1.44.12-2.15.16-.29.01-.58.04-.86.05-.94.04-1.89.07-2.83.08h-.61c-.75,0-1.51-.01-2.25-.04-.36,0-.73-.03-1.08-.05-.62-.03-1.23-.07-1.85-.12-.36-.03-.73-.05-1.08-.08-.87-.08-1.73-.17-2.6-.28-.41-.05-.82-.11-1.23-.17-.52-.07-1.03-.15-1.55-.22-.48-.08-.95-.16-1.43-.24-.44-.08-.88-.16-1.32-.25-1.06-.2-2.1-.42-3.14-.67-.21-.05-.44-.09-.65-.15-.57-.13-1.14-.29-1.7-.44-.32-.08-.63-.17-.95-.25-.58-.16-1.16-.32-1.74-.49-.25-.07-.49-.15-.74-.22-1.35-.41-2.69-.85-4.03-1.31-4.85-.99-16.46-5.94-22.56-9.5-20.88-12.15-41.14-31.75-54.9-54.08h0c-1.18-1.91-2.31-3.84-3.38-5.8h-.03ZM1020.96,1905.13c46.71-9.59,85.09-31.85,120.12-64.03-18.19,32.96-58.23,58.76-94.49,67.24-8.97,2.09-28.39,8.89-25.62-3.21ZM2084.37,1534.25c-.26.25-.52.5-.78.77-2.06,2.01-4.15,3.99-6.25,5.96-.26.24-.52.49-.78.73-2.14,1.98-4.28,3.96-6.44,5.89-.16.15-.33.29-.49.44-4.48,4-9.01,7.9-13.56,11.7-.25.21-.49.41-.74.62-2.15,1.78-4.31,3.53-6.47,5.27-.34.28-.7.55-1.04.85-2.13,1.69-4.27,3.37-6.41,5.02-.36.28-.71.54-1.06.82-2.17,1.66-4.35,3.31-6.51,4.93-.26.2-.53.38-.79.58-2.28,1.69-4.57,3.37-6.85,5.01-1.84,1.31-3.7,2.61-5.59,3.92-.16.11-.32.21-.48.33-1.76,1.21-3.54,2.42-5.34,3.61-.21.13-.41.28-.62.41-1.81,1.19-3.63,2.38-5.48,3.57-.17.11-.34.22-.52.33-1.99,1.27-4,2.51-6.04,3.75-.01,0-.04.03-.05.04-2.03,1.24-4.11,2.47-6.18,3.67-.17.09-.34.2-.52.29-1.95,1.14-3.92,2.25-5.9,3.34-.21.12-.44.24-.65.36-1.99,1.1-4,2.18-6.04,3.24-.17.09-.34.18-.52.26-3.35,1.76-6.76,3.45-10.2,5.08-.33.16-.66.3-.98.46-.92.44-1.85.87-2.77,1.29-.33.15-.65.3-.98.45-1.14.52-2.27,1.03-3.42,1.53-.07.03-.15.07-.21.09-1.32.58-2.64,1.15-3.98,1.7-.03,0-.04.01-.07.03-1.27.53-2.55,1.06-3.82,1.57-.13.05-.28.11-.41.16-7.54,3.01-15.21,5.68-22.95,7.9h-.01c-2.19.63-4.4,1.21-6.6,1.77-.01,0-.04,0-.05.01-2.19.55-4.4,1.07-6.6,1.55h-.05c-2.22.48-4.44.91-6.66,1.31h0c-4.45.79-8.9,1.4-13.35,1.84h-.03c-2.46.24-4.91.41-7.37.54-.38.01-.75.03-1.14.05-.88.04-1.77.07-2.67.09-.42,0-.86.01-1.28.03-.88.01-1.77.01-2.65.01h-1.14c-2.5-.03-4.99-.12-7.48-.29-.38-.03-.77-.05-1.15-.08-.87-.07-1.74-.13-2.61-.22-.44-.04-.86-.08-1.29-.13-.87-.09-1.73-.2-2.6-.3-.38-.05-.77-.09-1.15-.15-2.31-.3-4.62-.67-6.92-1.12-2.22-.42-4.42-.91-6.62-1.47-.36-.09-.73-.18-1.08-.29-.77-.2-1.55-.41-2.31-.62-.44-.12-.87-.25-1.31-.38-.7-.2-1.39-.41-2.09-.63-.46-.15-.92-.29-1.37-.45-.67-.22-1.33-.44-1.99-.67-.46-.16-.92-.33-1.4-.49-.66-.24-1.32-.49-1.98-.74-.46-.17-.91-.36-1.37-.53-.67-.26-1.35-.55-2.03-.83-.44-.18-.87-.36-1.29-.54-.74-.32-1.48-.66-2.22-.99-.36-.16-.73-.33-1.08-.49-1.1-.52-2.19-1.04-3.28-1.6-1.85-.94-3.54-1.95-5.11-3.02-.7-.48-1.37-.98-2.03-1.48-.21-.16-.41-.32-.61-.48-.46-.36-.91-.73-1.36-1.11-.21-.17-.41-.34-.61-.52-.52-.45-1.02-.9-1.51-1.35-.09-.08-.18-.17-.28-.25h0l-.04-.04c-.73-.69-1.44-1.39-2.14-2.1-.2-.21-.41-.42-.61-.62-.52-.53-1.02-1.07-1.52-1.61-.22-.24-.44-.48-.66-.7-.53-.58-1.06-1.15-1.57-1.73-.79-.87-1.57-1.74-2.36-2.6-.22-.25-.45-.49-.67-.73-3.3-3.59-6.8-7.11-11.27-10.2-.04-.15,0-.34.08-.58.01-.07.04-.12.07-.2h0c.04-.11.11-.24.17-.37.04-.09.08-.18.13-.29h0c.03-.05.07-.11.09-.17.09-.16.18-.33.3-.5h0s.07-.12.11-.18h0s.05-.07.07-.11c.34-.53.75-1.11,1.24-1.77h0c.2-.26.41-.54.62-.82h0c.28-.34.55-.71.86-1.1.04-.05.08-.09.12-.15h0s.07-.08.11-.12c0-.01.03-.03.04-.04.26-.33.54-.66.83-1h.01c.61-.75,1.28-1.53,1.98-2.35.15-.16.28-.32.41-.48,0-.01.03-.03.04-.04.04-.04.08-.09.12-.13.01-.03.04-.04.05-.05.28-.32.57-.65.86-.98,1.91-2.19,4.09-4.58,6.43-7.14h0l.03-.03c7.71-8.37,17.27-18.3,25.74-27.11,1.16-1.21,2.31-2.4,3.43-3.57.25-.25.49-.5.73-.77,1.86-1.94,3.66-3.8,5.31-5.55,0,0,.03-.03.03-.04h.01c.48-.52.95-1,1.41-1.49.05-.05.12-.12.17-.17.48-.49.92-.98,1.37-1.45.03-.03.04-.05.07-.07.03-.04.07-.07.09-.11.21-.22.42-.45.63-.66.08-.09.17-.17.25-.26.05-.07.12-.12.17-.18.15-.16.29-.32.44-.46.18-.2.36-.38.53-.57h0c.16-.16.3-.33.45-.49.07-.07.13-.13.18-.21.11-.11.2-.22.3-.33.13-.15.28-.3.41-.45.2-.22.4-.44.59-.65.16-.17.32-.34.46-.52.18-.2.36-.4.53-.59.11-.12.2-.22.3-.34.13-.16.28-.3.41-.45.09-.11.18-.2.26-.3.07-.07.12-.13.17-.2.07-.08.13-.15.2-.22.09-.11.17-.2.26-.3.12-.13.22-.26.33-.38.07-.08.13-.16.2-.22.16-.2.32-.38.45-.55,19-23.63,32.7-55.59,57.74-72,14.47-9.5,27.75-10.38,43.34-19.11,6.81-3.82,13.29-7.99,19.43-12.48.95-.7,1.89-1.4,2.83-2.11,7.36-5.57,14.24-11.6,20.66-18.03,4.48-4.49,8.72-9.18,12.76-14.03,1.88-2.26,3.7-4.54,5.49-6.87.77-1,1.53-2.01,2.28-3.02,1.41-1.91,2.81-3.84,4.17-5.8,2.02-2.91,3.98-5.85,5.88-8.84,15.43-24.31,26.86-51.49,35.25-79.58,7.36-24.6.21-50.73,35.26-50.67,37.32.05,60.5,34.98,68.83,66.72h0c.5,1.89.96,3.78,1.39,5.67.15.61.26,1.21.4,1.82.28,1.27.55,2.55.81,3.82.15.73.28,1.45.41,2.18.21,1.15.42,2.3.62,3.43.13.78.24,1.55.36,2.32.17,1.1.33,2.19.48,3.29.11.79.2,1.58.3,2.38.13,1.07.25,2.14.37,3.21.08.79.16,1.6.24,2.39.09,1.07.18,2.13.26,3.2.05.79.12,1.58.16,2.36.07,1.07.12,2.14.16,3.2.03.78.07,1.55.09,2.32.03,1.1.05,2.18.07,3.26,0,.74.03,1.48.03,2.23,0,1.15-.03,2.28-.04,3.42,0,.67-.01,1.36-.04,2.03-.04,1.32-.11,2.63-.17,3.95-.03.49-.04.99-.07,1.48-.11,1.81-.24,3.61-.4,5.4-.03.33-.07.66-.11.99-.13,1.47-.29,2.92-.46,4.38-.08.63-.16,1.25-.24,1.88-.15,1.16-.3,2.31-.46,3.46-.11.71-.22,1.41-.33,2.13-.17,1.07-.34,2.13-.53,3.18-.13.74-.28,1.48-.41,2.22-.2,1.03-.38,2.05-.59,3.06l-.48,2.26c-.21,1-.44,2.01-.67,3.01-.17.75-.36,1.51-.54,2.26-.24,1-.5,1.99-.75,3-.2.74-.38,1.48-.58,2.23-.28,1-.55,2.01-.85,3.01-.21.73-.41,1.45-.63,2.17-.3,1.03-.63,2.06-.95,3.09-.21.69-.42,1.37-.65,2.05-.36,1.11-.74,2.21-1.12,3.3-.21.59-.41,1.2-.62,1.8-.49,1.37-.99,2.75-1.51,4.12-.12.32-.22.62-.34.94-.65,1.68-1.31,3.35-1.98,5.03-.18.46-.38.91-.58,1.37-.5,1.21-1,2.42-1.53,3.62-.26.62-.54,1.23-.82,1.85-.46,1.04-.92,2.07-1.4,3.12-.3.67-.62,1.33-.94,2.01-.46.98-.92,1.94-1.39,2.91-.33.69-.69,1.39-1.02,2.07-.46.94-.94,1.88-1.43,2.81-.36.7-.71,1.39-1.08,2.09-.49.92-.98,1.85-1.47,2.76-.37.7-.75,1.39-1.14,2.09-.5.92-1.02,1.84-1.53,2.75-.38.69-.77,1.36-1.16,2.03-.54.94-1.08,1.86-1.62,2.79-.38.65-.77,1.31-1.16,1.95-.58.96-1.18,1.93-1.77,2.89-.37.59-.74,1.2-1.11,1.8-.67,1.07-1.35,2.13-2.03,3.18-.32.49-.62.98-.94,1.47-4.5,6.89-9.3,13.63-14.36,20.22-.13.17-.26.36-.4.53-1.81,2.34-3.65,4.66-5.51,6.97-.18.24-.38.48-.57.7-1.86,2.28-3.75,4.56-5.67,6.8-.17.2-.34.4-.52.59-1.97,2.3-3.96,4.58-6,6.84-.04.05-.09.11-.13.15-4.16,4.62-8.41,9.15-12.77,13.58-.17.17-.34.36-.52.53-2.06,2.09-4.13,4.15-6.22,6.18v-.07Z"/>
    <g>
      <path class="cls-2" d="M1221.48,1219.7c-.81-14.91-4.93-30.22-13.07-45.34-9.02-16.73-23.68-32.26-41.01-44.15-23.15-15.89-51.07-25.26-76.73-22.24-40.06,4.73-72.11,28.22-90.14,59.27-.55.95-1.08,1.9-1.61,2.87-2.3,4.21-4.33,8.56-6.1,13.01-1.11,2.79-2.11,5.63-3.01,8.49-.2.65-.4,1.29-.59,1.94-9.8,33.33-4.82,71,20.51,102.73,31.21,39.12,70.68,51.11,107.08,45.5.25-.04.5-.08.75-.12,1.56-.25,3.1-.53,4.64-.85.85-.17,1.68-.36,2.52-.54,1.68-.38,3.34-.79,4.99-1.25,3.31-.9,6.59-1.95,9.81-3.13,2.42-.88,4.81-1.85,7.17-2.89.79-.34,1.57-.7,2.35-1.06,9.36-4.34,18.21-9.84,26.29-16.27,28.98-23.07,48.18-58.25,46.13-95.97h.01ZM1113.99,1233.92c-5.93,3.28-11.52,5.36-16.71,6.44-.87.18-1.72.33-2.56.46-1.69.25-3.33.4-4.94.44-.81.03-1.58.01-2.36-.01-12.44-.48-21.98-7.18-27.91-16.52-.74-1.16-1.43-2.38-2.06-3.62-.94-1.86-1.76-3.8-2.43-5.8-.45-1.32-.85-2.68-1.18-4.04-.33-1.37-.61-2.75-.81-4.15-.21-1.39-.36-2.8-.44-4.2-.08-1.4-.11-2.81-.05-4.21.22-6.81,1.99-13.51,5.45-19.27.17-.28.33-.55.5-.82,5.51-8.62,14.92-15,28.83-16.26,39.07-3.53,67.64,48.89,26.64,71.57h.01Z"/>
      <path class="cls-2" d="M1550.45,1311.15c103.59,98.68,260.38-47.98,173.43-155.93-9.64-11.98-19.93-21.43-30.57-28.67-.95-.65-1.89-1.27-2.84-1.88-1.56-.99-3.12-1.94-4.68-2.84-5.03-2.89-10.13-5.32-15.25-7.3-1.64-.63-3.28-1.21-4.91-1.76-1.32-.44-2.65-.85-3.98-1.23-4.12-1.18-8.25-2.1-12.37-2.75-2.88-.45-5.77-.78-8.65-.98-1.91-.13-3.83-.22-5.74-.25s-3.82,0-5.72.07c-4.75.18-9.47.69-14.13,1.49-3.72.65-7.42,1.48-11.05,2.5-45.51,12.68-83.36,53.42-90.72,100.16-.29,1.88-.54,3.75-.74,5.64-.4,3.78-.58,7.58-.55,11.41.03,4.78.38,9.6,1.11,14.43.32,2.15.71,4.29,1.18,6.44.32,1.48.66,2.95,1.06,4.42.44,1.66.91,3.31,1.43,4.97,1.68,5.35,3.82,10.68,6.47,15.97,1.04,2.09,2.17,4.16,3.37,6.23.86,1.48,1.76,2.95,2.69,4.41,3.55,5.56,7.7,11.04,12.47,16.4,1.16,1.31,2.34,2.6,3.57,3.88,1.65,1.73,3.37,3.45,5.16,5.15h-.01ZM1584.19,1183.79c4.12-10.02,13.13-18.26,28.3-21.39,3.91-.81,7.7-1.07,11.31-.88,1.23.07,2.44.18,3.62.36,2.92.41,5.71,1.14,8.35,2.13,1.06.4,2.09.83,3.09,1.31,1.2.57,2.35,1.2,3.47,1.88,1.57.95,3.06,2.01,4.48,3.14.54.44,1.07.88,1.6,1.36,16.81,15.16,19.82,43.62-4.62,60.47-36.95,25.46-66.46-10.88-61.83-40.28.15-.9.32-1.78.53-2.67.44-1.85.99-3.66,1.72-5.41h0Z"/>
    </g>
    <path class="cls-2" d="M1365.64,1314.47c-1.07-.07-2.13-.18-3.16-.34-.22-.04-.44-.07-.65-.11-.81-.15-1.6-.3-2.36-.5-.33-.08-.65-.17-.96-.25-2.48-.7-4.82-1.65-7.05-2.83-.48-.25-.94-.5-1.4-.78-.92-.54-1.84-1.11-2.72-1.7-12.41-8.43-21.26-23.01-31.43-32-8.72-7.71-18.38-11.33-32.09-3.45-11.77,6.76-16.23,16.17-16.15,26.41.01,2.71.36,5.47.96,8.25.09.41.18.81.28,1.21,4.46,18.49,20.17,37.9,32.37,48.64,31.01,27.27,62.53,33.52,96.59,19.93,2.52-1,5.06-2.13,7.61-3.34,3.83-1.84,7.69-3.92,11.58-6.23,6.64-3.96,14.13-9.68,21.2-16.5,14.5-14,27.17-32.63,26.8-50.13-.17-7.96-3.04-15.69-9.67-22.64-37.24-39.03-49.31,38.81-89.74,36.36h0Z"/>
    <g>
      <path class="cls-2" d="M1114.68,965.4c76.86-12.47,62.36-138.62-27.34-120.29-68.89,14.08-50.56,132.91,27.34,120.29h0Z"/>
      <path class="cls-2" d="M1234.85,732.9c-90.47,7.82-57.22,146.81,28.46,108.89,57.22-25.32,30.15-113.95-28.46-108.89h0Z"/>
      <path class="cls-2" d="M1318.77,958.15c46.36-19.94,23.38-90.06-29.75-77.81-45.29,10.43-31.05,103.98,29.75,77.81h0Z"/>
      <path class="cls-2" d="M1387.86,767.33c48.01,6.79,39.86-76-5.9-66.59-33.69,6.93-32.36,61.17,5.9,66.59h0Z"/>
    </g>
    <g>
      <path class="cls-4" d="M1087.34,1162.35c-13.91,1.25-23.32,7.63-28.83,16.26-.17.28-.34.54-.5.82-3.46,5.76-5.23,12.45-5.45,19.27-.05,1.4-.03,2.8.05,4.21.08,1.4.22,2.8.44,4.2.21,1.39.48,2.77.81,4.15.33,1.36.73,2.72,1.18,4.04.67,1.99,1.49,3.94,2.43,5.8.63,1.24,1.31,2.44,2.06,3.62,5.93,9.34,15.47,16.05,27.91,16.52.78.03,1.57.04,2.36.01,1.6-.04,3.25-.18,4.94-.44.85-.12,1.7-.28,2.56-.46,5.19-1.08,10.78-3.16,16.71-6.44,41.01-22.68,12.41-75.09-26.64-71.57h-.01Z"/>
      <path class="cls-4" d="M1643.79,1232.15c24.45-16.85,21.43-45.3,4.62-60.47-.52-.46-1.06-.91-1.6-1.36-1.41-1.15-2.91-2.19-4.48-3.14-1.12-.67-2.27-1.31-3.47-1.88-1-.48-2.03-.91-3.09-1.31-2.64-.99-5.43-1.7-8.35-2.13-1.19-.17-2.39-.29-3.62-.36-3.61-.18-7.4.08-11.31.88-15.17,3.12-24.18,11.36-28.3,21.39-.73,1.76-1.28,3.57-1.72,5.41-.21.88-.38,1.77-.53,2.67-4.62,29.41,24.88,65.74,61.83,40.28h0Z"/>
    </g>
  </g>
</svg>