<?xml version="1.0" encoding="UTF-8"?>
<svg id="_1" data-name=" 1" xmlns="http://www.w3.org/2000/svg" viewBox="0 0 3474.33 3474.33">
  <defs>
    <style>
      .cls-1 {
        fill: #0b93e2;
      }

      .cls-2 {
        fill: #182d33;
      }

      .cls-3 {
        fill: #fafcfc;
      }

      .cls-4 {
        fill: #d4e3f9;
      }
    </style>
  </defs>
  <g>
    <path class="cls-2" d="M1000.04,2715.01c-3.13.69-7.58,1.57-13.33,2.61-5.75,1.04-11.95,1.57-18.56,1.57-13.25,0-22.57-2.44-27.97-7.31-5.4-4.87-8.1-13.07-8.1-24.57v-262.44c0-6.61,1.74-11.68,5.23-15.16,3.48-3.48,8.36-6.27,14.64-8.36,11.15-3.83,24.31-6.53,39.47-8.1,15.16-1.57,30.76-2.35,46.79-2.35,46.01,0,80.51,9.5,103.51,28.5,23,19,34.5,45.23,34.5,78.67,0,21.96-5.75,41.04-17.25,57.24-11.5,16.2-27.37,28.68-47.58,37.38,15.33,19.86,30.06,38.77,44.18,56.72,14.12,17.95,24.65,31.98,31.63,42.08-2.79,9.07-7.67,16.13-14.64,21.17-6.97,5.05-14.64,7.58-23,7.58-10.81,0-19.08-2.44-24.83-7.31-5.75-4.87-11.42-11.51-16.99-19.86l-59.07-88.35h-48.62v110.31-.02ZM1041.87,2551.38c19.86,0,35.81-4.35,47.84-13.07,12.03-8.7,18.04-21.96,18.04-39.73,0-35.2-23.52-52.8-70.58-52.8-6.97,0-13.68.35-20.13,1.04-6.45.7-12.47,1.4-18.04,2.09v102.47h42.87Z"/>
    <path class="cls-2" d="M1284.98,2621.43c4.87,17.78,13.94,30.68,27.19,38.69,13.24,8.02,29.62,12.03,49.14,12.03,14.64,0,28.14-2.17,40.51-6.53,12.37-4.35,22.39-8.97,30.06-13.86,4.87,2.79,8.88,6.62,12.03,11.51,3.13,4.88,4.7,10.12,4.7,15.68,0,6.97-2.35,13.16-7.05,18.56-4.7,5.41-11.16,10.03-19.34,13.86-8.19,3.84-17.86,6.79-29.02,8.89-11.16,2.09-23.18,3.13-36.07,3.13-20.57,0-39.3-2.79-56.2-8.36-16.91-5.57-31.37-14.03-43.39-25.35-12.03-11.33-21.43-25.35-28.23-42.08-6.79-16.73-10.2-36.24-10.2-58.55s3.31-40.42,9.94-56.46c6.61-16.03,15.59-29.45,26.93-40.25,11.33-10.8,24.48-18.82,39.47-24.05,14.98-5.22,30.85-7.84,47.58-7.84s32.76,2.7,47.05,8.1c14.29,5.4,26.49,12.9,36.59,22.48,10.11,9.59,18.04,21.09,23.78,34.5,5.75,13.42,8.63,27.97,8.63,43.65,0,9.77-2.53,17.08-7.58,21.96-5.05,4.88-12.12,8.02-21.17,9.41l-145.33,20.91h0ZM1343,2510.08c-17.08,0-31.37,5.67-42.86,16.99-11.5,11.33-17.95,27.45-19.34,48.36l116.06-17.25c-1.4-12.89-6.45-24.13-15.16-33.72-8.71-9.59-21.61-14.38-38.68-14.38h-.01Z"/>
    <path class="cls-2" d="M1700.06,2462.5c9.06,0,16.64,2.09,22.74,6.27,6.09,4.18,9.15,11.16,9.15,20.91,0,4.53-1.31,11.86-3.92,21.95-2.61,10.12-6.1,21.78-10.46,35.03-4.36,13.25-9.33,27.54-14.9,42.86-5.58,15.34-11.33,30.41-17.25,45.23-5.93,14.82-11.86,28.85-17.77,42.08-5.93,13.25-11.33,24.4-16.21,33.46-3.49,2.79-8.71,5.05-15.68,6.79-6.97,1.74-14.64,2.61-23,2.61-10.12,0-18.74-1.31-25.87-3.92-7.14-2.61-12.29-6.87-15.42-12.81-3.14-5.92-6.97-14.12-11.5-24.57-4.53-10.46-9.41-22.3-14.64-35.55-5.22-13.24-10.64-27.27-16.21-42.08-5.58-14.81-10.9-29.54-15.95-44.18-5.05-14.64-9.77-28.76-14.12-42.34-4.36-13.59-7.93-25.78-10.72-36.59,3.48-4.18,8.44-7.75,14.9-10.72,6.44-2.96,13.15-4.44,20.13-4.44,9.06,0,16.47,2.09,22.22,6.27,5.75,4.18,10.2,11.68,13.33,22.48l26.13,86.26c2.09,6.97,4.44,14.38,7.05,22.22,2.61,7.84,5.14,15.51,7.58,23,2.43,7.49,4.78,14.64,7.05,21.43,2.26,6.79,4.09,12.47,5.49,16.99h2.09c10.11-30.67,20.04-62.3,29.8-94.88,9.76-32.59,18.3-64.74,25.61-96.45,4.18-2.43,8.97-4.26,14.38-5.49,5.4-1.22,10.72-1.83,15.95-1.83h-.01Z"/>
    <path class="cls-2" d="M1777.96,2394.02c0-10.11,3.57-18.73,10.72-25.87,7.14-7.13,16.29-10.72,27.45-10.72s20.21,3.58,27.19,10.72c6.96,7.14,10.46,15.77,10.46,25.87s-3.49,19.26-10.46,26.41c-6.97,7.14-16.04,10.72-27.19,10.72s-20.31-3.57-27.45-10.72c-7.14-7.13-10.72-15.95-10.72-26.41ZM1783.19,2469.82c2.78-.69,6.87-1.57,12.29-2.61,5.4-1.04,11.24-1.57,17.51-1.57,12.55,0,21.69,2.27,27.45,6.79,5.75,4.53,8.63,12.55,8.63,24.04v218.52c-2.79.69-6.88,1.57-12.29,2.61-5.4,1.04-11.24,1.57-17.51,1.57-12.55,0-21.69-2.27-27.45-6.79-5.75-4.52-8.63-12.55-8.63-24.05v-218.52h0Z"/>
    <path class="cls-2" d="M1971.39,2621.43c4.87,17.78,13.94,30.68,27.19,38.69,13.24,8.02,29.62,12.03,49.14,12.03,14.64,0,28.14-2.17,40.51-6.53,12.37-4.35,22.39-8.97,30.06-13.86,4.87,2.79,8.88,6.62,12.03,11.51,3.13,4.88,4.7,10.12,4.7,15.68,0,6.97-2.35,13.16-7.05,18.56-4.7,5.41-11.16,10.03-19.34,13.86-8.19,3.84-17.86,6.79-29.02,8.89-11.16,2.09-23.18,3.13-36.07,3.13-20.57,0-39.3-2.79-56.2-8.36-16.91-5.57-31.37-14.03-43.39-25.35-12.03-11.33-21.43-25.35-28.23-42.08-6.79-16.73-10.2-36.24-10.2-58.55s3.31-40.42,9.94-56.46c6.61-16.03,15.59-29.45,26.93-40.25,11.33-10.8,24.48-18.82,39.47-24.05,14.98-5.22,30.85-7.84,47.58-7.84s32.76,2.7,47.05,8.1c14.29,5.4,26.49,12.9,36.59,22.48,10.11,9.59,18.04,21.09,23.78,34.5,5.75,13.42,8.63,27.97,8.63,43.65,0,9.77-2.53,17.08-7.58,21.96-5.05,4.88-12.12,8.02-21.17,9.41l-145.33,20.91h.01ZM2029.42,2510.08c-17.08,0-31.37,5.67-42.86,16.99-11.5,11.33-17.95,27.45-19.34,48.36l116.06-17.25c-1.4-12.89-6.45-24.13-15.16-33.72-8.71-9.59-21.61-14.38-38.68-14.38h-.01Z"/>
    <path class="cls-2" d="M2362.43,2555.04c-3.84,14.3-7.93,28.76-12.29,43.39-4.36,14.64-8.71,28.85-13.07,42.6-4.36,13.77-8.54,26.59-12.55,38.42-4.01,11.86-7.4,21.95-10.2,30.32-3.84,2.79-8.71,5.14-14.64,7.05-5.93,1.91-13.42,2.87-22.48,2.87-10.12,0-18.91-1.49-26.4-4.44-7.49-2.96-12.64-7.4-15.42-13.33-4.18-8.36-8.88-21.69-14.12-39.99-5.23-18.3-10.64-38.33-16.21-60.12-5.58-21.78-10.72-43.91-15.42-66.4-4.7-22.48-8.63-42.08-11.77-58.81,3.48-3.48,8.27-6.7,14.38-9.68,6.09-2.96,12.81-4.44,20.13-4.44,9.76,0,17.42,2.35,23,7.05,5.57,4.7,9.24,12.29,10.98,22.74,6.61,41.82,12.89,77.29,18.82,106.39,5.92,29.11,10.11,48.88,12.55,59.33h2.09c1.39-5.92,3.74-14.64,7.05-26.13,3.31-11.51,7.14-24.74,11.5-39.73,4.35-14.98,9.06-31.02,14.12-48.1,5.05-17.07,10.2-34.32,15.42-51.76,4.87-2.78,10.02-4.96,15.42-6.53,5.4-1.57,11.77-2.35,19.08-2.35,9.41,0,17.33,1.57,23.78,4.7,6.44,3.13,10.72,7.84,12.81,14.12,5.22,16.73,10.2,33.12,14.9,49.14,4.7,16.04,8.97,30.94,12.81,44.7,3.83,13.77,7.23,26.05,10.2,36.86,2.96,10.81,5.31,19.17,7.05,25.09h2.61c5.92-28.93,12.11-59.07,18.56-90.44,6.44-31.37,11.94-63.78,16.47-97.24,4.18-2.43,8.88-4.35,14.12-5.75,5.23-1.39,10.46-2.09,15.68-2.09,9.06,0,16.47,2.09,22.22,6.27,5.75,4.18,8.63,10.98,8.63,20.39,0,4.88-1.04,12.81-3.13,23.78-2.09,10.98-4.79,23.52-8.1,37.64-3.31,14.12-6.97,29.11-10.98,44.96-4.01,15.86-8.1,31.2-12.29,46.01-4.18,14.82-8.19,28.23-12.03,40.25-3.84,12.03-7.14,21.35-9.94,27.97-3.49,2.79-8.81,5.14-15.95,7.05-7.14,1.91-14.9,2.87-23.26,2.87-21.95,0-35.03-5.4-39.21-16.21-2.79-7.66-6.1-17.07-9.94-28.23-3.84-11.15-7.76-23.34-11.77-36.6-4.01-13.24-8.02-27.01-12.03-41.3-4.01-14.29-7.76-28.41-11.24-42.34l.04.04Z"/>
  </g>
  <g>
    <path class="cls-2" d="M824.65,3153.2c-3.49,2.79-8.02,5.05-13.59,6.79-5.58,1.75-12.03,2.61-19.34,2.61-9.07,0-16.65-1.13-22.74-3.4-6.1-2.26-10.38-6.35-12.81-12.29-14.3-35.55-26.31-65.87-36.07-90.96-9.77-25.09-17.6-46.53-23.52-64.31h-2.61c-1.04,23.35-2.01,44.79-2.87,64.31-.87,19.52-1.66,38.6-2.35,57.24-.7,18.65-1.49,37.56-2.35,56.72-.87,19.17-2.01,39.91-3.4,62.22-3.49,1.04-7.84,2.09-13.07,3.13-5.22,1.04-10.81,1.57-16.73,1.57-23.35,0-35.03-8.7-35.03-26.13,0-5.57.26-14.2.78-25.87s1.22-25.26,2.09-40.77c.87-15.51,1.91-32.5,3.13-50.97,1.22-18.47,2.43-37.12,3.66-55.94,1.22-18.82,2.52-37.38,3.92-55.67,1.39-18.3,2.61-35.29,3.66-50.97,2.78-3.48,7.92-7.05,15.42-10.72,7.49-3.66,17.16-5.49,29.02-5.49,13.24,0,23.95,2.18,32.15,6.53,8.18,4.36,14.38,11.59,18.56,21.69,4.52,10.81,9.33,22.66,14.38,35.55,5.05,12.9,10.2,26.13,15.42,39.73,5.23,13.59,10.37,26.93,15.42,39.99,5.05,13.07,9.85,25.35,14.38,36.86h2.09c11.85-32.76,23.6-64.48,35.29-95.14,11.68-30.67,21.86-56.63,30.59-77.89,4.18-2.09,9.59-3.83,16.21-5.23,6.61-1.39,13.42-2.09,20.39-2.09,12.89,0,23.17,1.92,30.85,5.75,7.66,3.84,12.37,9.59,14.12,17.25,1.39,6.62,2.96,17.17,4.7,31.63,1.74,14.47,3.48,30.94,5.22,49.41,1.74,18.48,3.48,38.16,5.22,59.07,1.74,20.91,3.31,41.04,4.7,60.38,1.39,19.34,2.61,37.03,3.66,53.06,1.04,16.04,1.74,28.59,2.09,37.64-4.53,2.79-9.33,4.87-14.38,6.27-5.05,1.39-11.24,2.09-18.56,2.09-9.07,0-16.99-1.83-23.78-5.49-6.79-3.66-10.55-10.54-11.24-20.65-1.4-21.96-2.61-43.47-3.66-64.57-1.05-21.08-1.92-41.04-2.61-59.86-.7-18.82-1.4-36.15-2.09-52.02-.7-15.86-1.22-29.54-1.57-41.04h-2.61c-5.58,16.39-13.25,37.21-23,62.48-9.77,25.27-22.13,57.77-37.12,97.5h-.01Z"/>
    <path class="cls-2" d="M1066.18,3173.59c-8.36-17.42-18.3-40.94-29.8-70.58-11.5-29.62-23-65.52-34.5-107.69,3.48-4.18,8.36-7.75,14.64-10.72,6.27-2.96,13.07-4.44,20.39-4.44,9.06,0,16.47,2.09,22.22,6.27,5.75,4.18,10.37,11.68,13.86,22.48,16.38,52.63,35.03,105.95,55.94,159.97h2.09c4.52-11.5,9.33-24.57,14.38-39.21,5.05-14.64,9.94-29.97,14.64-46.01,4.7-16.03,9.15-32.23,13.33-48.62,4.18-16.38,7.84-32.23,10.98-47.58,4.18-2.09,8.63-3.83,13.33-5.23,4.7-1.39,9.68-2.09,14.9-2.09,9.06,0,16.9,2.09,23.52,6.27,6.61,4.18,9.94,10.98,9.94,20.39,0,10.46-2.27,25.18-6.79,44.18-4.53,19-10.55,39.39-18.04,61.16-7.49,21.78-15.95,43.74-25.35,65.87-9.42,22.13-18.82,41.56-28.23,58.29-18.13,32.06-34.59,56.02-49.41,71.88-14.82,15.86-29.37,23.78-43.65,23.78-11.16,0-20.13-3.22-26.93-9.68-6.79-6.45-11.07-14.56-12.81-24.31,5.57-4.88,11.5-10.55,17.77-16.99,6.27-6.45,12.55-13.33,18.82-20.65,6.27-7.32,12.2-14.82,17.77-22.48,5.57-7.66,10.46-15.16,14.64-22.48-3.14-1.04-6.19-2.35-9.15-3.92-2.96-1.57-5.93-3.92-8.88-7.05-2.96-3.13-6.1-7.13-9.41-12.03-3.31-4.87-6.71-11.15-10.2-18.82v.03Z"/>
    <path class="cls-2" d="M1415.66,3224.3c-6.45-6.61-9.68-15.51-9.68-26.67v-245.71c0-11.15,3.22-19.95,9.68-26.41,6.44-6.44,15.24-9.68,26.4-9.68h173.04c1.74,2.79,3.31,6.45,4.7,10.98,1.39,4.53,2.09,9.59,2.09,15.16,0,9.07-2.09,16.04-6.27,20.91-4.18,4.88-9.94,7.32-17.25,7.32h-126.51v74.23h127.56c1.74,2.79,3.4,6.36,4.96,10.72,1.57,4.36,2.35,9.33,2.35,14.9,0,18.82-8.02,28.23-24.04,28.23h-110.83v81.04h145.33c1.74,2.79,3.4,6.53,4.96,11.24,1.57,4.7,2.35,9.86,2.35,15.42,0,18.82-8.02,28.23-24.04,28.23h-158.4c-11.16,0-19.95-3.31-26.4-9.94v.03Z"/>
    <path class="cls-2" d="M2047.44,3232.67c-2.79.69-6.88,1.57-12.29,2.61-5.4,1.04-11.24,1.57-17.51,1.57-12.55,0-21.69-2.27-27.45-6.79-5.75-4.52-8.63-12.55-8.63-24.05v-135.93c0-13.94-3.84-24.04-11.5-30.32-7.67-6.27-17.77-9.42-30.32-9.42-8.36,0-16.47,1.57-24.31,4.7-7.84,3.14-14.73,7.32-20.65,12.55,1.05,4.88,1.57,9.77,1.57,14.64v170.43c-2.79.69-6.88,1.57-12.29,2.61-5.4,1.04-11.24,1.57-17.51,1.57-12.55,0-21.69-2.27-27.45-6.79s-8.63-12.55-8.63-24.05v-135.93c0-13.94-4.01-24.04-12.03-30.32-8.02-6.27-18.3-9.42-30.85-9.42-8.71,0-16.73,1.4-24.04,4.18-7.31,2.79-13.42,5.58-18.3,8.36v189.77c-3.13.69-7.31,1.57-12.55,2.61-5.22,1.04-11.16,1.57-17.77,1.57-12.21,0-21.26-2.27-27.19-6.79-5.93-4.52-8.88-12.55-8.88-24.05v-167.82c0-8.01,1.74-14.72,5.22-20.13,3.48-5.4,8.88-10.54,16.21-15.42,10.46-6.96,23.69-12.81,39.73-17.51,16.03-4.7,32.59-7.05,49.67-7.05,31.71,0,57.5,8.54,77.37,25.61,10.11-7.32,21.69-13.42,34.77-18.3,13.07-4.87,28.5-7.31,46.27-7.31,13.59,0,26.49,1.66,38.68,4.96,12.2,3.31,22.74,8.62,31.63,15.95,8.88,7.32,15.95,16.65,21.17,27.97,5.23,11.33,7.84,24.83,7.84,40.51v165.2l-.02.02Z"/>
    <path class="cls-2" d="M2209.5,2978.07c34.15,0,61.42,7.31,81.82,21.95,20.39,14.64,30.59,37.3,30.59,67.96v120.77c0,8.36-2.09,14.99-6.27,19.87-4.18,4.88-9.41,9.24-15.68,13.07-9.77,5.93-22.13,10.64-37.12,14.12s-32.07,5.22-51.23,5.22c-34.86,0-62.31-6.71-82.34-20.13-20.04-13.42-30.06-33.54-30.06-60.38,0-23.34,7.4-41.21,22.22-53.59,14.81-12.37,36.33-19.95,64.57-22.74l71.62-7.31v-9.42c0-13.24-4.79-23-14.38-29.28-9.59-6.27-23.09-9.42-40.51-9.42-13.59,0-26.85,1.66-39.73,4.96-12.9,3.31-24.4,7.4-34.5,12.29-3.84-2.78-7.05-6.53-9.68-11.24-2.62-4.7-3.92-9.85-3.92-15.42,0-6.96,1.65-12.63,4.96-16.99,3.31-4.35,8.63-8.27,15.95-11.77,10.11-4.18,21.6-7.32,34.5-9.42,12.89-2.09,25.95-3.13,39.21-3.13l-.02.02ZM2211.59,3190.84c10.11,0,19.34-.96,27.71-2.87,8.36-1.91,14.46-4.26,18.3-7.05v-58.03l-50.71,4.7c-13.95,1.4-24.57,4.44-31.89,9.15s-10.98,12.12-10.98,22.22,3.74,17.95,11.24,23.52c7.49,5.58,19.6,8.36,36.33,8.36h0Z"/>
    <path class="cls-2" d="M2384.11,2911.67c0-10.11,3.57-18.73,10.72-25.87,7.14-7.13,16.29-10.72,27.45-10.72s20.21,3.58,27.19,10.72c6.96,7.14,10.46,15.77,10.46,25.87s-3.49,19.26-10.46,26.41c-6.97,7.14-16.04,10.72-27.19,10.72s-20.31-3.57-27.45-10.72c-7.14-7.13-10.72-15.95-10.72-26.41ZM2389.33,2987.48c2.78-.69,6.87-1.57,12.29-2.61,5.4-1.04,11.24-1.57,17.51-1.57,12.55,0,21.69,2.27,27.45,6.79,5.75,4.53,8.63,12.55,8.63,24.04v218.52c-2.79.69-6.88,1.57-12.29,2.61-5.4,1.04-11.24,1.57-17.51,1.57-12.55,0-21.69-2.27-27.45-6.79-5.75-4.52-8.63-12.55-8.63-24.05v-218.52h0Z"/>
    <path class="cls-2" d="M2581.45,3235.28c-5.4,1.04-11.24,1.57-17.51,1.57-12.55,0-21.69-2.27-27.45-6.79s-8.63-12.55-8.63-24.05v-312.63c2.78-1.04,6.87-2,12.29-2.87,5.4-.87,11.24-1.31,17.51-1.31,12.55,0,21.69,2.27,27.45,6.79,5.75,4.53,8.63,12.55,8.63,24.05v312.63c-2.79.69-6.88,1.57-12.29,2.61h0Z"/>
    <path class="cls-2" d="M2856.16,3163.14c0,24.4-9.07,43.48-27.19,57.24-18.13,13.77-44.62,20.65-79.47,20.65-14.3,0-27.28-1.04-38.95-3.13-11.68-2.09-21.78-5.13-30.32-9.15-8.54-4-15.16-8.89-19.86-14.64-4.7-5.75-7.05-12.11-7.05-19.08,0-6.61,1.48-12.37,4.44-17.25,2.96-4.87,6.87-8.89,11.77-12.03,9.76,6.27,20.99,11.86,33.72,16.73,12.72,4.88,27.45,7.31,44.17,7.31,14.29,0,25.09-2.35,32.41-7.05,7.31-4.7,10.98-11.24,10.98-19.6,0-14.29-10.46-23.69-31.37-28.23l-29.28-6.79c-25.79-5.92-44.88-14.81-57.24-26.67-12.38-11.85-18.56-27.71-18.56-47.58,0-22.65,9.06-41.03,27.19-55.15,18.12-14.12,43.56-21.17,76.32-21.17,12.55,0,24.13.96,34.77,2.87,10.63,1.92,19.86,4.7,27.71,8.36,7.84,3.66,13.94,8.02,18.3,13.07,4.35,5.05,6.53,10.9,6.53,17.51,0,6.27-1.4,11.77-4.18,16.47-2.79,4.7-6.1,8.45-9.94,11.24-3.14-2.09-7.23-4.18-12.29-6.27-5.05-2.09-10.64-4-16.73-5.75-6.1-1.74-12.55-3.22-19.34-4.44-6.79-1.22-13.51-1.83-20.13-1.83-13.59,0-24.22,2.18-31.89,6.53-7.67,4.36-11.51,10.55-11.51,18.56,0,5.93,2.17,10.81,6.53,14.64,4.35,3.84,11.94,6.97,22.74,9.42l25.61,6.27c28.93,6.62,49.84,16.3,62.74,29.02,12.89,12.73,19.34,29.37,19.34,49.93h.01Z"/>
  </g>
  <g>
    <g>
      <path class="cls-2" d="M2729.23,575.18c-38.22-5.8-52.42,32.63-40.27,64.46,21.55,56.44,97.65,5.65,68.45-48.35-4.02-2.23-8.44-6.63-12.07-8.05-4.87-1.91-12.07-7.44-16.11-8.05Z"/>
      <path class="cls-2" d="M718,643.85c34.47,45.17,95.59-14.03,61.29-55.31-29.86-35.92-98.72,6.28-61.29,55.31h0Z"/>
      <path class="cls-2" d="M790.47,414.21c11.37,18.33,3.12,48.88,11.27,63.28,8.02,14.16,37.24,16.95,51.23,6.94,26.29-18.83-5.96-75.14,49.15-91.84,21.47-6.51,86.63-9.45,61.32-50.78-19.64-32.08-80.65.8-96.51-52.49-6.61-22.17-4.67-88.6-49.02-69.72-32.3,13.75-8.04,66.44-41.16,91.84-29.41,22.57-93.25-3.57-79.82,55.38,8.65,37.93,69.04,7.94,93.54,47.37v.02Z"/>
      <path class="cls-2" d="M2584.45,391.68c48.87,17.45,15.89,98.23,62.62,102.9,47.77,4.77,22.47-68.63,50.18-94.43,18.41-17.15,61.01-8.35,75.1-19.58,10.39-8.27,12.35-29.69,5.43-41.36-15.61-26.34-77.06,1.1-94.93-54.05-6.99-21.59-.88-65.71-32.5-68.53-45.83-4.08-33.38,34.11-39.69,64.66-12.98,62.85-91.94,20.54-98.68,66.54-7.19,49.12,44.65,33.94,72.45,43.85h.02Z"/>
    </g>
    <g>
      <path class="cls-1" d="M724.23,1171.49l8.05-5.99c54.26,104.15,155.5,185.76,272.85,206.36,45.53,8,91.76,4.47,137.8,5.11-9.68-10.18-20.62-26.07-30.17-39.69-.48-.68-.96-1.36-1.43-2.04-1.03-1.48-2.06-2.92-3.06-4.32-.53-.75-1.05-1.48-1.58-2.19-.3-.42-.6-.85-.9-1.25-8.2-11.31-25.22-42.34-36.38-59.54-3.32-5.13-6.14-9.05-8.02-10.83-3.12-2.94-15.36-6.53-28.24-10.31-.76-.22-1.53-.45-2.27-.66-2.06-.6-4.12-1.21-6.14-1.83-8.5-2.56-16.47-5.15-21.44-7.62-61.47-30.79-125.72-96.44-141.07-165.04-8.9-39.74,7.95-85.93-51.49-85.53-.73,0-1.48.03-2.24.1-1.53.13-3.12.37-4.78.71-1.66.35-3.37.8-5.13,1.34-3.52,1.1-7.24,2.57-11.03,4.35-1.89.88-3.82,1.84-5.75,2.87-.96.51-1.93,1.05-2.89,1.59-1.56.88-3.14,1.81-4.7,2.77-7.11,4.35-14.11,9.37-20.37,14.56-9.33,7.75-17.02,15.87-20.96,22.67-.58,1.01-1.15,2.06-1.69,3.14l-.1.2c-8.07,16.17-11.08,39.2-11.47,62.63-.43,24.99,2.09,50.41,4.62,68.41h-.02Z"/>
      <path class="cls-1" d="M2593.52,1568.15c-.56-1.08-1.16-2.14-1.81-3.19-1.26-2.08-3.07-4.67-5.16-7.06-.08-.1-.17-.18-.25-.28-.9-1.01-1.84-1.99-2.81-2.87-.33-.3-.66-.6-1.01-.88-.55-.45-1.08-.85-1.63-1.21-.48-.33-.96-.63-1.46-.9-.7-.37-1.38-.66-2.06-.85-17.2-4.91-79.02,30.19-104.36,37.31-.45.13-.91.27-1.35.38-11.03,2.81-22.1,4.9-33.16,6.31-1.84.23-3.69.45-5.53.65-105.09,11.16-208.64-39.72-261.01-134.28-5.51-9.96-10.08-19.05-13.4-27.8-.38-1.01-.76-2.03-1.11-3.04-.07-.2-.15-.42-.22-.61-5.88-17.15-6.68-33.29-.12-52.49,1.76-5.15,4.04-10.51,6.91-16.19,1.36-2.69,3.84-4.62,5.94-5.98.3-.2.6-.38.88-.55.15-.1.3-.18.45-.27.32-.18.6-.35.86-.51.12-.07.22-.13.32-.18.22-.13.4-.23.56-.35.32-.2.55-.38.61-.5h0c52.62-102.82,113.66-224.8,128.32-340.98,31.98-253.62-53.02-528.08-259.53-686.28-4.78-3.67-11.66-3.65-9.7-12.25-25.57-13.3-51.36-25.01-77.4-35.04-13.02-5.01-26.09-9.6-39.22-13.77-100.69-31.86-205.02-38.27-314.33-13.8-249.6,55.88-489.23,279.46-522.77,536.5-2.81,21.5-4.88,42.67-6.21,63.51-1.69,26.72-2.14,52.92-1.25,78.62.1,3.09.23,6.18.38,9.25.38,8.2.91,16.34,1.58,24.44.03.46.08.93.12,1.39.93,11.01,2.09,21.95,3.54,32.79.37,2.77.76,5.55,1.16,8.3,1.61,11.04,3.52,22,5.7,32.86,4.37,21.74,9.86,43.14,16.57,64.23.83,2.64,1.69,5.26,2.57,7.89,6.13,18.38,13.17,36.53,21.17,54.45,2.29,5.11,4.65,10.23,7.09,15.31,2.44,5.08,4.96,10.16,7.57,15.21,2.61,5.05,5.28,10.1,8.05,15.11,4.15,7.52,8.47,15.03,12.98,22.48,2.46,4.05,4.98,8.1,7.54,12.14,1.13,1.78,2.26,3.54,3.4,5.3,2.64,4.07,5.33,8.14,8.09,12.19,4.55,6.69,9.28,13.37,14.15,20.01,5.83,7.97,11.89,15.89,18.18,23.78.05.07.12.15.17.22,1.18,1.48,3.12,3.94,5.58,7.01.17.2.33.42.5.63.81,1.01,1.68,2.11,2.57,3.24.12.15.23.28.35.43,2.46,3.09,5.2,6.51,8.05,10.03.13.15.25.32.38.46,1.08,1.33,2.16,2.66,3.24,3.99,1.39,1.73,2.81,3.44,4.2,5.11.71.86,1.43,1.73,2.13,2.57.68.81,1.34,1.63,2.01,2.41.85,1.01,1.68,1.99,2.49,2.96.55.65,1.1,1.3,1.64,1.93,1.08,1.25,2.09,2.42,3.07,3.52.48.55.96,1.08,1.41,1.58,1.36,1.51,2.59,2.82,3.62,3.85.83.83,1.53,1.46,2.08,1.91.27.22.48.37.68.48.08.05.17.12.25.15,7.06,3.24,21.27-.85,35.45-.48h.07c.86.02,1.74.07,2.61.12.88.07,1.76.15,2.64.25,1.25.15,2.49.35,3.7.6,1.36.28,2.72.63,4.05,1.05.68.22,1.34.46,2.01.73,1.54.61,3.06,1.34,4.53,2.21,6.46,3.84,11.97,10.41,15.51,21.39.7,2.19.96,4.85.88,7.87-.1,3.02-.55,6.39-1.3,10.01-.18.9-.38,1.83-.61,2.76-.43,1.86-.95,3.77-1.49,5.71-4.2,14.6-11.52,31.22-17.78,43.52-.42.81-.83,1.63-1.23,2.41-2.03,3.9-3.92,7.27-5.5,9.9-9.4,15.58-20.01,29.96-31.67,43.04-1.3,1.46-2.61,2.89-3.92,4.32-2.64,2.84-5.33,5.63-8.07,8.34-1.36,1.36-2.76,2.69-4.15,4.02-63.07,59.93-150.26,85.95-237.53,65.01-11.06-2.66-22.12-6.04-33.14-10.23-5.35-2.04-10.99-4.88-16.77-8.02-1.16-.63-2.31-1.26-3.49-1.91-2.32-1.3-4.67-2.62-7.02-3.94-.58-.33-1.18-.66-1.76-1-1.18-.66-2.36-1.31-3.52-1.96-1.49-.81-2.97-1.63-4.47-2.42-4.73-2.51-9.43-4.83-14.01-6.66-1.1-.43-2.18-.85-3.25-1.23-.55-.2-1.1-.38-1.64-.56-1.13-.37-2.24-.7-3.34-.98-.55-.15-1.11-.28-1.66-.4-.42-.1-.85-.18-1.26-.27-.76-.15-1.51-.28-2.26-.38-.25-.03-.51-.07-.76-.1-.9-.12-1.79-.18-2.67-.23-.55-.02-1.1-.03-1.64-.03-6.08.07-11.64,2.04-16.42,6.82-.73.73-1.44,1.53-2.13,2.39-.45.55-.88,1.11-1.3,1.73-2.91,4.15-5.45,9.66-7.51,16.79-4.1,14.11-4.07,27.76-1.59,41,.2,1.06.42,2.11.63,3.17.4,1.81.83,3.62,1.3,5.43.43,1.66.91,3.3,1.41,4.95.07.2.12.4.18.6,4.8,15.48,12.25,30.42,19.51,44.88h0c20.24,11.11,35.04,24.67,57.67,32.94,73.61,26.88,188.86,19.05,263.45-3.69,104.71-31.9,196.09-109.38,254.6-200.7,3.34-5.21,3.45-11.76,12.07-9.86-.96-10.33,1.93-17.7,7.12-22.86.75-.75,1.56-1.41,2.39-2.08.91-.71,1.86-1.38,2.87-1.99,12.25-7.39,31.17-7.56,46.18-5.5,7.9,1.1,14.5,4.32,19.94,9.18.86.76,1.69,1.59,2.51,2.44.88.93,1.76,1.91,2.57,2.92,30.25,37.86,16.41,136.97,7.85,171.83-.93,3.77-1.89,7.54-2.89,11.29-.22.81-.43,1.63-.65,2.44-2.74,10.08-5.75,20.13-9.03,30.05,0,.05-.03.1-.05.13-33.01,99.26-94.88,187.87-195.32,206.41-2.09.38-4.2.75-6.33,1.06-8.5,1.3-17.29,2.11-26.34,2.37-9.05.28-18.36.02-27.98-.8-.73-.07-1.49-.13-2.32-.23-12.25-1.39-33.94-5.93-41.98-3.8-2.31.61-4.37,1.58-6.19,2.84-1.03.7-1.98,1.51-2.86,2.39-1.2,1.18-2.26,2.51-3.22,3.97-.33.51-.66,1.05-.96,1.59-1.03,1.83-1.91,3.79-2.64,5.89-.85,2.47-1.51,5.13-2.01,7.9-.66,3.69-1.01,7.59-1.13,11.54-.07,1.96-.07,3.95,0,5.93.03,1.08.07,2.14.13,3.22.1,1.83.23,3.65.42,5.46.96,9.83,2.99,18.95,5.13,25.06,11.61,33.03,33.51,46.44,61.65,61.19l84.68-13.96c97.25-21.19,182.74-61.72,247.51-139.1,8.72-10.41,13.7-29.36,26.12-32.28,4.37-19.81,11.14-54.53,26.17-73.01.7-.86,1.43-1.69,2.16-2.49.05-.05.1-.1.13-.15.85-.9,1.73-1.74,2.62-2.54,2.71-2.39,5.66-4.27,8.85-5.51,1.59-.61,3.25-1.08,5-1.38.58-.1,1.16-.17,1.76-.23,1.18-.12,2.39-.15,3.64-.08,6.84.3,14.65,3.19,23.53,9.46,12.14,8.58,20.42,35.97,26.68,60.31,3.15,12.3,5.81,23.83,8.17,31.75h0l74.57,64.38c48.6,37.11,144.36,87.71,205.1,92.9,30.22,2.59,91.96,2.89,118.92-8.2h0c.7-.28,1.39-.61,2.08-1,.5-.27.98-.58,1.46-.9.18-.12.38-.22.56-.35,12.01-8.12,21.25-28.76,26.4-48.72.28-1.11.56-2.21.81-3.32,2.86-12.14,4.17-23.75,3.6-31.83-2.52-36.1-34.8-24.67-58.98-18.48-.18.05-.38.1-.56.15-.83.22-1.66.42-2.47.61-.9.22-1.79.43-2.67.61-.88.2-1.73.37-2.57.53-.42.08-.83.15-1.25.23-2.04.37-3.97.6-5.73.68-11.64.5-23.25-.32-34.75-2.29-3.29-.56-6.56-1.23-9.81-1.98-3.25-.75-6.51-1.59-9.75-2.52-72.85-20.86-138.95-85.7-176.79-151.02-1.68-2.91-3.3-5.81-4.88-8.7-4.7-8.7-8.9-17.39-12.5-25.92-6.38-15.06-13.62-36.15-19.83-59.96-.22-.8-.42-1.61-.63-2.41-.53-2.06-1.05-4.13-1.54-6.23-17.52-72.15-23.91-164.72,30.5-192.72,5.6-2.87,11.92-4.7,18.43-5.46,2.79-.32,5.61-.45,8.42-.38,1.88.05,3.74.18,5.6.4,18.51,2.21,35.3,13.18,37.51,33.13,12.4-2.26,9.68.7,14.21,7.8,15.29,23.88,25.52,50.81,44.1,72.83,105.94,125.52,354.56,210.37,503.99,125.53,13.75-7.8,23.28-19.73,37.56-24.86,9.53-20.61,22.08-45.3,23.78-69.41.25-3.44.27-6.87,0-10.28-.56-7.95-2.56-15.76-6.51-23.26l.03.07ZM1753.85,313.97c57.54-11.84,67.78,92.26,7.42,83.72-48.1-6.81-49.78-75-7.42-83.72ZM1383.41,495.51c112.78-23.05,131.01,135.56,34.37,151.24-97.94,15.87-120.98-133.54-34.37-151.24ZM1494.06,1087.12c-10.16,8.09-21.29,14.99-33.06,20.46-.98.45-1.96.9-2.96,1.33-2.97,1.31-5.98,2.52-9.02,3.64-4.05,1.49-8.17,2.81-12.34,3.94-2.08.56-4.18,1.1-6.28,1.58-1.05.23-2.11.46-3.17.68-1.94.4-3.89.75-5.83,1.06-.32.05-.63.1-.95.15-45.76,7.06-95.39-8.02-134.63-57.2-31.85-39.9-38.11-87.26-25.79-129.17.23-.81.48-1.63.75-2.44,1.13-3.6,2.39-7.16,3.79-10.68,2.23-5.6,4.8-11.04,7.67-16.36.66-1.21,1.33-2.41,2.03-3.6,22.65-39.04,62.95-68.58,113.33-74.52,32.26-3.8,67.37,7.99,96.47,27.96,21.79,14.94,40.22,34.47,51.56,55.51,10.25,19,15.43,38.24,16.44,57,2.56,47.42-21.57,91.66-58,120.67h-.02ZM1568.87,354.4c73.69-6.36,107.73,105.06,35.78,136.91-107.73,47.67-149.54-127.08-35.78-136.91h0ZM1636.98,539.77c66.8-15.39,95.69,72.76,37.41,97.84-76.47,32.89-94.35-84.72-37.41-97.84ZM1824.62,1131.39c-8.88,8.57-18.3,15.76-26.65,20.74-4.9,2.92-9.75,5.53-14.56,7.84-3.2,1.54-6.39,2.94-9.56,4.2-42.82,17.09-82.46,9.25-121.45-25.06-15.34-13.5-35.1-37.91-40.7-61.16-.12-.51-.23-1.01-.35-1.53-.75-3.5-1.18-6.99-1.21-10.38-.08-12.89,5.51-24.71,20.31-33.21,17.24-9.9,29.39-5.36,40.35,4.33,12.79,11.31,23.91,29.64,39.52,40.23,1.11.76,2.26,1.48,3.42,2.14.58.33,1.16.66,1.76.98,2.79,1.48,5.75,2.67,8.87,3.55.4.12.81.22,1.21.32.98.25,1.98.45,2.97.63.27.05.55.1.81.13,1.3.2,2.61.35,3.97.43,50.83,3.07,66.02-94.8,112.83-45.71,8.34,8.73,11.94,18.45,12.15,28.46.46,22-15.46,45.43-33.69,63.03v.02ZM1965.67,1081.44c-2.24-2.14-4.42-4.3-6.49-6.48-1.54-1.63-3.04-3.25-4.48-4.88-5.99-6.76-11.21-13.63-15.67-20.62-1.18-1.84-2.31-3.69-3.39-5.55-1.51-2.61-2.92-5.21-4.23-7.84-3.32-6.64-6.01-13.35-8.14-20.08-.65-2.08-1.26-4.17-1.79-6.24-.48-1.86-.93-3.7-1.33-5.56-.58-2.71-1.08-5.41-1.48-8.1-.9-6.08-1.36-12.14-1.39-18.15-.03-4.82.22-9.6.7-14.35.25-2.37.55-4.73.93-7.09,9.25-58.76,56.84-109.99,114.06-125.93,4.58-1.28,9.22-2.32,13.9-3.14,5.86-1.01,11.79-1.64,17.77-1.88,2.39-.1,4.78-.12,7.19-.08s4.82.13,7.22.32c3.62.25,7.24.66,10.88,1.23,5.2.81,10.38,1.96,15.56,3.45,1.66.48,3.34,1,5,1.54,2.06.68,4.12,1.41,6.18,2.21,6.44,2.49,12.85,5.53,19.18,9.18,1.98,1.13,3.94,2.32,5.88,3.57,1.2.76,2.39,1.54,3.57,2.36,13.38,9.1,26.3,20.99,38.44,36.05,109.33,135.73-87.81,320.14-218.05,196.05h.02Z"/>
      <path class="cls-1" d="M2330.4,1377.31l27.07-.08c.45-.08.9-.17,1.36-.25h82.54c9.38,0,42.18-7.99,53.48-10.94,8.24-2.16,16.39-4.65,24.48-7.46,1.54-.53,3.07-1.1,4.6-1.66,2.49-.91,4.96-1.84,7.44-2.81,1.54-.61,3.09-1.25,4.63-1.88,3.32-1.36,6.63-2.77,9.9-4.25,3.04-1.36,6.08-2.76,9.1-4.2,2.91-1.39,5.78-2.86,8.65-4.33.96-.5,1.93-1,2.89-1.49.03-.02.08-.05.12-.07,1.71-.9,3.4-1.83,5.11-2.76.56-.32,1.11-.63,1.68-.93,1.2-.66,2.37-1.33,3.57-2.01.63-.37,1.25-.71,1.88-1.08,1.15-.66,2.29-1.34,3.44-2.03.6-.35,1.18-.7,1.78-1.06,1.36-.83,2.72-1.66,4.07-2.51.33-.22.68-.42,1.01-.63,1.68-1.05,3.35-2.13,5.01-3.2.46-.3.93-.61,1.38-.91,1.21-.8,2.41-1.59,3.62-2.41.58-.4,1.18-.8,1.76-1.2,1.1-.75,2.19-1.51,3.27-2.26.58-.4,1.16-.81,1.73-1.21,1.18-.85,2.36-1.69,3.54-2.54.45-.33.9-.65,1.35-.96,1.61-1.18,3.2-2.36,4.78-3.57.32-.23.61-.48.93-.71,1.28-.98,2.56-1.96,3.82-2.96.53-.42,1.06-.83,1.58-1.26,1.06-.83,2.11-1.68,3.15-2.54.56-.45,1.11-.91,1.66-1.36,1.06-.88,2.13-1.76,3.19-2.66.48-.4.96-.81,1.44-1.21,3.04-2.59,6.03-5.23,8.98-7.92.46-.42.91-.85,1.38-1.26,1.03-.95,2.04-1.89,3.06-2.84.51-.48,1.03-.98,1.54-1.46.98-.93,1.94-1.88,2.92-2.81.48-.46.96-.93,1.44-1.41,1.15-1.13,2.29-2.29,3.44-3.44.27-.27.53-.53.8-.81,1.39-1.43,2.77-2.86,4.15-4.3.37-.38.73-.78,1.1-1.18,1-1.06,2.01-2.14,2.99-3.22.46-.51.93-1.03,1.39-1.54.9-1,1.79-2.01,2.69-3.01.45-.51.91-1.03,1.36-1.54.96-1.11,1.93-2.23,2.89-3.35.33-.4.68-.8,1.01-1.2,1.28-1.53,2.56-3.06,3.82-4.6.23-.28.45-.56.68-.85,1.03-1.26,2.04-2.54,3.04-3.82.42-.51.81-1.05,1.23-1.58.83-1.06,1.66-2.14,2.47-3.22.42-.56.85-1.11,1.26-1.68.83-1.11,1.66-2.24,2.49-3.37.35-.48.71-.98,1.06-1.46,2.32-3.22,4.58-6.49,6.77-9.8.33-.51.66-1.01,1-1.53.76-1.16,1.53-2.32,2.27-3.49.38-.58.75-1.18,1.11-1.76.73-1.15,1.44-2.29,2.14-3.45.35-.56.68-1.11,1.03-1.68.85-1.39,1.66-2.79,2.49-4.18.18-.32.37-.61.55-.93,1-1.71,1.98-3.44,2.92-5.16.25-.45.5-.91.75-1.38.7-1.28,1.39-2.57,2.09-3.85.32-.6.63-1.21.95-1.81.61-1.18,1.23-2.37,1.84-3.57.3-.61.61-1.21.91-1.83.65-1.31,1.3-2.62,1.93-3.94.23-.46.46-.95.68-1.41.85-1.78,1.68-3.57,2.49-5.36.15-.33.28-.66.43-.98.66-1.48,1.3-2.96,1.94-4.43.25-.6.51-1.21.76-1.81.51-1.25,1.03-2.47,1.53-3.72.27-.65.51-1.3.78-1.93.5-1.28,1-2.57,1.49-3.85.22-.56.43-1.13.65-1.69,1.38-3.69,2.67-7.41,3.89-11.16.18-.58.37-1.16.55-1.73.42-1.31.83-2.62,1.23-3.95.2-.66.4-1.33.6-1.99.38-1.3.75-2.57,1.11-3.87.18-.63.35-1.26.53-1.89.42-1.56.83-3.12,1.23-4.68.08-.35.18-.7.27-1.06.48-1.91.93-3.82,1.36-5.75.12-.51.23-1.05.33-1.56.32-1.41.61-2.84.9-4.25.13-.68.27-1.34.4-2.03.25-1.31.5-2.61.73-3.92.12-.68.25-1.36.37-2.04.25-1.43.48-2.87.7-4.3.08-.53.17-1.05.25-1.58.3-1.96.56-3.92.81-5.88.05-.37.08-.75.13-1.13.2-1.59.38-3.2.55-4.8.07-.66.13-1.33.2-2.01.13-1.34.25-2.67.37-4.02.05-.71.12-1.41.17-2.13.1-1.38.18-2.77.27-4.15.03-.63.08-1.25.1-1.88.1-1.99.18-3.99.23-5.99h0c-10.48-39.9-39.62-83.82-86.54-83.89-44.07-.07-35.09,32.76-44.33,63.71-10.56,35.32-24.94,69.47-44.32,100.06-2.39,3.77-4.85,7.47-7.39,11.11-1.71,2.46-3.45,4.88-5.25,7.29-.95,1.28-1.91,2.54-2.87,3.8-2.24,2.92-4.55,5.8-6.91,8.63-5.08,6.09-10.41,11.99-16.04,17.63-8.07,8.09-16.72,15.66-25.97,22.67-1.18.9-2.36,1.78-3.55,2.66-7.72,5.65-15.84,10.89-24.43,15.69-19.61,10.98-36.3,12.09-54.5,24.03-31.48,20.64-48.7,60.82-72.6,90.53-.02.03-.05.07-.08.1-.15.18-.32.38-.48.58h0c-.37.43-.78.91-1.23,1.43-.07.07-.12.13-.18.22,0,0-.02.03-.03.03-.73.81-1.56,1.74-2.49,2.76l-.03.03c-.23.25-.45.5-.68.75l-.03.03c-.3.32-.6.65-.9.98-.07.07-.13.13-.2.22,0,0-.03.03-.03.05-.18.2-.38.42-.58.61-.18.2-.38.4-.56.6-.03.03-.07.07-.1.12-.18.2-.37.38-.55.58l-.05.05s-.12.12-.17.18c-.37.38-.73.78-1.11,1.18-.02.02-.03.03-.05.07-.02.02-.05.05-.07.07-.58.61-1.2,1.26-1.81,1.91-.07.07-.13.15-.22.22-.58.61-1.16,1.23-1.78,1.86l-.02.02h0c-2.09,2.21-4.35,4.57-6.73,7.02-.08.08-.15.15-.22.23.05.23.1.46.15.7l-.05.03Z"/>
    </g>
    <g>
      <path class="cls-4" d="M1132.89,1481.75c16.99-1.84,33.09-11.08,47.64-22.45.81-.63,1.61-1.28,2.41-1.91,3.19-2.57,6.31-5.25,9.33-7.94,6.81-6.08,13.18-12.32,19.05-18.07-9.13-8.19-19.68-15.74-30.27-23.35-3.02-2.18-6.04-4.35-9.05-6.54-10.49-7.69-20.64-15.63-29.06-24.49-46.06-.66-92.29,2.87-137.8-5.11-117.35-20.61-218.59-102.22-272.85-206.36l-8.05,5.99h0c3.34,23.83,10.13,47.26,19.78,69.91,61.29,143.93,238.73,256.56,388.89,240.34v-.02Z"/>
      <path class="cls-4" d="M2032.71,313.28c-1.98,8.6,4.91,8.58,9.7,12.25,206.51,158.19,291.51,432.67,259.53,686.28-14.65,116.18-75.68,238.18-128.32,340.98,31.53,3.5,37.03,17.22,60.14-5.68.75-.73,1.51-1.51,2.29-2.32,21.5-22.4,40.85-46.76,58.12-72.65,7.07-10.61,13.8-21.49,20.17-32.6,1.81-3.17,3.6-6.36,5.36-9.56,21.14-38.56,38.12-79.75,50.89-122.53,24.08-80.63,33.29-166.81,27.7-251.21-.08-1.16-.17-2.32-.25-3.49-1.1-15.33-2.67-30.59-4.75-45.76-.9-6.59-1.89-13.15-2.97-19.69-2.13-12.84-4.6-25.57-7.44-38.19-12.5-55.71-31.9-109.11-58.22-157.88-14.76-27.35-30.47-52.44-47.26-75.72-3.22-4.45-6.46-8.87-9.75-13.18-2.56-3.35-5.15-6.68-7.77-9.96-60.13-75.49-133.77-130.48-227.2-179.07l.02-.02Z"/>
      <path class="cls-4" d="M2538.67,1695.95c-149.43,84.83-398.05,0-503.99-125.53-18.58-22.02-28.83-48.95-44.1-72.83-4.55-7.11-1.81-10.06-14.21-7.8.28,2.57.4,5.45.38,8.53-.2,29.91-12.77,81.26-.6,102.49,3.39,5.91,14.98,13.78,25.49,20.91.66.45,1.33.9,1.98,1.35.37.25.73.5,1.1.75.5.35,1.01.68,1.49,1.03,4.23,2.91,8.02,5.6,10.66,7.87,80.88,69.94,163.92,124.5,266.04,146.01,22.35,4.7,45.58,7.85,69.94,9.22,28.76,1.59,56.56-.23,82.53-5.93,31.1-6.81,59.58-19.18,83.85-38.01,4.23-3.29,8.35-6.77,12.34-10.46,2.96-2.74,5.81-5.63,8.62-8.58,2.86-3.02,5.66-6.13,8.35-9.38,10.66-12.9,19.98-27.68,27.73-44.43-14.3,5.13-23.81,17.05-37.56,24.86l-.03-.03Z"/>
      <path class="cls-4" d="M1481.14,1507.72c-58.52,91.31-149.89,168.8-254.6,200.7-74.59,22.73-189.84,30.57-263.45,3.69-22.63-8.27-37.43-21.84-57.67-32.94,47.72,95.03,172.72,117.86,271.69,108.73,38.74-3.57,84.5-22.55,129.12-47.02,1.34-.75,2.71-1.49,4.05-2.24,13.85-7.7,27.56-15.91,40.88-24.33,1.06-.66,2.13-1.35,3.19-2.01,3.3-2.11,6.59-4.22,9.83-6.34,1.91-1.25,3.82-2.51,5.73-3.75,1.98-1.3,3.92-2.61,5.86-3.92,1.66-1.11,3.3-2.22,4.95-3.34,1.93-1.31,3.85-2.61,5.75-3.92,4.05-2.79,8.05-5.56,11.97-8.34,3.92-2.76,7.77-5.51,11.54-8.22,3.77-2.72,7.46-5.41,11.04-8.05,3.59-2.66,7.09-5.26,10.49-7.82,4.53-3.42,8.9-6.74,13.07-9.96,30.42-23.51,48.93-35.53,52.6-76.3.58-6.44.76-12.8.68-19.11-.05-3.15-.15-6.29-.32-9.43-.17-3.12-.38-6.23-.63-9.33-1-12.39-2.57-24.56-3.7-36.61-8.62-1.89-8.73,4.65-12.07,9.86v.02Z"/>
      <path class="cls-4" d="M2066.78,2025.81c-60.72-5.2-156.5-55.79-205.1-92.9l-74.57-64.38c.81,2.74,1.31,5.83,1.79,9.03.3,1.94.6,3.94.98,5.93.27,1.38.58,2.74.95,4.08.1.37.18.75.3,1.1.6,2.01,1.23,4.02,1.89,5.99.9,2.69,1.84,5.35,2.84,7.97,1.26,3.39,2.61,6.73,4.02,10.01,33.29,77.15,107.02,125.2,188.95,143.13,4.83,1.06,9.68,2.01,14.56,2.86,1.16.2,2.32.4,3.47.58,3.19.51,6.39,1,9.6,1.43.56.08,1.15.15,1.71.23,3.34.43,6.69.81,10.05,1.15.76.08,1.51.15,2.27.22,3.47.33,6.96.6,10.44.81.48.03.96.07,1.44.08,20.19,1.2,40.45.65,60.34-1.68,13.2-1.54,32.86-6.92,49.95-15.29,2.01-.98,3.99-2.01,5.91-3.07s3.8-2.18,5.61-3.32c1.54-.98,3.02-1.99,4.47-3.02,2.77-1.99,5.36-4.08,7.65-6.28,4.17-3.99,7.44-8.3,9.38-12.9-26.97,11.09-88.69,10.79-118.92,8.2l.02.03Z"/>
      <path class="cls-4" d="M1652.29,1884.7c-64.78,77.38-150.26,117.91-247.51,139.1l-84.68,13.96c91.28,47.79,223.82,21.95,299.35-51.66,3.22-3.14,6.33-6.36,9.33-9.65,7.51-8.25,14.31-17.05,20.31-26.34,1.89-2.92,3.67-5.91,5.4-8.93.98-1.73,1.94-3.47,2.87-5.21,7.77-14.71,13.62-30.49,17.05-47.27.27-1.3.48-2.62.66-3.97h0c.18-1.35.32-2.74.45-4.15v-.02c.12-1.39.22-2.82.32-4.28,0-.12,0-.23.02-.35.08-1.28.15-2.56.23-3.87.38-6.19.85-12.77,2.36-19.61-12.42,2.92-17.4,21.87-26.12,32.28l-.03-.03Z"/>
      <path class="cls-4" d="M2752.96,1127.19c0-1.36-.03-2.74-.08-4.1-.03-.98-.07-1.94-.12-2.92-.05-1.34-.12-2.69-.2-4.02-.07-1-.13-1.99-.2-2.97-.1-1.33-.2-2.67-.33-4.02-.08-1-.18-2.01-.3-3.01-.13-1.34-.3-2.69-.46-4.03-.12-1-.25-1.99-.38-2.99-.18-1.38-.4-2.76-.6-4.13-.15-.98-.3-1.94-.45-2.92-.23-1.44-.51-2.87-.78-4.32-.17-.91-.33-1.83-.51-2.74-.32-1.59-.66-3.19-1.01-4.8-.17-.76-.32-1.53-.5-2.29-.55-2.37-1.13-4.75-1.74-7.12-.05,2.01-.13,4-.23,5.99-.03.63-.07,1.25-.1,1.88-.08,1.38-.17,2.77-.27,4.15-.05.71-.1,1.41-.17,2.13-.12,1.34-.23,2.69-.37,4.02-.07.66-.13,1.33-.2,2.01-.17,1.61-.35,3.2-.55,4.8-.05.37-.08.75-.13,1.13-.25,1.96-.51,3.92-.81,5.88-.08.53-.17,1.05-.25,1.58-.22,1.44-.45,2.87-.7,4.3-.12.68-.23,1.36-.37,2.04-.23,1.31-.48,2.61-.73,3.92-.13.68-.27,1.34-.4,2.03-.28,1.43-.6,2.84-.9,4.25-.12.51-.22,1.05-.33,1.56-.43,1.93-.88,3.84-1.36,5.75-.08.35-.18.7-.27,1.06-.4,1.56-.8,3.12-1.23,4.67-.17.63-.35,1.26-.53,1.89-.37,1.3-.73,2.59-1.11,3.87-.2.66-.4,1.33-.6,1.99-.4,1.31-.81,2.64-1.23,3.95-.18.58-.37,1.16-.55,1.73-1.21,3.74-2.51,7.46-3.89,11.16-.22.56-.43,1.13-.65,1.69-.48,1.3-.98,2.57-1.49,3.85-.25.65-.51,1.3-.76,1.93-.5,1.25-1.01,2.49-1.53,3.72-.25.6-.5,1.21-.76,1.81-.63,1.48-1.28,2.96-1.93,4.43-.15.33-.28.66-.43,1-.81,1.79-1.64,3.59-2.47,5.36-.23.48-.45.95-.68,1.41-.63,1.31-1.26,2.62-1.91,3.92-.3.61-.61,1.23-.93,1.83-.6,1.2-1.21,2.37-1.83,3.55-.32.61-.63,1.21-.95,1.81-.68,1.3-1.38,2.57-2.08,3.85-.25.46-.5.93-.76,1.38-.96,1.73-1.93,3.44-2.92,5.15-.18.32-.38.63-.56.95-.81,1.39-1.64,2.79-2.47,4.17-.35.56-.68,1.13-1.03,1.69-.7,1.15-1.41,2.29-2.13,3.42-.38.6-.75,1.18-1.13,1.78-.75,1.16-1.49,2.32-2.26,3.49-.33.51-.66,1.03-1.01,1.53-2.19,3.3-4.47,6.56-6.77,9.78-.37.5-.71.98-1.08,1.48-.81,1.13-1.64,2.24-2.47,3.35-.42.56-.85,1.13-1.28,1.69-.81,1.08-1.63,2.14-2.46,3.2-.42.53-.83,1.06-1.25,1.59-1,1.26-1.99,2.52-3.01,3.77-.23.3-.48.6-.71.9-1.26,1.54-2.52,3.07-3.8,4.6-.35.42-.7.81-1.03,1.21-.95,1.11-1.91,2.23-2.87,3.32-.46.53-.93,1.05-1.38,1.58-.88,1-1.78,1.99-2.67,2.99-.46.51-.95,1.05-1.41,1.56-.98,1.08-1.98,2.14-2.97,3.19-.38.4-.75.8-1.13,1.2-1.36,1.44-2.74,2.87-4.13,4.28-.28.28-.56.56-.85.85-1.13,1.15-2.26,2.27-3.39,3.4-.48.48-.96.95-1.46,1.43-.96.93-1.93,1.88-2.91,2.81-.51.5-1.03.98-1.56,1.48-1,.95-2.01,1.89-3.04,2.82-.46.43-.93.86-1.39,1.28-1.48,1.34-2.96,2.67-4.45,3.99-1.49,1.31-3.01,2.62-4.52,3.9-.48.42-.98.83-1.48,1.25-1.05.88-2.09,1.76-3.15,2.62-.56.46-1.11.91-1.68,1.38-1.05.85-2.08,1.68-3.12,2.52-.53.43-1.06.85-1.61,1.28-.25.18-.48.38-.73.58-1.01.8-2.04,1.58-3.06,2.36-.32.25-.63.5-.96.73-1.58,1.2-3.17,2.39-4.77,3.55-.45.33-.91.66-1.36.98-.85.61-1.69,1.25-2.56,1.86-.32.23-.63.45-.95.66-.58.42-1.16.81-1.76,1.23-.55.38-1.08.76-1.63,1.15s-1.1.75-1.64,1.11c-.58.4-1.18.8-1.78,1.21-1.2.81-2.39,1.61-3.6,2.39-.46.32-.93.61-1.39.93-.13.08-.25.17-.37.25-1.54,1-3.09,1.98-4.63,2.96-.35.22-.7.43-1.05.65-1.35.83-2.69,1.66-4.04,2.47-.6.37-1.2.71-1.79,1.06-1.13.68-2.27,1.34-3.4,2.01-.63.37-1.26.73-1.89,1.1-1.18.68-2.36,1.34-3.54,1.99-.56.32-1.13.63-1.69.95-1.69.93-3.39,1.86-5.1,2.76-.03.02-.08.05-.12.07-1.2.63-2.41,1.25-3.6,1.86-2.64,1.36-5.28,2.69-7.94,3.97-3.01,1.46-6.04,2.84-9.1,4.2-3.29,1.46-6.58,2.89-9.9,4.25-1.54.63-3.09,1.26-4.63,1.88-2.14.85-4.3,1.66-6.46,2.46-1.86.68-3.72,1.36-5.58,2.01-8.07,2.82-16.24,5.31-24.48,7.46-11.31,2.96-44.1,10.94-53.48,10.94l-83.89.25s-.07.01-.1.02l-26.97.08c-.05-.23-.1-.46-.15-.7-.23.25-.46.47-.69.72,0,0,0,0-.01,0-1.41,1.46-2.84,2.96-4.32,4.48-10.66,11.08-22.68,23.56-32.36,34.09l-.03.03s-.05.05-.07.07c-1.35,1.46-2.62,2.87-3.87,4.23-.07.07-.13.13-.2.22-.58.63-1.13,1.26-1.68,1.88-.03.03-.07.08-.1.12-.58.65-1.15,1.3-1.71,1.93-.03.05-.07.08-.12.13-.12.13-.23.27-.35.4-.38.45-.78.88-1.15,1.31-.05.05-.1.12-.15.17-.2.23-.38.45-.56.66-.8.91-1.54,1.81-2.24,2.64-.08.1-.17.2-.25.28-.38.46-.75.91-1.11,1.34-.05.05-.08.1-.13.15-.05.07-.1.13-.15.2-.32.4-.63.8-.93,1.16-.05.07-.1.13-.17.22-.28.37-.55.71-.8,1.05-.07.1-.13.18-.22.28-.53.71-.98,1.36-1.36,1.94-.03.05-.07.1-.1.13-.05.08-.1.15-.13.22-.13.23-.27.43-.38.63,0,0-.02.03-.03.05-.03.05-.07.12-.1.17-.07.13-.12.25-.18.37-.05.12-.12.23-.17.33-.02.05-.03.08-.05.13-.03.08-.05.17-.08.25-.02.07-.05.13-.07.2,0,.05-.02.1-.03.13-.02.15-.03.3,0,.4,1.99,1.38,3.84,2.84,5.58,4.33,3.14,2.71,5.91,5.58,8.58,8.49,1.28,1.39,2.56,2.79,3.82,4.2.66.73,1.31,1.44,1.98,2.18.27.3.55.6.83.88.63.68,1.28,1.34,1.91,2.03.25.27.5.53.76.78.88.9,1.76,1.78,2.69,2.64.02,0,.03.03.05.05.12.1.23.22.35.32.61.58,1.25,1.15,1.89,1.69.25.22.51.43.76.65.55.46,1.13.93,1.71,1.39.25.2.51.4.76.6.83.63,1.68,1.26,2.56,1.86h.02c.98.66,2.01,1.33,3.07,1.96,1.06.63,2.18,1.25,3.34,1.83,1.36.7,2.74,1.36,4.12,2.01.45.22.91.42,1.36.61.93.43,1.86.85,2.79,1.25.55.23,1.08.46,1.63.68.85.35,1.69.71,2.56,1.05.58.23,1.15.45,1.73.66.83.32,1.66.63,2.49.93.58.22,1.16.42,1.76.61.83.3,1.68.56,2.51.85.58.18,1.16.38,1.73.56.86.27,1.74.53,2.62.8.55.17,1.1.33,1.64.48.96.27,1.94.53,2.91.78.45.12.91.25,1.36.37,1.43.35,2.86.7,4.28,1.01,1.35.3,2.69.56,4.04.83s2.69.5,4.05.71c1.54.25,3.09.48,4.65.68.48.07.96.12,1.44.18,1.1.13,2.18.27,3.27.38.55.05,1.08.12,1.63.17,1.1.1,2.19.2,3.29.28.48.03.96.08,1.44.1,3.12.2,6.26.33,9.4.37h1.43c1.11,0,2.22,0,3.34-.02.53,0,1.08-.02,1.61-.03,1.11-.03,2.22-.07,3.35-.12.48-.02.95-.03,1.43-.07,1.58-.08,3.15-.17,4.73-.28,1.51-.12,3.02-.25,4.55-.38h.05c2.42-.23,4.85-.51,7.27-.83.37-.05.75-.1,1.11-.15,2.32-.32,4.65-.68,6.97-1.08.48-.08.95-.17,1.43-.25,2.79-.5,5.6-1.05,8.37-1.64h.07c2.77-.6,5.55-1.25,8.3-1.94.02,0,.05,0,.07-.02,2.77-.7,5.53-1.44,8.3-2.23h.02c2.77-.8,5.53-1.63,8.29-2.52,1.79-.56,3.57-1.16,5.35-1.76,5.11-1.74,10.2-3.64,15.23-5.65.17-.07.35-.13.51-.2,1.61-.65,3.2-1.3,4.8-1.98.03,0,.05-.02.08-.03,1.68-.7,3.34-1.41,5-2.14.08-.03.18-.08.27-.12,1.44-.63,2.87-1.28,4.3-1.93.42-.18.81-.37,1.23-.56,1.16-.53,2.32-1.08,3.49-1.63.42-.2.83-.38,1.23-.58,1.51-.71,3.02-1.44,4.53-2.19,2.79-1.38,5.55-2.77,8.29-4.2.22-.12.43-.23.65-.33,2.54-1.33,5.08-2.69,7.59-4.07.27-.15.55-.3.81-.45,2.49-1.38,4.98-2.79,7.42-4.2.22-.12.43-.25.65-.37,2.62-1.53,5.21-3.06,7.77-4.62.02,0,.05-.03.07-.05,2.56-1.56,5.08-3.14,7.59-4.72.22-.13.43-.28.65-.42,2.32-1.48,4.62-2.97,6.89-4.48.27-.17.53-.35.78-.51,2.27-1.51,4.5-3.02,6.71-4.53.2-.13.4-.27.6-.42,2.37-1.64,4.72-3.29,7.02-4.93,2.87-2.06,5.75-4.17,8.62-6.29.33-.25.66-.48,1-.73,2.74-2.03,5.46-4.1,8.19-6.19.45-.35.9-.68,1.33-1.03,2.69-2.08,5.36-4.18,8.05-6.31.45-.35.88-.7,1.31-1.06,2.72-2.18,5.43-4.38,8.14-6.63.32-.27.61-.51.93-.78,5.75-4.78,11.44-9.68,17.05-14.71.2-.18.42-.37.61-.55,2.72-2.44,5.43-4.92,8.1-7.41.33-.3.66-.61.98-.91,2.64-2.47,5.26-4.96,7.85-7.49l.08.08c.33-.32.66-.63.98-.96,2.62-2.56,5.23-5.15,7.82-7.77.22-.22.43-.45.65-.66,5.48-5.58,10.83-11.26,16.06-17.07.05-.07.12-.13.17-.18,2.54-2.84,5.06-5.71,7.54-8.6.22-.25.43-.5.65-.75,2.41-2.82,4.78-5.68,7.12-8.55.23-.3.48-.6.71-.88,2.34-2.89,4.65-5.81,6.92-8.77.17-.22.33-.45.5-.66,4.78-6.24,9.4-12.59,13.8-19.05.13-.2.27-.38.4-.58,1.31-1.93,2.59-3.85,3.85-5.8.4-.61.78-1.23,1.18-1.84.86-1.33,1.71-2.66,2.56-4,.46-.75.93-1.51,1.39-2.26.75-1.21,1.49-2.42,2.22-3.64.5-.81.96-1.63,1.46-2.46.68-1.16,1.38-2.32,2.04-3.5.5-.85.98-1.71,1.46-2.56.65-1.15,1.3-2.31,1.93-3.45.48-.86.95-1.74,1.43-2.62.63-1.16,1.25-2.31,1.84-3.47.46-.88.91-1.74,1.36-2.62.6-1.18,1.2-2.36,1.79-3.54.43-.86.86-1.73,1.28-2.61.6-1.21,1.18-2.44,1.74-3.65.4-.85.8-1.68,1.18-2.52.6-1.3,1.18-2.61,1.76-3.92.35-.78.7-1.54,1.03-2.32.66-1.51,1.3-3.04,1.93-4.55.23-.58.48-1.15.73-1.73.86-2.11,1.69-4.22,2.49-6.33.15-.4.28-.78.43-1.18.65-1.73,1.28-3.45,1.89-5.18.27-.75.51-1.51.78-2.26.48-1.38.95-2.76,1.41-4.15.28-.86.55-1.71.81-2.57.42-1.3.81-2.59,1.2-3.89.27-.91.53-1.81.8-2.72.37-1.26.71-2.52,1.06-3.79.25-.93.5-1.86.73-2.81.33-1.25.65-2.51.95-3.77.23-.95.45-1.89.68-2.84.3-1.26.56-2.52.85-3.79.2-.95.4-1.89.6-2.84.27-1.28.51-2.57.75-3.85.17-.93.35-1.86.51-2.79.23-1.33.45-2.67.66-4,.13-.9.28-1.78.42-2.67.22-1.44.4-2.91.58-4.35.1-.78.22-1.58.3-2.36.22-1.83.4-3.67.58-5.51.03-.42.08-.83.13-1.25.2-2.26.37-4.53.5-6.79.03-.61.05-1.25.08-1.86.08-1.64.17-3.3.22-4.96.03-.85.03-1.71.05-2.56.03-1.43.05-2.87.05-4.3,0-.93-.02-1.86-.03-2.81Z"/>
    </g>
    <path class="cls-2" d="M2670.75,1453.44c125.5-98.67,222.85-250.77,171.35-417.06-27.85-89.88-147.14-179.9-241.32-136.46-90.7,41.83-65.29,100.64-97.02,176.89-1.76,4.22-23.08,52.62-32.18,42.29,86.06-312.62-19.84-613.38-270.19-811.43-548.62-434.03-1326.84,49.07-1219.26,724.6,1.83,11.51,24.16,73.99,19.88,78.77-15.01-1.48-26.88-30.34-31.3-43.17-11.19-32.53-11.16-73.28-24.28-104.64-9.88-23.65-43.27-57.8-67.45-65.47-118.23-37.49-232.38,46.93-254.47,163.91-32.73,173.39,65.41,317.98,199.84,414.57-141.56,228.18,95.96,436.44,322.62,412.43-8.6,142.95,95.49,264.08,239.36,274.18,128.5,9.03,227.12-39.98,318.36-124.97,9.63-8.97,14.86-19.71,24.48-28.15,6.63-1.39,51.94,49.8,61.94,58.3,115.35,98.28,313.67,137.47,442.67,44.02,61.6-44.63,106.19-144.01,88.84-219.33h70.45c19.53,0,66.87-14.55,87.42-21.3,134.13-44.17,231.16-155.22,216.51-303.01-4.65-46.96-23.15-61.5-53.75-90.36-3.39-3.2-3.69-2.76-2.56-8.34,11.26-1.86,21.35-9.4,30.09-16.27h-.02ZM744.01,1241.4c-9.65-22.65-16.44-46.08-19.78-69.91-2.52-18-5.05-43.42-4.62-68.41.4-23.43,3.42-46.46,11.47-62.63l.1-.2c.55-1.08,1.11-2.13,1.69-3.14,3.94-6.79,11.62-14.91,20.96-22.67,6.26-5.2,13.27-10.23,20.37-14.56,1.56-.96,3.14-1.89,4.7-2.77.96-.55,1.93-1.08,2.89-1.59,1.93-1.03,3.85-1.99,5.75-2.87,3.8-1.78,7.51-3.25,11.03-4.35,1.76-.55,3.49-1,5.13-1.34,1.66-.35,3.25-.6,4.78-.71.76-.07,1.51-.1,2.24-.1,59.45-.4,42.59,45.8,51.49,85.53,15.36,68.59,79.6,134.25,141.07,165.04,4.96,2.49,12.94,5.08,21.44,7.62,2.03.61,4.08,1.21,6.14,1.83.76.22,1.53.45,2.27.66,12.9,3.79,25.14,7.37,28.24,10.31,1.89,1.78,4.7,5.7,8.02,10.83,11.14,17.2,28.18,48.25,36.38,59.54.3.4.6.83.9,1.25.51.71,1.05,1.44,1.58,2.19,1,1.39,2.01,2.84,3.06,4.32.48.68.95,1.34,1.43,2.04,9.55,13.62,20.49,29.49,30.17,39.69,8.42,8.87,18.56,16.8,29.06,24.49,3.01,2.19,6.03,4.37,9.05,6.54,10.58,7.61,21.12,15.16,30.27,23.35-5.86,5.75-12.24,11.99-19.05,18.07-3.02,2.71-6.14,5.36-9.33,7.94-.8.65-1.59,1.28-2.41,1.91-14.55,11.37-30.64,20.62-47.64,22.45-150.16,16.22-327.6-96.42-388.89-240.34l.02.02ZM2600.01,1601.7c-1.68,24.11-14.23,48.8-23.78,69.41-7.75,16.77-17.09,31.53-27.73,44.43-2.69,3.25-5.5,6.36-8.35,9.38-2.81,2.96-5.66,5.84-8.62,8.58-3.99,3.69-8.09,7.17-12.34,10.46-24.28,18.83-52.75,31.2-83.85,38.01-25.97,5.7-53.77,7.52-82.53,5.93-24.36-1.35-47.59-4.5-69.94-9.22-102.14-21.5-185.16-76.05-266.04-146.01-2.64-2.27-6.43-4.98-10.66-7.87-.5-.33-1-.68-1.49-1.03-.37-.25-.73-.5-1.1-.75-.65-.45-1.31-.9-1.98-1.35-10.51-7.12-22.1-14.99-25.49-20.91-12.17-21.24.4-72.58.6-102.49.02-3.09-.08-5.96-.38-8.53-2.21-19.94-18.98-30.92-37.51-33.13-1.86-.22-3.72-.35-5.6-.4-2.81-.07-5.63.07-8.42.38-6.51.75-12.84,2.57-18.43,5.46-54.41,28-48.02,120.57-30.5,192.72.51,2.09,1.03,4.17,1.54,6.23.2.81.42,1.61.63,2.41,6.21,23.83,13.45,44.92,19.83,59.96,3.62,8.55,7.8,17.22,12.5,25.92,1.56,2.91,3.19,5.81,4.88,8.7,37.84,65.31,103.95,130.17,176.79,151.02,3.24.93,6.49,1.76,9.75,2.52,3.25.75,6.54,1.41,9.81,1.98,11.49,1.98,23.1,2.79,34.75,2.29,1.76-.08,3.69-.32,5.73-.68.42-.07.83-.15,1.25-.23.83-.17,1.69-.33,2.57-.53.88-.2,1.76-.4,2.67-.61.81-.2,1.64-.4,2.47-.61.18-.05.38-.1.56-.15,24.18-6.19,56.46-17.62,58.98,18.48.56,8.09-.73,19.69-3.6,31.83-.27,1.1-.53,2.21-.81,3.32-5.15,19.96-14.38,40.6-26.4,48.72-.18.13-.38.23-.56.35-.48.32-.96.63-1.46.9-.68.37-1.38.7-2.08,1-1.94,4.6-5.2,8.9-9.38,12.9-2.29,2.19-4.87,4.28-7.65,6.28-1.44,1.03-2.92,2.04-4.47,3.02-1.81,1.15-3.69,2.26-5.61,3.32s-3.9,2.09-5.91,3.07c-17.09,8.37-36.75,13.75-49.95,15.29-19.89,2.32-40.15,2.87-60.34,1.68-.48-.03-.96-.07-1.44-.08-3.49-.22-6.97-.5-10.44-.81-.76-.07-1.51-.15-2.27-.22-3.35-.33-6.71-.71-10.05-1.15-.56-.07-1.15-.15-1.71-.23-3.2-.43-6.41-.91-9.6-1.43-1.16-.18-2.32-.38-3.47-.58-4.88-.85-9.73-1.79-14.56-2.86-81.93-17.93-155.65-65.99-188.95-143.13-1.41-3.29-2.76-6.63-4.02-10.01-.98-2.62-1.94-5.28-2.84-7.97-.66-1.98-1.28-3.99-1.89-5.99-.12-.37-.2-.73-.3-1.1-.37-1.35-.68-2.71-.95-4.08-.38-1.98-.68-3.97-.98-5.93-.5-3.2-.98-6.31-1.79-9.05-2.36-7.92-5.01-19.44-8.17-31.75-6.26-24.34-14.53-51.72-26.68-60.31-8.88-6.28-16.67-9.17-23.53-9.46-1.25-.05-2.46-.02-3.64.08-.6.05-1.18.13-1.76.23-1.73.28-3.39.75-5,1.38-3.2,1.25-6.14,3.12-8.85,5.51-.9.8-1.78,1.64-2.62,2.54-.05.05-.1.1-.13.15-.75.8-1.46,1.63-2.16,2.49-15.03,18.48-21.8,53.2-26.17,73.01-1.51,6.84-1.98,13.42-2.36,19.61-.08,1.31-.15,2.59-.23,3.87,0,.12,0,.23-.02.35-.1,1.46-.2,2.89-.32,4.28v.02c-.12,1.41-.27,2.79-.45,4.15h0c-.18,1.36-.4,2.67-.66,3.97-3.44,16.79-9.27,32.58-17.05,47.27-.93,1.76-1.88,3.49-2.87,5.21-1.73,3.02-3.5,6.01-5.4,8.93-5.99,9.28-12.8,18.07-20.31,26.34-3.01,3.3-6.11,6.53-9.33,9.65-75.54,73.63-208.08,99.46-299.35,51.66-28.15-14.75-50.03-28.16-61.65-61.19-2.14-6.11-4.17-15.23-5.13-25.06-.18-1.79-.32-3.62-.42-5.46-.05-1.06-.1-2.14-.13-3.22-.05-1.98-.05-3.97,0-5.93.12-3.95.48-7.85,1.13-11.54.5-2.77,1.15-5.43,2.01-7.9.73-2.11,1.61-4.08,2.64-5.89.32-.55.63-1.08.96-1.59.95-1.46,2.03-2.79,3.22-3.97.88-.88,1.83-1.69,2.86-2.39,1.83-1.25,3.89-2.22,6.19-2.84,8.02-2.13,29.72,2.41,41.98,3.8.81.1,1.59.17,2.32.23,9.6.81,18.93,1.08,27.98.8,9.05-.28,17.82-1.08,26.34-2.37,2.13-.33,4.23-.68,6.33-1.06,100.44-18.53,162.31-107.15,195.32-206.41,0-.05.03-.1.05-.13,3.3-9.93,6.31-19.98,9.03-30.05.22-.81.43-1.63.65-2.44,1-3.75,1.98-7.52,2.89-11.29,8.55-34.84,22.4-133.95-7.85-171.83-.81-1.03-1.69-1.99-2.57-2.92-.81-.85-1.64-1.68-2.51-2.44-5.45-4.87-12.04-8.09-19.94-9.18-15.01-2.06-33.92-1.89-46.18,5.5-1.01.61-1.96,1.28-2.87,1.99-.83.65-1.64,1.33-2.39,2.08-5.2,5.16-8.09,12.54-7.12,22.86,1.13,12.06,2.71,24.24,3.7,36.61.25,3.09.46,6.21.63,9.33.17,3.12.27,6.26.32,9.43.08,6.29-.1,12.67-.68,19.11-3.67,40.76-22.17,52.77-52.6,76.3-4.17,3.22-8.53,6.56-13.07,9.96-3.4,2.56-6.91,5.18-10.49,7.82-3.59,2.66-7.27,5.35-11.04,8.05-3.77,2.72-7.61,5.46-11.54,8.22-3.92,2.76-7.92,5.55-11.97,8.34-1.89,1.31-3.82,2.61-5.75,3.92-1.64,1.11-3.29,2.22-4.95,3.34-1.94,1.31-3.9,2.61-5.86,3.92-1.89,1.25-3.8,2.51-5.73,3.75-3.25,2.13-6.53,4.23-9.83,6.34-1.06.68-2.13,1.35-3.19,2.01-13.33,8.42-27.03,16.62-40.88,24.33-1.34.75-2.71,1.49-4.05,2.24-44.62,24.46-90.38,43.44-129.12,47.02-98.98,9.13-223.97-13.68-271.69-108.73-7.27-14.48-14.71-29.41-19.51-44.88-.07-.2-.12-.4-.18-.6-.5-1.64-.96-3.29-1.41-4.95-.48-1.79-.91-3.6-1.3-5.43-.23-1.05-.45-2.11-.63-3.17-2.47-13.25-2.51-26.9,1.59-41,2.06-7.12,4.6-12.62,7.51-16.79.43-.61.86-1.18,1.3-1.73.7-.86,1.39-1.66,2.13-2.39,4.78-4.78,10.34-6.76,16.42-6.82.55,0,1.08,0,1.64.03.88.03,1.78.12,2.67.23.25.03.51.07.76.1.75.1,1.49.23,2.26.38.42.08.83.17,1.26.27.55.13,1.1.27,1.66.4,1.1.28,2.23.61,3.34.98.55.18,1.1.37,1.64.56,1.08.38,2.18.8,3.25,1.23,4.58,1.84,9.28,4.15,14.01,6.66,1.48.8,2.97,1.59,4.47,2.42,1.18.65,2.36,1.31,3.52,1.96.58.33,1.18.66,1.76,1,2.36,1.31,4.7,2.64,7.02,3.94,1.16.65,2.32,1.28,3.49,1.91,5.78,3.14,11.42,5.98,16.77,8.02,11.01,4.18,22.08,7.57,33.14,10.23,87.28,20.92,174.47-5.08,237.53-65.01,1.39-1.33,2.77-2.66,4.15-4.02,2.74-2.71,5.43-5.5,8.07-8.34,1.33-1.43,2.62-2.86,3.92-4.32,11.66-13.08,22.27-27.46,31.67-43.04,1.58-2.61,3.45-5.99,5.5-9.9.4-.78.81-1.58,1.23-2.41,6.26-12.3,13.58-28.93,17.78-43.52.56-1.94,1.06-3.85,1.49-5.71.22-.93.42-1.84.61-2.76.75-3.62,1.2-6.99,1.3-10.01.1-3.02-.17-5.68-.88-7.87-3.54-10.98-9.05-17.55-15.51-21.39-1.46-.86-2.97-1.59-4.53-2.21-.66-.27-1.33-.5-2.01-.73-1.33-.43-2.67-.76-4.05-1.05-1.23-.25-2.46-.45-3.7-.6-.88-.1-1.76-.18-2.64-.25-.86-.07-1.74-.1-2.61-.12h-.07c-14.16-.37-28.39,3.72-35.45.48-.07-.03-.17-.1-.25-.15-.2-.12-.42-.28-.68-.48-.56-.45-1.25-1.08-2.08-1.91-1.03-1.03-2.26-2.34-3.62-3.85-.45-.5-.93-1.03-1.41-1.58-.96-1.1-1.99-2.27-3.07-3.52-.53-.63-1.08-1.26-1.64-1.93-.81-.95-1.64-1.94-2.49-2.96-.66-.8-1.33-1.59-2.01-2.41-.7-.85-1.41-1.71-2.13-2.57-1.39-1.69-2.79-3.4-4.2-5.11-1.08-1.33-2.18-2.67-3.24-3.99-.13-.15-.25-.32-.38-.46-2.84-3.52-5.6-6.94-8.05-10.03-.12-.15-.23-.28-.35-.43-.9-1.13-1.76-2.21-2.57-3.24-.17-.22-.33-.42-.5-.63-2.44-3.07-4.4-5.53-5.58-7.01-.05-.07-.12-.15-.17-.22-6.29-7.89-12.34-15.81-18.18-23.78-4.87-6.64-9.6-13.3-14.15-20.01-2.76-4.05-5.45-8.12-8.09-12.19-1.15-1.76-2.27-3.54-3.4-5.3-2.56-4.03-5.08-8.09-7.54-12.14-4.52-7.46-8.83-14.94-12.99-22.48-2.76-5.01-5.45-10.05-8.05-15.11-2.61-5.05-5.13-10.13-7.57-15.21-2.44-5.08-4.82-10.2-7.09-15.31-8-17.93-15.04-36.07-21.17-54.45-.88-2.62-1.73-5.26-2.57-7.89-6.71-21.09-12.2-42.49-16.57-64.23-2.18-10.88-4.08-21.82-5.7-32.86-.4-2.76-.8-5.53-1.16-8.3-1.44-10.84-2.62-21.77-3.54-32.79-.03-.46-.08-.93-.12-1.39-.66-8.1-1.18-16.26-1.58-24.44-.15-3.07-.27-6.16-.38-9.25-.88-25.7-.45-51.91,1.25-78.62,1.33-20.86,3.4-42.01,6.21-63.51,33.54-257.03,273.17-480.63,522.77-536.5,109.31-24.48,213.64-18.07,314.33,13.8,13.13,4.15,26.2,8.75,39.22,13.77,26.02,10.03,51.81,21.74,77.4,35.04,93.44,48.59,167.06,103.6,227.2,179.07,2.61,3.29,5.2,6.61,7.77,9.96,3.29,4.32,6.53,8.73,9.75,13.18,16.79,23.26,32.5,48.37,47.26,75.72,26.32,48.77,45.71,102.19,58.22,157.88,2.84,12.62,5.31,25.36,7.44,38.19,1.08,6.54,2.08,13.1,2.97,19.69,2.08,15.16,3.65,30.42,4.75,45.76.08,1.16.17,2.32.25,3.49,5.6,84.4-3.62,170.58-27.7,251.21-12.77,42.77-29.76,83.97-50.89,122.53-1.76,3.2-3.55,6.39-5.36,9.56-6.36,11.11-13.08,21.98-20.17,32.6-17.27,25.89-36.61,50.25-58.12,72.65-.78.81-1.54,1.59-2.29,2.32-23.11,22.9-28.61,9.2-60.14,5.68-.07.13-.28.3-.61.5-.17.1-.35.22-.56.35-.1.07-.22.12-.32.18-.27.15-.56.33-.86.51-.15.08-.3.17-.45.27-.28.17-.56.35-.88.55-2.11,1.34-4.57,3.27-5.94,5.98-2.87,5.68-5.15,11.04-6.91,16.19-6.58,19.21-5.76,35.35.12,52.49.07.2.15.42.22.61.35,1.01.73,2.03,1.11,3.04,3.32,8.75,7.89,17.85,13.4,27.8,52.36,94.56,155.9,145.44,261.01,134.28,1.84-.2,3.69-.42,5.53-.65,11.08-1.41,22.13-3.5,33.16-6.31.43-.12.9-.25,1.35-.38,25.32-7.12,87.14-42.23,104.36-37.31.68.2,1.38.48,2.06.85.48.27.96.56,1.46.9.55.37,1.1.78,1.63,1.21.33.28.68.58,1.01.88.96.88,1.91,1.86,2.81,2.87.08.1.17.18.25.28,2.09,2.39,3.9,4.98,5.16,7.06.65,1.06,1.25,2.13,1.81,3.19,3.94,7.51,5.93,15.31,6.51,23.26.25,3.4.23,6.84,0,10.28v-.02ZM2020.65,1739.66c-7.22-13.03-12.64-26.68-15.51-40.38,11.29,19.26,23.65,37.03,37.44,53.25.81.58,1.68,1.21,2.54,1.88.07.05.13.1.2.15,2.66,2.03,5.51,4.33,8.47,6.79.02,0,.03.03.05.05,5.16,4.32,10.61,9.1,15.77,13.6.71.61,1.43,1.23,2.13,1.84.25.22.51.43.76.66.68.58,1.35,1.16,1.99,1.73.2.17.4.33.58.5.8.68,1.58,1.35,2.36,2.01.2.17.38.33.58.48.8.66,1.58,1.33,2.32,1.94.07.07.15.12.22.18.71.58,1.41,1.15,2.08,1.69.13.1.27.22.4.32.7.56,1.38,1.1,2.03,1.59.13.1.25.2.38.28.66.51,1.31,1,1.93,1.43,8.3,5.91,16.85,14.73,27.15,19.16l55.05,23.4c-1.23.18-2.44.32-3.67.45-.37.03-.73.07-1.1.1-.9.08-1.81.15-2.71.2-.37.02-.73.05-1.08.07-1.18.05-2.37.08-3.55.1h-.76c-.95,0-1.89-.02-2.82-.05-.45,0-.91-.03-1.36-.07-.78-.03-1.54-.08-2.32-.15-.45-.03-.91-.07-1.36-.1-1.1-.1-2.18-.22-3.27-.35-.51-.07-1.03-.13-1.54-.22-.65-.08-1.3-.18-1.94-.28-.6-.1-1.2-.2-1.79-.3-.55-.1-1.11-.2-1.66-.32-1.33-.25-2.64-.53-3.95-.85-.27-.07-.55-.12-.81-.18-.71-.17-1.43-.37-2.14-.55-.4-.1-.8-.22-1.2-.32-.73-.2-1.46-.4-2.19-.61-.32-.08-.61-.18-.93-.28-1.69-.51-3.39-1.06-5.06-1.64-6.09-1.25-20.69-7.47-28.36-11.94-26.25-15.28-51.72-39.92-69.03-68h0c-1.48-2.41-2.91-4.83-4.25-7.29l-.03.02ZM1299.95,1828.24c58.73-12.06,106.99-40.05,151.02-80.5-22.86,41.45-73.21,73.87-118.81,84.54-11.27,2.62-35.7,11.18-32.21-4.04ZM2636.97,1361.95c-.33.32-.65.63-.98.96-2.59,2.52-5.21,5.01-7.85,7.49-.33.3-.65.61-.98.91-2.69,2.49-5.38,4.98-8.1,7.41-.2.18-.42.37-.61.55-5.63,5.03-11.32,9.93-17.05,14.71-.32.27-.61.51-.93.78-2.71,2.24-5.41,4.43-8.14,6.63-.43.35-.88.7-1.31,1.06-2.67,2.13-5.36,4.23-8.05,6.31-.45.35-.9.68-1.33,1.03-2.72,2.09-5.46,4.17-8.19,6.19-.33.25-.66.48-1,.73-2.87,2.13-5.75,4.23-8.62,6.29-2.31,1.64-4.65,3.29-7.02,4.93-.2.13-.4.27-.6.42-2.21,1.53-4.45,3.04-6.71,4.53-.27.17-.51.35-.78.51-2.27,1.49-4.57,2.99-6.89,4.48-.22.13-.43.28-.65.42-2.51,1.59-5.03,3.15-7.59,4.72-.02,0-.05.03-.07.05-2.56,1.56-5.16,3.11-7.77,4.62-.22.12-.43.25-.65.37-2.46,1.43-4.93,2.82-7.42,4.2-.27.15-.55.3-.81.45-2.51,1.38-5.03,2.74-7.59,4.07-.22.12-.43.23-.65.33-4.22,2.21-8.5,4.33-12.82,6.39-.42.2-.83.38-1.23.58-1.16.55-2.32,1.1-3.49,1.63-.42.18-.81.38-1.23.56-1.43.65-2.86,1.3-4.3,1.93-.08.03-.18.08-.27.12-1.66.73-3.32,1.44-5,2.14-.03,0-.05.02-.08.03-1.59.66-3.2,1.33-4.8,1.98-.17.07-.35.13-.51.2-9.48,3.79-19.13,7.14-28.86,9.93h-.02c-2.76.8-5.53,1.53-8.3,2.23-.02,0-.05,0-.07.02-2.76.7-5.53,1.34-8.3,1.94h-.07c-2.79.6-5.58,1.15-8.37,1.64h0c-5.6,1-11.19,1.76-16.79,2.31h-.03c-3.09.3-6.18.51-9.27.68-.48.02-.95.03-1.43.07-1.11.05-2.22.08-3.35.12-.53,0-1.08.02-1.61.03-1.11.02-2.22.02-3.34.02h-1.43c-3.14-.03-6.28-.15-9.4-.37-.48-.03-.96-.07-1.44-.1-1.1-.08-2.19-.17-3.29-.28-.55-.05-1.08-.1-1.63-.17-1.1-.12-2.18-.25-3.27-.38-.48-.07-.96-.12-1.44-.18-2.91-.38-5.81-.85-8.7-1.41-2.79-.53-5.56-1.15-8.32-1.84-.45-.12-.91-.23-1.36-.37-.96-.25-1.94-.51-2.91-.78-.55-.15-1.1-.32-1.64-.48-.88-.25-1.74-.51-2.62-.8-.58-.18-1.16-.37-1.73-.56-.85-.28-1.68-.55-2.51-.85-.58-.2-1.16-.42-1.76-.61-.83-.3-1.66-.61-2.49-.93-.58-.22-1.15-.45-1.73-.66-.85-.33-1.69-.7-2.56-1.05-.55-.23-1.1-.45-1.63-.68-.93-.4-1.86-.83-2.79-1.25-.45-.2-.91-.42-1.36-.61-1.38-.65-2.76-1.31-4.12-2.01-2.32-1.18-4.45-2.46-6.43-3.8-.88-.6-1.73-1.23-2.56-1.86-.27-.2-.51-.4-.76-.6-.58-.45-1.15-.91-1.71-1.39-.27-.22-.51-.43-.76-.65-.65-.56-1.28-1.13-1.89-1.69-.12-.1-.23-.22-.35-.32h0l-.05-.05c-.91-.86-1.81-1.74-2.69-2.64-.25-.27-.51-.53-.76-.78-.65-.66-1.28-1.34-1.91-2.03-.28-.3-.55-.6-.83-.88-.66-.73-1.33-1.44-1.98-2.18-1-1.1-1.98-2.19-2.97-3.27-.28-.32-.56-.61-.85-.91-4.15-4.52-8.55-8.93-14.16-12.82-.05-.18,0-.43.1-.73.02-.08.05-.15.08-.25h0c.05-.13.13-.3.22-.46.05-.12.1-.23.17-.37h0c.03-.07.08-.13.12-.22.12-.2.23-.42.38-.63h0s.08-.15.13-.23h0s.07-.08.08-.13c.43-.66.95-1.39,1.56-2.23h0c.25-.33.51-.68.78-1.03h0c.35-.43.7-.9,1.08-1.38.05-.07.1-.12.15-.18h0s.08-.1.13-.15c0-.02.03-.03.05-.05.33-.42.68-.83,1.05-1.26l.02-.02c.76-.93,1.61-1.91,2.49-2.94.18-.2.35-.4.51-.6,0-.02.03-.03.05-.05.05-.05.1-.12.15-.17.02-.03.05-.05.07-.07.35-.4.71-.81,1.08-1.23,2.41-2.76,5.15-5.76,8.09-8.98h0l.03-.03c9.7-10.53,21.72-23.01,32.36-34.09,1.46-1.53,2.91-3.02,4.32-4.48.32-.32.61-.63.91-.96,2.34-2.44,4.6-4.78,6.68-6.97,0,0,.03-.03.03-.05l.02-.02c.6-.63,1.2-1.25,1.78-1.86.07-.07.15-.15.22-.22.6-.61,1.16-1.23,1.73-1.83.03-.03.05-.07.08-.08.03-.05.08-.08.12-.13.27-.28.53-.56.8-.83.1-.12.22-.22.32-.33.07-.08.15-.15.22-.23.18-.2.37-.4.55-.58.23-.25.45-.48.66-.71h0c.2-.2.38-.42.56-.61.08-.08.17-.17.23-.27.13-.13.25-.28.38-.42.17-.18.35-.38.51-.56.25-.28.5-.55.75-.81.2-.22.4-.43.58-.65.23-.25.45-.5.66-.75.13-.15.25-.28.38-.43.17-.2.35-.38.51-.56.12-.13.23-.25.33-.38.08-.08.15-.17.22-.25.08-.1.17-.18.25-.28.12-.13.22-.25.33-.38.15-.17.28-.33.42-.48.08-.1.17-.2.25-.28.2-.25.4-.48.56-.7,23.89-29.71,41.11-69.89,72.6-90.53,18.2-11.94,34.89-13.05,54.5-24.03,8.57-4.8,16.7-10.05,24.43-15.69,1.2-.88,2.37-1.76,3.55-2.66,9.25-7.01,17.9-14.58,25.97-22.67,5.63-5.65,10.96-11.54,16.04-17.63,2.36-2.84,4.65-5.71,6.91-8.63.96-1.26,1.93-2.52,2.87-3.8,1.78-2.41,3.54-4.83,5.25-7.29,2.54-3.65,5-7.36,7.39-11.11,19.39-30.57,33.77-64.74,44.32-100.06,9.25-30.93.27-63.78,44.33-63.71,46.93.07,76.07,43.99,86.54,83.89h0c.63,2.37,1.21,4.75,1.74,7.12.18.76.33,1.53.5,2.29.35,1.59.7,3.2,1.01,4.8.18.91.35,1.83.51,2.74.27,1.44.53,2.89.78,4.32.17.98.3,1.94.45,2.92.22,1.38.42,2.76.6,4.13.13,1,.25,1.99.38,2.99.17,1.34.32,2.69.46,4.03.1,1,.2,2.01.3,3.01.12,1.34.23,2.67.33,4.02.07,1,.15,1.99.2,2.97.08,1.34.15,2.69.2,4.02.03.98.08,1.94.12,2.92.03,1.38.07,2.74.08,4.1,0,.93.03,1.86.03,2.81,0,1.44-.03,2.87-.05,4.3,0,.85-.02,1.71-.05,2.56-.05,1.66-.13,3.3-.22,4.96-.03.61-.05,1.25-.08,1.86-.13,2.27-.3,4.53-.5,6.79-.03.42-.08.83-.13,1.25-.17,1.84-.37,3.67-.58,5.51-.1.8-.2,1.58-.3,2.36-.18,1.46-.38,2.91-.58,4.35-.13.9-.28,1.78-.42,2.67-.22,1.34-.43,2.67-.66,4-.17.93-.35,1.86-.51,2.79-.25,1.3-.48,2.57-.75,3.85-.2.95-.4,1.89-.6,2.84-.27,1.26-.55,2.52-.85,3.79-.22.95-.45,1.89-.68,2.84-.3,1.26-.63,2.51-.95,3.77-.25.93-.48,1.86-.73,2.81-.35,1.26-.7,2.52-1.06,3.79-.27.91-.51,1.83-.8,2.72-.38,1.3-.8,2.59-1.2,3.89-.27.86-.53,1.73-.81,2.57-.45,1.39-.93,2.77-1.41,4.15-.27.75-.51,1.51-.78,2.26-.61,1.73-1.25,3.45-1.89,5.18-.15.4-.28.78-.43,1.18-.81,2.11-1.64,4.22-2.49,6.33-.23.58-.48,1.15-.73,1.73-.63,1.53-1.26,3.04-1.93,4.55-.33.78-.68,1.54-1.03,2.32-.58,1.31-1.16,2.61-1.76,3.92-.38.85-.78,1.68-1.18,2.52-.58,1.23-1.16,2.44-1.74,3.65-.42.86-.86,1.74-1.28,2.61-.58,1.18-1.18,2.36-1.79,3.54-.45.88-.9,1.74-1.36,2.62-.61,1.16-1.23,2.32-1.84,3.47-.46.88-.95,1.74-1.43,2.62-.63,1.16-1.28,2.31-1.93,3.45-.48.86-.96,1.71-1.46,2.56-.68,1.18-1.36,2.34-2.04,3.5-.48.81-.96,1.64-1.46,2.46-.73,1.21-1.48,2.42-2.22,3.64-.46.75-.93,1.51-1.39,2.26-.85,1.34-1.69,2.67-2.56,4-.4.61-.78,1.23-1.18,1.84-5.66,8.67-11.69,17.14-18.05,25.42-.17.22-.33.45-.5.66-2.27,2.94-4.58,5.86-6.92,8.77-.23.3-.48.6-.71.88-2.34,2.87-4.72,5.73-7.12,8.55-.22.25-.43.5-.65.75-2.47,2.89-4.98,5.76-7.54,8.6-.05.07-.12.13-.17.18-5.23,5.81-10.58,11.51-16.06,17.07-.22.22-.43.45-.65.66-2.59,2.62-5.2,5.21-7.82,7.77l-.02-.08Z"/>
    <g>
      <path class="cls-2" d="M1552.06,966.45c-1.01-18.75-6.19-37.99-16.44-57-11.34-21.04-29.77-40.57-51.56-55.51-29.11-19.98-64.21-31.77-96.47-27.96-50.36,5.94-90.66,35.48-113.33,74.52-.7,1.2-1.36,2.39-2.03,3.6-2.89,5.3-5.45,10.76-7.67,16.36-1.39,3.5-2.66,7.07-3.79,10.68-.25.81-.5,1.63-.75,2.44-12.32,41.91-6.06,89.27,25.79,129.17,39.24,49.18,88.87,64.26,134.63,57.2.32-.05.63-.1.95-.15,1.96-.32,3.9-.66,5.83-1.06,1.06-.22,2.11-.45,3.17-.68,2.11-.48,4.2-1,6.28-1.58,4.17-1.13,8.29-2.46,12.34-3.94,3.04-1.11,6.04-2.32,9.02-3.64,1-.43,1.98-.88,2.96-1.33,11.77-5.46,22.9-12.37,33.06-20.46,36.43-29.01,60.57-73.24,58-120.67h.02ZM1416.92,984.34c-7.46,4.12-14.48,6.74-21.01,8.1-1.1.23-2.16.42-3.22.58-2.13.32-4.18.5-6.21.55-1.01.03-1.99.02-2.97-.02-15.64-.6-27.63-9.03-35.09-20.77-.93-1.46-1.79-2.99-2.59-4.55-1.18-2.34-2.21-4.78-3.06-7.29-.56-1.66-1.06-3.37-1.48-5.08-.42-1.73-.76-3.45-1.01-5.21-.27-1.74-.45-3.52-.55-5.28-.1-1.76-.13-3.54-.07-5.3.28-8.57,2.51-16.99,6.86-24.23.22-.35.42-.7.63-1.03,6.92-10.84,18.76-18.86,36.25-20.44,49.12-4.43,85.05,61.47,33.49,89.98l.02-.02Z"/>
      <path class="cls-2" d="M1965.67,1081.44c130.25,124.07,327.38-60.33,218.05-196.05-12.12-15.06-25.06-26.95-38.44-36.05-1.2-.81-2.37-1.59-3.57-2.36-1.96-1.25-3.92-2.44-5.88-3.57-6.33-3.64-12.74-6.69-19.18-9.18-2.06-.8-4.12-1.53-6.18-2.21-1.66-.55-3.34-1.06-5-1.54-5.18-1.48-10.38-2.64-15.56-3.45-3.62-.56-7.26-.98-10.88-1.23-2.41-.17-4.82-.28-7.22-.32s-4.8,0-7.19.08c-5.98.23-11.91.86-17.77,1.88-4.68.81-9.33,1.86-13.9,3.14-57.22,15.94-104.81,67.17-114.06,125.93-.37,2.36-.68,4.72-.93,7.09-.5,4.75-.73,9.53-.7,14.35.03,6.01.48,12.07,1.39,18.15.4,2.71.9,5.4,1.48,8.1.4,1.86.83,3.7,1.33,5.56.55,2.09,1.15,4.17,1.79,6.24,2.11,6.72,4.8,13.43,8.14,20.08,1.31,2.62,2.72,5.23,4.23,7.84,1.08,1.86,2.21,3.7,3.39,5.55,4.47,6.99,9.68,13.88,15.67,20.62,1.46,1.64,2.94,3.27,4.48,4.88,2.08,2.18,4.23,4.33,6.49,6.48h-.02ZM2008.1,921.3c5.18-12.6,16.51-22.96,35.58-26.9,4.91-1.01,9.68-1.34,14.21-1.11,1.54.08,3.07.23,4.55.45,3.67.51,7.17,1.43,10.49,2.67,1.33.5,2.62,1.05,3.89,1.64,1.51.71,2.96,1.51,4.37,2.36,1.98,1.2,3.85,2.52,5.63,3.95.68.55,1.35,1.11,2.01,1.71,21.14,19.06,24.92,54.85-5.81,76.03-46.46,32.01-83.56-13.68-77.74-50.64.18-1.13.4-2.24.66-3.35.55-2.32,1.25-4.6,2.16-6.81h0Z"/>
    </g>
    <path class="cls-2" d="M1733.32,1085.61c-1.34-.08-2.67-.23-3.97-.43-.28-.05-.55-.08-.81-.13-1.01-.18-2.01-.38-2.97-.63-.42-.1-.81-.22-1.21-.32-3.12-.88-6.06-2.08-8.87-3.55-.6-.32-1.18-.63-1.76-.98-1.16-.68-2.31-1.39-3.42-2.14-15.61-10.59-26.73-28.93-39.52-40.23-10.96-9.7-23.11-14.25-40.35-4.33-14.79,8.5-20.41,20.32-20.31,33.21.02,3.4.45,6.87,1.21,10.38.12.51.23,1.01.35,1.53,5.61,23.25,25.36,47.66,40.7,61.16,38.99,34.29,78.62,42.14,121.45,25.06,3.17-1.26,6.36-2.67,9.56-4.2,4.82-2.31,9.66-4.93,14.56-7.84,8.35-4.98,17.77-12.17,26.65-20.74,18.23-17.6,34.16-41.03,33.69-63.03-.22-10.01-3.82-19.73-12.15-28.46-46.83-49.07-62,48.8-112.83,45.71v-.02Z"/>
    <g>
      <path class="cls-2" d="M1417.78,646.73c96.64-15.67,78.41-174.28-34.37-151.24-86.61,17.7-63.56,167.11,34.37,151.24h0Z"/>
      <path class="cls-2" d="M1568.87,354.4c-113.74,9.83-71.95,184.58,35.78,136.91,71.95-31.83,37.91-143.27-35.78-136.91h0Z"/>
      <path class="cls-2" d="M1674.39,637.61c58.28-25.07,29.39-113.23-37.41-97.84-56.94,13.12-39.04,130.73,37.41,97.84h0Z"/>
      <path class="cls-2" d="M1761.25,397.69c60.36,8.53,50.11-95.56-7.42-83.72-42.36,8.72-40.68,76.91,7.42,83.72h0Z"/>
    </g>
    <g>
      <path class="cls-3" d="M1383.41,894.35c-17.48,1.58-29.32,9.6-36.25,20.44-.22.35-.43.68-.63,1.03-4.35,7.24-6.58,15.66-6.86,24.23-.07,1.76-.03,3.52.07,5.3.1,1.76.28,3.52.55,5.28.27,1.74.6,3.49,1.01,5.21.42,1.71.91,3.42,1.48,5.08.85,2.51,1.88,4.95,3.06,7.29.8,1.56,1.64,3.07,2.59,4.55,7.46,11.74,19.44,20.17,35.09,20.77.98.03,1.98.05,2.97.02,2.01-.05,4.08-.23,6.21-.55,1.06-.15,2.14-.35,3.22-.58,6.53-1.36,13.55-3.97,21.01-8.1,51.56-28.51,15.61-94.42-33.49-89.98l-.02.02Z"/>
      <path class="cls-3" d="M2083.04,982.11c30.74-21.19,26.95-56.95,5.81-76.03-.65-.58-1.33-1.15-2.01-1.71-1.78-1.44-3.65-2.76-5.63-3.95-1.41-.85-2.86-1.64-4.37-2.36-1.26-.6-2.56-1.15-3.89-1.64-3.32-1.25-6.82-2.14-10.49-2.67-1.49-.22-3.01-.37-4.55-.45-4.53-.23-9.3.1-14.21,1.11-19.08,3.92-30.4,14.28-35.58,26.9-.91,2.21-1.61,4.48-2.16,6.81-.27,1.11-.48,2.23-.66,3.35-5.81,36.98,31.28,82.66,77.74,50.64h0Z"/>
    </g>
  </g>
</svg>