<?xml version="1.0" encoding="UTF-8"?>
<svg id="Delphi" xmlns="http://www.w3.org/2000/svg" viewBox="0 0 1180 800">
  <defs>
    <style>
      .cls-1 {
        fill: #fff;
      }

      .cls-2 {
        fill: #f4901e;
      }

      .cls-3 {
        fill: #d1e0f6;
      }

      .cls-4 {
        fill: #1fa95d;
      }

      .cls-5 {
        fill: #182d33;
      }

      .cls-6 {
        fill: #efefef;
      }

      .cls-7 {
        fill: #0b90df;
      }

      .cls-8 {
        fill: #e3e3e3;
      }
    </style>
  </defs>
  <g>
    <path class="cls-4" d="m144.78,674.65s3.52-3.52,5.09-35.22c1.57-31.7-2.74-47.35-2.74-47.35,0,0,11.35,9,27.39,11.74s29.35-3.91,29.35-3.91c0,0-.39,53.61,3.13,72.78"/>
    <path class="cls-5" d="m144.78,684.65c-2.56,0-5.12-.98-7.07-2.93-3.34-3.34-3.82-8.46-1.44-12.32.48-1.34,2.52-8.22,3.61-30.46,1.45-29.29-2.37-44.1-2.41-44.25-1.1-4.17.58-8.59,4.19-10.95,3.6-2.36,8.31-2.17,11.68.51.06.05,9.72,7.47,22.86,9.72,12.42,2.12,23.14-2.98,23.25-3.03,3.11-1.56,6.78-1.37,9.73.47s4.71,5.09,4.68,8.57c0,.53-.34,52.88,2.97,70.9,1,5.43-2.6,10.64-8.03,11.64-5.43,1-10.64-2.6-11.64-8.03-2.55-13.86-3.15-43.61-3.28-61.11-5.91,1.11-13.2,1.63-21.05.29-4.79-.82-9.22-2.12-13.16-3.6.55,7.77.78,17.72.18,29.84-1.76,35.55-5.98,39.77-8,41.8-1.95,1.95-4.51,2.93-7.07,2.93Zm-7.1-17.04s0,0,0,0c0,0,0,0,0,0Zm.01-.01s0,0,0,0c0,0,0,0,0,0Zm.01-.01s0,0,0,.01c0,0,0,0,0-.01Z"/>
  </g>
  <path class="cls-5" d="m176.29,673.37c-.15,0-.3,0-.45-.03-2.2-.25-3.77-2.23-3.52-4.42,3.43-30.31.23-59.66.19-59.95-.25-2.2,1.33-4.17,3.53-4.42,2.2-.25,4.17,1.33,4.42,3.53.14,1.23,3.34,30.54-.2,61.74-.23,2.04-1.96,3.55-3.97,3.55Z"/>
  <g>
    <path class="cls-7" d="m729.09,459.09s54.78,7.83,94.3-33.26c4.21-4.38,10.96-13.3,13.3-28.96,3.15-21.03,13.11-35.41,39.52-28.83,38.99,9.72,47.11,67.4,11.48,118.7-40.96,58.96-133.04,78.78-224.87,36.52"/>
    <path class="cls-3" d="m900.74,406.91s-14.09,62.61-70.43,85.57c-56.35,22.96-153.91-11.48-153.91-11.48,0,0-2.09,42.26,8.87,54.78,10.96,12.52,173.74,30.78,208.7-68.35"/>
    <path class="cls-5" d="m730.85,446.71c31.51-.74,59.86-7.3,82.39-30.71,3.76-4.01,6.23-8.69,7.91-14.3,1.69-5.74,1.94-11.55,3.76-17.51,2.29-8.05,6.11-16.03,12.75-22.15,10.69-10.25,27.02-11.56,40.63-8.16,6.86,1.56,13.45,4.34,19.31,8.28,11.52,7.76,19.6,20.13,23.5,33.03,11.26,38.61-4.83,80.36-29.56,109.98-50.33,58.99-138.52,65.86-208.02,41.39-6.01-2.09-11.92-4.46-17.62-7.28-2.82-1.47-5.6-3-8.3-4.68-5.91-3.67-7.72-11.43-4.05-17.34,2.99-4.81,8.7-6.91,13.9-5.53,3.02.79,5.97,1.74,8.86,2.76,2.05.68,6.11,2.01,8.13,2.77,16.02,5.74,32.59,10.42,49.45,12.58,35.63,4.82,73.51.45,104.89-17.66,16.34-9.31,30.41-22.55,40.33-38.54,11.64-18.67,19.38-41.45,16.16-63.13-1.24-8-4.59-16.44-10.33-21.95-2.53-2.32-5.35-4.27-8.6-5.49-3.69-1.5-8.5-2.39-12.25-2.38-2.66.03-5.22.48-7.16,2.28-3.96,3.93-5.25,10.37-6.23,16.09-2.22,14.93-8.78,29.23-20.26,39.65-17.02,16.6-39.45,27.66-62.58,32.2-13.34,2.62-27.16,3.3-40.54.55-3.61-.67-5.69-4.74-4.14-8.05,0,0,7.68-16.69,7.68-16.69h0Z"/>
  </g>
  <g>
    <g>
      <path class="cls-7" d="m422.22,438.04s-73.18,3.38-110.61-54.78c-33.91-52.7-23.54-89.1-13.04-136.7,23.48-106.43,126,10.96,149.48,81.39"/>
      <path class="cls-5" d="m419.74,452.09c-15.46,0-82.71-3.44-119.91-61.25-35.48-55.13-26.64-94.77-16.41-140.67.49-2.18.98-4.39,1.47-6.62,9.44-42.79,31.02-52.79,47.46-53.66,28.92-1.5,58.04,24.72,77.37,46.99,22.74,26.2,42.51,59.4,51.6,86.64,2.44,7.33-1.52,15.26-8.85,17.71-7.34,2.45-15.26-1.52-17.71-8.85-7.87-23.62-26-53.9-46.18-77.14-20.62-23.75-41.59-38.04-54.76-37.39-12.2.64-18.47,17.61-21.58,31.73-.5,2.25-.99,4.47-1.48,6.68-9.59,43.03-16.52,74.13,12.63,119.43,32.47,50.45,97.58,48.4,98.23,48.37,7.73-.36,14.24,5.67,14.58,13.38.33,7.71-5.61,14.24-13.32,14.59-.33.01-1.41.06-3.12.06Z"/>
    </g>
    <path class="cls-3" d="m369,323.78s-20.35,21.39-25.04,28.7c-4.7,7.3,27.39,58.83,54.39,69.39"/>
  </g>
  <g>
    <path class="cls-7" d="m453.95,453.5s-28.01,37.64-81.66,43.92c-53.65,6.29-81.65-16.42-96.2,13.67-13.06,27.01,43.08,81.92,137.14,70.55,94.05-11.37,128.66-77.21,128.66-77.21"/>
    <path class="cls-3" d="m294.02,538.23s48.78,23.63,114.04,15.35c65.26-8.28,87.76-43.08,87.76-43.08,0,0,12.98,4.43,15.89,19.14s-39.2,47.07-111.15,50.82c-71.96,3.74-81.74-17.35-81.74-17.35"/>
    <path class="cls-5" d="m388.39,597.16c-57,0-99.41-23.17-117.88-49.02-10.57-14.79-13.13-30.51-7.02-43.14,13.28-27.48,36.69-24.91,59.33-22.43,13.54,1.49,28.9,3.17,47.85.95,46.6-5.46,71.84-38.1,72.09-38.43,4.62-6.2,13.37-7.46,19.57-2.85,6.2,4.62,7.47,13.41,2.85,19.62-1.29,1.73-32.29,42.56-91.26,49.47-22.11,2.59-39.88.64-54.16-.93-23.67-2.6-26.87-1.9-31.07,6.78-1.1,2.27-.55,7.48,4.59,14.68,15.9,22.25,59.68,42.96,118.26,35.88,85.77-10.37,117.64-69.23,117.95-69.82,3.6-6.84,12.06-9.47,18.91-5.88,6.84,3.6,9.48,12.06,5.88,18.91-1.55,2.95-39.18,72.48-139.37,84.59-9.14,1.11-18,1.62-26.52,1.62Z"/>
  </g>
  <circle class="cls-5" cx="237.3" cy="447.89" r="7.27"/>
  <circle class="cls-5" cx="236.51" cy="611.26" r="7.27"/>
  <circle class="cls-5" cx="254.9" cy="624.17" r="7.27"/>
  <circle class="cls-5" cx="245.12" cy="425.19" r="7.27"/>
  <circle class="cls-7" cx="600.04" cy="326.17" r="216.39"/>
  <g>
    <circle class="cls-5" cx="467.78" cy="337.39" r="44.61"/>
    <circle class="cls-1" cx="459.02" cy="321.57" r="15.46"/>
  </g>
  <g>
    <path class="cls-5" d="m625.26,337.39c0-24.64,19.97-44.61,44.61-44.61s44.61,19.97,44.61,44.61-19.97,44.61-44.61,44.61c-24.64,0-44.61-19.97-44.61-44.61Z"/>
    <circle class="cls-1" cx="661.11" cy="321.57" r="15.46"/>
  </g>
  <path class="cls-3" d="m779.26,323.89c0,57.45-20.36,109.94-53.98,150.07h37.51c36.18-38.68,58.34-90.65,58.34-147.79,0-105.49-75.48-193.35-175.38-212.51,78.48,34.74,133.51,115.79,133.51,210.23Z"/>
  <path class="cls-5" d="m600.04,557.57c-61.81,0-119.91-24.07-163.62-67.77-43.7-43.7-67.77-101.81-67.77-163.62s24.07-119.91,67.77-163.62c43.7-43.7,101.81-67.77,163.62-67.77s119.91,24.07,163.62,67.77c43.7,43.7,67.77,101.81,67.77,163.62s-24.07,119.91-67.77,163.62c-43.7,43.7-101.81,67.77-163.62,67.77Zm0-432.78c-111.05,0-201.39,90.34-201.39,201.39s90.34,201.39,201.39,201.39,201.39-90.34,201.39-201.39-90.34-201.39-201.39-201.39Z"/>
  <g>
    <circle class="cls-5" cx="469.61" cy="219.35" r="23.61"/>
    <circle class="cls-5" cx="520.22" cy="176.04" r="21.78"/>
    <circle class="cls-5" cx="545.33" cy="225.67" r="15.91"/>
    <circle class="cls-5" cx="577.87" cy="154.52" r="13.17"/>
  </g>
  <path class="cls-5" d="m553.49,360.56c4.48,9.14,16.28,12.35,24.73,7.12,2.81-1.7,5.2-4.4,6.89-7.74,3.01-5.6,9.99-7.69,15.59-4.68,5,2.69,7.2,8.56,5.46,13.77-2.5,7.49-7.59,14.43-14.18,19-13.32,9.51-32.36,9.5-45.68,0-6.59-4.57-11.68-11.51-14.19-19-4.13-13.93,14.91-21.35,21.38-8.47h0Z"/>
  <g>
    <path class="cls-7" d="m709.7,495.09s8.2,47.27,48.48,63.51c26.15,10.54,53.72-13.45,70.12,6.84,14.9,18.45-3.82,82.19-80.51,77.85-82.24-4.66-132.6-95.44-125.51-118.67"/>
    <path class="cls-3" d="m814.32,607.92s-42.66,15.44-97.34-10.91-65.81-87.69-78.91-85.35c-13.1,2.34-12.13,92.59,76.81,122.36,88.94,29.77,107.5-22.85,107.5-22.85"/>
    <path class="cls-5" d="m722.01,492.95c0-.08.03,0,.05.03.02.03.05.09.07.13.16.35.29.64.43,1,0,0,.6,1.45.6,1.45l1.22,2.99c2.42,5.85,4.95,12.31,7.97,17.78,7.24,13.25,17.71,24.02,31.68,29.39,8.81,3.11,17.83.89,27.55-.81,8.09-1.53,18.78-3.36,28.13-1.01,7.57,1.69,14.86,6.46,19.7,12.6,14.96,19.67,6.62,49.02-6.76,66.75-19.9,26.83-53.83,36.51-85.79,34.33-58.38-3.56-108.23-46.62-131.83-98.47-3.43-8.03-6.22-16.82-6.49-26.06-.03-4.05.26-7.89,1.8-12.07,2.01-6.6,9-10.32,15.6-8.31,6.6,2.01,10.32,9,8.31,15.6.17.02.24.35.31.82.4,2.29.88,4.51,1.68,7.08,15.96,47.91,63.71,92.03,115.6,92.97,25.41,1.02,52.98-8.44,63.61-33.05,2.65-6.32,4.93-15.52,1.78-21.62-2.03-2.71-4.5-3.29-8.08-3.25-8.65.27-18.69,3.29-28.52,4.04-8.53.88-19.13.05-27.67-3.53-19.55-7.68-35.63-23.87-45.23-41.98-5.25-9.71-9.31-20.09-10.24-31.15,0,0-.1-1.36-.1-1.36-1.18-6.8,3.38-13.27,10.18-14.45,6.8-1.18,13.27,3.38,14.45,10.18h0Z"/>
  </g>
  <g>
    <path class="cls-7" d="m725.85,620.89c-18.33-24.07-50.11,10.86-80.02-30.33-7.9-10.87-12.68-22.35-15.49-33.14.06-1.38.1-2.77.1-4.16,0-9.02-1.34-17.66-3.8-25.65,0-2.33.08-24.47.19-26.43h-116.96c.11,1.96.19,24.11.19,26.43-2.46,8-3.8,16.64-3.8,25.65,0,1.4.04,2.78.1,4.16-2.82,10.79-7.6,22.27-15.49,33.14-29.92,41.19-61.7,6.26-80.02,30.33-16.54,21.72.68,73.86,70.63,69.85,53.18-3.05,73.61-35.3,81.02-63.47,1.93.22,3.88.34,5.85.34s3.92-.12,5.85-.34c7.4,28.17,27.84,60.42,81.02,63.47,69.95,4.01,87.17-48.12,70.63-69.85Z"/>
    <path class="cls-3" d="m420.83,669.22s43.43,1.57,81.78-18.78c38.35-20.35,53.22-46.57,53.22-46.57,0,0,.39,42.65-29.35,70.43s-90,11.74-90,11.74"/>
    <path class="cls-5" d="m520.71,506.58c2.53,4.87,3.11,10.33,3.29,15.69.21,5.13.18,10.25-.19,15.37-1.81,26.14-11.4,52.34-29.98,71.43-8.1,8.41-20,15-31.76,16.7-10.09,1.73-20.75.25-29.73.13-3.62,0-5.86.5-7.05,1.13-.63.37-1.21.65-1.85,1.37-2.44,2.5-3.52,5.45-3.88,9.41-.81,13.09,7.89,24.64,19.4,30.94,19.42,10.66,47.99,9.62,68.57,2.6.91-.34,3.14-1.26,4.01-1.58.81-.38,3.02-1.43,3.86-1.82.84-.44,2.89-1.62,3.7-2.04.75-.47,2.75-1.79,3.53-2.27,14.34-9.86,23.13-25.87,26.96-42.67,2.18-8.21,1.96-16.91,4.59-25.05,4.07-12.35,21.63-11.55,24.71.91,2.29,10.15.11,20.48-1.97,30.5-2.34,10.2-5.96,20.15-11.11,29.38-9.11,16.67-23.78,30.39-41.11,38.24-24.82,11.39-58.35,13.56-84.43,5.48-28.23-8.37-51.92-33.85-49.49-65.02,1.9-22.63,18.25-38.96,41.46-38.32,9.39-.01,17.14,1.5,25.28.29,10.3-1.77,16.55-7.76,23.15-17.13,4.46-6.46,7.92-13.55,10.38-21.04,3.76-11.32,5.31-23.73,4.85-35.75-.14-3.74-.69-7.49.12-11.17.03-.11.05-.24.09-.33.04-.07.06-.24.13-.19-2.81-16.29,20.32-21.33,24.45-5.19h0Z"/>
    <path class="cls-3" d="m715.87,669.22s-43.43,1.57-81.78-18.78c-38.35-20.35-53.22-46.57-53.22-46.57,0,0-.39,42.65,29.35,70.43,29.74,27.78,90,11.74,90,11.74"/>
    <path class="cls-5" d="m640.44,511.77c.08-.06.09.11.13.19.04.09.07.22.09.33.81,3.68.26,7.43.12,11.17-.14,4.05-.09,8.13.22,12.17,1.2,15.95,5.94,31.48,15.01,44.62,4.4,6.48,9.41,11.55,14.66,14.32,10.65,5.55,21.37,2.41,33.78,2.52,6.4,0,13.49.92,19.75,4.09,25.67,13.1,26.98,47.78,12.78,69.32-18.2,29.03-55.14,37.34-87.08,34.12-39.83-3.34-71.52-24.15-85.69-62.35-4.31-12.16-7.32-24.88-7.37-37.77.07-2.56.34-5.13.96-7.68,1.67-6.89,8.61-11.13,15.5-9.46,7.8,1.95,9.81,8.65,10.88,15.56.92,6.02,1.44,12.16,2.92,18.05,4.01,17.68,13.63,34.59,29.31,44.18,1.29.9,3.5,2.01,4.88,2.8,1.47.66,3.69,1.8,5.2,2.34,27.68,11.07,79.51,10.5,89.78-23.76,1.79-6.79,1.41-15.75-4.86-19.5-1.19-.63-3.43-1.13-7.05-1.13-9,.12-19.63,1.6-29.73-.13-11.76-1.7-23.65-8.29-31.76-16.7-18.59-19.09-28.17-45.3-29.98-71.43-.37-5.12-.4-10.24-.19-15.37.18-5.36.76-10.83,3.29-15.69,4.06-16.04,27.24-11.21,24.45,5.19h0Z"/>
  </g>
  <g>
    <rect class="cls-6" x="293.09" y="152.58" width="180.78" height="126.14" transform="translate(-53.91 168.16) rotate(-23.15)"/>
    <path class="cls-5" d="m325.17,320.19c-1.39,0-2.78-.26-4.09-.79-2.71-1.09-4.87-3.2-6.02-5.88l-49.6-115.98c-2.39-5.59.2-12.05,5.79-14.44l166.22-71.08c2.68-1.15,5.71-1.18,8.42-.1s4.87,3.2,6.02,5.88l49.6,115.98c2.39,5.59-.2,12.05-5.79,14.44l-166.22,71.08c-1.38.59-2.85.89-4.33.89Zm-35.16-121.19l40.95,95.75,145.99-62.43-40.95-95.75-145.99,62.43Z"/>
    <path class="cls-5" d="m381.64,223.41c-.65,0-1.31-.06-1.97-.18l-106.06-19.21c-5.98-1.08-9.95-6.81-8.86-12.78,1.08-5.98,6.81-9.95,12.78-8.86l106.06,19.21c5.98,1.08,9.95,6.81,8.86,12.78-.96,5.32-5.59,9.04-10.81,9.04Z"/>
    <path class="cls-5" d="m382.23,223.15c-2.08,0-4.18-.59-6.05-1.82-5.07-3.35-6.47-10.17-3.12-15.24l59.37-89.95c3.35-5.07,10.17-6.47,15.24-3.12,5.07,3.35,6.47,10.17,3.12,15.24l-59.37,89.95c-2.12,3.2-5.62,4.94-9.19,4.94Z"/>
  </g>
  <path class="cls-7" d="m303.65,319.09s-16.57-81.91,24.13-81.91,37.04,99.13,13.57,111.13"/>
  <path class="cls-5" d="m341.36,362.31c-5.09,0-10-2.79-12.48-7.63-3.5-6.86-.81-15.25,6.01-18.8,1.93-1.36,6.55-9.22,8.77-25.19,2.12-15.2,1.19-31.41-2.48-43.38-2.26-7.36-6.42-16.14-13.4-16.14-3.96,0-7.05,1.35-10.03,4.36-11.66,11.83-15.61,43.61-15.37,60.85.11,7.73-6.06,14.09-13.78,14.21-.07,0-.15,0-.22,0-7.63,0-13.87-6.11-13.99-13.76-.09-5.75-.24-56.9,23.39-80.92,8.2-8.34,18.58-12.74,30-12.74,20.15,0,35.34,15.13,41.7,41.52,7.43,30.84,2.64,83.6-21.76,96.08-2.04,1.04-4.22,1.54-6.36,1.54Zm-6.5-26.41h0Zm.11-.06s0,0,0,0c0,0,0,0,0,0Z"/>
  <g>
    <path class="cls-8" d="m270.93,522.21l-91.48,50.51s26.98,25.6,67.39,2.84c36.67-20.64,24.08-53.36,24.08-53.36Z"/>
    <path class="cls-5" d="m213.73,597.6c-25.8,0-41.93-14.9-42.88-15.8-2.89-2.74-4.3-6.7-3.8-10.66.51-3.95,2.87-7.43,6.36-9.36l91.48-50.51c3.16-1.75,6.93-2.04,10.32-.8,3.4,1.24,6.09,3.88,7.39,7.26,5.69,14.8,6.83,48.22-29.62,68.74-14.64,8.25-27.88,11.13-39.25,11.13Zm-6.9-25.71c8.79,1.42,20.31.43,33.88-7.21,12-6.76,17.04-14.9,18.91-21.94l-52.79,29.15Z"/>
  </g>
  <g>
    <path class="cls-8" d="m272,527.12l-104.22-7.59s13.79-34.54,60.01-30.79c41.94,3.4,44.21,38.38,44.21,38.38Z"/>
    <path class="cls-5" d="m272,539.62c-.3,0-.6-.01-.91-.03l-104.22-7.59c-3.98-.29-7.57-2.46-9.69-5.84-2.11-3.38-2.49-7.56-1.01-11.27.7-1.76,17.84-43.07,72.63-38.62,41.69,3.38,54.65,34.2,55.67,50.03.23,3.61-1.11,7.14-3.67,9.68-2.35,2.33-5.52,3.63-8.8,3.63Zm-12.46-11.55h0,0Zm-66.54-19.23l60.14,4.38c-4.64-5.61-12.63-10.9-26.36-12.01-15.51-1.25-26.4,2.67-33.78,7.63Z"/>
  </g>
  <g>
    <ellipse class="cls-2" cx="297.89" cy="539.53" rx="21.74" ry="23.98" transform="translate(-263.74 793.32) rotate(-85.41)"/>
    <path class="cls-5" d="m298.32,573.79c-1.05,0-2.1-.04-3.16-.13-9.48-.76-18.19-4.88-24.5-11.6-6.63-7.06-9.87-16.09-9.12-25.44,1.51-18.82,19.06-32.81,39.1-31.21,20.05,1.61,35.14,18.23,33.63,37.05h0c-.75,9.35-5.39,17.75-13.06,23.67-6.49,5-14.52,7.67-22.88,7.67Zm-.78-43.51c-5.75,0-10.71,3.64-11.09,8.34-.24,3,1.41,5.25,2.42,6.32,2.06,2.19,5,3.54,8.28,3.8,3.28.27,6.41-.6,8.78-2.43,1.17-.9,3.16-2.85,3.4-5.86.4-4.99-4.5-9.63-10.71-10.13-.37-.03-.73-.04-1.09-.04Zm24.26,11.17h0,0Z"/>
  </g>
  <g>
    <ellipse class="cls-2" cx="287.72" cy="496.1" rx="23.98" ry="21.74" transform="translate(-194.15 185.14) rotate(-27.05)"/>
    <path class="cls-5" d="m285.93,530.81c-12.77,0-24.8-6.56-30.7-18.12-4.27-8.35-4.73-17.94-1.29-27,3.27-8.62,9.74-15.76,18.21-20.09,17.91-9.15,39.47-2.91,48.06,13.9,4.27,8.35,4.73,17.94,1.29,27-3.27,8.62-9.74,15.76-18.21,20.09-5.6,2.86-11.56,4.22-17.36,4.22Zm3.62-44.41c-1.98,0-4.07.47-6.03,1.47-2.93,1.5-5.14,3.87-6.2,6.68-.52,1.38-1.19,4.08.18,6.77,2.28,4.46,8.88,5.84,14.43,3.01,2.94-1.5,5.14-3.87,6.2-6.68.52-1.38,1.19-4.09-.18-6.77-1.47-2.89-4.76-4.48-8.4-4.48Z"/>
  </g>
  <path class="cls-5" d="m212.83,347.48c-.44,0-.89-.07-1.33-.23-2.08-.73-3.18-3.02-2.44-5.1,19.04-53.94,47.44-71.78,48.64-72.52,1.89-1.15,4.35-.56,5.5,1.33,1.15,1.88.56,4.34-1.32,5.49-.29.18-27.28,17.37-45.28,68.36-.58,1.64-2.12,2.67-3.77,2.67Z"/>
  <path class="cls-5" d="m209.95,316.7c-.63,0-1.26-.15-1.86-.46-1.96-1.03-2.71-3.44-1.68-5.4,28.06-53.47,55.91-63.85,57.08-64.26,2.08-.74,4.37.35,5.11,2.43.74,2.08-.34,4.35-2.41,5.1-.36.14-26.35,10.24-52.69,60.45-.72,1.36-2.11,2.14-3.55,2.14Z"/>
  <g>
    <path class="cls-4" d="m154.57,475.61s8.35-11.48,23.48-20.35,19.3-10.43,19.3-10.43c0,0-68.35-33.39-66.78-65.74,1.57-32.35,30.78-53.22,33.91-85.57,3.13-32.35-21.18-54.43-29.48-88.43-11.74-48.13,25.83-106.83,25.83-106.83,0,0-59.87,29.35-71.48,99.78-7.29,44.2,32.35,69.39,25.04,94.96-7.3,25.57-39.13,49.57-35.48,94.43,3.65,44.87,75.65,88.17,75.65,88.17Z"/>
    <path class="cls-5" d="m154.56,485.61c-1.76,0-3.54-.46-5.15-1.43-3.12-1.88-76.44-46.52-80.47-95.93-2.67-32.75,11.66-55.52,23.17-73.82,5.65-8.99,10.54-16.75,12.66-24.18,2.17-7.59-2.9-16.88-9.32-28.62-9.15-16.73-20.53-37.56-15.97-65.21,12.31-74.66,74.31-105.85,76.94-107.14,4.02-1.97,8.88-1.03,11.86,2.32,2.99,3.35,3.38,8.27.96,12.05-.35.55-35.1,55.73-24.53,99.07,3.07,12.59,8.73,23.79,14.21,34.63,8.68,17.18,17.66,34.95,15.51,57.14-1.74,18.02-10.18,32.24-18.35,46-7.64,12.87-14.85,25.02-15.53,39.09-.86,17.73,35.26,43.58,61.19,56.27,3.64,1.78,5.99,5.53,5.73,9.57-.26,4.02-2.75,7.43-6.55,8.75-.67.29-5.15,2.29-17.83,9.72-12.97,7.6-20.38,17.5-20.45,17.6-1.95,2.68-4.99,4.12-8.09,4.12Zm-21.12-353.68c-18.48,19.28-29.98,42.05-34.22,67.74-3.44,20.85,5.32,36.87,13.79,52.37,7.93,14.52,15.43,28.23,11,43.71-2.91,10.17-8.76,19.48-14.96,29.33-10.96,17.42-22.29,35.44-20.17,61.54,2.36,29.05,41.98,61.29,63.83,75.94,4.49-4.61,11.33-10.68,20.27-15.93,1.19-.7,2.32-1.36,3.39-1.97-5.69-3.41-12.3-7.66-18.92-12.51-25.29-18.55-37.7-36.57-36.88-53.55.92-19.03,9.76-33.93,18.31-48.33,7.37-12.41,14.33-24.14,15.64-37.71,1.59-16.42-5.38-30.22-13.45-46.19-5.98-11.84-12.17-24.08-15.79-38.91-6.29-25.77.03-53.69,8.15-75.53Z"/>
  </g>
  <g>
    <path class="cls-4" d="m139.76,526.4l-45.1-28.44s-7.4,15.84-9.53,22.14c-2.13,6.3,54.64,6.3,54.64,6.3Z"/>
    <path class="cls-5" d="m139.75,533.4c-.63,0-13.04,0-26.15-.67-27.42-1.38-31.62-4.24-34-7.56-1.55-2.16-1.95-4.82-1.11-7.31,2.23-6.6,9.51-22.21,9.82-22.87.85-1.82,2.44-3.19,4.37-3.75,1.93-.57,4.01-.28,5.71.8l45.1,28.44c2.64,1.66,3.86,4.87,2.99,7.86-.87,2.99-3.61,5.06-6.72,5.06h0Zm-45.86-16.52c4.62.8,12.12,1.44,20.62,1.88l-16.82-10.61c-1.28,2.85-2.66,5.98-3.8,8.73Z"/>
  </g>
  <g>
    <path class="cls-4" d="m137.43,551.52s-46.07.43-47.21,2.93-.22,17.45,4.01,20.69c4.22,3.24,43.2-23.62,43.2-23.62Z"/>
    <path class="cls-5" d="m95.03,582.45c-2.1,0-3.63-.68-5.05-1.76-7.38-5.66-8.37-24.2-6.12-29.14,1.98-4.36,6.47-4.96,13.62-5.59,4.08-.36,9.64-.66,16.53-.91,11.62-.42,23.25-.53,23.37-.53h.07c3.05,0,5.75,1.98,6.67,4.89.93,2.93-.17,6.13-2.7,7.88-.4.28-10.01,6.89-20.32,13.22-14.39,8.83-21.54,11.95-26.05,11.95Zm3.86-12.5h0Zm-2.09-9.89c.14,2.35.53,5.22,1.08,7.33,3.43-1.52,8.86-4.57,15.01-8.3-6.66.26-12.44.59-16.08.97Zm.07-3.53h0Z"/>
  </g>
  <path class="cls-5" d="m164.74,459c-.72,0-1.44-.19-2.1-.6-2.47-1.53-60.51-37.73-61.89-68.44-1.31-29.18,9.91-46.77,19.82-62.29,5.01-7.86,9.75-15.28,12.76-23.75,8.13-22.91,1.12-35.18-7.75-50.72-4.17-7.3-8.89-15.57-12.35-25.69-10.07-29.47-1.57-74.74,19.35-103.06,1.31-1.78,3.82-2.15,5.59-.84,1.78,1.31,2.15,3.82.84,5.59-19.52,26.43-27.53,68.48-18.21,95.72,3.21,9.4,7.54,16.98,11.73,24.31,9.11,15.94,17.71,31,8.34,57.37-3.31,9.33-8.52,17.48-13.55,25.37-9.72,15.23-19.77,30.97-18.57,57.63.99,22.02,42.28,52.22,58.11,61.99,1.88,1.16,2.46,3.63,1.3,5.51-.76,1.22-2.07,1.9-3.41,1.9Z"/>
  <g>
    <path class="cls-5" d="m208.77,693.52c-3.43,0-6.72-1.77-8.56-4.82-.81-.78-6.73-5.75-27.25-5.75-16.82,0-22.31,3.14-23.53,4.04-1.82,4.1-6.26,6.59-10.88,5.78-5.44-.96-9.07-6.15-8.11-11.58.97-5.48,7.05-18.24,42.52-18.24s43.1,12.53,44.88,16.36c2.32,5.01.14,10.96-4.87,13.28-1.36.63-2.79.93-4.19.93Zm-9.07-5.78s0,0,0,0c0,0,0,0,0,0Zm0-.01h0s0,0,0,0Zm0-.01s0,0,0,0h0Zm-49.56-3.04s0,0,0,0c0,0,0,0,0,0Zm0-.02s0,0,0,.01c0,0,0,0,0-.01Z"/>
    <path class="cls-5" d="m100.77,688.05c-3.42,0-6.74-1.75-8.61-4.9-2.82-4.75-1.25-10.89,3.5-13.7,26.22-15.54,48.36-1.26,49.29-.65l-11.04,16.68.1.06c-.52-.33-12.95-7.9-28.16,1.11-1.6.95-3.36,1.4-5.09,1.4Z"/>
    <path class="cls-5" d="m244.75,688.05c-1.73,0-3.49-.45-5.09-1.4-15.2-9.01-27.64-1.44-28.16-1.11l.1-.06-11.04-16.68c.93-.61,23.07-14.89,49.29.65,4.75,2.82,6.32,8.95,3.5,13.7-1.87,3.15-5.2,4.9-8.61,4.9Z"/>
  </g>
  <g>
    <g>
      <path class="cls-4" d="m1087.13,480.4c12.94-70.2-26.15-144.19-36.07-180.48-9.92-36.29,33.77-112.11,33.77-112.11,0,0-38.92,31.7-64.79,63.82-25.87,32.12-27.48,68.63-2.82,125.34,18.31,42.13,19.7,78.7,10.43,112.31l56.67,4.11c1.04-4.19,1.99-8.52,2.81-13Z"/>
      <path class="cls-5" d="m1084.33,503.4c-.24,0-.49,0-.73-.03l-56.67-4.11c-2.99-.22-5.72-1.76-7.45-4.21-1.73-2.45-2.27-5.54-1.47-8.42,9.4-34.07,6.14-68.63-9.96-105.67-25.8-59.35-24.54-99.91,4.21-135.6,26.23-32.57,64.64-63.98,66.27-65.3,3.74-3.05,9.12-2.99,12.8.14,3.67,3.13,4.59,8.43,2.18,12.61-11.57,20.1-40.02,78.05-32.79,104.48,2.18,7.96,5.93,18.11,10.28,29.85,15.37,41.52,36.43,98.39,25.98,155.08-.83,4.51-1.82,9.08-2.94,13.6-1.11,4.49-5.14,7.59-9.7,7.59Zm-44.23-23.24l36.38,2.64c.29-1.41.57-2.82.82-4.22h0c9.45-51.28-10.5-105.16-25.06-144.5-4.51-12.19-8.41-22.71-10.82-31.52-4.56-16.69-.43-41.23,12.29-72.98-8.87,8.82-18.03,18.58-25.88,28.33-23.74,29.48-24.16,62.82-1.44,115.08,16.17,37.2,20.69,72.38,13.7,107.17Z"/>
    </g>
    <g>
      <path class="cls-4" d="m1049.35,577.87c1.47-52.75,35.39-86.29,46.14-148.57h-56.82c-2.36,11.84-6.01,23.42-10.71,34.83-18.26,44.35-37.57,49.57-43.3,103.3-5.74,53.74,13.57,89.22,13.57,89.22l67.3-2.09s-17.74-20.35-16.17-76.7Z"/>
      <path class="cls-5" d="m998.22,666.65c-3.65,0-7.03-2-8.78-5.22-.85-1.56-20.73-38.86-14.72-95.06,3.87-36.28,14.11-52.74,24.94-70.16,6.23-10.02,12.67-20.37,19.06-35.89,4.66-11.32,7.98-22.11,10.15-32.97.93-4.68,5.04-8.04,9.81-8.04h56.82c2.95,0,5.75,1.3,7.65,3.56s2.71,5.24,2.21,8.14c-5.23,30.29-15.87,54.39-25.26,75.66-10.74,24.32-20.01,45.33-20.74,71.48-1.37,49.31,12.84,68.7,13.77,69.91,2.62,2.87,3.24,6.89,1.74,10.48-1.51,3.62-5.1,5.9-9.02,6.02l-67.3,2.09c-.1,0-.21,0-.31,0Zm74.95-18.54h0,0Zm-26.49-208.81c-2.34,9.43-5.51,19.02-9.47,28.63-7.02,17.05-14.22,28.62-20.57,38.83-10.42,16.76-18.65,29.99-22.04,61.72-4.09,38.32,5.24,66.63,9.93,77.96l44.49-1.38c-5.23-12.99-10.58-34.55-9.66-67.48h0c.84-30.08,11.33-53.85,22.43-79.01,8.01-18.14,16.25-36.81,21.48-59.28h-36.59Z"/>
    </g>
    <g>
      <rect class="cls-6" x="955.17" y="360.75" width="180.78" height="126.14" transform="translate(144.77 -255.44) rotate(14.95)"/>
      <path class="cls-5" d="m1116.62,519.09c-.95,0-1.9-.12-2.84-.37l-174.66-46.65c-5.87-1.57-9.36-7.6-7.79-13.47l32.55-121.87c1.57-5.87,7.6-9.36,13.47-7.79l174.66,46.65c5.87,1.57,9.36,7.6,7.79,13.47l-32.55,121.87c-.75,2.82-2.59,5.22-5.12,6.68-1.69.98-3.59,1.48-5.51,1.48Zm-161.19-65.44l153.41,40.97,26.87-100.62-153.41-40.97-26.87,100.62Z"/>
      <path class="cls-5" d="m1046.11,431.13c-3.03,0-6.05-1.25-8.23-3.69l-71.6-80.56c-4.04-4.54-3.63-11.49.92-15.53,4.54-4.04,11.49-3.63,15.53.92l71.6,80.56c4.04,4.54,3.63,11.49-.92,15.53-2.1,1.86-4.7,2.78-7.3,2.78Z"/>
      <path class="cls-5" d="m1046.76,431.31c-4.6,0-8.89-2.91-10.43-7.52-1.92-5.76,1.19-11.99,6.95-13.92l102.23-34.14c5.76-1.92,11.99,1.19,13.92,6.95,1.92,5.76-1.19,11.99-6.95,13.92l-102.23,34.14c-1.16.39-2.33.57-3.49.57Z"/>
    </g>
    <g>
      <path class="cls-5" d="m1063.57,679.73c-3.43,0-6.72-1.77-8.56-4.82-.81-.78-6.73-5.75-27.25-5.75-16.82,0-22.31,3.14-23.53,4.04-1.82,4.1-6.26,6.59-10.88,5.78-5.44-.96-9.07-6.15-8.11-11.58.97-5.48,7.05-18.24,42.52-18.24s43.1,12.53,44.88,16.36c2.32,5.01.14,10.96-4.87,13.28-1.36.63-2.79.93-4.19.93Zm-9.07-5.78h0s0,0,0,0Zm0-.01h0s0,0,0,0Zm0-.01s0,0,0,.01c0,0,0,0,0-.01Zm-49.56-3.03s0,0,0,0c0,0,0,0,0,0Zm0-.02s0,0,0,.01c0,0,0,0,0-.01Z"/>
      <path class="cls-5" d="m955.57,674.26c-3.42,0-6.74-1.75-8.61-4.9-2.82-4.75-1.25-10.88,3.5-13.7,26.22-15.54,48.36-1.26,49.29-.65l-11.04,16.68.1.07c-.52-.33-12.95-7.9-28.16,1.11-1.6.95-3.36,1.4-5.09,1.4Z"/>
      <path class="cls-5" d="m1099.56,674.26c-1.73,0-3.49-.45-5.09-1.4-15.2-9.01-27.64-1.44-28.16-1.11l.1-.07-11.04-16.68c.93-.61,23.07-14.89,49.29.65,4.75,2.82,6.32,8.95,3.51,13.7-1.87,3.15-5.2,4.9-8.61,4.9Z"/>
    </g>
    <path class="cls-4" d="m946.96,476.26s-23.87,14.48,9.52,25.96c33.39,11.48,109.57-32.35,157.57-69.39,48-37.04,44.87-71.48,28.17-85.57-16.7-14.09-48.52-8.87-68.35,15.13l34.96,2.09s-11.48,20.87-46.96,44.87l-114.91,66.91Z"/>
    <path class="cls-5" d="m952.83,485.09c-5.52,0-10-4.48-10-10,0-4.97,3.62-9.09,8.37-9.87,9.46-3.45,69.47-40.07,105.07-64.15,32.62-22.07,43.72-41.27,43.83-41.46,2.66-4.84,8.73-6.58,13.57-3.92,4.84,2.66,6.59,8.77,3.93,13.61-.52.94-13.07,23.27-50.12,48.33-17.44,11.8-43.38,28.34-66.08,42.13-41.67,25.32-45.33,25.32-48.56,25.32Zm0-20h-.01.01Z"/>
    <path class="cls-5" d="m968.91,514.04c-5.71,0-10.97-.74-15.68-2.36-14.57-5.01-23.62-12.73-26.89-22.95-4.24-13.26,3.38-24.48,4.26-25.72l16.27,11.62.08-.12s-2.83,4.38-1.54,8.21c1.26,3.73,6.34,7.29,14.31,10.03,26.11,8.97,95.86-27.45,148.21-67.85,30.33-23.41,35.19-42.44,35.4-51.7.16-7.55-2.52-14.05-7.56-18.31-4.85-4.09-11.97-5.95-20.04-5.22-12.44,1.12-25.2,8.25-34.15,19.08-3.52,4.26-9.82,4.86-14.08,1.34s-4.86-9.82-1.34-14.08c12.46-15.08,29.87-24.65,47.78-26.26,13.43-1.21,25.76,2.29,34.73,9.86,9.61,8.11,14.95,20.51,14.66,34.03-.34,15.67-8.11,40.04-43.17,67.1-37.81,29.18-107.35,73.29-151.24,73.3Z"/>
    <path class="cls-5" d="m1028.74,656.74c-1.37,0-2.71-.71-3.45-1.98-.63-1.08-15.44-27.11-12.28-82.07,2.86-49.63,22.03-70.63,29.25-78.54.74-.81,1.39-1.52,1.67-1.9,1.33-1.77,3.83-2.12,5.6-.8,1.77,1.33,2.13,3.83.8,5.6-.52.69-1.21,1.44-2.16,2.49-6.7,7.33-24.48,26.81-27.17,73.6-3.01,52.27,11.06,77.34,11.21,77.59,1.1,1.91.45,4.36-1.45,5.46-.63.37-1.33.54-2.01.54Z"/>
    <path class="cls-5" d="m950.87,498.26c-1.83,0-3.48-1.26-3.9-3.12-.49-2.15.86-4.3,3.02-4.78.55-.13,42.03-10.07,118.81-60.87,45.75-30.27,57.74-51.48,59.74-63.95,1.06-6.63-.39-12.52-4.32-17.5-1.37-1.73-1.07-4.25.66-5.62,1.73-1.37,4.25-1.07,5.62.66,5.3,6.71,7.35,14.92,5.94,23.72-3.27,20.43-24.54,43.76-63.22,69.35-78.36,51.85-119.73,61.61-121.45,62-.3.07-.59.1-.89.1Z"/>
    <path class="cls-5" d="m1042.04,357.78c-1.26,0-2.5-.6-3.28-1.71-.85-1.22-20.81-30.33-14.76-68.65,5.99-37.95,32.76-67.02,33.9-68.23,1.51-1.62,4.04-1.71,5.65-.2,1.62,1.51,1.7,4.04.2,5.65-.26.28-26.24,28.55-31.84,64.03-5.53,35.05,13.23,62.55,13.42,62.83,1.26,1.81.81,4.3-1,5.57-.7.49-1.49.72-2.28.72Z"/>
  </g>
  <circle class="cls-5" cx="396.96" cy="103.94" r="12.91"/>
  <path class="cls-5" d="m484,52.03c-6.54.01-12.88.81-19.12,2.09-3.41.7-6.83-1.03-8.36-4.16-.05-.11-.11-.21-.16-.32-2.81-5.47-5.85-10.86-9.88-15.91-1.34-1.66-3.41-2.76-5.72-2.79-4.1-.05-7.47,3.24-7.52,7.35.01,6.44.78,12.68,2.03,18.82.68,3.36-.97,6.77-4.05,8.29-2.93,1.44-5.79,3.02-8.57,4.76-2.64,1.67-5.25,3.46-7.71,5.65-1.43,1.28-2.39,3.11-2.52,5.17-.27,4.18,2.9,7.79,7.08,8.07,6.41.34,12.55-.49,18.72-1.71.04,0,.08-.02.12-.03,3.4-.7,6.85.92,8.39,4.02,1.41,2.84,2.94,5.61,4.63,8.31,1.67,2.64,3.46,5.25,5.65,7.71,1.28,1.43,3.11,2.39,5.17,2.52,4.18.27,7.79-2.9,8.07-7.08.34-6.41-.49-12.55-1.71-18.72-.03-.14-.06-.28-.09-.43-.72-3.44.98-6.91,4.14-8.46.02,0,.04-.02.06-.03,5.47-2.81,10.86-5.85,15.91-9.88,1.66-1.34,2.76-3.41,2.79-5.72.05-4.1-3.24-7.47-7.35-7.52Z"/>
</svg>