<?xml version="1.0" encoding="UTF-8"?>
<svg id="Layer_2" data-name="Layer 2" xmlns="http://www.w3.org/2000/svg" viewBox="0 0 839.37 622">
  <defs>
    <style>
      .cls-1 {
        fill: #182d33;
      }

      .cls-2 {
        fill: #faaf3b;
      }

      .cls-3 {
        fill: #f49037;
      }

      .cls-4 {
        fill: #c6b198;
      }

      .cls-5 {
        fill: #d3e2f8;
      }

      .cls-6 {
        fill: #fff;
      }

      .cls-7 {
        fill: #ede3d9;
      }

      .cls-8 {
        fill: #0b92e1;
      }
    </style>
  </defs>
  <g id="O">
    <g>
      <path class="cls-8" d="M652.09,389.35s73.04-46.96,102.78-46.96,5.22,74.09,2.61,75.65c-2.61,1.57-78.26,21.39-117.91,52.7"/>
      <path class="cls-5" d="M647.39,426.91s34.96-24.52,80.35-34.43c0,0-9.39,15.13-7.3,20.35s3.13,8.35,3.13,8.35l-58.43,28.17"/>
      <path class="cls-1" d="M639.57,484.74c-4.14,0-8.23-1.83-11-5.33-4.79-6.07-3.76-14.87,2.31-19.66,35.1-27.71,93.56-45.95,115.57-52.81.26-.08.53-.16.79-.25,1.82-5.17,4.57-14.34,6.39-24.21,2.91-15.76,1.7-23.51.67-26.08-19.08.53-68.01,27.6-94.65,44.73-6.5,4.18-15.17,2.3-19.35-4.21-4.18-6.5-2.3-15.17,4.21-19.35.77-.49,18.99-12.18,41.21-24.05,31.66-16.91,54.27-25.13,69.14-25.13,13,0,22.99,8.05,26.73,21.54,3.1,11.19,2.33,26.83-2.28,46.48-1.5,6.4-3.38,12.99-5.3,18.56-2.85,8.26-4.87,12.4-9.33,15.08-1.87,1.12-3.25,1.55-9.88,3.62-18.68,5.83-75.53,23.56-106.56,48.06-2.57,2.03-5.63,3.01-8.67,3.01ZM745.69,410.65h0,0Z"/>
      <circle class="cls-1" cx="192.99" cy="213.8" r="12.91"/>
      <path class="cls-1" d="M265.09,147.7c-6.19-2.12-12.45-3.43-18.76-4.25-3.45-.45-6.12-3.2-6.55-6.66-.01-.12-.03-.24-.04-.36-.87-6.09-1.99-12.17-4.17-18.26-.73-2.01-2.33-3.72-4.5-4.5-3.87-1.38-8.12.63-9.5,4.5-2.08,6.09-3.39,12.25-4.21,18.45-.45,3.4-3.12,6.09-6.53,6.52s-6.46.97-9.66,1.71c-3.04.72-6.09,1.56-9.13,2.83-1.76.74-3.27,2.16-4.07,4.07-1.62,3.87.2,8.31,4.07,9.93,5.95,2.41,12.03,3.62,18.26,4.48.04,0,.08.01.13.02,3.44.44,6.18,3.1,6.63,6.54.41,3.14.96,6.26,1.67,9.36.72,3.04,1.56,6.09,2.83,9.13.74,1.76,2.16,3.27,4.07,4.07,3.87,1.62,8.31-.2,9.93-4.07,2.41-5.95,3.62-12.03,4.48-18.26.02-.14.04-.29.06-.43.44-3.49,3.18-6.21,6.67-6.65.02,0,.04,0,.06,0,6.09-.87,12.17-1.99,18.26-4.17,2.01-.73,3.72-2.33,4.5-4.5,1.38-3.87-.63-8.12-4.5-9.5Z"/>
      <circle class="cls-8" cx="518.96" cy="231.39" r="216.39"/>
      <g>
        <circle class="cls-1" cx="386.7" cy="251.61" r="44.61"/>
        <circle class="cls-6" cx="378.98" cy="248.83" r="15.46"/>
      </g>
      <path class="cls-5" d="M698.17,229.11c0,57.45-20.36,109.94-53.98,150.07h37.51c36.18-38.68,58.34-90.65,58.34-147.79,0-105.49-75.48-193.35-175.38-212.51,78.48,34.74,133.51,115.79,133.51,210.23Z"/>
      <path class="cls-1" d="M518.96,462.78c-61.81,0-119.91-24.07-163.62-67.77-43.7-43.7-67.77-101.81-67.77-163.62s24.07-119.91,67.77-163.62C399.04,24.07,457.15,0,518.96,0s119.91,24.07,163.62,67.77c43.7,43.7,67.77,101.81,67.77,163.62s-24.07,119.91-67.77,163.62c-43.7,43.7-101.81,67.77-163.62,67.77ZM518.96,30c-111.05,0-201.39,90.34-201.39,201.39s90.34,201.39,201.39,201.39,201.39-90.34,201.39-201.39S630,30,518.96,30Z"/>
      <g>
        <path class="cls-3" d="M278.48,365.18c-1.99-.23-3.96-.89-5.77-2.02-6.57-4.08-8.58-12.71-4.5-19.28l59.98-96.54c4.08-6.57,12.71-8.58,19.28-4.5,6.57,4.08,8.58,12.71,4.5,19.28l-59.98,96.54c-2.95,4.75-8.29,7.12-13.51,6.52Z"/>
        <path class="cls-1" d="M280.06,374.27c-.87,0-1.74-.05-2.61-.15h0c-3.39-.39-6.58-1.51-9.49-3.32-5.22-3.24-8.86-8.32-10.26-14.3s-.38-12.15,2.86-17.37l59.98-96.54c3.24-5.22,8.32-8.86,14.31-10.26,5.98-1.4,12.15-.38,17.37,2.86,5.22,3.24,8.86,8.32,10.26,14.3,1.4,5.98.38,12.15-2.86,17.37l-59.98,96.54c-4.21,6.78-11.7,10.86-19.57,10.86ZM340.09,249.73c-.38,0-.77.04-1.15.13-1.3.3-2.41,1.1-3.11,2.23l-59.98,96.54c-.7,1.13-.93,2.48-.62,3.78.3,1.3,1.1,2.4,2.23,3.11.64.4,1.33.64,2.06.72h0c1.92.22,3.81-.69,4.83-2.33l59.98-96.54c.7-1.13.93-2.48.62-3.78-.3-1.3-1.1-2.4-2.23-3.11-.8-.5-1.71-.75-2.63-.75Z"/>
      </g>
      <g>
        <circle class="cls-1" cx="388.52" cy="124.57" r="23.61"/>
        <circle class="cls-1" cx="439.13" cy="81.26" r="21.78"/>
        <circle class="cls-1" cx="464.24" cy="130.89" r="15.91"/>
        <circle class="cls-1" cx="496.78" cy="59.74" r="13.17"/>
      </g>
      <g>
        <circle class="cls-1" cx="589.13" cy="251.61" r="44.61"/>
        <circle class="cls-6" cx="581.41" cy="248.83" r="15.46"/>
      </g>
      <path class="cls-1" d="M472.4,274.78c4.48,9.14,16.28,12.35,24.73,7.12,2.81-1.7,5.2-4.4,6.89-7.74,3.01-5.6,9.99-7.69,15.59-4.68,5,2.69,7.2,8.56,5.46,13.77-2.5,7.49-7.59,14.43-14.18,19-13.32,9.51-32.36,9.5-45.68,0-6.59-4.57-11.68-11.51-14.19-19-4.13-13.93,14.91-21.35,21.38-8.47h0Z"/>
      <g>
        <path class="cls-8" d="M628.61,400.3s8.2,47.27,48.48,63.51c26.15,10.54,53.72-13.45,70.12,6.84,14.9,18.45-3.82,82.19-80.51,77.85-82.24-4.66-132.6-95.44-125.51-118.67"/>
        <path class="cls-5" d="M733.23,513.14s-42.66,15.44-97.34-10.91c-54.69-26.35-65.81-87.69-78.91-85.35s-12.13,92.59,76.81,122.36c88.94,29.77,107.5-22.85,107.5-22.85"/>
        <path class="cls-1" d="M640.93,398.17c0-.08.03,0,.05.03.02.03.05.09.07.13.16.35.29.64.43,1,0,0,.6,1.45.6,1.45l1.22,2.99c2.42,5.85,4.95,12.31,7.97,17.78,7.24,13.25,17.71,24.02,31.68,29.39,8.81,3.11,17.83.89,27.55-.81,8.09-1.53,18.78-3.36,28.13-1.01,7.57,1.69,14.86,6.47,19.7,12.6,14.96,19.67,6.62,49.02-6.76,66.75-19.9,26.83-53.83,36.51-85.79,34.33-58.38-3.56-108.23-46.62-131.83-98.47-3.43-8.03-6.22-16.82-6.49-26.06-.03-4.05.26-7.89,1.8-12.08,2.01-6.6,9-10.32,15.6-8.31,6.6,2.01,10.32,9,8.31,15.6.17.02.24.35.31.82.4,2.29.88,4.51,1.68,7.08,15.96,47.91,63.71,92.03,115.6,92.97,25.41,1.02,52.98-8.44,63.61-33.05,2.65-6.32,4.93-15.52,1.78-21.62-2.03-2.7-4.5-3.29-8.08-3.25-8.65.27-18.69,3.29-28.52,4.04-8.53.88-19.13.05-27.67-3.53-19.55-7.68-35.63-23.87-45.23-41.98-5.25-9.71-9.31-20.09-10.24-31.15,0,0-.1-1.36-.1-1.36-1.18-6.8,3.38-13.27,10.18-14.45,6.8-1.18,13.27,3.38,14.45,10.18h0Z"/>
      </g>
      <g>
        <path class="cls-8" d="M644.76,526.11c-18.33-24.07-50.11,10.86-80.02-30.33-7.9-10.87-12.68-22.35-15.49-33.14.06-1.38.1-2.77.1-4.16,0-9.02-1.34-17.66-3.8-25.65,0-2.33.08-24.47.19-26.43h-116.96c.11,1.96.19,24.11.19,26.43-2.46,8-3.8,16.64-3.8,25.65,0,1.4.04,2.78.1,4.16-2.82,10.79-7.6,22.27-15.49,33.14-29.92,41.19-61.7,6.26-80.02,30.33-16.54,21.72.68,73.86,70.63,69.85,53.18-3.05,73.61-35.3,81.02-63.47,1.93.22,3.88.34,5.85.34s3.92-.12,5.85-.34c7.4,28.17,27.84,60.42,81.02,63.47,69.95,4.01,87.17-48.12,70.63-69.85Z"/>
        <path class="cls-5" d="M339.74,574.43s43.43,1.57,81.78-18.78c38.35-20.35,53.22-46.57,53.22-46.57,0,0,.39,42.65-29.35,70.43s-90,11.74-90,11.74"/>
        <path class="cls-1" d="M439.62,411.79c2.53,4.87,3.11,10.33,3.29,15.69.21,5.13.18,10.25-.19,15.37-1.81,26.14-11.4,52.34-29.98,71.43-8.1,8.41-20,15-31.76,16.7-10.09,1.73-20.75.25-29.73.13-3.62,0-5.86.5-7.05,1.13-.63.37-1.21.65-1.85,1.37-2.44,2.5-3.52,5.45-3.88,9.41-.81,13.09,7.89,24.64,19.4,30.94,19.42,10.66,47.99,9.62,68.57,2.6.91-.34,3.14-1.26,4.01-1.58.81-.38,3.02-1.43,3.86-1.82.84-.44,2.89-1.62,3.7-2.04.75-.47,2.75-1.79,3.53-2.27,14.34-9.86,23.13-25.87,26.96-42.67,2.18-8.21,1.96-16.91,4.59-25.05,4.07-12.35,21.63-11.55,24.71.91,2.29,10.15.11,20.48-1.97,30.5-2.34,10.2-5.96,20.15-11.11,29.39-9.11,16.67-23.78,30.39-41.11,38.24-24.82,11.39-58.34,13.56-84.43,5.48-28.23-8.37-51.92-33.86-49.49-65.02,1.9-22.63,18.25-38.96,41.46-38.32,9.39-.01,17.14,1.5,25.28.29,10.3-1.77,16.55-7.76,23.15-17.13,4.46-6.46,7.92-13.55,10.38-21.04,3.76-11.32,5.31-23.73,4.85-35.75-.14-3.74-.69-7.49.12-11.17.03-.11.05-.24.09-.33.04-.07.06-.24.13-.19-2.81-16.29,20.32-21.33,24.45-5.19h0Z"/>
        <path class="cls-5" d="M634.78,574.43s-43.43,1.57-81.78-18.78c-38.35-20.35-53.22-46.57-53.22-46.57,0,0-.39,42.65,29.35,70.43,29.74,27.78,90,11.74,90,11.74"/>
        <path class="cls-1" d="M559.36,416.99c.08-.06.09.11.13.19.04.09.07.22.09.33.81,3.68.26,7.43.12,11.17-.14,4.05-.09,8.13.22,12.17,1.2,15.95,5.94,31.48,15.01,44.62,4.4,6.48,9.41,11.55,14.66,14.32,10.65,5.55,21.37,2.41,33.78,2.52,6.4,0,13.49.92,19.75,4.09,25.67,13.1,26.98,47.78,12.78,69.32-18.2,29.03-55.14,37.34-87.08,34.12-39.83-3.34-71.52-24.15-85.69-62.35-4.31-12.16-7.32-24.88-7.37-37.77.07-2.56.34-5.13.96-7.68,1.67-6.89,8.61-11.13,15.5-9.46,7.8,1.95,9.81,8.65,10.88,15.56.92,6.02,1.44,12.16,2.92,18.05,4.02,17.68,13.63,34.59,29.31,44.18,1.3.9,3.5,2.01,4.88,2.8,1.47.66,3.69,1.8,5.2,2.34,27.68,11.07,79.51,10.5,89.78-23.76,1.79-6.79,1.41-15.76-4.86-19.5-1.19-.63-3.43-1.13-7.05-1.13-9,.12-19.63,1.6-29.73-.13-11.76-1.7-23.65-8.29-31.76-16.7-18.59-19.09-28.17-45.3-29.98-71.43-.37-5.12-.4-10.24-.19-15.37.18-5.36.76-10.83,3.29-15.69,4.06-16.04,27.24-11.21,24.45,5.19h0Z"/>
      </g>
      <path class="cls-8" d="M453.3,425.87s-33.56,65.22-93.91,58.43c-60.35-6.78-51.43-108.52-58.75-112.7-7.32-4.17-38.43-4.17-42.67-26.09-6.06-31.3,34.75-54.78,86.57-39.13,51.82,15.65,38.59,78.52,55.55,106.43l15.26-19.17,41.87,3.52"/>
      <path class="cls-5" d="M267.83,342.78s47.74-5.87,61.04,19.96,2.74,94.7,46.17,94.3,63.39-24.65,63.39-24.65c0,0-28.17,57.52-75.13,50.87s-52.04-98.61-59.48-104.87c-7.43-6.26-30.13-15.26-30.13-15.26"/>
      <path class="cls-1" d="M464.42,431.59c-4.3,12.08-12.5,22.09-21.07,31.44-17.43,18.87-41.91,33.84-68.31,35.64-14.24,1.05-28.78-.7-41.36-8.12-23.93-13.87-34.19-42.59-39.05-67.66-2.3-11.57-3.61-23.53-4.9-35-.43-3.43-.76-6.83-1.43-9.55.92,2.41,3.09,4.65,5.42,5.89.19.09.19.11.32.16,0,0-.07-.02-.07-.02-1.13-.42-5.09-1.31-6.56-1.65-14.32-3.13-29.92-8.27-38.47-21.64-7.11-11.25-7.59-25.56-2.87-37.77,5.87-14.92,18.97-24.91,32.93-30.31,24.87-9.39,53.62-6.74,77.7,2.75,13.06,5.38,24.91,16,31.75,28.29,12.52,21.52,13.42,46.77,18.94,69.37,1.52,5.75,2.84,10.09,3.83,15.01,2.6,12.81-13.28,20.57-21.81,10.91-8.73-10.22-10.43-24.37-12.86-36.65-4.38-23.52-7.41-51.07-30.98-60.85-20.1-7.71-49.48-10.07-66.81,3.98-5.91,4.92-9.12,12.73-5.59,19.69,4.65,6.31,17.09,8.05,25.15,10.17,2.59.62,6.73,1.82,9.46,3.43,2.08,1.18,3.89,2.88,5.24,4.81,2.45,3.5,3.38,7.63,4.04,11.42,2.13,14.34,2.89,28.15,5.69,42.09,3.03,14.99,7.01,29.23,16.16,40.68,6.78,8.5,16.34,12.39,27.02,12.5,22.01,1.02,42.07-10.81,57.01-26.8,6.98-7.22,12.52-15.82,19.05-23.45,8.31-14.58,29.4-4.09,22.46,11.24h0Z"/>
      <g>
        <path class="cls-7" d="M132.96,295.96c-14.09-15.13,95.48-43.3,103.3-41.22,7.83,2.09,84,214.43,82.96,278.09s-54.26,32.35-81.91,31.83c-27.65-.52-33.39,33.91-68.35,22.96-34.96-10.96-39.65-24.52-59.48-19.3-19.83,5.22-13.57,27.65-43.83,29.74-30.26,2.09-39.65-4.17-39.65-4.17l-12-60s39.65,1.57,49.57-2.09,22.96-37.04,45.39-35.48,41.26,20.29,61.04,18.26c30.52-3.13,35.22-21.52,27.13-47.48-7.29-23.41-50.09-156-64.17-171.13Z"/>
        <path class="cls-1" d="M54,612.47c-23.29,0-33.08-5.15-35.77-6.95-3.09-2.06-5.23-5.26-5.96-8.9L.27,536.61c-.84-4.21.29-8.57,3.08-11.83s6.91-5.08,11.2-4.9c16.57.65,37.26.37,43.43-1.04,1.54-1.45,4.38-5.09,6.5-7.82,9.36-12.03,23.5-30.23,45.45-28.68,13.14.92,24.58,6.23,34.67,10.93,8.91,4.14,17.33,8.05,23.97,7.37,5.92-.61,13.57-2.22,16.35-6.43,2.63-3.98,2.22-12.13-1.16-22.96-3.29-10.57-15.7-49.28-29.06-87.27-23.26-66.14-30.74-76.99-32.03-78.52-5.7-6.15-6.55-14.84-2.16-22.15,2.69-4.47,8.98-14.95,60.71-30.61,11.62-3.52,23.76-6.72,34.19-9.01,17.09-3.76,21.18-3.35,24.45-2.48,7.25,1.93,10.63,8.22,14.96,17.6,2.96,6.42,6.63,15.25,10.9,26.25,8.81,22.71,19.26,52.35,28.66,81.32,14.78,45.54,39.47,127.76,38.83,166.68-.35,21.48-6.04,36.26-17.4,45.17-17.1,13.42-40.51,8.1-59.31,3.82-7.46-1.7-14.51-3.3-19.46-3.39-6.58-.14-11.16,3.3-18.7,9.37-11.23,9.03-26.61,21.4-53.57,12.95-15.64-4.9-25.88-10.37-33.35-14.37-9.92-5.3-12.23-6.37-18.37-4.75-3.14.83-4.34,2.18-8.07,7.63-5.7,8.32-14.32,20.88-38.36,22.54-4.59.32-8.78.46-12.61.46ZM38.14,583.19c4.78.93,13.2,1.81,26.55.89,10.53-.73,12.62-3.77,17.19-10.44,4.43-6.46,10.5-15.31,24.03-18.87,16.98-4.47,27.53,1.17,38.7,7.14,7.22,3.86,15.4,8.23,28.53,12.35,12.69,3.98,18-.3,27.65-8.05,8.79-7.07,19.69-15.86,36.78-15.54,7.83.15,16.24,2.06,25.14,4.09,13.01,2.96,29.21,6.64,35.81,1.46,4.12-3.23,6.5-11.61,6.69-23.6.4-24.37-12.34-78.95-34.95-149.74-17.06-53.43-33.89-97.59-41.3-113.37-8.24,1.52-23.21,5-40.43,10.25-20.95,6.38-33.19,11.71-39.44,15.17,5.33,9.59,14.62,30.37,31.7,78.86,13.61,38.65,26.32,78.31,29.7,89.16,6.18,19.82,5.45,35.1-2.21,46.71-7.08,10.73-19.49,17.08-36.86,18.86-14.3,1.47-27.23-4.54-38.63-9.84-8.66-4.03-16.84-7.83-24.82-8.39-7.06-.5-15.01,9.73-21.4,17.94-5.86,7.53-10.92,14.03-18.17,16.71-7.48,2.76-23.56,3.37-37.25,3.33l6.99,34.94ZM122.71,305.5h0,0ZM143.2,286.42s0,0,0,0c0,0,0,0,0,0h0Z"/>
      </g>
      <g>
        <path class="cls-8" d="M164.18,341.5c15.75-8.86,48.16-18.28,70.47,16.1,22.3,34.38-29.45,86.56-66.62,50.61-27.31-26.42-18.09-58.69-3.84-66.7Z"/>
        <path class="cls-1" d="M195.65,434.28c-12.53,0-25.61-4.65-37.36-16.01-16.1-15.57-23.89-35.71-21.37-55.25,1.91-14.79,9.72-27.71,20.39-33.71h0c25.57-14.39,64.24-17.6,89.08,20.68,7.47,11.51,9.54,25.47,5.85,39.31-3.22,12.07-10.57,23.3-20.71,31.64-9.79,8.06-22.51,13.35-35.88,13.35ZM193.48,347.12c-8.69,0-16.75,3.37-22.44,6.58h0c-1.96,1.1-5.41,5.57-6.35,12.89-.81,6.28-.19,18.73,13.07,31.55,15.52,15.02,30.33,5.82,35.98,1.18,9.89-8.14,16.46-22.85,9.16-34.1-8.93-13.77-19.58-18.09-29.41-18.09ZM164.18,341.5h0,0Z"/>
      </g>
      <g>
        <g>
          <path class="cls-2" d="M724.32,538.41c-6.73-1.23-11.18-7.67-9.96-14.4l44.44-243.7c1.23-6.73,7.67-11.18,14.4-9.96,6.73,1.23,11.18,7.67,9.96,14.4l-44.44,243.7c-1.23,6.73-7.67,11.18-14.4,9.96Z"/>
          <path class="cls-1" d="M726.58,547.62c-1.29,0-2.59-.12-3.88-.35h0c-5.62-1.02-10.5-4.18-13.75-8.87s-4.47-10.38-3.45-15.99l44.44-243.7c2.12-11.6,13.27-19.31,24.87-17.2,5.62,1.02,10.5,4.18,13.75,8.87,3.25,4.7,4.47,10.38,3.45,16l-44.44,243.7c-1.02,5.62-4.17,10.5-8.87,13.75-3.61,2.5-7.81,3.8-12.11,3.8ZM770.98,279.15c-1.6,0-3.03,1.14-3.32,2.77l-44.44,243.7c-.22,1.2.25,2.1.54,2.53.3.43.97,1.18,2.17,1.4h0c1.2.22,2.1-.25,2.53-.54.43-.3,1.18-.97,1.4-2.17l44.44-243.7c.22-1.2-.25-2.1-.54-2.53-.3-.43-.97-1.18-2.17-1.4-.2-.04-.41-.06-.61-.06Z"/>
        </g>
        <g>
          <path class="cls-4" d="M761.62,555.4s.85,15.29-3.2,31.36-9.28,23.24-9.28,23.24l-22.85-5.29s-9.32,1.94-18.79,1.62c-9.47-.33-36.98-6.18-36.98-6.18l-18.66-3.68s21.66-35.84,25.59-53.24"/>
          <path class="cls-1" d="M749.15,622c-.9,0-1.81-.1-2.71-.31l-20.45-4.73c-3.87.64-11.29,1.63-18.9,1.36-10.13-.35-35.66-5.72-38.98-6.42l-18.57-3.67c-3.84-.76-7.07-3.34-8.65-6.92-1.58-3.58-1.32-7.71.71-11.06,5.75-9.51,21.29-36.98,24.15-49.67,1.46-6.47,7.88-10.53,14.34-9.07,6.47,1.46,10.53,7.88,9.07,14.34-2.64,11.72-11.62,29.46-18.55,42.07l2.25.44c.06.01.12.02.17.04,10.24,2.18,28.77,5.72,34.89,5.93,7.8.26,15.85-1.36,15.93-1.37,1.7-.35,3.46-.33,5.15.06l13.77,3.19c1.26-3.05,2.7-7.16,4.02-12.39,3.52-13.98,2.86-27.64,2.85-27.77-.35-6.61,4.72-12.26,11.33-12.62,6.61-.35,12.26,4.69,12.63,11.3.04.7.91,17.32-3.54,34.96-4.49,17.82-10.55,26.46-11.22,27.38-2.29,3.14-5.92,4.93-9.69,4.93Z"/>
        </g>
        <g>
          <path class="cls-2" d="M749.43,510.36c14.21,2.59,22.44,26.51,18.86,53.02l-96.24-17.55c6.01-26.07,22.15-45.54,36.36-42.95l41.01,7.48Z"/>
          <path class="cls-1" d="M768.3,577.38c-.84,0-1.68-.07-2.51-.23l-96.24-17.55c-3.76-.69-7.08-2.88-9.18-6.08-2.1-3.2-2.81-7.11-1.95-10.84,3.41-14.79,9.82-28.32,18.04-38.09,10.24-12.18,22.49-17.68,34.48-15.49l41.01,7.48h0c12,2.19,21.51,11.66,26.8,26.66,4.24,12.04,5.46,26.96,3.43,42-.51,3.79-2.55,7.21-5.65,9.46-2.41,1.75-5.29,2.67-8.23,2.67ZM690.38,534.94l64.61,11.78c-.32-5.22-1.22-10.07-2.66-14.18-2.31-6.56-4.98-8.34-5.41-8.42l-41.01-7.48c-.43-.08-3.56.65-8.03,5.97-2.8,3.33-5.35,7.56-7.5,12.32Z"/>
        </g>
        <path class="cls-1" d="M681.07,600.19c-.57,0-1.14-.12-1.69-.38-2-.93-2.87-3.31-1.93-5.32.08-.17,7.74-16.6,9.77-22.14.76-2.07,3.06-3.14,5.13-2.39,2.08.76,3.14,3.05,2.39,5.13-2.14,5.87-9.71,22.09-10.03,22.78-.68,1.45-2.12,2.31-3.63,2.31Z"/>
        <path class="cls-1" d="M703.53,603.56c-.49,0-.99-.09-1.47-.28-2.05-.81-3.06-3.14-2.25-5.19.07-.17,6.72-17.04,8.41-22.69.63-2.12,2.85-3.32,4.98-2.69,2.12.63,3.32,2.86,2.69,4.98-1.78,5.98-8.36,22.64-8.64,23.35-.62,1.57-2.13,2.53-3.72,2.53Z"/>
        <path class="cls-1" d="M724.98,606.27c-.44,0-.88-.07-1.32-.22-2.09-.73-3.19-3.01-2.46-5.1,2.88-8.26,7.22-22.46,7.27-22.61.64-2.11,2.88-3.3,4.99-2.66,2.11.64,3.3,2.88,2.66,4.99-.18.59-4.43,14.5-7.36,22.91-.58,1.65-2.12,2.68-3.78,2.68Z"/>
      </g>
      <path class="cls-8" d="M780.26,343.43c15.13-1.57,64.43,35.48,33.65,66.26-30.78,30.78-85.57,14.61-83.48-10.43,2.09-25.04,50.09-22.96,50.09-22.96l-4.7-2.61"/>
      <path class="cls-1" d="M768.4,443.93c-10.09,0-19.73-1.98-27.81-5.68-17.67-8.1-26.85-23.93-23.96-41.29,1.55-9.27,8.46-25.78,37.4-32.15,13.61-2.99,26.52-2.52,27.06-2.5,7.73.31,13.74,6.82,13.43,14.55-.31,7.73-6.83,13.75-14.55,13.43-14.04-.5-34.43,3.54-35.72,11.27-.29,1.74-1.17,7.03,8.01,11.24,14.27,6.55,38.13,3.26,50.9-12.07,11.75-14.1,7.88-21.89,6.62-24.45-5.86-11.82-24.97-19.12-29.98-18.92-7.69.79-14.53-4.8-15.32-12.49-.8-7.69,4.84-14.57,12.53-15.37,14.94-1.55,45.39,10.88,57.24,33.13,5.41,10.15,11.35,30.92-9.57,56.02-14.58,17.5-36.28,25.28-56.27,25.28Z"/>
      <path class="cls-1" d="M787.48,600.22c-.4,0-.8-.06-1.2-.18-2.11-.66-3.28-2.9-2.62-5.01,7.8-24.9,8.16-45.09,8.17-45.29.03-2.21,1.86-3.96,4.05-3.95,2.21.03,3.98,1.84,3.95,4.05-.01.87-.36,21.49-8.53,47.58-.54,1.71-2.11,2.81-3.82,2.81Z"/>
      <path class="cls-1" d="M805.48,588.74c-.26,0-.53-.03-.8-.08-2.17-.44-3.57-2.55-3.13-4.71,3.19-15.81,3.83-33.09,3.84-33.26.08-2.21,1.93-3.92,4.14-3.86,2.21.08,3.94,1.93,3.86,4.14-.03.73-.67,18.11-3.99,34.56-.38,1.9-2.05,3.21-3.92,3.21Z"/>
      <circle class="cls-1" cx="781.61" cy="615" r="5.87"/>
      <circle class="cls-1" cx="802.61" cy="615" r="5.87"/>
    </g>
  </g>
</svg>