<?xml version="1.0" encoding="UTF-8"?>
<svg id="Layer_2" data-name="Layer 2" xmlns="http://www.w3.org/2000/svg" viewBox="0 0 961.2 668.39">
  <defs>
    <style>
      .cls-1 {
        fill: #182d33;
      }

      .cls-2 {
        fill: #33b048;
      }

      .cls-3 {
        fill: #d3e2f8;
      }

      .cls-4 {
        fill: #ed6220;
      }

      .cls-5 {
        fill: #fff;
      }

      .cls-6 {
        fill: #666;
      }

      .cls-7 {
        fill: #e52026;
      }

      .cls-8 {
        fill: #0b92e1;
      }

      .cls-9 {
        fill: #f5d510;
      }
    </style>
  </defs>
  <g id="O">
    <g>
      <g>
        <polygon class="cls-6" points="467.91 455.55 77.39 518.16 148.61 602.68 554.78 527.55 467.91 455.55"/>
        <path class="cls-1" d="M148.61,616.68c-4.08,0-8.02-1.79-10.71-4.98l-71.22-84.52c-3.25-3.86-4.17-9.17-2.42-13.9s5.92-8.15,10.91-8.95l390.52-62.61c3.98-.64,8.04.47,11.15,3.04l86.87,72c4.18,3.47,5.98,9.04,4.62,14.3s-5.66,9.25-11,10.24l-406.17,75.13c-.85.16-1.7.23-2.55.23ZM104.04,528.06l50.02,59.37,368.73-68.21-58.94-48.85-359.82,57.69Z"/>
      </g>
      <g>
        <g>
          <g>
            <line class="cls-6" x1="105.57" y1="538.11" x2="483.17" y2="473.55"/>
            <path class="cls-1" d="M105.56,541.11c-1.44,0-2.7-1.03-2.95-2.49-.28-1.63.82-3.18,2.45-3.46l377.61-64.57c1.63-.28,3.18.82,3.46,2.45s-.82,3.18-2.45,3.46l-377.61,64.57c-.17.03-.34.04-.51.04Z"/>
          </g>
          <g>
            <line class="cls-6" x1="114.96" y1="548.58" x2="491.2" y2="483.14"/>
            <path class="cls-1" d="M114.95,551.58c-1.43,0-2.7-1.03-2.95-2.49-.28-1.63.81-3.19,2.44-3.47l376.24-65.45c1.63-.28,3.19.81,3.47,2.44.28,1.63-.81,3.19-2.44,3.47l-376.24,65.45c-.17.03-.35.04-.52.04Z"/>
          </g>
          <g>
            <line class="cls-6" x1="124.35" y1="559.05" x2="499.22" y2="492.72"/>
            <path class="cls-1" d="M124.34,562.05c-1.43,0-2.69-1.02-2.95-2.48-.29-1.63.8-3.19,2.43-3.48l374.87-66.33c1.63-.29,3.19.8,3.48,2.43.29,1.63-.8,3.19-2.43,3.48l-374.87,66.33c-.18.03-.35.05-.53.05Z"/>
          </g>
          <g>
            <line class="cls-6" x1="133.74" y1="569.52" x2="507.24" y2="502.31"/>
            <path class="cls-1" d="M133.74,572.52c-1.42,0-2.69-1.02-2.95-2.47-.29-1.63.79-3.19,2.42-3.48l373.5-67.21c1.62-.3,3.19.79,3.48,2.42.29,1.63-.79,3.19-2.42,3.48l-373.5,67.21c-.18.03-.36.05-.53.05Z"/>
          </g>
          <g>
            <line class="cls-6" x1="143.13" y1="579.98" x2="515.26" y2="511.9"/>
            <path class="cls-1" d="M143.13,582.98c-1.42,0-2.68-1.01-2.95-2.46-.3-1.63.78-3.19,2.41-3.49l372.13-68.09c1.62-.3,3.19.78,3.49,2.41.3,1.63-.78,3.19-2.41,3.49l-372.13,68.09c-.18.03-.36.05-.54.05Z"/>
          </g>
        </g>
        <g>
          <g>
            <line class="cls-6" x1="109.65" y1="509.33" x2="187.52" y2="602.07"/>
            <path class="cls-1" d="M187.52,605.07c-.86,0-1.71-.36-2.3-1.07l-77.87-92.74c-1.07-1.27-.9-3.16.37-4.23,1.27-1.07,3.16-.9,4.23.37l77.87,92.74c1.07,1.27.9,3.16-.37,4.23-.56.47-1.25.7-1.93.7Z"/>
          </g>
          <g>
            <line class="cls-6" x1="129.39" y1="506.13" x2="207.26" y2="598.35"/>
            <path class="cls-1" d="M207.26,601.35c-.85,0-1.7-.36-2.29-1.06l-77.87-92.23c-1.07-1.27-.91-3.16.36-4.23,1.27-1.07,3.16-.91,4.23.36l77.87,92.23c1.07,1.27.91,3.16-.36,4.23-.56.48-1.25.71-1.93.71Z"/>
          </g>
          <g>
            <line class="cls-6" x1="149.12" y1="502.92" x2="226.99" y2="594.64"/>
            <path class="cls-1" d="M227,597.64c-.85,0-1.69-.36-2.29-1.06l-77.87-91.71c-1.07-1.26-.92-3.16.35-4.23,1.26-1.07,3.16-.92,4.23.35l77.87,91.71c1.07,1.26.92,3.16-.35,4.23-.56.48-1.25.71-1.94.71Z"/>
          </g>
          <g>
            <line class="cls-6" x1="168.86" y1="499.72" x2="246.73" y2="590.92"/>
            <path class="cls-1" d="M246.73,593.92c-.85,0-1.69-.36-2.28-1.05l-77.87-91.2c-1.08-1.26-.93-3.15.33-4.23,1.26-1.08,3.15-.93,4.23.33l77.87,91.2c1.08,1.26.93,3.15-.33,4.23-.57.48-1.26.72-1.95.72Z"/>
          </g>
          <g>
            <line class="cls-6" x1="188.6" y1="496.52" x2="266.47" y2="587.2"/>
            <path class="cls-1" d="M266.47,590.2c-.84,0-1.68-.35-2.28-1.05l-77.87-90.68c-1.08-1.26-.94-3.15.32-4.23,1.26-1.08,3.15-.94,4.23.32l77.87,90.68c1.08,1.26.94,3.15-.32,4.23-.57.49-1.26.72-1.95.72Z"/>
          </g>
          <g>
            <line class="cls-6" x1="208.33" y1="493.31" x2="286.2" y2="583.48"/>
            <path class="cls-1" d="M286.21,586.48c-.84,0-1.68-.35-2.27-1.04l-77.87-90.17c-1.08-1.25-.94-3.15.31-4.23,1.25-1.08,3.15-.94,4.23.31l77.87,90.17c1.08,1.25.94,3.15-.31,4.23-.57.49-1.27.73-1.96.73Z"/>
          </g>
          <g>
            <line class="cls-6" x1="228.07" y1="490.11" x2="305.94" y2="579.77"/>
            <path class="cls-1" d="M305.94,582.77c-.84,0-1.67-.35-2.27-1.03l-77.87-89.66c-1.09-1.25-.95-3.15.3-4.23,1.25-1.09,3.15-.95,4.23.3l77.87,89.66c1.09,1.25.95,3.15-.3,4.23-.57.49-1.27.74-1.97.74Z"/>
          </g>
          <g>
            <line class="cls-6" x1="247.81" y1="486.9" x2="325.68" y2="576.05"/>
            <path class="cls-1" d="M325.68,579.05c-.84,0-1.67-.35-2.26-1.03l-77.87-89.14c-1.09-1.25-.96-3.14.29-4.23,1.25-1.09,3.14-.96,4.23.29l77.87,89.14c1.09,1.25.96,3.14-.29,4.23-.57.5-1.27.74-1.97.74Z"/>
          </g>
          <g>
            <line class="cls-6" x1="267.54" y1="483.7" x2="345.41" y2="572.33"/>
            <path class="cls-1" d="M345.41,575.33c-.83,0-1.66-.34-2.25-1.02l-77.87-88.63c-1.09-1.25-.97-3.14.27-4.23,1.25-1.09,3.14-.97,4.23.27l77.87,88.63c1.09,1.25.97,3.14-.27,4.23-.57.5-1.28.75-1.98.75Z"/>
          </g>
          <g>
            <line class="cls-6" x1="287.28" y1="480.5" x2="365.15" y2="568.61"/>
            <path class="cls-1" d="M365.15,571.61c-.83,0-1.66-.34-2.25-1.01l-77.87-88.12c-1.1-1.24-.98-3.14.26-4.23,1.24-1.1,3.14-.98,4.23.26l77.87,88.12c1.1,1.24.98,3.14-.26,4.23-.57.5-1.28.75-1.99.75Z"/>
          </g>
          <g>
            <line class="cls-6" x1="307.02" y1="477.29" x2="384.89" y2="564.9"/>
            <path class="cls-1" d="M384.89,567.9c-.83,0-1.65-.34-2.24-1.01l-77.87-87.6c-1.1-1.24-.99-3.13.25-4.24,1.24-1.1,3.13-.99,4.24.25l77.87,87.6c1.1,1.24.99,3.13-.25,4.24-.57.51-1.28.76-1.99.76Z"/>
          </g>
          <g>
            <line class="cls-6" x1="326.75" y1="474.09" x2="404.62" y2="561.18"/>
            <path class="cls-1" d="M404.62,564.18c-.82,0-1.64-.34-2.24-1l-77.87-87.09c-1.1-1.24-1-3.13.24-4.24,1.24-1.1,3.13-1,4.24.24l77.87,87.09c1.1,1.24,1,3.13-.24,4.24-.57.51-1.29.76-2,.76Z"/>
          </g>
          <g>
            <line class="cls-6" x1="346.49" y1="470.89" x2="424.36" y2="557.46"/>
            <path class="cls-1" d="M424.36,560.46c-.82,0-1.64-.33-2.23-.99l-77.87-86.58c-1.11-1.23-1.01-3.13.22-4.24,1.23-1.11,3.13-1.01,4.24.22l77.87,86.58c1.11,1.23,1.01,3.13-.22,4.24-.57.52-1.29.77-2,.77Z"/>
          </g>
          <g>
            <line class="cls-6" x1="366.23" y1="467.68" x2="444.09" y2="553.74"/>
            <path class="cls-1" d="M444.1,556.74c-.82,0-1.63-.33-2.23-.99l-77.87-86.06c-1.11-1.23-1.02-3.13.21-4.24s3.12-1.02,4.24.21l77.87,86.06c1.11,1.23,1.02,3.13-.21,4.24-.57.52-1.29.78-2.01.78Z"/>
          </g>
          <g>
            <line class="cls-6" x1="385.96" y1="464.48" x2="463.83" y2="550.03"/>
            <path class="cls-1" d="M463.83,553.03c-.82,0-1.63-.33-2.22-.98l-77.87-85.55c-1.12-1.23-1.03-3.12.2-4.24,1.22-1.12,3.12-1.03,4.24.2l77.87,85.55c1.12,1.23,1.03,3.12-.2,4.24-.58.52-1.3.78-2.02.78Z"/>
          </g>
          <g>
            <line class="cls-6" x1="405.7" y1="461.27" x2="483.57" y2="546.31"/>
            <path class="cls-1" d="M483.57,549.31c-.81,0-1.62-.33-2.21-.97l-77.87-85.04c-1.12-1.22-1.04-3.12.19-4.24,1.22-1.12,3.12-1.03,4.24.19l77.87,85.04c1.12,1.22,1.04,3.12-.19,4.24-.58.53-1.3.79-2.03.79Z"/>
          </g>
          <g>
            <line class="cls-6" x1="425.43" y1="458.07" x2="503.3" y2="542.59"/>
            <path class="cls-1" d="M503.3,545.59c-.81,0-1.62-.33-2.21-.97l-77.87-84.52c-1.12-1.22-1.04-3.12.17-4.24,1.22-1.12,3.12-1.05,4.24.17l77.87,84.52c1.12,1.22,1.04,3.12-.17,4.24-.58.53-1.3.79-2.03.79Z"/>
          </g>
        </g>
      </g>
      <g>
        <polygon class="cls-6" points="348.4 402.2 156.33 428.5 190.28 467.29 390.16 438.46 348.4 402.2"/>
        <path class="cls-1" d="M190.28,478.29c-3.15,0-6.17-1.35-8.28-3.75l-33.95-38.79c-2.67-3.05-3.44-7.31-2.03-11.1,1.42-3.79,4.8-6.5,8.81-7.04l192.07-26.3c3.14-.43,6.31.52,8.7,2.59l41.76,36.26c3.25,2.82,4.56,7.28,3.34,11.41-1.21,4.13-4.72,7.17-8.98,7.79l-199.88,28.83c-.52.08-1.05.11-1.57.11ZM178.06,436.63l16.56,18.92,170.17-24.54-19.84-17.23-166.89,22.85Z"/>
      </g>
      <g>
        <polygon class="cls-6" points="293.13 426.77 243.83 433.81 243.83 301.55 293.13 301.55 293.13 426.77"/>
        <path class="cls-1" d="M243.83,444.81c-2.63,0-5.19-.94-7.21-2.69-2.41-2.09-3.79-5.12-3.79-8.31v-132.26c0-6.08,4.92-11,11-11h49.3c6.08,0,11,4.92,11,11v125.22c0,5.47-4.03,10.12-9.44,10.89l-49.3,7.04c-.52.07-1.04.11-1.56.11ZM293.13,426.77h.01-.01ZM254.83,312.55v108.58l27.3-3.9v-104.68h-27.3Z"/>
      </g>
      <path class="cls-8" d="M511.17,528.33s-33.48-27.39-75.13-27.13c-29.76.19-48.88,13.1-72,10.43-27.13-3.13-40.52-98.35,115.22-86.61"/>
      <path class="cls-3" d="M359.91,504.46s21.78-27.78,78.13-29.35c56.35-1.57,69.91,16.7,69.91,16.7l-12,23.48s-34.96-25.04-61.04-20.87c-26.09,4.17-53.74,13.04-53.74,13.04"/>
      <path class="cls-1" d="M511.17,542.33c-3.11,0-6.23-1.03-8.83-3.14-.36-.29-30.09-23.99-65.7-23.99-.17,0-.33,0-.5,0-12.62.08-23.42,2.85-33.87,5.53-12.43,3.19-25.28,6.49-39.82,4.81-18.2-2.1-31.18-22.89-28.94-46.34,1.17-12.28,7.56-35.33,37.19-51.84,25.77-14.35,62.65-19.84,109.63-16.3,7.71.58,13.49,7.3,12.91,15.01-.58,7.71-7.3,13.5-15.01,12.91-37.98-2.86-68.97.82-89.62,10.64-18.16,8.64-24.38,19.82-26.41,27.68-2.92,11.32,1.76,19.33,3.73,20.45,9.31,1.01,18.62-1.38,29.39-4.14,11.53-2.96,24.59-6.31,40.66-6.41.23,0,.45,0,.68,0,45.85,0,81.89,29.05,83.41,30.3,5.98,4.9,6.87,13.72,1.97,19.7-2.77,3.38-6.79,5.13-10.84,5.13Z"/>
      <g>
        <polygon class="cls-6" points="491.78 353.42 14 414.46 14 91.64 491.78 57.59 491.78 353.42"/>
        <path class="cls-1" d="M14,428.46c-3.39,0-6.68-1.23-9.25-3.49-3.02-2.66-4.75-6.49-4.75-10.51V91.64c0-7.35,5.68-13.44,13-13.96l477.78-34.04c3.88-.27,7.69,1.07,10.54,3.72,2.84,2.65,4.46,6.36,4.46,10.25v295.83c0,7.05-5.24,12.99-12.23,13.89L15.77,428.35c-.59.08-1.19.11-1.77.11ZM28,104.67v293.89l449.78-57.47V72.62L28,104.67ZM491.78,353.42h0,0Z"/>
      </g>
      <g>
        <polygon class="cls-5" points="43.35 117.6 466.74 87.14 466.74 328.15 43.35 382.77 43.35 117.6"/>
        <path class="cls-1" d="M43.35,387.27c-1.09,0-2.15-.39-2.97-1.12-.97-.85-1.53-2.09-1.53-3.38V117.6c0-2.36,1.82-4.32,4.18-4.49l423.39-30.46c1.25-.09,2.47.34,3.39,1.19.92.85,1.43,2.04,1.43,3.29v241.01c0,2.26-1.68,4.17-3.92,4.46l-423.39,54.62c-.19.03-.38.04-.58.04ZM47.85,121.79v255.86l414.39-53.45V91.98L47.85,121.79Z"/>
      </g>
      <g>
        <path class="cls-8" d="M765.52,402.94s54.78,7.83,94.3-33.26c4.21-4.38,10.96-13.3,13.3-28.96,3.15-21.03,13.11-35.41,39.52-28.83,38.99,9.72,47.11,67.4,11.48,118.7-40.96,58.96-133.04,78.78-224.87,36.52"/>
        <path class="cls-3" d="M937.17,350.77s-14.09,62.61-70.43,85.57c-56.35,22.96-153.91-11.48-153.91-11.48,0,0-2.09,42.26,8.87,54.78,10.96,12.52,173.74,30.78,208.7-68.35"/>
        <path class="cls-1" d="M767.29,390.57c31.51-.74,59.86-7.3,82.39-30.71,3.76-4.01,6.23-8.69,7.91-14.3,1.69-5.74,1.94-11.55,3.76-17.51,2.29-8.05,6.11-16.03,12.75-22.15,10.69-10.25,27.02-11.56,40.63-8.16,6.86,1.56,13.45,4.34,19.31,8.28,11.52,7.76,19.6,20.13,23.5,33.03,11.26,38.61-4.83,80.36-29.56,109.98-50.33,58.99-138.52,65.86-208.02,41.39-6.01-2.09-11.92-4.46-17.62-7.28-2.82-1.47-5.6-3-8.3-4.68-5.91-3.67-7.72-11.43-4.05-17.34,2.99-4.81,8.7-6.91,13.9-5.53,3.02.79,5.97,1.74,8.86,2.76,2.05.68,6.11,2.01,8.13,2.77,16.02,5.75,32.58,10.42,49.45,12.58,35.63,4.82,73.51.45,104.89-17.66,16.34-9.31,30.41-22.55,40.33-38.54,11.64-18.67,19.38-41.45,16.16-63.13-1.24-8-4.59-16.44-10.33-21.95-2.53-2.32-5.35-4.27-8.6-5.49-3.69-1.5-8.5-2.39-12.25-2.38-2.66.03-5.22.48-7.16,2.28-3.96,3.93-5.25,10.37-6.23,16.09-2.22,14.93-8.78,29.23-20.26,39.65-17.02,16.6-39.45,27.66-62.58,32.2-13.34,2.62-27.16,3.3-40.54.55-3.61-.67-5.69-4.74-4.14-8.05,0,0,7.68-16.69,7.68-16.69h0Z"/>
      </g>
      <circle class="cls-8" cx="622.7" cy="301.33" r="216.39"/>
      <path class="cls-3" d="M801.91,299.05c0,57.45-20.36,109.94-53.98,150.07h37.51c36.18-38.68,58.34-90.65,58.34-147.79,0-105.49-75.48-193.35-175.38-212.51,78.48,34.74,133.51,115.79,133.51,210.23Z"/>
      <path class="cls-1" d="M622.7,532.72c-61.81,0-119.91-24.07-163.62-67.77-43.7-43.7-67.77-101.81-67.77-163.62s24.07-119.91,67.77-163.62,101.81-67.77,163.62-67.77,119.91,24.07,163.62,67.77,67.77,101.81,67.77,163.62-24.07,119.91-67.77,163.62c-43.7,43.7-101.81,67.77-163.62,67.77ZM622.7,99.94c-111.05,0-201.39,90.34-201.39,201.39s90.34,201.39,201.39,201.39,201.39-90.34,201.39-201.39-90.34-201.39-201.39-201.39Z"/>
      <g>
        <circle class="cls-1" cx="522" cy="198.42" r="23.61"/>
        <circle class="cls-1" cx="572.61" cy="155.11" r="21.78"/>
        <circle class="cls-1" cx="597.72" cy="204.74" r="15.91"/>
        <circle class="cls-1" cx="630.26" cy="133.59" r="13.17"/>
      </g>
      <g>
        <circle class="cls-1" cx="502.96" cy="316.07" r="44.61"/>
        <circle class="cls-5" cx="490.24" cy="307.29" r="15.46"/>
      </g>
      <path class="cls-1" d="M439.97,385.41c4.48,9.14,16.28,12.35,24.73,7.12,2.81-1.7,5.2-4.4,6.89-7.74,3.01-5.6,9.99-7.69,15.59-4.68,5,2.69,7.2,8.56,5.46,13.77-2.5,7.49-7.59,14.43-14.18,19-13.32,9.51-32.36,9.5-45.68,0-6.59-4.57-11.68-11.51-14.19-19-4.13-13.93,14.91-21.35,21.38-8.47h0Z"/>
      <g>
        <path class="cls-8" d="M760.04,449.11s14.87,40.7,57.91,46.57c27.93,3.81,48.78-26.22,69.65-10.57,18.97,14.23,16.45,80.62-58.96,95.22-80.87,15.65-151.96-60-150.78-84.26"/>
        <path class="cls-3" d="M884.48,529.72s-37.57,25.43-97.04,13.3c-59.48-12.13-85.3-68.87-97.43-63.39-12.13,5.48,10.96,92.74,104.48,99.78,93.52,7.04,98.61-48.52,98.61-48.52"/>
        <path class="cls-1" d="M771.78,444.82c4.71,6.35,8.9,13.58,14.48,19.36,8.35,8.86,18.72,14.81,30.51,17.01,3.3.65,6.62.94,10,.38,8.12-1.26,15.67-5.44,24.01-9.09,7.73-3.58,19.31-7.55,29.37-5.71,20.97,3.72,30.61,21.64,31.58,41.08.81,17.19-4.47,33.45-14.02,47.24-13.23,19.12-34.56,31.34-56.71,37.06-60.07,16.45-124.47-13.91-161.94-61.18-5.39-7.16-9.96-14.59-12.49-23.48-1-3.88-1.65-7.65-1.19-12.03.33-6.9,6.19-12.21,13.09-11.88,6.9.33,12.21,6.19,11.88,13.09.17-.02.31.27.5.7,1.66,3.82,4.05,7.78,6.61,11.39,30.3,42.03,87.99,70.93,139.27,54.81,17.32-5.11,33.89-15.83,41.77-32.48,4.55-9.61,6.48-21.62,2.68-31.19-.64-1.58-1.21-2.29-1.91-3.18-.22-.1-.17-.21-.45-.35-.95-.69-2.2-1.35-3.23-1.49-4.36-.36-7.88,1.3-13.37,3.58-4.15,1.81-8.77,4.07-13.94,6.14-9.43,3.97-21.68,6.72-32.46,5.02-24.92-3.23-47.44-18.83-60.55-39.87-3.08-5.09-5.57-10.55-6.98-16.36-5.07-15.76,17.15-23.95,23.48-8.58h0Z"/>
      </g>
      <g>
        <path class="cls-8" d="M515.61,470.81s-13.44,63.41-50.62,85.87c-24.13,14.58-55.18-4.72-68.13,17.93-11.77,20.59,16.88,80.53,91.89,64.02,80.44-17.71,111.77-112.25,110.21-138.08"/>
        <path class="cls-3" d="M417.43,614.32s44.57,8.45,94.36-26.28c49.79-34.73,56.64-97.1,69.95-96.88,13.31.22,21.07,89.52-61.98,133.08-83.06,43.56-109.77-5.43-109.77-5.43"/>
        <path class="cls-1" d="M523.28,476.14c-.42,11.25-3.28,22.19-7.11,32.75-8.95,24.49-23.47,49.38-47.89,62.06-8.64,4.38-19.57,5.93-28.44,5.99-8.83.35-19.22-1.12-26.29,1.04-2.29.84-3.15,1.74-4.36,3.84-.66,1.78-.67,3.47-.48,5.73.72,6.95,4.52,14.44,9.21,20.03,16.77,20.35,46.03,22.72,70.52,16.43,54.8-12.89,91.94-68.25,95.8-122.69.47-6.91,6.46-12.13,13.37-11.65,5.74.39,10.32,4.61,11.43,9.99.97,4.81,1.13,9.25,1.02,13.95-.8,18.53-7.06,36.33-14.78,52.86-14.56,30.43-37.88,57.23-68.01,73.12-47.66,25.4-115.23,24.72-141.66-29.9-5.92-12.8-8.58-30.09-.6-43.05,3.92-6.9,11.69-13.22,19.31-15.58,11.35-3.92,24.06-2.29,35.02-2.45,8.33-.12,14.85-1.16,21.2-5.87,14.08-9.97,23.21-26.9,29.29-43.4,2.72-7.58,5.18-15.98,7.65-23.69,0,0,.54-1.66.54-1.66l.27-.8c.09-.24.18-.57.25-.66l2.99-4.07c7.16-9.55,22.17-4.12,21.74,7.68h0Z"/>
      </g>
      <g>
        <path class="cls-8" d="M783.24,584.31c-18.33-24.07-50.11,10.86-80.02-30.33-7.9-10.87-12.68-22.35-15.49-33.14.06-1.38.1-2.77.1-4.16,0-9.02-1.34-17.66-3.8-25.65,0-2.33.08-24.47.19-26.43h-86v75.09c3.28,7.7,6.4,15.46,9.46,23.25,2.85,5.25,5.75,10.48,8.5,15.77,1.85-1.05,4.74-.4,5.24,2.01.71,3.39,1.11,6.8,1.35,10.23.98.06,1.97.09,2.97.09,1.97,0,3.92-.12,5.85-.34,7.4,28.17,27.84,60.42,81.02,63.47,69.95,4.01,87.17-48.12,70.63-69.85Z"/>
        <path class="cls-3" d="M773.26,632.64s-43.43,1.57-81.78-18.78c-38.35-20.35-81.78-76.04-81.78-76.04,0,0-2.61,55.83,57.91,99.91,32.9,23.96,90,11.74,90,11.74"/>
        <path class="cls-1" d="M697.84,475.19c.14.02.19.39.25.63.89,4.36.03,8.77.03,13.2-.09,4.78.14,9.57.67,14.3,1.64,14.1,6.02,27.52,13.78,39.24,4.61,6.91,10.11,13.3,17.32,16.44,8.01,3.39,15.75,2.32,25.4,1.79,11.02-.9,23.93.37,33.05,8.21,15.84,12.79,18.74,36.26,11.03,53.89-5.23,12.79-15.42,23.44-26.94,30.5-21.57,13.08-46.9,16.27-71.35,14.62-72.66-5.72-105.85-76.67-115.35-140.65-1.68-11.52-3.27-22.56-1.57-34.4,2.32-14,21.87-14.38,24.86-.69,1.01,4.96,1.74,10.25,2.41,15.55,3.87,34.59,12.76,70.61,33.76,98.77,17.71,23.78,43.13,35.13,72.56,33.12,21.14-1.12,45.82-7.8,54.93-27.92,2.92-6.83,3.03-15.62-2.57-20.56-.73-.6-1.34-.94-2.33-1.27-1.9-.7-5.88-.88-10.92-.56-21.4,1.88-39.42-.11-55.88-16.26-22.12-22.29-31.66-54.03-30.98-84.72.17-6.26.4-12.69,3.38-18.4,4.07-16.05,27.25-11.2,24.45,5.19h0Z"/>
      </g>
      <g>
        <path class="cls-2" d="M248.11,229.49c-2.8,4.22-4.43,9.11-4.43,14.2l-107.98,8.88c-.31-32.37,13.57-62.87,36.35-86.34l76.06,63.25Z"/>
        <path class="cls-9" d="M266.22,122.15l-.27,94.58c-3.27.9-6.33,2.3-9.07,4.1l-75.5-63.38c23.1-19.88,52.84-32.85,84.85-35.31Z"/>
        <path class="cls-4" d="M356.96,149.27l-69.92,69.34c-2.67-1.38-5.66-2.33-8.87-2.75l.38-94.12c30.88.28,58.14,10.66,78.41,27.53Z"/>
        <path class="cls-7" d="M394.74,231.27l-95.07,7.82c.03-4.99-1.49-9.52-4.17-13.25l69.45-69.23c19.03,19.36,30.23,45.44,29.79,74.65Z"/>
        <path class="cls-1" d="M257.27,242.58c.02-7.45,6.65-14,14.77-14.62s14.54,4.85,14.5,12.21c-.04,7.35-6.55,13.87-14.6,14.57s-14.69-4.73-14.68-12.16Z"/>
        <g>
          <path class="cls-1" d="M138.99,339.95l-.59-63.4,25.68-2.35c4.91-.45,9.04-.76,12.41-.92,3.36-.16,6.12-.17,8.28-.03,3.71.29,7.02,1.06,9.92,2.33,3.17,1.41,5.57,3.37,7.19,5.87,1.7,2.38,2.55,5.18,2.56,8.4.01,4.77-1.62,8.84-4.92,12.23-3.22,3.39-8.02,5.88-14.41,7.49l23.67,22.29-26.65,3.09-20.39-22.17.18,24.51-22.95,2.66ZM161.7,304.24l4.5-.46c5.28-.54,9.08-1.55,11.4-3.01,2.35-1.61,3.52-3.7,3.51-6.29-.02-3.13-1.13-5.25-3.34-6.34-2.26-1.12-6.02-1.43-11.32-.92l-4.87.47.12,16.56Z"/>
          <path class="cls-1" d="M218.23,330.77l-.1-61.51,23.31-2.13-.03,60.96-23.17,2.69Z"/>
          <path class="cls-1" d="M263.3,306.1c3.42,2.43,6.69,4.14,9.79,5.13,3.25,1.01,6.42,1.33,9.5.99,2.9-.32,5.3-1.17,7.21-2.55,1.9-1.38,2.86-2.96,2.87-4.75.01-1.95-.77-3.4-2.33-4.35-1.68-.88-5.39-1.59-11.16-2.12-7.91-.75-13.54-2.22-16.86-4.41-3.37-2.24-5.05-5.61-5.04-10.09.01-5.81,2.67-10.8,7.97-14.95,5.2-4.15,11.98-6.61,20.29-7.36,4.67-.42,8.88-.36,12.63.2,3.94.54,7.66,1.53,11.17,2.97l-6.89,12.35c-2.39-1.32-4.92-2.27-7.62-2.85-2.63-.54-5.21-.69-7.74-.44-2.58.25-4.73.93-6.47,2.06-1.67,1.07-2.5,2.36-2.51,3.86,0,1.45.71,2.59,2.15,3.41,1.51.75,4.34,1.33,8.49,1.73.15.01.27.02.38.02.11,0,.27.02.5.05,8.9.87,14.73,2.26,17.54,4.16,1.83,1.19,3.26,2.78,4.29,4.78.92,1.9,1.37,4.11,1.35,6.64-.05,6.25-2.83,11.6-8.37,16.07-5.6,4.44-13.02,7.21-22.32,8.29-5.75.67-10.9.58-15.44-.29-4.56-.87-9.08-2.6-13.54-5.19l10.14-13.36Z"/>
          <path class="cls-1" d="M324.67,318.43l.51-58.98,20.96-1.92-.28,26.64,24.39-28.85,23.73-2.17-28.01,30.9,29.5,26.17-25.25,2.93-24.42-23.3-.28,26.16-20.85,2.42Z"/>
        </g>
        <path class="cls-1" d="M267.89,246.36l-1.7-12.76,27.19-21.58c1.42-1.12,3.36.15,2.62,1.71l-14.08,29.87-14.03,2.76Z"/>
      </g>
      <g>
        <path class="cls-1" d="M60.14,16.66l16.03,43.51-11.06.72-3.18-8.97-14.31.89-2.32,9.36-9.15.59,12-45.46,11.99-.64ZM49.69,44.43l9.38-.57-5.44-15.33-3.94,15.89Z"/>
        <path class="cls-1" d="M116.76,13.62l2.28,43.77-8.58.56-18.46-28.67c.06.75.11,1.25.14,1.48.12.75.2,1.38.23,1.9l1.36,26.37-7.93.51-2.28-44.14,10.97-.59,16.03,25.07c-.19-1.28-.31-2.25-.34-2.91l-1.19-22.93,7.77-.42Z"/>
        <path class="cls-1" d="M150.92,11.79l15.43,42.54-10.56.68-3.06-8.77-13.67.85-2.19,9.14-8.74.57,11.34-44.4,11.46-.62ZM141.02,38.91l8.96-.54-5.24-14.98-3.72,15.52Z"/>
        <path class="cls-1" d="M184.97,44.57l16.41-1.03.45,8.48-26.27,1.7-2.29-43.14,9.86-.53,1.84,34.51Z"/>
        <path class="cls-1" d="M234.54,7.3l-11.39,25.33.97,17.95-9.51.62-.97-18-14.19-24.02,11.13-.6,8.64,15.72,6.84-16.55,8.49-.46Z"/>
        <path class="cls-1" d="M270.66,12.62l-18.64,28.04,20.74-1.3.44,8.05-32.22,2.09-.39-7.21,18.71-28.31-18.82,1.05-.43-8.01,30.23-1.62.4,7.24Z"/>
        <path class="cls-1" d="M289.67,4.34l2.3,41.85-9.18.6-2.3-41.95,9.18-.49Z"/>
        <path class="cls-1" d="M331.61,2.09l2.3,41.38-7.68.5-16.67-27.15c.06.71.1,1.18.13,1.4.11.71.19,1.3.21,1.79l1.38,24.92-7.09.46-2.3-41.71,9.8-.53,14.49,23.74c-.18-1.21-.29-2.13-.32-2.75l-1.2-21.68,6.95-.37Z"/>
        <path class="cls-1" d="M374.08,18.89l1.23,21.89-4.01.26c-.38-1.52-.88-3.07-1.52-4.63-2.48,3.74-5.81,5.74-9.98,6.01-4.94.32-8.9-1.35-11.87-5.02-2.98-3.67-4.64-8.57-4.98-14.68-.37-6.57.81-11.93,3.54-16.08,2.72-4.14,6.59-6.35,11.62-6.61,4.2-.23,7.66.87,10.37,3.3,2.71,2.42,4.47,5.74,5.28,9.96l-8.3,1.68c-.96-4.93-3.26-7.29-6.91-7.09-2.4.13-4.15,1.41-5.25,3.84-1.1,2.43-1.53,5.84-1.28,10.22.24,4.22,1.08,7.41,2.54,9.56,1.46,2.15,3.41,3.14,5.87,2.99,1.59-.1,2.97-.75,4.15-1.95,1.18-1.2,1.7-3.03,1.56-5.5l-7.1.43-.43-7.68,15.47-.91Z"/>
        <path class="cls-1" d="M394.08,39.57l-8.42.55-.52-9.24,8.42-.52.52,9.22Z"/>
        <path class="cls-1" d="M412.48,38.37l-8.33.54-.52-9.2,8.33-.52.52,9.17Z"/>
        <path class="cls-1" d="M430.72,37.19l-8.25.53-.52-9.15,8.25-.51.52,9.13Z"/>
        <path class="cls-1" d="M448.74,36.02l-8.17.53-.52-9.1,8.17-.51.52,9.08Z"/>
        <path class="cls-1" d="M466.61,34.87l-8.09.52-.52-9.06,8.09-.5.52,9.04Z"/>
      </g>
    </g>
  </g>
</svg>