<?xml version="1.0" encoding="UTF-8"?>
<svg id="Delphi" xmlns="http://www.w3.org/2000/svg" viewBox="0 0 1165 800">
  <defs>
    <style>
      .cls-1 {
        fill: #fff;
      }

      .cls-2 {
        fill: #f4901e;
      }

      .cls-3 {
        fill: #d1f0e8;
      }

      .cls-4 {
        fill: #182d33;
      }

      .cls-5 {
        fill: #efefef;
      }

      .cls-6 {
        fill: #0d9488;
      }
    </style>
  </defs>
  <g>
    <path class="cls-4" d="m680.28,267.95c-17.94,0-42.72-3.85-79.45-21.27-18.6-8.83-41.75-14.9-64.13-20.78-24.07-6.32-46.81-12.29-64.07-21.54-22.87-12.25-33.12-29.2-30.48-50.37,2.55-20.44,13.27-34.67,31.87-42.32,14.58-5.99,32.22-7.36,50.89-8.8,16.44-1.27,33.44-2.58,48.87-7.12,50.36-14.81,107.38-41.99,107.95-42.26,6.98-3.34,15.33-.39,18.67,6.58,3.34,6.97.39,15.33-6.58,18.67-2.41,1.15-59.58,28.41-112.14,43.87-18.25,5.37-37.57,6.86-54.61,8.18-39.43,3.05-54.57,6.13-57.13,26.67-2.47,19.83,26.26,28.85,73.88,41.36,23.63,6.21,48.06,12.62,69.02,22.57,46.01,21.82,67.49,19.32,84.75,17.31,3.89-.45,7.56-.88,11.33-1.03,7.75-.28,14.24,5.71,14.55,13.43.31,7.73-5.7,14.24-13.43,14.55-2.71.11-5.72.46-9.21.87-5.77.67-12.46,1.45-20.54,1.45Z"/>
    <path class="cls-4" d="m646.92,254.49c-3.53,0-6.94-1.87-8.77-5.17-25.86-46.91-28.25-87.78-25.71-113.8,2.8-28.62,11.97-46.14,12.36-46.87,2.59-4.88,8.65-6.73,13.52-4.14,4.87,2.59,6.72,8.62,4.15,13.49h0c-.08.15-7.95,15.47-10.22,40.46-3.04,33.45,4.83,67.5,23.41,101.2,2.67,4.84.91,10.92-3.93,13.58-1.53.84-3.19,1.24-4.82,1.24Z"/>
    <path class="cls-4" d="m575.42,221.81c-4.35,0-8.35-2.86-9.61-7.24-11.65-40.59-5.36-97.81-5.09-100.22.62-5.49,5.59-9.43,11.06-8.81,5.49.62,9.43,5.57,8.81,11.06h0c-.06.55-6.1,55.72,4.44,92.46,1.52,5.31-1.55,10.85-6.85,12.37-.92.26-1.85.39-2.76.39Z"/>
    <path class="cls-4" d="m525.73,235.77c-3.79,0-7.42-2.17-9.1-5.84-15.75-34.44-3.66-104.38-3.14-107.34.96-5.44,6.14-9.07,11.59-8.11,5.44.96,9.07,6.14,8.11,11.58h0c-3.25,18.48-9.3,71.67,1.63,95.55,2.3,5.02.09,10.96-4.93,13.25-1.35.62-2.76.91-4.15.91Z"/>
    <path class="cls-4" d="m544.82,165.5c-24.87,0-45.51-3.55-46.7-3.76-5.44-.95-9.08-6.14-8.12-11.58.95-5.44,6.13-9.07,11.57-8.12h0c.37.07,37.7,6.46,70.35,1.66,17.93-2.64,36.43-9.38,51.29-14.79,15.01-5.47,24.94-9.09,32.4-8.42,5.5.49,9.57,5.34,9.08,10.84-.49,5.5-5.34,9.57-10.84,9.08-3.22-.2-14.63,3.95-23.8,7.29-15.72,5.73-35.28,12.85-55.23,15.79-10.05,1.48-20.35,2.01-30.02,2.01Z"/>
    <path class="cls-4" d="m636.8,209.28c-14.63,0-32.9-.84-50.21-3.98-8.4-1.52-17.28-3.12-26.25-4.73-29.26-5.26-59.51-10.7-78.08-14.36-5.42-1.07-8.95-6.33-7.88-11.75,1.07-5.42,6.33-8.94,11.75-7.88,18.4,3.63,48.57,9.05,77.75,14.3,8.98,1.61,17.86,3.21,26.27,4.73,33.93,6.14,73.51,2.64,73.91,2.61,5.5-.5,10.37,3.55,10.87,9.05.5,5.5-3.54,10.36-9.04,10.87-.91.08-12.73,1.13-29.07,1.13Z"/>
    <path class="cls-4" d="m691.36,145.31c-4.35,0-8.36-2.86-9.61-7.26-1.52-5.31,1.56-10.84,6.87-12.36,2.01-.57,19.94-5.6,31.44-5.6,5.52,0,10,4.48,10,10s-4.48,10-10,10c-7.41,0-21.24,3.49-25.95,4.83-.92.26-1.84.39-2.75.39Z"/>
    <path class="cls-4" d="m696.44,192.65c-4.87,0-9.14-3.56-9.88-8.52-.82-5.46,2.95-10.55,8.41-11.37,2.88-.43,28.34-4.23,33.92-4.76,5.49-.52,10.38,3.51,10.9,9.01.52,5.5-3.51,10.38-9.01,10.9-4.28.41-25.17,3.48-32.86,4.63-.5.08-1,.11-1.49.11Z"/>
  </g>
  <g>
    <path class="cls-6" d="m764.66,318.59c-2.76-7.08-5.27-14.25-7.75-21.43-18.85-12.22-40.09-25.62-40.09-25.62,0,0-16.54,34.27-51.16,67.15-34.62,32.87-73.51,34.65-73.51,34.65l-28.6,117.6c3.58,4.59,93.53-13.81,145.9-62.74,32.86-30.71,53.93-64.14,65.36-86.3-3.67-7.66-7.07-15.42-10.14-23.3Z"/>
    <path class="cls-3" d="m764.66,318.59c-1.63-4.17-3.15-8.37-4.65-12.58-.44.34-.83.8-1.16,1.41-4.97,9.28-27.98,58.77-85.05,105.47-36.12,29.56-92.71,37.71-92.71,37.71l-17.26,24.61c-4.99,19.81,17.31,12.79,17.31,12.79l26.26-1.8s59.49-22.92,107.38-62.45c30.87-25.48,50.12-60.46,59.91-82.1-3.62-7.58-6.99-15.27-10.03-23.06Z"/>
    <path class="cls-4" d="m569.67,505.38c-2.64,0-5.37-.18-8.17-.59-7.65-1.13-12.93-8.25-11.8-15.9s8.25-12.93,15.9-11.8c6.56.97,13.22-.66,20.94-2.55,2.35-.57,4.76-1.16,7.27-1.71,1.39-.91,3.41-2.03,5.98-2.55,31.94-8.37,58.94-21.15,87.46-41.39,6.62-4.95,12.4-10.56,18.52-16.49,2.01-1.95,4.03-3.91,6.11-5.88,21.43-22.79,37.24-44.91,49.73-69.58,3.49-6.9,11.92-9.66,18.81-6.17,6.9,3.49,9.66,11.91,6.17,18.81-13.6,26.87-31.46,51.87-54.61,76.43-.19.2-.38.39-.58.58-2.09,1.97-4.12,3.94-6.14,5.9-6.53,6.33-13.28,12.88-21.41,18.93-.08.06-.17.13-.26.19-31.12,22.11-60.69,36.17-95.61,45.46-1.5,1.01-3.83,2.35-6.87,2.84-2.59.52-5.17,1.16-7.91,1.82-7.07,1.73-14.87,3.64-23.52,3.64Zm33.5-7.4s-.02,0-.02,0c0,0,.01,0,.02,0Zm.02,0h0,0Zm-4.84-25.87h0,0Z"/>
    <path class="cls-4" d="m592.14,387.34c-7.35,0-13.52-5.73-13.96-13.17-.46-7.72,5.43-14.35,13.14-14.81,13.2-.78,28.65-6.05,43.51-14.82,20.96-12.38,41.22-33.68,60.23-63.31,2.96-4.62,6.38-10.12,9.21-15.88,1.75-3.56,4.94-6.21,8.76-7.29,3.82-1.08,7.92-.48,11.28,1.63,8.27,5.22,17.02,10.79,26,16.54,4.05,2.59,8.09,5.19,12.12,7.81,6.49,4.2,8.35,12.87,4.15,19.36-4.2,6.49-12.87,8.35-19.36,4.15-4-2.59-8.01-5.17-12.03-7.74-4.53-2.9-8.99-5.75-13.37-8.54-1.12,1.83-2.2,3.53-3.19,5.07-21.69,33.83-44.44,57.48-69.56,72.31-13.17,7.77-33.58,17.32-56.08,18.66-.28.02-.56.02-.84.02Z"/>
  </g>
  <g>
    <rect class="cls-5" x="879.43" y="139.3" width="180.78" height="126.14" transform="translate(69.4 -210.84) rotate(12.86)"/>
    <path class="cls-4" d="m1043.91,294.99c-.81,0-1.63-.09-2.46-.28l-176.25-40.25c-2.84-.65-5.31-2.4-6.87-4.87-1.55-2.47-2.06-5.46-1.41-8.3l28.08-122.98c1.35-5.92,7.24-9.63,13.17-8.27l176.25,40.25c5.92,1.35,9.63,7.25,8.27,13.17l-28.08,122.98c-1.16,5.1-5.7,8.55-10.71,8.55Zm-163.08-59.53l154.8,35.35,23.19-101.53-154.8-35.35-23.19,101.53Z"/>
    <path class="cls-4" d="m970.23,209.66c-2.9,0-5.79-1.14-7.95-3.4l-74.49-77.9c-4.2-4.39-4.04-11.35.35-15.55,4.39-4.2,11.35-4.04,15.55.35l74.49,77.9c4.2,4.39,4.04,11.35-.35,15.55-2.13,2.04-4.87,3.05-7.6,3.05Z"/>
    <path class="cls-4" d="m970.88,209.82c-4.45,0-8.65-2.72-10.3-7.14-2.13-5.69.75-12.03,6.44-14.16l100.92-37.84c5.69-2.13,12.03.75,14.16,6.44,2.13,5.69-.75,12.03-6.44,14.16l-100.92,37.84c-1.27.48-2.58.7-3.86.7Z"/>
  </g>
  <g>
    <rect class="cls-5" x="925.39" y="392.07" width="180.78" height="126.14" transform="translate(126.83 -214.73) rotate(12.86)"/>
    <path class="cls-4" d="m1089.86,547.75c-.82,0-1.64-.09-2.45-.28l-176.25-40.25c-5.92-1.35-9.63-7.25-8.27-13.17l28.08-122.98c.65-2.84,2.4-5.31,4.87-6.87,2.47-1.55,5.46-2.06,8.3-1.41l176.25,40.25c5.92,1.35,9.63,7.25,8.27,13.17l-28.08,122.98c-.65,2.84-2.4,5.31-4.87,6.87-1.77,1.11-3.8,1.69-5.85,1.69Zm-163.07-59.52l154.8,35.35,23.19-101.53-154.8-35.35-23.19,101.53Z"/>
    <path class="cls-4" d="m1016.18,462.43c-2.9,0-5.79-1.14-7.95-3.4l-74.49-77.9c-4.2-4.39-4.04-11.35.35-15.55,4.39-4.2,11.35-4.04,15.55.35l74.49,77.9c4.2,4.39,4.04,11.35-.35,15.55-2.13,2.04-4.87,3.05-7.6,3.05Z"/>
    <path class="cls-4" d="m1016.84,462.58c-4.45,0-8.65-2.72-10.3-7.14-2.13-5.69.75-12.03,6.44-14.16l100.92-37.84c5.69-2.13,12.03.75,14.16,6.44,2.13,5.69-.75,12.03-6.44,14.16l-100.92,37.84c-1.27.48-2.58.7-3.86.7Z"/>
  </g>
  <circle class="cls-4" cx="800.98" cy="114.1" r="12.91"/>
  <circle class="cls-4" cx="815.94" cy="368.83" r="12.91"/>
  <circle class="cls-4" cx="188.87" cy="208.49" r="12.91"/>
  <circle class="cls-4" cx="151.09" cy="195.21" r="12.91"/>
  <circle class="cls-4" cx="846.75" cy="344.32" r="12.91"/>
  <path class="cls-4" d="m807.11,56.1c6.19-2.12,12.45-3.43,18.76-4.25,3.45-.45,6.12-3.2,6.55-6.66.01-.12.03-.24.04-.36.87-6.09,1.99-12.17,4.17-18.26.73-2.01,2.33-3.72,4.5-4.5,3.87-1.38,8.12.63,9.5,4.5,2.08,6.09,3.39,12.25,4.21,18.45.45,3.4,3.12,6.09,6.53,6.52,3.24.41,6.46.97,9.66,1.71,3.04.72,6.09,1.56,9.13,2.83,1.76.74,3.27,2.16,4.07,4.07,1.62,3.87-.2,8.31-4.07,9.93-5.95,2.41-12.03,3.62-18.26,4.48-.04,0-.08.01-.13.02-3.44.44-6.18,3.1-6.63,6.54-.41,3.14-.96,6.26-1.67,9.36-.72,3.04-1.56,6.09-2.83,9.13-.74,1.76-2.16,3.27-4.07,4.07-3.87,1.62-8.31-.2-9.93-4.07-2.41-5.95-3.62-12.03-4.48-18.26-.02-.14-.04-.29-.06-.43-.44-3.49-3.18-6.21-6.67-6.65-.02,0-.04,0-.06,0-6.09-.87-12.17-1.99-18.26-4.17-2.01-.73-3.72-2.33-4.5-4.5-1.38-3.87.63-8.12,4.5-9.5Z"/>
  <circle class="cls-6" cx="417.23" cy="357.21" r="216.39"/>
  <g>
    <circle class="cls-4" cx="573.55" cy="319.23" r="44.61"/>
    <circle class="cls-1" cx="590.45" cy="310" r="15.46"/>
  </g>
  <g>
    <circle class="cls-4" cx="372.38" cy="351.49" r="44.61"/>
    <circle class="cls-1" cx="389.28" cy="342.26" r="15.46"/>
  </g>
  <path class="cls-3" d="m236.9,387.37c9.06,56.73,57,114.8,99.45,143.76l-28.21,24.81c-41.83-32.49-100.21-107.43-109.22-163.86-16.64-104.17,44.03-202.84,139.66-237.52-72.02,46.69-116.57,139.55-101.67,232.8Z"/>
  <path class="cls-4" d="m416.74,588.65c-48.36,0-95.35-15.14-135.27-44.06-50.05-36.26-82.99-89.84-92.74-150.88h0c-9.75-61.03,4.85-122.21,41.11-172.26,36.26-50.05,89.85-82.99,150.88-92.74,61.04-9.75,122.21,4.85,172.26,41.11,50.05,36.26,82.99,89.85,92.74,150.88,9.75,61.03-4.85,122.21-41.11,172.26-36.26,50.05-89.84,82.99-150.88,92.74-12.36,1.97-24.72,2.95-37,2.95Zm-198.38-199.67c17.52,109.66,120.98,184.62,230.64,167.1,109.66-17.52,184.62-120.98,167.1-230.64-8.49-53.12-37.15-99.76-80.71-131.32-43.56-31.56-96.81-44.27-149.93-35.78-53.12,8.49-99.76,37.15-131.32,80.71-31.56,43.56-44.27,96.81-35.78,149.93Z"/>
  <g>
    <path class="cls-4" d="m567.89,193.17c1.33,2.05,2.64,4.12,3.87,6.24,6.48,11.1,12.52,22.6,20.01,33.07-3.37,3.29-7.74,5.61-12.74,6.42-12.87,2.06-24.98-6.7-27.05-19.57-1.86-11.61,5.08-22.6,15.91-26.16Z"/>
    <circle class="cls-4" cx="518.46" cy="180.84" r="21.78"/>
    <circle class="cls-4" cx="501.53" cy="233.82" r="15.91"/>
    <circle class="cls-4" cx="458.13" cy="168.72" r="13.17"/>
  </g>
  <path class="cls-4" d="m515.05,360.65c-2.53,16.24-16.23,29.27-32.42,31.7-16.13,2.76-33.23-5.33-40.7-19.97-6.15-12.68,10.58-23.18,19.35-12.31,2.19,3.04,4.98,5.32,8.02,6.56,9.6,3.93,20.65-1.46,23.52-11.61,4.99-13.18,24.14-8.22,22.23,5.64h0Z"/>
  <g>
    <path class="cls-6" d="m340.96,521.69s-19.36,43.89-62.38,49.94c-27.92,3.92-48.89-26.02-69.69-10.28-18.91,14.31-16.13,80.69,59.34,94.98,80.93,15.32,151.71-60.62,150.44-84.87"/>
    <path class="cls-3" d="m212.2,605.94s37.67,25.28,97.1,12.91c59.43-12.37,85.02-69.21,97.18-63.79,12.15,5.43-10.58,92.78-104.07,100.21-93.49,7.42-98.8-48.12-98.8-48.12"/>
    <path class="cls-4" d="m352.4,526.73c-3.47,11.03-10.14,20.57-17.89,29.06-15.62,17.32-38.96,30.63-63.02,30.28-12.3-.37-23.53-5.29-33.72-9.94-5.98-2.58-10.35-4.87-15.56-5.16-1.76,0-2.82.46-4.2,1.37-.86.59-.99.73-1.89,2.17-4.66,9.32-2.87,21.17,1.06,30.67,8.58,20.31,29.51,31.97,50.54,36.42,38.61,8.89,79.23-7.1,108.73-32.54,12.19-10.46,22.84-22.81,29.73-36.96-.22-16.57,23.42-17.86,24.97-1.31.82,7.55-1.6,14.77-4.6,21.18-12.06,23.73-35.6,43.7-57.86,57.35-29.27,17.74-64.59,27.19-98.87,21.79-40.09-5.99-77-29.89-84.17-72.38-2.54-16.89-.11-36.97,14.61-48.76,6.18-4.79,14.41-7.66,22.16-7.47,9.63-.02,19.57,4.33,27.05,7.77,9.19,4.07,17.59,8.52,27.11,7.37,14.62-2,27.16-9.83,37.26-20.81,4.97-5.39,9.55-12.01,13.93-17.94,0,0,.93-1.26.93-1.26.26-.35.49-.65.76-.98,2.78-6.14,10.16-9.28,16.54-6.41,6.32,2.79,9.18,10.17,6.39,16.48h0Z"/>
  </g>
  <g>
    <path class="cls-2" d="m364.72,552.33c-5.25,0-10.28-2.97-12.67-8.03l-67.58-143.33c-3.3-6.99-.3-15.34,6.69-18.63s15.34-.3,18.63,6.69l67.58,143.33c3.3,6.99.3,15.34-6.69,18.63-1.93.91-3.96,1.34-5.96,1.34Z"/>
    <path class="cls-4" d="m364.72,561.33c-8.86,0-17.03-5.18-20.81-13.19l-67.58-143.33c-2.62-5.56-2.92-11.8-.84-17.58,2.08-5.78,6.28-10.41,11.84-13.03,5.56-2.62,11.8-2.92,17.58-.84,5.78,2.08,10.41,6.28,13.03,11.84l67.58,143.33c2.62,5.56,2.92,11.8.84,17.58-2.08,5.78-6.28,10.41-11.84,13.03-3.1,1.46-6.39,2.2-9.8,2.2Zm-67.6-171.34c-.73,0-1.45.16-2.13.48-1.21.57-2.12,1.58-2.57,2.83-.45,1.26-.39,2.61.18,3.82l67.58,143.33c.82,1.74,2.6,2.87,4.53,2.87.73,0,1.45-.16,2.12-.48,1.21-.57,2.12-1.58,2.57-2.83.45-1.26.39-2.61-.18-3.82l-67.58-143.33c-.57-1.21-1.58-2.12-2.83-2.57-.55-.2-1.12-.3-1.69-.3Z"/>
  </g>
  <g>
    <path class="cls-6" d="m585.68,470.86s31.08,36.54,74.03,30.07c27.88-4.2,39.43-38.88,63.87-29.74,22.21,8.32,38.48,72.73-29.78,107.96-73.2,37.77-170.55-24.41-176.25-48.02"/>
    <path class="cls-3" d="m733.13,514.88s-28.89,34.98-89.38,40.07-101.24-42.08-111.34-33.41c-10.1,8.67,36.61,85.91,128.33,66.35,91.73-19.56,80.97-74.31,80.97-74.31"/>
    <path class="cls-4" d="m595.21,462.76c-.04-.07.03-.01.06,0,.04.02.08.05.12.08.31.22.58.4.88.64,0,0,1.25.95,1.25.95,0,0,2.57,1.96,2.57,1.96,5.05,3.81,10.52,8.09,15.9,11.26,12.97,7.73,27.47,11.69,42.22,9.22,9.17-1.8,15.81-8.3,23.32-14.7,6.19-5.43,14.47-12.43,23.71-15.16,7.38-2.39,16.09-1.98,23.37.84,22.88,9.34,30.61,38.86,28.09,60.92-3.5,33.22-27.81,58.79-56.44,73.16-52.09,26.6-116.91,14.84-163.58-17.82-7.03-5.17-13.9-11.32-18.83-19.14-2.08-3.47-3.79-6.93-4.59-11.31-1.62-6.71,2.51-13.46,9.22-15.08,6.71-1.62,13.46,2.51,15.08,9.22.16-.07.38.18.69.55,1.51,1.77,3.05,3.44,5.05,5.24,38.09,33.15,101.64,46.89,146.8,21.32,22.41-12.03,41.34-34.19,37.99-60.79-.93-6.79-3.64-15.87-9.45-19.53-3.12-1.3-5.55-.54-8.61,1.31-7.31,4.63-14.42,12.33-22.51,17.97-6.9,5.09-16.45,9.77-25.62,11.02-20.74,3.32-42.82-2.45-60.29-13.17-9.46-5.7-18.23-12.57-24.65-21.62,0,0-.78-1.12-.78-1.12-4.47-5.26-3.83-13.15,1.42-17.62,5.26-4.47,13.15-3.83,17.62,1.42h0Z"/>
  </g>
  <g>
    <path class="cls-6" d="m326.1,656.16c15.49-25.98,51.01,5.13,76.08-39.18,6.62-11.7,10.07-23.64,11.65-34.68-.22-1.36-.41-2.74-.57-4.12-1.02-8.96-.66-17.7.87-25.92-.27-2.31-2.85-24.31-3.18-26.24l116.22-13.22c.11,1.96,2.54,23.97,2.8,26.28,3.34,7.67,5.65,16.1,6.67,25.06.16,1.39.28,2.77.37,4.15,4.02,10.41,10.07,21.27,19.14,31.18,34.38,37.54,62.01-.75,82.94,21.09,18.89,19.71,7.67,73.46-62.28,77.38-53.18,2.98-77.13-26.76-87.67-53.9-1.89.43-3.81.77-5.78,1s-3.91.32-5.85.32c-4.17,28.82-20.83,63.18-73.32,72.22-69.05,11.89-92.05-37.96-78.07-61.42Z"/>
    <path class="cls-3" d="m634.63,669.7s-42.98,6.46-83.38-9.42c-40.4-15.88-58.14-40.25-58.14-40.25,0,0,4.43,42.42,37.12,66.67,32.69,24.24,90.75,1.49,90.75,1.49"/>
    <path class="cls-4" d="m538.12,514.08c1.56,4.12,2.08,8.26,2.61,12.49.56,4.21,1.31,8.43,2.24,12.6,5.05,22,15.27,48.4,35.36,60.15,9.38,5.39,20.56,2.66,31.86.69,7.58-1.29,16.27-1.84,24.11.81,19.03,6.22,28.85,27.08,27.26,45.93-1.05,18.14-11.52,35.31-25.43,45.91-25.41,19.46-61.76,23.25-92.22,17.03-39.42-8.3-64.96-40.44-73.33-78.53-1.17-5.05-1.83-10.23-1.17-15.52,1.77-13.01,19.29-15.35,24.53-3.55,3.53,7.97,4.27,16.57,7.43,24.57,7.89,22.64,24.82,40.47,48.71,45.25,21.78,4.39,50.42,1.86,68.26-11.94,10.27-7.99,17.05-21.13,13.52-33.72-.89-3.06-2.89-6.15-5.58-7.63-3.38-1.47-6.03-.92-11.5-.19-4.12.66-9.02,1.67-14.45,2.3-18.78,2.49-36.13-3.51-49.74-16.64-19.24-18.28-29.54-43.7-35.13-68.91-1.07-4.93-1.93-9.91-2.58-14.94-.7-5.01-.97-10.17.27-15.37,3.23-12.83,20.99-13.25,24.99-.78h0Z"/>
    <path class="cls-3" d="m341.47,703.05s43.33-3.35,79.14-27.91c35.8-24.55,47.61-52.28,47.61-52.28,0,0,5.21,42.33-21.2,73.3-26.41,30.97-88.1,21.84-88.1,21.84"/>
    <path class="cls-4" d="m424.57,530.12c2.84,4.66,3.8,10.03,4.37,15.33.59,5.07.95,10.15,1,15.25.27,20.61-3.94,41.55-13.59,60.03-7.83,15.65-20.83,29.58-38.28,34.33-5.81,1.69-11.48,2.37-16.55,2.73-5.06.36-9.62.46-13.22.86-3.61.51-6.52.76-8.76,3.38-5.75,7.67-2.28,18.95,3.59,26.49,14.33,17.83,40.72,18.64,62.02,14.33,15.4-3.05,30.13-9.38,40.79-20.66,10.65-11.15,16.22-26.15,18.03-41.62,1.17-8.11.15-16.38,1.53-24.51,1.88-13.46,20.15-15.41,24.84-2.83,3.44,9.92,2.42,20.33,1.5,30.57-3.28,32.64-21.3,62.56-51.43,77.06-37.45,17.74-91.38,20.89-120.02-14.46-16.62-20.43-18.75-54.63,5.62-70.38,5.6-3.57,12.89-5.4,19.12-6.01,12.22-1.4,23.22.38,33.04-6.4,10.93-7.89,17.92-24.78,21.05-38.44,2.65-11.78,3.15-24.38,1.78-36.47-.42-3.76-1.24-7.5-.69-11.27.02-.11.03-.24.07-.34.03-.08.04-.25.12-.21-3.87-16.08,18.88-22.61,24.06-6.79h0Z"/>
  </g>
  <g>
    <path class="cls-6" d="m240.79,505.94c12.94-33.02,34.25-68.07,49.36-78.98,18.38-13.28,42.44-13.8,59.06,10.04,18.04,25.87-8.18,88.26-46.47,120.34-30.65,25.68-71.65,23.78-97.53-1.87-53.91-53.44,35.23-144.51,35.23-144.51l26.89,29.62"/>
    <path class="cls-3" d="m338.41,440.13s-14.61,73.57-56.35,100.17c-41.74,26.61-63.13,17.22-63.13,17.22,0,0,22.25,20.9,59.65,14.1s73.4-61.58,74.96-114.8"/>
    <path class="cls-4" d="m253.97,589.78c-21.33,0-42.25-8.15-58.61-24.36-15.1-14.97-22.61-33.22-22.3-54.23.23-15.8,4.98-32.96,14.13-51.01,14.89-29.4,36.5-51.48,37.42-52.4,5.43-5.51,14.29-5.57,19.8-.14,5.5,5.43,5.57,14.29.14,19.79-1.04,1.06-72.72,75.24-29.48,118.1,21.23,21.04,54.32,21.5,78.68,1.08,16.62-13.92,31.7-35.21,40.34-56.94,7.67-19.29,9.1-36.82,3.63-44.66-5.17-7.41-11.17-11.75-17.84-12.88-6.78-1.15-14.43,1.04-21.54,6.18-10.75,7.76-30.83,37.78-44.52,72.74-2.82,7.2-10.94,10.75-18.14,7.93-7.2-2.82-10.75-10.94-7.93-18.14,12.51-31.93,35.14-71.46,54.2-85.22,13.24-9.56,28.38-13.5,42.62-11.08,14.15,2.4,26.64,10.86,36.12,24.47,23.91,34.29-7.23,104.12-48.96,139.08-17.3,14.49-37.71,21.7-57.77,21.7Z"/>
  </g>
  <g>
    <path class="cls-2" d="m741.18,239.65l-28.45.95,36.37,167.05c1.46,6.71,7.51,11.24,14.13,11.02.83-.03,1.68-.13,2.53-.32,7.56-1.64,12.35-9.1,10.7-16.66l-35.28-162.05Z"/>
    <path class="cls-4" d="m762.75,427.68c-10.76,0-20.13-7.51-22.44-18.11l-38.67-177.6,46.74-1.57,36.88,169.38c1.31,6,.2,12.16-3.12,17.32-3.32,5.17-8.46,8.74-14.46,10.04-1.36.3-2.76.47-4.14.52-.26,0-.52.01-.78.01Zm-38.93-178.44l34.07,156.5c.51,2.36,2.64,4.03,5.04,3.94.31,0,.61-.05.91-.11,1.31-.29,2.43-1.06,3.15-2.18.72-1.12.96-2.46.68-3.77l-33.68-154.72-10.16.34Z"/>
  </g>
  <g>
    <path class="cls-2" d="m722.18,258.55c-29.68.99-53.09-44.02-61.29-91.12-4.26-24.5-4.38-48.43-.33-67.37,6.69-31.3,22.43-38.54,31.22-40.07,31.61-5.5,56.8,41.46,65.36,90.69,8.56,49.23.7,101.94-30.89,107.44-1.37.24-2.73.38-4.08.42Zm-25.53-170.98s-.05,0-.07,0c-.81.14-5.56,3.89-8.64,18.33-3.27,15.3-3.07,35.97.53,56.72,3.61,20.75,10.41,40.27,18.65,53.57,7.78,12.55,13.53,14.47,14.33,14.34.81-.14,5.56-3.89,8.64-18.33,3.27-15.3,3.07-35.97-.53-56.72-3.61-20.75-10.41-40.27-18.65-53.57-7.59-12.24-13.24-14.38-14.26-14.34Z"/>
    <path class="cls-4" d="m721.2,267.57c-16.74,0-32.4-10.96-45.35-31.79-10.91-17.54-19.37-41.26-23.81-66.8-4.46-25.61-4.55-50.75-.26-70.79,7.79-36.47,27.46-45.13,38.48-47.05,12.88-2.25,32.08.92,50.38,28.74,11.69,17.77,20.71,42.38,25.39,69.27,9.04,51.98.94,111.03-38.22,117.85-1.77.31-3.56.49-5.32.55-.43.01-.86.02-1.29.02Zm-24.43-199c-1.13,0-2.27.1-3.43.3-6.56,1.14-18.38,6.95-23.97,33.08-3.81,17.85-3.67,40.56.4,63.95,8.34,47.94,30.39,83.67,51.5,83.67.21,0,.42,0,.62-.01h0c.93-.03,1.89-.13,2.83-.3,24.57-4.28,31.28-52.69,23.57-97.03-4.2-24.17-12.47-46.94-22.69-62.47-6.54-9.94-16.64-21.2-28.83-21.2Zm24.66,170.97c-6.67,0-14.55-6.66-21.95-18.59-8.83-14.24-16.07-34.93-19.87-56.77-3.8-21.84-3.97-43.76-.47-60.14,3.15-14.73,8.85-23.92,15.68-25.28l.7-.14.83-.04c6.67-.18,14.74,6.56,22.21,18.59,8.83,14.24,16.07,34.93,19.87,56.77,3.8,21.84,3.97,43.76.47,60.14-3.18,14.88-8.97,24.11-15.9,25.32-.52.09-1.04.13-1.58.13Zm-22.61-139.14c-.68,1.86-1.4,4.29-2.07,7.4-3.04,14.21-2.82,33.64.6,53.3,3.42,19.66,9.77,38.01,17.43,50.37,1.68,2.71,3.18,4.75,4.45,6.27.68-1.86,1.4-4.28,2.07-7.4,3.04-14.22,2.82-33.64-.6-53.3-3.42-19.66-9.77-38.01-17.43-50.37-1.68-2.71-3.18-4.75-4.45-6.27Z"/>
  </g>
  <g>
    <path class="cls-4" d="m92.37,448.72c-22.85,0-41.88-7.52-52.84-21.93-12.85-16.9-11.57-39.87,3.44-61.43,17.95-25.78,50.45-49.83,105.38-77.97,41.79-21.41,54.66-48.22,54.78-48.49,3.15-7.06,11.43-10.23,18.49-7.08,7.06,3.15,10.23,11.43,7.08,18.49-.65,1.45-16.42,35.79-67.58,62-49.95,25.59-80.19,47.53-95.17,69.05-4.6,6.62-11.26,19.11-4.14,28.49,7.87,10.35,31.49,16.17,64.75,4.5,32.45-11.38,59.39-11.09,83.16-10.84,28.54.31,51.08.54,76.56-19.04,6.13-4.71,14.92-3.56,19.63,2.57,4.71,6.13,3.56,14.92-2.57,19.63-33.16,25.48-64.05,25.15-93.92,24.83-22.51-.24-45.79-.49-73.59,9.26-15.23,5.34-30.02,7.95-43.47,7.95Z"/>
    <path class="cls-4" d="m55.73,421.15c-1.79,0-3.59-.48-5.23-1.48-4.71-2.89-6.17-9.05-3.28-13.76.79-1.28,19.82-31.65,64.78-54.3,11.47-5.78,22.33-10.84,32.83-15.74,26.69-12.45,49.74-23.21,59.63-35.75,3.42-4.34,9.71-5.08,14.04-1.66,4.34,3.42,5.08,9.71,1.66,14.04-12.83,16.28-36.69,27.4-66.88,41.49-10.37,4.84-21.09,9.84-32.29,15.48-39.94,20.12-56.57,46.64-56.74,46.91-1.89,3.07-5.17,4.76-8.53,4.76Z"/>
    <path class="cls-4" d="m78.65,439.92c-2.48,0-4.96-.91-6.89-2.76-3.99-3.8-4.16-10.11-.37-14.11,1.15-1.21,28.72-29.86,74.45-40.29,15.09-3.44,29.3-5.61,41.85-7.52,23.21-3.54,41.54-6.33,52.24-14.77,4.33-3.42,10.62-2.68,14.04,1.66,3.42,4.34,2.68,10.62-1.66,14.04-14.84,11.71-36.51,15.01-61.61,18.84-12.21,1.86-26.04,3.97-40.41,7.25-39.6,9.03-64.16,34.31-64.4,34.57-1.97,2.05-4.6,3.09-7.24,3.09Z"/>
    <path class="cls-4" d="m235.52,421.95c-1.67,0-3.35-.42-4.91-1.29-5.36-3.03-30.34-26.09-45.37-61.48-15.54-36.6-15.23-72.47-15.21-73.98.08-5.52,4.65-9.91,10.14-9.86,5.52.08,9.93,4.61,9.86,10.12h0c0,.33-.22,33.32,13.62,65.9,14.04,33.06,35.96,51.12,37.26,52.16,4.45,2.83,5.95,8.69,3.33,13.34-1.84,3.26-5.23,5.09-8.72,5.09Zm4.92-18.71c.12.07.23.13.35.21-.14-.09-.26-.16-.35-.21Z"/>
    <path class="cls-4" d="m173.27,424.87c-2.05,0-4.12-.63-5.9-1.93-40.09-29.35-46.06-103.78-46.29-106.94-.41-5.51,3.72-10.3,9.23-10.71,5.48-.41,10.3,3.72,10.71,9.23.07.97,5.6,68.45,38.16,92.29,4.46,3.26,5.42,9.52,2.16,13.98-1.96,2.68-5,4.09-8.08,4.09Z"/>
    <path class="cls-4" d="m122.09,438.92c-1.41,0-2.84-.3-4.2-.93-15.63-7.24-27.82-25.38-36.24-53.92-5.9-19.99-7.8-37.91-7.88-38.66-.57-5.49,3.42-10.41,8.92-10.98,5.51-.57,10.41,3.42,10.98,8.92,1.75,16.74,11.5,66.71,32.63,76.49,5.01,2.32,7.19,8.27,4.87,13.28-1.69,3.65-5.3,5.8-9.08,5.8Z"/>
    <g>
      <path class="cls-2" d="m288.05,411.29c-8.29.62-20.13-2.55-34.64-17.36-12.56-12.81-24.56-31.77-33.78-53.38-18.54-43.41-23.66-93.84,2.45-106.24,26.1-12.4,58.53,25.07,77.07,68.48h0c9.23,21.61,14.74,43.64,15.52,62.05,1.29,30.41-10.7,40.74-17.97,44.19-2.18,1.04-5.09,2-8.64,2.26Zm-55.3-152.71c-.13,0-.23.03-.29.06-.67.32-3.93,4.88-3.33,18.91.63,14.87,5.47,33.89,13.29,52.18,7.81,18.3,18.11,34.72,28.25,45.07,9.57,9.77,14.97,10.21,15.64,9.9.67-.32,3.93-4.88,3.34-18.91-.63-14.87-5.47-33.89-13.29-52.18h0c-7.81-18.3-18.11-34.72-28.25-45.07-8.72-8.9-13.98-10.06-15.35-9.96Z"/>
      <path class="cls-4" d="m286.03,420.36c-12.82,0-25.94-6.76-39.05-20.14-13.32-13.59-25.97-33.53-35.63-56.14-19.61-45.91-25.82-102.38,6.86-117.91,8.69-4.13,18.5-4.34,28.38-.6,25.82,9.77,48.36,44.46,60.83,73.67,9.64,22.58,15.41,45.74,16.23,65.21,1.5,35.59-13.83,48.3-23.1,52.7-3.69,1.75-7.67,2.8-11.84,3.11h0c-.9.07-1.79.1-2.69.1Zm-53.31-179.46c-2.38,0-4.63.51-6.78,1.53-17.92,8.51-17.05,50.05,1.97,94.58,8.8,20.6,20.14,38.58,31.93,50.61,10,10.2,19.53,15.27,27.55,14.68h0c1.94-.14,3.78-.62,5.45-1.42,8.94-4.25,13.62-17.25,12.84-35.68-.74-17.35-5.99-38.27-14.8-58.9-13.85-32.42-33.73-57.51-50.65-63.91-2.65-1-5.15-1.51-7.51-1.51Zm53.15,152.83c-5.95,0-13.55-4.4-21.63-12.64-10.89-11.11-21.86-28.55-30.1-47.84-8.23-19.26-13.33-39.43-14-55.34-.62-14.57,2.47-24.57,8.46-27.42,1.11-.52,2.27-.82,3.5-.91h0c3.49-.25,11.08,1.04,22.44,12.64,10.9,11.12,21.87,28.55,30.1,47.84,8.23,19.26,13.33,39.43,14,55.34.62,14.58-2.47,24.57-8.47,27.42-1.31.61-2.75.91-4.3.91Zm-47.74-122.25c-.08,1.58-.1,3.46,0,5.68.58,13.82,5.17,31.69,12.57,49.03,7.4,17.31,17.02,32.73,26.41,42.31,1.32,1.34,2.5,2.44,3.55,3.35.08-1.58.1-3.46,0-5.68-.59-13.82-5.17-31.69-12.57-49.03-7.39-17.31-17.01-32.73-26.4-42.31-1.31-1.34-2.5-2.44-3.55-3.35Z"/>
    </g>
    <path class="cls-4" d="m236.42,310.04c-2.89,0-5.76-1.25-7.73-3.65-3.5-4.26-2.89-10.55,1.37-14.06,2.63-2.17,16.39-13.02,29.07-13.99,5.52-.41,10.31,3.7,10.74,9.2.42,5.51-3.7,10.31-9.2,10.74-4.74.36-13.48,5.88-17.9,9.5-1.86,1.52-4.1,2.26-6.33,2.26Z"/>
    <path class="cls-4" d="m257.54,360.13c-4.29,0-8.26-2.79-9.57-7.11-1.6-5.28,1.39-10.86,6.67-12.46,5.51-1.69,15.02-6.04,17.91-10.01,3.25-4.47,9.51-5.45,13.97-2.21,4.47,3.25,5.45,9.5,2.21,13.97-7.84,10.78-24.93,16.38-28.28,17.39-.96.29-1.94.43-2.9.43Z"/>
  </g>
  <g>
    <path class="cls-6" d="m732.54,262.79c-29.55,7.29-41.66,37.01-26.02,74.47,11.79,28.24,49.53,39.58,66.13,12.35,16.6-27.23-1.53-96.33-40.11-86.82Z"/>
    <path class="cls-4" d="m745.88,379.16c-1.24,0-2.49-.05-3.76-.14-20.59-1.57-40.09-16.18-48.52-36.36-9.99-23.93-10.55-46.92-1.58-64.74,7.25-14.4,20.45-24.6,37.16-28.72h0c17.79-4.39,34.92,2.55,47,19.03,18.17,24.79,22.1,66.22,8.41,88.67-8.71,14.29-22.68,22.26-38.72,22.26Zm-9.99-102.77c-8.9,2.19-15.24,6.95-18.86,14.13-5.24,10.4-4.38,25.08,2.41,41.35,4.4,10.55,14.61,18.46,24.81,19.23,7.03.53,12.57-2.42,16.45-8.77,7.02-11.52,5.09-40.92-7.09-57.54-7.92-10.81-15.03-9.06-17.71-8.39h0Z"/>
  </g>
</svg>