<?xml version="1.0" encoding="UTF-8"?>
<svg id="Layer_2" data-name="Layer 2" xmlns="http://www.w3.org/2000/svg" viewBox="0 0 887.76 610.27">
  <defs>
    <style>
      .cls-1 {
        fill: #f1f1f1;
      }

      .cls-2 {
        fill: #d9dfe8;
      }

      .cls-3 {
        fill: #f6921e;
      }

      .cls-4 {
        fill: #182d33;
      }

      .cls-5 {
        fill: #f49037;
      }

      .cls-6 {
        fill: #d3e2f8;
      }

      .cls-7 {
        fill: #fff;
      }

      .cls-8 {
        fill: #ede3d9;
      }

      .cls-9 {
        fill: #22b473;
      }

      .cls-10 {
        fill: #0b92e1;
      }
    </style>
  </defs>
  <g id="O">
    <g>
      <g>
        <polyline class="cls-1" points="869.68 171.74 852.36 321.99 703.64 313.93 710.4 298.77"/>
        <polygon class="cls-3" points="873.76 70.54 873.76 111.31 852.73 99.93 663.45 99.93 663.45 61.53 855.58 59.17 873.76 70.54"/>
        <path class="cls-1" d="M630.58,266.92l-13.17-.62c28.42-51.19,46.04-166.37,46.04-166.37h189.28l21.03,11.37c-.95,102.85-40.03,192.91-40.03,192.91l-210.83-10.9,7.6-24.66.06-1.74Z"/>
        <polyline class="cls-9" points="661.68 132.66 848.98 134.23 855.24 107.62 672.11 103.97"/>
        <path class="cls-4" d="M818.06,287.78c-.19,0-.38,0-.57-.01l-200.65-9.48c-4.15-.2-7.9-2.52-9.92-6.15s-2.02-8.04,0-11.67c27.04-48.71,44.5-161.23,44.67-162.36,1-6.55,7.13-11.05,13.68-10.05,6.55,1,11.05,7.12,10.05,13.68-.66,4.32-15.01,96.84-39.21,153.42l173.57,8.2c7.75-22.95,28.92-90.24,35.67-158.46.65-6.6,6.54-11.41,13.12-10.76,6.59.65,11.41,6.53,10.76,13.12-8.58,86.79-38.62,169.19-39.9,172.65-1.74,4.74-6.25,7.86-11.26,7.86Z"/>
        <path class="cls-4" d="M833.73,315.22c-.19,0-.38,0-.57-.01l-210.83-10.9c-3.39-.18-6.5-1.9-8.45-4.68s-2.49-6.3-1.49-9.54l7.61-24.65c1.79-5.81,7.96-9.06,13.75-7.27,5.81,1.79,9.06,7.95,7.27,13.75l-3.44,11.15,188.88,9.77c8.86-22.85,35.53-98.44,36.3-181.62.06-6.04,4.97-10.9,11-10.9.03,0,.07,0,.1,0,6.08.06,10.95,5.03,10.9,11.1-.96,103.89-39.31,193.43-40.94,197.19-1.75,4.03-5.73,6.62-10.09,6.62Z"/>
        <path class="cls-4" d="M853.8,329.62c-.13,0-.26,0-.39,0l-219.27-8.53c-5.37-.21-9.61-4.62-9.61-9.99v-12.09c0-5.52,4.48-10,10-10s10,4.48,10,10v2.47l201.67,7.85c4.77-19.61,16.76-79.07,17.25-183.13.03-5.51,4.5-9.95,10-9.95h.05c5.52.03,9.98,4.52,9.95,10.05-.63,132.94-19.31,193.81-20.11,196.34-1.31,4.18-5.19,7-9.54,7Z"/>
        <path class="cls-4" d="M873.76,125.3c-2.29,0-4.58-.56-6.66-1.69l-17.91-9.69h-185.73c-7.73,0-14-6.27-14-14v-38.39c0-7.66,6.16-13.9,13.83-14l192.12-2.37c2.67-.02,5.32.71,7.6,2.13l18.19,11.38c4.09,2.56,6.58,7.04,6.58,11.87v40.76c0,4.93-2.6,9.5-6.83,12.03-2.21,1.31-4.69,1.97-7.17,1.97ZM677.45,85.93h175.28c2.33,0,4.62.58,6.66,1.69l.37.2v-9.52l-8.13-5.08-174.18,2.15v10.56Z"/>
        <path class="cls-9" d="M769.96,207.05c-.99,8.53-4.94,15.12-11.8,19.7-6.83,4.55-14.09,6.36-21.74,5.47-7.55-.88-13.89-4.19-19.04-9.89-5.08-5.62-7.01-12.5-5.85-20.67.43-3.02,1.55-5.88,3.38-8.6,1.82-2.71,3.53-4.65,5.11-5.83l2.49-1.87c-.43-.47-.95-1.08-1.55-1.85-.6-.77-1.32-2.38-2.14-4.85-.82-2.45-1.05-4.95-.69-7.48.96-6.87,4.31-12.39,10.08-16.59,5.79-4.22,12.18-6.18,19.18-5.87,7.09.32,13.03,2.92,17.79,7.84,4.82,4.99,6.82,11.21,5.95,18.63-.26,2.22-1.08,4.43-2.44,6.65-1.37,2.22-2.69,3.88-3.97,4.98l-1.91,1.65c.62.57,1.37,1.4,2.28,2.49.9,1.09,2.03,3.24,3.38,6.45,1.36,3.24,1.86,6.45,1.49,9.63ZM732,209.8c1.44,1.94,3.76,3.07,6.98,3.39,3.24.32,5.79-.33,7.65-1.96,1.86-1.64,2.92-3.48,3.18-5.54.26-2.05-.34-4.04-1.79-5.97-1.44-1.92-3.75-3.01-6.94-3.29s-5.69.38-7.58,1.96c-1.88,1.57-2.96,3.38-3.24,5.43-.27,2.06.3,4.05,1.73,5.98ZM751.4,173.24c.18-1.45-.27-2.84-1.35-4.18-1.08-1.33-2.84-2.08-5.26-2.22-2.42-.15-4.28.36-5.58,1.5-1.31,1.14-2.06,2.45-2.25,3.91-.19,1.47.25,2.89,1.34,4.27,1.09,1.38,2.81,2.16,5.17,2.32,2.36.17,4.24-.36,5.61-1.58,1.37-1.22,2.15-2.56,2.34-4.01Z"/>
      </g>
      <g>
        <polygon class="cls-8" points="457.27 596.27 191.96 596.27 244.4 482.01 404.83 482.01 457.27 596.27"/>
        <path class="cls-4" d="M457.27,610.27H191.96c-4.77,0-9.21-2.43-11.78-6.44-2.58-4.01-2.93-9.06-.94-13.4l52.44-114.26c2.28-4.97,7.25-8.16,12.72-8.16h160.43c5.47,0,10.44,3.19,12.72,8.16l52.43,114.26c1.99,4.33,1.63,9.38-.94,13.4-2.57,4.01-7.02,6.44-11.78,6.44ZM213.79,582.27h221.65l-39.59-86.26h-142.48l-39.59,86.26Z"/>
      </g>
      <path class="cls-4" d="M413.25,573.27h-177.26c-2.21,0-4-1.79-4-4s1.79-4,4-4h177.26c2.21,0,4,1.79,4,4s-1.79,4-4,4Z"/>
      <path class="cls-4" d="M407.35,557.23h-165.47c-2.21,0-4-1.79-4-4s1.79-4,4-4h165.47c2.21,0,4,1.79,4,4s-1.79,4-4,4Z"/>
      <path class="cls-4" d="M409.53,541.58h-169.83c-2.21,0-4-1.79-4-4s1.79-4,4-4h169.83c2.21,0,4,1.79,4,4s-1.79,4-4,4Z"/>
      <g>
        <path class="cls-10" d="M538.05,299.35s11.05,15.67,36.34,14.83c25.28-.84,49.18-29.11,55.32-47.78,9.05-27.5,28.5-47.32,57.08-32.39,38.05,19.88,12.39,130.14-58.6,163.8-96.4,45.71-136.82-41.92-136.82-41.92"/>
        <path class="cls-2" d="M506.14,331.16s23.97,50.95,78.86,50.22,105.66-72.83,106.07-119.97c0,0,34.62,53.23-52.42,129.81-87.04,76.58-146.14-27.56-146.14-27.56"/>
        <path class="cls-4" d="M575.44,425.05c-11.91,0-23.38-1.99-34.38-5.98-42.69-15.48-61.61-55.61-62.39-57.31-3.24-7.02-.17-15.34,6.85-18.58,7.02-3.24,15.34-.17,18.58,6.85.13.27,15.12,31.47,46.78,42.81,20.85,7.47,44.85,4.88,71.34-7.67,41.72-19.78,67.41-71.22,68.15-109.52.29-14.87-3.46-25.79-10.04-29.23-7.06-3.69-12.98-4.48-18.1-2.4-7.62,3.09-14.62,12.85-19.2,26.76-7.7,23.37-35.66,56.31-68.16,57.39-25.93.86-42.52-12.64-48.24-20.75l22.88-16.14s-.05-.09-.17-.24c.31.4,7.68,9.69,24.61,9.14,17.55-.58,37.56-23.2,42.49-38.17,7.26-22.05,19.79-37.66,35.26-43.94,8.95-3.63,23.42-5.97,41.6,3.53,16.68,8.71,25.58,28.1,25.07,54.58-.89,46.17-30.69,108.93-84.15,134.28-20.49,9.72-40.14,14.58-58.75,14.59Z"/>
      </g>
      <g>
        <path class="cls-10" d="M171.44,327.47s4.78,73.63-47.85,85.37c-11.15,2.49-19.17,3.72-36.39,1.17-24.13-3.56-48.61-22.31-59.87,7.83-13.3,35.61,44.77,98.01,140.09,70.43,112.24-32.47,100.77-130.52,100.77-130.52"/>
        <path class="cls-6" d="M38.28,443.36s39.13,30.13,97.83,27.39c58.7-2.74,117-73.57,117-73.57l16.43,37.96s-43.83,41.87-116.22,55.96c-72.39,14.09-104.09-12.13-105.65-13.3"/>
        <path class="cls-4" d="M121.93,513.04c-44.62,0-77.8-19.05-95.08-39.52-15.95-18.89-20.48-40.49-12.13-57.78,6.15-12.72,16.49-20.23,29.92-21.73,10.09-1.12,20.59,1.19,30.76,3.42,4.6,1.01,9.37,2.06,13.84,2.72,15.41,2.28,21.63,1.17,31.3-.99,40.2-8.97,36.97-70.21,36.93-70.83-.47-7.71,5.39-14.35,13.1-14.83,7.71-.48,14.35,5.35,14.85,13.05.05.85,1.28,20.98-4.65,42.85-8.49,31.34-27.21,51.09-54.13,57.09-11.83,2.64-21.72,4.28-41.49,1.36-5.45-.8-10.69-1.96-15.76-3.07-22.77-5.01-26.1-3.79-29.45,3.14-3.35,6.94-.17,17.49,8.31,27.53,17.75,21.03,58.59,39.76,115.28,23.36,98.99-28.64,91.13-111.97,90.75-115.5-.9-7.68,4.6-14.6,12.28-15.5,7.68-.9,14.64,4.63,15.54,12.31.13,1.14,3.13,28.34-9.16,59.8-11.33,29-38.16,67.43-101.62,85.79-17.67,5.11-34.19,7.32-49.38,7.32Z"/>
      </g>
      <g>
        <path class="cls-10" d="M532.83,327.47s-4.78,73.63,47.85,85.37c11.15,2.49,19.17,3.72,36.39,1.17,24.13-3.56,48.61-22.31,59.87,7.83,13.3,35.61-44.77,98.01-140.09,70.43-112.24-32.47-100.77-130.52-100.77-130.52"/>
        <path class="cls-6" d="M665.98,443.36s-39.13,30.13-97.83,27.39-117-73.57-117-73.57l-16.43,37.96s43.83,41.87,116.22,55.96c72.39,14.09,104.09-12.13,105.65-13.3"/>
        <path class="cls-4" d="M582.34,513.04c-15.19,0-31.71-2.21-49.38-7.32-63.46-18.36-90.29-56.79-101.63-85.79-12.29-31.46-9.29-58.66-9.16-59.8.9-7.68,7.87-13.17,15.53-12.28,7.68.9,13.18,7.85,12.28,15.53-.38,3.48-8.23,86.8,90.76,115.44,56.69,16.4,97.53-2.34,115.28-23.36,8.48-10.05,11.67-20.6,8.31-27.53-3.35-6.93-6.69-8.15-29.46-3.14-5.07,1.12-10.32,2.27-15.76,3.07-19.76,2.92-29.66,1.28-41.49-1.36-26.92-6-45.64-25.75-54.13-57.09-5.93-21.87-4.7-42-4.65-42.85.5-7.72,7.17-13.56,14.88-13.06,7.71.5,13.55,7.15,13.07,14.85-.05.93-3.17,61.88,36.93,70.82,9.67,2.16,15.89,3.27,31.3.99,4.48-.66,9.24-1.71,13.84-2.72,10.16-2.23,20.67-4.55,30.76-3.42,13.42,1.49,23.77,9.01,29.92,21.73,8.36,17.29,3.82,38.89-12.13,57.78-17.28,20.46-50.46,39.51-95.08,39.52Z"/>
      </g>
      <circle class="cls-4" cx="574.11" cy="106.84" r="19.17"/>
      <g>
        <path class="cls-10" d="M195.63,311.1s-54.78,7.83-94.3-33.26c-4.21-4.38-10.96-13.3-13.3-28.96-3.15-21.03-13.11-35.41-39.52-28.83-38.99,9.72-47.11,67.4-11.48,118.7,40.96,58.96,133.04,78.78,224.87,36.52"/>
        <path class="cls-6" d="M23.98,258.93s14.09,62.61,70.43,85.57,153.91-11.48,153.91-11.48c0,0,2.09,42.26-8.87,54.78-10.96,12.52-173.74,30.78-208.7-68.35"/>
        <path class="cls-4" d="M197.4,323.47c-32.67,6.27-69.77-5.15-95.44-25.97-3.81-3.03-7.44-6.49-10.86-9.95-6.94-7.17-11.95-16.54-14.65-25.72-2.52-7.62-2.42-16.5-6.12-23.46-2.07-4.13-5.32-5.74-9.69-5.68-7.79.06-16.56,2.93-21.89,8.96-5.93,6.24-8.97,15.82-9.75,24.48-1.96,21.84,6.53,44.63,18.84,62.93,11.18,16.79,27.23,30.09,45.29,38.98,47.05,23.3,103.28,18.26,151.19-.2,4.1-1.33,8.72-3.01,12.94-4.09,14.01-3.43,21.96,15.03,9.87,22.87-5.4,3.38-11.12,6.16-16.98,8.63-29.82,11.64-61.89,17.6-93.99,16.56-45.76-1.29-92.91-18.98-122.97-54.62C11.53,331.11-2.63,297.96.41,263.31c1.62-16.13,7.59-31.78,19.57-43.37,11.04-10.49,25.78-15.73,41.03-15.72,25.34.28,37.97,19.73,41.03,42.62,1.2,7.98,4.2,15.92,9.76,21.52.42.43,1.65,1.63,2.09,2.08,13.27,12.97,30.23,21.32,48.49,25.03,9.8,1.94,19.89,2.9,29.88,3.18l.91.03c.26.02.66,0,.68.05l7.66,16.67c1.58,3.33-.51,7.41-4.13,8.08h0Z"/>
      </g>
      <circle class="cls-10" cx="343.94" cy="265.84" r="216.39"/>
      <path class="cls-6" d="M163.94,276.4c0,91.87,57.25,170.37,138.02,201.76-99.42-19.55-174.41-107.17-174.41-212.32,0-119.51,96.88-216.39,216.39-216.39,27.64,0,54.06,5.18,78.36,14.63-13.58-2.67-27.61-4.07-41.97-4.07-119.51,0-216.39,96.88-216.39,216.39Z"/>
      <path class="cls-4" d="M343.94,497.23c-61.81,0-119.91-24.07-163.62-67.77s-67.77-101.81-67.77-163.62,24.07-119.91,67.77-163.62,101.81-67.77,163.62-67.77,119.91,24.07,163.62,67.77,67.77,101.81,67.77,163.62-24.07,119.91-67.77,163.62-101.81,67.77-163.62,67.77ZM343.94,64.45c-111.05,0-201.39,90.34-201.39,201.39s90.34,201.39,201.39,201.39,201.39-90.34,201.39-201.39-90.34-201.39-201.39-201.39Z"/>
      <g>
        <circle class="cls-4" cx="246.89" cy="166.58" r="23.61"/>
        <circle class="cls-4" cx="297.5" cy="123.27" r="21.78"/>
        <circle class="cls-4" cx="322.61" cy="172.9" r="15.91"/>
        <circle class="cls-4" cx="355.15" cy="101.75" r="13.17"/>
      </g>
      <g>
        <circle class="cls-4" cx="480.89" cy="254.36" r="44.61"/>
        <circle class="cls-7" cx="487.61" cy="244.58" r="15.46"/>
      </g>
      <g>
        <circle class="cls-4" cx="279.65" cy="254.36" r="44.61"/>
        <circle class="cls-7" cx="286.37" cy="244.58" r="15.46"/>
      </g>
      <path class="cls-4" d="M363.12,277.53c4.48,9.14,16.28,12.35,24.73,7.12,2.81-1.7,5.2-4.4,6.89-7.74,3.01-5.6,9.99-7.69,15.59-4.68,5,2.69,7.2,8.56,5.46,13.77-2.5,7.49-7.59,14.43-14.18,19-13.32,9.51-32.36,9.5-45.68,0-6.59-4.57-11.68-11.51-14.19-19-4.13-13.93,14.91-21.35,21.38-8.47h0Z"/>
      <path class="cls-10" d="M466.11,418.58s69.62,34.28,66.67,84.72c-2.95,50.44-125.86,34.71-184.36,27.12-58.5-7.59-5.91-94.92,105.18-54.24l-62.62-31.51"/>
      <path class="cls-6" d="M348.2,514.97s120.91,8.61,147.52-3.91c26.61-12.52,13.3-46.57,13.3-46.57,0,0,38.74,23.09,18,52.43-20.74,29.35-149.87,16.83-149.87,16.83l-21.52-3.52"/>
      <path class="cls-4" d="M486.25,416.65c31.82,14.26,60.36,43.92,61.06,80.73,1.74,31.99-23.28,46.54-50.9,52.04-31.35,6.06-63.23,4.22-94.28,1.8-14.75-1.18-30.79-3.19-45.5-5.07-8.57-1.18-17.96-1.84-26.3-5.88-16.66-7.47-24.5-25.12-18.51-42.49,3.3-9.88,9.77-17.96,17.48-24.5,27.42-22.53,64.67-25.33,97.93-18.98,10.71,2,21.13,5.32,30.32,11.07,5.5,3.44,7.16,10.69,3.72,16.19-2.55,4.07-7.16,6.01-11.63,5.41-7.24-.76-13.9-2.33-20.88-3.73-11.04-2.51-22.65-4.01-33.77-3.66-16.92.54-34.16,4.66-47.14,15.51-4.42,3.64-9.09,9.64-9.19,14.53.08,5.06,10.18,6.22,14.2,6.7,4.56.58,17.49,2.14,22.26,2.7,34.51,3.65,109.13,12.51,137.31-6.61,4.31-3.28,5.89-6.48,5.9-11.37.41-8.8-1.67-17.37-5.89-25.26-7.57-14.05-21.63-25.55-36.02-32.83,0,0-1.12-.54-1.12-.54-7.41-3.07-10.84-11.78-7.33-19.03,3.28-6.83,11.39-9.77,18.27-6.74h0Z"/>
      <g>
        <path class="cls-5" d="M349.76,551.75c7.17-2.9,4.84-23.14,1.71-30.21l-46.03-103.92c-3.13-7.07-11.4-10.26-18.47-7.13-7.07,3.13-10.26,11.4-7.13,18.47l46.03,103.92c2.27,5.12,17.11,21.61,23.89,18.87Z"/>
        <path class="cls-4" d="M348.05,561.09c-5.33,0-11.27-3.04-17.99-9.18-4.53-4.13-10.35-10.71-12.42-15.38l-46.03-103.92c-2.49-5.62-2.64-11.87-.43-17.6s6.53-10.26,12.14-12.75c5.62-2.49,11.87-2.64,17.6-.43,5.73,2.21,10.26,6.53,12.75,12.14l46.03,103.92c2.86,6.47,5.89,23.16,1.74,33.42-2.17,5.36-5.72,7.74-8.3,8.78h0c-1.63.66-3.33.99-5.09.99ZM292.64,418.29c-.69,0-1.37.14-2.02.43-1.22.54-2.16,1.53-2.64,2.77-.48,1.25-.45,2.6.09,3.83l46.03,103.92c1.31,2.67,7.1,8.96,11.31,12.09.35-4.74-.54-12.47-2.17-16.14l-46.03-103.92c-.54-1.22-1.53-2.16-2.77-2.64-.58-.23-1.19-.34-1.8-.34Z"/>
      </g>
      <path class="cls-10" d="M212.02,410.75s-69.91,66.78-55.83,111.13c14.09,44.35,120.52,5.22,161.74-7.83,41.22-13.04,30.78-44.87,8.87-54.78-21.91-9.91-62.09-9.91-96.52,7.3l36.52-23.48"/>
      <path class="cls-6" d="M160.76,499.32s11.35,23.09,43.04,20.74c31.7-2.35,130.3-28.57,130.3-28.57,0,0-44.61,37.96-100.17,47.35-55.57,9.39-81-7.43-80.22-13.3"/>
      <path class="cls-4" d="M220.31,419.43c-5.14,8.02-11.71,15.07-17.75,22.4-14.15,17.61-28.82,37.86-33.26,60.23-.6,3.92-.89,8.09-.18,12,.49,3.02,1.41,6.08,3.77,8.18,24.09,18.39,108.71-11.94,137.56-20.95,6.83-2.17,14.16-4.49,19.01-9.99,5.33-5.94.03-13.77-5.66-17.47-5.68-3.52-12.46-4.96-19.04-6.1-14.34-2.12-28.92-.88-43.12,2.04-8.83,1.81-17.48,4.42-26,7.56-6.28,2.46-13.39-.72-15.71-7.06-2.01-5.47.2-11.46,4.98-14.41,18.89-11.55,40.95-16.8,63-17.29,15.14-.25,30.53,1.66,44.56,7.7,24.49,10.67,37.66,41,19.22,63.3-7.33,8.98-17.97,14.5-28.79,18.05-10.66,3.44-21.33,7.02-32.25,10.45-34.64,10.48-94.24,29.13-128.1,11.85-16-8.32-22.61-23.53-22.59-41.07.47-21.66,10.55-41.81,22.08-59.59,5.85-8.94,12.22-17.32,18.92-25.34,5.03-6.03,10.2-11.93,16.27-16.96,2.09-1.76,4.17-3.36,6.49-4.88,11.71-7.34,24.15,6.07,16.58,17.35h0Z"/>
      <path class="cls-4" d="M569.06,34.46c-6.19-2.12-12.45-3.43-18.76-4.25-3.45-.45-6.12-3.2-6.55-6.66-.01-.12-.03-.24-.04-.36-.87-6.09-1.99-12.17-4.17-18.26-.73-2.01-2.33-3.72-4.5-4.5-3.87-1.38-8.12.63-9.5,4.5-2.08,6.09-3.39,12.25-4.21,18.45-.45,3.4-3.12,6.09-6.53,6.52s-6.46.97-9.66,1.71c-3.04.72-6.09,1.56-9.13,2.83-1.76.74-3.27,2.16-4.07,4.07-1.62,3.87.2,8.31,4.07,9.93,5.95,2.41,12.03,3.62,18.26,4.48.04,0,.08.01.13.02,3.44.44,6.18,3.1,6.63,6.54.41,3.14.96,6.26,1.67,9.36.72,3.04,1.56,6.09,2.83,9.13.74,1.76,2.16,3.27,4.07,4.07,3.87,1.62,8.31-.2,9.93-4.07,2.41-5.95,3.62-12.03,4.48-18.26.02-.14.04-.29.06-.43.44-3.49,3.18-6.21,6.67-6.65.02,0,.04,0,.06,0,6.09-.87,12.17-1.99,18.26-4.17,2.01-.73,3.72-2.33,4.5-4.5,1.38-3.87-.63-8.12-4.5-9.5Z"/>
      <path class="cls-4" d="M338.55,540.53s4.17-4.7,10.43-4.43c6.26.26.78,14.87.78,14.87l-9.39-4.7"/>
    </g>
  </g>
</svg>