<?xml version="1.0" encoding="UTF-8"?>
<svg id="Layer_2" data-name="Layer 2" xmlns="http://www.w3.org/2000/svg" viewBox="0 0 685.95 556.55">
  <defs>
    <style>
      .cls-1 {
        fill: #182d33;
      }

      .cls-2 {
        fill: #d1f0e8;
      }

      .cls-3 {
        fill: #39555b;
      }

      .cls-4 {
        fill: #fff;
      }

      .cls-5 {
        fill: #666;
      }

      .cls-6 {
        fill: #c94141;
      }

      .cls-7 {
        fill: #0d9488;
      }
    </style>
  </defs>
  <g id="O">
    <g>
      <g>
        <path class="cls-7" d="M485.67,356.61s54.78,7.83,94.3-33.26c4.21-4.38,10.96-13.3,13.3-28.96,3.15-21.03,13.11-35.41,39.52-28.83,38.99,9.72,47.11,67.4,11.48,118.7-40.96,58.96-133.04,78.78-224.87,36.52"/>
        <path class="cls-2" d="M657.32,304.43s-14.09,62.61-70.43,85.57c-56.35,22.96-153.91-11.48-153.91-11.48,0,0-2.09,42.26,8.87,54.78,10.96,12.52,173.74,30.78,208.7-68.35"/>
        <path class="cls-1" d="M487.44,344.23c31.51-.74,59.86-7.3,82.39-30.71,3.76-4.01,6.23-8.69,7.91-14.3,1.69-5.74,1.94-11.55,3.76-17.51,2.29-8.05,6.11-16.03,12.75-22.15,10.69-10.25,27.02-11.56,40.63-8.16,6.86,1.56,13.45,4.34,19.31,8.28,11.52,7.76,19.6,20.13,23.5,33.03,11.26,38.61-4.83,80.36-29.56,109.98-50.33,58.99-138.52,65.86-208.02,41.39-6.01-2.09-11.92-4.46-17.62-7.28-2.82-1.47-5.6-3-8.3-4.68-5.91-3.67-7.72-11.43-4.05-17.34,2.99-4.81,8.7-6.91,13.9-5.53,3.02.79,5.97,1.74,8.86,2.76,2.05.68,6.11,2.01,8.13,2.77,16.02,5.74,32.59,10.42,49.45,12.58,35.63,4.82,73.51.45,104.89-17.66,16.34-9.31,30.41-22.55,40.33-38.54,11.64-18.67,19.38-41.45,16.16-63.13-1.24-8-4.59-16.44-10.33-21.95-2.53-2.32-5.35-4.27-8.6-5.49-3.69-1.5-8.5-2.39-12.25-2.38-2.66.03-5.22.48-7.16,2.28-3.96,3.93-5.25,10.37-6.23,16.09-2.22,14.93-8.78,29.23-20.26,39.65-17.02,16.6-39.45,27.66-62.58,32.2-13.34,2.62-27.16,3.3-40.54.55-3.61-.67-5.69-4.74-4.14-8.05,0,0,7.68-16.69,7.68-16.69h0Z"/>
      </g>
      <g>
        <path class="cls-7" d="M199.76,356.61s-54.78,7.83-94.3-33.26c-4.21-4.38-10.96-13.3-13.3-28.96-3.15-21.03-13.11-35.41-39.52-28.83-38.99,9.72-47.11,67.4-11.48,118.7,40.96,58.96,133.04,78.78,224.87,36.52"/>
        <path class="cls-2" d="M28.1,304.43s14.09,62.61,70.43,85.57,153.91-11.48,153.91-11.48c0,0,2.09,42.26-8.87,54.78-10.96,12.52-173.74,30.78-208.7-68.35"/>
        <path class="cls-1" d="M201.52,368.98c-32.67,6.27-69.77-5.15-95.44-25.97-3.81-3.03-7.44-6.49-10.86-9.95-6.94-7.17-11.95-16.54-14.65-25.72-2.52-7.62-2.42-16.5-6.12-23.46-2.07-4.13-5.32-5.74-9.69-5.68-7.79.06-16.56,2.93-21.89,8.96-5.93,6.24-8.97,15.82-9.75,24.48-1.96,21.84,6.53,44.63,18.84,62.93,11.18,16.79,27.23,30.09,45.29,38.98,47.05,23.3,103.28,18.26,151.19-.2,4.1-1.33,8.72-3.01,12.94-4.09,14.01-3.43,21.96,15.03,9.87,22.87-5.4,3.38-11.12,6.16-16.98,8.63-29.82,11.63-61.89,17.6-93.99,16.56-45.76-1.29-92.91-18.98-122.97-54.62-21.65-26.09-35.81-59.24-32.76-93.89,1.62-16.13,7.59-31.78,19.57-43.37,11.04-10.49,25.78-15.73,41.03-15.72,25.34.28,37.97,19.73,41.03,42.62,1.2,7.98,4.2,15.92,9.76,21.52.42.43,1.65,1.63,2.09,2.08,13.27,12.97,30.23,21.32,48.49,25.03,9.8,1.94,19.89,2.9,29.88,3.18l.91.03c.26.02.66,0,.68.05l7.66,16.67c1.58,3.33-.51,7.41-4.13,8.08h0Z"/>
      </g>
      <circle class="cls-7" cx="342.58" cy="255" r="216.39"/>
      <ellipse class="cls-1" cx="342.58" cy="338.3" rx="36.66" ry="21.78"/>
      <ellipse class="cls-6" cx="342.58" cy="350.63" rx="24.26" ry="14.41"/>
      <path class="cls-2" d="M521.8,252.72c0,57.45-20.36,109.94-53.98,150.07h37.51c36.18-38.68,58.34-90.65,58.34-147.79,0-105.49-75.48-193.35-175.38-212.51,78.48,34.74,133.51,115.79,133.51,210.23Z"/>
      <path class="cls-1" d="M342.58,486.39c-61.81,0-119.91-24.07-163.62-67.77-43.7-43.7-67.77-101.81-67.77-163.62s24.07-119.91,67.77-163.62c43.7-43.7,101.81-67.77,163.62-67.77s119.91,24.07,163.62,67.77c43.7,43.7,67.77,101.81,67.77,163.62s-24.07,119.91-67.77,163.62c-43.7,43.7-101.81,67.77-163.62,67.77ZM342.58,53.61c-111.05,0-201.39,90.34-201.39,201.39s90.34,201.39,201.39,201.39,201.39-90.34,201.39-201.39S453.63,53.61,342.58,53.61Z"/>
      <circle class="cls-1" cx="240.84" cy="275.22" r="44.61"/>
      <g>
        <circle class="cls-1" cx="241.89" cy="152.09" r="23.61"/>
        <circle class="cls-1" cx="292.5" cy="108.78" r="21.78"/>
        <circle class="cls-1" cx="317.6" cy="158.41" r="15.91"/>
        <circle class="cls-1" cx="350.15" cy="87.26" r="13.17"/>
      </g>
      <circle class="cls-4" cx="237.13" cy="265.43" r="15.46"/>
      <circle class="cls-1" cx="444.32" cy="275.22" r="44.61"/>
      <circle class="cls-4" cx="440.6" cy="265.43" r="15.46"/>
      <g>
        <path class="cls-7" d="M171.49,366.08s-20.41,38.22-63.85,38.02c-28.19-.13-44.64-32.77-67.49-20.19-20.77,11.44-27.55,77.53,45.08,102.52,77.89,26.79,158.85-38.19,161.07-62.38"/>
        <path class="cls-2" d="M37.02,428.52s33.64,30.43,94.23,26.73c60.59-3.7,94.09-56.28,105.33-49.16s-23.8,90.3-117.39,84.21c-93.59-6.09-90.87-61.82-90.87-61.82"/>
        <path class="cls-1" d="M182.52,371.97c-4.39,10.97-12.43,19.87-21.55,27.24-14.6,12-34.04,19.2-53.18,19-16.86.24-31.41-9.12-44.39-17.53-3.84-2.4-7.33-4.23-9.82-4.94-2.47-.7-3.78-.66-5.95.37,0,0-.38.18-.38.18-.3.1-.25.22-.49.28-.84.78-1.48,1.41-2.34,2.88-5.55,9.78-4.79,23.22-.77,33.98,6.55,17.31,22.1,29.59,38.87,36.58,38.03,16.86,82.88,6.9,117.1-15.14,13.37-8.55,25.47-19.13,34.21-31.98,2.16-16.42,25.75-14.31,24.89,2.29-.53,10.57-6.43,19.42-12.77,27.11-16.32,18.33-37.1,31.5-59.32,41.2-37.64,16.34-81.37,18.99-119.11,1.25-22.42-10.11-42.14-27.7-50.81-51.19-11.26-28.15-4.16-75.07,33.35-76.77,23.81-.49,38.22,22.62,57.76,23.19,13.01.11,25.3-4.39,35.57-12.64,6.33-4.94,11.49-11.52,17.04-17.15,8.36-14.28,29.28-3.22,22.05,11.78h0Z"/>
      </g>
      <g>
        <path class="cls-7" d="M513.93,366.08s20.41,38.22,63.85,38.02c28.19-.13,44.64-32.77,67.49-20.19,20.77,11.44,27.55,77.53-45.08,102.52-77.89,26.79-158.85-38.19-161.07-62.38"/>
        <path class="cls-2" d="M648.41,428.52s-33.64,30.43-94.23,26.73-94.09-56.28-105.33-49.16c-11.25,7.12,23.8,90.3,117.39,84.21,93.59-6.09,90.87-61.82,90.87-61.82"/>
        <path class="cls-1" d="M524.96,360.19c5.55,5.63,10.71,12.21,17.04,17.15,9.51,7.61,20.6,12.05,32.59,12.58,3.36.18,6.69,0,9.96-1.02,7.87-2.38,14.76-7.57,22.5-12.35,7.16-4.63,18.07-10.17,28.28-9.75,21.28.74,33.34,17.16,37.01,36.27,3.21,16.91.25,33.75-7.29,48.73-10.43,20.78-29.85,35.86-50.98,44.62-57.19,24.68-125.19,3.61-168.9-37.96-6.33-6.34-11.9-13.06-15.65-21.51-1.53-3.7-2.71-7.34-2.86-11.75-.63-6.87,4.43-12.96,11.3-13.59,6.87-.63,12.96,4.43,13.59,11.3.17-.04.34.22.59.63,2.18,3.55,5.09,7.14,8.14,10.35,19.7,20.93,47.25,35.55,75.13,41.81,23.98,5.29,48.49,3.33,70.43-6.98,16.44-7.48,31.35-20.41,36.83-37.99,3.16-10.15,3.4-22.32-1.7-31.26-.86-1.47-1.51-2.09-2.34-2.88-.23-.07-.2-.19-.49-.28-1.04-.55-2.37-1.03-3.41-1.03-4.37.25-7.62,2.39-12.74,5.41-3.85,2.37-8.12,5.25-12.94,8.03-8.78,5.25-20.52,9.68-31.44,9.5-25.13.28-49.61-12.02-65.53-31.02-3.76-4.61-6.98-9.67-9.19-15.23-7.22-14.9,13.64-26.11,22.05-11.78h0Z"/>
      </g>
      <path class="cls-7" d="M343.63,501.56c-21.63,14.29-44.38,22.94-85.44,16.62-27.13-4.18-46.44-13.57-58.44-31.83-15-22.83-10.43-72.91,31.31-81.26l225-.39c41.74,8.35,44.61,58.82,29.61,81.65-12,18.26-31.31,27.65-58.44,31.83-33.19,5.11-60.15-3.7-82.36-14.74l-1.24-1.88Z"/>
      <path class="cls-2" d="M202.5,490.78s47.6,31.58,91.57,23.09c46.57-9,69.26-51.65,100.17-36.39,0,0-54.39,61.83-106.04,64.57s-76.3-5.87-84.91-26.22"/>
      <path class="cls-2" d="M391.1,513.87c-11.3-2.18-21.19-6.35-30.13-11.19v29.27c11.66,5.57,23.91,9.45,36,10.09,51.65,2.74,76.3-5.87,84.91-26.22l.78-25.04s-47.6,31.58-91.57,23.09Z"/>
      <g>
        <path class="cls-1" d="M252.36,474.52c9.75-10.67,21.98-18.45,34.88-24.86,19.36-9.63,42.73-15.62,64.99-12.19,14.46,2.43,28.41,6.78,41.51,13.65,7.03,3.74,14.06,8.27,19.72,14.06,6.15,6.21,4.74,16.98-2.77,21.42-24.31,14.97-43.99,36.65-68.16,52.66-13.55,8.91-30.16,15.12-46.45,16.66-12.23,1.27-24.01.55-35.89-1.21-24.44-3.37-49.83-13.03-65.59-33.26-23.88-28.85-25.26-83.01,4.56-108.5,7.36-6.22,16.59-10.1,25.51-11.03,14.97-1.11,19.26,19.06,5.52,24.38-5.1,2.22-9.28,4.63-12.82,7.82-12.25,11.27-14.06,30.01-11.01,46.56,6.66,33.9,37.12,44.09,67.86,46.75,12.5,1.06,24.83.18,36.45-4.05,18.86-7.06,32.43-20.27,48.89-33.76,5.62-4.68,11.42-9.37,17.46-13.88,6.04-4.5,12.32-8.81,18.79-12.83.05.1-2.94,21.48-2.69,21.51.04.04.06.06.03.04l-.08-.07c-.36-.34-1.03-.87-1.45-1.22-7.96-6.11-17.18-10.12-26.85-13.24-3.97-1.33-8.64-2.45-12.75-3.37-17.9-3.68-35.68.54-52.47,8.48-10.25,4.89-19.95,11.38-29.54,17.51,0,0-.43.27-.43.27-.12.07-.31.2-.32.18-5.09,4.66-13,4.31-17.66-.78-4.66-5.09-4.31-13,.78-17.66h0Z"/>
        <path class="cls-1" d="M351.73,510.93c24.25,13.66,50.27,20.02,77.72,13.85,15.92-3.32,30.95-10.01,40.38-22.94,12.46-16.14,14.33-45.02,3.36-61.82-4.52-6.69-10.4-10.54-17.93-13.74-6.82-2.41-10.33-10.1-7.47-16.79,2.22-5.25,7.6-8.2,12.99-7.59,6.84.78,13.83,3.24,20.07,7.16,6.22,3.84,11.5,9.21,15.58,15.24,14.91,22.63,15.36,51.81,6.29,76.81-7.2,18.73-22.42,34.49-40.54,42.91-11.53,5.47-23.36,8.58-35.83,10.42-30.47,5-62.31-3.74-88.33-19.1-15.7-9.76-2.8-32.75,13.72-24.41h0Z"/>
        <path class="cls-1" d="M409.9,462.42l26.29,15.93c13.29,8.7,2.59,28.31-11.9,21.99,0,0-27.71-13.29-27.71-13.29-6.98-3.35-9.93-11.72-6.58-18.7,3.51-7.44,12.9-10.22,19.9-5.93h0Z"/>
      </g>
      <g>
        <path class="cls-5" d="M133.23,316.57h-21.13c-24.64,0-44.61-19.97-44.61-44.61v-30.78c0-24.64,19.97-44.61,44.61-44.61h21.13c10.43,0,10.43,120,0,120Z"/>
        <path class="cls-1" d="M133.23,330.57h-21.13c-32.32,0-58.61-26.29-58.61-58.61v-30.78c0-32.32,26.29-58.61,58.61-58.61h21.13c4.6,0,12.91,1.97,16.84,15.16,1.19,4,2.15,9.23,2.94,15.98,1.32,11.4,2.05,26.62,2.05,42.86s-.73,31.46-2.05,42.86c-.78,6.75-1.74,11.98-2.94,15.98-3.93,13.19-12.24,15.16-16.84,15.16ZM112.1,210.57c-16.88,0-30.61,13.73-30.61,30.61v30.78c0,16.88,13.73,30.61,30.61,30.61h12.23c1.39-8.26,2.73-24.17,2.73-46s-1.34-37.74-2.73-46h-12.23Z"/>
      </g>
      <path class="cls-1" d="M538.45,388.52h-73.13c-7.73,0-14-6.27-14-14s6.27-14,14-14h73.13c6.9,0,12.52-5.62,12.52-12.52v-73.65c0-7.73,6.27-14,14-14s14,6.27,14,14v73.65c0,22.34-18.18,40.52-40.52,40.52Z"/>
      <g>
        <path class="cls-3" d="M472.53,394.49h-36.46c-11.44,0-20.71-9.27-20.71-20.71s9.27-20.71,20.71-20.71h36.46c11.44,0,20.71,9.27,20.71,20.71s-9.27,20.71-20.71,20.71Z"/>
        <path class="cls-1" d="M472.53,403.49h-36.46c-16.38,0-29.71-13.33-29.71-29.71s13.33-29.71,29.71-29.71h36.46c16.38,0,29.71,13.33,29.71,29.71s-13.33,29.71-29.71,29.71ZM436.07,362.08c-6.45,0-11.71,5.25-11.71,11.71s5.25,11.71,11.71,11.71h36.46c6.45,0,11.71-5.25,11.71-11.71s-5.25-11.71-11.71-11.71h-36.46Z"/>
      </g>
      <g>
        <path class="cls-5" d="M551.15,316.57h21.13c24.64,0,44.61-19.97,44.61-44.61v-30.78c0-24.64-19.97-44.61-44.61-44.61h-21.13c-10.43,0-10.43,120,0,120Z"/>
        <path class="cls-1" d="M572.28,330.57h-21.13c-4.6,0-12.91-1.97-16.84-15.16-1.19-4-2.15-9.23-2.94-15.98-1.32-11.4-2.05-26.62-2.05-42.86s.73-31.46,2.05-42.86c.78-6.75,1.74-11.98,2.94-15.98,3.93-13.19,12.24-15.16,16.84-15.16h21.13c32.32,0,58.61,26.29,58.61,58.61v30.78c0,32.32-26.29,58.61-58.61,58.61ZM561.42,308.24h.01-.01ZM560.05,302.57h12.23c16.88,0,30.61-13.73,30.61-30.61v-30.78c0-16.88-13.73-30.61-30.61-30.61h-12.23c-1.39,8.26-2.73,24.17-2.73,46s1.34,37.74,2.73,46Z"/>
      </g>
      <path class="cls-1" d="M342.58,380.98c-27.34,0-49.59-24.58-49.59-54.8,0-.58.02-1.17.03-1.75v-.17c.2-6.21,5.29-11.14,11.5-11.14h76.1c6.21,0,11.3,4.93,11.49,11.14v.17c.02.58.04,1.16.04,1.75,0,30.22-22.24,54.8-49.59,54.8ZM317.32,336.11c3.5,12.69,13.5,21.87,25.26,21.87s21.76-9.18,25.26-21.87h-50.52Z"/>
      <path class="cls-1" d="M581.53,204.7c-4.06,0-7.74-2.76-8.74-6.88-26.05-107.55-118.57-179.82-230.21-179.82S139.78,89.33,112.95,195.51c-1.22,4.82-6.11,7.74-10.93,6.52-4.82-1.22-7.74-6.11-6.52-10.93,14.1-55.8,44.76-103.46,88.67-137.83C228.68,18.42,283.46,0,342.58,0s114.69,18.69,159.39,54.04c44.11,34.88,74.65,83.13,88.31,139.54,1.17,4.83-1.8,9.7-6.63,10.87-.71.17-1.42.25-2.13.25Z"/>
      <g>
        <circle class="cls-1" cx="83.83" cy="104.51" r="12.91"/>
        <path class="cls-1" d="M77.7,46.51c-6.19-2.12-12.45-3.43-18.76-4.25-3.45-.45-6.12-3.2-6.55-6.66-.01-.12-.03-.24-.04-.36-.87-6.09-1.99-12.17-4.17-18.26-.73-2.01-2.33-3.72-4.5-4.5-3.87-1.38-8.12.63-9.5,4.5-2.08,6.09-3.39,12.25-4.21,18.45-.45,3.4-3.12,6.09-6.53,6.52-3.24.41-6.46.97-9.66,1.71-3.04.72-6.09,1.56-9.13,2.83-1.76.74-3.27,2.16-4.07,4.07-1.62,3.87.2,8.31,4.07,9.93,5.95,2.41,12.03,3.62,18.26,4.48.04,0,.08.01.13.02,3.44.44,6.18,3.1,6.63,6.54.41,3.14.96,6.26,1.67,9.36.72,3.04,1.56,6.09,2.83,9.13.74,1.76,2.16,3.27,4.07,4.07,3.87,1.62,8.31-.2,9.93-4.07,2.41-5.95,3.62-12.03,4.48-18.26.02-.14.04-.29.06-.43.44-3.49,3.18-6.21,6.67-6.65.02,0,.04,0,.06,0,6.09-.87,12.17-1.99,18.26-4.17,2.01-.73,3.72-2.33,4.5-4.5,1.38-3.87-.63-8.12-4.5-9.5Z"/>
      </g>
      <g>
        <circle class="cls-1" cx="602.11" cy="104.51" r="12.91"/>
        <path class="cls-1" d="M608.24,46.51c6.19-2.12,12.45-3.43,18.76-4.25,3.45-.45,6.12-3.2,6.55-6.66.01-.12.03-.24.04-.36.87-6.09,1.99-12.17,4.17-18.26.73-2.01,2.33-3.72,4.5-4.5,3.87-1.38,8.12.63,9.5,4.5,2.08,6.09,3.39,12.25,4.21,18.45.45,3.4,3.12,6.09,6.53,6.52s6.46.97,9.66,1.71c3.04.72,6.09,1.56,9.13,2.83,1.76.74,3.27,2.16,4.07,4.07,1.62,3.87-.2,8.31-4.07,9.93-5.95,2.41-12.03,3.62-18.26,4.48-.04,0-.08.01-.13.02-3.44.44-6.18,3.1-6.63,6.54-.41,3.14-.96,6.26-1.67,9.36-.72,3.04-1.56,6.09-2.83,9.13-.74,1.76-2.16,3.27-4.07,4.07-3.87,1.62-8.31-.2-9.93-4.07-2.41-5.95-3.62-12.03-4.48-18.26-.02-.14-.04-.29-.06-.43-.44-3.49-3.18-6.21-6.67-6.65-.02,0-.04,0-.06,0-6.09-.87-12.17-1.99-18.26-4.17-2.01-.73-3.72-2.33-4.5-4.5-1.38-3.87.63-8.12,4.5-9.5Z"/>
      </g>
    </g>
  </g>
</svg>