<?xml version="1.0" encoding="UTF-8"?>
<svg id="Delphi" xmlns="http://www.w3.org/2000/svg" viewBox="0 0 1000 800">
  <defs>
    <style>
      .cls-1 {
        fill: #fff;
      }

      .cls-2 {
        fill: #d1f0e8;
      }

      .cls-3 {
        fill: #182d33;
      }

      .cls-4 {
        fill: #f33144;
      }

      .cls-5 {
        fill: #efefef;
      }

      .cls-6 {
        fill: #0d9488;
      }

      .cls-7 {
        fill: #c74141;
      }
    </style>
  </defs>
  <g>
    <path class="cls-6" d="m661.61,475.61s55.57-37.57,76.7-86.87c21.13-49.3,28.96-100.96,90-78.26,61.04,22.7,34.43,82.96-17.22,72.78l15.65,3.13c-6.08,22.49-14.83,66.99-37.04,98.09-44.35,62.09-129.39,86.09-153.39,87.13l25.3-96Z"/>
    <path class="cls-2" d="m672.57,533.13s49.04-11.61,88.04-56.74c30.43-35.21,40.04-90,40.04-90,0,0,14.09,0,17.22,13.57,3.13,13.57-17.74,80.35-57.39,116.87-39.65,36.52-86.61,44.35-86.61,44.35"/>
    <path class="cls-3" d="m636.29,585.61c-7.45,0-13.65-5.87-13.98-13.39-.34-7.72,5.65-14.26,13.38-14.59,19.24-.84,100.51-22.35,142.61-81.28,17.43-24.4,26.19-59.2,31.99-82.22,1.03-4.11,2.01-7.98,2.93-11.39,2.02-7.46,9.71-11.87,17.17-9.86,7.46,2.02,11.88,9.71,9.86,17.17-.86,3.17-1.8,6.93-2.81,10.91-6.31,25.07-15.85,62.95-36.36,91.66-25.8,36.12-63.08,58.55-89.8,71.01-30.46,14.2-59.91,21.34-74.37,21.97-.21,0-.41.01-.62.01Z"/>
    <g>
      <ellipse class="cls-4" cx="848.85" cy="428" rx="41.94" ry="25" transform="translate(-95.59 319.5) rotate(-20.2)"/>
      <path class="cls-3" d="m835.53,468.57c-3.73,0-7.35-.32-10.8-.96-13.55-2.53-23.55-10.05-27.45-20.63s-1.15-22.79,7.52-33.5c7.26-8.96,18.24-16.47,30.92-21.13,12.68-4.67,25.9-6.07,37.24-3.95,13.55,2.53,23.55,10.05,27.44,20.63h0c3.89,10.58,1.15,22.79-7.52,33.5-7.26,8.96-18.24,16.47-30.92,21.13-8.82,3.25-17.91,4.91-26.44,4.91Zm26.63-55.14c-4.97,0-10.96.92-17.45,3.31-16.59,6.1-24.44,17.39-23.02,21.25,1.42,3.87,14.72,7.36,31.31,1.26,8.23-3.03,15.4-7.8,19.69-13.1,3.01-3.71,3.84-6.77,3.33-8.16h0c-.87-2.35-6.13-4.57-13.85-4.57Z"/>
    </g>
    <g>
      <path class="cls-4" d="m814.86,380.1l18.93,45.95s14.68-.97,24.71-11.03l-15.67-37.31"/>
      <path class="cls-3" d="m833.79,434.55c-3.42,0-6.54-2.06-7.86-5.26l-18.93-45.95c-1.79-4.34.28-9.31,4.62-11.1,4.34-1.79,9.31.28,11.1,4.62l16.3,39.57c2.71-.76,6.03-1.99,9.17-3.99l-13.2-31.44c-1.82-4.33.22-9.31,4.55-11.13,4.33-1.82,9.31.22,11.13,4.55l15.67,37.31c1.33,3.18.62,6.85-1.82,9.29-12.15,12.18-29.44,13.46-30.17,13.5-.19.01-.38.02-.56.02Z"/>
    </g>
    <path class="cls-3" d="m661.62,489.61c-4.49,0-8.91-2.16-11.61-6.16-4.33-6.4-2.65-15.11,3.75-19.44.88-.6,52.53-36.12,71.67-80.79,3.02-7.05,5.82-14.3,8.52-21.3,8.42-21.83,16.38-42.44,30.45-55.98,17.22-16.58,39.72-19.39,68.78-8.59,16.66,6.19,29.4,15.64,36.84,27.31,7.27,11.4,9.33,24.56,5.8,37.05-3.53,12.49-12.16,23-24.32,29.6-12.53,6.8-27.44,8.77-43.12,5.68-7.59-1.49-12.52-8.86-11.03-16.44,1.49-7.58,8.85-12.52,16.44-11.03,19.11,3.77,32.12-4.91,35.08-15.42,3.32-11.75-6.43-23.44-25.45-30.51-37.56-13.97-46.07,3.64-63.35,48.41-2.79,7.24-5.68,14.72-8.91,22.25-22.49,52.48-79.31,91.33-81.72,92.95-2.4,1.62-5.13,2.4-7.83,2.4Z"/>
  </g>
  <g>
    <polygon class="cls-5" points="868.2 614.34 699.48 645.62 756.72 730.45 935 699.64 868.2 614.34"/>
    <path class="cls-3" d="m756.72,741.45c-3.61,0-7.05-1.78-9.12-4.85l-57.25-84.83c-2.07-3.07-2.46-6.99-1.03-10.41s4.49-5.89,8.14-6.56l168.73-31.28c4.03-.75,8.14.81,10.67,4.03l66.8,85.3c2.39,3.05,3,7.12,1.6,10.74-1.39,3.61-4.58,6.23-8.39,6.89l-178.28,30.81c-.63.11-1.25.16-1.88.16Zm-38.74-88.07l43.88,65.02,153.14-26.46-51.34-65.56-145.67,27Z"/>
    <path class="cls-3" d="m756.73,741.45c-2.87,0-5.73-1.12-7.89-3.33-4.23-4.36-4.13-11.32.22-15.55l57.83-56.18c4.36-4.23,11.32-4.13,15.55.22s4.13,11.32-.22,15.55l-57.83,56.18c-2.14,2.08-4.9,3.11-7.66,3.11Z"/>
    <path class="cls-3" d="m934.82,710.67c-.76,0-1.53-.08-2.31-.24l-119.62-25.52c-5.94-1.27-9.73-7.11-8.46-13.05,1.27-5.94,7.11-9.73,13.05-8.46l119.62,25.52c5.94,1.27,9.73,7.11,8.46,13.05-1.1,5.17-5.67,8.71-10.75,8.71Z"/>
    <g>
      <path class="cls-4" d="m764.55,679.49c7.94-1.69,12.26-8.66,10-15.22-2.14-6.2-9.53-10.04-16.76-8.86-7.42,1.22-12.52,7.38-11.09,14.06,1.52,7.1,9.68,11.76,17.85,10.02Zm-10.51-5.64l3.93-12.66c.16-.49.56-.9,1.09-1.13.17-.07.34-.12.51-.15.41-.07.84-.04,1.24.09l8.25,2.7c1.12.37,1.75,1.43,1.39,2.38-.36.96-1.59,1.44-2.73,1.06l-6.11-2.01-3.08,10.76c-.32,1.11-1.6,1.78-2.84,1.49-1.25-.29-1.99-1.42-1.64-2.53Z"/>
      <path class="cls-4" d="m735.49,671.56c.36,2.22,5.8,2.75,6.95,4.64,1.21,1.99-1.21,6.67.68,8.24,1.92,1.6,6.96-1.02,9.35-.09,2.37.93,3.68,6.1,6.38,6.29,2.59.19,4.78-4.67,7.35-5.25,2.55-.57,6.92,2.72,8.97,1.47,2.09-1.27.6-6.17,2.05-7.88,1.45-1.69,6.62-1.36,7.31-3.38.68-1.96-3.37-5-3.39-7.07-.02-1.97,3.83-4.15,3.07-6.09s-5.52-2.42-6.79-4.01c-1.3-1.62.1-5.13-1.62-6.3-1.72-1.18-5.59.57-7.64-.17-2.02-.73-3.27-4.31-5.45-4.53-2.11-.21-3.98,3.07-6.21,3.41-2.24.35-5.81-2.14-7.72-1.32-2,.85-1.21,4.65-2.79,6-1.63,1.38-6.63,1.01-7.73,2.75-1.12,1.76,2.45,4.67,2.05,6.71-.38,2.02-5.18,4.38-4.83,6.56Zm21.55-18.8c8.88-1.41,18,3.29,20.75,10.9,2.96,8.18-2.32,17.02-12.3,19.21-10.38,2.28-20.69-3.69-22.47-12.71-1.65-8.35,4.82-15.93,14.01-17.39Z"/>
    </g>
  </g>
  <g>
    <path class="cls-6" d="m610.16,514.54s65.02-7.71,129.01,11.81c57.99,17.69,111.91,68.16,93.08,94.06-14.84,20.41-36.21,13.93-66.76,5.49-48.62-13.44-122.52-21.59-197.24-8.11"/>
    <path class="cls-2" d="m610.37,574s96.6,7.56,135.15,18.32c38.54,10.76,68.26,31.47,73.74,33.46,5.48,1.99-40.66,2.62-47.88-.74s-105.71-19.24-108.76-18.36c-3.05.88-51.73,2.33-51.73,2.33l-17.04,2.5"/>
    <path class="cls-3" d="m805.31,647.97c-12.54,0-25.97-3.72-41.51-8.02l-2.05-.57c-21.71-6-99.65-24.3-191.02-7.82-7.61,1.37-14.89-3.68-16.26-11.29s3.68-14.89,11.29-16.26c65.59-11.83,141.65-8.7,203.45,8.39l2.06.57c30.86,8.54,41.52,10.37,49.64-.8.59-.81,2.16-2.96.19-8.82-6.59-19.69-43.54-50.65-86.03-63.61-60.25-18.38-122.66-11.37-123.28-11.29-7.68.89-14.63-4.59-15.54-12.27-.9-7.67,4.58-14.63,12.25-15.54,2.77-.33,68.7-7.83,134.74,12.32,48.17,14.69,94.03,50.5,104.41,81.51,5.41,16.15.75,27.5-4.1,34.18-9.42,12.95-21.85,19.27-38.02,19.33h-.23Z"/>
  </g>
  <g>
    <polygon class="cls-5" points="272.45 660.52 441.18 691.79 383.93 776.62 205.65 745.81 272.45 660.52"/>
    <path class="cls-3" d="m383.93,787.62c-.62,0-1.25-.05-1.88-.16l-178.28-30.81c-3.81-.66-7-3.27-8.39-6.89-1.39-3.61-.78-7.69,1.6-10.74l66.8-85.3c2.53-3.23,6.64-4.78,10.67-4.03l168.73,31.28c3.65.68,6.71,3.14,8.14,6.56,1.43,3.42,1.05,7.33-1.03,10.41l-57.25,84.83c-2.07,3.06-5.5,4.85-9.12,4.85Zm-158.27-49.52l153.14,26.46,43.88-65.02-145.67-27-51.34,65.56Z"/>
    <path class="cls-3" d="m383.93,787.62c-2.76,0-5.53-1.03-7.66-3.11l-57.83-56.18c-4.36-4.23-4.46-11.2-.22-15.55s11.2-4.46,15.55-.22l57.83,56.18c4.36,4.23,4.46,11.2.22,15.55-2.16,2.22-5.02,3.33-7.89,3.33Z"/>
    <path class="cls-3" d="m205.83,756.85c-5.08,0-9.64-3.54-10.75-8.71-1.27-5.94,2.52-11.79,8.46-13.05l119.62-25.52c5.94-1.26,11.79,2.52,13.05,8.46,1.27,5.94-2.52,11.79-8.46,13.05l-119.62,25.52c-.77.17-1.55.24-2.31.24Z"/>
  </g>
  <path class="cls-6" d="m399.83,452.52s-97.43-15.26-131.48-77.48-5.87-108.78-45.78-113.87c-33.74-4.3-34.43,34.43-40.7,37.57-6.26,3.13-28.17,25.83-5.48,50.87,0,0-10.17,177.65,170.61,187.04"/>
  <path class="cls-2" d="m173,317.52s6.26,19.83,16.17,24.52c9.91,4.7,15.65,2.09,18.26,16.17,2.61,14.09,4.17,101.74,103.83,126.26l-19.83,27.65s-81.91-31.3-102.26-90.78c-20.35-59.48-18.26-75.65-18.26-75.65"/>
  <path class="cls-3" d="m347.01,550.65c-.24,0-.49,0-.74-.02-57.71-3-103.18-22.6-135.14-58.26-45.54-50.8-48.92-117.97-48.86-137.88-10.44-13.89-10.88-27.02-9.21-35.95,2.7-14.38,12.02-25.13,19.07-30.18.41-1.04.9-2.38,1.3-3.47,2.55-6.97,6.03-16.53,13.22-24.53,9.42-10.48,22.44-15,37.67-13.06,14.78,1.88,25.18,8.82,30.91,20.62,4.48,9.23,5.61,20.17,6.92,32.83,1.92,18.58,4.31,41.71,18.47,67.59,30.28,55.33,120.47,70.22,121.38,70.37,7.63,1.21,12.85,8.38,11.64,16.01-1.2,7.63-8.36,12.85-15.99,11.65-4.26-.67-104.67-17.1-141.59-84.59-16.87-30.83-19.69-58.18-21.76-78.15-2.72-26.35-4.5-27.4-13.51-28.55-11.33-1.45-15.37,3.83-21.06,19.42-2.48,6.81-4.83,13.24-11.32,16.64-1.85,1.27-7.09,6.74-7.96,13.44-.67,5.11,1.4,10.23,6.31,15.66,2.52,2.78,3.82,6.46,3.6,10.2-.04.7-3.39,73.26,41.77,123.45,26.81,29.8,65.69,46.22,115.59,48.81,7.72.4,13.66,6.99,13.25,14.71-.39,7.47-6.57,13.27-13.97,13.27Zm-158.74-239.46s-.1.05-.15.07c.05-.02.09-.05.15-.07Z"/>
  <path class="cls-6" d="m413.1,598.73s-101.99,42.27-193.59-15.27c-62.47-39.24-94.89-105.04-43.39-123.9,27.08-9.92,44.1,24.3,86.77,42.31,52.5,22.16,90.34-.2,103-16.78"/>
  <path class="cls-2" d="m191.26,530.91s59.12,57.06,186.26,51.82c0,0-11.51,26.17-40.29,29.31s-111.97-23.03-131.32-47.11"/>
  <path class="cls-3" d="m328.68,627.69c-42.71,0-82.64-11.03-116.62-32.37-22.26-13.99-41.96-31.93-55.47-50.53-14.74-20.3-21.56-40.18-19.74-57.51,2-18.95,14.23-33.46,34.45-40.86,23.23-8.5,41,5.1,58.18,18.25,10.8,8.27,23.05,17.64,38.84,24.31,47.75,20.16,78.58-2.1,86.43-12.38,4.69-6.14,13.48-7.32,19.62-2.63,6.14,4.69,7.32,13.48,2.63,19.62-9.53,12.48-25.96,22.91-43.94,27.91-23.55,6.54-49.7,4.22-75.63-6.73-19.09-8.06-33.44-19.04-44.97-27.87-16.51-12.64-23.51-17.13-31.54-14.19-13.41,4.91-15.69,12.34-16.23,17.5-2.03,19.23,19.1,54.29,62.25,81.4,84.5,53.08,179.83,14.59,180.79,14.19,7.14-2.96,15.33.43,18.29,7.57,2.96,7.14-.43,15.33-7.57,18.29-1.12.46-27.91,11.42-66.53,14.95-7.83.71-15.59,1.07-23.25,1.07Z"/>
  <g>
    <path class="cls-3" d="m183.18,214.54c-8.16-13.32-16.33-26.64-24.49-39.96-.68-1.11-.89-2.19-.63-3.23.26-1.04.91-1.89,1.96-2.52,4.38-2.65,8.78-5.24,13.21-7.77,8.43-4.83,15.92-6.49,22.26-5.14,6.35,1.36,11.52,6.08,15.62,14.05,8.71,17.12,5.26,29.47-9.95,38.11-4.16,2.38-8.3,4.81-12.42,7.29-2.45,1.48-4.3,1.22-5.55-.83Zm-4.12-39.72c3.89,6.74,7.78,13.49,11.67,20.23.55.95.97,1.5,1.26,1.66.29.16.81.03,1.56-.4,2.73-1.57,4.29-3.66,4.69-6.33.39-2.66-.6-6.17-3.01-10.53-2.4-4.35-4.73-6.77-7-7.24-2.27-.46-5.07.24-8.38,2.15-.26.15-.52.3-.78.45Z"/>
    <path class="cls-3" d="m241.21,150.79c1.01-.45,2.26.99,3.74,4.32.44,1,.85,2.23,1.22,3.69.37,1.46.24,2.33-.39,2.61-3.32,1.49-6.63,3.01-9.93,4.55,1.1,2.36,2.21,4.72,3.31,7.07,4.72-2.21,9.47-4.37,14.23-6.46.88-.39,1.94.41,3.16,2.37.55.84,1.05,1.77,1.49,2.8.45,1.03.87,2.42,1.27,4.18.4,1.76.25,2.79-.46,3.1-8.66,3.8-17.26,7.81-25.78,12.03-1.89.94-3.2.69-3.92-.75-7.51-14.96-15.01-29.93-22.52-44.89-.61-1.21-.29-2.13.96-2.75,9.71-4.84,19.51-9.42,29.4-13.75,1.16-.51,2.66,1.36,4.5,5.58,1.84,4.23,2.19,6.59,1.05,7.08-5,2.19-9.98,4.45-14.94,6.77,1.12,2.38,2.23,4.76,3.35,7.14,3.41-1.6,6.84-3.17,10.28-4.71Z"/>
    <path class="cls-3" d="m264.9,171.41c-6.29-14.92-12.59-29.85-18.88-44.77-.43-1,2.17-2.71,7.83-5.01,5.66-2.29,8.7-2.87,9.1-1.85,4.63,11.89,9.26,23.78,13.9,35.66,4.05-1.58,8.11-3.11,12.19-4.6.95-.35,2.03.56,3.23,2.73.57,1.07,1.06,2.19,1.49,3.37.43,1.17.78,2.4,1.07,3.69.43,2.5.19,3.92-.74,4.26-7.95,2.91-15.86,5.99-23.71,9.25-1.12.47-2.19.41-3.22-.18-1.03-.59-1.77-1.43-2.24-2.53Z"/>
    <path class="cls-3" d="m307.8,160.2c-4.73,1.61-7.25,1.96-7.6.98-5.62-15.91-11.23-31.82-16.85-47.73-.59-1.67-.01-2.81,1.74-3.42,4.97-1.73,9.96-3.4,14.97-5.01,8.42-2.71,15-2.98,19.6-1.02,4.61,1.97,7.7,5.9,9.33,11.72,1.35,4.82.86,9.7-1.35,14.68-1.11,2.49-3.1,4.81-5.97,6.99-2.87,2.18-6.44,3.94-10.71,5.32,1.44,4.43,2.87,8.87,4.31,13.3.19.6-.66,1.32-2.54,2.18-1.88.87-3.52,1.54-4.92,2.02Zm-4.75-41.88c1.27,3.91,2.54,7.83,3.8,11.74.36-.11.71-.23,1.07-.34,1.91-.61,3.35-1.67,4.33-3.18.98-1.51,1.16-3.25.54-5.24-.62-1.99-1.51-3.26-2.7-3.83-1.18-.56-2.95-.47-5.29.28-.58.19-1.17.38-1.75.57Z"/>
    <path class="cls-3" d="m388.82,137.3c.17.88-2.45,1.81-7.84,2.91-5.39,1.11-8.17,1.29-8.36.42-1.28-5.85-2.57-11.7-3.85-17.55-3.84.84-7.68,1.72-11.51,2.64,1.39,5.82,2.79,11.65,4.18,17.47.21.87-2.37,1.92-7.72,3.27-5.34,1.36-8.12,1.67-8.35.81-4.47-16.67-8.94-33.35-13.41-50.02-.28-1.05,2.47-2.38,8.3-3.86,5.83-1.47,8.88-1.62,9.13-.56,1.42,5.95,2.85,11.9,4.27,17.85,3.93-.94,7.86-1.84,11.8-2.7-1.3-5.93-2.6-11.85-3.9-17.78-.16-.71,1.18-1.54,4.02-2.47,1.49-.42,2.96-.78,4.41-1.08,1.49-.25,2.99-.5,4.48-.74,2.97-.27,4.52-.03,4.66.69,3.23,16.9,6.47,33.81,9.7,50.71Z"/>
    <path class="cls-3" d="m400.17,122.96c-1.54-9.14-3.08-18.28-4.62-27.42-2.03.34-4.06.69-6.09,1.05-.97.17-1.86-.81-2.66-2.94-.37-1.05-.65-2.13-.86-3.26-.2-1.13-.32-2.24-.34-3.35,0-2.28.51-3.5,1.5-3.68,9.81-1.74,19.64-3.27,29.5-4.57,1-.13,1.82.89,2.45,3.07.37,1.05.63,2.15.78,3.29.15,1.14.17,2.26.08,3.38-.06,2.27-.58,3.46-1.55,3.59-1.93.25-3.85.52-5.78.79,1.3,9.18,2.59,18.36,3.89,27.53,1.92-.27,3.85-.53,5.78-.79.94-.12,1.74.9,2.41,3.07.36,1.05.61,2.15.75,3.29.15,1.14.18,2.26.1,3.37-.09,2.27-.6,3.46-1.51,3.58-9.07,1.19-18.13,2.59-27.15,4.2-.91.16-1.72-.83-2.45-2.97-.41-1.04-.72-2.12-.92-3.25-.2-1.13-.3-2.25-.27-3.36-.07-2.26.36-3.48,1.29-3.64,1.89-.34,3.78-.66,5.67-.98Z"/>
    <path class="cls-3" d="m485.08,128.2c-4.71.15-7.29-.46-7.73-1.91-1.04-3.32-2.1-6.63-3.17-9.94-4.39.21-8.78.46-13.17.76-.58,3.28-1.15,6.55-1.7,9.83-.21,1.64-2.75,2.62-7.61,3.03-2.59.22-4.53.26-5.8.09-1.27-.17-1.91-.32-1.93-.48,3.07-18.01,6.55-36.01,10.46-53.97-.03-.41,3.99-.95,12.07-1.41,8.08-.44,12.14-.35,12.15.06,5.77,17.45,11.13,34.97,16.08,52.56,0,.37-1.24.67-3.73.93-2.49.26-4.46.42-5.93.46Zm-22.65-21.12c2.94-.19,5.89-.36,8.84-.51-1.54-5.32-3.11-10.63-4.71-15.94-.17,0-.35.02-.52.03-1.24,5.47-2.44,10.95-3.61,16.42Z"/>
    <path class="cls-3" d="m507.19,127.93c-4.93-.03-7.4-.51-7.41-1.56-.11-16.87-.21-33.74-.32-50.62-.01-1.77.9-2.66,2.73-2.67,5.2-.01,10.4.04,15.6.15,8.75.19,15,2.07,18.67,5.43,3.68,3.37,5.3,8.09,4.95,14.11-.29,4.99-2.34,9.46-6.03,13.44-1.85,2-4.47,3.53-7.86,4.66-3.39,1.12-7.3,1.63-11.74,1.54-.09,4.66-.18,9.32-.27,13.98-.01.62-1.04,1.04-3.08,1.24-2.04.21-3.79.31-5.25.3Zm9.1-41.13c-.08,4.11-.16,8.23-.24,12.34.37,0,.74.01,1.11.02,1.99.04,3.67-.48,5.07-1.59,1.4-1.1,2.14-2.69,2.2-4.78.07-2.08-.36-3.58-1.28-4.5-.93-.91-2.61-1.4-5.04-1.46-.61-.01-1.21-.03-1.82-.04Z"/>
    <path class="cls-3" d="m553.49,129.96c-4.92-.4-7.34-1.07-7.27-2.12,1.18-16.83,2.35-33.66,3.53-50.49.12-1.76,1.1-2.59,2.93-2.45,5.19.38,10.37.83,15.55,1.33,8.71.85,14.81,3.21,18.23,6.84,3.42,3.64,4.68,8.47,3.87,14.45-.67,4.96-3.05,9.25-7.04,12.94-1.99,1.85-4.73,3.19-8.2,4.05-3.47.86-7.41,1.07-11.84.64-.44,4.64-.89,9.28-1.33,13.92-.06.62-1.12.95-3.16,1-2.05.05-3.8.02-5.26-.1Zm12.2-40.32c-.39,4.1-.78,8.19-1.18,12.29.37.04.74.07,1.1.11,1.98.19,3.7-.21,5.18-1.2,1.48-.99,2.34-2.53,2.56-4.6.23-2.07-.09-3.6-.94-4.58-.85-.98-2.5-1.6-4.92-1.84-.61-.06-1.21-.12-1.82-.18Z"/>
    <path class="cls-3" d="m608.14,135.67c-.14.83-2.76.78-7.86-.04-5.15-.82-7.68-1.57-7.56-2.35,2.48-16.8,4.95-33.59,7.43-50.39.26-1.8,1.48-2.55,3.65-2.22,5.59.85,11.18,1.78,16.75,2.77,15.39,2.78,21.88,9.78,19.59,20.18-.68,3.16-1.98,5.87-3.86,8.16-1.89,2.29-4.21,3.94-6.96,4.98,2.41,6.07,4.72,12.14,6.94,18.23-.7,1.13-2.41,2.22-5.1,3.29-3.68,1.51-6.53,2.07-8.62,1.66-2.08-.41-3.49-1.43-4.23-3.05-1.45-6.08-2.97-12.16-4.57-18.24-.86-.15-1.71-.3-2.57-.45-1.01,5.82-2.02,11.65-3.03,17.47Zm6.8-39.17c-.67,3.85-1.34,7.7-2.01,11.54.14.02.28.05.42.07,5.33.93,8.37-.57,9.13-4.62.35-1.84.08-3.31-.81-4.4-.89-1.09-2.53-1.86-4.94-2.28-.6-.11-1.2-.21-1.8-.31Z"/>
    <path class="cls-3" d="m663.32,149.84c-7.4-2.01-12.84-5.83-16.48-11.62-3.63-5.79-4.52-13.14-2.49-22.11,2.02-8.96,6.08-15.2,12.31-18.59,6.22-3.38,13.5-4.02,21.65-1.8,8.14,2.22,14.05,6.4,17.61,12.36,3.56,5.96,3.82,13.47.94,22.47-2.88,9.01-7.41,14.93-13.45,17.9-6.06,2.97-12.69,3.41-20.09,1.4Zm10.84-39.71c-2.7-.73-5.27-.23-7.66,1.52-2.4,1.74-4.1,4.63-5.12,8.64-1.02,4.01-.96,7.31.17,9.89,1.13,2.58,3.05,4.23,5.77,4.97,2.72.74,5.23.28,7.55-1.39,2.32-1.67,4.06-4.5,5.22-8.5,1.16-4,1.15-7.34-.06-10.01-1.2-2.67-3.17-4.38-5.87-5.11Z"/>
    <path class="cls-3" d="m708.38,106.47c.08-.24,1.39-.09,3.93.51,2.54.59,4.6,1.17,6.19,1.71,6.29,2.15,9.29,4.06,9.06,5.58-1.46,11.65-3.05,23.27-4.76,34.86,6.15-9.93,12.41-19.81,18.79-29.63.87-1.28,4.63-.67,11.21,1.99,1.62.65,3.61,1.58,5.97,2.79,2.36,1.21,3.49,1.95,3.39,2.18-11.62,13.8-22.87,27.82-33.76,42.05-.51.7-2.23.6-5.15-.25-4.54-1.25-8.55-2.64-12.05-4.21-3.5-1.57-5.24-2.71-5.2-3.47,1.19-17.96,1.99-36,2.37-54.1Z"/>
    <path class="cls-3" d="m784.84,159.59c1,.49.7,2.37-.91,5.64-.48.98-1.17,2.08-2.05,3.3-.89,1.22-1.64,1.68-2.26,1.38-3.28-1.6-6.58-3.17-9.88-4.7-1.1,2.36-2.2,4.72-3.29,7.08,4.73,2.2,9.44,4.46,14.12,6.79.87.43.94,1.75.22,3.95-.29.96-.69,1.94-1.19,2.94-.5,1-1.3,2.22-2.39,3.65-1.09,1.43-1.98,1.98-2.68,1.63-8.52-4.23-17.11-8.24-25.77-12.05-1.93-.84-2.57-2-1.93-3.48,6.65-15.36,13.3-30.73,19.96-46.09.54-1.24,1.44-1.59,2.71-1.03,9.89,4.32,19.69,8.89,29.41,13.72,1.14.57.68,2.91-1.38,7.04-2.06,4.12-3.65,5.9-4.76,5.35-4.92-2.44-9.86-4.82-14.82-7.12-1.11,2.38-2.22,4.77-3.33,7.15,3.42,1.59,6.83,3.21,10.22,4.87Z"/>
    <path class="cls-3" d="m784.6,192.32c7.16-13.89,14.32-27.77,21.47-41.66.6-1.16,1.4-1.9,2.42-2.22,1.02-.32,2.07-.2,3.15.36,4.5,2.35,8.97,4.76,13.42,7.22,8.48,4.7,13.82,10.26,15.98,16.4,2.16,6.15.83,13.04-3.86,20.67-10.11,16.33-22.58,19.71-37.84,11.19-4.18-2.32-8.39-4.59-12.61-6.8-2.52-1.32-3.23-3.03-2.14-5.16Zm31.72-24.17c-3.75,6.82-7.5,13.65-11.24,20.47-.53.96-.78,1.61-.77,1.94.01.33.39.71,1.15,1.12,2.75,1.52,5.35,1.77,7.84.72,2.48-1.04,4.97-3.72,7.44-8.03,2.47-4.31,3.33-7.56,2.55-9.74-.78-2.18-2.84-4.21-6.18-6.05-.26-.14-.52-.29-.78-.43Z"/>
  </g>
  <circle class="cls-6" cx="500" cy="412.26" r="216.39"/>
  <path class="cls-2" d="m679.22,409.98c0,57.45-26.22,128.76-73.69,167.37l19.83,9.39,37.4-26.7c36.18-38.68,58.34-90.65,58.34-147.79,0-105.49-75.48-193.35-175.38-212.51,78.48,34.74,133.51,115.79,133.51,210.23Z"/>
  <path class="cls-3" d="m500,643.65c-61.81,0-119.91-24.07-163.62-67.77-43.7-43.7-67.77-101.81-67.77-163.62s24.07-119.91,67.77-163.62c43.7-43.7,101.81-67.77,163.62-67.77s119.91,24.07,163.62,67.77c43.7,43.7,67.77,101.81,67.77,163.62s-24.07,119.91-67.77,163.62c-43.7,43.7-101.81,67.77-163.62,67.77Zm0-432.78c-111.05,0-201.39,90.34-201.39,201.39s90.34,201.39,201.39,201.39,201.39-90.34,201.39-201.39-90.34-201.39-201.39-201.39Z"/>
  <circle class="cls-3" cx="398.26" cy="432.48" r="44.61"/>
  <g>
    <circle class="cls-3" cx="399.3" cy="309.35" r="23.61"/>
    <circle class="cls-3" cx="449.91" cy="266.04" r="21.78"/>
    <circle class="cls-3" cx="475.02" cy="315.67" r="15.91"/>
    <circle class="cls-3" cx="507.57" cy="244.52" r="13.17"/>
  </g>
  <circle class="cls-1" cx="394.54" cy="422.7" r="15.46"/>
  <circle class="cls-3" cx="601.74" cy="432.48" r="44.61"/>
  <circle class="cls-1" cx="598.02" cy="422.7" r="15.46"/>
  <g>
    <path class="cls-6" d="m421.35,653.52l15.13,4.3c5.09-17.22,37.57-37.7,37.57-37.7-4.73-33.21-27.69-47.2-74.09-36.52,0,0-81.39,40.17-67.3,94.96,14.09,54.78,134.26,86.24,156,51.65,11.48-18.26-7.3-50.61-67.3-76.7Z"/>
    <path class="cls-2" d="m428.39,653.78s-17.74-5.22-17.48-14.61,33.91-38.61,47.48-36.26,15.39,10.17,15.39,10.17"/>
    <path class="cls-3" d="m450.04,758.69c-6.85,0-14.19-.59-21.95-1.81-46.47-7.25-98.83-35.28-109-74.83-16.73-65.04,70.93-109.15,74.67-111,6.94-3.42,15.33-.58,18.75,6.36,3.42,6.93.58,15.32-6.35,18.75-.43.21-19.34,9.73-36.13,25.12-20.22,18.53-28.24,36.63-23.82,53.81,6.82,26.54,49.18,48.37,86.19,54.14,25.24,3.94,40.71-.59,44.39-6.45.47-.75,1.91-3.04.33-8.14-3.73-12.06-21.8-31.07-61.37-48.27-7.09-3.08-10.34-11.33-7.26-18.42,3.08-7.09,11.33-10.34,18.42-7.26,42.2,18.35,69.53,41.67,76.95,65.68,3.46,11.21,2.27,22.33-3.38,31.3-8.63,13.73-26.52,21.02-50.47,21.02Z"/>
    <path class="cls-3" d="m436.48,671.83c-1.31,0-2.65-.19-3.97-.58-7.42-2.19-11.65-9.98-9.46-17.39,6.27-21.21,37.36-41.68,43.52-45.57,6.54-4.12,15.19-2.16,19.31,4.38,4.12,6.54,2.17,15.18-4.37,19.3h0c-13.54,8.57-29.48,22.6-31.61,29.83-1.8,6.09-7.38,10.04-13.42,10.04Z"/>
  </g>
  <g>
    <path class="cls-6" d="m578.91,653.52l-15.13,4.3c-5.09-17.22-37.57-37.7-37.57-37.7,4.73-33.21,27.69-47.2,74.09-36.52,0,0,81.39,40.17,67.3,94.96-14.09,54.78-134.26,86.24-156,51.65-11.48-18.26,7.3-50.61,67.3-76.7Z"/>
    <path class="cls-2" d="m571.87,653.78s17.74-5.22,17.48-14.61-33.91-38.61-47.48-36.26c-13.57,2.35-15.39,10.17-15.39,10.17"/>
    <path class="cls-3" d="m550.22,758.69c-23.95,0-41.83-7.29-50.47-21.02-5.64-8.98-6.84-20.09-3.38-31.3,7.42-24.01,34.75-47.33,76.95-65.68,7.09-3.08,15.34.17,18.42,7.26,3.08,7.09-.17,15.34-7.26,18.42-39.56,17.2-57.64,36.21-61.37,48.27-1.58,5.1-.14,7.39.33,8.14,3.69,5.87,19.15,10.39,44.39,6.45,37.01-5.77,79.37-27.6,86.19-54.14,10.95-42.58-59.23-78.57-59.94-78.92-6.93-3.42-9.78-11.82-6.36-18.75s11.82-9.78,18.75-6.36c3.74,1.85,91.39,45.95,74.67,111-10.17,39.55-62.53,67.58-109,74.83-7.76,1.21-15.1,1.81-21.95,1.81Z"/>
    <path class="cls-3" d="m563.78,671.83c-6.04,0-11.62-3.95-13.42-10.04-2.14-7.23-18.07-21.26-31.61-29.83-6.53-4.13-8.48-12.78-4.36-19.31,4.13-6.53,12.76-8.49,19.3-4.37,6.17,3.89,37.26,24.37,43.52,45.57,2.19,7.42-2.04,15.2-9.46,17.39-1.32.39-2.66.58-3.97.58Z"/>
  </g>
  <g>
    <rect class="cls-5" x="49.79" y="454" width="180.78" height="126.14" transform="translate(-125.93 52.1) rotate(-14.61)"/>
    <path class="cls-3" d="m68.62,611.91c-4.89,0-9.35-3.28-10.64-8.23l-31.83-122.06c-.74-2.82-.32-5.82,1.15-8.34,1.48-2.52,3.89-4.34,6.71-5.08l174.93-45.61c5.88-1.53,11.89,1.99,13.42,7.87l31.83,122.06c.74,2.82.32,5.82-1.15,8.34-1.48,2.52-3.89,4.34-6.71,5.08l-174.93,45.61c-.93.24-1.86.36-2.78.36Zm-18.4-125.2l26.28,100.77,153.65-40.06-26.28-100.77-153.65,40.06Z"/>
    <path class="cls-3" d="m138.83,524.59c-1.18,0-2.37-.19-3.55-.59l-102.03-34.74c-5.75-1.96-8.83-8.21-6.87-13.96,1.96-5.75,8.21-8.82,13.96-6.87l102.03,34.74c5.75,1.96,8.83,8.21,6.87,13.96-1.56,4.58-5.83,7.46-10.41,7.46Z"/>
    <path class="cls-3" d="m139.48,524.42c-2.62,0-5.25-.93-7.35-2.82-4.52-4.06-4.89-11.02-.82-15.53l72.07-80.14c4.06-4.52,11.02-4.89,15.53-.82,4.52,4.06,4.89,11.02.82,15.53l-72.07,80.14c-2.17,2.42-5.17,3.64-8.18,3.64Z"/>
    <g>
      <path class="cls-4" d="m189.5,507.6c-8.9,0-16.14,7.24-16.14,16.13s7.24,16.13,16.14,16.13,16.13-7.23,16.13-16.13-7.24-16.13-16.13-16.13Zm9.45,9.07l-7.82,15.13c-.33.63-.91,1.09-1.59,1.27-.21.05-.42.08-.63.08-.49,0-.97-.14-1.38-.42l-8.48-5.61c-1.15-.76-1.47-2.31-.7-3.46.76-1.15,2.31-1.47,3.46-.71l6.16,4.08,6.54-12.66c.64-1.23,2.15-1.71,3.37-1.07,1.23.63,1.71,2.14,1.07,3.37Z"/>
      <path class="cls-4" d="m217.69,523.73c0-2.76-5.44-4.63-6.25-7.13-.84-2.58,2.43-7.29.86-9.44-1.58-2.17-7.07-.51-9.25-2.09-2.15-1.57-2.25-7.32-4.84-8.16-2.5-.81-5.95,3.76-8.71,3.76s-6.22-4.57-8.72-3.76c-2.58.84-2.69,6.59-4.84,8.16-2.18,1.58-7.67-.08-9.25,2.09-1.57,2.15,1.7,6.86.86,9.44-.81,2.5-6.25,4.37-6.25,7.13s5.44,4.64,6.25,7.14c.84,2.58-2.43,7.29-.86,9.44,1.58,2.17,7.07.51,9.25,2.09,2.15,1.57,2.25,7.31,4.84,8.15,2.5.81,5.95-3.75,8.72-3.75s6.21,4.56,8.71,3.75c2.58-.83,2.69-6.58,4.84-8.15,2.18-1.58,7.67.08,9.25-2.09,1.57-2.15-1.7-6.86-.86-9.44.81-2.5,6.25-4.37,6.25-7.14Zm-28.19,20.13c-11.1,0-20.14-9.03-20.14-20.13s9.04-20.13,20.14-20.13,20.13,9.03,20.13,20.13-9.03,20.13-20.13,20.13Z"/>
    </g>
  </g>
  <g>
    <path class="cls-3" d="m461.29,473.35c-.01.37-.03.74-.03,1.11,0,21.5,17.34,38.93,38.74,38.93s38.74-17.43,38.74-38.93c0-.37-.02-.74-.03-1.11h-77.42Z"/>
    <ellipse class="cls-7" cx="500" cy="503.13" rx="24.26" ry="14.41"/>
    <path class="cls-3" d="m500,525.89c-28.25,0-51.24-23.07-51.24-51.43,0-.41.01-.82.03-1.23v-.24c.21-6.76,5.74-12.14,12.5-12.14h77.42c6.77,0,12.31,5.39,12.5,12.15v.25c.02.4.03.8.03,1.21,0,28.36-22.99,51.43-51.24,51.43Zm-23.68-40.04c4.23,8.89,13.25,15.04,23.68,15.04s19.44-6.15,23.68-15.04h-47.35Z"/>
  </g>
  <circle class="cls-3" cx="72.16" cy="221.79" r="12.91"/>
  <path class="cls-3" d="m98.63,240.96c3.14-4.7,6.74-8.88,10.64-12.75,2.14-2.12,2.52-5.41,1.01-8-.05-.09-.1-.18-.16-.27-2.59-4.63-5.02-9.4-6.72-14.71-.55-1.76-.36-3.78.73-5.45,1.93-2.98,5.9-3.82,8.88-1.9,4.62,3.09,8.75,6.62,12.57,10.45,2.09,2.1,5.34,2.54,7.9,1.05,2.44-1.42,4.94-2.72,7.52-3.89,2.47-1.1,4.99-2.12,7.75-2.85,1.6-.41,3.38-.23,4.93.66,3.14,1.8,4.22,5.81,2.42,8.95-2.81,4.77-6.36,8.79-10.18,12.65-.03.03-.05.05-.08.08-2.13,2.11-2.62,5.37-1.12,7.96,1.37,2.37,2.63,4.8,3.76,7.3,1.1,2.47,2.12,4.99,2.85,7.75.41,1.6.23,3.38-.66,4.93-1.8,3.14-5.81,4.22-8.95,2.42-4.77-2.81-8.79-6.36-12.65-10.18-.09-.09-.18-.18-.26-.27-2.13-2.17-5.44-2.6-8.06-1.07-.02,0-.03.02-.05.03-4.63,2.59-9.4,5.02-14.71,6.72-1.76.55-3.78.36-5.45-.73-2.98-1.93-3.82-5.9-1.9-8.88Z"/>
  <circle class="cls-3" cx="928.86" cy="222.79" r="12.91"/>
  <path class="cls-3" d="m902.39,241.96c-3.14-4.7-6.74-8.88-10.64-12.75-2.14-2.12-2.52-5.41-1.01-8,.05-.09.1-.18.16-.27,2.59-4.63,5.02-9.4,6.72-14.71.55-1.76.36-3.78-.73-5.45-1.93-2.98-5.9-3.82-8.88-1.9-4.62,3.09-8.75,6.62-12.57,10.45-2.09,2.1-5.34,2.54-7.9,1.05-2.44-1.42-4.94-2.72-7.52-3.89-2.47-1.1-4.99-2.12-7.75-2.85-1.6-.41-3.38-.23-4.93.66-3.14,1.8-4.22,5.81-2.42,8.95,2.81,4.77,6.36,8.79,10.18,12.65.03.03.05.05.08.08,2.13,2.11,2.62,5.37,1.12,7.96-1.37,2.37-2.63,4.8-3.76,7.3-1.1,2.47-2.12,4.99-2.85,7.75-.41,1.6-.23,3.38.66,4.93,1.8,3.14,5.81,4.22,8.95,2.42,4.77-2.81,8.79-6.36,12.65-10.18.09-.09.18-.18.26-.27,2.13-2.17,5.44-2.6,8.06-1.07.02,0,.03.02.05.03,4.63,2.59,9.4,5.02,14.71,6.72,1.76.55,3.78.36,5.45-.73,2.98-1.93,3.82-5.9,1.9-8.88Z"/>
</svg>