<?xml version="1.0" encoding="UTF-8"?>
<svg id="Layer_1" data-name="Layer 1" xmlns="http://www.w3.org/2000/svg" viewBox="0 0 800 800">
  <defs>
    <style>
      .cls-1 {
        fill: #d1f0e8;
      }

      .cls-2 {
        stroke-width: 17px;
      }

      .cls-2, .cls-3, .cls-4, .cls-5 {
        stroke: #182d33;
        stroke-linecap: round;
        stroke-linejoin: round;
      }

      .cls-2, .cls-4 {
        fill: #afafaf;
      }

      .cls-6 {
        fill: #fff;
      }

      .cls-7 {
        fill: #f7ac3b;
      }

      .cls-3 {
        stroke-width: 30px;
      }

      .cls-3, .cls-5 {
        fill: none;
      }

      .cls-8 {
        fill: #182d33;
      }

      .cls-4 {
        stroke-width: 14px;
      }

      .cls-5 {
        stroke-width: 28px;
      }

      .cls-9 {
        fill: #0d9488;
      }

      .cls-10 {
        fill: #a25623;
      }

      .cls-11 {
        fill: #b86d35;
      }
    </style>
  </defs>
  <g>
    <path class="cls-9" d="m256.48,379.52s-54.78,7.83-94.3-33.26c-4.21-4.38-10.96-13.3-13.3-28.96-3.15-21.03-13.11-35.41-39.52-28.83-38.99,9.72-47.11,67.4-11.48,118.7,40.96,58.96,133.04,78.78,224.87,36.52"/>
    <path class="cls-1" d="m84.83,327.34s14.09,62.61,70.43,85.57c56.35,22.96,153.91-11.48,153.91-11.48,0,0,2.09,42.26-8.87,54.78-10.96,12.52-173.74,30.78-208.7-68.35"/>
    <path class="cls-8" d="m258.25,391.89c-32.67,6.27-69.77-5.15-95.44-25.97-3.81-3.03-7.44-6.49-10.86-9.95-6.94-7.17-11.95-16.54-14.65-25.72-2.52-7.62-2.42-16.5-6.12-23.46-2.07-4.13-5.32-5.74-9.69-5.68-7.79.06-16.56,2.93-21.89,8.96-5.93,6.24-8.97,15.82-9.75,24.48-1.96,21.84,6.53,44.63,18.84,62.93,11.18,16.79,27.23,30.09,45.29,38.98,47.05,23.3,103.28,18.26,151.19-.2,4.1-1.33,8.72-3.01,12.94-4.09,14.01-3.43,21.96,15.03,9.87,22.87-5.4,3.38-11.12,6.16-16.98,8.63-29.82,11.64-61.89,17.6-93.99,16.56-45.76-1.29-92.91-18.98-122.97-54.62-21.65-26.09-35.81-59.24-32.76-93.89,1.62-16.13,7.59-31.78,19.57-43.37,11.04-10.49,25.78-15.73,41.03-15.72,25.34.28,37.97,19.73,41.03,42.62,1.2,7.98,4.2,15.92,9.76,21.52.42.43,1.65,1.63,2.09,2.08,13.27,12.97,30.23,21.32,48.49,25.03,9.8,1.94,19.89,2.9,29.88,3.18,0,0,.91.03.91.03.26.02.66,0,.68.05l7.66,16.67c1.58,3.33-.51,7.41-4.13,8.08h0Z"/>
  </g>
  <g>
    <path class="cls-9" d="m543.52,379.52s54.78,7.83,94.3-33.26c4.21-4.38,10.96-13.3,13.3-28.96,3.15-21.03,13.11-35.41,39.52-28.83,38.99,9.72,47.11,67.4,11.48,118.7-40.96,58.96-133.04,78.78-224.87,36.52"/>
    <path class="cls-1" d="m715.17,327.34s-14.09,62.61-70.43,85.57c-56.35,22.96-153.91-11.48-153.91-11.48,0,0-2.09,42.26,8.87,54.78,10.96,12.52,173.74,30.78,208.7-68.35"/>
    <path class="cls-8" d="m545.29,367.14c30.73-.7,59.15-7.08,81.36-29.68,4.36-4.18,7.11-9.24,8.94-15.33,1.69-5.74,1.94-11.55,3.76-17.51,6.64-24.36,25.87-35.88,50.65-30.89,24.96,4.45,41.48,23.25,47,47.25,8.06,37.58-7.27,76.07-31.02,104.62-52.53,61.43-145.81,66.43-216.96,38.06-5.86-2.47-11.59-5.25-16.98-8.63-12.13-7.9-4.08-26.28,9.85-22.87,5.58,1.53,11.53,3.61,16.99,5.53,36.84,13.63,77.72,19.07,116.19,9.86,31.66-7.34,61.31-25.49,78.48-53.48,11.64-18.67,19.38-41.45,16.16-63.13-1.24-8-4.59-16.44-10.33-21.95-2.53-2.32-5.35-4.27-8.6-5.49-3.69-1.5-8.5-2.39-12.25-2.38-2.66.03-5.22.48-7.16,2.28-3.96,3.93-5.25,10.37-6.23,16.09-2.22,14.93-8.78,29.23-20.26,39.65-17.02,16.6-39.45,27.66-62.58,32.2-13.34,2.62-27.16,3.3-40.54.55-3.61-.67-5.69-4.74-4.14-8.05,0,0,7.68-16.69,7.68-16.69h0Z"/>
  </g>
  <circle class="cls-9" cx="399.3" cy="277.91" r="216.39"/>
  <path class="cls-1" d="m578.52,275.62c0,57.45-20.36,109.94-53.98,150.07h37.51c36.18-38.68,58.34-90.65,58.34-147.79,0-105.49-75.48-193.35-175.38-212.51,78.48,34.74,133.51,115.79,133.51,210.23Z"/>
  <circle class="cls-3" cx="399.3" cy="277.91" r="216.39"/>
  <circle class="cls-8" cx="297.57" cy="298.12" r="44.61"/>
  <g>
    <circle class="cls-8" cx="298.61" cy="174.99" r="23.61"/>
    <circle class="cls-8" cx="349.22" cy="131.69" r="21.78"/>
    <circle class="cls-8" cx="374.33" cy="181.32" r="15.91"/>
    <circle class="cls-8" cx="406.87" cy="110.17" r="13.17"/>
  </g>
  <circle class="cls-6" cx="293.85" cy="288.34" r="15.46"/>
  <circle class="cls-8" cx="501.04" cy="298.12" r="44.61"/>
  <circle class="cls-6" cx="497.33" cy="288.34" r="15.46"/>
  <path class="cls-8" d="m383.27,321.29c4.48,9.14,16.28,12.35,24.73,7.12,2.81-1.7,5.2-4.4,6.89-7.74,3.01-5.6,9.99-7.69,15.59-4.68,5,2.69,7.2,8.56,5.46,13.77-2.5,7.49-7.59,14.43-14.18,19-13.32,9.51-32.36,9.5-45.68,0-6.59-4.57-11.68-11.51-14.19-19-4.13-13.93,14.91-21.35,21.38-8.47h0Z"/>
  <path class="cls-9" d="m556.8,572.62c-18.33-24.07-50.11,10.86-80.02-30.33-7.9-10.87-12.68-22.35-15.49-33.14.06-1.38.1-2.77.1-4.16,0-9.02-1.34-17.66-3.8-25.65,0-2.33.08-24.47.19-26.43h-116.96c.11,1.96.19,24.11.19,26.43-2.46,8-3.8,16.64-3.8,25.65,0,1.4.04,2.78.1,4.16-2.82,10.79-7.6,22.27-15.49,33.14-29.92,41.19-61.7,6.26-80.02,30.33-16.54,21.72.68,73.86,70.63,69.85,53.18-3.05,73.61-35.3,81.02-63.47,1.93.22,3.88.34,5.85.34s3.92-.12,5.85-.34c7.4,28.17,27.84,60.42,81.02,63.47,69.95,4.01,87.17-48.12,70.63-69.85Z"/>
  <path class="cls-1" d="m251.78,620.95s43.43,1.57,81.78-18.78c38.35-20.35,53.22-46.57,53.22-46.57,0,0,.39,42.65-29.35,70.43-29.74,27.78-90,11.74-90,11.74"/>
  <path class="cls-8" d="m351.66,458.31c2.53,4.87,3.11,10.33,3.29,15.69.21,5.13.18,10.25-.19,15.37-1.81,26.14-11.4,52.34-29.98,71.43-8.1,8.41-20,15-31.76,16.7-10.09,1.73-20.75.25-29.73.13-3.62,0-5.86.5-7.05,1.13-.63.37-1.21.65-1.85,1.37-2.44,2.5-3.52,5.45-3.88,9.41-.81,13.09,7.89,24.64,19.4,30.94,19.42,10.66,47.99,9.62,68.57,2.6.91-.34,3.14-1.26,4.01-1.58.81-.38,3.02-1.43,3.86-1.82.84-.44,2.89-1.62,3.7-2.04.75-.47,2.75-1.79,3.53-2.27,14.34-9.86,23.13-25.87,26.96-42.67,2.18-8.21,1.96-16.91,4.59-25.05,4.07-12.35,21.63-11.55,24.71.91,2.29,10.15.11,20.48-1.97,30.5-2.34,10.2-5.96,20.15-11.11,29.39-9.11,16.67-23.78,30.39-41.11,38.24-24.82,11.39-58.34,13.56-84.43,5.48-28.23-8.37-51.92-33.86-49.49-65.02,1.9-22.63,18.25-38.96,41.46-38.32,9.39-.01,17.14,1.5,25.28.29,10.3-1.77,16.55-7.76,23.15-17.13,4.46-6.46,7.92-13.55,10.38-21.04,3.76-11.32,5.31-23.73,4.85-35.75-.14-3.74-.69-7.49.12-11.17.03-.11.05-.24.09-.33.04-.07.06-.24.13-.19-2.81-16.29,20.32-21.33,24.45-5.19h0Z"/>
  <path class="cls-1" d="m546.83,620.95s-43.43,1.57-81.78-18.78c-38.35-20.35-53.22-46.57-53.22-46.57,0,0-.39,42.65,29.35,70.43,29.74,27.78,90,11.74,90,11.74"/>
  <path class="cls-8" d="m471.4,463.5c.08-.06.09.11.14.19.04.09.06.22.09.33.81,3.68.26,7.43.12,11.17-.14,4.05-.09,8.13.22,12.17,1.2,15.95,5.94,31.48,15.01,44.62,4.4,6.48,9.41,11.55,14.66,14.32,10.65,5.55,21.37,2.41,33.78,2.52,6.4,0,13.49.92,19.75,4.09,25.67,13.1,26.98,47.78,12.78,69.32-18.2,29.03-55.14,37.34-87.08,34.12-39.83-3.34-71.52-24.15-85.69-62.35-4.31-12.16-7.32-24.88-7.37-37.77.07-2.56.34-5.13.96-7.68,1.67-6.89,8.61-11.13,15.5-9.46,7.8,1.95,9.81,8.65,10.88,15.56.92,6.02,1.44,12.16,2.92,18.05,4.02,17.68,13.63,34.59,29.31,44.18,1.3.9,3.5,2.01,4.88,2.8,1.47.66,3.69,1.8,5.2,2.34,27.68,11.07,79.51,10.5,89.78-23.76,1.79-6.79,1.41-15.76-4.86-19.5-1.19-.63-3.43-1.13-7.05-1.13-9,.12-19.63,1.6-29.73-.13-11.76-1.7-23.65-8.29-31.76-16.7-18.59-19.09-28.17-45.3-29.98-71.43-.37-5.12-.4-10.24-.19-15.37.18-5.36.76-10.83,3.29-15.69,4.06-16.04,27.24-11.21,24.45,5.19h0Z"/>
  <g>
    <path class="cls-7" d="m401.68,523.22l260.49.81c-19.97-89.34-50.8-122.56-50.8-122.56l-209.34-.65h-4.76s-209.34-.67-209.34-.67c0,0-31.02,33.02-51.49,122.24l260.49.81h4.76Z"/>
    <path class="cls-11" d="m162.11,501.85c12.88-44.83,27.77-70.2,35.22-81.04l404.53,1.26c7.39,10.88,22.14,36.35,34.76,81.26l-474.51-1.48Z"/>
    <g>
      <path class="cls-10" d="m164.56,493.61h469.2c-1.32-4.3-2.65-8.4-3.99-12.3H168.58c-1.35,3.91-2.69,8-4.02,12.3Z"/>
      <path class="cls-10" d="m173.98,466.65h450.42c-1.73-4.42-3.45-8.51-5.13-12.3H179.12c-1.69,3.8-3.41,7.9-5.14,12.3Z"/>
      <path class="cls-10" d="m605.29,427.38H193.08c-2.07,3.38-4.41,7.46-6.92,12.3h426.08c-2.55-4.89-4.9-8.98-6.95-12.3Z"/>
    </g>
    <polygon class="cls-7" points="136.43 522.39 171.51 737.07 396.32 737.77 401.07 737.78 625.88 738.48 662.17 524.03 136.43 522.39"/>
    <polygon class="cls-11" points="188.12 716.49 159.79 543.09 638.7 544.59 609.39 717.81 188.12 716.49"/>
    <g>
      <polygon class="cls-10" points="186.61 707.23 611.18 707.23 613.26 694.92 184.6 694.92 186.61 707.23"/>
      <polygon class="cls-10" points="181.97 678.85 615.98 678.85 618.06 666.55 179.96 666.55 181.97 678.85"/>
      <polygon class="cls-10" points="177.33 650.48 620.78 650.48 622.86 638.18 175.32 638.18 177.33 650.48"/>
      <polygon class="cls-10" points="172.7 622.11 625.58 622.11 627.67 609.8 170.69 609.8 172.7 622.11"/>
      <polygon class="cls-10" points="168.06 593.73 630.38 593.73 632.47 581.43 166.05 581.43 168.06 593.73"/>
      <polygon class="cls-10" points="637.27 553.06 161.42 553.06 163.43 565.36 635.19 565.36 637.27 553.06"/>
    </g>
    <path class="cls-5" d="m401.68,523.22l260.49.81c-19.97-89.34-50.8-122.56-50.8-122.56l-209.34-.65h-4.76s-209.34-.67-209.34-.67c0,0-31.02,33.02-51.49,122.24l260.49.81h4.76Z"/>
    <polyline class="cls-5" points="662.17 524.03 625.88 738.48 401.07 737.78 396.32 737.77 171.51 737.07 136.43 522.39"/>
    <rect class="cls-2" x="369.45" y="481.04" width="59.7" height="21.83"/>
    <path class="cls-2" d="m380.1,546.32c-4.48,0-8.23-3.55-8.45-8.07-.07-1.48-.46-14.73,8.08-23.71,4.74-4.97,11.29-7.6,18.94-7.6h1.1c7.66,0,14.21,2.63,18.94,7.6,8.55,8.98,8.16,22.23,8.08,23.71-.23,4.67-4.22,8.25-8.87,8.04-4.65-.23-8.24-4.17-8.04-8.82.07-1.94-.43-8.14-3.47-11.3-.96-.99-2.69-2.31-6.65-2.31h-1.1c-3.96,0-5.7,1.32-6.65,2.31-3.05,3.16-3.54,9.37-3.47,11.3.23,4.67-3.37,8.61-8.04,8.84-.14,0-.28.01-.42.01Z"/>
    <path class="cls-4" d="m399.3,527.04c-5.08,0-9.2-1.7-9.2-3.81v-29.09c0-2.1,4.12-3.81,9.2-3.81s9.2,1.7,9.2,3.81v29.09c0,2.1-4.12,3.81-9.2,3.81Z"/>
    <g>
      <path class="cls-2" d="m418.49,592.73h-40.44c-3.72,0-6.74-3.02-6.74-6.74v-37.55c0-6.38,5.17-11.55,11.55-11.55h30.81c6.38,0,11.55,5.17,11.55,11.55v37.55c0,3.72-3.02,6.74-6.74,6.74Z"/>
      <g>
        <circle class="cls-8" cx="399.3" cy="559.57" r="5.56"/>
        <path class="cls-8" d="m404.88,573.01l-2.65-10.87-2.89.14-2.89-.14-2.65,10.87c-.23.95.49,1.86,1.46,1.86h8.16c.97,0,1.69-.91,1.46-1.86Z"/>
      </g>
    </g>
  </g>
  <g>
    <path class="cls-9" d="m120.22,530.95c4.75-20.82,9.99-40.15,15.07-57.13,0,0-51.85.39-45.98,75.52s147.13,63.39,165.52,42.26c28.86-33.16-18.39-86.48-134.61-60.65Z"/>
    <path class="cls-1" d="m94.78,542.56s13.04,24.78,58.7,34.96c45.65,10.17,106.96-3.39,106.96-3.39,0,0-28.7,37.57-92.87,32.61-64.17-4.96-68.09-32.09-68.09-32.09"/>
    <path class="cls-5" d="m154.26,458.56s-70.83,15.65-64.96,90.78c5.87,75.13,147.13,63.39,165.52,42.26,28.86-33.16-11.74-86.87-127.96-61.04"/>
  </g>
  <g>
    <path class="cls-9" d="m678.22,530.95c-4.75-20.82-9.99-40.15-15.07-57.13,0,0,51.85.39,45.98,75.52-5.87,75.13-147.13,63.39-165.52,42.26-28.86-33.16,18.39-86.48,134.61-60.65Z"/>
    <path class="cls-1" d="m703.65,542.56s-13.04,24.78-58.7,34.96c-45.65,10.17-106.96-3.39-106.96-3.39,0,0,28.7,37.57,92.87,32.61,64.17-4.96,68.09-32.09,68.09-32.09"/>
    <path class="cls-5" d="m644.17,458.56s70.83,15.65,64.96,90.78c-5.87,75.13-147.13,63.39-165.52,42.26-28.86-33.16,11.74-86.87,127.96-61.04"/>
  </g>
</svg>