<?xml version="1.0" encoding="UTF-8"?>
<svg id="Delphi" xmlns="http://www.w3.org/2000/svg" viewBox="0 0 1000 940">
  <defs>
    <style>
      .cls-1 {
        fill: #fff;
      }

      .cls-2 {
        fill: #d1f0e8;
      }

      .cls-3 {
        fill: #e8e3dd;
      }

      .cls-4 {
        fill: #182d33;
      }

      .cls-5 {
        fill: #918a83;
      }

      .cls-6 {
        fill: #0d9488;
      }
    </style>
  </defs>
  <g>
    <path class="cls-6" d="m383.31,669.88s-26.68,48.48-83.27,55.37c-6.03.73-17.22.76-31.14-6.77-18.7-10.12-36.18-10.81-46.79,14.26-15.67,37.01,25.55,78.17,87.96,80.52,71.74,2.71,142.93-58.97,164.36-157.76"/>
    <path class="cls-2" d="m238.43,775.7s58.5,26.38,110.72-4.86c52.22-31.23,83.34-129.9,83.34-129.9,0,0,35.03,23.74,38.45,40.02,3.42,16.28-79.83,157.35-180.07,125.7"/>
    <path class="cls-4" d="m394.26,675.9c-14.63,29.88-46.05,52.66-78.12,60.67-4.71,1.22-9.66,2.05-14.48,2.7-9.9,1.23-20.4-.39-29.36-3.75-7.61-2.56-14.64-7.98-22.42-9.21-4.54-.83-7.79.8-10.37,4.33-4.63,6.26-7.61,15-5.99,22.88,1.42,8.49,7.25,16.67,13.7,22.51,16.27,14.69,39.6,21.61,61.62,22.77,20.14,1.16,40.42-3.67,58.38-12.76,46.9-23.59,76.67-71.56,90.72-120.95,1.4-4.08,2.83-8.78,4.51-12.8,5.68-13.26,25.21-8.52,24.2,5.86-.54,6.34-1.76,12.59-3.31,18.76-8.63,30.83-23.14,60.04-43.27,85.07-28.54,35.79-71.02,62.84-117.57,65.44-33.86,1.62-68.87-6.99-94.73-30.25-11.92-10.99-20.83-25.17-22.9-41.71-1.75-15.13,2.93-30.06,12.1-42.24,15.46-20.08,38.59-18.49,58.72-7.17,7.1,3.83,15.25,6.21,23.07,5.13.59-.08,2.3-.34,2.92-.42,18.34-2.81,35.21-11.34,49.15-23.71,7.44-6.67,14.27-14.15,20.51-21.97,0,0,.58-.71.58-.71.17-.2.4-.52.45-.51,0,0,17.93,3.9,17.93,3.9,3.61.74,5.61,4.86,3.98,8.16h0Z"/>
  </g>
  <g>
    <path class="cls-6" d="m617.2,669.88s26.68,48.48,83.27,55.37c6.03.73,17.22.76,31.14-6.77,18.7-10.12,36.18-10.81,46.79,14.26,15.67,37.01-25.55,78.17-87.96,80.52-71.74,2.71-142.93-58.97-164.36-157.76"/>
    <path class="cls-2" d="m762.08,775.7s-58.5,26.38-110.72-4.86c-52.22-31.23-83.34-129.9-83.34-129.9,0,0-35.03,23.74-38.45,40.02-3.42,16.28,79.83,157.35,180.07,125.7"/>
    <path class="cls-4" d="m628.16,663.85c19.03,24.14,41.21,43.01,72.62,47.18,8.15,1.4,16.63-.99,24.04-4.99,6.62-3.56,13.57-6.52,21.44-7.79,19.67-3.28,35.3,7.71,43.53,25.11,12.42,24.56,5.28,50.94-13.17,70.03-25.7,26.06-63.1,35.74-98.59,34.04-80.67-5.05-140.73-76.59-160.83-150.51-1.55-6.17-2.77-12.41-3.31-18.76-.95-14.81,19.24-19.06,24.43-5.3,2.01,5.19,3.89,11.01,5.57,16.33,5.04,16.26,11.26,32.3,19.66,47.08,16.26,29.03,39.89,54.81,69.77,69.78,17.36,8.8,36.86,13.55,56.35,12.87,22.68-.89,46.86-7.72,63.65-22.88,6.86-6.2,12.82-14.85,13.95-23.98.99-7.44-1.89-15.54-6.24-21.4-1.62-2.11-3.52-3.88-6.12-4.35-5.52-.81-11.44,2.03-16.61,4.69-13.27,7.2-28.64,10.56-43.86,7.64-23.5-3.62-45.82-14.9-63.35-30.65-10.11-9.09-18.97-19.72-24.81-32.07-1.64-3.28.36-7.39,3.95-8.15,0,0,17.96-3.9,17.96-3.9h0Z"/>
  </g>
  <circle class="cls-6" cx="500" cy="539.6" r="216.39"/>
  <path class="cls-2" d="m679.22,537.32c0,57.45-20.36,109.94-53.98,150.07h37.51c36.18-38.68,58.34-90.65,58.34-147.79,0-105.49-75.48-193.35-175.38-212.51,78.48,34.74,133.51,115.79,133.51,210.23Z"/>
  <path class="cls-4" d="m500,770.99c-61.81,0-119.91-24.07-163.62-67.77-43.7-43.7-67.77-101.81-67.77-163.62s24.07-119.91,67.77-163.62c43.7-43.7,101.81-67.77,163.62-67.77s119.91,24.07,163.62,67.77c43.7,43.7,67.77,101.81,67.77,163.62s-24.07,119.91-67.77,163.62c-43.7,43.7-101.81,67.77-163.62,67.77Zm0-432.78c-111.05,0-201.39,90.34-201.39,201.39s90.34,201.39,201.39,201.39,201.39-90.34,201.39-201.39-90.34-201.39-201.39-201.39Z"/>
  <circle class="cls-4" cx="398.26" cy="559.82" r="44.61"/>
  <g>
    <circle class="cls-4" cx="399.3" cy="436.69" r="23.61"/>
    <circle class="cls-4" cx="449.91" cy="393.38" r="21.78"/>
    <circle class="cls-4" cx="475.02" cy="443.01" r="15.91"/>
    <circle class="cls-4" cx="507.57" cy="371.86" r="13.17"/>
  </g>
  <circle class="cls-1" cx="394.54" cy="550.03" r="15.46"/>
  <circle class="cls-4" cx="601.74" cy="559.82" r="44.61"/>
  <circle class="cls-1" cx="598.02" cy="550.03" r="15.46"/>
  <path class="cls-4" d="m483.97,582.98c4.48,9.14,16.28,12.35,24.73,7.12,2.81-1.7,5.2-4.4,6.89-7.74,3.01-5.6,9.99-7.69,15.59-4.68,5,2.69,7.2,8.56,5.46,13.77-2.5,7.49-7.59,14.43-14.18,19-13.32,9.51-32.36,9.5-45.68,0-6.59-4.57-11.68-11.51-14.19-19-4.13-13.93,14.91-21.35,21.38-8.47h0Z"/>
  <path class="cls-6" d="m657.5,834.32c-18.33-24.07-50.11,10.86-80.02-30.33-7.9-10.87-12.68-22.35-15.49-33.14.06-1.38.1-2.77.1-4.16,0-9.02-1.34-17.66-3.8-25.65,0-2.33.08-24.47.19-26.43h-116.96c.11,1.96.19,24.11.19,26.43-2.46,8-3.8,16.64-3.8,25.65,0,1.4.04,2.78.1,4.16-2.82,10.79-7.6,22.27-15.49,33.14-29.92,41.19-61.7,6.26-80.02,30.33-16.54,21.72.68,73.86,70.63,69.85,53.18-3.05,73.61-35.3,81.02-63.47,1.93.22,3.88.34,5.85.34s3.92-.12,5.85-.34c7.4,28.17,27.84,60.42,81.02,63.47,69.95,4.01,87.17-48.12,70.63-69.85Z"/>
  <path class="cls-2" d="m352.48,882.64s43.43,1.57,81.78-18.78c38.35-20.35,53.22-46.57,53.22-46.57,0,0,.39,42.65-29.35,70.43s-90,11.74-90,11.74"/>
  <path class="cls-4" d="m452.36,720c2.53,4.87,3.11,10.33,3.29,15.69.21,5.13.18,10.25-.19,15.37-1.81,26.14-11.4,52.34-29.98,71.43-8.1,8.41-20,15-31.76,16.7-10.09,1.73-20.75.25-29.73.13-3.62,0-5.86.5-7.05,1.13-.63.37-1.21.65-1.85,1.37-2.44,2.5-3.52,5.45-3.88,9.41-.81,13.1,7.89,24.64,19.4,30.94,19.42,10.66,47.99,9.62,68.57,2.6.91-.34,3.14-1.26,4.01-1.58.81-.38,3.02-1.43,3.86-1.82.84-.44,2.89-1.62,3.7-2.04.75-.47,2.75-1.79,3.53-2.27,14.34-9.86,23.13-25.87,26.96-42.67,2.18-8.21,1.96-16.91,4.59-25.05,4.07-12.35,21.63-11.55,24.71.91,2.29,10.15.11,20.48-1.97,30.5-2.34,10.2-5.96,20.16-11.11,29.39-9.11,16.67-23.78,30.39-41.11,38.24-24.82,11.39-58.34,13.56-84.43,5.48-28.23-8.37-51.92-33.85-49.49-65.02,1.9-22.63,18.25-38.96,41.46-38.32,9.39-.01,17.14,1.5,25.28.29,10.3-1.77,16.55-7.76,23.15-17.13,4.46-6.46,7.92-13.55,10.38-21.04,3.76-11.32,5.31-23.73,4.85-35.75-.14-3.74-.69-7.49.12-11.17.03-.11.05-.24.09-.33.04-.07.06-.24.13-.19-2.81-16.29,20.32-21.33,24.45-5.19h0Z"/>
  <path class="cls-2" d="m647.52,882.64s-43.43,1.57-81.78-18.78c-38.35-20.35-53.22-46.57-53.22-46.57,0,0-.39,42.65,29.35,70.43,29.74,27.78,90,11.74,90,11.74"/>
  <path class="cls-4" d="m572.1,725.2c.08-.06.09.11.13.19.04.09.07.22.09.33.81,3.68.26,7.43.12,11.17-.14,4.05-.09,8.13.22,12.17,1.2,15.95,5.94,31.48,15.01,44.62,4.4,6.48,9.41,11.55,14.66,14.32,10.65,5.55,21.37,2.41,33.78,2.52,6.4,0,13.49.92,19.75,4.09,25.67,13.09,26.98,47.78,12.78,69.32-18.2,29.03-55.14,37.35-87.08,34.12-39.83-3.34-71.52-24.15-85.69-62.35-4.31-12.16-7.32-24.88-7.37-37.77.07-2.56.34-5.13.96-7.68,1.67-6.89,8.61-11.13,15.5-9.46,7.8,1.95,9.81,8.65,10.88,15.56.92,6.02,1.44,12.16,2.92,18.05,4.01,17.68,13.63,34.59,29.31,44.18,1.3.9,3.5,2.01,4.88,2.8,1.47.66,3.69,1.8,5.2,2.34,27.68,11.07,79.51,10.5,89.78-23.76,1.79-6.79,1.41-15.76-4.86-19.5-1.19-.63-3.43-1.13-7.05-1.13-9,.12-19.63,1.6-29.73-.13-11.76-1.7-23.65-8.29-31.76-16.7-18.59-19.09-28.17-45.3-29.98-71.43-.37-5.12-.4-10.24-.19-15.37.18-5.36.76-10.83,3.29-15.69,4.06-16.04,27.24-11.21,24.45,5.19h0Z"/>
  <g>
    <path class="cls-6" d="m635.4,678.21s41.08,42.25,12.09,86.64c-38.47,58.89-147.91-28.94-163.74-30.47s2.76-33.18,42.64-34.98c43.49-1.96,86.38,29.7,86.38,29.7l-39.49-28.94"/>
    <path class="cls-2" d="m646.81,737.28s-21.11,34.38-51.74,27.23-101.45-39.49-110.3-29.62c-13.45,15.01,118.47,43.91,125.96,42.89,7.49-1.02,26.55-14.98,26.55-14.98"/>
    <path class="cls-4" d="m643.92,669.93c8.15,6.98,14.38,15.81,18.98,25.5,9.99,20.1,11.81,45.94,1.75,66.67-9.75,21.42-27.62,35.62-51.03,39.04-21.1,3.08-41.23-1.19-60.75-7.18-23.46-7.08-45.33-18.55-67.57-27.87,0,0-.53-.18-.53-.18-.17-.06-.36-.12-.45-.15l-.32-.1s-.03,0-.05-.02c.07.02.17.04.26.05.05,0,.15.01.2.02-22.25-3-26.06-30.93-18.73-48.09,7.87-19.77,27.27-30.22,47.55-31.61,26.39-.88,59.78,1.36,84.21,12.14,5.23,2.33,10.28,5.22,14.71,8.9,5.22,3.98,6.22,11.43,2.24,16.65-3.92,5.34-11.74,6.02-16.59,2.32.03.03.05.06,0,.03-.11-.03-.58-.22-.7-.26-4.91-2.06-9.97-3.72-15.1-5.22-21.37-6.26-44.28-8.04-66.63-7.23-7.17.65-14.56,2.79-19.51,7.77-4.52,4.45-7.02,11.8-5.39,17.86.23.77.6,1.14.22.7-.68-.8-1.77-1.22-2.79-1.51-.24-.06-.49-.09-.73-.09l1.02.14c.61.08,2.13.4,2.75.55,2.52.66,5.19,1.66,7.5,2.61,13.05,5.51,25.26,11.61,38.04,16.84,29.32,11.91,82.22,31.61,101.47-4.03,8.61-14.7,7.9-31.91.53-47.3-3.23-6.95-7.39-13.71-11.49-20.24-4.49-4.78-4.67-12.3.17-16.97,4.7-4.57,12.23-4.47,16.8.24h0Z"/>
  </g>
  <path class="cls-4" d="m437.32,540.53c-1.56,0-3.15-.37-4.63-1.14l-49.3-25.83c-4.89-2.56-6.78-8.61-4.22-13.5,2.56-4.89,8.61-6.78,13.5-4.22l49.3,25.83c4.89,2.56,6.78,8.61,4.22,13.5-1.79,3.41-5.27,5.36-8.87,5.36Z"/>
  <path class="cls-4" d="m562.16,540.53c-3.6,0-7.08-1.95-8.87-5.36-2.56-4.89-.67-10.94,4.22-13.5l49.3-25.83c4.89-2.56,10.94-.67,13.5,4.22,2.56,4.89.67,10.94-4.22,13.5l-49.3,25.83c-1.48.78-3.07,1.14-4.63,1.14Z"/>
  <g>
    <path class="cls-6" d="m365.45,678.21s-41.08,42.25-12.09,86.64c38.47,58.89,156.77-46.81,172.6-48.34,15.83-1.53-10.13-30.55-54.13-26.21-43.32,4.27-84.09,29.28-84.09,29.28l39.83-19.4"/>
    <path class="cls-2" d="m354.04,737.28s9.48,24.23,40.85,21.79c26.21-2.04,92.6-43.57,112-38.13,19.4,5.45-109.28,57.87-116.77,56.85-7.49-1.02-26.55-14.98-26.55-14.98"/>
    <path class="cls-4" d="m374.35,686.87c.05-.01-.01.1-.05.18,0,0-.15.29-.15.29-.7,1.22-2.06,3.32-2.83,4.51-3.26,5.02-7.1,10.68-9.39,16.14-8.4,18.29-7.02,38.1,6.06,53.56,32.96,36.52,128.56-44.12,154.69-69.21,0,0,1.17-1.11,1.17-1.11-3.89,3.76-3.51,11.04-.21,14.41.13.15.23.26.36.38,0,0,.18.16.18.16,0,0,.1.1.1.1.09.08.2.16.3.23.12.08.02.01-.12-.06-8.19-3.47-17.72-4.48-26.69-5.57-12.72-1.17-25.41-1.86-37.86.04-1,.2-7.22,1.47-8.37,1.71-18.62,4.15-36.65,10.75-52.29,21.37-3.62,4.38-10.99,6.27-16.59,1.89-5.18-4.02-6.12-11.49-2.09-16.67,3.68-5.1,8.56-9.37,13.63-12.88,13.09-9.04,28.89-14.34,43.88-18.39,5.09-1.39,11.7-2.76,16.91-3.82,15.07-2.55,30.57-1.9,45.52-.59,12.57,1.44,32.25,3.54,42.09,12.04,8.59,7.71,7.83,19.58-.93,26.86-36.39,33.67-92.42,79.55-142.92,85.47-23.07,2.54-43.98-5.7-56.82-25.6-15.26-23.03-16.06-50.85-4.68-75.41,4.11-8.84,8.97-17.33,15.84-24.27.85-.88,1.93-1.8,2.88-2.6,11.96-12.15,29.57,4.16,18.38,16.84h0Z"/>
  </g>
  <g>
    <g>
      <polygon class="cls-3" points="137.74 278.38 62.24 278.38 52.08 876.85 147.89 876.85 137.74 278.38"/>
      <path class="cls-4" d="m147.89,886.85H52.08c-2.68,0-5.25-1.08-7.13-2.99s-2.91-4.5-2.87-7.18l10.15-598.47c.09-5.46,4.54-9.83,10-9.83h75.5c5.46,0,9.91,4.37,10,9.83l10.15,598.47c.05,2.68-.99,5.27-2.87,7.18s-4.45,2.99-7.13,2.99Zm-85.64-20h75.46l-9.81-578.47h-55.84l-9.81,578.47Z"/>
    </g>
    <g>
      <path class="cls-5" d="m99.29,868.95c-2.21,0-4-1.79-4-4V298.95c0-2.21,1.79-4,4-4s4,1.79,4,4v566c0,2.21-1.79,4-4,4Z"/>
      <path class="cls-5" d="m76.54,871.15h-.02c-2.21,0-3.99-1.81-3.99-4.01l2.08-568.2c0-2.2,1.8-3.99,4-3.99h.02c2.21,0,3.99,1.81,3.99,4.01l-2.08,568.2c0,2.2-1.8,3.99-4,3.99Z"/>
      <path class="cls-5" d="m123.44,871.15c-2.2,0-3.99-1.78-4-3.99l-2.08-568.2c0-2.21,1.78-4.01,3.99-4.01,2.23,0,4.01,1.78,4.01,3.99l2.08,568.2c0,2.21-1.78,4.01-3.99,4.01h-.02Z"/>
    </g>
    <g>
      <rect class="cls-3" x="33.86" y="861.28" width="132.26" height="34.47"/>
      <path class="cls-4" d="m166.12,905.75H33.86c-5.52,0-10-4.48-10-10v-34.47c0-5.52,4.48-10,10-10h132.26c5.52,0,10,4.48,10,10v34.47c0,5.52-4.48,10-10,10Zm-122.26-20h112.26v-14.47H43.86v14.47Z"/>
    </g>
    <g>
      <rect class="cls-3" x="39.32" y="268.83" width="121.34" height="31.62"/>
      <path class="cls-4" d="m160.66,310.45H39.32c-5.52,0-10-4.48-10-10v-31.62c0-5.52,4.48-10,10-10h121.34c5.52,0,10,4.48,10,10v31.62c0,5.52-4.48,10-10,10Zm-111.34-20h101.34v-11.62H49.32v11.62Z"/>
    </g>
  </g>
  <g>
    <g>
      <polygon class="cls-3" points="863.79 278.38 939.3 278.38 949.45 876.85 853.64 876.85 863.79 278.38"/>
      <path class="cls-4" d="m949.45,886.85h-95.81c-2.68,0-5.25-1.08-7.13-2.99s-2.91-4.5-2.87-7.18l10.15-598.47c.09-5.46,4.54-9.83,10-9.83h75.5c5.46,0,9.91,4.37,10,9.83l10.15,598.47c.05,2.68-.99,5.27-2.87,7.18s-4.45,2.99-7.13,2.99Zm-85.64-20h75.46l-9.81-578.47h-55.84l-9.81,578.47Z"/>
    </g>
    <g>
      <path class="cls-5" d="m902.24,868.95c-2.21,0-4-1.79-4-4V298.95c0-2.21,1.79-4,4-4s4,1.79,4,4v566c0,2.21-1.79,4-4,4Z"/>
      <path class="cls-5" d="m925,871.15c-2.2,0-3.99-1.78-4-3.99l-2.08-568.2c0-2.21,1.78-4.01,3.99-4.01h.02c2.2,0,3.99,1.78,4,3.99l2.08,568.2c0,2.21-1.78,4.01-3.99,4.01h-.02Z"/>
      <path class="cls-5" d="m878.09,871.15h-.02c-2.21,0-3.99-1.81-3.99-4.01l2.08-568.2c0-2.2,1.8-3.99,4-3.99h.02c2.21,0,3.99,1.81,3.99,4.01l-2.08,568.2c0,2.2-1.8,3.99-4,3.99Z"/>
    </g>
    <g>
      <rect class="cls-3" x="835.42" y="861.28" width="132.26" height="34.47" transform="translate(1803.09 1757.02) rotate(-180)"/>
      <path class="cls-4" d="m967.67,905.75h-132.26c-5.52,0-10-4.48-10-10v-34.47c0-5.52,4.48-10,10-10h132.26c5.52,0,10,4.48,10,10v34.47c0,5.52-4.48,10-10,10Zm-122.26-20h112.26v-14.47h-112.26v14.47Z"/>
    </g>
    <g>
      <rect class="cls-3" x="840.88" y="268.83" width="121.34" height="31.62" transform="translate(1803.09 569.28) rotate(-180)"/>
      <path class="cls-4" d="m962.21,310.45h-121.34c-5.52,0-10-4.48-10-10v-31.62c0-5.52,4.48-10,10-10h121.34c5.52,0,10,4.48,10,10v31.62c0,5.52-4.48,10-10,10Zm-111.34-20h101.34v-11.62h-101.34v11.62Z"/>
    </g>
  </g>
  <g>
    <g>
      <rect class="cls-3" x="70.8" y="95.09" width="858.4" height="171.04"/>
      <path class="cls-4" d="m929.2,276.13H70.8c-5.52,0-10-4.48-10-10V95.08c0-5.52,4.48-10,10-10h858.4c5.52,0,10,4.48,10,10v171.04c0,5.52-4.48,10-10,10Zm-848.4-20h838.4V105.08H80.8v151.04Z"/>
    </g>
    <g>
      <rect class="cls-3" x="50.38" y="65.47" width="899.23" height="43.38"/>
      <path class="cls-4" d="m949.62,118.85H50.38c-5.52,0-10-4.48-10-10v-43.38c0-5.52,4.48-10,10-10h899.23c5.52,0,10,4.48,10,10v43.38c0,5.52-4.48,10-10,10ZM60.38,98.85h879.23v-23.38H60.38v23.38Z"/>
    </g>
    <g>
      <path class="cls-5" d="m179.44,204.4v-41.82h-8.67c-1.38,0-2.36-1.68-2.93-5.05-.24-1.64-.37-3.33-.37-5.05s.12-3.41.37-5.05c.57-3.37,1.54-5.05,2.93-5.05h41.02c1.38,0,2.32,1.69,2.81,5.05.32,1.64.49,3.33.49,5.05s-.16,3.41-.49,5.05c-.49,3.37-1.42,5.05-2.81,5.05h-8.18v41.82h8.54c1.38,0,2.36,1.69,2.93,5.05.32,1.64.49,3.33.49,5.05s-.16,3.41-.49,5.05c-.57,3.37-1.55,5.05-2.93,5.05h-41.14c-1.38,0-2.32-1.68-2.81-5.05-.33-1.64-.49-3.33-.49-5.05s.16-3.41.49-5.05c.49-3.37,1.42-5.05,2.81-5.05h8.42Z"/>
      <path class="cls-5" d="m290.65,222.02c0,1.64-3.83,2.47-11.47,2.47s-11.8-.59-12.45-1.76l-20.39-36.65v36.53c0,1.41-3.77,2.11-11.29,2.11s-11.29-.7-11.29-2.11v-78.58c0-1.17,3.21-1.76,9.64-1.76,2.52,0,5.47.22,8.85.65,3.38.43,5.43,1.23,6.16,2.41l19.53,36.18v-36.88c0-1.49,3.78-2.23,11.35-2.23s11.35.75,11.35,2.23v77.41Z"/>
      <path class="cls-5" d="m362.79,163.64c0,8.15-3.66,14.33-10.99,18.56,3.99,1.41,7.32,3.84,10.01,7.28,2.69,3.45,4.03,8.32,4.03,14.62s-2.42,11.3-7.26,14.98c-4.84,3.68-11.78,5.52-20.81,5.52h-28.81c-1.38,0-2.52-.45-3.42-1.35-.9-.9-1.34-2.09-1.34-3.58v-75.18c0-.86.14-1.43.43-1.7.28-.27.87-.41,1.77-.41h27.83c19.04,0,28.56,7.09,28.56,21.26Zm-35.16-2.23v15.39h.61c7.81,0,11.72-2.5,11.72-7.52,0-2.74-.75-4.74-2.26-5.99-1.51-1.25-4.01-1.88-7.51-1.88h-2.56Zm0,29.25v15.27h2.2c3.5,0,6.06-.63,7.69-1.88,1.63-1.25,2.44-3.25,2.44-5.99s-.75-4.66-2.26-5.76c-1.51-1.1-4.01-1.64-7.51-1.64h-2.56Z"/>
      <path class="cls-5" d="m411.68,225.78c-11.43,0-20.75-3.6-27.95-10.81-7.2-7.2-10.8-17.72-10.8-31.54s3.64-24.29,10.93-31.42c7.28-7.12,16.68-10.69,28.2-10.69s20.81,3.51,27.89,10.51c7.08,7.01,10.62,17.62,10.62,31.83s-3.62,24.78-10.86,31.71c-7.24,6.93-16.58,10.4-28.02,10.4Zm.06-61.9c-3.91,0-7.18,1.72-9.83,5.17-2.65,3.45-3.97,8.28-3.97,14.51s1.26,11,3.78,14.33c2.52,3.33,5.84,4.99,9.95,4.99s7.45-1.68,10.01-5.05c2.56-3.37,3.85-8.18,3.85-14.45s-1.32-11.08-3.97-14.45c-2.65-3.37-5.92-5.05-9.83-5.05Z"/>
      <path class="cls-5" d="m505.62,145.55c.98-2.35,6.06-3.52,15.26-3.52,2.36,0,5.27.18,8.73.53,3.46.35,5.19.69,5.19,1l-20.75,40.64,21.48,38.88c.24.39-1.51.76-5.25,1.12-3.74.35-6.92.53-9.52.53-10.34,0-15.99-1.33-16.97-3.99l-9.16-22.44-8.3,23.14c-.81,2.19-6.02,3.29-15.63,3.29-2.36,0-5.29-.16-8.79-.47-3.5-.31-5.09-.74-4.76-1.29l19.04-40.64-19.78-38.76c-.24-.39,1.44-.76,5.07-1.12,3.62-.35,6.69-.53,9.22-.53,10.25,0,15.87,1.41,16.85,4.23l8.42,19.73,9.64-20.32Z"/>
      <path class="cls-5" d="m611.82,200.06l.24-15.97c0-1.1,1.18-1.82,3.54-2.17,2.36-.35,4.31-.53,5.86-.53l4.76.35c3.09.47,4.64,1.29,4.64,2.47l-.49,36.77c-1.63,1.1-4.9,2.17-9.83,3.23-4.92,1.06-10.56,1.59-16.91,1.59-11.8,0-21.32-3.68-28.56-11.04-7.24-7.36-10.86-18.17-10.86-32.42,0-12.14,3.54-22,10.62-29.6,7.08-7.59,16.89-11.39,29.42-11.39,5.7,0,10.84.53,15.44,1.59,4.6,1.06,7.75,2.49,9.46,4.29.08.63.12,1.8.12,3.52s-.61,4.17-1.83,7.34-2.61,5.54-4.15,7.11c-1.55,1.57-2.67,2.35-3.36,2.35s-1.42-.29-2.2-.88c-.77-.59-2.3-1.21-4.58-1.88-2.28-.66-4.48-1-6.59-1-5.05,0-9.14,1.57-12.27,4.7-3.13,3.13-4.7,7.99-4.7,14.57s1.61,11.57,4.82,14.98c3.21,3.41,6.92,5.11,11.11,5.11s6.29-1.02,6.29-3.05Z"/>
      <path class="cls-5" d="m699.83,224.84c-7.08,0-10.91-1.1-11.47-3.29l-4.03-15.15h-19.41l-3.54,14.57c-.49,2.43-4.39,3.64-11.72,3.64-3.91,0-6.8-.21-8.67-.65-1.87-.43-2.81-.76-2.81-1l21.61-79.52c0-.63,5.57-.94,16.72-.94s16.72.31,16.72.94l21.12,79.64c0,.55-1.87.98-5.62,1.29-3.74.31-6.71.47-8.91.47Zm-31.86-33.36h12.82l-5.49-24.31h-.73l-6.59,24.31Z"/>
      <path class="cls-5" d="m756.1,222.73c0,1.57-4.03,2.35-12.09,2.35s-12.08-.78-12.08-2.35v-58.97h-14.65c-1.38,0-2.36-1.8-2.93-5.4-.24-1.72-.37-3.48-.37-5.29s.12-3.56.37-5.29c.57-3.6,1.54-5.4,2.93-5.4h53.1c1.38,0,2.36,1.8,2.93,5.4.24,1.72.37,3.49.37,5.29s-.12,3.56-.37,5.29c-.57,3.6-1.55,5.4-2.93,5.4h-14.28v58.97Z"/>
      <path class="cls-5" d="m820.31,175.04c1.54,0,2.32,2.74,2.32,8.22,0,1.64-.18,3.58-.55,5.81-.37,2.23-1.04,3.35-2.01,3.35h-15.5v11.75h22.46c1.38,0,2.32,1.72,2.81,5.17.24,1.49.37,3.07.37,4.76s-.24,3.86-.73,6.52c-.49,2.66-1.3,3.99-2.44,3.99h-41.75c-3.09,0-4.64-1.21-4.64-3.64v-75.53c0-2.04.93-3.05,2.81-3.05h43.7c1.71,0,2.56,3.47,2.56,10.4s-.85,10.4-2.56,10.4h-22.58v11.86h15.75Z"/>
    </g>
  </g>
  <g>
    <circle class="cls-4" cx="766.44" cy="428.74" r="12.91"/>
    <path class="cls-4" d="m827.62,341.79c-6.19-2.12-12.45-3.43-18.76-4.25-3.45-.45-6.12-3.2-6.55-6.66-.01-.12-.03-.24-.04-.36-.87-6.09-1.99-12.17-4.17-18.26-.73-2.01-2.33-3.72-4.5-4.5-3.87-1.38-8.12.63-9.5,4.5-2.08,6.09-3.39,12.25-4.21,18.45-.45,3.4-3.12,6.09-6.53,6.52-3.24.41-6.46.97-9.66,1.71-3.04.72-6.09,1.56-9.13,2.83-1.76.74-3.27,2.16-4.07,4.07-1.62,3.87.2,8.31,4.07,9.93,5.95,2.41,12.03,3.62,18.26,4.48.04,0,.08.01.13.02,3.44.44,6.18,3.1,6.63,6.54.41,3.14.96,6.26,1.67,9.36.72,3.04,1.56,6.09,2.83,9.13.74,1.76,2.16,3.27,4.07,4.07,3.87,1.62,8.31-.2,9.93-4.07,2.41-5.95,3.62-12.03,4.48-18.26.02-.14.04-.29.06-.43.44-3.49,3.18-6.21,6.67-6.65.02,0,.04,0,.06,0,6.09-.87,12.17-1.99,18.26-4.17,2.01-.73,3.72-2.33,4.5-4.5,1.38-3.87-.63-8.12-4.5-9.5Z"/>
  </g>
  <g>
    <circle class="cls-4" cx="233.05" cy="428.74" r="12.91"/>
    <path class="cls-4" d="m171.87,341.79c6.19-2.12,12.45-3.43,18.76-4.25,3.45-.45,6.12-3.2,6.55-6.66.01-.12.03-.24.04-.36.87-6.09,1.99-12.17,4.17-18.26.73-2.01,2.33-3.72,4.5-4.5,3.87-1.38,8.12.63,9.5,4.5,2.08,6.09,3.39,12.25,4.21,18.45.45,3.4,3.12,6.09,6.53,6.52,3.24.41,6.46.97,9.66,1.71,3.04.72,6.09,1.56,9.13,2.83,1.76.74,3.27,2.16,4.07,4.07,1.62,3.87-.2,8.31-4.07,9.93-5.95,2.41-12.03,3.62-18.26,4.48-.04,0-.08.01-.13.02-3.44.44-6.18,3.1-6.63,6.54-.41,3.14-.96,6.26-1.67,9.36-.72,3.04-1.56,6.09-2.83,9.13-.74,1.76-2.16,3.27-4.07,4.07-3.87,1.62-8.31-.2-9.93-4.07-2.41-5.95-3.62-12.03-4.48-18.26-.02-.14-.04-.29-.06-.43-.44-3.49-3.18-6.21-6.67-6.65-.02,0-.04,0-.06,0-6.09-.87-12.17-1.99-18.26-4.17-2.01-.73-3.72-2.33-4.5-4.5-1.38-3.87.63-8.12,4.5-9.5Z"/>
  </g>
</svg>