<?xml version="1.0" encoding="UTF-8"?>
<svg id="Layer_2" data-name="Layer 2" xmlns="http://www.w3.org/2000/svg" viewBox="0 0 1160.51 644.72">
  <defs>
    <style>
      .cls-1 {
        fill: #f8ad3b;
      }

      .cls-2 {
        fill: #182d33;
      }

      .cls-3 {
        fill: #fbb151;
      }

      .cls-4 {
        fill: #d1f0e8;
      }

      .cls-5 {
        fill: #da8c4d;
      }

      .cls-6 {
        fill: #b96d35;
      }

      .cls-7 {
        fill: #b0b0b0;
      }

      .cls-8 {
        fill: #a95d29;
      }

      .cls-9 {
        fill: #fff;
      }

      .cls-10 {
        fill: #0d9488;
      }

      .cls-11 {
        fill: #e32026;
      }

      .cls-12 {
        fill: #a35623;
      }
    </style>
  </defs>
  <g id="Delphi">
    <g>
      <path class="cls-8" d="M376.16,111.36l.37,2.07c-10.7,8.46-24.65,20.99-33.8,34.94-67.94,103.59-9.76,162.54-9.76,162.54v.06l-293.83,56.88-4.08.79,170.51-226.57,170.59-30.71h0Z"/>
      <path class="cls-2" d="M332.97,324.91c-3.73,0-7.33-1.49-9.96-4.17-.71-.72-17.47-17.98-24.31-49.27-6.09-27.88-5.43-73.21,32.33-130.78,10.28-15.67,25.7-29.45,36.83-38.24,6.07-4.8,14.87-3.76,19.66,2.3,4.79,6.07,3.76,14.87-2.3,19.66-9.5,7.51-22.56,19.1-30.78,31.63-42.67,65.06-31.75,109.57-20.96,130.84l154.37-206.04c4.64-6.19,13.41-7.45,19.6-2.81s7.45,13.41,2.81,19.6l-166.08,221.67c-2.44,3.26-6.19,5.3-10.25,5.57-.32.02-.63.03-.95.03h-.01Z"/>
      <polygon class="cls-8" points="586.18 341.8 269.56 417.17 39.58 370.14 39.14 367.85 332.98 310.97 333.44 310.88 586.18 341.8"/>
      <path class="cls-8" d="M499.05,89.24l-166.08,221.67s-58.18-58.95,9.76-162.54c9.15-13.95,23.1-26.48,33.8-34.94l-.37-2.07,122.89-22.12h0Z"/>
      <path class="cls-2" d="M280.74,644.72c-1.6,0-3.19-.27-4.72-.82l-191.65-68.61c-4.25-1.52-7.51-5-8.75-9.34l-55.1-193.26c-1.08-3.77-.52-7.82,1.54-11.17s5.42-5.67,9.27-6.42l299.45-57.98c1.44-.28,2.91-.33,4.36-.15l252.74,30.92c3.86.47,7.35,2.53,9.63,5.67s3.16,7.1,2.41,10.91l-36.39,186.01c-.93,4.74-4.23,8.66-8.74,10.39l-269.05,102.91c-1.61.62-3.31.92-5,.92v.02ZM100.58,551.36l180,64.44,256.96-98.29,32.01-163.64-235.62-28.83-282.29,54.66,48.94,171.66h0Z"/>
      <g>
        <polyline class="cls-11" points="381.7 332.79 407.38 271.7 483.55 248.54 454.43 337.7"/>
        <path class="cls-2" d="M462.28,345.41c-2.83,2.88-7.16,4.09-11.27,2.75-5.77-1.89-8.92-8.1-7.04-13.88l22.56-69.08-51.01,15.5-23.67,56.33c-2.35,5.6-8.8,8.24-14.4,5.88-5.6-2.35-8.23-8.8-5.88-14.4l25.68-61.1c1.27-3.02,3.81-5.31,6.94-6.26l76.17-23.15c3.92-1.19,8.19-.1,11.06,2.83,2.87,2.93,3.87,7.22,2.6,11.11l-29.12,89.16c-.54,1.67-1.45,3.12-2.61,4.29h0Z"/>
      </g>
      <g>
        <polyline class="cls-11" points="265.22 342.39 295.66 280.71 412.31 280.64 387.16 336.96"/>
        <path class="cls-2" d="M389.37,347.74c-2.17.45-4.51.25-6.7-.73-5.55-2.48-8.04-8.98-5.56-14.53l18.23-40.83-92.85.06-27.41,55.55c-2.69,5.44-9.29,7.68-14.73,5-5.44-2.69-7.68-9.28-5-14.73l30.43-61.68c1.85-3.75,5.68-6.13,9.85-6.14l116.65-.08c3.73,0,7.2,1.89,9.23,5.01s2.34,7.07.82,10.47l-25.14,56.33c-1.5,3.36-4.48,5.6-7.83,6.29h0Z"/>
      </g>
      <g>
        <polyline class="cls-11" points="562.38 341.83 520.12 287.57 405.86 311.05 441.86 361.14"/>
        <path class="cls-2" d="M441.87,372.14c2.22,0,4.47-.67,6.41-2.07,4.93-3.55,6.06-10.42,2.51-15.35l-26.1-36.31,90.95-18.69,38.06,48.87c3.73,4.79,10.65,5.65,15.44,1.92,4.79-3.73,5.65-10.64,1.92-15.44l-42.26-54.26c-2.57-3.3-6.8-4.86-10.89-4.02l-114.26,23.48c-3.65.75-6.67,3.3-8.03,6.77s-.86,7.4,1.31,10.42l36,50.09c2.15,2.99,5.52,4.58,8.94,4.58h0Z"/>
      </g>
      <g>
        <polyline class="cls-11" points="207.68 340.39 146.11 315.87 76.2 353.95 160.2 395.69"/>
        <path class="cls-2" d="M160.19,406.69c4.04,0,7.94-2.24,9.86-6.11,2.7-5.44.48-12.04-4.96-14.75l-65.08-32.34,46.82-25.51,56.77,22.61c5.64,2.25,12.04-.5,14.29-6.15,2.25-5.64-.51-12.04-6.15-14.29l-61.57-24.52c-3.04-1.21-6.46-1.01-9.33.56l-69.91,38.09c-3.6,1.96-5.81,5.77-5.74,9.87.08,4.1,2.43,7.82,6.1,9.64l84,41.74c1.57.78,3.24,1.15,4.89,1.15h0Z"/>
      </g>
      <g>
        <polyline class="cls-11" points="309.71 336.46 267.45 282.2 153.19 305.68 189.19 355.77"/>
        <path class="cls-2" d="M189.2,366.77c2.22,0,4.47-.67,6.41-2.07,4.93-3.55,6.06-10.42,2.51-15.35l-26.1-36.31,90.95-18.69,38.06,48.87c3.73,4.79,10.65,5.65,15.44,1.92,4.79-3.73,5.65-10.64,1.92-15.44l-42.26-54.26c-2.57-3.3-6.8-4.86-10.89-4.02l-114.26,23.48c-3.65.75-6.67,3.3-8.03,6.77s-.86,7.4,1.31,10.42l36,50.09c2.15,2.99,5.52,4.58,8.94,4.58h0Z"/>
      </g>
      <g>
        <g>
          <polyline class="cls-11" points="355.6 349 248.78 303.07 224.47 393.99"/>
          <path class="cls-11" d="M224.47,364.68c4.39,0,8.54-2.65,10.25-6.99l16.15-41.23,77.46,22.73c5.83,1.71,11.94-1.63,13.65-7.46,1.71-5.83-1.63-11.94-7.46-13.65l-87.13-25.57c-5.47-1.61-11.26,1.23-13.34,6.54l-19.83,50.61c-2.22,5.66.57,12.04,6.23,14.25,1.32.52,2.68.76,4.01.76h0Z"/>
        </g>
        <g>
          <polyline class="cls-11" points="355.6 349 248.78 303.07 224.47 393.99"/>
          <path class="cls-2" d="M224.47,364.68c4.39,0,8.54-2.65,10.25-6.99l16.15-41.23,77.46,22.73c5.83,1.71,11.94-1.63,13.65-7.46,1.71-5.83-1.63-11.94-7.46-13.65l-87.13-25.57c-5.47-1.61-11.26,1.23-13.34,6.54l-19.83,50.61c-2.22,5.66.57,12.04,6.23,14.25,1.32.52,2.68.76,4.01.76h0Z"/>
        </g>
      </g>
      <g>
        <polyline class="cls-11" points="325.63 348.65 387.2 324.13 457.11 362.21 373.11 403.95"/>
        <path class="cls-2" d="M373.12,414.95c-4.04,0-7.94-2.24-9.86-6.11-2.7-5.44-.48-12.04,4.96-14.75l65.08-32.34-46.82-25.51-56.77,22.61c-5.64,2.25-12.04-.5-14.29-6.15-2.25-5.64.51-12.04,6.15-14.29l61.57-24.52c3.04-1.21,6.46-1.01,9.33.56l69.91,38.09c3.6,1.96,5.81,5.77,5.74,9.87-.08,4.1-2.43,7.82-6.1,9.64l-84,41.74c-1.57.78-3.24,1.15-4.89,1.15h0Z"/>
      </g>
      <g>
        <polyline class="cls-11" points="229.92 409.26 272.18 355 386.44 378.48 350.44 428.57"/>
        <path class="cls-2" d="M350.43,439.57c-2.22,0-4.47-.67-6.41-2.07-4.93-3.55-6.06-10.42-2.51-15.35l26.1-36.31-90.95-18.69-38.06,48.87c-3.73,4.79-10.65,5.65-15.44,1.92-4.79-3.73-5.65-10.64-1.92-15.44l42.26-54.26c2.57-3.3,6.8-4.86,10.89-4.02l114.26,23.48c3.65.75,6.67,3.3,8.03,6.77s.86,7.4-1.31,10.42l-36,50.09c-2.15,2.99-5.52,4.58-8.94,4.58h0Z"/>
      </g>
      <g>
        <polyline class="cls-11" points="142.53 381.52 229.66 355.96 249.49 406.56"/>
        <path class="cls-2" d="M249.49,417.57c-4.39,0-8.54-2.65-10.25-6.99l-16.15-41.23-77.46,22.73c-5.83,1.71-11.94-1.63-13.65-7.46-1.71-5.83,1.63-11.94,7.46-13.65l87.13-25.57c5.47-1.61,11.26,1.23,13.34,6.54l19.83,50.61c2.22,5.66-.57,12.04-6.23,14.25-1.32.52-2.68.76-4.01.76h0Z"/>
      </g>
      <path class="cls-1" d="M269.56,417.17l-229.98-47.03-.44-2.29-4.08.79-.53.71s-.13-.18-.36-.53l-.18.03,55.1,193.26,191.65,68.61,1.64-.63-7.63-214.16-5.19,1.24h0Z"/>
      <polygon class="cls-6" points="110.56 542.11 71.04 403.49 248.97 439.87 254.45 593.61 110.56 542.11"/>
      <polygon class="cls-12" points="249.42 452.69 75.01 417.41 78.1 428.24 249.79 462.97 249.42 452.69"/>
      <polygon class="cls-12" points="250.49 482.54 82.59 443.98 85.72 454.96 250.86 492.89 250.49 482.54"/>
      <polygon class="cls-12" points="251.55 512.36 90.16 470.53 93.34 481.68 251.92 522.79 251.55 512.36"/>
      <polygon class="cls-12" points="252.61 542.16 97.73 497.08 100.96 508.43 252.99 552.68 252.61 542.16"/>
      <polygon class="cls-12" points="105.29 523.61 108.6 535.2 254.05 582.56 253.67 571.92 105.29 523.61"/>
      <polygon class="cls-1" points="586.18 341.8 274.75 415.93 282.38 630.09 549.79 527.81 586.18 341.8"/>
      <polygon class="cls-6" points="300.46 435.51 554.19 375.11 527.92 509.41 306.12 594.25 300.46 435.51"/>
      <g>
        <polygon class="cls-12" points="305.37 573.42 305.75 583.89 528.72 505.31 530.89 494.19 530.81 493.97 305.37 573.42"/>
        <polygon class="cls-12" points="304.58 551.15 534.23 477.13 536.42 465.92 304.21 540.76 304.58 551.15"/>
        <polygon class="cls-12" points="303.41 518.39 539.75 448.93 541.91 437.88 303.05 508.07 303.41 518.39"/>
        <polygon class="cls-12" points="547.4 409.79 301.88 475.36 302.25 485.61 545.27 420.71 547.4 409.79"/>
        <polygon class="cls-12" points="552.9 381.67 300.71 442.62 301.08 452.82 550.79 392.47 552.9 381.67"/>
      </g>
      <path class="cls-1" d="M150.36,126.74s146.35-43.83,218.35-52.43c72-8.61,120.52,12.52,120.52,12.52l-277.83,54.78"/>
      <path class="cls-1" d="M205.57,142.07L35.06,368.64l-.89.18c-4.61-6.94-51.23-81.58,15.08-167.63,68.39-88.73,156.32-59.12,156.32-59.12Z"/>
      <path class="cls-6" d="M41.14,318.98c-.48-2.42-.9-4.93-1.24-7.54-4.22-32.45,5.58-64.41,29.15-95,29.83-38.71,63.47-50.95,89.55-53.55l-117.46,156.08h0Z"/>
      <path class="cls-12" d="M138.15,166.82l-99.18,132.09c.08,4.17.39,8.34.93,12.53.11.82.23,1.61.36,2.41l112.82-150.27c-4.79.71-9.78,1.76-14.93,3.23h0Z"/>
      <path class="cls-12" d="M101.16,184.91l-56.28,75.76c-2.61,7.89-4.37,15.84-5.25,23.84l83.29-112.12c-7.15,3.18-14.45,7.29-21.76,12.53h0Z"/>
      <path class="cls-5" d="M35.06,368.64l-.53.71s-.13-.18-.36-.53l.89-.18Z"/>
      <circle class="cls-2" cx="402.88" cy="419.17" r="7.27"/>
      <circle class="cls-2" cx="399.49" cy="437.43" r="7.27"/>
      <path class="cls-2" d="M34.53,383.35h-.21c-4.47-.07-8.64-2.27-11.22-5.92-.64-.9-15.65-22.47-21.14-56.01-5.03-30.78-2.83-78.11,36.2-128.77,38.29-49.68,82.7-64.5,113.21-68.19,33.3-4.03,57.64,4,58.66,4.34,4.26,1.44,7.57,4.83,8.91,9.12,1.33,4.3.52,8.97-2.19,12.56L45.71,377.76c-2.65,3.52-6.79,5.58-11.19,5.58h.01ZM170.1,151.33c-5.11,0-10.69.3-16.61,1.08-36.14,4.72-67.48,24.01-93.16,57.33-26.12,33.89-36.53,69.53-30.94,105.94,1.65,10.74,4.52,20.02,7.41,27.35l143.93-191.26c-3.25-.27-6.81-.44-10.64-.44h.01Z"/>
      <path class="cls-2" d="M269.56,431.17c-.94,0-1.88-.09-2.8-.28l-229.98-47.03c-7.58-1.55-12.46-8.95-10.91-16.52,1.55-7.58,8.95-12.47,16.52-10.91l226.94,46.41,313.6-74.65c7.52-1.79,15.07,2.85,16.86,10.38,1.79,7.52-2.86,15.07-10.38,16.86l-316.62,75.37c-1.07.25-2.15.38-3.24.38h0Z"/>
      <path class="cls-2" d="M280.73,636.02c-7.55,0-13.77-6.01-13.99-13.6l-5.59-196.48c-.22-7.73,5.87-14.17,13.6-14.39,7.76-.24,14.17,5.87,14.39,13.6l5.59,196.48c.22,7.73-5.87,14.17-13.6,14.39h-.41,0Z"/>
      <path class="cls-2" d="M205.55,156.07c-6.65,0-12.54-4.75-13.76-11.52-1.37-7.61,3.69-14.89,11.3-16.26l293.48-52.83c7.61-1.37,14.89,3.69,16.26,11.3s-3.69,14.89-11.3,16.26l-293.48,52.83c-.84.15-1.67.22-2.5.22h0Z"/>
      <path class="cls-2" d="M67.92,193.17c-3.37,0-6.75-1.21-9.43-3.66-5.71-5.21-6.12-14.07-.91-19.78,45.81-50.22,136.74-78.16,204.96-92.75,79.04-16.91,149.26-21.09,167.64-19.5,54.12,4.71,70.81,15.22,73.61,17.28l-16.61,22.54s.15.13.48.34c-.13-.08-13.79-8.26-59.92-12.27-14.78-1.28-81.63,2.35-159.36,18.98-64.21,13.74-149.32,39.51-190.13,84.25-2.76,3.03-6.55,4.56-10.35,4.56h.02Z"/>
      <g>
        <path class="cls-7" d="M459.1,390.93c-4.09-1.9-6.18-6.61-4.73-10.99,1.86-5.63,5.77-23.45-.36-31.33-1.28-1.65-4.69-2.82-8.72-1.86-2.58.62-8.79,3.09-10.65,12.67-.94,4.88-5.67,8.07-10.55,7.13-4.88-.95-8.07-5.66-7.13-10.55,2.66-13.77,11.69-23.78,24.13-26.75,10.58-2.53,21.23.73,27.12,8.31,13.11,16.86,4.27,44.92,3.22,48.07-1.57,4.71-6.67,7.26-11.39,5.68-.33-.11-.65-.24-.96-.38h.02Z"/>
        <path class="cls-2" d="M462.92,397.78c-1.6,0-3.21-.26-4.77-.78-.53-.17-1.07-.39-1.6-.64-6.9-3.22-10.29-11.09-7.89-18.32,2.45-7.44,4.1-20.58.83-25.44-.4-.15-1.4-.35-2.82-.01-1.8.43-5,2.04-6.15,7.97-1.57,8.12-9.45,13.45-17.58,11.88-8.12-1.58-13.45-9.46-11.88-17.58,3.12-16.15,13.83-27.91,28.63-31.45,12.87-3.08,25.92,1.03,33.25,10.46,14.71,18.92,6.06,48.01,4.18,53.65-1.27,3.8-3.94,6.88-7.53,8.67-2.11,1.05-4.39,1.59-6.68,1.59h.01ZM448.15,340.41c4.37,0,8.35,1.62,10.59,4.52,9.36,12.04,1.4,36.64,1.32,36.89-.48,1.46.19,3.03,1.57,3.67h0c.1.05.2.09.3.12,1.05.35,1.89.05,2.31-.15.42-.21,1.16-.71,1.51-1.73.38-1.13,9.11-27.84-2.27-42.48-4.45-5.73-12.69-8.15-20.99-6.16-10.09,2.42-17.43,10.66-19.64,22.06-.31,1.62.75,3.2,2.38,3.52,1.62.31,3.2-.75,3.51-2.38,2.59-13.37,12.24-16.67,15.14-17.36,1.43-.34,2.87-.51,4.26-.51h0Z"/>
      </g>
      <g>
        <path class="cls-7" d="M425.05,404.56l51.13-17.22,22.04,51.76s-10.45,20.64-53.45,21.42l-19.72-55.96h0Z"/>
        <path class="cls-2" d="M444.78,470.52c-4.23,0-8.02-2.67-9.43-6.68l-19.72-55.96c-.89-2.52-.73-5.3.44-7.71s3.26-4.24,5.8-5.1l51.13-17.22c4.95-1.66,10.35.75,12.39,5.56l22.04,51.76c1.16,2.71,1.05,5.8-.28,8.44-1.35,2.66-14.54,26.03-62.19,26.9h-.18,0ZM437.86,410.8l13.88,39.38c20.66-1.64,30.7-8.45,34.98-12.59l-16.11-37.82-32.75,11.03Z"/>
      </g>
      <path class="cls-2" d="M489.23,298.61c-2.15,0-3.93-1.71-4-3.87-1.51-47.24-28.49-91.9-28.76-92.35-1.15-1.88-.56-4.35,1.33-5.5,1.88-1.15,4.34-.56,5.5,1.32,1.16,1.89,28.35,46.86,29.93,96.26.07,2.21-1.66,4.06-3.87,4.13h-.13,0Z"/>
      <path class="cls-2" d="M475.4,299.48c-2.18,0-3.97-1.75-4-3.95-.45-32.6-17.88-64.5-18.05-64.81-1.07-1.93-.37-4.37,1.56-5.44s4.36-.37,5.44,1.56c.76,1.37,18.58,33.92,19.06,68.58.03,2.21-1.74,4.02-3.95,4.05h-.06Z"/>
      <g>
        <path class="cls-7" d="M312.11,103.8l55.09-9.29c1.87-.32,3.66.91,4.04,2.77l2.65,12.94c.4,1.94-.89,3.83-2.84,4.18l-55.86,9.82c-1.96.35-3.82-1.01-4.1-2.98l-1.88-13.48c-.26-1.89,1.02-3.64,2.9-3.96h0Z"/>
        <path class="cls-2" d="M314.59,130.27c-2,0-3.99-.63-5.62-1.82-2.08-1.51-3.47-3.84-3.83-6.38l-1.88-13.48c-.72-5.14,2.73-9.84,7.85-10.7l55.09-9.29c5.08-.85,9.88,2.43,10.91,7.48l2.65,12.94c.52,2.54,0,5.12-1.46,7.27-1.46,2.14-3.67,3.57-6.22,4.02l-55.87,9.82c-.54.09-1.09.14-1.63.14h0ZM315.48,109.32l1.19,8.55,50.83-8.93-1.66-8.1-50.36,8.49h0Z"/>
      </g>
      <g>
        <path class="cls-7" d="M347.53,91.44l6.3,36.15c.34,1.94-.97,3.77-2.91,4.08l-8.61,1.38c-1.89.3-3.68-.96-4.02-2.85l-6.68-36.61c-.37-2.02,1.06-3.93,3.11-4.14l8.99-.92c1.84-.19,3.51,1.08,3.83,2.9h0Z"/>
        <path class="cls-2" d="M341.77,139.1c-4.51,0-8.56-3.25-9.39-7.81l-6.68-36.61c-.47-2.6.16-5.31,1.75-7.43s4.01-3.49,6.64-3.76l8.99-.92c4.96-.51,9.5,2.93,10.35,7.84l6.3,36.15c.44,2.53-.14,5.08-1.63,7.17s-3.71,3.46-6.25,3.87l-8.61,1.38c-.5.08-1,.12-1.49.12h.02ZM337.99,95.16l5.76,31.59,3.74-.6-5.47-31.4-4.03.41Z"/>
      </g>
      <g>
        <path class="cls-10" d="M721.02,273.65s-7.97,74.57-72.92,101.96c-39.69,16.74-107.22-3.91-122.09,25.83-20.35,40.7,38.11,80.13,137.72,66.55,99.61-13.58,138.45-93.15,138.45-93.15"/>
        <path class="cls-4" d="M537.55,419.83s29.15,20.35,89.41,18.78c60.26-1.57,114.26-32.87,118.17-36.78s32.48,12.52,32.48,12.52l-6.26,29.74s-79.04,35.61-147.91,23.09c-68.87-12.52-86.09-33.26-86.09-33.26"/>
        <path class="cls-2" d="M625.19,484.7c-18.69,0-36.15-1.96-51.65-5.87-25.85-6.51-45.27-18-56.17-33.23-11.04-15.42-12.42-33.33-3.87-50.43,12.35-24.7,44.15-25.23,74.91-25.75,19.62-.33,39.9-.66,54.26-6.72,23.35-9.85,41.24-27.81,53.17-53.39,9.25-19.84,11.26-37.02,11.28-37.19.86-7.67,7.75-13.22,15.44-12.37,7.67.84,13.22,7.71,12.4,15.38-.36,3.38-9.67,83.12-81.4,113.38-19.35,8.16-42.39,8.54-64.67,8.92-21.36.36-45.57.76-50.33,10.27-3.84,7.68-3.32,14.75,1.59,21.61,13,18.17,56.64,33.68,121.72,24.81,37.88-5.16,70.82-20.99,97.9-47.05,20.48-19.71,29.78-38.22,29.87-38.4,3.42-6.91,11.81-9.77,18.73-6.36,6.92,3.4,9.8,11.75,6.41,18.68-.44.9-11.05,22.35-34.68,45.37-21.73,21.17-59.22,47.98-114.46,55.51-13.92,1.9-27.48,2.84-40.44,2.84h-.01Z"/>
        <g>
          <path class="cls-3" d="M546.36,398.5c-9.93,0-18.26,6.8-20.63,15.99l-62.72,2.4s-2.35,5.28,2.54,12.72l60.64-2.88c2.87,8.39,10.8,14.42,20.16,14.42,11.78,0,21.33-9.55,21.33-21.33s-9.55-21.33-21.33-21.33h.01ZM545.77,431.8c-14.93,0-14.91-23.17,0-23.17s14.91,23.17,0,23.17Z"/>
          <path class="cls-2" d="M546.36,445.65c-9.87,0-18.76-5.62-23.08-14.28l-57.51,2.73c-1.57.07-3.1-.69-3.97-2.02-6.07-9.22-3.24-16.25-2.9-17.02.7-1.57,2.23-2.6,3.94-2.67l59.61-2.28c3.9-9.64,13.3-16.12,23.91-16.12,14.24,0,25.83,11.59,25.83,25.83s-11.59,25.83-25.83,25.83h0ZM526.2,422.23c1.91,0,3.63,1.22,4.25,3.04,2.33,6.81,8.72,11.38,15.91,11.38,9.28,0,16.83-7.55,16.83-16.83s-7.55-16.83-16.83-16.83c-7.66,0-14.35,5.19-16.27,12.62-.5,1.93-2.2,3.3-4.19,3.37l-58.91,2.25c.11,1.01.41,2.27,1.1,3.74l57.88-2.75h.23Z"/>
          <path class="cls-2" d="M546.36,431.63c-6.51,0-11.8-5.3-11.8-11.8s5.3-11.8,11.8-11.8,11.8,5.29,11.8,11.8-5.29,11.8-11.8,11.8ZM546.36,414.02c-3.2,0-5.8,2.6-5.8,5.8s2.6,5.8,5.8,5.8,5.8-2.6,5.8-5.8-2.6-5.8-5.8-5.8Z"/>
        </g>
      </g>
      <g>
        <path class="cls-10" d="M693.88,282.84s-52.88-16.3-71.09-70.33c-1.94-5.76-4.23-16.71.33-31.87,6.12-20.36,3.26-37.62-23.44-42.94-39.41-7.85-71.37,40.85-61.04,102.44,11.88,70.8,86.69,128.03,187.77,129"/>
        <path class="cls-4" d="M560.91,162.39s-13.98,62.63,27.18,107.44,144.09,55.31,144.09,55.31c0,0-16.15,39.11-31.4,45.76-15.25,6.65-170.26-46.31-159.56-150.88"/>
        <path class="cls-2" d="M690.19,294.78c-32.22-8.27-60.9-34.43-75.23-64.22-2.15-4.37-3.96-9.05-5.58-13.63-3.21-9.45-3.74-20.06-2.27-29.51.97-7.97,4.85-15.95,4.48-23.82-.1-4.62-2.36-7.46-6.34-9.27-7.07-3.27-16.23-4.41-23.62-1.23-8.03,3.11-14.86,10.48-19.27,17.97-11.09,18.91-13.15,43.15-9.82,64.95,2.95,19.96,11.78,38.84,24.32,54.58,32.6,41.15,85.61,60.59,136.82,64.34,4.28.54,9.17,1,13.44,1.82,14.14,2.88,13.45,22.96-.84,24.89-6.32.75-12.68.82-19.04.55-31.93-2.2-63.48-10.5-92.07-25.14-40.83-20.7-75.92-56.82-87.9-101.88-8.44-32.83-7.1-68.86,10.44-98.89,8.35-13.89,20.43-25.5,36.21-30.87,14.46-4.77,30.03-3.22,43.82,3.3,22.8,11.07,25.92,34.05,18.92,56.06-2.32,7.73-2.99,16.19-.35,23.63.2.56.8,2.18,1.01,2.77,6.46,17.39,18.24,32.18,33.17,43.33,8.04,5.94,16.75,11.11,25.66,15.63l.81.42c.23.13.59.29.59.33l-.18,18.34c.01,3.68-3.63,6.48-7.18,5.55h0Z"/>
      </g>
      <g>
        <path class="cls-10" d="M964.84,364.3s54.78,7.83,94.3-33.26c4.21-4.38,10.96-13.3,13.3-28.96,3.15-21.03,13.11-35.41,39.52-28.83,38.99,9.72,47.11,67.4,11.48,118.7-40.96,58.96-133.04,78.78-224.87,36.52"/>
        <path class="cls-4" d="M1136.49,312.13s-14.09,62.61-70.43,85.57c-56.35,22.96-153.91-11.48-153.91-11.48,0,0-2.09,42.26,8.87,54.78s173.74,30.78,208.7-68.35"/>
        <path class="cls-2" d="M966.6,351.93c31.51-.74,59.86-7.3,82.39-30.71,3.76-4.01,6.23-8.69,7.91-14.3,1.69-5.74,1.94-11.55,3.76-17.51,2.29-8.05,6.11-16.03,12.75-22.15,10.69-10.25,27.02-11.56,40.63-8.16,6.86,1.56,13.45,4.34,19.31,8.28,11.52,7.76,19.6,20.13,23.5,33.03,11.26,38.61-4.83,80.36-29.56,109.98-52.53,61.43-145.81,66.43-216.96,38.06-5.86-2.47-11.59-5.25-16.98-8.63-12.13-7.9-4.08-26.28,9.85-22.87,3.02.79,5.97,1.74,8.86,2.76,2.05.68,6.11,2.01,8.13,2.77,26.53,9.75,54.84,15.43,83.12,14.28,36.75-1.25,74.39-14.28,99.45-41.91,18.04-20.2,30.94-48.39,28.71-75.51-.83-9.21-4.16-19.17-10.78-25.56-2.53-2.32-5.35-4.27-8.6-5.49-3.69-1.5-8.5-2.39-12.25-2.38-2.66.03-5.22.48-7.16,2.28-3.96,3.93-5.25,10.37-6.23,16.09-2.22,14.93-8.78,29.23-20.26,39.65-17.02,16.6-39.45,27.66-62.58,32.2-13.34,2.62-27.16,3.3-40.54.55-3.61-.67-5.69-4.74-4.14-8.05l7.68-16.69h-.01Z"/>
      </g>
      <circle class="cls-10" cx="835.79" cy="231.39" r="216.39"/>
      <g>
        <circle class="cls-2" cx="703.53" cy="242.61" r="44.61"/>
        <circle class="cls-9" cx="685.38" cy="236.17" r="15.46"/>
      </g>
      <g>
        <circle class="cls-2" cx="907.27" cy="242.61" r="44.61"/>
        <circle class="cls-9" cx="889.12" cy="236.17" r="15.46"/>
      </g>
      <path class="cls-4" d="M1015.01,229.11c0,57.45-20.36,109.94-53.98,150.07h37.51c36.18-38.68,58.34-90.65,58.34-147.79,0-105.49-75.48-193.35-175.38-212.51,78.48,34.74,133.51,115.79,133.51,210.23Z"/>
      <path class="cls-2" d="M835.79,462.78c-61.81,0-119.91-24.07-163.62-67.77s-67.77-101.81-67.77-163.62,24.07-119.91,67.77-163.62S773.98,0,835.79,0s119.91,24.07,163.62,67.77,67.77,101.81,67.77,163.62-24.07,119.91-67.77,163.62-101.81,67.77-163.62,67.77h0ZM835.79,30c-111.05,0-201.39,90.34-201.39,201.39s90.34,201.39,201.39,201.39,201.39-90.34,201.39-201.39S946.84,30,835.79,30h0Z"/>
      <g>
        <circle class="cls-2" cx="705.36" cy="124.56" r="23.61"/>
        <circle class="cls-2" cx="755.97" cy="81.26" r="21.78"/>
        <circle class="cls-2" cx="781.08" cy="130.89" r="15.91"/>
        <circle class="cls-2" cx="813.62" cy="59.74" r="13.17"/>
      </g>
      <path class="cls-2" d="M789.24,265.77c4.48,9.14,16.28,12.35,24.73,7.12,2.81-1.7,5.2-4.4,6.89-7.74,3.01-5.6,9.99-7.69,15.59-4.68,5,2.69,7.2,8.56,5.46,13.77-2.5,7.49-7.59,14.43-14.18,19-13.32,9.51-32.36,9.5-45.68,0-6.59-4.57-11.68-11.51-14.19-19-4.13-13.93,14.91-21.35,21.38-8.47h0Z"/>
      <g>
        <path class="cls-10" d="M945.45,400.3s8.2,47.27,48.48,63.51c26.15,10.54,53.72-13.45,70.12,6.84,14.9,18.45-3.82,82.19-80.51,77.85-82.24-4.66-132.6-95.44-125.51-118.67"/>
        <path class="cls-4" d="M1050.07,513.14s-42.66,15.44-97.34-10.91c-54.69-26.35-65.81-87.69-78.91-85.35-13.1,2.34-12.13,92.59,76.81,122.36,88.94,29.77,107.5-22.85,107.5-22.85"/>
        <path class="cls-2" d="M957.76,398.17c0-.08.03,0,.05.03.02.03.05.09.07.13.16.35.29.64.43,1l.6,1.45,1.22,2.99c2.42,5.85,4.95,12.31,7.97,17.78,7.24,13.25,17.71,24.02,31.68,29.39,8.81,3.11,17.83.89,27.55-.81,8.09-1.53,18.78-3.36,28.13-1.01,7.57,1.69,14.86,6.47,19.7,12.6,14.96,19.67,6.62,49.02-6.76,66.75-19.9,26.83-53.83,36.51-85.79,34.33-58.38-3.56-108.23-46.62-131.83-98.47-3.43-8.03-6.22-16.82-6.49-26.06-.03-4.05.26-7.89,1.8-12.07,2.01-6.6,9-10.32,15.6-8.31s10.32,9,8.31,15.6c.17.02.24.35.31.82.4,2.29.88,4.51,1.68,7.08,15.96,47.91,63.71,92.03,115.6,92.97,25.41,1.02,52.98-8.44,63.61-33.05,2.65-6.32,4.93-15.52,1.78-21.62-2.03-2.7-4.5-3.29-8.08-3.25-8.65.27-18.69,3.29-28.52,4.04-8.53.88-19.13.05-27.67-3.53-19.55-7.68-35.63-23.87-45.23-41.98-5.25-9.71-9.31-20.09-10.24-31.15l-.1-1.36c-1.18-6.8,3.38-13.27,10.18-14.45,6.8-1.18,13.27,3.38,14.45,10.18h0v-.02Z"/>
      </g>
      <g>
        <path class="cls-10" d="M961.6,526.11c-18.33-24.07-50.11,10.86-80.02-30.33-7.9-10.87-12.68-22.35-15.49-33.14.06-1.38.1-2.77.1-4.16,0-9.02-1.34-17.66-3.8-25.65,0-2.33.08-24.47.19-26.43h-116.96c.11,1.96.19,24.11.19,26.43-2.46,8-3.8,16.64-3.8,25.65,0,1.4.04,2.78.1,4.16-2.82,10.79-7.6,22.27-15.49,33.14-29.92,41.19-61.7,6.26-80.02,30.33-16.54,21.72.68,73.86,70.63,69.85,53.18-3.05,73.61-35.3,81.02-63.47,1.93.22,3.88.34,5.85.34s3.92-.12,5.85-.34c7.4,28.17,27.84,60.42,81.02,63.47,69.95,4.01,87.17-48.12,70.63-69.85h0Z"/>
        <path class="cls-4" d="M656.58,574.43s43.43,1.57,81.78-18.78c38.35-20.35,53.22-46.57,53.22-46.57,0,0,.39,42.65-29.35,70.43s-90,11.74-90,11.74"/>
        <path class="cls-2" d="M756.46,411.79c2.53,4.87,3.11,10.33,3.29,15.69.21,5.13.18,10.25-.19,15.37-1.81,26.14-11.4,52.34-29.98,71.43-8.1,8.41-20,15-31.76,16.7-10.09,1.73-20.75.25-29.73.13-3.62,0-5.86.5-7.05,1.13-.63.37-1.21.65-1.85,1.37-2.44,2.5-3.52,5.45-3.88,9.41-.81,13.09,7.89,24.64,19.4,30.94,19.42,10.66,47.99,9.62,68.57,2.6.91-.34,3.14-1.26,4.01-1.58.81-.38,3.02-1.43,3.86-1.82.84-.44,2.89-1.62,3.7-2.04.75-.47,2.75-1.79,3.53-2.27,14.34-9.86,23.13-25.87,26.96-42.67,2.18-8.21,1.96-16.91,4.59-25.05,4.07-12.35,21.63-11.55,24.71.91,2.29,10.15.11,20.48-1.97,30.5-2.34,10.2-5.96,20.15-11.11,29.39-9.11,16.67-23.78,30.39-41.11,38.24-24.82,11.39-58.34,13.56-84.43,5.48-28.23-8.37-51.92-33.85-49.49-65.02,1.9-22.63,18.25-38.96,41.46-38.32,9.39-.01,17.14,1.5,25.28.29,10.3-1.77,16.55-7.76,23.15-17.13,4.46-6.46,7.92-13.55,10.38-21.04,3.76-11.32,5.31-23.73,4.85-35.75-.14-3.74-.69-7.49.12-11.17.03-.11.05-.24.09-.33.04-.07.06-.24.14-.19-2.81-16.29,20.32-21.33,24.45-5.19h0Z"/>
        <path class="cls-4" d="M951.62,574.43s-43.43,1.57-81.78-18.78c-38.35-20.35-53.22-46.57-53.22-46.57,0,0-.39,42.65,29.35,70.43,29.74,27.78,90,11.74,90,11.74"/>
        <path class="cls-2" d="M876.19,416.99c.08-.06.09.11.14.19.04.09.06.22.09.33.81,3.68.26,7.43.12,11.17-.14,4.05-.09,8.13.22,12.17,1.2,15.95,5.94,31.48,15.01,44.62,4.4,6.48,9.41,11.55,14.66,14.32,10.65,5.55,21.37,2.41,33.78,2.52,6.4,0,13.49.92,19.75,4.09,25.67,13.1,26.98,47.78,12.78,69.32-18.2,29.03-55.15,37.35-87.08,34.12-39.83-3.34-71.52-24.15-85.69-62.35-4.31-12.16-7.32-24.88-7.37-37.77.07-2.56.34-5.13.96-7.68,1.67-6.89,8.61-11.13,15.5-9.46,7.8,1.95,9.81,8.65,10.88,15.56.92,6.02,1.44,12.16,2.92,18.05,4.02,17.68,13.63,34.59,29.31,44.18,1.3.9,3.5,2.01,4.88,2.8,1.47.66,3.69,1.8,5.2,2.34,27.68,11.07,79.51,10.5,89.78-23.76,1.79-6.79,1.41-15.76-4.86-19.5-1.19-.63-3.43-1.13-7.05-1.13-9,.12-19.63,1.6-29.73-.13-11.76-1.7-23.65-8.29-31.76-16.7-18.59-19.09-28.17-45.3-29.98-71.43-.37-5.12-.4-10.24-.19-15.37.18-5.36.76-10.83,3.29-15.69,4.06-16.04,27.24-11.21,24.45,5.19h-.01Z"/>
      </g>
      <circle class="cls-2" cx="555.3" cy="100.86" r="12.91"/>
      <path class="cls-2" d="M627.4,34.76c-6.19-2.12-12.45-3.43-18.76-4.25-3.45-.45-6.12-3.2-6.55-6.66-.01-.12-.03-.24-.04-.36-.87-6.09-1.99-12.17-4.17-18.26-.73-2.01-2.33-3.72-4.5-4.5-3.87-1.38-8.12.63-9.5,4.5-2.08,6.09-3.39,12.25-4.21,18.45-.45,3.4-3.12,6.09-6.53,6.52-3.24.41-6.46.97-9.66,1.71-3.04.72-6.09,1.56-9.13,2.83-1.76.74-3.27,2.16-4.07,4.07-1.62,3.87.2,8.31,4.07,9.93,5.95,2.41,12.03,3.62,18.26,4.48.04,0,.08,0,.13.02,3.44.44,6.18,3.1,6.63,6.54.41,3.14.96,6.26,1.67,9.36.72,3.04,1.56,6.09,2.83,9.13.74,1.76,2.16,3.27,4.07,4.07,3.87,1.62,8.31-.2,9.93-4.07,2.41-5.95,3.62-12.03,4.48-18.26.02-.14.04-.29.06-.43.44-3.49,3.18-6.21,6.67-6.65h.06c6.09-.87,12.17-1.99,18.26-4.17,2.01-.73,3.72-2.33,4.5-4.5,1.38-3.87-.63-8.12-4.5-9.5h0Z"/>
    </g>
  </g>
</svg>