<?xml version="1.0" encoding="UTF-8"?>
<svg id="Layer_2" data-name="Layer 2" xmlns="http://www.w3.org/2000/svg" viewBox="0 0 728.53 675.58">
  <defs>
    <style>
      .cls-1, .cls-2 {
        fill: #f1f1f1;
      }

      .cls-3 {
        fill: #f6921e;
      }

      .cls-4 {
        fill: #182d33;
      }

      .cls-5 {
        fill: #d1f0e8;
      }

      .cls-6 {
        fill: #e5e5e5;
      }

      .cls-7 {
        fill: #fff;
      }

      .cls-8 {
        fill: #c94141;
      }

      .cls-9 {
        fill: #989898;
      }

      .cls-10 {
        fill: #0d9488;
      }

      .cls-2 {
        opacity: .35;
      }
    </style>
  </defs>
  <g id="O">
    <g>
      <g>
        <rect class="cls-1" x="382.53" y="14" width="331.99" height="231.65"/>
        <path class="cls-4" d="M714.53,259.65h-331.99c-7.73,0-14-6.27-14-14V14C368.53,6.27,374.8,0,382.53,0h331.99c7.73,0,14,6.27,14,14v231.65c0,7.73-6.27,14-14,14ZM396.53,231.65h303.99V28h-303.99v203.65Z"/>
        <path class="cls-4" d="M547.73,137.02c-2.65,0-5.32-.75-7.7-2.32L374.82,25.69c-6.45-4.26-8.23-12.94-3.97-19.4,4.26-6.45,12.94-8.23,19.4-3.97l165.21,109.01c6.45,4.26,8.23,12.94,3.97,19.4-2.69,4.08-7.15,6.29-11.7,6.29Z"/>
        <path class="cls-4" d="M548.99,137.02c-4.55,0-9.01-2.21-11.7-6.29-4.26-6.45-2.48-15.14,3.97-19.4L706.47,2.32c6.45-4.26,15.14-2.48,19.4,3.97,4.26,6.45,2.48,15.14-3.98,19.4l-165.21,109.01c-2.37,1.57-5.05,2.32-7.7,2.32Z"/>
      </g>
      <g>
        <polyline class="cls-6" points="56.22 305.6 16.53 180.31 43.12 109.2 92.73 163.07 108.61 294.66"/>
        <path class="cls-4" d="M56.21,319.6c-5.94,0-11.45-3.81-13.34-9.78L3.18,184.53c-.94-2.98-.86-6.2.23-9.13l26.59-71.1c1.7-4.56,5.65-7.9,10.42-8.84,4.77-.93,9.69.68,12.99,4.25l49.61,53.87c1.99,2.16,3.25,4.89,3.6,7.81l15.88,131.59c.93,7.68-4.54,14.65-12.22,15.58-7.68.92-14.65-4.54-15.58-12.22l-15.34-127.1-31.12-33.79-16.92,45.24,38.23,120.68c2.33,7.37-1.75,15.24-9.12,17.57-1.41.45-2.83.66-4.23.66Z"/>
      </g>
      <g>
        <path class="cls-3" d="M124.53,284.39s-80.61,19.17-81.78,19.17-23.48,3.13-28.17,3.91,22.7,32.48,22.7,32.48l89.61-18.39"/>
        <path class="cls-4" d="M37.27,353.96c-4.02,0-7.9-1.73-10.59-4.85-.26-.3-6.41-7.42-12.49-15.14-11.38-14.43-16.4-22.18-13.27-30.87,1.79-4.95,6.14-8.57,11.35-9.44.22-.04,21.14-3.23,28.41-3.96,5.39-1.11,51.93-12.12,80.6-18.94,7.52-1.79,15.07,2.86,16.86,10.38,1.79,7.52-2.86,15.07-10.38,16.86-82.21,19.55-82.86,19.55-85.02,19.55.18,0,.51,0,.98-.04-.75.07-3.14.38-6.22.8,1.63,2.04,3.35,4.16,5.09,6.25l81.47-16.72c7.57-1.55,14.97,3.33,16.53,10.9,1.55,7.57-3.33,14.97-10.9,16.53l-89.61,18.39c-.94.19-1.88.29-2.81.29ZM42.75,289.57c-.81,0-1.49.07-1.91.13.87-.08,1.53-.13,1.91-.13Z"/>
      </g>
      <path class="cls-10" d="M212.97,482.78s-106.43,6.78-145.57-68.87c-33.35-64.47,18-97.04,47.74-88.43,29.74,8.61,25.83,59.74-6.26,65.74l5.48,1.57,31.3-27"/>
      <path class="cls-5" d="M105.49,400.61s27.91,33.91,80.09,43.83l-46.43-74.09-21.39,16.96"/>
      <path class="cls-4" d="M206.16,496.94c-10.71,0-31.4-.9-54.65-6.63-45.25-11.15-78.63-35.34-96.54-69.97-17.09-33.03-16.4-64.74,1.87-87,15.36-18.7,40.93-27.47,62.19-21.32,19.17,5.55,31.33,24.19,30.25,46.38-1.16,23.84-16.36,42.55-37.83,46.57-7.6,1.42-14.91-3.59-16.33-11.19-1.42-7.6,3.59-14.91,11.19-16.33,9.78-1.83,14.58-11.56,15.01-20.4.12-2.5.21-15.15-10.07-18.13-8.91-2.58-23.42.82-32.77,12.2-11,13.39-10.51,33.41,1.36,56.36,34.53,66.76,131.27,61.39,132.24,61.33,7.72-.49,14.37,5.37,14.86,13.08.49,7.72-5.36,14.37-13.08,14.86-.35.02-3.11.19-7.7.19Z"/>
      <g>
        <path class="cls-10" d="M492.36,398.09s54.78,7.83,94.3-33.26c4.21-4.38,10.96-13.3,13.3-28.96,3.15-21.03,13.11-35.41,39.52-28.83,38.99,9.72,47.11,67.4,11.48,118.7-40.96,58.96-133.04,78.78-224.87,36.52"/>
        <path class="cls-5" d="M664.01,345.91s-14.09,62.61-70.43,85.57c-56.35,22.96-153.91-11.48-153.91-11.48,0,0-2.09,42.26,8.87,54.78,10.96,12.52,173.74,30.78,208.7-68.35"/>
        <path class="cls-4" d="M494.12,385.71c31.51-.74,59.86-7.3,82.39-30.71,3.76-4.01,6.23-8.69,7.91-14.3,1.69-5.74,1.94-11.55,3.76-17.51,2.29-8.05,6.11-16.03,12.75-22.15,10.69-10.25,27.02-11.56,40.63-8.16,6.86,1.56,13.45,4.34,19.31,8.28,11.52,7.76,19.6,20.13,23.5,33.03,11.26,38.61-4.83,80.36-29.56,109.98-52.53,61.43-145.81,66.43-216.96,38.06-5.86-2.47-11.59-5.25-16.98-8.63-12.13-7.9-4.08-26.28,9.85-22.87,3.02.79,5.97,1.74,8.86,2.76,2.05.68,6.11,2.01,8.13,2.77,26.54,9.75,54.84,15.43,83.12,14.28,36.75-1.25,74.39-14.28,99.45-41.91,18.04-20.2,30.94-48.39,28.71-75.51-.83-9.21-4.16-19.17-10.78-25.56-2.53-2.32-5.35-4.27-8.6-5.49-3.69-1.5-8.5-2.39-12.25-2.38-2.66.03-5.22.48-7.16,2.28-3.96,3.93-5.25,10.37-6.23,16.09-2.22,14.93-8.78,29.23-20.26,39.65-17.02,16.6-39.45,27.66-62.58,32.2-13.34,2.62-27.16,3.3-40.54.55-3.61-.67-5.69-4.74-4.14-8.05,0,0,7.68-16.69,7.68-16.69h0Z"/>
      </g>
      <circle class="cls-10" cx="349.53" cy="296.48" r="216.39"/>
      <polyline class="cls-4" points="323.38 360.7 328.07 381.7 374.51 381.7 374.51 360.57"/>
      <ellipse class="cls-8" cx="349.07" cy="383.38" rx="20.61" ry="12.24"/>
      <path class="cls-4" d="M327.96,381.6c-2.64,0-5.16-1.5-6.35-4.04-1.63-3.5-.12-7.67,3.39-9.3,6.88-3.21,15.6-4.97,24.56-4.97s17.44,1.72,24.26,4.83c3.52,1.61,5.07,5.76,3.46,9.28-1.61,3.52-5.76,5.06-9.28,3.46-5.03-2.3-11.58-3.56-18.44-3.56s-13.58,1.3-18.64,3.66c-.96.45-1.96.66-2.95.66Z"/>
      <path class="cls-5" d="M528.75,294.2c0,57.45-20.36,109.94-53.98,150.07h37.51c36.18-38.68,58.34-90.65,58.34-147.79,0-105.49-75.48-193.35-175.38-212.51,78.48,34.74,133.51,115.79,133.51,210.23Z"/>
      <path class="cls-4" d="M349.53,527.87c-61.81,0-119.91-24.07-163.62-67.77-43.7-43.7-67.77-101.81-67.77-163.62s24.07-119.91,67.77-163.62c43.7-43.7,101.81-67.77,163.62-67.77s119.91,24.07,163.62,67.77c43.7,43.7,67.77,101.81,67.77,163.62s-24.07,119.91-67.77,163.62c-43.7,43.7-101.81,67.77-163.62,67.77ZM349.53,95.09c-111.05,0-201.39,90.34-201.39,201.39s90.34,201.39,201.39,201.39,201.39-90.34,201.39-201.39-90.34-201.39-201.39-201.39Z"/>
      <circle class="cls-4" cx="247.79" cy="316.7" r="44.61"/>
      <g>
        <circle class="cls-4" cx="248.84" cy="193.57" r="23.61"/>
        <circle class="cls-4" cx="299.44" cy="150.26" r="21.78"/>
        <circle class="cls-4" cx="324.55" cy="199.89" r="15.91"/>
        <circle class="cls-4" cx="357.1" cy="128.74" r="13.17"/>
      </g>
      <circle class="cls-7" cx="244.07" cy="306.91" r="15.46"/>
      <circle class="cls-4" cx="451.27" cy="316.7" r="44.61"/>
      <circle class="cls-7" cx="447.55" cy="306.91" r="15.46"/>
      <g>
        <path class="cls-10" d="M212.18,444.26s-14.87,40.7-57.91,46.57c-27.93,3.81-48.78-26.22-69.65-10.57-18.97,14.23-16.45,80.62,58.96,95.22,80.87,15.65,151.96-60,150.78-84.26"/>
        <path class="cls-5" d="M87.75,524.87s37.57,25.43,97.04,13.3,85.3-68.87,97.43-63.39c12.13,5.48-10.96,92.74-104.48,99.78s-98.61-48.52-98.61-48.52"/>
        <path class="cls-4" d="M223.92,448.55c-2.82,11.48-9.53,21.41-17.53,29.98-12.78,13.92-31.02,23.76-50,26.24-16.66,2.59-32.37-4.64-46.4-11.16-4.14-1.84-7.85-3.16-10.41-3.52-2.55-.35-3.84-.12-5.84,1.2,0,0-.35.24-.35.24-.28.14-.22.25-.45.35-.72.89-1.27,1.6-1.91,3.18-4.13,10.46-1.5,23.67,3.98,33.75,8.37,15.24,24.04,25.05,40.47,29.91,40.81,12.97,85.36-3.08,116.97-30.46,12.04-10.33,22.55-22.5,29.41-36.44-.16-16.56,23.5-17.77,24.97-1.21.95,10.54-3.65,20.12-8.85,28.63-13.6,20.43-32.34,36.38-52.99,49.08-34.99,21.43-77.92,30.17-117.76,17.87-23.61-6.88-45.59-21.54-57.46-43.6-15.08-26.3-14.6-73.76,22.3-80.68,23.51-3.81,41.01,17.06,60.44,14.89,12.9-1.71,24.44-7.88,33.45-17.48,5.58-5.78,9.77-13.01,14.48-19.36,6.28-15.31,28.54-7.27,23.48,8.58h0Z"/>
      </g>
      <g>
        <path class="cls-10" d="M486.88,444.26s14.87,40.7,57.91,46.57c27.93,3.81,48.78-26.22,69.65-10.57,18.97,14.23,16.45,80.62-58.96,95.22-80.87,15.65-151.96-60-150.78-84.26"/>
        <path class="cls-5" d="M611.31,524.87s-37.57,25.43-97.04,13.3c-59.48-12.13-85.3-68.87-97.43-63.39-12.13,5.48,10.96,92.74,104.48,99.78s98.61-48.52,98.61-48.52"/>
        <path class="cls-4" d="M498.62,439.97c4.71,6.35,8.9,13.58,14.48,19.36,8.35,8.86,18.72,14.81,30.51,17.01,3.3.65,6.62.94,10,.38,8.12-1.26,15.67-5.44,24.01-9.09,7.73-3.58,19.31-7.55,29.37-5.71,20.97,3.72,30.61,21.64,31.58,41.08.81,17.19-4.47,33.45-14.02,47.24-13.23,19.12-34.56,31.34-56.71,37.06-60.07,16.45-124.47-13.91-161.94-61.18-5.39-7.16-9.96-14.59-12.49-23.48-1-3.88-1.65-7.65-1.19-12.03.33-6.9,6.19-12.21,13.09-11.88,6.9.33,12.21,6.19,11.88,13.09.17-.02.31.27.5.7,1.66,3.82,4.05,7.78,6.61,11.39,30.27,42.02,88.02,70.94,139.27,54.81,17.32-5.11,33.89-15.83,41.77-32.48,4.55-9.61,6.48-21.62,2.68-31.19-.64-1.58-1.21-2.29-1.91-3.18-.22-.1-.17-.21-.45-.35-.95-.69-2.2-1.35-3.23-1.49-4.36-.36-7.88,1.3-13.37,3.58-4.15,1.81-8.77,4.07-13.94,6.14-9.43,3.97-21.67,6.72-32.46,5.02-24.92-3.23-47.44-18.83-60.55-39.87-3.08-5.09-5.57-10.55-6.98-16.36-5.07-15.76,17.15-23.95,23.48-8.58h0Z"/>
      </g>
      <path class="cls-10" d="M507.03,591.2c-18.33-24.07-50.11,10.86-80.02-30.33-7.9-10.87-12.68-22.35-15.49-33.14.06-1.38.1-2.77.1-4.16,0-9.02-1.34-17.66-3.8-25.65,0-2.33.08-24.47.19-26.43h-116.96c.11,1.96.19,24.11.19,26.43-2.46,8-3.8,16.64-3.8,25.65,0,1.4.04,2.78.1,4.16-2.82,10.79-7.6,22.27-15.49,33.14-29.92,41.19-61.7,6.26-80.02,30.33-16.54,21.72.68,73.86,70.63,69.85,53.18-3.05,73.61-35.3,81.02-63.47,1.93.22,3.88.34,5.85.34s3.92-.12,5.85-.34c7.4,28.17,27.84,60.42,81.02,63.47,69.95,4.01,87.17-48.12,70.63-69.85Z"/>
      <path class="cls-5" d="M202.01,639.52s43.43,1.57,81.78-18.78c38.35-20.35,53.22-46.57,53.22-46.57,0,0,.39,42.65-29.35,70.43-29.74,27.78-90,11.74-90,11.74"/>
      <path class="cls-4" d="M301.89,476.88c2.53,4.87,3.11,10.33,3.29,15.69.21,5.13.18,10.25-.19,15.37-1.81,26.14-11.4,52.34-29.98,71.43-8.1,8.41-20,15-31.76,16.7-10.09,1.73-20.75.25-29.73.13-3.62,0-5.86.5-7.05,1.13-.63.37-1.21.65-1.85,1.37-2.44,2.5-3.52,5.45-3.88,9.41-.81,13.09,7.89,24.64,19.4,30.94,19.42,10.66,47.99,9.62,68.57,2.6.91-.34,3.14-1.26,4.01-1.58.81-.38,3.02-1.43,3.86-1.82.84-.44,2.89-1.62,3.7-2.04.75-.47,2.75-1.79,3.53-2.27,14.34-9.86,23.13-25.87,26.96-42.67,2.18-8.21,1.96-16.91,4.59-25.05,4.07-12.35,21.63-11.55,24.71.91,2.29,10.15.11,20.48-1.97,30.5-2.34,10.2-5.96,20.15-11.11,29.39-9.11,16.67-23.78,30.39-41.11,38.24-24.82,11.39-58.34,13.56-84.43,5.48-28.23-8.37-51.92-33.86-49.49-65.02,1.9-22.63,18.25-38.96,41.46-38.32,9.39-.01,17.14,1.5,25.28.29,10.3-1.77,16.55-7.76,23.15-17.13,4.46-6.46,7.92-13.55,10.38-21.04,3.76-11.32,5.31-23.73,4.85-35.75-.14-3.74-.69-7.49.12-11.17.03-.11.05-.24.09-.33.04-.07.06-.24.13-.19-2.81-16.29,20.32-21.33,24.45-5.19h0Z"/>
      <path class="cls-5" d="M497.05,639.52s-43.43,1.57-81.78-18.78c-38.35-20.35-53.22-46.57-53.22-46.57,0,0-.39,42.65,29.35,70.43,29.74,27.78,90,11.74,90,11.74"/>
      <path class="cls-4" d="M421.63,482.08c.08-.06.09.11.13.19.04.09.07.22.09.33.81,3.68.26,7.43.12,11.17-.14,4.05-.09,8.13.22,12.17,1.2,15.95,5.94,31.48,15.01,44.62,4.4,6.48,9.41,11.55,14.66,14.32,10.65,5.55,21.37,2.41,33.78,2.52,6.4,0,13.49.92,19.75,4.09,25.67,13.1,26.98,47.78,12.78,69.32-18.2,29.03-55.14,37.34-87.08,34.12-39.83-3.34-71.52-24.15-85.69-62.35-4.31-12.16-7.32-24.88-7.37-37.77.07-2.56.34-5.13.96-7.68,1.67-6.89,8.61-11.13,15.5-9.46,7.8,1.95,9.81,8.65,10.88,15.56.92,6.02,1.44,12.16,2.92,18.05,4.01,17.68,13.63,34.59,29.31,44.18,1.29.9,3.5,2.01,4.88,2.8,1.47.66,3.69,1.8,5.2,2.34,27.68,11.07,79.51,10.5,89.78-23.76,1.79-6.79,1.41-15.76-4.86-19.5-1.19-.63-3.43-1.13-7.05-1.13-9,.12-19.63,1.6-29.73-.13-11.76-1.7-23.65-8.29-31.76-16.7-18.59-19.09-28.17-45.3-29.98-71.43-.37-5.12-.4-10.24-.19-15.37.18-5.36.76-10.83,3.29-15.69,4.06-16.04,27.24-11.21,24.45,5.19h0Z"/>
      <g>
        <path class="cls-1" d="M583.92,618.75c131.01-20.96,123.57-184.83,123.57-184.83-61.46-24.36-124.1-69.09-124.1-69.09h-1.04s-62.64,44.73-124.1,69.09c0,0-7.44,163.87,123.57,184.83h2.09Z"/>
        <path class="cls-9" d="M582.88,585.87c-40.71-7.04-68.83-32.58-83.61-75.94-7.38-21.64-9.7-42.89-10.4-55.99,39.61-17.38,77.19-41.47,94.01-52.79,16.82,11.32,54.4,35.42,94.01,52.8-.7,13.08-3.03,34.34-10.4,55.99-14.77,43.35-42.9,68.89-83.61,75.94Z"/>
        <path class="cls-2" d="M584.71,585.92s63.26-35.27,79.77-132.77h14.21s10.09,88.17-73.81,125.51"/>
        <path class="cls-4" d="M583.92,631.25h-2.09c-.66,0-1.32-.05-1.98-.16-58.47-9.35-100.24-46.93-120.8-108.67-15.08-45.27-13.37-87.3-13.29-89.07.22-4.92,3.31-9.24,7.88-11.05,59.27-23.49,120.82-67.2,121.44-67.64,2.12-1.51,4.66-2.33,7.26-2.33h1.04c2.6,0,5.14.81,7.26,2.33.61.44,62.17,44.15,121.44,67.64,4.57,1.81,7.66,6.14,7.88,11.05.08,1.77,1.79,43.8-13.29,89.07-20.56,61.74-62.33,99.31-120.8,108.67-.65.1-1.31.16-1.98.16ZM582.85,606.25h.06c48.84-8.15,82.51-39,100.07-91.73,9.98-29.98,11.81-58.78,12.06-72.2-48.35-20.39-95.07-50.98-112.16-62.64-17.09,11.66-63.8,42.25-112.15,62.64.27,13.54,2.13,42.77,12.26,72.84,17.62,52.33,51.22,82.98,99.86,91.09Z"/>
        <path class="cls-4" d="M582.88,593.37c-.43,0-.86-.04-1.28-.11-43.61-7.55-73.7-34.77-89.43-80.91-7.54-22.13-10.03-43.76-10.79-58.01-.17-3.12,1.62-6.01,4.48-7.27,38.41-16.85,74.65-39.9,92.83-52.15,2.53-1.71,5.84-1.71,8.38,0,18.19,12.24,54.43,35.3,92.83,52.15,2.86,1.25,4.64,4.15,4.48,7.27-.76,14.25-3.25,35.88-10.79,58.01-15.72,46.14-45.81,73.36-89.43,80.91-.42.07-.85.11-1.28.11ZM496.69,458.66c1.01,13.07,3.54,30.83,9.68,48.85,13.66,40.09,39.4,63.88,76.51,70.74,37.11-6.85,62.84-30.65,76.51-70.74,6.14-18.02,8.67-35.78,9.68-48.85-34.9-15.83-67.41-36.06-86.19-48.5-18.78,12.44-51.28,32.67-86.19,48.5Z"/>
        <g>
          <path class="cls-7" d="M549.72,556.3c-1.38,0-2.77-.47-3.9-1.45-3.28-2.82-6.45-5.88-9.41-9.12-2.24-2.44-2.07-6.24.37-8.48,2.44-2.24,6.24-2.07,8.48.37,2.64,2.88,5.46,5.61,8.38,8.12,2.52,2.16,2.81,5.95.65,8.46-1.19,1.38-2.87,2.09-4.56,2.09Z"/>
          <path class="cls-7" d="M529.24,532.52c-1.98,0-3.92-.98-5.07-2.78-14-21.99-17.16-42.53-17.29-43.39-.48-3.28,1.78-6.33,5.06-6.81,3.28-.49,6.32,1.78,6.81,5.05.05.34,3.03,19.07,15.54,38.71,1.78,2.79.96,6.5-1.84,8.28-1,.64-2.11.94-3.22.94Z"/>
        </g>
      </g>
      <path class="cls-4" d="M283.39,295.96c-1.56,0-3.15-.37-4.63-1.14l-49.3-25.83c-4.89-2.56-6.78-8.61-4.22-13.5,2.56-4.89,8.61-6.78,13.5-4.22l49.3,25.83c4.89,2.56,6.78,8.61,4.22,13.5-1.79,3.41-5.27,5.36-8.87,5.36Z"/>
      <path class="cls-4" d="M415.67,295.96c-3.6,0-7.08-1.95-8.87-5.36-2.56-4.89-.67-10.94,4.22-13.5l49.3-25.83c4.89-2.56,10.94-.67,13.5,4.22,2.56,4.89.67,10.94-4.22,13.5l-49.3,25.83c-1.48.78-3.07,1.14-4.63,1.14Z"/>
      <path class="cls-4" d="M349.66,416.7c-11.63,0-22.78-6.04-30.59-16.58-7.16-9.66-11.11-22.32-11.11-35.64,0-2.67.16-5.32.48-7.87.42-3.4,2.33-6.43,5.22-8.28s6.44-2.31,9.7-1.26c14.35,4.6,38.38,4.53,52.47-.14,3.27-1.08,6.85-.65,9.76,1.19,2.91,1.84,4.85,4.88,5.27,8.3.33,2.65.5,5.36.5,8.07,0,13.33-3.94,25.99-11.11,35.64-7.81,10.53-18.96,16.58-30.59,16.58ZM331.68,372.33c2.26,12.17,9.58,21.36,17.98,21.36s15.76-9.24,18-21.45c-11.53,1.65-24.39,1.68-35.98.08Z"/>
      <path class="cls-4" d="M81.09,296.87c-3.24,0-6.15-2.26-6.84-5.56L36.27,110.64c-.8-3.78,1.63-7.5,5.41-8.29,3.78-.8,7.5,1.63,8.29,5.41l37.98,180.67c.8,3.78-1.63,7.5-5.41,8.29-.49.1-.97.15-1.45.15Z"/>
      <path class="cls-4" d="M123.2,53.57c-6.19-2.12-12.45-3.43-18.76-4.25-3.45-.45-6.12-3.2-6.55-6.66-.01-.12-.03-.24-.04-.36-.87-6.09-1.99-12.17-4.17-18.26-.73-2.01-2.33-3.72-4.5-4.5-3.87-1.38-8.12.63-9.5,4.5-2.08,6.09-3.39,12.25-4.21,18.45-.45,3.4-3.12,6.09-6.53,6.52s-6.46.97-9.66,1.71c-3.04.72-6.09,1.56-9.13,2.83-1.76.74-3.27,2.16-4.07,4.07-1.62,3.87.2,8.31,4.07,9.93,5.95,2.41,12.03,3.62,18.26,4.48.04,0,.08.01.13.02,3.44.44,6.18,3.1,6.63,6.54.41,3.14.96,6.26,1.67,9.36.72,3.04,1.56,6.09,2.83,9.13.74,1.76,2.16,3.27,4.07,4.07,3.87,1.62,8.31-.2,9.93-4.07,2.41-5.95,3.62-12.03,4.48-18.26.02-.14.04-.29.06-.43.44-3.49,3.18-6.21,6.67-6.65.02,0,.04,0,.06,0,6.09-.87,12.17-1.99,18.26-4.17,2.01-.73,3.72-2.33,4.5-4.5,1.38-3.87-.63-8.12-4.5-9.5Z"/>
    </g>
  </g>
</svg>