<?xml version="1.0" encoding="UTF-8"?>
<svg id="Delphi" xmlns="http://www.w3.org/2000/svg" viewBox="0 0 1390 930">
  <defs>
    <style>
      .cls-1 {
        fill: #fff;
      }

      .cls-2 {
        fill: #d1f0e8;
      }

      .cls-3 {
        fill: #182d33;
      }

      .cls-4 {
        fill: #badae5;
      }

      .cls-5 {
        fill: #efefef;
      }

      .cls-6 {
        fill: #93c0cc;
      }

      .cls-7 {
        fill: #0d9488;
      }
    </style>
  </defs>
  <polygon class="cls-6" points="1035.23 594.46 1246.81 552.22 1162.12 507.82 973.11 539.94 1035.23 594.46"/>
  <polygon class="cls-6" points="357.45 594.46 145.87 552.22 230.56 507.82 419.57 539.94 357.45 594.46"/>
  <path class="cls-3" d="m145.88,566.23c-5.04,0-9.91-2.73-12.41-7.5-3.59-6.85-.95-15.31,5.9-18.9l84.69-44.41c2.8-1.47,6.01-1.95,9.12-1.35l190.04,36.15c7.6,1.45,12.58,8.77,11.14,16.37-1.44,7.6-8.77,12.59-16.37,11.14l-185.24-35.23-80.36,42.14c-2.08,1.09-4.3,1.6-6.49,1.6Z"/>
  <path class="cls-3" d="m1246.12,566.23c-2.19,0-4.41-.52-6.49-1.6l-80.33-42.13-185.9,36.14c-7.59,1.48-14.94-3.48-16.41-11.07-1.48-7.59,3.48-14.94,11.07-16.41l190.72-37.08c3.12-.61,6.36-.13,9.17,1.34l84.69,44.41c6.85,3.59,9.49,12.05,5.9,18.9-2.5,4.77-7.37,7.5-12.41,7.5Z"/>
  <g>
    <rect class="cls-5" x="219.76" y="425.43" width="180.78" height="126.14" transform="translate(-267.34 452) rotate(-53.97)"/>
    <path class="cls-3" d="m307.99,609.7c-2.31,0-4.58-.73-6.47-2.1l-102.01-74.2c-4.91-3.57-6-10.45-2.43-15.37l106.33-146.2c1.72-2.36,4.3-3.94,7.18-4.4,2.88-.46,5.83.25,8.18,1.97l102.01,74.2c4.91,3.57,6,10.45,2.43,15.37l-106.33,146.2c-1.72,2.36-4.3,3.94-7.18,4.4-.57.09-1.14.13-1.71.13Zm-86.65-87.62l84.22,61.26,93.39-128.41-84.22-61.26-93.39,128.41Z"/>
    <path class="cls-3" d="m205.98,535.51c-4.45,0-8.65-2.72-10.3-7.14-2.13-5.69.75-12.03,6.44-14.16l100.92-37.84c5.69-2.13,12.03.75,14.16,6.44,2.13,5.69-.75,12.03-6.44,14.16l-100.92,37.84c-1.27.48-2.58.7-3.86.7Z"/>
    <path class="cls-3" d="m307.3,497.12c-.17,0-.34,0-.51-.01-6.07-.28-10.76-5.42-10.49-11.49l4.91-107.67c.28-6.07,5.4-10.75,11.49-10.49,6.07.28,10.76,5.42,10.49,11.49l-4.91,107.67c-.27,5.9-5.14,10.5-10.98,10.5Z"/>
  </g>
  <polyline class="cls-4" points="146.15 554.56 172.43 761.75 344.26 809.45 408.03 759.7 420.73 542.19 350.43 596.93 177.73 569.53"/>
  <path class="cls-3" d="m357.45,608.46c-.91,0-1.83-.09-2.74-.27l-211.58-42.24c-7.58-1.51-12.5-8.89-10.99-16.47,1.51-7.58,8.88-12.5,16.47-10.99l205.87,41.1,57.8-38.82c6.42-4.31,15.12-2.6,19.43,3.82,4.31,6.42,2.6,15.12-3.82,19.43l-62.64,42.07c-2.32,1.56-5.05,2.38-7.81,2.38Z"/>
  <path class="cls-3" d="m328.68,819.67c-1.17,0-2.34-.15-3.5-.44l-158.3-40.85c-5.61-1.45-9.75-6.2-10.41-11.95l-24.23-210.25c-.88-7.68,4.62-14.63,12.3-15.51,7.68-.88,14.63,4.62,15.51,12.31l23.13,200.7,142.9,36.88,57.85-38.85,23.77-204.49c.89-7.68,7.84-13.19,15.52-12.29,7.68.89,13.18,7.84,12.29,15.52l-24.51,210.89c-.47,4.07-2.7,7.72-6.1,10.01l-68.43,45.96c-2.33,1.56-5.05,2.38-7.81,2.38Z"/>
  <path class="cls-3" d="m336.87,814.56c-.47,0-.94-.02-1.41-.07-7.69-.77-13.31-7.63-12.54-15.32l20.6-206.1c.77-7.69,7.62-13.3,15.32-12.54,7.69.77,13.31,7.63,12.54,15.32l-20.6,206.1c-.72,7.22-6.81,12.61-13.91,12.61Z"/>
  <polyline class="cls-4" points="1246.53 554.56 1220.26 761.75 1048.42 809.45 984.65 759.7 971.96 542.19 1042.26 596.93 1214.95 569.53"/>
  <path class="cls-3" d="m1035.23,608.46c-2.76,0-5.48-.82-7.81-2.38l-62.64-42.07c-6.42-4.31-8.13-13.01-3.82-19.43,4.31-6.42,13.01-8.13,19.43-3.82l57.8,38.82,205.87-41.1c7.58-1.51,14.96,3.41,16.47,10.99,1.51,7.58-3.41,14.96-10.99,16.47l-211.58,42.24c-.91.18-1.83.27-2.74.27Z"/>
  <path class="cls-3" d="m1064,819.67c-2.75,0-5.48-.81-7.81-2.38l-68.43-45.96c-3.4-2.28-5.63-5.94-6.1-10.01l-24.51-210.89c-.89-7.68,4.61-14.63,12.29-15.52,7.67-.88,14.63,4.61,15.52,12.29l23.77,204.49,57.85,38.85,142.9-36.88,23.13-200.7c.89-7.68,7.82-13.19,15.51-12.31,7.68.89,13.19,7.83,12.3,15.51l-24.23,210.25c-.66,5.75-4.8,10.51-10.41,11.95l-158.3,40.85c-1.15.3-2.33.44-3.5.44Z"/>
  <path class="cls-3" d="m1055.81,814.56c-7.11,0-13.19-5.39-13.91-12.61l-20.6-206.1c-.77-7.69,4.84-14.55,12.54-15.32,7.7-.76,14.55,4.85,15.32,12.54l20.6,206.1c.77,7.69-4.84,14.55-12.54,15.32-.47.05-.94.07-1.41.07Z"/>
  <g>
    <path class="cls-7" d="m529.17,334.68s-73.25-26.2-149.69,13.12c-43.03,22.13-65.03,63.67-66,87.66-1.03,25.59,16.94,40.06,37.05,36.26,31.71-5.99,28.52-29.27,84.36-50.14,57.25-21.39,114.57,21.41,127.55,34.67"/>
    <path class="cls-2" d="m333.57,461.7s18.29-15.48,46.43-42.78c34.96-33.91,92.35-51.13,132.52-18.78l-6.26,17.74s-9.91-20.35-68.87,2.09c-58.96,22.43-64.7,46.96-90.78,39.13"/>
    <path class="cls-3" d="m344.28,486.32c-10.62,0-20.73-3.63-28.64-10.47-11.09-9.57-16.83-24.12-16.15-40.95,1.23-30.54,27.43-75.81,73.58-99.55,80.91-41.61,157.58-15,160.81-13.85,7.28,2.6,11.07,10.62,8.47,17.9-2.6,7.27-10.59,11.06-17.86,8.48h0c-.68-.24-68.81-23.52-138.6,12.37-38.57,19.84-57.66,56.94-58.41,75.77-.33,8.13,1.97,14.75,6.47,18.63,3.65,3.15,8.62,4.33,13.99,3.31,10.89-2.06,15.65-6.39,24.29-14.26,10.74-9.77,25.44-23.16,57.77-35.24,62.93-23.52,125.5,20.66,142.46,37.99,5.41,5.53,5.31,14.39-.22,19.8-5.53,5.41-14.39,5.31-19.8-.22-11.11-11.36-62.81-49.97-112.64-31.35-27.27,10.19-38.67,20.56-48.72,29.72-9.91,9.02-19.26,17.54-37.94,21.07-2.96.56-5.92.83-8.84.83Z"/>
  </g>
  <circle class="cls-3" cx="308.78" cy="339.61" r="14.09"/>
  <circle class="cls-3" cx="967.74" cy="208.13" r="14.09"/>
  <circle class="cls-3" cx="997.48" cy="179.17" r="14.09"/>
  <circle class="cls-3" cx="970.09" cy="498.48" r="14.09"/>
  <circle class="cls-3" cx="1002.96" cy="473.17" r="14.09"/>
  <circle class="cls-3" cx="270.83" cy="359.96" r="14.09"/>
  <g>
    <path class="cls-7" d="m856.19,337.98s49.64,24.46,99.97-2.32c5.37-2.85,14.55-9.24,21.64-23.39,9.53-19.01,23.46-29.59,46.52-15.12,34.04,21.36,23.84,78.7-25.97,116.39-57.25,43.31-150.94,33.55-225.09-35.15"/>
    <path class="cls-2" d="m1035.56,341.72s-32.84,55.13-93.53,59.45c-60.69,4.31-142.73-58.73-142.73-58.73,0,0-15.11,39.52-8.59,54.83s155.58,83.24,219.6-.13"/>
    <path class="cls-3" d="m861.72,326.77c29.43,8.88,58.42,11.64,86.55-2.93,7.48-3.52,13.07-10.34,16.84-17.86,3.39-6.71,7.39-13.12,13.11-18.67,15.18-14.84,35.29-13.66,52.48-2.96,24.42,14.45,31.91,42.42,25.9,68.86-8.43,36.7-36.66,66.85-69.09,84.05-62.36,32.07-139.04,14.31-194.07-24.66-10.4-7.31-20.5-15.22-28.66-25.03-9.08-11.28,4.29-26.25,16.47-18.68,4.83,3.19,9.84,7.01,14.44,10.53,30.78,24.41,67.95,42.27,107.37,45.47,31.01,2.69,63.38-4.42,88.03-23.9,17.39-13.56,32.54-32.6,37.46-53.96,2.08-9.01,2-19.52-2.31-27.65-1.68-3-3.76-5.72-6.47-7.9-3.04-2.57-7.34-4.91-10.91-6.07-2.54-.8-5.11-1.17-7.51-.06-4.99,2.5-8.21,8.22-10.92,13.36-6.75,13.5-17.43,25.06-31.57,31.39-21.33,10.49-46.09,14.03-69.48,11.17-13.49-1.65-26.85-5.3-38.71-12.07-3.22-1.75-3.94-6.27-1.43-8.94,0,0,12.48-13.48,12.48-13.48h0Z"/>
  </g>
  <circle class="cls-7" cx="695" cy="295.48" r="216.39"/>
  <path class="cls-2" d="m740.71,82.96c78.48,34.74,133.51,115.79,133.51,210.23,0,52.75-17.18,101.31-46.01,139.97,2.03,2.84,2.66,6.65,1.9,10.09h27.65c36.18-38.68,58.34-90.65,58.34-147.79,0-105.49-75.48-193.35-175.38-212.51Z"/>
  <path class="cls-3" d="m695,526.87c-61.81,0-119.91-24.07-163.62-67.77s-67.77-101.81-67.77-163.62,24.07-119.91,67.77-163.62,101.81-67.77,163.62-67.77,119.91,24.07,163.62,67.77,67.77,101.81,67.77,163.62-24.07,119.91-67.77,163.62-101.81,67.77-163.62,67.77Zm0-432.78c-111.05,0-201.39,90.34-201.39,201.39s90.34,201.39,201.39,201.39,201.39-90.34,201.39-201.39-90.34-201.39-201.39-201.39Z"/>
  <circle class="cls-3" cx="593.26" cy="315.7" r="44.61"/>
  <g>
    <circle class="cls-3" cx="594.3" cy="192.57" r="23.61"/>
    <circle class="cls-3" cx="644.91" cy="149.26" r="21.78"/>
    <circle class="cls-3" cx="670.02" cy="198.89" r="15.91"/>
    <circle class="cls-3" cx="702.57" cy="127.74" r="13.17"/>
  </g>
  <circle class="cls-1" cx="589.54" cy="305.91" r="15.46"/>
  <circle class="cls-3" cx="796.74" cy="315.7" r="44.61"/>
  <circle class="cls-1" cx="793.02" cy="305.91" r="15.46"/>
  <path class="cls-3" d="m678.97,338.86c4.48,9.14,16.28,12.35,24.73,7.12,2.81-1.7,5.2-4.4,6.89-7.74,3.01-5.6,9.99-7.69,15.59-4.68,5,2.69,7.2,8.56,5.46,13.77-2.5,7.49-7.59,14.43-14.18,19-13.32,9.51-32.36,9.5-45.68,0-6.59-4.57-11.68-11.51-14.19-19-4.13-13.93,14.9-21.35,21.38-8.47h0Z"/>
  <g>
    <path class="cls-7" d="m852.5,590.2c-18.33-24.07-50.11,10.86-80.02-30.33-7.9-10.87-12.68-22.35-15.49-33.14.06-1.38.1-2.77.1-4.16,0-9.02-1.34-17.66-3.8-25.65,0-2.33.08-24.47.19-26.43h-116.96c.11,1.96.19,24.11.19,26.43-2.46,8-3.8,16.64-3.8,25.65,0,1.4.04,2.78.1,4.16-2.82,10.79-7.6,22.27-15.49,33.14-29.92,41.19-61.7,6.26-80.02,30.33-16.54,21.72.68,73.86,70.63,69.85,53.18-3.05,73.61-35.3,81.02-63.47,1.93.22,3.88.34,5.85.34s3.92-.12,5.85-.34c7.4,28.17,27.84,60.42,81.02,63.47,69.95,4.01,87.17-48.12,70.63-69.85Z"/>
    <path class="cls-2" d="m547.48,638.52s43.43,1.57,81.78-18.78c38.35-20.35,53.22-46.57,53.22-46.57,0,0,.39,42.65-29.35,70.43s-90,11.74-90,11.74"/>
    <path class="cls-3" d="m647.36,475.88c2.53,4.87,3.11,10.33,3.29,15.69.21,5.13.18,10.25-.19,15.37-1.81,26.14-11.4,52.34-29.98,71.43-8.1,8.41-20,15-31.76,16.7-10.09,1.73-20.75.25-29.73.13-3.62,0-5.86.5-7.05,1.13-.63.37-1.21.65-1.85,1.37-2.44,2.5-3.52,5.45-3.88,9.41-.81,13.09,7.89,24.64,19.4,30.94,19.42,10.66,47.99,9.62,68.57,2.6.91-.34,3.14-1.26,4.01-1.58.81-.38,3.02-1.43,3.86-1.82.84-.44,2.89-1.62,3.7-2.04.75-.47,2.75-1.79,3.53-2.27,14.34-9.86,23.13-25.87,26.96-42.67,2.18-8.21,1.96-16.91,4.59-25.05,4.07-12.35,21.63-11.55,24.71.91,2.29,10.15.11,20.48-1.97,30.5-2.34,10.2-5.96,20.15-11.11,29.38-9.11,16.67-23.78,30.39-41.11,38.24-24.82,11.39-58.34,13.56-84.43,5.48-28.23-8.37-51.92-33.86-49.49-65.02,1.9-22.63,18.25-38.96,41.46-38.32,9.39-.01,17.14,1.5,25.28.29,10.3-1.77,16.55-7.76,23.15-17.13,4.46-6.46,7.92-13.55,10.38-21.04,3.76-11.32,5.31-23.73,4.85-35.75-.14-3.74-.69-7.49.12-11.17.03-.11.05-.24.09-.33.04-.07.06-.24.13-.19-2.81-16.29,20.32-21.33,24.45-5.19h0Z"/>
    <path class="cls-2" d="m842.52,638.52s-43.43,1.57-81.78-18.78c-38.35-20.35-53.22-46.57-53.22-46.57,0,0-.39,42.65,29.35,70.43,29.74,27.78,90,11.74,90,11.74"/>
    <path class="cls-3" d="m767.1,481.08c.08-.06.09.11.13.19.04.09.07.22.09.33.81,3.68.26,7.43.12,11.17-.14,4.05-.09,8.13.22,12.17,1.2,15.95,5.94,31.48,15.01,44.62,4.4,6.48,9.42,11.55,14.66,14.32,10.65,5.55,21.37,2.41,33.78,2.52,6.4,0,13.49.92,19.75,4.09,25.67,13.1,26.98,47.78,12.78,69.32-18.2,29.03-55.14,37.34-87.08,34.12-39.83-3.34-71.52-24.15-85.69-62.35-4.31-12.16-7.32-24.88-7.37-37.77.07-2.56.34-5.13.96-7.68,1.67-6.89,8.61-11.13,15.5-9.46,7.8,1.95,9.81,8.65,10.88,15.56.92,6.02,1.44,12.16,2.92,18.05,4.01,17.68,13.63,34.59,29.31,44.18,1.29.9,3.5,2.01,4.88,2.8,1.47.66,3.69,1.8,5.2,2.34,27.68,11.07,79.51,10.5,89.78-23.76,1.79-6.79,1.41-15.75-4.86-19.5-1.19-.63-3.43-1.13-7.05-1.13-9,.12-19.63,1.6-29.73-.13-11.76-1.7-23.65-8.29-31.75-16.7-18.59-19.09-28.17-45.3-29.98-71.43-.37-5.12-.4-10.24-.19-15.37.18-5.36.76-10.83,3.29-15.69,4.06-16.04,27.24-11.21,24.45,5.19h0Z"/>
  </g>
  <polygon class="cls-6" points="730.22 637 992.32 637 970.17 574.39 752.37 574.39 730.22 637"/>
  <path class="cls-3" d="m992.32,651c-5.77,0-11.17-3.59-13.2-9.33l-18.85-53.28h-198.01l-18.85,53.28c-2.58,7.29-10.58,11.11-17.87,8.53-7.29-2.58-11.11-10.58-8.53-17.87l22.15-62.61c1.98-5.59,7.27-9.33,13.2-9.33h217.8c5.93,0,11.22,3.74,13.2,9.33l22.15,62.61c2.58,7.29-1.24,15.29-8.53,17.87-1.54.55-3.12.81-4.67.81Z"/>
  <g>
    <rect class="cls-5" x="1001.59" y="235.25" width="180.78" height="126.14" transform="translate(-23.38 104.98) rotate(-5.45)"/>
    <path class="cls-3" d="m1007.97,380.69c-5.61,0-10.39-4.26-10.94-9.96l-11.97-125.57c-.28-2.9.61-5.8,2.47-8.05,1.86-2.25,4.53-3.67,7.44-3.95l179.97-17.16c2.91-.28,5.8.61,8.05,2.47,2.25,1.86,3.67,4.53,3.95,7.44l11.97,125.57c.28,2.9-.61,5.8-2.47,8.05-1.86,2.25-4.53,3.67-7.44,3.95l-179.97,17.16c-.35.03-.71.05-1.06.05Zm.04-126.67l9.88,103.67,158.07-15.07-9.88-103.67-158.07,15.07Z"/>
    <path class="cls-3" d="m1091.19,305.68c-1.74,0-3.51-.41-5.15-1.29l-95.19-50.56c-5.37-2.85-7.41-9.51-4.56-14.87s9.51-7.4,14.87-4.56l95.19,50.56c5.37,2.85,7.4,9.51,4.55,14.87-1.98,3.72-5.79,5.84-9.72,5.84Z"/>
    <path class="cls-3" d="m1091.88,305.61c-3.21,0-6.4-1.4-8.57-4.1-3.81-4.73-3.07-11.66,1.66-15.47l83.92-67.63c4.73-3.81,11.66-3.07,15.47,1.66,3.81,4.73,3.07,11.66-1.66,15.47l-83.92,67.63c-2.03,1.64-4.47,2.44-6.9,2.44Z"/>
  </g>
  <g>
    <path class="cls-7" d="m467.72,477.78c3.94,6.38,7.37,13.03,10.76,19.71,4.44-2.35,19.21-6.66,23.56-9.18l-10.98-42.81c-10.43,4.04-21.01,11.81-30.07,21.56,2.45,3.51,4.6,7.28,6.73,10.72Z"/>
    <g>
      <rect class="cls-5" x="502.4" y="398.88" width="180.78" height="126.14" transform="translate(-78.31 123.68) rotate(-11.18)"/>
      <path class="cls-3" d="m516.34,552.35c-2.16,0-4.3-.64-6.12-1.86-2.42-1.62-4.1-4.14-4.67-7.01l-24.45-123.75c-1.18-5.96,2.7-11.75,8.66-12.92l177.35-35.05c2.86-.56,5.83.03,8.26,1.65,2.42,1.62,4.1,4.14,4.67,7.01l24.45,123.75c1.18,5.96-2.7,11.75-8.66,12.92l-177.35,35.05c-.71.14-1.42.21-2.13.21Zm-11.53-126.09l20.19,102.17,155.77-30.78-20.19-102.17-155.77,30.78Z"/>
      <path class="cls-3" d="m591.64,469.39c-1.39,0-2.8-.26-4.16-.82l-99.76-40.79c-5.62-2.3-8.32-8.72-6.02-14.34,2.3-5.62,8.72-8.32,14.34-6.02l99.76,40.79c5.62,2.3,8.32,8.72,6.02,14.34-1.74,4.26-5.85,6.84-10.19,6.84Z"/>
      <path class="cls-3" d="m592.31,469.26c-2.84,0-5.68-1.09-7.83-3.28-4.26-4.33-4.22-11.29.11-15.56l76.75-75.67c4.33-4.27,11.29-4.21,15.56.11,4.26,4.33,4.22,11.29-.11,15.56l-76.75,75.67c-2.14,2.11-4.93,3.17-7.72,3.17Z"/>
    </g>
    <path class="cls-7" d="m569.19,490.6c-25.7-30.81-77.45,3.57-77.45,3.57l-.05-3.24c-5.01-.09-9.41-3.58-11.04-8.49-2.98-8.98-5-18.35-5.84-27.8-34.38,25.31-60.36,83.04-11.84,105.91,35.74,16.85,139.88-29.6,106.21-69.96Z"/>
    <path class="cls-2" d="m437.91,525.48s16.83,21.13,54.78,15.26,76.7-40.7,76.7-40.7c0,0-14.48,35.61-34.43,45.78-19.96,10.17-82.17,12.13-82.17,12.13"/>
    <path class="cls-3" d="m482.04,578.1c-8.68,0-17.42-1.3-25.03-4.88-23.22-10.95-35.54-30.19-34.69-54.19,1.33-37.55,34-75.08,63.69-86.59,7.2-2.79,15.32.79,18.11,8s-.79,15.32-8,18.11c-20.46,7.93-44.94,36.51-45.82,61.47-.45,12.63,5.65,21.75,18.65,27.88,6.9,3.25,23.22,3.46,44.1-3.43,19.37-6.39,36.37-16.79,44.37-27.15,7.02-9.08,4.21-13.92,1.02-17.75-17.05-20.44-58.56,6.01-58.97,6.28-6.45,4.25-15.13,2.48-19.39-3.96-4.26-6.44-2.51-15.1,3.92-19.38.6-.4,14.91-9.83,32.89-15.11,26.51-7.79,48.9-2.74,63.06,14.23,13.34,16,13.21,35.24-.37,52.81-11.41,14.76-33,28.45-57.76,36.61-7.96,2.63-23.76,7.05-39.78,7.05Z"/>
  </g>
  <g>
    <path class="cls-7" d="m760.43,475.79s68.43-35.49,72.26-34.98,62.81,74.3,62.81,74.3l-29.11,36-69.7-22.21-25.79-30.89"/>
    <path class="cls-2" d="m764.77,471.96s32.31,30.13,52.09,37.02c16.85,5.87,39.32,7.91,42.13,11.23,2.81,3.32-10.72,10.72-10.72,10.72,0,0-48.26-6.64-52.85-9.96s-25.02-21.19-25.02-21.19"/>
    <path class="cls-3" d="m764.65,470.27c.25.12.61.73.79.96,0,0,.89,1.3.89,1.3.91,1.39,2.69,4.16,3.57,5.56,10.7,17.9,25.88,32.86,42.71,45.13,1.95,1.56,6.67,4.53,8.77,5.96,1.74,1.21,4.18,2.68,6.02,3.74,1.96,1.15,7.19,4.36,9.25,5.31,2.53,1.29,7.7,4.01,10.22,5.34,6.84,3.6,9.47,12.06,5.87,18.9s-12.05,9.48-18.89,5.88c-4.73-2.48-9.5-4.9-14.15-7.53-2.39-1.43-8.04-4.89-10.31-6.27-3.86-2.62-9.49-6.47-13.17-9.35-19.42-14.9-36.72-33.35-48.07-55.25-1.98-4-3.52-8.3-4.37-12.73-1.91-8.66,7.92-15.38,15.26-10.57,0,0,5.61,3.61,5.61,3.61h0Z"/>
    <g>
      <rect class="cls-5" x="748.31" y="572.28" width="180.78" height="126.14" transform="translate(1699.57 30.38) rotate(107.76)"/>
      <path class="cls-3" d="m871.2,751.67c-1.13,0-2.26-.17-3.35-.52l-120.13-38.47c-5.79-1.85-8.97-8.04-7.12-13.83l55.14-172.17c1.85-5.79,8.05-8.97,13.83-7.12l120.13,38.47c2.78.89,5.09,2.85,6.43,5.44,1.33,2.59,1.58,5.61.7,8.39l-55.14,172.17c-.89,2.78-2.85,5.09-5.44,6.43-1.57.81-3.3,1.22-5.04,1.22Zm-106.3-56.59l99.18,31.76,48.43-151.22-99.18-31.76-48.43,151.22Z"/>
      <path class="cls-3" d="m842.37,647.07c-3.22,0-6.4-1.4-8.58-4.1-3.81-4.73-3.06-11.66,1.67-15.47l83.97-67.57c4.74-3.81,11.66-3.06,15.47,1.67,3.81,4.73,3.06,11.66-1.67,15.47l-83.97,67.57c-2.03,1.63-4.47,2.43-6.89,2.43Z"/>
      <path class="cls-3" d="m871.25,751.49c-4.81,0-9.22-3.18-10.59-8.03l-29.1-103.78c-1.64-5.85,1.77-11.92,7.62-13.56,5.85-1.64,11.92,1.77,13.56,7.62l29.1,103.78c1.64,5.85-1.77,11.92-7.62,13.56-.99.28-1.99.41-2.98.41Z"/>
    </g>
    <path class="cls-7" d="m833.19,438.52s15.32,35.35,38.13,42.61c22.81,7.26,64.34,14.91,56.85,67.65s-82.72,37.45-73.53-22.17"/>
    <path class="cls-3" d="m843.28,434.14c8.92,12.46,18.14,31.08,33.62,35.27,21.9,6.04,45.28,13.82,57.57,35.09,6.93,11.92,8.87,25.87,7.89,39.09-.79,11.57-3.33,22.4-10.53,32.42-21.71,29.35-65.72,22.49-83.43-7.55-8.05-13.19-9.87-29.29-7.6-43.99,1.12-7.65,8.23-12.94,15.88-11.82,7.73,1.12,13.04,8.39,11.79,16.09-2.93,17.53,4.77,35.2,22.64,38.08,6.93,1.07,14.39-1.18,18.63-7.1,2.56-3.31,4.33-8.57,5.01-13.38.93-6.84,1.17-13.8-.42-20.51-4.49-20.46-27.17-26.32-45-31.88-10-2.75-19.45-9.89-25.78-16.88-9.2-10.15-16.47-21.22-20.46-34.19-3.24-10.91,10.13-18.82,18.12-10.85,0,0,2.07,2.1,2.07,2.1h0Z"/>
  </g>
  <polyline class="cls-4" points="730.22 637 748.68 843.9 973.86 843.9 992.32 637"/>
  <path class="cls-3" d="m973.86,857.9h-225.19c-7.25,0-13.3-5.54-13.94-12.76l-18.46-206.89c-.35-3.91.96-7.79,3.61-10.69s6.4-4.55,10.33-4.55h262.1c3.93,0,7.68,1.65,10.33,4.55s3.96,6.78,3.61,10.69l-18.46,206.89c-.64,7.22-6.69,12.76-13.94,12.76Zm-212.38-28h199.57l15.96-178.89h-231.49l15.96,178.89Z"/>
  <polygon class="cls-6" points="660.42 637 398.32 637 420.47 574.39 638.27 574.39 660.42 637"/>
  <path class="cls-3" d="m660.42,651c-5.77,0-11.17-3.59-13.2-9.33l-18.85-53.28h-198.01l-18.85,53.28c-2.58,7.29-10.58,11.11-17.87,8.53-7.29-2.58-11.11-10.58-8.53-17.87l22.15-62.61c1.98-5.59,7.27-9.33,13.2-9.33h217.8c5.93,0,11.22,3.74,13.2,9.33l22.15,62.61c2.58,7.29-1.24,15.29-8.53,17.87-1.54.55-3.12.81-4.67.81Z"/>
  <polyline class="cls-4" points="660.42 637 641.96 843.9 416.78 843.9 398.32 637"/>
  <path class="cls-3" d="m641.96,857.9h-225.19c-7.25,0-13.3-5.54-13.94-12.76l-18.46-206.89c-.35-3.91.96-7.79,3.61-10.69s6.4-4.55,10.33-4.55h262.1c3.93,0,7.68,1.65,10.33,4.55s3.96,6.78,3.61,10.69l-18.46,206.89c-.64,7.22-6.69,12.76-13.94,12.76Zm-212.38-28h199.57l15.96-178.89h-231.49l15.96,178.89Z"/>
  <g>
    <path class="cls-3" d="m219.34,659.27l-6.82,3.02c-1.09-5.2-3.16-8.09-6.19-8.61-3.22-.56-4.75,1.09-4.58,4.92.07,1.52.42,2.85,1.06,4,.64,1.15,2.02,2.29,4.15,3.43,3.55,1.91,6.16,3.66,7.82,5.25s3.08,3.92,4.26,6.97c1.17,3.04,1.8,6.28,1.87,9.73.12,5.35-.94,9.71-3.16,13.09-2.19,3.35-5.52,4.59-10,3.74-3.35-.63-6.26-2.49-8.75-5.6-2.5-3.12-4.27-7.43-5.33-12.95l7.06-1.59c1.07,5.66,3.44,8.81,7.12,9.49,1.78.33,3.09-.03,3.92-1.08s1.23-2.43,1.18-4.14c-.06-1.74-.5-3.17-1.34-4.28-.84-1.11-2.42-2.3-4.76-3.58-4.36-2.37-7.52-5.11-9.48-8.22-1.98-3.13-3.12-7.43-3.41-12.93-.3-5.64.56-10.26,2.6-13.84,2.07-3.61,5.07-5.1,8.98-4.44,6.95,1.18,11.56,7.12,13.78,17.61Z"/>
    <path class="cls-3" d="m242.58,649l10.21,63.42-8.44-1.59-2.01-12.29-10.93-2.02-1.97,11.51-6.8-1.28,10.19-59.41,9.75,1.67Zm-9.35,36.89l7.26,1.32-3.65-22.4-3.61,21.08Z"/>
    <path class="cls-3" d="m283.16,669l-16.91-2.95-.47,14.18,13.12,2.34-.57,11.46-12.93-2.35-.77,22.96-8.21-1.54,1.4-61.49,26.05,4.45-.7,12.95Z"/>
    <path class="cls-3" d="m313.74,673.85l-17.5-3.05-.92,13.03,13.52,2.41-1.01,11.61-13.33-2.41-.92,13.04,16.68,3.08-1.05,11.46-24.6-4.62,3.66-61.59,26.6,4.54-1.15,12.5Z"/>
  </g>
  <g>
    <path class="cls-3" d="m1083.03,675.97l-3.87,5.35c-.98-5.16-2.4-7.58-4.24-7.19-1.97.42-2.78,2.67-2.42,6.69.14,1.59.44,2.89.9,3.9.46,1.01,1.36,1.78,2.7,2.3,2.23.88,3.88,1.89,4.96,3.02,1.08,1.13,2.05,3.11,2.93,5.91.87,2.77,1.42,5.92,1.66,9.43.38,5.42,0,10.18-1.08,14.31-1.08,4.07-2.93,6.38-5.58,6.96-1.99.44-3.8-.5-5.45-2.84-1.67-2.36-3-6.18-3.99-11.5l4.07-3.9c.99,5.47,2.58,7.92,4.78,7.44,1.06-.23,1.8-1.02,2.22-2.35.43-1.34.57-2.88.44-4.6-.14-1.77-.49-3.09-1.04-3.96-.56-.88-1.57-1.6-3.02-2.17-2.72-1.06-4.78-2.9-6.15-5.52-1.39-2.64-2.37-6.8-2.92-12.52-.58-5.91-.38-11.13.61-15.63,1-4.56,2.72-7.13,5.13-7.64,4.27-.91,7.41,4.03,9.37,14.52Z"/>
    <path class="cls-3" d="m1102.91,656.34l1.44,41.29c.21,6.15.14,10.68-.2,13.68-.34,2.97-1.08,5.49-2.21,7.56-1.12,2.06-2.6,3.29-4.46,3.7-1.86.41-3.38-.07-4.57-1.43-1.2-1.38-2.17-3.52-2.92-6.44-.75-2.95-1.32-7.45-1.71-13.57l-2.63-41.12,5.5-1.17,2.25,41.17c.18,3.29.4,5.67.66,7.16.26,1.48.68,2.6,1.27,3.37.58.76,1.26,1.06,2.04.89.87-.19,1.55-.78,2.05-1.76.51-.99.82-2.23.94-3.71.12-1.5.1-3.97-.04-7.44l-1.74-41.24,4.33-.92Z"/>
    <path class="cls-3" d="m1112.87,696.14l.43,22.06-4.59,1.01-1.8-63.72,8.49-1.81c1.89-.4,3.34-.04,4.35,1.09,1.01,1.12,1.9,3.29,2.69,6.5.78,3.17,1.17,7.13,1.17,11.85,0,3.27-.2,6.46-.59,9.59-.39,3.09-.94,5.56-1.66,7.41-.71,1.84-1.39,3.1-2.06,3.79-.67.69-1.71,1.19-3.14,1.5l-3.3.72Zm-.39-11.42l3.11-.67c1.19-.26,2.01-1.3,2.47-3.15.46-1.86.69-3.93.67-6.22-.02-2.7-.32-4.81-.88-6.32-.57-1.51-1.41-2.15-2.53-1.91l-3.19.68.35,17.59Z"/>
    <path class="cls-3" d="m1130.98,692.19l-.28,22.17-4.57,1.01.26-64.02,8.44-1.8c1.88-.4,3.3-.03,4.27,1.1.96,1.13,1.78,3.31,2.45,6.53.67,3.19.92,7.17.78,11.91-.1,3.28-.4,6.49-.89,9.63-.49,3.11-1.11,5.58-1.87,7.44-.76,1.85-1.48,3.11-2.16,3.81s-1.73,1.19-3.15,1.5l-3.29.72Zm-.02-11.48l3.1-.67c1.18-.26,2.03-1.31,2.54-3.16.52-1.86.81-3.95.86-6.25.06-2.72-.16-4.84-.67-6.35-.51-1.52-1.33-2.16-2.44-1.92l-3.18.68-.21,17.67Z"/>
    <path class="cls-3" d="m1149.02,686.71l-1.04,23.83-4.5.99,2.3-64.32,9.37-1.99c1.73-.37,3.07.02,4.04,1.14.96,1.12,1.67,3.39,2.13,6.78.46,3.35.55,7.12.28,11.29-.51,7.98-2.02,13.82-4.54,17.66l1.98,26-4.93,1.09-1.74-23.21-3.34.73Zm1.23-28.01l-.75,17.1,2.91-.63c.95-.21,1.65-.57,2.11-1.09.45-.52.89-1.57,1.31-3.14.42-1.58.69-3.35.79-5.31.1-1.88.02-3.53-.24-4.96-.26-1.43-.59-2.28-.98-2.55-.39-.27-1.14-.28-2.26-.04l-2.89.62Z"/>
    <path class="cls-3" d="m1180.63,653.04l-9.87,2.12-1.08,13.86,7.58-1.64-1.1,12.2-7.43,1.62-1.05,13.5,9.22-2.02-1.1,11.73-13.56,2.99,4.49-64.63,15.14-3.22-1.26,13.5Z"/>
    <path class="cls-3" d="m1197.56,651.39l-4.62,5.45c.07-5.31-.79-7.81-2.59-7.43-1.92.41-3.09,2.71-3.52,6.84-.17,1.63-.14,2.97.1,4.01.23,1.04.93,1.84,2.07,2.39,1.91.93,3.26,1.98,4.05,3.16.79,1.18,1.32,3.22,1.6,6.1.28,2.86.2,6.1-.25,9.72-.68,5.58-1.93,10.47-3.73,14.7-1.78,4.17-3.94,6.52-6.52,7.09-1.94.43-3.45-.56-4.54-2.99-1.1-2.45-1.62-6.39-1.53-11.88l4.53-3.96c-.11,5.63.9,8.17,3.04,7.7,1.03-.23,1.87-1.02,2.52-2.39.65-1.38,1.08-2.95,1.28-4.72.21-1.82.14-3.18-.22-4.09-.36-.91-1.15-1.67-2.4-2.27-2.34-1.13-3.9-3.04-4.68-5.74-.79-2.73-.91-7.01-.34-12.9.59-6.07,1.76-11.43,3.54-16.04,1.8-4.67,3.88-7.28,6.23-7.78,4.14-.88,6.13,4.22,5.97,15.01Z"/>
    <path class="cls-3" d="m1215.41,647.55l-4.73,5.46c.23-5.33-.54-7.85-2.33-7.47-1.91.41-3.14,2.71-3.69,6.86-.22,1.64-.23,2.98-.03,4.03.2,1.05.86,1.85,1.98,2.41,1.86.93,3.16,2,3.91,3.19.74,1.18,1.21,3.23,1.4,6.13.19,2.87,0,6.13-.54,9.76-.84,5.61-2.22,10.51-4.13,14.76-1.88,4.19-4.1,6.55-6.67,7.11-1.93.43-3.39-.57-4.4-3.01-1.02-2.47-1.4-6.42-1.15-11.93l4.6-3.97c-.28,5.66.64,8.21,2.77,7.75,1.03-.23,1.88-1.02,2.57-2.4.69-1.38,1.16-2.96,1.41-4.74.26-1.82.23-3.2-.09-4.11-.32-.91-1.09-1.68-2.31-2.28-2.28-1.14-3.76-3.06-4.46-5.78-.7-2.75-.69-7.04.06-12.96.77-6.1,2.09-11.48,3.99-16.1,1.92-4.69,4.06-7.3,6.39-7.8,4.12-.88,5.93,4.25,5.44,15.08Z"/>
  </g>
  <g>
    <g>
      <path class="cls-3" d="m831.98,686.67l1.51,49.22h-8l-.78-19.68h-11.09l1.01,19.68h-8l-2.95-49.22h8.43l1.01,19.8h11.2l-.78-19.8h8.43Z"/>
      <path class="cls-3" d="m847.9,686.67l.71,49.22h-8.13l-1.14-49.22h8.56Z"/>
      <path class="cls-3" d="m883.26,710.2l-.58,25.68h-3.72c-.24-1.76-.59-3.56-1.07-5.41-2.56,4.09-5.74,6.12-9.58,6.12-4.53,0-8.07-2.18-10.61-6.57-2.57-4.44-3.9-10.23-3.96-17.45-.07-7.88,1.28-14.32,4.06-19.24,2.81-4.97,6.66-7.47,11.53-7.47,4.08,0,7.35,1.62,9.8,4.85,2.43,3.2,3.85,7.44,4.28,12.68l-8.04,1.47c-.57-6.08-2.61-9.16-6.12-9.16-2.3,0-4.05,1.46-5.24,4.36-1.18,2.89-1.76,6.97-1.77,12.24,0,5.01.62,8.81,1.85,11.42,1.23,2.59,2.98,3.88,5.26,3.88,1.47,0,2.8-.65,3.97-1.96,1.18-1.31,1.79-3.41,1.83-6.31h-6.67l.07-9.13h14.69Z"/>
      <path class="cls-3" d="m918.85,686.67l-2.89,49.22h-8l.99-19.68h-11.09l-.75,19.68h-8l1.46-49.22h8.43l-.76,19.8h11.2l.99-19.8h8.43Z"/>
    </g>
    <g>
      <path class="cls-3" d="m818.6,774.82l.82,16.66h-7.71l-2.51-43.31h15.09c2.78,0,5.03.43,6.74,1.28s3.15,2.41,4.32,4.67c1.16,2.25,1.78,4.74,1.85,7.46.14,5.27-1.69,9.01-5.49,11.27l6.67,18.63h-8.46l-5.73-16.66h-5.59Zm-.91-18.63l.55,11.25h4.82c1.57,0,2.71-.14,3.42-.43.7-.29,1.31-.93,1.84-1.92.52-1,.76-2.14.71-3.43s-.37-2.33-.97-3.31c-.6-.98-1.24-1.58-1.91-1.81s-1.92-.34-3.75-.34h-4.71Z"/>
      <path class="cls-3" d="m851.06,748.17l.51,43.31h-7.64l-.89-43.31h8.02Z"/>
      <path class="cls-3" d="m881.44,758.06l-6.81,2.96c-.86-3.51-2.77-5.28-5.72-5.28-3.15,0-4.73,1.34-4.74,4.01,0,1.06.29,1.96.87,2.69.58.73,1.9,1.37,3.95,1.9,3.43.9,5.92,1.81,7.5,2.73,1.57.91,2.88,2.38,3.93,4.4,1.04,2.01,1.53,4.24,1.47,6.7-.09,3.82-1.31,7.11-3.65,9.86-2.33,2.73-5.72,4.09-10.18,4.09-3.35,0-6.2-.96-8.55-2.89s-3.95-4.83-4.73-8.7l7.18-2.08c.8,3.95,3.04,5.91,6.7,5.91,1.77,0,3.09-.44,3.97-1.31s1.33-1.92,1.35-3.14c.02-1.24-.37-2.21-1.15-2.9-.79-.69-2.31-1.34-4.58-1.94-4.24-1.13-7.26-2.68-9.08-4.65-1.82-1.98-2.75-4.89-2.77-8.76-.02-3.94,1.06-7.29,3.25-10.04,2.21-2.76,5.22-4.15,9.03-4.15,6.74,0,11,3.56,12.76,10.59Z"/>
      <path class="cls-3" d="m895.74,748.17l-.78,20.88,11.54-20.88h7.69l-9.02,15.95,8.48,27.36h-8.43l-5.74-18.29-5.01,8.73-.36,9.56h-7.52l1.24-43.31h7.89Z"/>
    </g>
  </g>
  <g>
    <g>
      <path class="cls-3" d="m525.96,691.13l.02,7.92h-7.45l.21,31.39h-7.01l-.34-31.39h-7.5l-.12-7.92h22.19Z"/>
      <path class="cls-3" d="m540.1,731.03c-3.98,0-7.05-1.94-9.22-5.84-2.19-3.92-3.29-8.68-3.29-14.31,0-5.76,1.11-10.6,3.36-14.49,2.26-3.91,5.48-5.88,9.66-5.88s7.38,2.1,9.48,6.27c2.08,4.16,3.09,8.89,3.01,14.18-.08,5.68-1.23,10.44-3.45,14.3-2.21,3.84-5.39,5.75-9.53,5.75Zm.4-32.85c-3.7,0-5.56,4.3-5.59,12.82-.03,8.46,1.78,12.66,5.43,12.66s5.33-4.19,5.41-12.63c.08-8.55-1.67-12.85-5.25-12.85Z"/>
    </g>
    <g>
      <path class="cls-3" d="m454.22,779.96l-8.61-30.03,1.53,30.03h-5.63l-2.02-36.98h10.69l6.15,22.33,4.41-22.33h10.73l1.3,36.98h-6.76l-1.18-30.03-6.02,30.03h-4.6Z"/>
      <path class="cls-3" d="m489.27,780.52c-3.86,0-6.9-1.83-9.12-5.5-2.24-3.69-3.44-8.17-3.62-13.46-.18-5.42.76-9.97,2.83-13.63,2.07-3.68,5.14-5.53,9.19-5.53s7.22,1.97,9.38,5.9c2.15,3.91,3.26,8.36,3.34,13.34.09,5.35-.88,9.83-2.92,13.46-2.03,3.62-5.05,5.42-9.08,5.42Zm-.58-30.91c-3.59,0-5.26,4.04-5.04,12.06.22,7.96,2.1,11.91,5.64,11.91s5.05-3.94,4.87-11.89c-.18-8.04-2-12.09-5.47-12.09Z"/>
      <path class="cls-3" d="m527.98,742.98l.04,36.98h-5.73l-11.5-24.8c.02.64.04,1.06.06,1.26.06.64.1,1.17.1,1.61l.25,21.93h-5.23l-.55-36.98h7.4l10.07,22.01c-.09-1.08-.14-1.9-.14-2.46l-.08-19.55h5.3Z"/>
      <path class="cls-3" d="m540.71,742.98l-.24,36.98h-6.7l.09-36.98h6.85Z"/>
      <path class="cls-3" d="m565.17,742.98l-.16,7.45h-7.23l-.5,29.53h-6.8l.38-29.53h-7.27l.06-7.45h21.52Z"/>
      <path class="cls-3" d="m578,780.52c-3.86,0-6.8-1.83-8.82-5.5-2.03-3.69-2.99-8.17-2.88-13.46s1.31-9.97,3.58-13.63c2.28-3.68,5.44-5.53,9.49-5.53s7.11,1.97,9.05,5.9c1.93,3.91,2.8,8.36,2.61,13.34-.2,5.35-1.42,9.83-3.66,13.46-2.23,3.62-5.35,5.42-9.38,5.42Zm1.11-30.91c-3.59,0-5.49,4.04-5.7,12.06-.21,7.96,1.45,11.91,4.98,11.91s5.26-3.94,5.53-11.89c.27-8.04-1.34-12.09-4.81-12.09Z"/>
      <path class="cls-3" d="m602.14,765.51l-.64,14.46h-6.76l1.48-36.98h12.88c2.38,0,4.27.36,5.67,1.07,1.4.71,2.52,2.01,3.36,3.9.84,1.89,1.2,3.98,1.07,6.28-.24,4.47-2.09,7.66-5.55,9.59l4.46,16.14h-7.42l-3.72-14.46h-4.85Zm.7-15.82l-.42,9.51h4.17c1.36,0,2.36-.12,2.98-.37.63-.24,1.21-.79,1.73-1.63.52-.84.81-1.81.87-2.91s-.14-1.97-.59-2.79c-.44-.82-.95-1.33-1.51-1.52s-1.63-.29-3.19-.29h-4.04Z"/>
    </g>
  </g>
</svg>