<?xml version="1.0" encoding="UTF-8"?>
<svg id="Delphi" xmlns="http://www.w3.org/2000/svg" viewBox="0 0 910 800">
  <defs>
    <style>
      .cls-1 {
        fill: #fff;
      }

      .cls-2 {
        fill: #d1f0e8;
      }

      .cls-3 {
        fill: #182d33;
      }

      .cls-4 {
        fill: #f28e37;
      }

      .cls-5 {
        fill: #f8efe7;
      }

      .cls-6 {
        fill: #0d9488;
      }
    </style>
  </defs>
  <g>
    <path class="cls-6" d="m491.26,596.91s-133.83,26.61-225.39-52.43l23.48-85.3s86.09,25.83,185.48,1.57"/>
    <path class="cls-2" d="m330.57,540.3s41.33,28.35,136.49,24.87c0,0,1.25,30.95-20.14,34.09s-121.04-3.65-139.83-39.13"/>
    <path class="cls-3" d="m437.81,616.22c-8.09,0-16.8-.27-25.99-.93-62-4.46-115.86-25.02-155.76-59.46-4.38-3.78-6.2-9.75-4.66-15.33l23.48-85.3c1.07-3.89,3.67-7.19,7.2-9.14s7.71-2.4,11.57-1.24c.81.24,83.66,24.3,177.61,1.36,8.05-1.96,16.17,2.97,18.13,11.02s-2.97,16.16-11.02,18.13c-78.77,19.23-148.81,8.41-178.45,1.94l-17.01,61.81c84.78,66.13,204.19,43.38,205.42,43.13,8.12-1.62,16.02,3.66,17.64,11.79s-3.66,16.02-11.79,17.64c-1.16.23-23.6,4.6-56.37,4.6Z"/>
  </g>
  <g>
    <path class="cls-5" d="m57.3,162.17l257.09-34.04s3.52,173.74,96.26,399.13c0,0-228.91,59.87-271.57,56.35,0,0-46.96-155.74-81.78-421.43Z"/>
    <path class="cls-3" d="m142.82,594.74c-1.71,0-3.26-.05-4.64-.17-4.5-.37-8.32-3.46-9.63-7.79-.47-1.57-47.61-159.65-82.16-423.18-.79-6.02,3.45-11.54,9.46-12.33l257.09-34.04c3.11-.41,6.24.52,8.61,2.56,2.38,2.04,3.77,4.99,3.83,8.12,0,.43,1.04,43.83,13.29,113.95,11.3,64.67,34.72,165.95,82.14,281.22,1.21,2.94,1.09,6.25-.33,9.09-1.42,2.84-3.99,4.93-7.06,5.74-22.86,5.98-218.85,56.84-270.61,56.84ZM69.65,171.63c29.81,222.68,68.18,367,77.74,401.04,43.21-2.07,182.23-35.9,248.34-52.91-45.11-112.5-67.73-211.02-78.83-274.7-8.77-50.33-11.87-86.67-12.95-104.45l-234.3,31.03Z"/>
  </g>
  <g>
    <path class="cls-6" d="m396.96,198.26c-.35.36-.7.71-1.05,1.07-1.06,8.77-5.52,16.78-10.61,23.94-2.7,3.81-5.61,7.48-8.3,11.3-2.61,3.72-4.69,7.74-7.41,11.38-5.34,7.14-11.41,13.75-17.25,20.53,14.85,20.14,36.76,53.65,40.83,80.77l78.52-46.96s-26.27-71.2-74.73-102.05Z"/>
    <path class="cls-2" d="m375.43,239.26s48,52.7,51.65,93.39l-26.61,14.61s-21.22-52.28-43.14-81.49"/>
    <path class="cls-3" d="m471.7,315.31c-6.1,0-11.83-3.75-14.07-9.8h0c-.25-.69-26-69.04-70.78-95.89-7.11-4.26-9.41-13.47-5.15-20.58,4.26-7.1,13.47-9.41,20.58-5.15,53.92,32.33,82.31,108.02,83.5,111.22,2.87,7.77-1.11,16.4-8.88,19.26-1.71.63-3.46.93-5.19.93Z"/>
    <path class="cls-3" d="m393.16,362.26c-7.3,0-13.7-5.34-14.82-12.78-5.49-36.62-37.71-72.67-38.03-73.03-5.54-6.15-5.07-15.63,1.07-21.18,6.14-5.55,15.61-5.09,21.17,1.04,1.57,1.73,38.61,43.02,45.46,88.72,1.23,8.19-4.42,15.83-12.61,17.06-.75.11-1.5.17-2.24.17Z"/>
    <g>
      <path class="cls-4" d="m310.64,289.58c-5.52-5.42,3.53-23.16,8.95-28.68l79.64-81.09c5.42-5.52,14.28-5.6,19.8-.18,5.52,5.42,5.6,14.28.18,19.8l-79.64,81.09c-6.22,6.13-27.41,10.56-28.93,9.06Z"/>
      <path class="cls-3" d="m312.31,298.86c-4.5,0-6.46-1.36-7.98-2.86h0c-3.64-3.57-6.88-10.63-1.71-23.98,2.56-6.61,6.8-13.62,10.55-17.43l79.64-81.09c4.3-4.38,10.06-6.83,16.2-6.88.07,0,.14,0,.21,0,6.06,0,11.78,2.34,16.11,6.59,4.38,4.3,6.83,10.06,6.88,16.2s-2.29,11.94-6.59,16.32l-79.74,81.19c-4.88,4.81-13.68,7.92-20.21,9.67-6.07,1.63-10.31,2.26-13.37,2.26Zm96.91-114.24s-.03,0-.05,0c-1.34.01-2.59.54-3.52,1.5l-79.64,81.09c-2.47,2.51-5.49,8.15-7.06,12.54,5.47-1.33,12.2-3.62,14.26-5.6l79.58-81.03c.94-.95,1.44-2.21,1.43-3.55-.01-1.33-.54-2.59-1.5-3.52-.94-.92-2.18-1.43-3.5-1.43Z"/>
    </g>
  </g>
  <g>
    <path class="cls-6" d="m693.46,501.83s52.86,16.37,98.37-17.97c4.85-3.66,12.92-11.41,17.71-26.5,6.43-20.27,18.53-32.9,43.57-22.23,36.97,15.75,35.89,73.99-7.39,119.02-49.74,51.76-143.81,56.81-227.82.59"/>
    <path class="cls-2" d="m871.19,477.39s-23.79,59.6-83.05,73.38c-59.26,13.78-150.17-35.62-150.17-35.62,0,0-8.73,41.4.12,55.5s166.71,57.81,216.86-34.57"/>
    <path class="cls-3" d="m697.15,489.89c31.23,4.24,60.27,2.24,86.21-17.32,4.34-3.37,7.52-7.6,10.06-12.87,2.57-5.41,3.74-11.1,6.48-16.69,3.53-7.59,8.56-14.86,16.08-19.86,12.17-8.44,28.5-7.16,41.41-1.65,6.53,2.62,12.59,6.4,17.76,11.22,10.15,9.48,16.18,22.97,17.99,36.32,5.03,39.9-17.45,78.59-46.54,103.94-59.01,50.31-147.17,43.18-211.95,8.06-5.6-3.01-11.07-6.28-16.25-9.97-2.55-1.9-5.06-3.85-7.46-5.93-5.25-4.55-5.82-12.51-1.27-17.76,3.71-4.28,9.68-5.45,14.6-3.27,2.86,1.25,5.62,2.66,8.32,4.12,1.92,1,5.72,2.95,7.59,4.02,14.91,8.2,30.53,15.43,46.84,20.23,34.42,10.38,72.52,12.04,106.36-.89,17.6-6.62,33.59-17.47,45.91-31.7,13.66-15.65,24.41-35.64,25.79-56.15.64-9.22-1.09-19.59-6.61-26.94-2.13-2.69-4.61-5.06-7.63-6.78-3.4-2.06-8.02-3.7-11.72-4.29-2.63-.39-5.23-.35-7.43,1.12-4.53,3.25-6.82,9.41-8.69,14.91-4.55,14.39-13.28,27.48-26.26,35.96-19.42,13.71-43.32,21.09-66.87,21.93-13.59.48-27.34-1.02-40.12-5.85-3.46-1.23-4.87-5.57-2.82-8.61,0,0,10.21-15.27,10.21-15.27h0Z"/>
  </g>
  <circle class="cls-6" cx="579.79" cy="383.31" r="216.39"/>
  <g>
    <circle class="cls-3" cx="416.32" cy="352.08" r="44.61"/>
    <circle class="cls-1" cx="399.41" cy="342.86" r="15.46"/>
  </g>
  <g>
    <circle class="cls-3" cx="617.51" cy="384.22" r="44.61"/>
    <circle class="cls-1" cx="600.6" cy="375" r="15.46"/>
  </g>
  <path class="cls-2" d="m760.12,413.47c-9.06,56.73-57,114.8-99.45,143.76l28.21,24.81c41.83-32.49,100.21-107.43,109.22-163.86,16.64-104.17-44.03-202.84-139.66-237.52,72.02,46.69,116.57,139.55,101.67,232.8Z"/>
  <path class="cls-3" d="m580.28,614.75c-12.28,0-24.64-.98-37-2.95-61.03-9.75-114.62-42.69-150.88-92.74-36.26-50.05-50.86-111.23-41.11-172.26,9.75-61.03,42.69-114.62,92.74-150.88,50.05-36.26,111.23-50.86,172.26-41.11,61.03,9.75,114.62,42.69,150.88,92.74,36.26,50.05,50.86,111.23,41.11,172.26h0c-9.75,61.03-42.69,114.62-92.74,150.88-39.92,28.92-86.91,44.06-135.26,44.06Zm-.92-432.88c-42.09,0-82.99,13.18-117.73,38.35-43.56,31.56-72.23,78.2-80.71,131.32s4.22,106.37,35.78,149.93c31.56,43.56,78.2,72.23,131.32,80.71,109.66,17.52,213.12-57.44,230.64-167.1l14.81,2.37-14.81-2.37c17.52-109.66-57.44-213.12-167.1-230.64-10.75-1.72-21.52-2.57-32.2-2.57Z"/>
  <g>
    <path class="cls-3" d="m421.9,226.01c-1.33,2.05-2.63,4.12-3.87,6.24-6.48,11.11-12.51,22.61-19.99,33.08,3.37,3.29,7.75,5.61,12.75,6.41,12.88,2.06,24.98-6.71,27.04-19.59,1.86-11.61-5.1-22.59-15.93-26.15Z"/>
    <circle class="cls-3" cx="471.32" cy="213.66" r="21.78"/>
    <circle class="cls-3" cx="488.29" cy="266.63" r="15.91"/>
    <circle class="cls-3" cx="531.65" cy="201.5" r="13.17"/>
  </g>
  <path class="cls-3" d="m497.3,388.48c3.03,9.74,14.08,14.76,23.3,10.93,3.04-1.24,5.83-3.52,8.02-6.56,3.86-5.05,11.08-6.02,16.13-2.16,4.51,3.45,5.76,9.59,3.22,14.46-3.65,7.01-9.77,13.06-17,16.53-14.65,7.29-33.46,4.28-45.11-7.21-5.79-5.55-9.72-13.21-11.01-21-1.88-14.41,18.09-18.73,22.45-4.99h0Z"/>
  <g>
    <path class="cls-6" d="m656.06,547.78s19.36,43.89,62.38,49.94c27.92,3.92,48.89-26.02,69.69-10.28,18.91,14.31,16.13,80.69-59.34,94.98-80.93,15.32-151.71-60.62-150.44-84.87"/>
    <path class="cls-2" d="m784.82,632.03s-37.67,25.28-97.1,12.91c-59.43-12.37-85.02-69.21-97.18-63.79-12.15,5.43,10.58,92.78,104.07,100.21,93.49,7.42,98.8-48.12,98.8-48.12"/>
    <path class="cls-3" d="m667.49,542.74c-.02-.08.03,0,.05.01.03.03.07.07.1.11.24.3.44.55.66.86,0,0,.93,1.26.93,1.26,0,0,1.9,2.61,1.9,2.61,3.76,5.09,7.78,10.75,12.03,15.33,10.22,11.11,22.99,19.04,37.83,20.88,9.3.89,17.52-3.44,26.54-7.44,7.48-3.44,17.41-7.79,27.05-7.77,7.75-.19,15.98,2.69,22.16,7.47,19.26,15.48,18.26,45.98,9.55,66.41-12.83,30.84-43.43,48.42-74.97,54.02-57.52,10.64-116.28-19.12-151.7-63.74-5.27-6.96-10.1-14.82-12.59-23.72-1-3.92-1.66-7.72-1.17-12.15.36-6.89,6.24-12.19,13.14-11.83,6.89.36,12.19,6.24,11.83,13.14.17-.02.32.28.5.72.94,2.13,1.95,4.16,3.34,6.46,27.05,42.64,84.04,73.93,134.62,62.32,24.91-5.14,49.38-20.98,53.75-47.43,1.05-6.78,1.04-16.25-3.49-21.41-2.62-2.14-5.16-2.1-8.62-1.2-8.33,2.35-17.34,7.7-26.7,10.8-8.06,2.91-18.55,4.67-27.7,3.25-20.83-2.73-40.34-14.56-54.03-29.82-7.44-8.16-13.89-17.25-17.46-27.76,0,0-.43-1.3-.43-1.3-2.79-6.32.08-13.7,6.39-16.48,6.32-2.79,13.7.08,16.48,6.39h0Z"/>
  </g>
  <g>
    <path class="cls-6" d="m670.92,682.25c-15.49-25.98-51.01,5.13-76.08-39.18-6.62-11.7-10.07-23.64-11.65-34.68.22-1.36.41-2.74.57-4.12,1.02-8.96.66-17.7-.87-25.92.27-2.31,2.85-24.31,3.18-26.24l-116.22-13.22c-.11,1.96-2.54,23.97-2.8,26.28-3.34,7.67-5.65,16.1-6.67,25.06-.16,1.39-.28,2.77-.37,4.15-4.02,10.41-10.07,21.27-19.14,31.18-34.38,37.54-62.01-.75-82.94,21.09-18.89,19.71-7.67,73.46,62.28,77.38,53.18,2.98,77.13-26.76,87.67-53.9,1.89.43,3.81.77,5.78,1s3.91.32,5.85.32c4.17,28.82,20.83,63.18,73.32,72.22,69.05,11.89,92.05-37.96,78.07-61.42Z"/>
    <path class="cls-2" d="m362.39,695.79s42.98,6.46,83.38-9.42c40.4-15.88,58.14-40.25,58.14-40.25,0,0-4.43,42.42-37.12,66.67-32.69,24.24-90.75,1.49-90.75,1.49"/>
    <path class="cls-3" d="m483.89,540.96c1.24,5.2.97,10.36.27,15.37-.64,5.03-1.51,10.01-2.58,14.94-4.46,20.18-11.66,39.55-24.18,56.59-10.38,13.97-25,26.13-42.92,28.78-10.95,1.87-22.43-.39-32.22-2.11-5.49-.73-8.09-1.29-11.5.19-8.07,5.17-7.59,17.23-4.32,25.4,8.82,21.39,34.52,28.9,56.39,29.73,15.93.73,32.04-1.89,45.29-10.41,13.19-8.39,22.22-21.84,27.56-36.68,3.07-7.77,3.84-16.04,7.12-23.84,4.85-12.62,23.05-10.42,24.84,2.83,1.17,10.58-2.3,20.62-5.54,30.52-10.75,31.49-35.77,56.67-68.96,63.53-41.42,8.42-95.58-1.68-113.56-44.98-9.69-23.26-2.85-54.89,23.16-63.87,7.84-2.65,16.53-2.1,24.11-.81,11.29,1.97,22.48,4.7,31.86-.69,13.39-7.68,21.71-21.65,27.79-35.87,4.81-11.63,8.11-24.32,9.81-36.89.54-4.49,1.15-8.96,2.91-13.28,4.6-11.9,21.67-10.71,24.69,1.57h0Z"/>
    <path class="cls-2" d="m655.54,729.14s-43.33-3.35-79.14-27.91c-35.8-24.55-47.61-52.28-47.61-52.28,0,0-5.21,42.33,21.2,73.3,26.41,30.97,88.1,21.84,88.1,21.84"/>
    <path class="cls-3" d="m596.51,563c.08-.04.08.13.12.21.03.09.05.23.07.34.54,3.77-.27,7.51-.69,11.27-1.36,12.1-.86,24.69,1.78,36.47,3.79,15.95,12.58,37.8,29.14,42.26,7.85,2.2,15.71,1.59,24.95,2.59,6.24.61,13.52,2.45,19.12,6.01,18.34,11.38,22.12,36.03,14.57,54.69-6.22,16.68-20.78,29.9-36.67,36.31-29.06,11.77-64.67,7-92.3-6.16-35.71-17.33-52.69-54.04-52.27-92.44.02-5.11.57-10.24,2.35-15.18,4.56-12.28,22.13-10.74,24.66,1.89,1.66,8.41.49,17.03,1.71,25.45,2.51,23.49,14.51,44.54,36.21,54.83,24.55,11.61,65.82,16.47,84.63-6.89,5.43-6.95,8.36-16.21,5.19-23.9-1.93-4.52-5.56-5.46-10.36-5.97-3.6-.41-8.16-.5-13.22-.86-24.02-1.2-41.27-12.6-52.96-33.59-10.91-19.28-15.79-41.6-15.47-63.51.05-5.1.41-10.18,1-15.25.58-5.04,1.4-10.23,4.03-14.7,2.16-6.91,8.52-11.24,15.76-9.26,6.64,1.87,10.51,8.78,8.64,15.42h0Z"/>
  </g>
  <g>
    <circle class="cls-3" cx="375.23" cy="133.83" r="12.91"/>
    <path class="cls-3" d="m462.18,72.65c2.12,6.19,3.43,12.45,4.25,18.76.45,3.45,3.2,6.12,6.66,6.55.12.01.24.03.36.04,6.09.87,12.17,1.99,18.26,4.17,2.01.73,3.72,2.33,4.5,4.5,1.38,3.87-.63,8.12-4.5,9.5-6.09,2.08-12.25,3.39-18.45,4.21-3.4.45-6.09,3.12-6.52,6.53-.41,3.24-.97,6.46-1.71,9.66-.72,3.04-1.56,6.09-2.83,9.13-.74,1.76-2.16,3.27-4.07,4.07-3.87,1.62-8.31-.2-9.93-4.07-2.41-5.95-3.62-12.03-4.48-18.26,0-.04-.01-.08-.02-.13-.44-3.44-3.1-6.18-6.54-6.63-3.14-.41-6.26-.96-9.36-1.67-3.04-.72-6.09-1.56-9.13-2.83-1.76-.74-3.27-2.16-4.07-4.07-1.62-3.87.2-8.31,4.07-9.93,5.95-2.41,12.03-3.62,18.26-4.48.14-.02.29-.04.43-.06,3.49-.44,6.21-3.18,6.65-6.67,0-.02,0-.04,0-.06.87-6.09,1.99-12.17,4.17-18.26.73-2.01,2.33-3.72,4.5-4.5,3.87-1.38,8.12.63,9.5,4.5Z"/>
  </g>
  <g>
    <path class="cls-6" d="m358.48,164.23c20.46.22,31.37,16.08,30.06,33.5-1.31,17.43-31.86,55.78-65.49,35.45-25.91-15.66-10.64-69.45,35.43-68.95Z"/>
    <path class="cls-3" d="m342.74,251.46c-8.93,0-17.81-2.53-26.15-7.57-15.66-9.47-22.3-29.49-16.52-49.82,6.02-21.15,26.2-42.34,57.78-42.34.26,0,.51,0,.77,0h0c12.47.14,23.61,4.86,31.36,13.31,7.96,8.67,11.98,20.93,11.03,33.63-1.08,14.45-14.77,36.5-34.98,46.92-7.58,3.91-15.46,5.86-23.29,5.86Zm15.11-74.72c-19.81,0-30.55,12.98-33.74,24.18-2.05,7.21-1.87,17.18,5.41,21.58,8.29,5.01,16.49,5.3,25.05.89,12.59-6.49,21.08-20.9,21.51-26.57.44-5.83-1.21-11.25-4.52-14.85-3.12-3.4-7.57-5.15-13.22-5.22-.17,0-.33,0-.5,0Z"/>
  </g>
  <g>
    <g>
      <g>
        <path class="cls-3" d="m160.6,248.85c.76.82,2.02,1.9,3.76,3.25,1.74,1.35,3.27,1.91,4.59,1.69,1.32-.22,1.79-1.34,1.41-3.35-.17-.92-.51-1.69-1.01-2.34-.5-.64-1.34-1.34-2.5-2.09-1.17-.75-2.05-1.35-2.64-1.79-.59-.44-1.42-1.19-2.46-2.24-1.05-1.06-1.91-2.19-2.59-3.41-1.9-3.29-3.35-7.63-4.36-13.03-1.01-5.4-.84-10.12.5-14.17,1.35-4.05,3.67-6.34,6.97-6.87,2.24-.36,4.4-.22,6.47.43,2.07.65,3.28,1.73,3.63,3.25l.1.55c.4,2.15.56,4.92.49,8.3-.07,3.39-.22,5.29-.43,5.7-2.36-1.7-4.33-2.42-5.9-2.16-1.57.26-2.15,1.49-1.74,3.69.25,1.35,1.05,2.45,2.39,3.3.29.21.71.48,1.26.83.55.35,1.18.77,1.89,1.25.71.48,1.5,1.11,2.37,1.88.86.77,1.83,1.83,2.91,3.16,2.21,2.79,3.78,6.68,4.71,11.69,1.21,6.53,1.29,12.02.24,16.47-1.05,4.45-3.47,7.06-7.26,7.82-1.86.31-3.6.29-5.22-.06-1.62-.36-3.15-1.32-4.6-2.91-1.45-1.58-2.41-3.63-2.88-6.13-.47-2.51-.7-5.04-.7-7.59s.19-4.27.57-5.16Z"/>
        <path class="cls-3" d="m192.3,266.77c-2.81.47-4.33.1-4.55-1.12l-11.03-59.39c-.39-2.08-.1-3.21.86-3.36l8.19-1.32c4.58-.74,8.23.6,10.94,4,2.71,3.4,4.72,8.65,6.03,15.73,1.08,5.86,1.11,11.38.1,16.57-.51,2.6-1.55,4.78-3.13,6.55-1.58,1.77-3.6,2.86-6.07,3.27l3.03,16.35c.14.73-.35,1.33-1.46,1.8-1.11.47-2.08.77-2.91.91Zm-4.23-49.1l2.68,14.48.6-.1c1.08-.18,1.87-1,2.36-2.47.49-1.46.51-3.42.06-5.86-.45-2.44-1.03-4.14-1.73-5.1-.7-.95-1.7-1.33-3-1.12l-.97.16Z"/>
        <path class="cls-3" d="m220.06,196.05c.52-.08,1.28,2.58,2.27,7.98.99,5.4,1.22,8.14.7,8.22l-8.44,1.38,1.91,10.43,5.62-.92c.52-.09,1.22,2.23,2.08,6.95s1.05,7.11.56,7.19l-5.66.94,4.03,21.96c.16.85-.32,1.51-1.41,1.97-1.1.47-2.03.76-2.8.89l-2.2.18c-1.57-.11-2.44-.59-2.59-1.44l-11.15-60.52c-.18-.98-.2-1.64-.05-1.97.14-.34.42-.54.82-.6l16.31-2.63Z"/>
      </g>
      <path class="cls-3" d="m122.46,278.22c-3.63-.03-6.87-2.62-7.56-6.28l-9.42-49.59c-.79-4.14,1.95-8.03,6.12-8.71l25.29-4.08c1.99-.32,4.04.16,5.71,1.33,1.67,1.17,2.81,2.94,3.18,4.92l9.27,49.39c.37,1.97-.06,3.98-1.2,5.61-1.14,1.63-2.88,2.73-4.86,3.06l-25.17,4.24c-.45.08-.91.11-1.35.11Zm-.51-50.84l6.54,34.61,10.23-1.71-6.52-34.57-10.26,1.67Z"/>
    </g>
    <g>
      <g>
        <path class="cls-3" d="m185.55,388.82l-10.18-54.36c-.28-1.51-.31-2.75-.09-3.69.22-.95.64-1.47,1.26-1.58l7.73-1.35c4.9-.86,9.07.91,12.51,5.31,3.43,4.39,6.11,11.77,8.04,22.14,4.11,22.15,1.36,34.08-8.27,35.83l-7.88,1.43c-1.57.29-2.61-.96-3.13-3.73Zm1.02-43.58l5.05,27.07c.24,1.27.43,2.05.58,2.37.15.32.46.43.92.35,1.69-.3,2.74-1.77,3.16-4.4.42-2.63.09-6.82-.99-12.58-1.07-5.76-2.23-9.44-3.46-11.03-1.23-1.59-2.84-2.21-4.81-1.87l-.46.08Z"/>
        <path class="cls-3" d="m223.59,384.89c.17.9-1.19,1.61-4.05,2.13l-2.62.2c-1.57.04-2.41-.24-2.53-.84l-11.25-60.62c-.19-1.03,1.25-1.81,4.32-2.35,3.07-.54,4.7-.29,4.89.73l4.28,23.16,1.32-24.14c.06-.88,1.2-1.52,3.44-1.91,4.07-.71,6.34-.39,6.8.96.02.12.03.24.02.37l-2.75,29.77,13.86,23.46c.02.12-.17.68-.59,1.69-.96,2.65-2.25,4.84-3.89,6.56-.5.52-1.04.84-1.62.94l-1.13.02c-1.06-.3-2.05-1.39-2.96-3.27l-8.85-18.69-.73.13,4.01,21.71Z"/>
        <path class="cls-3" d="m243.17,366.66l-5.89-32.07-3.25.57c-.52.09-1.12-1.14-1.81-3.69-.32-1.25-.61-2.53-.85-3.86s-.44-2.63-.58-3.91c-.26-2.63-.13-3.99.38-4.08l15.36-2.69c.52-.09,1.1,1.14,1.76,3.7.35,1.24.65,2.53.89,3.85s.42,2.63.53,3.91c.29,2.62.18,3.97-.34,4.06l-3.06.54,5.87,32.04,3.19-.57c.51-.09,1.11,1.13,1.8,3.66.35,1.23.65,2.51.89,3.83s.41,2.61.52,3.89c.26,2.61.13,3.96-.38,4.05l-15.33,2.79c-.52.09-1.1-1.13-1.76-3.67-.35-1.24-.65-2.51-.89-3.83s-.42-2.62-.53-3.9c-.29-2.61-.18-3.96.34-4.05l3.15-.57Z"/>
        <path class="cls-3" d="m294.19,373.44c-2.68.49-4.12.14-4.34-1.06l-7.45-35.74,1.07,37.37c0,.74-.95,1.28-2.88,1.63-1.93.35-2.98.21-3.16-.44l-12.42-35.84,5.88,35.92c.13.9-.33,1.62-1.39,2.15-1.06.53-1.96.86-2.7,1s-1.48.18-2.2.12c-1.53-.15-2.38-.77-2.54-1.85l-9.63-58.64c-.26-1.44,1.46-2.49,5.16-3.14,1.09-.19,2.46-.26,4.1-.2,1.64.05,2.63.55,2.99,1.47l10.23,27.43-.71-29.19c-.01-1.61,1.93-2.75,5.83-3.44,1.12-.2,2.48-.26,4.1-.2,1.61.06,2.5.51,2.65,1.34l11.92,58.55c.12.66-.38,1.24-1.5,1.75-1.12.51-2.13.85-3.03,1.01Z"/>
      </g>
      <path class="cls-3" d="m145.62,400.3c-1.53,0-3.05-.44-4.33-1.32-1.66-1.12-2.79-2.85-3.16-4.79l-9.29-48.89c-.78-4.08,1.94-7.97,6.06-8.69l25.05-4.38c1.97-.34,4,.1,5.65,1.24,1.65,1.14,2.78,2.87,3.15,4.82l9.14,48.71c.76,4.04-1.93,7.91-6.01,8.65l-24.93,4.53c-.44.08-.89.12-1.33.12Zm-.48-50.25l6.45,34.12,10.13-1.83-6.43-34.09-10.16,1.79Z"/>
    </g>
    <g>
      <g>
        <path class="cls-3" d="m208,508.79l-10.03-53.6c-.28-1.49-.31-2.71-.09-3.65.22-.94.64-1.47,1.25-1.58l7.66-1.44c4.86-.91,8.98.78,12.39,5.08,3.4,4.29,6.05,11.55,7.95,21.78,4.06,21.84,1.32,33.67-8.22,35.54l-7.81,1.52c-1.55.3-2.59-.91-3.1-3.64Zm1.04-43.1l4.98,26.69c.23,1.25.43,2.03.58,2.34.15.31.46.42.91.33,1.67-.32,2.72-1.79,3.13-4.39.41-2.6.09-6.74-.97-12.42s-2.2-9.3-3.42-10.86c-1.22-1.56-2.81-2.15-4.76-1.78l-.46.09Z"/>
        <path class="cls-3" d="m268.55,501.3c-2.68.52-4.13.2-4.34-.99l-7.49-35.4,1.11,37.11c0,.73-.95,1.29-2.88,1.66-1.93.38-2.99.25-3.17-.39l-12.47-35.42,5.93,35.6c.13.89-.33,1.61-1.39,2.16-1.06.54-1.96.89-2.7,1.03s-1.48.2-2.21.15c-1.53-.13-2.38-.73-2.55-1.8l-9.69-58.12c-.27-1.43,1.46-2.49,5.17-3.19,1.09-.21,2.46-.29,4.1-.26,1.64.03,2.64.51,3,1.42l10.27,27.1-.74-28.99c-.01-1.6,1.93-2.76,5.84-3.5,1.12-.21,2.49-.3,4.1-.26,1.62.03,2.5.47,2.65,1.3l11.99,57.99c.12.65-.38,1.24-1.5,1.76-1.12.52-2.13.87-3.03,1.05Z"/>
        <path class="cls-3" d="m299.01,495.45c-2.6.51-4.16-.04-4.66-1.65l-3.56-11.11-7.15,1.38.7,11.22c.15,1.86-1.12,3.06-3.82,3.58-1.44.28-2.54.33-3.29.14-.75-.19-1.14-.37-1.17-.55l-3-61.6c-.09-.47,1.93-1.1,6.06-1.88,4.12-.78,6.22-.93,6.31-.45l18.68,58.55c.07.41-.55.87-1.88,1.37-1.33.5-2.4.83-3.21.99Zm-16.3-22.84l4.73-.91-5.37-17.97-.27.05.92,18.82Z"/>
        <path class="cls-3" d="m315.58,490.75c.17.94-1.16,1.69-3.99,2.24-2.86.56-4.37.4-4.53-.48l-10.46-57.69c-.38-2.07,0-3.21,1.1-3.42l8.58-1.61c7.86-1.48,12.87,3.84,15.05,15.93.66,3.66.9,7.04.72,10.15-.18,3.11-.76,5.67-1.76,7.69l8.95,17.43c.02,1.46-.47,3.22-1.45,5.29-1.33,2.87-2.57,4.42-3.73,4.65-1.16.23-2.17-.43-3.03-1.96l-7.68-18.5-1.39.27,3.62,20.02Zm-8.13-44.97l2.4,13.28.22-.04c2.83-.54,3.83-3.14,2.99-7.8-.38-2.12-.94-3.65-1.68-4.58-.74-.93-1.74-1.27-2.99-1.03l-.94.18Z"/>
        <path class="cls-3" d="m341.15,424.27c1.86.9,2.98,2.38,3.34,4.44s.43,4.68.18,7.86c-.24,3.18-.63,4.82-1.17,4.92-.15.03-.35-.1-.6-.39-.25-.29-.76-.55-1.52-.81-.77-.25-1.4-.33-1.9-.23-1.72.33-2.89,1.8-3.51,4.41-.62,2.61-.49,6.41.4,11.38s2.09,8.55,3.6,10.75c1.51,2.2,3.1,3.14,4.76,2.81.68-.13,1.41-.47,2.18-1.01.78-.54,1.28-1.2,1.51-1.97.04-.13.15-.21.32-.24s.63.56,1.35,1.79c.72,1.23,1.48,2.87,2.28,4.93.8,2.06,1.3,3.67,1.51,4.84.41,2.28-.15,4.27-1.69,5.96-1.53,1.69-3.51,2.78-5.93,3.25-3.91.76-7.61-1.33-11.1-6.3-3.5-4.97-6.15-12.44-7.94-22.4-1.79-9.98-1.9-18.08-.33-24.29,1.58-6.21,4.31-9.69,8.21-10.42,2.17-.41,4.19-.16,6.05.74Z"/>
      </g>
      <path class="cls-3" d="m168.43,520.64c-1.52.03-3.02-.4-4.29-1.24-1.64-1.09-2.76-2.78-3.13-4.7l-9.16-48.21c-.76-4.02,1.93-7.91,6.01-8.67l24.82-4.67c1.95-.36,3.96.05,5.59,1.15,1.63,1.1,2.75,2.8,3.11,4.72l9.01,48.03c.75,3.98-1.92,7.85-5.96,8.64l-24.7,4.82c-.44.08-.88.13-1.32.14Zm-.43-49.68l6.36,33.65,10.04-1.94-6.34-33.62-10.06,1.91Z"/>
    </g>
  </g>
</svg>