<?xml version="1.0" encoding="UTF-8"?>
<svg id="_1" data-name=" 1" xmlns="http://www.w3.org/2000/svg" viewBox="0 0 3474.33 3474.33">
  <defs>
    <style>
      .cls-1 {
        fill: #0d9488;
      }

      .cls-2 {
        fill: #042f2e;
      }

      .cls-3 {
        fill: #fafcfc;
      }

      .cls-4 {
        fill: #ccfbf1;
      }
    </style>
  </defs>
  <g>
    <path class="cls-2" d="M1144.31,2523.64c-2.52.56-6.1,1.26-10.72,2.1-4.63.84-9.61,1.26-14.93,1.26-10.65,0-18.16-1.96-22.49-5.88-4.35-3.92-6.52-10.51-6.52-19.76v-211.08c0-5.32,1.4-9.39,4.21-12.19,2.8-2.8,6.73-5.05,11.77-6.73,8.96-3.08,19.56-5.25,31.75-6.52,12.19-1.26,24.74-1.89,37.63-1.89,37,0,64.75,7.64,83.25,22.92,18.5,15.28,27.75,36.37,27.75,63.28,0,17.66-4.63,33.01-13.87,46.04-9.25,13.03-22.01,23.06-38.27,30.07,12.33,15.97,24.17,31.18,35.53,45.62,11.35,14.44,19.83,25.72,25.44,33.85-2.25,7.29-6.17,12.97-11.77,17.03-5.61,4.06-11.77,6.1-18.5,6.1-8.69,0-15.35-1.96-19.97-5.88-4.63-3.92-9.18-9.25-13.66-15.97l-47.51-71.06h-39.1v88.72-.02ZM1177.94,2392.03c15.97,0,28.8-3.5,38.47-10.51,9.67-7,14.51-17.66,14.51-31.96,0-28.31-18.92-42.47-56.77-42.47-5.61,0-11,.28-16.19.84-5.19.56-10.03,1.13-14.51,1.68v82.41h34.48Z"/>
    <path class="cls-2" d="M1373.47,2448.37c3.92,14.3,11.21,24.67,21.86,31.12,10.65,6.45,23.82,9.67,39.52,9.67,11.77,0,22.63-1.75,32.58-5.26,9.95-3.5,18.01-7.21,24.17-11.15,3.92,2.25,7.15,5.33,9.67,9.25,2.52,3.93,3.78,8.14,3.78,12.61,0,5.61-1.89,10.58-5.67,14.93-3.78,4.35-8.97,8.06-15.56,11.15-6.59,3.09-14.36,5.46-23.34,7.15-8.97,1.68-18.65,2.52-29.01,2.52-16.55,0-31.61-2.25-45.2-6.73-13.6-4.48-25.23-11.28-34.9-20.39-9.67-9.11-17.24-20.39-22.7-33.85-5.46-13.46-8.2-29.15-8.2-47.09s2.66-32.51,7.99-45.41c5.32-12.89,12.54-23.68,21.66-32.37,9.11-8.68,19.69-15.14,31.75-19.35,12.05-4.2,24.81-6.31,38.27-6.31s26.35,2.17,37.84,6.52c11.49,4.35,21.3,10.37,29.43,18.08s14.51,16.96,19.13,27.75c4.63,10.79,6.94,22.49,6.94,35.11,0,7.85-2.04,13.74-6.1,17.66-4.06,3.93-9.75,6.45-17.03,7.56l-116.89,16.82h0ZM1420.14,2358.81c-13.74,0-25.23,4.56-34.48,13.66-9.25,9.11-14.44,22.07-15.56,38.89l93.34-13.87c-1.13-10.37-5.19-19.41-12.19-27.12-7.01-7.71-17.38-11.56-31.11-11.56h0Z"/>
    <path class="cls-2" d="M1707.32,2320.54c7.28,0,13.38,1.68,18.29,5.05,4.9,3.36,7.36,8.97,7.36,16.82,0,3.65-1.05,9.54-3.15,17.66-2.1,8.14-4.91,17.52-8.41,28.17-3.51,10.65-7.5,22.15-11.98,34.48-4.49,12.34-9.11,24.46-13.87,36.37-4.77,11.92-9.54,23.2-14.29,33.85-4.77,10.65-9.11,19.63-13.04,26.91-2.81,2.25-7.01,4.06-12.61,5.46-5.61,1.4-11.77,2.1-18.5,2.1-8.14,0-15.07-1.05-20.81-3.15-5.75-2.1-9.88-5.53-12.4-10.3-2.53-4.76-5.61-11.35-9.25-19.76-3.65-8.41-7.56-17.94-11.77-28.59-4.2-10.65-8.55-21.93-13.04-33.85-4.49-11.91-8.76-23.76-12.83-35.53-4.06-11.77-7.85-23.13-11.36-34.06-3.51-10.93-6.38-20.74-8.62-29.43,2.8-3.36,6.79-6.24,11.98-8.62,5.18-2.38,10.57-3.57,16.19-3.57,7.28,0,13.25,1.68,17.87,5.05s8.2,9.39,10.72,18.08l21.02,69.38c1.68,5.61,3.57,11.56,5.67,17.87,2.1,6.31,4.14,12.47,6.1,18.5,1.96,6.03,3.85,11.77,5.67,17.24,1.82,5.46,3.29,10.03,4.42,13.66h1.68c8.13-24.67,16.12-50.1,23.97-76.31,7.85-26.21,14.72-52.07,20.6-77.58,3.36-1.96,7.21-3.43,11.56-4.42,4.35-.98,8.62-1.47,12.83-1.47h0Z"/>
    <path class="cls-2" d="M1769.97,2265.47c0-8.13,2.87-15.06,8.62-20.81,5.75-5.74,13.1-8.62,22.07-8.62s16.26,2.88,21.86,8.62c5.6,5.75,8.41,12.68,8.41,20.81s-2.81,15.49-8.41,21.24c-5.61,5.75-12.9,8.62-21.86,8.62s-16.34-2.87-22.07-8.62c-5.75-5.74-8.62-12.83-8.62-21.24ZM1774.18,2326.43c2.24-.56,5.53-1.26,9.88-2.1,4.35-.84,9.04-1.26,14.08-1.26,10.09,0,17.45,1.83,22.07,5.46,4.63,3.65,6.94,10.09,6.94,19.34v175.76c-2.25.56-5.54,1.26-9.88,2.1-4.35.84-9.04,1.26-14.08,1.26-10.09,0-17.45-1.83-22.07-5.46-4.63-3.64-6.94-10.09-6.94-19.35v-175.76h0Z"/>
    <path class="cls-2" d="M1925.55,2448.37c3.92,14.3,11.21,24.67,21.86,31.12,10.65,6.45,23.82,9.67,39.52,9.67,11.77,0,22.63-1.75,32.58-5.26,9.95-3.5,18.01-7.21,24.17-11.15,3.92,2.25,7.15,5.33,9.67,9.25,2.52,3.93,3.78,8.14,3.78,12.61,0,5.61-1.89,10.58-5.67,14.93-3.78,4.35-8.97,8.06-15.56,11.15-6.59,3.09-14.36,5.46-23.34,7.15-8.97,1.68-18.65,2.52-29.01,2.52-16.55,0-31.61-2.25-45.2-6.73-13.6-4.48-25.23-11.28-34.9-20.39-9.67-9.11-17.24-20.39-22.7-33.85-5.46-13.46-8.2-29.15-8.2-47.09s2.66-32.51,7.99-45.41c5.32-12.89,12.54-23.68,21.66-32.37,9.11-8.68,19.69-15.14,31.75-19.35,12.05-4.2,24.81-6.31,38.27-6.31s26.35,2.17,37.84,6.52c11.49,4.35,21.3,10.37,29.43,18.08,8.13,7.71,14.51,16.96,19.13,27.75,4.63,10.79,6.94,22.49,6.94,35.11,0,7.85-2.04,13.74-6.1,17.66-4.06,3.93-9.75,6.45-17.03,7.56l-116.89,16.82h0ZM1972.22,2358.81c-13.74,0-25.23,4.56-34.48,13.66-9.25,9.11-14.44,22.07-15.56,38.89l93.34-13.87c-1.13-10.37-5.19-19.41-12.19-27.12-7.01-7.71-17.38-11.56-31.11-11.56h0Z"/>
    <path class="cls-2" d="M2240.06,2394.97c-3.09,11.5-6.38,23.13-9.88,34.9-3.51,11.77-7.01,23.2-10.51,34.27-3.51,11.07-6.87,21.38-10.09,30.9-3.23,9.54-5.96,17.66-8.2,24.38-3.09,2.25-7.01,4.14-11.77,5.67-4.77,1.54-10.79,2.31-18.08,2.31-8.14,0-15.21-1.2-21.24-3.57-6.03-2.38-10.16-5.96-12.4-10.72-3.36-6.73-7.15-17.45-11.36-32.17-4.21-14.72-8.55-30.83-13.04-48.36-4.49-17.52-8.62-35.32-12.4-53.4-3.78-18.08-6.94-33.85-9.46-47.3,2.8-2.8,6.66-5.39,11.56-7.78,4.9-2.38,10.3-3.57,16.19-3.57,7.85,0,14.01,1.89,18.5,5.67,4.48,3.78,7.43,9.88,8.83,18.29,5.32,33.64,10.37,62.17,15.14,85.57,4.76,23.41,8.13,39.31,10.09,47.72h1.68c1.12-4.76,3.01-11.77,5.67-21.02,2.66-9.25,5.75-19.9,9.25-31.96,3.5-12.05,7.28-24.95,11.36-38.68,4.06-13.73,8.2-27.6,12.4-41.63,3.92-2.24,8.06-3.99,12.4-5.25,4.35-1.26,9.46-1.89,15.35-1.89,7.56,0,13.94,1.26,19.13,3.78,5.18,2.52,8.62,6.31,10.3,11.35,4.2,13.46,8.2,26.64,11.98,39.52,3.78,12.9,7.21,24.88,10.3,35.95,3.08,11.07,5.82,20.96,8.2,29.65,2.38,8.69,4.27,15.42,5.67,20.18h2.1c4.76-23.27,9.74-47.51,14.93-72.74,5.18-25.23,9.6-51.29,13.25-78.21,3.36-1.96,7.15-3.5,11.36-4.63,4.21-1.12,8.41-1.68,12.61-1.68,7.28,0,13.25,1.68,17.87,5.05,4.63,3.36,6.94,8.83,6.94,16.4,0,3.93-.84,10.3-2.52,19.13-1.68,8.83-3.85,18.92-6.52,30.27-2.66,11.35-5.61,23.41-8.83,36.16-3.23,12.76-6.52,25.09-9.88,37-3.36,11.92-6.59,22.7-9.67,32.37-3.09,9.67-5.75,17.17-7.99,22.49-2.81,2.25-7.08,4.14-12.83,5.67-5.75,1.54-11.98,2.31-18.71,2.31-17.66,0-28.17-4.35-31.54-13.04-2.25-6.16-4.91-13.73-7.99-22.7-3.09-8.96-6.24-18.77-9.46-29.44-3.23-10.65-6.45-21.72-9.67-33.22-3.23-11.49-6.24-22.85-9.04-34.06l.03.03Z"/>
  </g>
  <g>
    <path class="cls-2" d="M1003.24,2876.07c-2.81,2.25-6.45,4.06-10.93,5.46-4.49,1.41-9.67,2.1-15.56,2.1-7.29,0-13.39-.91-18.29-2.74-4.91-1.82-8.35-5.11-10.3-9.88-11.5-28.59-21.16-52.98-29.01-73.16-7.85-20.18-14.16-37.42-18.92-51.72h-2.1c-.84,18.78-1.62,36.02-2.31,51.72-.7,15.7-1.34,31.05-1.89,46.04-.56,15-1.2,30.21-1.89,45.62-.7,15.42-1.62,32.1-2.74,50.04-2.81.84-6.31,1.68-10.51,2.52-4.2.84-8.69,1.26-13.46,1.26-18.78,0-28.17-7-28.17-21.02,0-4.48.21-11.42.63-20.81.42-9.39.98-20.32,1.68-32.79.7-12.47,1.54-26.14,2.52-40.99.98-14.86,1.96-29.86,2.95-44.99.98-15.14,2.03-30.07,3.15-44.78,1.12-14.72,2.1-28.38,2.95-40.99,2.24-2.8,6.37-5.67,12.4-8.62,6.03-2.95,13.8-4.42,23.34-4.42,10.65,0,19.27,1.75,25.86,5.26,6.58,3.51,11.56,9.32,14.93,17.45,3.64,8.69,7.5,18.23,11.56,28.59,4.06,10.37,8.2,21.02,12.4,31.96,4.21,10.93,8.34,21.66,12.4,32.17s7.92,20.39,11.56,29.65h1.68c9.53-26.35,18.98-51.86,28.38-76.52,9.39-24.67,17.58-45.55,24.6-62.65,3.36-1.68,7.71-3.08,13.04-4.21,5.32-1.12,10.79-1.68,16.4-1.68,10.37,0,18.64,1.55,24.81,4.63,6.16,3.09,9.95,7.71,11.35,13.87,1.12,5.33,2.38,13.81,3.78,25.44,1.4,11.64,2.8,24.88,4.2,39.74,1.4,14.86,2.8,30.69,4.2,47.51,1.4,16.82,2.66,33.01,3.78,48.57,1.12,15.56,2.1,29.78,2.95,42.68.84,12.9,1.4,22.99,1.68,30.27-3.65,2.25-7.5,3.92-11.56,5.05-4.06,1.12-9.04,1.68-14.93,1.68-7.29,0-13.66-1.47-19.13-4.42-5.46-2.95-8.48-8.47-9.04-16.61-1.13-17.66-2.1-34.97-2.95-51.93-.85-16.96-1.55-33.01-2.1-48.15-.56-15.14-1.13-29.08-1.68-41.84-.56-12.76-.98-23.76-1.26-33.01h-2.1c-4.49,13.18-10.65,29.93-18.5,50.25-7.85,20.33-17.8,46.47-29.86,78.41h0Z"/>
    <path class="cls-2" d="M1197.5,2892.47c-6.73-14.01-14.72-32.93-23.97-56.77-9.25-23.82-18.5-52.69-27.75-86.61,2.8-3.36,6.73-6.24,11.77-8.62,5.05-2.38,10.51-3.57,16.4-3.57,7.28,0,13.25,1.68,17.87,5.05,4.63,3.36,8.34,9.39,11.15,18.08,13.17,42.33,28.17,85.21,44.99,128.66h1.68c3.64-9.25,7.5-19.76,11.56-31.54,4.06-11.77,7.99-24.1,11.77-37,3.78-12.89,7.36-25.92,10.72-39.1,3.36-13.17,6.31-25.92,8.83-38.27,3.36-1.68,6.94-3.08,10.72-4.21,3.78-1.12,7.78-1.68,11.98-1.68,7.28,0,13.59,1.68,18.92,5.05,5.32,3.36,7.99,8.83,7.99,16.4,0,8.41-1.83,20.26-5.46,35.53-3.65,15.28-8.48,31.68-14.51,49.19-6.03,17.52-12.83,35.18-20.39,52.98-7.57,17.8-15.14,33.43-22.7,46.88-14.58,25.78-27.82,45.06-39.74,57.81-11.92,12.76-23.62,19.13-35.11,19.13-8.97,0-16.19-2.59-21.66-7.78-5.46-5.19-8.9-11.71-10.3-19.56,4.48-3.93,9.25-8.48,14.29-13.66,5.05-5.19,10.09-10.72,15.14-16.61,5.05-5.89,9.81-11.92,14.29-18.08,4.48-6.16,8.41-12.19,11.77-18.08-2.53-.84-4.98-1.89-7.36-3.15-2.38-1.26-4.77-3.15-7.15-5.67-2.38-2.52-4.91-5.74-7.56-9.67-2.66-3.92-5.4-8.96-8.2-15.14v.02Z"/>
    <path class="cls-2" d="M1478.58,2933.25c-5.19-5.32-7.78-12.47-7.78-21.45v-197.62c0-8.96,2.59-16.05,7.78-21.24,5.18-5.18,12.26-7.78,21.24-7.78h139.17c1.4,2.25,2.66,5.19,3.78,8.83,1.12,3.65,1.68,7.71,1.68,12.19,0,7.29-1.68,12.9-5.05,16.82-3.36,3.93-7.99,5.89-13.87,5.89h-101.75v59.7h102.6c1.4,2.25,2.74,5.12,3.99,8.62,1.26,3.51,1.89,7.5,1.89,11.98,0,15.14-6.45,22.7-19.34,22.7h-89.14v65.18h116.89c1.4,2.25,2.74,5.26,3.99,9.04,1.26,3.78,1.89,7.93,1.89,12.4,0,15.14-6.45,22.7-19.34,22.7h-127.4c-8.97,0-16.05-2.66-21.24-7.99v.02Z"/>
    <path class="cls-2" d="M1986.72,2939.98c-2.25.56-5.54,1.26-9.88,2.1-4.35.84-9.04,1.26-14.08,1.26-10.09,0-17.45-1.83-22.07-5.46-4.63-3.64-6.94-10.09-6.94-19.35v-109.32c0-11.21-3.09-19.34-9.25-24.38-6.17-5.05-14.29-7.57-24.38-7.57-6.73,0-13.25,1.26-19.56,3.78-6.31,2.53-11.85,5.89-16.61,10.09.85,3.93,1.26,7.85,1.26,11.77v137.07c-2.25.56-5.54,1.26-9.88,2.1-4.35.84-9.04,1.26-14.08,1.26-10.09,0-17.45-1.83-22.07-5.46s-6.94-10.09-6.94-19.35v-109.32c0-11.21-3.23-19.34-9.67-24.38-6.45-5.05-14.72-7.57-24.81-7.57-7.01,0-13.46,1.13-19.34,3.36-5.88,2.25-10.79,4.49-14.72,6.73v152.63c-2.52.56-5.88,1.26-10.09,2.1-4.2.84-8.97,1.26-14.29,1.26-9.82,0-17.1-1.83-21.86-5.46-4.77-3.64-7.15-10.09-7.15-19.35v-134.97c0-6.45,1.4-11.84,4.2-16.19,2.8-4.35,7.15-8.47,13.04-12.4,8.41-5.6,19.06-10.3,31.96-14.08,12.89-3.78,26.21-5.67,39.95-5.67,25.5,0,46.25,6.87,62.23,20.6,8.13-5.89,17.45-10.79,27.96-14.72,10.51-3.92,22.92-5.88,37.21-5.88,10.93,0,21.3,1.34,31.11,3.99,9.81,2.66,18.29,6.94,25.44,12.83,7.15,5.89,12.83,13.39,17.03,22.49,4.21,9.11,6.31,19.97,6.31,32.58v132.87l-.02.02Z"/>
    <path class="cls-2" d="M2117.06,2735.21c27.47,0,49.4,5.88,65.8,17.66,16.4,11.77,24.6,30,24.6,54.66v97.13c0,6.73-1.68,12.06-5.05,15.98-3.36,3.93-7.56,7.43-12.61,10.51-7.85,4.77-17.8,8.55-29.86,11.35-12.06,2.8-25.79,4.2-41.2,4.2-28.04,0-50.11-5.4-66.22-16.19-16.12-10.79-24.17-26.98-24.17-48.57,0-18.77,5.96-33.15,17.87-43.1,11.91-9.95,29.22-16.05,51.93-18.29l57.6-5.88v-7.57c0-10.65-3.85-18.5-11.56-23.55-7.71-5.05-18.57-7.57-32.58-7.57-10.93,0-21.59,1.34-31.96,3.99-10.37,2.66-19.63,5.96-27.75,9.88-3.09-2.24-5.67-5.26-7.78-9.04-2.11-3.78-3.15-7.92-3.15-12.4,0-5.6,1.33-10.16,3.99-13.66,2.66-3.5,6.94-6.66,12.83-9.46,8.13-3.36,17.37-5.89,27.75-7.57,10.37-1.68,20.88-2.52,31.54-2.52l-.02.02ZM2118.74,2906.34c8.13,0,15.56-.77,22.28-2.31,6.73-1.54,11.63-3.43,14.72-5.67v-46.68l-40.78,3.78c-11.22,1.13-19.76,3.57-25.65,7.36s-8.83,9.75-8.83,17.87,3.01,14.44,9.04,18.92c6.03,4.49,15.77,6.73,29.22,6.73h0Z"/>
    <path class="cls-2" d="M2257.49,2681.81c0-8.13,2.87-15.06,8.62-20.81,5.75-5.74,13.1-8.62,22.07-8.62s16.26,2.88,21.86,8.62c5.6,5.75,8.41,12.68,8.41,20.81s-2.81,15.49-8.41,21.24c-5.61,5.75-12.9,8.62-21.86,8.62s-16.34-2.87-22.07-8.62c-5.75-5.74-8.62-12.83-8.62-21.24ZM2261.69,2742.78c2.24-.56,5.53-1.26,9.88-2.1,4.35-.84,9.04-1.26,14.08-1.26,10.09,0,17.45,1.83,22.07,5.46,4.63,3.65,6.94,10.09,6.94,19.34v175.76c-2.25.56-5.54,1.26-9.88,2.1-4.35.84-9.04,1.26-14.08,1.26-10.09,0-17.45-1.83-22.07-5.46-4.63-3.64-6.94-10.09-6.94-19.35v-175.76h0Z"/>
    <path class="cls-2" d="M2416.21,2942.08c-4.35.84-9.04,1.26-14.08,1.26-10.09,0-17.45-1.83-22.07-5.46-4.63-3.64-6.94-10.09-6.94-19.35v-251.44c2.24-.84,5.53-1.61,9.88-2.31,4.35-.7,9.04-1.05,14.08-1.05,10.09,0,17.45,1.83,22.07,5.46,4.63,3.65,6.94,10.09,6.94,19.35v251.44c-2.25.56-5.54,1.26-9.88,2.1h0Z"/>
    <path class="cls-2" d="M2637.16,2884.06c0,19.63-7.29,34.97-21.86,46.04-14.58,11.07-35.88,16.61-63.91,16.61-11.5,0-21.94-.84-31.33-2.52-9.39-1.68-17.52-4.13-24.38-7.36-6.87-3.22-12.19-7.15-15.97-11.77-3.78-4.63-5.67-9.74-5.67-15.35,0-5.32,1.19-9.95,3.57-13.87,2.38-3.92,5.53-7.15,9.46-9.67,7.85,5.05,16.88,9.54,27.12,13.46,10.23,3.93,22.07,5.88,35.53,5.88,11.49,0,20.18-1.89,26.07-5.67,5.88-3.78,8.83-9.04,8.83-15.76,0-11.49-8.41-19.06-25.23-22.7l-23.55-5.46c-20.75-4.76-36.09-11.91-46.04-21.45-9.95-9.53-14.93-22.28-14.93-38.27,0-18.22,7.28-33,21.86-44.36,14.57-11.35,35.04-17.03,61.39-17.03,10.09,0,19.41.77,27.96,2.31,8.55,1.55,15.97,3.78,22.28,6.73,6.31,2.95,11.21,6.45,14.72,10.51,3.5,4.06,5.26,8.76,5.26,14.08,0,5.05-1.13,9.46-3.36,13.25-2.25,3.78-4.91,6.8-7.99,9.04-2.53-1.68-5.82-3.36-9.88-5.05-4.06-1.68-8.55-3.22-13.46-4.63-4.91-1.4-10.09-2.59-15.56-3.57-5.46-.98-10.86-1.47-16.19-1.47-10.93,0-19.48,1.75-25.65,5.26-6.17,3.51-9.25,8.48-9.25,14.93,0,4.77,1.75,8.69,5.26,11.77,3.5,3.09,9.6,5.61,18.29,7.57l20.6,5.05c23.27,5.33,40.08,13.11,50.46,23.34,10.37,10.24,15.56,23.62,15.56,40.16h0Z"/>
  </g>
  <g>
    <g>
      <path class="cls-2" d="M2535.07,802.59c-30.74-4.66-42.16,26.24-32.39,51.84,17.33,45.39,78.54,4.54,55.05-38.89-3.23-1.79-6.78-5.33-9.71-6.48-3.91-1.54-9.71-5.98-12.95-6.48Z"/>
      <path class="cls-2" d="M917.46,857.83c27.73,36.33,76.89-11.29,49.29-44.49-24.01-28.89-79.4,5.05-49.29,44.49h0Z"/>
      <path class="cls-2" d="M975.74,673.12c9.15,14.74,2.51,39.32,9.07,50.9,6.45,11.39,29.96,13.64,41.2,5.58,21.14-15.14-4.79-60.43,39.53-73.87,17.27-5.24,69.67-7.6,49.32-40.84-15.8-25.8-64.87.64-77.62-42.22-5.32-17.83-3.75-71.26-39.42-56.08-25.98,11.06-6.46,53.43-33.11,73.87-23.65,18.15-75-2.87-64.2,44.54,6.96,30.5,55.53,6.38,75.23,38.1h0Z"/>
      <path class="cls-2" d="M2418.63,655c39.3,14.04,12.78,79.01,50.36,82.76,38.42,3.83,18.07-55.2,40.36-75.95,14.81-13.8,49.07-6.72,60.41-15.75,8.36-6.65,9.94-23.88,4.37-33.27-12.55-21.18-61.98.88-76.35-43.47-5.62-17.36-.71-52.85-26.14-55.12-36.86-3.29-26.84,27.43-31.92,52-10.44,50.55-73.95,16.52-79.37,53.51-5.78,39.5,35.91,27.3,58.27,35.27h.01Z"/>
    </g>
    <g>
      <path class="cls-1" d="M922.47,1282.2l6.48-4.82c43.64,83.76,125.07,149.4,219.45,165.98,36.62,6.44,73.8,3.59,110.83,4.11-7.79-8.19-16.59-20.97-24.27-31.92-.39-.55-.77-1.1-1.15-1.64-.83-1.19-1.66-2.35-2.46-3.47-.43-.6-.84-1.19-1.27-1.76-.24-.33-.48-.68-.72-1-6.6-9.09-20.29-34.06-29.26-47.89-2.67-4.13-4.94-7.28-6.45-8.71-2.51-2.36-12.35-5.25-22.72-8.29-.61-.17-1.23-.36-1.83-.53-1.66-.48-3.31-.97-4.94-1.47-6.84-2.06-13.25-4.14-17.24-6.13-49.44-24.76-101.11-77.57-113.46-132.74-7.16-31.96,6.4-69.11-41.41-68.79-.59,0-1.19.03-1.8.08-1.23.11-2.51.29-3.85.57-1.34.28-2.71.64-4.13,1.08-2.83.88-5.82,2.07-8.87,3.5-1.52.71-3.07,1.48-4.62,2.31-.77.41-1.55.84-2.32,1.28-1.26.71-2.52,1.46-3.78,2.23-5.72,3.5-11.35,7.53-16.39,11.71-7.51,6.24-13.69,12.77-16.85,18.23-.47.81-.92,1.66-1.36,2.52l-.08.16c-6.49,13.01-8.91,31.53-9.23,50.38-.35,20.1,1.68,40.55,3.71,55.02h-.01Z"/>
      <path class="cls-1" d="M2425.92,1601.22c-.45-.87-.93-1.72-1.46-2.56-1.02-1.67-2.47-3.75-4.15-5.68-.07-.08-.13-.15-.2-.23-.72-.81-1.48-1.6-2.26-2.31-.27-.24-.53-.48-.81-.71-.44-.36-.87-.68-1.31-.97-.39-.27-.77-.51-1.18-.72-.56-.29-1.11-.53-1.66-.68-13.84-3.95-63.56,24.28-83.94,30.01-.36.11-.73.21-1.08.31-8.87,2.26-17.78,3.94-26.67,5.08-1.48.19-2.96.36-4.45.52-84.52,8.97-167.81-31.95-209.93-108-4.43-8.01-8.11-15.32-10.78-22.36-.31-.81-.61-1.63-.89-2.44-.05-.16-.12-.33-.17-.49-4.73-13.8-5.37-26.78-.09-42.22,1.42-4.14,3.25-8.45,5.56-13.02,1.1-2.16,3.09-3.71,4.78-4.81.24-.16.48-.31.71-.44.12-.08.24-.15.36-.21.25-.15.48-.28.69-.41.09-.05.17-.11.25-.15.17-.11.32-.19.45-.28.25-.16.44-.31.49-.4h0c42.32-82.69,91.42-180.8,103.21-274.25,25.72-203.99-42.64-424.73-208.74-551.97-3.85-2.95-9.38-2.94-7.8-9.86-20.57-10.7-41.31-20.11-62.25-28.18-10.47-4.03-20.98-7.72-31.54-11.07-80.99-25.63-164.9-30.78-252.81-11.1-200.75,44.94-393.48,224.77-420.46,431.5-2.26,17.29-3.93,34.32-4.99,51.08-1.36,21.49-1.72,42.56-1,63.24.08,2.48.19,4.97.31,7.44.31,6.6.73,13.14,1.27,19.66.03.37.07.75.09,1.12.75,8.85,1.68,17.66,2.84,26.38.29,2.23.61,4.46.93,6.68,1.3,8.88,2.83,17.7,4.58,26.43,3.51,17.48,7.93,34.7,13.33,51.66.67,2.12,1.36,4.23,2.07,6.34,4.93,14.78,10.59,29.38,17.03,43.79,1.84,4.11,3.74,8.23,5.7,12.31,1.96,4.09,3.99,8.17,6.09,12.23,2.1,4.06,4.25,8.12,6.48,12.15,3.34,6.05,6.81,12.09,10.44,18.08,1.98,3.26,4.01,6.52,6.06,9.76.91,1.43,1.82,2.84,2.74,4.26,2.12,3.27,4.29,6.54,6.5,9.8,3.66,5.38,7.47,10.75,11.38,16.09,4.69,6.41,9.56,12.78,14.62,19.12.04.05.09.12.13.17.95,1.19,2.51,3.17,4.49,5.64.13.16.27.33.4.51.65.81,1.35,1.7,2.07,2.6.09.12.19.23.28.35,1.98,2.48,4.18,5.24,6.48,8.07.11.12.2.25.31.37.87,1.07,1.74,2.14,2.6,3.21,1.12,1.39,2.26,2.76,3.38,4.11.57.69,1.15,1.39,1.71,2.07.55.65,1.08,1.31,1.62,1.94.68.81,1.35,1.6,2,2.38.44.52.88,1.04,1.32,1.55.87,1,1.68,1.95,2.47,2.83.39.44.77.87,1.14,1.27,1.1,1.22,2.08,2.27,2.91,3.1.67.67,1.23,1.18,1.67,1.54.21.17.39.29.55.39.07.04.13.09.2.12,5.68,2.6,17.11-.68,28.51-.39h.05c.69.01,1.4.05,2.1.09.71.05,1.42.12,2.12.2,1,.12,2,.28,2.98.48,1.1.23,2.19.51,3.26.84.55.17,1.08.37,1.62.59,1.24.49,2.46,1.08,3.65,1.78,5.2,3.09,9.63,8.37,12.47,17.2.56,1.76.77,3.9.71,6.33-.08,2.43-.44,5.14-1.04,8.05-.15.72-.31,1.47-.49,2.22-.35,1.5-.76,3.03-1.2,4.59-3.38,11.74-9.27,25.11-14.3,35-.33.65-.67,1.31-.99,1.94-1.63,3.14-3.15,5.85-4.42,7.96-7.56,12.53-16.09,24.09-25.47,34.62-1.04,1.18-2.1,2.32-3.15,3.47-2.12,2.28-4.29,4.53-6.49,6.7-1.1,1.1-2.22,2.16-3.34,3.23-50.72,48.2-120.85,69.13-191.04,52.29-8.89-2.14-17.79-4.86-26.66-8.23-4.3-1.64-8.84-3.93-13.49-6.45-.93-.51-1.86-1.02-2.8-1.54-1.87-1.04-3.75-2.11-5.65-3.17-.47-.27-.95-.53-1.42-.8-.95-.53-1.9-1.06-2.83-1.58-1.2-.65-2.39-1.31-3.59-1.95-3.81-2.02-7.59-3.89-11.27-5.36-.88-.35-1.75-.68-2.62-.99-.44-.16-.88-.31-1.32-.45-.91-.29-1.8-.56-2.68-.79-.44-.12-.89-.23-1.34-.32-.33-.08-.68-.15-1.02-.21-.61-.12-1.22-.23-1.82-.31-.2-.03-.41-.05-.61-.08-.72-.09-1.44-.15-2.15-.19-.44-.01-.88-.03-1.32-.03-4.89.05-9.36,1.64-13.21,5.49-.59.59-1.16,1.23-1.71,1.92-.36.44-.71.89-1.04,1.39-2.34,3.34-4.38,7.77-6.04,13.5-3.3,11.35-3.27,22.33-1.28,32.97.16.85.33,1.7.51,2.55.32,1.46.67,2.91,1.04,4.37.35,1.34.73,2.66,1.14,3.98.05.16.09.32.15.48,3.86,12.45,9.86,24.47,15.69,36.1h0c16.28,8.93,28.18,19.85,46.38,26.5,59.2,21.62,151.9,15.32,211.89-2.96,84.22-25.66,157.71-87.97,204.77-161.42,2.68-4.19,2.78-9.46,9.71-7.93-.77-8.31,1.55-14.24,5.73-18.39.6-.6,1.26-1.14,1.92-1.67.73-.57,1.5-1.11,2.31-1.6,9.86-5.94,25.07-6.08,37.14-4.42,6.36.88,11.66,3.47,16.04,7.39.69.61,1.36,1.28,2.02,1.96.71.75,1.42,1.54,2.07,2.35,24.33,30.45,13.19,110.17,6.32,138.2-.75,3.03-1.52,6.06-2.32,9.08-.17.65-.35,1.31-.52,1.96-2.2,8.11-4.62,16.19-7.27,24.17,0,.04-.03.08-.04.11-26.55,79.84-76.31,151.1-157.1,166.02-1.68.31-3.38.6-5.09.85-6.84,1.04-13.9,1.7-21.18,1.91-7.28.23-14.77.01-22.5-.64-.59-.05-1.2-.11-1.87-.19-9.86-1.12-27.3-4.77-33.76-3.06-1.86.49-3.51,1.27-4.98,2.28-.83.56-1.59,1.22-2.3,1.92-.96.95-1.82,2.02-2.59,3.19-.27.41-.53.84-.77,1.28-.83,1.47-1.54,3.05-2.12,4.74-.68,1.99-1.22,4.13-1.62,6.36-.53,2.96-.81,6.1-.91,9.28-.05,1.58-.05,3.18,0,4.77.03.87.05,1.72.11,2.59.08,1.47.19,2.94.33,4.39.77,7.91,2.4,15.24,4.13,20.15,9.34,26.56,26.95,37.35,49.59,49.21l68.11-11.23c78.22-17.04,146.97-49.64,199.07-111.88,7.01-8.37,11.02-23.61,21.01-25.96,3.51-15.93,8.96-43.86,21.05-58.72.56-.69,1.15-1.36,1.74-2,.04-.04.08-.08.11-.12.68-.72,1.39-1.4,2.11-2.04,2.18-1.92,4.55-3.43,7.12-4.43,1.28-.49,2.62-.87,4.02-1.11.47-.08.93-.13,1.42-.19.95-.09,1.92-.12,2.92-.07,5.5.24,11.78,2.56,18.92,7.61,9.76,6.9,16.43,28.93,21.46,48.51,2.54,9.9,4.67,19.16,6.57,25.53h0l59.98,51.78c39.09,29.85,116.11,70.54,164.96,74.72,24.31,2.08,73.96,2.32,95.65-6.6h0c.56-.23,1.12-.49,1.67-.8.4-.21.79-.47,1.18-.72.15-.09.31-.17.45-.28,9.66-6.53,17.09-23.13,21.23-39.18.23-.89.45-1.78.65-2.67,2.3-9.76,3.35-19.1,2.9-25.6-2.03-29.03-27.99-19.85-47.44-14.86-.15.04-.31.08-.45.12-.67.17-1.34.33-1.99.49-.72.17-1.44.35-2.15.49-.71.16-1.39.29-2.07.43-.33.07-.67.12-1,.19-1.64.29-3.19.48-4.61.55-9.36.4-18.7-.25-27.95-1.84-2.64-.45-5.28-.99-7.89-1.59-2.62-.6-5.24-1.28-7.84-2.03-58.59-16.77-111.76-68.93-142.19-121.46-1.35-2.34-2.66-4.67-3.93-7-3.78-7-7.16-13.98-10.06-20.85-5.13-12.11-10.95-29.07-15.95-48.23-.17-.64-.33-1.3-.51-1.94-.43-1.66-.84-3.33-1.24-5.01-14.09-58.03-19.23-132.48,24.53-155,4.5-2.31,9.59-3.78,14.82-4.39,2.24-.25,4.51-.36,6.77-.31,1.51.04,3,.15,4.5.32,14.89,1.78,28.39,10.6,30.17,26.64,9.98-1.82,7.79.56,11.43,6.28,12.3,19.2,20.53,40.87,35.47,58.58,85.21,100.95,285.17,169.2,405.35,100.96,11.06-6.28,18.72-15.87,30.21-19.99,7.67-16.57,17.76-36.43,19.12-55.82.2-2.76.21-5.53,0-8.27-.45-6.4-2.06-12.67-5.24-18.71l.03.05ZM1750.58,592.5c46.28-9.52,54.52,74.2,5.97,67.34-38.69-5.48-40.04-60.32-5.97-67.34ZM1452.64,738.51c90.71-18.54,105.37,109.03,27.65,121.64-78.77,12.77-97.31-107.4-27.65-121.64ZM1541.64,1214.34c-8.17,6.5-17.12,12.06-26.59,16.45-.79.36-1.58.72-2.38,1.07-2.39,1.06-4.81,2.03-7.25,2.92-3.26,1.2-6.57,2.26-9.92,3.17-1.67.45-3.37.88-5.05,1.27-.84.19-1.7.37-2.55.55-1.56.32-3.13.6-4.69.85-.25.04-.51.08-.76.12-36.81,5.68-76.73-6.45-108.28-46.01-25.62-32.09-30.65-70.18-20.74-103.89.19-.65.39-1.31.6-1.96.91-2.9,1.92-5.76,3.05-8.59,1.79-4.5,3.86-8.88,6.17-13.15.53-.97,1.07-1.94,1.63-2.9,18.22-31.4,50.63-55.16,91.15-59.94,25.95-3.06,54.18,6.42,77.59,22.49,17.52,12.02,32.35,27.73,41.47,44.65,8.24,15.28,12.41,30.76,13.22,45.85,2.06,38.14-17.35,73.72-46.65,97.05h-.01ZM1601.81,625.02c59.27-5.11,86.65,84.5,28.78,110.11-86.65,38.34-120.28-102.21-28.78-110.11h0ZM1656.59,774.12c53.73-12.38,76.97,58.52,30.09,78.69-61.5,26.46-75.88-68.14-30.09-78.69ZM1807.5,1249.95c-7.14,6.89-14.72,12.67-21.43,16.68-3.94,2.35-7.84,4.45-11.71,6.3-2.58,1.24-5.14,2.36-7.69,3.38-34.44,13.74-66.32,7.44-97.68-20.15-12.34-10.86-28.23-30.49-32.73-49.19-.09-.41-.19-.81-.28-1.23-.6-2.82-.95-5.62-.97-8.35-.07-10.36,4.43-19.87,16.33-26.71,13.86-7.96,23.64-4.31,32.45,3.49,10.28,9.09,19.23,23.84,31.79,32.36.89.61,1.82,1.19,2.75,1.72.47.27.93.53,1.42.79,2.24,1.19,4.62,2.15,7.13,2.86.32.09.65.17.97.25.79.2,1.59.36,2.39.51.21.04.44.08.65.11,1.04.16,2.1.28,3.19.35,40.88,2.47,53.1-76.24,90.75-36.77,6.7,7.02,9.6,14.84,9.78,22.89.37,17.7-12.43,36.54-27.1,50.7h0ZM1920.95,1209.77c-1.8-1.72-3.55-3.46-5.22-5.21-1.24-1.31-2.44-2.62-3.61-3.93-4.82-5.44-9.01-10.96-12.61-16.59-.95-1.48-1.86-2.96-2.72-4.46-1.22-2.1-2.35-4.19-3.41-6.3-2.67-5.34-4.83-10.74-6.54-16.15-.52-1.67-1.02-3.35-1.44-5.02-.39-1.5-.75-2.98-1.07-4.47-.47-2.18-.87-4.35-1.19-6.52-.72-4.89-1.1-9.76-1.12-14.6-.03-3.87.17-7.72.56-11.54.2-1.91.44-3.81.75-5.7,7.44-47.26,45.71-88.46,91.74-101.29,3.69-1.03,7.41-1.87,11.18-2.52,4.71-.81,9.48-1.32,14.29-1.51,1.92-.08,3.85-.09,5.78-.07s3.87.11,5.81.25c2.91.2,5.82.53,8.75.99,4.18.65,8.35,1.58,12.51,2.78,1.34.39,2.68.8,4.02,1.24,1.66.55,3.31,1.14,4.97,1.78,5.18,2,10.34,4.45,15.43,7.39,1.59.91,3.17,1.87,4.73,2.87.96.61,1.92,1.24,2.87,1.9,10.76,7.32,21.15,16.88,30.92,28.99,87.93,109.16-70.62,257.49-175.38,157.68h.01Z"/>
      <path class="cls-1" d="M2214.3,1447.73l21.77-.07c.36-.07.72-.13,1.1-.2h66.39c7.55,0,33.92-6.42,43.02-8.8,6.62-1.74,13.18-3.74,19.69-6,1.24-.43,2.47-.88,3.7-1.34,2-.73,3.99-1.48,5.98-2.26,1.24-.49,2.48-1,3.73-1.51,2.67-1.1,5.33-2.23,7.96-3.42,2.44-1.1,4.89-2.22,7.32-3.38,2.34-1.12,4.65-2.3,6.96-3.49.77-.4,1.55-.8,2.32-1.2.03-.01.07-.04.09-.05,1.38-.72,2.74-1.47,4.11-2.22.45-.25.89-.51,1.35-.75.96-.53,1.91-1.07,2.87-1.62.51-.29,1-.57,1.51-.87.92-.53,1.84-1.08,2.76-1.63.48-.28.95-.56,1.43-.85,1.1-.67,2.19-1.34,3.27-2.02.27-.17.55-.33.81-.51,1.35-.84,2.7-1.71,4.03-2.58.37-.24.75-.49,1.11-.73.97-.64,1.94-1.28,2.91-1.94.47-.32.95-.64,1.42-.96.88-.6,1.76-1.22,2.63-1.82.47-.32.93-.65,1.39-.97.95-.68,1.9-1.36,2.84-2.04.36-.27.72-.52,1.08-.77,1.3-.95,2.58-1.9,3.85-2.87.25-.19.49-.39.75-.57,1.03-.79,2.06-1.58,3.07-2.38.43-.33.85-.67,1.27-1.02.85-.67,1.7-1.35,2.54-2.04.45-.36.89-.73,1.34-1.1.85-.71,1.71-1.42,2.56-2.14.39-.32.77-.65,1.16-.97,2.44-2.08,4.85-4.21,7.23-6.37.37-.33.73-.68,1.11-1.02.83-.76,1.64-1.52,2.46-2.28.41-.39.83-.79,1.24-1.18.79-.75,1.56-1.51,2.35-2.26.39-.37.77-.75,1.16-1.14.92-.91,1.84-1.84,2.76-2.76.21-.21.43-.43.64-.65,1.12-1.15,2.23-2.3,3.34-3.46.29-.31.59-.63.88-.95.8-.85,1.62-1.72,2.4-2.59.37-.41.75-.83,1.12-1.24.72-.8,1.44-1.62,2.16-2.42.36-.41.73-.83,1.1-1.24.77-.89,1.55-1.79,2.32-2.7.27-.32.55-.64.81-.96,1.03-1.23,2.06-2.46,3.07-3.7.19-.23.36-.45.55-.68.83-1.02,1.64-2.04,2.44-3.07.33-.41.65-.84.99-1.27.67-.85,1.34-1.72,1.99-2.59.33-.45.68-.89,1.02-1.35.67-.89,1.34-1.8,2-2.71.28-.39.57-.79.85-1.18,1.87-2.59,3.69-5.22,5.45-7.88.27-.41.53-.81.8-1.23.61-.93,1.23-1.87,1.83-2.8.31-.47.6-.95.89-1.42.59-.92,1.16-1.84,1.72-2.78.28-.45.55-.89.83-1.35.68-1.12,1.34-2.24,2-3.37.15-.25.29-.49.44-.75.8-1.38,1.59-2.76,2.35-4.15.2-.36.4-.73.6-1.11.56-1.03,1.12-2.07,1.68-3.1.25-.48.51-.97.76-1.46.49-.95.99-1.91,1.48-2.87.24-.49.49-.97.73-1.47.52-1.06,1.04-2.11,1.55-3.17.19-.37.37-.76.55-1.14.68-1.43,1.35-2.87,2-4.31.12-.27.23-.53.35-.79.53-1.19,1.04-2.38,1.56-3.57.2-.48.41-.97.61-1.46.41-1,.83-1.99,1.23-2.99.21-.52.41-1.04.63-1.55.4-1.03.8-2.07,1.2-3.1.17-.45.35-.91.52-1.36,1.11-2.96,2.15-5.96,3.13-8.97.15-.47.29-.93.44-1.39.33-1.06.67-2.11.99-3.18.16-.53.32-1.07.48-1.6.31-1.04.6-2.07.89-3.11.15-.51.28-1.02.43-1.52.33-1.26.67-2.51.99-3.77.07-.28.15-.56.21-.85.39-1.54.75-3.07,1.1-4.62.09-.41.19-.84.27-1.26.25-1.14.49-2.28.72-3.42.11-.55.21-1.08.32-1.63.2-1.06.4-2.1.59-3.15.09-.55.2-1.1.29-1.64.2-1.15.39-2.31.56-3.46.07-.43.13-.84.2-1.27.24-1.58.45-3.15.65-4.73.04-.29.07-.6.11-.91.16-1.28.31-2.58.44-3.86.05-.53.11-1.07.16-1.62.11-1.08.2-2.15.29-3.23.04-.57.09-1.14.13-1.71.08-1.11.15-2.23.21-3.34.03-.51.07-1,.08-1.51.08-1.6.15-3.21.19-4.82h0c-8.43-32.09-31.87-67.42-69.61-67.47-35.44-.05-28.22,26.35-35.66,51.24-8.49,28.41-20.06,55.88-35.64,80.48-1.92,3.03-3.9,6.01-5.94,8.93-1.38,1.98-2.78,3.93-4.22,5.86-.76,1.03-1.54,2.04-2.31,3.06-1.8,2.35-3.66,4.66-5.56,6.94-4.09,4.9-8.37,9.64-12.9,14.18-6.49,6.5-13.45,12.59-20.89,18.23-.95.72-1.9,1.43-2.86,2.14-6.21,4.54-12.74,8.76-19.65,12.62-15.77,8.83-29.19,9.72-43.83,19.32-25.32,16.6-39.17,48.92-58.39,72.81-.01.03-.04.05-.07.08-.12.15-.25.31-.39.47h0c-.29.35-.63.73-.99,1.15-.05.05-.09.11-.15.17,0,0-.01.03-.03.03-.59.65-1.26,1.4-2,2.22l-.03.03c-.19.2-.36.4-.55.6l-.03.03c-.24.25-.48.52-.72.79-.05.05-.11.11-.16.17,0,0-.03.03-.03.04-.15.16-.31.33-.47.49-.15.16-.31.32-.45.48-.03.03-.05.05-.08.09-.15.16-.29.31-.44.47l-.04.04s-.09.09-.13.15c-.29.31-.59.63-.89.95-.01.01-.03.03-.04.05-.01.01-.04.04-.05.05-.47.49-.96,1.02-1.46,1.54-.05.05-.11.12-.17.17-.47.49-.93.99-1.43,1.5h-.01c-1.68,1.79-3.5,3.69-5.41,5.66-.07.07-.12.12-.17.19.04.19.08.37.12.56l-.04.03Z"/>
    </g>
    <g>
      <path class="cls-4" d="M1251.15,1531.74c13.66-1.48,26.62-8.91,38.32-18.06.65-.51,1.3-1.03,1.94-1.54,2.56-2.07,5.07-4.22,7.51-6.38,5.48-4.89,10.6-9.91,15.32-14.53-7.35-6.58-15.83-12.66-24.35-18.78-2.43-1.75-4.86-3.5-7.28-5.26-8.44-6.18-16.6-12.57-23.37-19.7-37.05-.53-74.23,2.31-110.83-4.11-94.38-16.57-175.81-82.21-219.45-165.98l-6.48,4.82h0c2.68,19.16,8.15,38.01,15.91,56.22,49.29,115.76,192.01,206.35,312.78,193.3h0Z"/>
      <path class="cls-4" d="M1974.87,591.95c-1.59,6.92,3.95,6.9,7.8,9.86,166.1,127.23,234.46,347.99,208.74,551.97-11.78,93.45-60.87,191.57-103.21,274.25,25.36,2.82,29.78,13.85,48.37-4.57.6-.59,1.22-1.22,1.84-1.87,17.29-18.02,32.85-37.61,46.74-58.43,5.69-8.53,11.1-17.28,16.23-26.22,1.46-2.55,2.9-5.12,4.31-7.69,17-31.01,30.66-64.14,40.93-98.55,19.36-64.85,26.78-134.17,22.28-202.05-.07-.93-.13-1.87-.2-2.8-.88-12.33-2.15-24.6-3.82-36.81-.72-5.3-1.52-10.58-2.39-15.84-1.71-10.32-3.7-20.57-5.98-30.72-10.06-44.81-25.66-87.76-46.82-126.98-11.87-22-24.51-42.18-38.01-60.9-2.59-3.58-5.2-7.13-7.84-10.6-2.06-2.7-4.14-5.37-6.25-8.01-48.36-60.71-107.59-104.94-182.74-144.02h.01Z"/>
      <path class="cls-4" d="M2381.81,1704.02c-120.18,68.23-320.15,0-405.35-100.96-14.94-17.71-23.18-39.37-35.47-58.58-3.66-5.72-1.46-8.09-11.43-6.28.23,2.07.32,4.38.31,6.86-.16,24.05-10.27,65.36-.48,82.43,2.72,4.75,12.05,11.08,20.5,16.81.53.36,1.07.72,1.59,1.08.29.2.59.4.88.6.4.28.81.55,1.2.83,3.41,2.34,6.45,4.5,8.57,6.33,65.05,56.25,131.84,100.14,213.98,117.43,17.98,3.78,36.66,6.32,56.25,7.41,23.13,1.28,45.49-.19,66.37-4.77,25.01-5.48,47.92-15.43,67.44-30.57,3.41-2.64,6.72-5.45,9.92-8.41,2.38-2.2,4.67-4.53,6.93-6.9,2.3-2.43,4.55-4.93,6.72-7.55,8.57-10.38,16.07-22.26,22.3-35.74-11.5,4.13-19.15,13.72-30.21,19.99l-.03-.03Z"/>
      <path class="cls-4" d="M1531.25,1552.63c-47.06,73.44-120.56,135.77-204.77,161.42-59.99,18.28-152.69,24.59-211.89,2.96-18.2-6.65-30.1-17.56-46.38-26.5,38.38,76.43,138.92,94.79,218.52,87.45,31.16-2.87,67.96-18.14,103.85-37.82,1.08-.6,2.18-1.2,3.26-1.8,11.14-6.2,22.17-12.79,32.88-19.57.85-.53,1.71-1.08,2.56-1.62,2.66-1.7,5.3-3.39,7.91-5.1,1.54-1,3.07-2.02,4.61-3.02,1.59-1.04,3.15-2.1,4.71-3.15,1.34-.89,2.66-1.79,3.98-2.68,1.55-1.06,3.1-2.1,4.62-3.15,3.26-2.24,6.48-4.47,9.63-6.7,3.15-2.22,6.25-4.43,9.28-6.61,3.03-2.19,6-4.35,8.88-6.48,2.88-2.14,5.7-4.23,8.44-6.29,3.65-2.75,7.16-5.42,10.51-8.01,24.47-18.91,39.36-28.58,42.31-61.37.47-5.18.61-10.3.55-15.37-.04-2.54-.12-5.06-.25-7.59-.13-2.51-.31-5.01-.51-7.51-.8-9.96-2.07-19.75-2.98-29.45-6.93-1.52-7.02,3.74-9.71,7.93h0Z"/>
      <path class="cls-4" d="M2002.27,1969.32c-48.84-4.18-125.87-44.87-164.96-74.72l-59.98-51.78c.65,2.2,1.06,4.69,1.44,7.27.24,1.56.48,3.17.79,4.77.21,1.11.47,2.2.76,3.29.08.29.15.6.24.88.48,1.62.99,3.23,1.52,4.82.72,2.16,1.48,4.3,2.28,6.41,1.02,2.72,2.1,5.41,3.23,8.05,26.78,62.05,86.07,100.7,151.97,115.12,3.89.85,7.79,1.62,11.71,2.3.93.16,1.87.32,2.79.47,2.56.41,5.14.8,7.72,1.15.45.07.92.12,1.38.19,2.68.35,5.38.65,8.08.92.61.07,1.22.12,1.83.17,2.79.27,5.6.48,8.4.65.39.03.77.05,1.16.07,16.24.96,32.53.52,48.53-1.35,10.62-1.24,26.43-5.57,40.17-12.3,1.62-.79,3.21-1.62,4.75-2.47,1.55-.85,3.06-1.75,4.51-2.67,1.24-.79,2.43-1.6,3.59-2.43,2.23-1.6,4.31-3.29,6.16-5.05,3.35-3.21,5.98-6.68,7.55-10.38-21.69,8.92-71.33,8.68-95.65,6.6v.03Z"/>
      <path class="cls-4" d="M1668.9,1855.83c-52.1,62.23-120.85,94.83-199.07,111.88l-68.11,11.23c73.41,38.44,180.01,17.66,240.77-41.55,2.59-2.52,5.09-5.11,7.51-7.76,6.04-6.64,11.51-13.72,16.33-21.18,1.52-2.35,2.95-4.75,4.34-7.19.79-1.39,1.56-2.79,2.31-4.19,6.25-11.83,10.95-24.52,13.72-38.02.21-1.04.39-2.11.53-3.19h0c.15-1.08.25-2.2.36-3.34h0c.09-1.14.17-2.28.25-3.46,0-.09,0-.19.01-.28.07-1.03.12-2.06.19-3.11.31-4.98.68-10.27,1.9-15.77-9.99,2.35-14,17.59-21.01,25.96l-.03-.03Z"/>
      <path class="cls-4" d="M2554.16,1246.57c0-1.1-.03-2.2-.07-3.3-.03-.79-.05-1.56-.09-2.35-.04-1.08-.09-2.16-.16-3.23-.05-.8-.11-1.6-.16-2.39-.08-1.07-.16-2.15-.27-3.23-.07-.8-.15-1.62-.24-2.42-.11-1.08-.24-2.16-.37-3.25-.09-.8-.2-1.6-.31-2.4-.15-1.11-.32-2.22-.48-3.33-.12-.79-.24-1.56-.36-2.35-.19-1.16-.41-2.31-.63-3.47-.13-.73-.27-1.47-.41-2.2-.25-1.28-.53-2.56-.81-3.86-.13-.61-.25-1.23-.4-1.84-.44-1.91-.91-3.82-1.4-5.73-.04,1.62-.11,3.22-.19,4.82-.03.51-.05,1-.08,1.51-.07,1.11-.13,2.23-.21,3.34-.04.57-.08,1.14-.13,1.71-.09,1.08-.19,2.16-.29,3.23-.05.53-.11,1.07-.16,1.62-.13,1.3-.28,2.58-.44,3.86-.04.29-.07.6-.11.91-.2,1.58-.41,3.15-.65,4.73-.07.43-.13.84-.2,1.27-.17,1.16-.36,2.31-.56,3.46-.09.55-.19,1.1-.29,1.64-.19,1.06-.39,2.1-.59,3.15-.11.55-.21,1.08-.32,1.63-.23,1.15-.48,2.28-.72,3.42-.09.41-.17.84-.27,1.26-.35,1.55-.71,3.09-1.1,4.62-.07.28-.15.56-.21.85-.32,1.26-.64,2.51-.99,3.75-.13.51-.28,1.02-.43,1.52-.29,1.04-.59,2.08-.89,3.11-.16.53-.32,1.07-.48,1.6-.32,1.06-.65,2.12-.99,3.18-.15.47-.29.93-.44,1.39-.97,3-2.02,6-3.13,8.97-.17.45-.35.91-.52,1.36-.39,1.04-.79,2.07-1.2,3.1-.2.52-.41,1.04-.61,1.55-.4,1-.81,2-1.23,2.99-.2.48-.4.97-.61,1.46-.51,1.19-1.03,2.38-1.55,3.57-.12.27-.23.53-.35.8-.65,1.44-1.32,2.88-1.99,4.31-.19.39-.36.76-.55,1.14-.51,1.06-1.02,2.11-1.54,3.15-.24.49-.49.99-.75,1.47-.48.96-.97,1.91-1.47,2.86-.25.49-.51.97-.76,1.46-.55,1.04-1.11,2.07-1.67,3.1-.2.37-.4.75-.61,1.11-.77,1.39-1.55,2.76-2.35,4.14-.15.25-.31.51-.45.76-.65,1.12-1.32,2.24-1.99,3.35-.28.45-.55.91-.83,1.36-.56.92-1.14,1.84-1.71,2.75-.31.48-.6.95-.91,1.43-.6.93-1.2,1.87-1.82,2.8-.27.41-.53.83-.81,1.23-1.76,2.66-3.59,5.28-5.45,7.87-.29.4-.57.79-.87,1.19-.65.91-1.32,1.8-1.99,2.7-.33.45-.68.91-1.03,1.36-.65.87-1.31,1.72-1.98,2.58l-1,1.28c-.8,1.02-1.6,2.03-2.42,3.03-.19.24-.39.48-.57.72-1.02,1.24-2.03,2.47-3.06,3.7-.28.33-.56.65-.83.97-.76.89-1.54,1.79-2.31,2.67-.37.43-.75.84-1.11,1.27-.71.8-1.43,1.6-2.15,2.4-.37.41-.76.84-1.14,1.26-.79.87-1.59,1.72-2.39,2.56-.31.32-.6.64-.91.96-1.1,1.16-2.2,2.31-3.33,3.45-.23.23-.45.45-.68.68-.91.92-1.82,1.83-2.72,2.74-.39.39-.77.76-1.18,1.15-.77.75-1.55,1.51-2.34,2.26-.41.4-.83.79-1.26,1.19-.8.76-1.62,1.52-2.44,2.27-.37.35-.75.69-1.12,1.03-1.19,1.08-2.38,2.15-3.58,3.21-1.2,1.06-2.42,2.11-3.63,3.14-.39.33-.79.67-1.19,1-.84.71-1.68,1.42-2.54,2.11-.45.37-.89.73-1.35,1.11-.84.68-1.67,1.35-2.51,2.03-.43.35-.85.68-1.3,1.03-.2.15-.39.31-.59.47-.81.64-1.64,1.27-2.46,1.9-.25.2-.51.4-.77.59-1.27.96-2.55,1.92-3.83,2.86-.36.27-.73.53-1.1.79-.68.49-1.36,1-2.06,1.5-.25.19-.51.36-.76.53-.47.33-.93.65-1.42.99-.44.31-.87.61-1.31.92s-.88.6-1.32.89c-.47.32-.95.64-1.43.97-.96.65-1.92,1.3-2.9,1.92-.37.25-.75.49-1.12.75-.11.07-.2.13-.29.2-1.24.8-2.48,1.59-3.73,2.38-.28.17-.56.35-.84.52-1.08.67-2.16,1.34-3.25,1.99-.48.29-.96.57-1.44.85-.91.55-1.83,1.08-2.74,1.62-.51.29-1.02.59-1.52.88-.95.55-1.9,1.08-2.84,1.6-.45.25-.91.51-1.36.76-1.36.75-2.72,1.5-4.1,2.22-.03.01-.07.04-.09.05-.96.51-1.94,1-2.9,1.5-2.12,1.1-4.25,2.16-6.38,3.19-2.42,1.18-4.86,2.28-7.32,3.38-2.64,1.18-5.29,2.32-7.96,3.42-1.24.51-2.48,1.02-3.73,1.51-1.72.68-3.46,1.34-5.2,1.98-1.5.55-2.99,1.1-4.49,1.62-6.49,2.27-13.06,4.27-19.69,6-9.09,2.38-35.47,8.8-43.02,8.8l-67.47.2s-.05,0-.08.01l-21.69.07c-.04-.19-.08-.37-.12-.56-.18.2-.37.38-.55.58,0,0,0,0,0,0-1.14,1.18-2.28,2.38-3.47,3.61-8.57,8.91-18.24,18.95-26.03,27.42l-.03.03s-.04.04-.05.05c-1.08,1.18-2.11,2.31-3.11,3.41-.05.05-.11.11-.16.17-.47.51-.91,1.02-1.35,1.51-.03.03-.05.07-.08.09-.47.52-.92,1.04-1.38,1.55-.03.04-.05.07-.09.11-.09.11-.19.21-.28.32-.31.36-.63.71-.92,1.06-.04.04-.08.09-.12.13-.16.19-.31.36-.45.53-.64.73-1.24,1.46-1.8,2.12-.07.08-.13.16-.2.23-.31.37-.6.73-.89,1.08-.04.04-.07.08-.11.12-.04.05-.08.11-.12.16-.25.32-.51.64-.75.93-.04.05-.08.11-.13.17-.23.29-.44.57-.64.84-.05.08-.11.15-.17.23-.43.57-.79,1.1-1.1,1.56-.03.04-.05.08-.08.11-.04.07-.08.12-.11.17-.11.19-.21.35-.31.51,0,0-.01.03-.03.04-.03.04-.05.09-.08.13-.05.11-.09.2-.15.29-.04.09-.09.19-.13.27-.01.04-.03.07-.04.11-.03.07-.04.13-.07.2-.01.05-.04.11-.05.16,0,.04-.01.08-.03.11-.01.12-.03.24,0,.32,1.6,1.11,3.09,2.28,4.49,3.49,2.52,2.18,4.75,4.49,6.9,6.82,1.03,1.12,2.06,2.24,3.07,3.38.53.59,1.06,1.16,1.59,1.75.21.24.44.48.67.71.51.55,1.03,1.08,1.54,1.63.2.21.4.43.61.63.71.72,1.42,1.43,2.16,2.12.01,0,.03.03.04.04.09.08.19.17.28.25.49.47,1,.92,1.52,1.36.2.17.41.35.61.52.44.37.91.75,1.38,1.12.2.16.41.32.61.48.67.51,1.35,1.02,2.06,1.5h.01c.79.53,1.62,1.07,2.47,1.58.85.51,1.75,1,2.68,1.47,1.1.56,2.2,1.1,3.31,1.62.36.17.73.33,1.1.49.75.35,1.5.68,2.24,1,.44.19.87.37,1.31.55.68.28,1.36.57,2.06.84.47.19.92.36,1.39.53.67.25,1.34.51,2,.75.47.17.93.33,1.42.49.67.24,1.35.45,2.02.68.47.15.93.31,1.39.45.69.21,1.4.43,2.11.64.44.13.88.27,1.32.39.77.21,1.56.43,2.34.63.36.09.73.2,1.1.29,1.15.28,2.3.56,3.45.81,1.08.24,2.16.45,3.25.67s2.16.4,3.26.57c1.24.2,2.48.39,3.74.55.39.05.77.09,1.16.15.88.11,1.75.21,2.63.31.44.04.87.09,1.31.13.88.08,1.76.16,2.64.23.39.03.77.07,1.16.08,2.51.16,5.03.27,7.56.29h1.15c.89,0,1.79,0,2.68-.01.43,0,.87-.01,1.3-.03.89-.03,1.79-.05,2.7-.09.39-.01.76-.03,1.15-.05,1.27-.07,2.54-.13,3.81-.23,1.22-.09,2.43-.2,3.66-.31h.04c1.95-.19,3.9-.41,5.85-.67.29-.04.6-.08.89-.12,1.87-.25,3.74-.55,5.61-.87.39-.07.76-.13,1.15-.2,2.24-.4,4.5-.84,6.73-1.32h.05c2.23-.48,4.46-1,6.68-1.56.01,0,.04,0,.05-.01,2.23-.56,4.45-1.16,6.68-1.79h.01c2.23-.64,4.45-1.31,6.66-2.03,1.44-.45,2.87-.93,4.3-1.42,4.11-1.4,8.2-2.92,12.25-4.54.13-.05.28-.11.41-.16,1.3-.52,2.58-1.04,3.86-1.59.03,0,.04-.01.07-.03,1.35-.56,2.68-1.14,4.02-1.72.07-.03.15-.07.21-.09,1.16-.51,2.31-1.03,3.46-1.55.33-.15.65-.29.99-.45.93-.43,1.87-.87,2.8-1.31.33-.16.67-.31.99-.47,1.22-.57,2.43-1.16,3.65-1.76,2.24-1.11,4.46-2.23,6.66-3.38.17-.09.35-.19.52-.27,2.04-1.07,4.09-2.16,6.1-3.27.21-.12.44-.24.65-.36,2-1.11,4.01-2.24,5.97-3.38.17-.09.35-.2.52-.29,2.11-1.23,4.19-2.46,6.25-3.71.01,0,.04-.03.05-.04,2.06-1.26,4.09-2.52,6.1-3.79.17-.11.35-.23.52-.33,1.87-1.19,3.71-2.39,5.54-3.61.21-.13.43-.28.63-.41,1.83-1.22,3.62-2.43,5.4-3.65.16-.11.32-.21.48-.33,1.91-1.32,3.79-2.64,5.65-3.97,2.31-1.66,4.62-3.35,6.93-5.06.27-.2.53-.39.8-.59,2.2-1.63,4.39-3.3,6.58-4.98.36-.28.72-.55,1.07-.83,2.16-1.67,4.31-3.37,6.48-5.07.36-.28.71-.56,1.06-.85,2.19-1.75,4.37-3.53,6.54-5.33.25-.21.49-.41.75-.63,4.62-3.85,9.2-7.79,13.72-11.83.16-.15.33-.29.49-.44,2.19-1.96,4.37-3.95,6.52-5.96.27-.24.53-.49.79-.73,2.12-1.99,4.23-3.99,6.32-6.02l.07.07c.27-.25.53-.51.79-.77,2.11-2.06,4.21-4.14,6.29-6.25.17-.17.35-.36.52-.53,4.41-4.49,8.71-9.05,12.91-13.73.04-.05.09-.11.13-.15,2.04-2.28,4.07-4.59,6.06-6.92.17-.2.35-.4.52-.6,1.94-2.27,3.85-4.57,5.73-6.88.19-.24.39-.48.57-.71,1.88-2.32,3.74-4.67,5.57-7.05.13-.17.27-.36.4-.53,3.85-5.02,7.56-10.12,11.1-15.32.11-.16.21-.31.32-.47,1.06-1.55,2.08-3.1,3.1-4.66.32-.49.63-.99.95-1.48.69-1.07,1.38-2.14,2.06-3.22.37-.6.75-1.22,1.12-1.82.6-.97,1.2-1.95,1.79-2.92.4-.65.77-1.31,1.18-1.98.55-.93,1.11-1.87,1.64-2.82.4-.68.79-1.38,1.18-2.06.52-.92,1.04-1.86,1.55-2.78.39-.69.76-1.4,1.15-2.11.51-.93,1-1.86,1.48-2.79.37-.71.73-1.4,1.1-2.11.48-.95.96-1.9,1.44-2.84.35-.69.69-1.39,1.03-2.1.48-.97.95-1.96,1.4-2.94.32-.68.64-1.35.95-2.03.48-1.04.95-2.1,1.42-3.15.28-.63.56-1.24.83-1.87.53-1.22,1.04-2.44,1.55-3.66.19-.47.39-.92.59-1.39.69-1.7,1.36-3.39,2-5.09.12-.32.23-.63.35-.95.52-1.39,1.03-2.78,1.52-4.17.21-.6.41-1.22.63-1.82.39-1.11.76-2.22,1.14-3.34.23-.69.44-1.38.65-2.07.33-1.04.65-2.08.96-3.13.21-.73.43-1.46.64-2.19.29-1.02.57-2.03.85-3.05.2-.75.4-1.5.59-2.26.27-1,.52-2.02.76-3.03.19-.76.36-1.52.55-2.28.24-1.02.45-2.03.68-3.05.16-.76.32-1.52.48-2.28.21-1.03.41-2.07.6-3.1.13-.75.28-1.5.41-2.24.19-1.07.36-2.15.53-3.22.11-.72.23-1.43.33-2.15.17-1.16.32-2.34.47-3.5.08-.63.17-1.27.24-1.9.17-1.47.32-2.95.47-4.43.03-.33.07-.67.11-1,.16-1.82.29-3.65.4-5.46.03-.49.04-1,.07-1.5.07-1.32.13-2.66.17-3.99.03-.68.03-1.38.04-2.06.03-1.15.04-2.31.04-3.46,0-.75-.01-1.5-.03-2.26Z"/>
    </g>
    <path class="cls-2" d="M2488.04,1508.97c100.94-79.36,179.24-201.69,137.81-335.44-22.4-72.29-118.34-144.69-194.09-109.75-72.95,33.64-52.51,80.95-78.03,142.27-1.42,3.39-18.56,42.32-25.88,34.02,69.22-251.44-15.96-493.34-217.31-652.62-441.25-349.09-1067.17,39.46-980.64,582.79,1.47,9.26,19.43,59.51,15.99,63.36-12.07-1.19-21.62-24.4-25.17-34.72-9-26.16-8.97-58.94-19.53-84.16-7.95-19.02-34.8-46.49-54.25-52.66-95.09-30.16-186.9,37.74-204.67,131.83-26.32,139.45,52.61,255.75,160.73,333.44-113.85,183.53,77.18,351.03,259.48,331.71-6.92,114.97,76.81,212.4,192.51,220.52,103.36,7.27,182.67-32.16,256.06-100.51,7.75-7.21,11.95-15.85,19.69-22.64,5.33-1.12,41.77,40.05,49.81,46.89,92.78,79.05,252.28,110.57,356.03,35.4,49.55-35.9,85.41-115.83,71.45-176.41h56.67c15.71,0,53.78-11.7,70.31-17.13,107.88-35.52,185.92-124.84,174.14-243.7-3.74-37.77-18.62-49.47-43.23-72.68-2.72-2.58-2.96-2.22-2.06-6.7,9.05-1.5,17.17-7.56,24.2-13.09h-.01ZM938.38,1338.42c-7.76-18.22-13.22-37.06-15.91-56.22-2.03-14.48-4.06-34.92-3.71-55.02.32-18.84,2.75-37.37,9.23-50.38l.08-.16c.44-.87.89-1.71,1.36-2.52,3.17-5.46,9.35-11.99,16.85-18.23,5.03-4.18,10.67-8.23,16.39-11.71,1.26-.77,2.52-1.52,3.78-2.23.77-.44,1.55-.87,2.32-1.28,1.55-.83,3.1-1.6,4.62-2.31,3.06-1.43,6.04-2.62,8.87-3.5,1.42-.44,2.8-.8,4.13-1.08,1.34-.28,2.62-.48,3.85-.57.61-.05,1.22-.08,1.8-.08,47.81-.32,34.26,36.83,41.41,68.79,12.35,55.17,64.02,107.98,113.46,132.74,3.99,2,10.4,4.09,17.24,6.13,1.63.49,3.29.97,4.94,1.47.61.17,1.23.36,1.83.53,10.38,3.05,20.22,5.93,22.72,8.29,1.52,1.43,3.78,4.58,6.45,8.71,8.96,13.84,22.66,38.81,29.26,47.89.24.32.48.67.72,1,.41.57.84,1.16,1.27,1.76.8,1.12,1.62,2.28,2.46,3.47.39.55.76,1.08,1.15,1.64,7.68,10.95,16.48,23.72,24.27,31.92,6.77,7.13,14.93,13.52,23.37,19.7,2.42,1.76,4.85,3.51,7.28,5.26,8.51,6.12,16.99,12.19,24.35,18.78-4.71,4.62-9.84,9.64-15.32,14.53-2.43,2.18-4.94,4.31-7.51,6.38-.64.52-1.28,1.03-1.94,1.54-11.7,9.15-24.64,16.59-38.32,18.06-120.77,13.05-263.48-77.55-312.78-193.3h.01ZM2431.14,1628.22c-1.35,19.39-11.45,39.25-19.12,55.82-6.24,13.49-13.74,25.36-22.3,35.74-2.16,2.62-4.42,5.11-6.72,7.55-2.26,2.38-4.55,4.7-6.93,6.9-3.21,2.96-6.5,5.77-9.92,8.41-19.53,15.14-42.43,25.09-67.44,30.57-20.89,4.58-43.24,6.05-66.37,4.77-19.59-1.08-38.28-3.62-56.25-7.41-82.15-17.29-148.92-61.17-213.98-117.43-2.12-1.83-5.17-4.01-8.57-6.33-.4-.27-.8-.55-1.2-.83-.29-.2-.59-.4-.88-.6-.52-.36-1.06-.72-1.59-1.08-8.45-5.73-17.78-12.06-20.5-16.81-9.79-17.08.32-58.38.48-82.43.01-2.48-.07-4.79-.31-6.86-1.78-16.04-15.26-24.87-30.17-26.64-1.5-.17-2.99-.28-4.5-.32-2.26-.05-4.53.05-6.77.31-5.24.6-10.32,2.07-14.82,4.39-43.76,22.52-38.62,96.97-24.53,155,.41,1.68.83,3.35,1.24,5.01.16.65.33,1.3.51,1.94,4.99,19.16,10.82,36.13,15.95,48.23,2.91,6.88,6.28,13.85,10.06,20.85,1.26,2.34,2.56,4.67,3.93,7,30.44,52.53,83.6,104.69,142.19,121.46,2.6.75,5.22,1.42,7.84,2.03,2.62.6,5.26,1.14,7.89,1.59,9.24,1.59,18.58,2.24,27.95,1.84,1.42-.07,2.96-.25,4.61-.55.33-.05.67-.12,1-.19.67-.13,1.36-.27,2.07-.43.71-.16,1.42-.32,2.15-.49.65-.16,1.32-.32,1.99-.49.15-.04.31-.08.45-.12,19.45-4.98,45.41-14.17,47.44,14.86.45,6.5-.59,15.84-2.9,25.6-.21.88-.43,1.78-.65,2.67-4.14,16.05-11.57,32.65-21.23,39.18-.15.11-.31.19-.45.28-.39.25-.77.51-1.18.72-.55.29-1.11.56-1.67.8-1.56,3.7-4.18,7.16-7.55,10.38-1.84,1.76-3.91,3.45-6.16,5.05-1.16.83-2.35,1.64-3.59,2.43-1.46.92-2.96,1.82-4.51,2.67s-3.14,1.68-4.75,2.47c-13.74,6.73-29.55,11.06-40.17,12.3-16,1.87-32.29,2.31-48.53,1.35-.39-.03-.77-.05-1.16-.07-2.8-.17-5.61-.4-8.4-.65-.61-.05-1.22-.12-1.83-.17-2.7-.27-5.4-.57-8.08-.92-.45-.05-.92-.12-1.38-.19-2.58-.35-5.16-.73-7.72-1.15-.93-.15-1.87-.31-2.79-.47-3.93-.68-7.83-1.44-11.71-2.3-65.89-14.42-125.19-53.07-151.97-115.12-1.14-2.64-2.22-5.33-3.23-8.05-.79-2.11-1.56-4.25-2.28-6.41-.53-1.59-1.03-3.21-1.52-4.82-.09-.29-.16-.59-.24-.88-.29-1.08-.55-2.18-.76-3.29-.31-1.59-.55-3.19-.79-4.77-.4-2.58-.79-5.08-1.44-7.28-1.9-6.37-4.03-15.64-6.57-25.53-5.03-19.58-11.69-41.6-21.46-48.51-7.14-5.05-13.41-7.37-18.92-7.61-1-.04-1.98-.01-2.92.07-.48.04-.95.11-1.42.19-1.39.23-2.72.6-4.02,1.11-2.58,1-4.94,2.51-7.12,4.43-.72.64-1.43,1.32-2.11,2.04-.04.04-.08.08-.11.12-.6.64-1.18,1.31-1.74,2-12.09,14.86-17.54,42.79-21.05,58.72-1.22,5.5-1.59,10.79-1.9,15.77-.07,1.06-.12,2.08-.19,3.11,0,.09,0,.19-.01.28-.08,1.18-.16,2.32-.25,3.45h0c-.09,1.15-.21,2.26-.36,3.35h0c-.15,1.1-.32,2.15-.53,3.19-2.76,13.5-7.45,26.2-13.72,38.02-.75,1.42-1.51,2.8-2.31,4.19-1.39,2.43-2.82,4.83-4.34,7.19-4.82,7.47-10.3,14.53-16.33,21.18-2.42,2.66-4.91,5.25-7.51,7.76-60.75,59.22-167.35,80-240.77,41.55-22.64-11.86-40.24-22.65-49.59-49.21-1.72-4.91-3.35-12.25-4.13-20.15-.15-1.44-.25-2.91-.33-4.39-.04-.85-.08-1.72-.11-2.59-.04-1.59-.04-3.19,0-4.77.09-3.18.39-6.32.91-9.28.4-2.23.92-4.37,1.62-6.36.59-1.7,1.3-3.29,2.12-4.74.25-.44.51-.87.77-1.28.76-1.18,1.63-2.24,2.59-3.19.71-.71,1.47-1.36,2.3-1.92,1.47-1,3.13-1.79,4.98-2.28,6.45-1.71,23.91,1.94,33.76,3.06.65.08,1.28.13,1.87.19,7.72.65,15.22.87,22.5.64,7.28-.23,14.33-.87,21.18-1.91,1.71-.27,3.41-.55,5.09-.85,80.79-14.9,130.55-86.18,157.1-166.02,0-.04.03-.08.04-.11,2.66-7.99,5.07-16.07,7.27-24.17l.52-1.96c.8-3.02,1.59-6.05,2.32-9.08,6.88-28.02,18.02-107.74-6.32-138.2-.65-.83-1.36-1.6-2.07-2.35-.65-.68-1.32-1.35-2.02-1.96-4.38-3.91-9.68-6.5-16.04-7.39-12.07-1.66-27.28-1.52-37.14,4.42-.81.49-1.58,1.03-2.31,1.6-.67.52-1.32,1.07-1.92,1.67-4.18,4.15-6.5,10.08-5.73,18.39.91,9.7,2.18,19.5,2.98,29.45.2,2.48.37,4.99.51,7.51.13,2.51.21,5.03.25,7.59.07,5.06-.08,10.19-.55,15.37-2.95,32.79-17.83,42.44-42.31,61.37-3.35,2.59-6.86,5.28-10.51,8.01-2.74,2.06-5.56,4.17-8.44,6.29-2.88,2.14-5.85,4.3-8.88,6.48-3.03,2.19-6.12,4.39-9.28,6.61-3.15,2.22-6.37,4.46-9.63,6.7-1.52,1.06-3.07,2.1-4.62,3.15-1.32.89-2.64,1.79-3.98,2.68-1.56,1.06-3.14,2.1-4.71,3.15-1.52,1-3.06,2.02-4.61,3.02-2.62,1.71-5.25,3.41-7.91,5.1-.85.55-1.71,1.08-2.56,1.62-10.72,6.77-21.74,13.37-32.88,19.57-1.08.6-2.18,1.2-3.26,1.8-35.89,19.67-72.69,34.94-103.85,37.82-79.61,7.35-180.13-11-218.52-87.45-5.85-11.65-11.83-23.65-15.69-36.1-.05-.16-.09-.32-.15-.48-.4-1.32-.77-2.64-1.14-3.98-.39-1.44-.73-2.9-1.04-4.37-.19-.84-.36-1.7-.51-2.55-1.99-10.66-2.02-21.64,1.28-32.97,1.66-5.73,3.7-10.15,6.04-13.5.35-.49.69-.95,1.04-1.39.56-.69,1.12-1.34,1.71-1.92,3.85-3.85,8.32-5.44,13.21-5.49.44,0,.87,0,1.32.03.71.03,1.43.09,2.15.19.2.03.41.05.61.08.6.08,1.2.19,1.82.31.33.07.67.13,1.02.21.44.11.88.21,1.34.32.88.23,1.79.49,2.68.79.44.15.88.29,1.32.45.87.31,1.75.64,2.62.99,3.69,1.48,7.47,3.34,11.27,5.36,1.19.64,2.39,1.28,3.59,1.95.95.52,1.9,1.06,2.83,1.58.47.27.95.53,1.42.8,1.9,1.06,3.78,2.12,5.65,3.17.93.52,1.87,1.03,2.8,1.54,4.65,2.52,9.19,4.81,13.49,6.45,8.85,3.37,17.76,6.09,26.66,8.23,70.19,16.83,140.32-4.09,191.04-52.29,1.12-1.07,2.23-2.14,3.34-3.23,2.2-2.18,4.37-4.42,6.49-6.7,1.07-1.15,2.11-2.3,3.15-3.47,9.38-10.52,17.91-22.09,25.47-34.62,1.27-2.1,2.78-4.82,4.42-7.96.32-.63.65-1.27.99-1.94,5.03-9.9,10.92-23.26,14.3-35,.45-1.56.85-3.1,1.2-4.59.17-.75.33-1.48.49-2.22.6-2.91.96-5.62,1.04-8.05.08-2.43-.13-4.57-.71-6.33-2.84-8.83-7.28-14.12-12.47-17.2-1.18-.69-2.39-1.28-3.65-1.78-.53-.21-1.07-.4-1.62-.59-1.07-.35-2.15-.61-3.26-.84-.99-.2-1.98-.36-2.98-.48-.71-.08-1.42-.15-2.12-.2-.69-.05-1.4-.08-2.1-.09h-.05c-11.39-.29-22.84,2.99-28.51.39-.05-.03-.13-.08-.2-.12-.16-.09-.33-.23-.55-.39-.45-.36-1-.87-1.67-1.54-.83-.83-1.82-1.88-2.91-3.1-.36-.4-.75-.83-1.14-1.27-.77-.88-1.6-1.83-2.47-2.83-.43-.51-.87-1.02-1.32-1.55-.65-.76-1.32-1.56-2-2.38-.53-.64-1.07-1.28-1.62-1.94-.56-.68-1.14-1.38-1.71-2.07-1.12-1.36-2.24-2.74-3.38-4.11-.87-1.07-1.75-2.15-2.6-3.21-.11-.12-.2-.25-.31-.37-2.28-2.83-4.5-5.58-6.48-8.07-.09-.12-.19-.23-.28-.35-.72-.91-1.42-1.78-2.07-2.6-.13-.17-.27-.33-.4-.51-1.96-2.47-3.54-4.45-4.49-5.64-.04-.05-.09-.12-.13-.17-5.06-6.34-9.92-12.71-14.62-19.12-3.91-5.34-7.72-10.7-11.38-16.09-2.22-3.26-4.38-6.53-6.5-9.8-.92-1.42-1.83-2.84-2.74-4.26-2.06-3.25-4.09-6.5-6.06-9.76-3.63-6-7.1-12.02-10.44-18.08-2.22-4.03-4.38-8.08-6.48-12.15-2.1-4.06-4.13-8.15-6.09-12.23-1.96-4.09-3.87-8.2-5.7-12.31-6.44-14.42-12.1-29.01-17.03-43.79-.71-2.11-1.39-4.23-2.07-6.34-5.4-16.96-9.82-34.18-13.33-51.66-1.75-8.75-3.29-17.55-4.58-26.43-.32-2.22-.64-4.45-.93-6.68-1.16-8.72-2.11-17.51-2.84-26.38-.03-.37-.07-.75-.09-1.12-.53-6.52-.95-13.07-1.27-19.66-.12-2.47-.21-4.95-.31-7.44-.71-20.67-.36-41.75,1-63.24,1.07-16.77,2.74-33.79,4.99-51.08,26.98-206.72,219.7-386.56,420.46-431.5,87.92-19.69,171.83-14.53,252.81,11.1,10.56,3.34,21.07,7.04,31.54,11.07,20.93,8.07,41.67,17.48,62.25,28.18,75.15,39.08,134.37,83.32,182.74,144.02,2.1,2.64,4.18,5.32,6.25,8.01,2.64,3.47,5.25,7.02,7.84,10.6,13.5,18.71,26.14,38.9,38.01,60.9,21.17,39.22,36.77,82.19,46.82,126.98,2.28,10.15,4.27,20.39,5.98,30.72.87,5.26,1.67,10.54,2.39,15.84,1.67,12.19,2.94,24.47,3.82,36.81.07.93.13,1.87.2,2.8,4.5,67.88-2.91,137.2-22.28,202.05-10.27,34.4-23.93,67.54-40.93,98.55-1.42,2.58-2.86,5.14-4.31,7.69-5.11,8.93-10.52,17.68-16.23,26.22-13.89,20.82-29.45,40.41-46.74,58.43-.63.65-1.24,1.28-1.84,1.87-18.59,18.42-23.01,7.4-48.37,4.57-.05.11-.23.24-.49.4-.13.08-.28.17-.45.28-.08.05-.17.09-.25.15-.21.12-.45.27-.69.41-.12.07-.24.13-.36.21-.23.13-.45.28-.71.44-1.7,1.08-3.67,2.63-4.78,4.81-2.31,4.57-4.14,8.88-5.56,13.02-5.29,15.45-4.63,28.43.09,42.22.05.16.12.33.17.49.28.81.59,1.63.89,2.44,2.67,7.04,6.34,14.36,10.78,22.36,42.11,76.06,125.39,116.98,209.93,108,1.48-.16,2.96-.33,4.45-.52,8.91-1.14,17.8-2.82,26.67-5.08.35-.09.72-.2,1.08-.31,20.37-5.73,70.09-33.96,83.94-30.01.55.16,1.11.39,1.66.68.39.21.77.45,1.18.72.44.29.88.63,1.31.97.27.23.55.47.81.71.77.71,1.54,1.5,2.26,2.31.07.08.13.15.2.23,1.68,1.92,3.14,4.01,4.15,5.68.52.85,1,1.71,1.46,2.56,3.17,6.04,4.77,12.31,5.24,18.71.2,2.74.19,5.5,0,8.27h0ZM1965.17,1739.17c-5.81-10.48-10.16-21.46-12.47-32.48,9.08,15.49,19.02,29.78,30.12,42.83.65.47,1.35.97,2.04,1.51.05.04.11.08.16.12,2.14,1.63,4.43,3.49,6.81,5.46.01,0,.03.03.04.04,4.15,3.47,8.53,7.32,12.69,10.94.57.49,1.15.99,1.71,1.48.2.17.41.35.61.53.55.47,1.08.93,1.6,1.39.16.13.32.27.47.4.64.55,1.27,1.08,1.9,1.62.16.13.31.27.47.39.64.53,1.27,1.07,1.87,1.56.05.05.12.09.17.15.57.47,1.14.92,1.67,1.36.11.08.21.17.32.25.56.45,1.11.88,1.63,1.28.11.08.2.16.31.23.53.41,1.06.8,1.55,1.15,6.68,4.75,13.56,11.85,21.84,15.41l44.27,18.82c-.99.15-1.96.25-2.95.36-.29.03-.59.05-.88.08-.72.07-1.46.12-2.18.16-.29.01-.59.04-.87.05-.95.04-1.91.07-2.86.08h-.61c-.76,0-1.52-.01-2.27-.04-.36,0-.73-.03-1.1-.05-.63-.03-1.24-.07-1.87-.12-.36-.03-.73-.05-1.1-.08-.88-.08-1.75-.17-2.63-.28-.41-.05-.83-.11-1.24-.17-.52-.07-1.04-.15-1.56-.23-.48-.08-.96-.16-1.44-.24-.44-.08-.89-.16-1.34-.25-1.07-.2-2.12-.43-3.18-.68-.21-.05-.44-.09-.65-.15-.57-.13-1.15-.29-1.72-.44-.32-.08-.64-.17-.96-.25-.59-.16-1.18-.32-1.76-.49-.25-.07-.49-.15-.75-.23-1.36-.41-2.72-.85-4.07-1.32-4.9-1-16.64-6.01-22.81-9.6-21.11-12.29-41.6-32.11-55.52-54.69h0c-1.19-1.94-2.34-3.89-3.42-5.86h-.03ZM1385.52,1810.42c47.24-9.7,86.05-32.21,121.46-64.75-18.39,33.33-58.88,59.42-95.56,67.99-9.07,2.11-28.71,8.99-25.91-3.25ZM2460.87,1435.38c-.27.25-.52.51-.79.77-2.08,2.03-4.19,4.03-6.32,6.02-.27.24-.52.49-.79.73-2.16,2-4.33,4.01-6.52,5.96-.16.15-.33.29-.49.44-4.53,4.05-9.11,7.99-13.72,11.83-.25.21-.49.41-.75.63-2.18,1.8-4.35,3.57-6.54,5.33-.35.28-.71.56-1.06.85-2.15,1.71-4.31,3.41-6.48,5.07-.36.28-.72.55-1.07.83-2.19,1.68-4.39,3.35-6.58,4.98-.27.2-.53.39-.8.59-2.31,1.71-4.62,3.41-6.93,5.06-1.86,1.32-3.74,2.64-5.65,3.97-.16.11-.32.21-.48.33-1.78,1.23-3.58,2.44-5.4,3.65-.21.13-.41.28-.63.41-1.83,1.2-3.67,2.4-5.54,3.61-.17.11-.35.23-.52.33-2.02,1.28-4.05,2.54-6.1,3.79-.01,0-.04.03-.05.04-2.06,1.26-4.15,2.5-6.25,3.71-.17.09-.35.2-.52.29-1.98,1.15-3.97,2.27-5.97,3.38-.21.12-.44.24-.65.36-2.02,1.11-4.05,2.2-6.1,3.27-.17.09-.35.19-.52.27-3.39,1.78-6.84,3.49-10.31,5.14-.33.16-.67.31-.99.47-.93.44-1.87.88-2.8,1.31-.33.15-.65.31-.99.45-1.15.52-2.3,1.04-3.46,1.55-.07.03-.15.07-.21.09-1.34.59-2.67,1.16-4.02,1.72-.03,0-.04.01-.07.03-1.28.53-2.58,1.07-3.86,1.59-.13.05-.28.11-.41.16-7.63,3.05-15.39,5.74-23.21,7.99h-.01c-2.22.64-4.45,1.23-6.68,1.79-.01,0-.04,0-.05.01-2.22.56-4.45,1.08-6.68,1.56h-.05c-2.24.48-4.49.92-6.73,1.32h0c-4.5.8-9,1.42-13.5,1.86h-.03c-2.48.24-4.97.41-7.45.55-.39.01-.76.03-1.15.05-.89.04-1.79.07-2.7.09-.43,0-.87.01-1.3.03-.89.01-1.79.01-2.68.01h-1.15c-2.52-.03-5.05-.12-7.56-.29-.39-.03-.77-.05-1.16-.08-.88-.07-1.76-.13-2.64-.23-.44-.04-.87-.08-1.31-.13-.88-.09-1.75-.2-2.63-.31-.39-.05-.77-.09-1.16-.15-2.34-.31-4.67-.68-7-1.14-2.24-.43-4.47-.92-6.69-1.48-.36-.09-.73-.19-1.1-.29-.77-.2-1.56-.41-2.34-.63-.44-.12-.88-.25-1.32-.39-.71-.2-1.4-.41-2.11-.64-.47-.15-.93-.29-1.39-.45-.68-.23-1.35-.44-2.02-.68-.47-.16-.93-.33-1.42-.49-.67-.24-1.34-.49-2-.75-.47-.17-.92-.36-1.39-.53-.68-.27-1.36-.56-2.06-.84-.44-.19-.88-.36-1.31-.55-.75-.32-1.5-.67-2.24-1-.36-.16-.73-.33-1.1-.49-1.11-.52-2.22-1.06-3.31-1.62-1.87-.95-3.58-1.98-5.17-3.06-.71-.48-1.39-.99-2.06-1.5-.21-.16-.41-.32-.61-.48-.47-.36-.92-.73-1.38-1.12-.21-.17-.41-.35-.61-.52-.52-.45-1.03-.91-1.52-1.36-.09-.08-.19-.17-.28-.25h0l-.04-.04c-.73-.69-1.46-1.4-2.16-2.12-.2-.21-.41-.43-.61-.63-.52-.53-1.03-1.08-1.54-1.63-.23-.24-.44-.48-.67-.71-.53-.59-1.07-1.16-1.59-1.75-.8-.88-1.59-1.76-2.39-2.63-.23-.25-.45-.49-.68-.73-3.34-3.63-6.88-7.19-11.39-10.31-.04-.15,0-.35.08-.59.01-.07.04-.12.07-.2h0c.04-.11.11-.24.17-.37.04-.09.08-.19.13-.29h0c.03-.05.07-.11.09-.17.09-.16.19-.33.31-.51h0s.07-.12.11-.19h0s.05-.07.07-.11c.35-.53.76-1.12,1.26-1.79h0c.2-.27.41-.55.63-.83h0c.28-.35.56-.72.87-1.11.04-.05.08-.09.12-.15h0s.07-.08.11-.12c0-.01.03-.03.04-.04.27-.33.55-.67.84-1.02h.01c.61-.76,1.3-1.55,2-2.38.15-.16.28-.32.41-.48,0-.01.03-.03.04-.04.04-.04.08-.09.12-.13.01-.03.04-.04.05-.05.28-.32.57-.65.87-.99,1.94-2.22,4.14-4.63,6.5-7.23h0l.03-.03c7.8-8.47,17.47-18.51,26.03-27.42,1.18-1.23,2.34-2.43,3.47-3.61.25-.25.49-.51.73-.77,1.88-1.96,3.7-3.85,5.37-5.61,0,0,.03-.03.03-.04h.01c.48-.52.96-1.02,1.43-1.51.05-.05.12-.12.17-.17.48-.49.93-.99,1.39-1.47.03-.03.04-.05.07-.07.03-.04.07-.07.09-.11.21-.23.43-.45.64-.67.08-.09.17-.17.25-.27.05-.07.12-.12.17-.19.15-.16.29-.32.44-.47.19-.2.36-.39.53-.57h0c.16-.16.31-.33.45-.49.07-.07.13-.13.19-.21.11-.11.2-.23.31-.33.13-.15.28-.31.41-.45.2-.23.4-.44.6-.65.16-.17.32-.35.47-.52.19-.2.36-.4.53-.6.11-.12.2-.23.31-.35.13-.16.28-.31.41-.45.09-.11.19-.2.27-.31.07-.07.12-.13.17-.2.07-.08.13-.15.2-.23.09-.11.17-.2.27-.31.12-.13.23-.27.33-.39.07-.08.13-.16.2-.23.16-.2.32-.39.45-.56,19.22-23.89,33.07-56.21,58.39-72.81,14.64-9.6,28.06-10.5,43.83-19.32,6.89-3.86,13.44-8.08,19.65-12.62.96-.71,1.91-1.42,2.86-2.14,7.44-5.64,14.4-11.73,20.89-18.23,4.53-4.54,8.81-9.28,12.9-14.18,1.9-2.28,3.74-4.59,5.56-6.94.77-1.02,1.55-2.03,2.31-3.06,1.43-1.94,2.84-3.89,4.22-5.86,2.04-2.94,4.02-5.92,5.94-8.93,15.6-24.59,27.16-52.07,35.64-80.48,7.44-24.88.21-51.3,35.66-51.24,37.74.05,61.18,35.38,69.61,67.47h0c.51,1.91.97,3.82,1.4,5.73.15.61.27,1.23.4,1.84.28,1.28.56,2.58.81,3.86.15.73.28,1.47.41,2.2.21,1.16.43,2.32.63,3.47.13.79.24,1.56.36,2.35.17,1.11.33,2.22.48,3.33.11.8.2,1.6.31,2.4.13,1.08.25,2.16.37,3.25.08.8.16,1.62.24,2.42.09,1.08.19,2.15.27,3.23.05.8.12,1.6.16,2.39.07,1.08.12,2.16.16,3.23.03.79.07,1.56.09,2.35.03,1.11.05,2.2.07,3.3,0,.75.03,1.5.03,2.26,0,1.16-.03,2.31-.04,3.46,0,.68-.01,1.38-.04,2.06-.04,1.34-.11,2.66-.17,3.99-.03.49-.04,1-.07,1.5-.11,1.83-.24,3.65-.4,5.46-.03.33-.07.67-.11,1-.13,1.48-.29,2.95-.47,4.43-.08.64-.16,1.27-.24,1.9-.15,1.18-.31,2.34-.47,3.5-.11.72-.23,1.43-.33,2.15-.17,1.08-.35,2.15-.53,3.22-.13.75-.28,1.5-.41,2.24-.2,1.04-.39,2.07-.6,3.1-.16.76-.32,1.52-.48,2.28-.21,1.02-.44,2.03-.68,3.05-.17.76-.36,1.52-.55,2.28-.24,1.02-.51,2.02-.76,3.03-.2.75-.39,1.5-.59,2.26-.28,1.02-.56,2.03-.85,3.05-.21.73-.41,1.47-.64,2.19-.31,1.04-.64,2.08-.96,3.13-.21.69-.43,1.39-.65,2.07-.36,1.12-.75,2.23-1.14,3.34-.21.6-.41,1.22-.63,1.82-.49,1.39-1,2.78-1.52,4.17-.12.32-.23.63-.35.95-.65,1.7-1.32,3.39-2,5.09-.19.47-.39.92-.59,1.39-.51,1.23-1.02,2.44-1.55,3.66-.27.63-.55,1.24-.83,1.87-.47,1.06-.93,2.1-1.42,3.15-.31.68-.63,1.35-.95,2.03-.47.99-.93,1.96-1.4,2.94-.33.69-.69,1.4-1.03,2.1-.47.95-.95,1.9-1.44,2.84-.36.71-.72,1.4-1.1,2.11-.49.93-.99,1.87-1.48,2.79-.37.71-.76,1.4-1.15,2.11-.51.93-1.03,1.86-1.55,2.78-.39.69-.77,1.38-1.18,2.06-.55.95-1.1,1.88-1.64,2.82-.39.65-.77,1.32-1.18,1.98-.59.97-1.19,1.95-1.79,2.92-.37.6-.75,1.22-1.12,1.82-.68,1.08-1.36,2.15-2.06,3.22-.32.49-.63.99-.95,1.48-4.55,6.97-9.4,13.78-14.52,20.45-.13.17-.27.36-.4.53-1.83,2.36-3.69,4.71-5.57,7.05-.19.24-.39.48-.57.71-1.88,2.31-3.79,4.61-5.73,6.88-.17.2-.35.4-.52.6-1.99,2.32-4.01,4.63-6.06,6.92-.04.05-.09.11-.13.15-4.21,4.67-8.51,9.26-12.91,13.73-.17.17-.35.36-.52.53-2.08,2.11-4.18,4.19-6.29,6.25v-.07Z"/>
    <g>
      <path class="cls-2" d="M1588.29,1117.29c-.81-15.08-4.98-30.56-13.22-45.85-9.12-16.92-23.95-32.63-41.47-44.65-23.41-16.07-51.64-25.55-77.59-22.49-40.51,4.78-72.92,28.54-91.15,59.94-.56.96-1.1,1.92-1.63,2.9-2.32,4.26-4.38,8.65-6.17,13.15-1.12,2.82-2.14,5.69-3.05,8.59-.2.65-.4,1.31-.6,1.96-9.91,33.71-4.87,71.8,20.74,103.89,31.56,39.56,71.48,51.68,108.28,46.01.25-.04.51-.08.76-.12,1.58-.25,3.14-.53,4.69-.85.85-.17,1.7-.36,2.55-.55,1.7-.39,3.38-.8,5.05-1.27,3.35-.91,6.66-1.98,9.92-3.17,2.44-.89,4.86-1.87,7.25-2.92.8-.35,1.59-.71,2.38-1.07,9.47-4.39,18.42-9.95,26.59-16.45,29.3-23.33,48.72-58.91,46.65-97.05h.01ZM1479.59,1131.67c-6,3.31-11.65,5.42-16.89,6.52-.88.19-1.74.33-2.59.47-1.71.25-3.37.4-4.99.44-.81.03-1.6.01-2.39-.01-12.58-.48-22.22-7.27-28.22-16.71-.75-1.18-1.44-2.4-2.08-3.66-.95-1.88-1.78-3.85-2.46-5.86-.45-1.34-.85-2.71-1.19-4.09-.33-1.39-.61-2.78-.81-4.19-.21-1.4-.36-2.83-.44-4.25-.08-1.42-.11-2.84-.05-4.26.23-6.89,2.02-13.66,5.52-19.49.17-.28.33-.56.51-.83,5.57-8.72,15.09-15.17,29.15-16.44,39.5-3.57,68.4,49.44,26.94,72.37h.01Z"/>
      <path class="cls-2" d="M1920.95,1209.77c104.76,99.79,263.31-48.52,175.38-157.68-9.75-12.11-20.15-21.68-30.92-28.99-.96-.65-1.91-1.28-2.87-1.9-1.58-1-3.15-1.96-4.73-2.87-5.09-2.92-10.24-5.38-15.43-7.39-1.66-.64-3.31-1.23-4.97-1.78-1.34-.44-2.68-.85-4.02-1.24-4.17-1.19-8.35-2.12-12.51-2.78-2.91-.45-5.84-.79-8.75-.99-1.94-.13-3.87-.23-5.81-.25-1.94-.03-3.86,0-5.78.07-4.81.19-9.58.69-14.29,1.51-3.77.65-7.51,1.5-11.18,2.52-46.02,12.82-84.3,54.02-91.74,101.29-.29,1.9-.55,3.79-.75,5.7-.4,3.82-.59,7.67-.56,11.54.03,4.83.39,9.71,1.12,14.6.32,2.18.72,4.34,1.19,6.52.32,1.5.67,2.98,1.07,4.47.44,1.68.92,3.35,1.44,5.02,1.7,5.41,3.86,10.8,6.54,16.15,1.06,2.11,2.19,4.21,3.41,6.3.87,1.5,1.78,2.98,2.72,4.46,3.59,5.62,7.79,11.16,12.61,16.59,1.18,1.32,2.36,2.63,3.61,3.93,1.67,1.75,3.41,3.49,5.22,5.21h-.01ZM1955.07,1080.98c4.17-10.14,13.27-18.47,28.62-21.64,3.95-.81,7.79-1.08,11.43-.89,1.24.07,2.47.19,3.66.36,2.95.41,5.77,1.15,8.44,2.15,1.07.4,2.11.84,3.13,1.32,1.22.57,2.38,1.22,3.51,1.9,1.59.96,3.1,2.03,4.53,3.18.55.44,1.08.89,1.62,1.38,17,15.33,20.05,44.11-4.67,61.15-37.37,25.75-67.2-11-62.53-40.73.15-.91.32-1.8.53-2.7.44-1.87,1-3.7,1.74-5.48h0Z"/>
    </g>
    <path class="cls-2" d="M1734.07,1213.13c-1.08-.07-2.15-.19-3.19-.35-.23-.04-.44-.07-.65-.11-.81-.15-1.62-.31-2.39-.51-.33-.08-.65-.17-.97-.25-2.51-.71-4.87-1.67-7.13-2.86-.48-.25-.95-.51-1.42-.79-.93-.55-1.86-1.12-2.75-1.72-12.55-8.52-21.5-23.26-31.79-32.36-8.81-7.8-18.59-11.46-32.45-3.49-11.9,6.84-16.41,16.35-16.33,26.71.01,2.74.36,5.53.97,8.35.09.41.19.81.28,1.23,4.51,18.7,20.39,38.33,32.73,49.19,31.36,27.58,63.24,33.9,97.68,20.15,2.55-1.02,5.12-2.15,7.69-3.38,3.87-1.86,7.77-3.97,11.71-6.3,6.72-4.01,14.29-9.79,21.43-16.68,14.66-14.16,27.47-33,27.1-50.7-.17-8.05-3.07-15.87-9.78-22.89-37.66-39.46-49.87,39.25-90.75,36.77h0Z"/>
    <g>
      <path class="cls-2" d="M1480.29,860.14c77.73-12.61,63.06-140.18-27.65-121.64-69.66,14.24-51.12,134.41,27.65,121.64h0Z"/>
      <path class="cls-2" d="M1601.81,625.02c-91.48,7.91-57.87,148.46,28.78,110.11,57.87-25.6,30.49-115.23-28.78-110.11h0Z"/>
      <path class="cls-2" d="M1686.68,852.8c46.88-20.17,23.64-91.07-30.09-78.69-45.79,10.55-31.4,105.14,30.09,78.69h0Z"/>
      <path class="cls-2" d="M1756.54,659.84c48.55,6.86,40.31-76.86-5.97-67.34-34.07,7.01-32.72,61.86,5.97,67.34h0Z"/>
    </g>
    <g>
      <path class="cls-3" d="M1452.64,1059.3c-14.06,1.27-23.59,7.72-29.15,16.44-.17.28-.35.55-.51.83-3.5,5.82-5.29,12.59-5.52,19.49-.05,1.42-.03,2.83.05,4.26.08,1.42.23,2.83.44,4.25.21,1.4.48,2.8.81,4.19.33,1.38.73,2.75,1.19,4.09.68,2.02,1.51,3.98,2.46,5.86.64,1.26,1.32,2.47,2.08,3.66,6,9.44,15.64,16.23,28.22,16.71.79.03,1.59.04,2.39.01,1.62-.04,3.29-.19,4.99-.44.85-.12,1.72-.28,2.59-.47,5.25-1.1,10.9-3.19,16.89-6.52,41.47-22.93,12.55-75.94-26.94-72.37h-.01Z"/>
      <path class="cls-3" d="M2015.35,1129.88c24.72-17.04,21.68-45.81,4.67-61.15-.52-.47-1.07-.92-1.62-1.38-1.43-1.16-2.94-2.22-4.53-3.18-1.14-.68-2.3-1.32-3.51-1.9-1.02-.48-2.06-.92-3.13-1.32-2.67-1-5.49-1.72-8.44-2.15-1.2-.17-2.42-.29-3.66-.36-3.65-.19-7.48.08-11.43.89-15.35,3.15-24.45,11.49-28.62,21.64-.73,1.78-1.3,3.61-1.74,5.48-.21.89-.39,1.79-.53,2.7-4.67,29.74,25.16,66.48,62.53,40.73h0Z"/>
    </g>
  </g>
</svg>