<?xml version="1.0" encoding="UTF-8"?>
<svg id="Delphi" xmlns="http://www.w3.org/2000/svg" viewBox="0 0 1390 1060">
  <defs>
    <style>
      .cls-1 {
        fill: #fff;
      }

      .cls-2 {
        fill: #223035;
      }

      .cls-3 {
        fill: #f4901e;
      }

      .cls-4 {
        fill: #d1e0f6;
      }

      .cls-5 {
        fill: #454649;
      }

      .cls-6 {
        fill: #29a8df;
      }

      .cls-7 {
        fill: #ea1c24;
      }

      .cls-8, .cls-9 {
        fill: #182d33;
      }

      .cls-10 {
        fill: #969696;
      }

      .cls-11 {
        fill: #b0b0b0;
      }

      .cls-12 {
        fill: #22b273;
      }

      .cls-9 {
        opacity: .25;
      }

      .cls-13 {
        fill: #0b90df;
      }

      .cls-14 {
        fill: #ee5a24;
      }

      .cls-15 {
        fill: #f8ad3b;
      }

      .cls-16 {
        fill: #4cbe57;
      }
    </style>
  </defs>
  <g>
    <rect class="cls-5" x="462.96" y="215.07" width="464.09" height="280.89"/>
    <path class="cls-8" d="m927.04,508.47h-464.09c-6.9,0-12.5-5.6-12.5-12.5V215.07c0-6.9,5.6-12.5,12.5-12.5h464.09c6.9,0,12.5,5.6,12.5,12.5v280.89c0,6.9-5.6,12.5-12.5,12.5Zm-451.59-25h439.09v-255.89h-439.09v255.89Z"/>
  </g>
  <g>
    <rect class="cls-1" x="584.55" y="153.48" width="220.89" height="404.09" transform="translate(1050.52 -339.48) rotate(90)"/>
    <path class="cls-8" d="m897.04,470.47h-404.09c-2.49,0-4.5-2.01-4.5-4.5v-220.89c0-2.49,2.01-4.5,4.5-4.5h404.09c2.49,0,4.5,2.01,4.5,4.5v220.89c0,2.49-2.01,4.5-4.5,4.5Zm-399.59-9h395.09v-211.89h-395.09v211.89Z"/>
  </g>
  <rect class="cls-11" x="519.3" y="440.83" width="185.48" height="10.57" rx="1.89" ry="1.89"/>
  <rect class="cls-11" x="519.3" y="425.43" width="185.48" height="10.57" rx="1.89" ry="1.89"/>
  <g>
    <polygon class="cls-5" points="405.83 499.97 82.61 618.97 82.61 338.07 405.83 219.07 405.83 499.97"/>
    <path class="cls-8" d="m82.61,631.47c-2.52,0-5.03-.76-7.15-2.25-3.35-2.34-5.35-6.17-5.35-10.25v-280.89c0-5.24,3.27-9.92,8.18-11.73l323.22-119c3.83-1.41,8.12-.86,11.47,1.48,3.35,2.34,5.35,6.17,5.35,10.25v280.89c0,5.24-3.27,9.92-8.18,11.73l-323.22,119c-1.4.52-2.86.77-4.32.77Zm12.5-284.68v254.25l298.22-109.79v-254.25l-298.22,109.79Zm310.72,153.18h0,0Z"/>
  </g>
  <g>
    <polygon class="cls-1" points="112.61 359 375.83 262.09 375.83 479.04 112.61 575.96 112.61 359"/>
    <path class="cls-8" d="m112.61,580.46c-.91,0-1.81-.28-2.57-.81-1.21-.84-1.93-2.22-1.93-3.69v-216.96c0-1.89,1.18-3.57,2.95-4.22l263.22-96.91c1.38-.51,2.92-.31,4.13.53,1.21.84,1.93,2.22,1.93,3.69v216.96c0,1.89-1.18,3.57-2.95,4.22l-263.22,96.91c-.5.19-1.03.28-1.55.28Zm4.5-218.32v207.37l254.22-93.6v-207.37l-254.22,93.6Z"/>
  </g>
  <g>
    <polygon class="cls-5" points="983.39 499.97 1306.61 618.97 1306.61 338.07 983.39 219.07 983.39 499.97"/>
    <path class="cls-8" d="m1306.61,631.47c-1.45,0-2.92-.25-4.32-.77l-323.22-119c-4.92-1.81-8.18-6.49-8.18-11.73V219.07c0-4.09,2-7.92,5.35-10.25,3.35-2.34,7.63-2.89,11.47-1.48l323.22,119c4.92,1.81,8.18,6.49,8.18,11.73v280.89c0,4.09-2,7.92-5.35,10.25-2.13,1.48-4.63,2.25-7.15,2.25Zm-310.72-140.22l298.22,109.79v-254.25l-298.22-109.79v254.25Z"/>
  </g>
  <g>
    <polygon class="cls-1" points="1276.61 359 1013.39 262.09 1013.39 479.04 1276.61 575.96 1276.61 359"/>
    <path class="cls-8" d="m1276.61,580.46c-.52,0-1.05-.09-1.55-.28l-263.22-96.91c-1.77-.65-2.95-2.34-2.95-4.22v-216.96c0-1.47.72-2.85,1.93-3.69,1.21-.84,2.75-1.04,4.13-.53l263.22,96.91c1.77.65,2.95,2.34,2.95,4.22v216.96c0,1.47-.72,2.85-1.93,3.69-.77.53-1.67.81-2.57.81Zm-258.72-104.55l254.22,93.6v-207.37l-254.22-93.6v207.37Z"/>
  </g>
  <g>
    <g>
      <path class="cls-13" d="m837.83,735.86s54.78,7.83,94.3-33.26c4.21-4.38,10.96-13.3,13.3-28.96,3.15-21.03,13.11-35.41,39.52-28.83,38.99,9.72,47.11,67.4,11.48,118.7-40.96,58.96-133.04,78.78-224.87,36.52"/>
      <path class="cls-4" d="m1009.48,683.69s-14.09,62.61-70.43,85.57c-56.35,22.96-153.91-11.48-153.91-11.48,0,0-2.09,42.26,8.87,54.78,10.96,12.52,173.74,30.78,208.7-68.35"/>
      <path class="cls-8" d="m839.59,723.49c31.25-.73,59.64-7.23,82.05-30.37,3.97-4.06,6.51-8.88,8.25-14.64,1.69-5.74,1.94-11.55,3.76-17.51,2.29-8.05,6.11-16.03,12.75-22.15,12.43-11.78,31.07-11.6,46.3-6.59,16.46,5.32,29.2,18.63,35.26,34.43,14.87,39.43-1.95,84.57-27.68,115.3-47.91,56.31-131.56,65.34-198.93,44.32-12.15-3.72-24.21-8.1-35.02-14.89-12.13-7.9-4.08-26.28,9.85-22.87,11.21,3.13,22.08,7.57,33.22,10.9,43.82,13.13,93.56,13.29,134.57-8.45,17.77-9.52,33.27-23.36,43.87-40.55,11.64-18.67,19.38-41.45,16.16-63.13-1.24-8-4.59-16.44-10.33-21.95-2.53-2.32-5.35-4.27-8.6-5.49-3.69-1.5-8.5-2.39-12.25-2.38-2.66.03-5.22.48-7.16,2.28-3.96,3.93-5.25,10.37-6.23,16.09-2.22,14.93-8.78,29.23-20.26,39.65-17.02,16.6-39.45,27.66-62.58,32.2-13.34,2.62-27.16,3.3-40.54.55-3.61-.67-5.69-4.74-4.14-8.05,0,0,7.68-16.69,7.68-16.69h0Z"/>
    </g>
    <g>
      <path class="cls-13" d="m832.35,782.03s14.87,40.7,57.91,46.57c27.93,3.81,48.78-26.22,69.65-10.57,18.97,14.23,16.45,80.62-58.96,95.22-80.87,15.65-151.96-60-150.78-84.26"/>
      <path class="cls-4" d="m956.78,862.64s-37.57,25.43-97.04,13.3-85.3-68.87-97.43-63.39c-12.13,5.48,10.96,92.74,104.48,99.78,93.52,7.04,98.61-48.52,98.61-48.52"/>
      <path class="cls-8" d="m844.09,777.74c4.71,6.35,8.9,13.58,14.48,19.36,8.35,8.86,18.72,14.81,30.51,17.01,3.3.65,6.62.94,10,.38,8.12-1.26,15.67-5.44,24.01-9.09,7.73-3.58,19.31-7.55,29.37-5.71,20.97,3.72,30.61,21.64,31.58,41.08.81,17.19-4.47,33.45-14.02,47.24-13.23,19.12-34.56,31.34-56.71,37.06-60.07,16.45-124.47-13.91-161.94-61.18-5.39-7.16-9.96-14.59-12.49-23.48-1-3.88-1.65-7.65-1.19-12.03.33-6.9,6.19-12.22,13.09-11.88s12.21,6.19,11.88,13.09c.17-.02.31.27.5.7,1.67,3.82,4.05,7.78,6.61,11.39,30.3,42.03,87.99,70.93,139.27,54.81,17.32-5.11,33.89-15.83,41.77-32.48,4.55-9.61,6.48-21.62,2.68-31.19-.64-1.58-1.21-2.28-1.91-3.18-.22-.1-.17-.21-.45-.35-.95-.69-2.2-1.35-3.23-1.49-4.36-.36-7.88,1.3-13.37,3.58-4.15,1.81-8.77,4.07-13.94,6.14-9.43,3.97-21.67,6.72-32.46,5.02-24.92-3.23-47.44-18.83-60.55-39.87-3.08-5.09-5.56-10.55-6.98-16.36-5.07-15.76,17.15-23.95,23.48-8.58h0Z"/>
    </g>
    <g>
      <path class="cls-13" d="m552.17,735.86s-54.78,7.83-94.3-33.26c-4.21-4.38-10.96-13.3-13.3-28.96-3.15-21.03-13.11-35.41-39.52-28.83-38.99,9.72-47.11,67.4-11.48,118.7,40.96,58.96,133.04,78.78,224.87,36.52"/>
      <path class="cls-4" d="m380.52,683.69s14.09,62.61,70.43,85.57,153.91-11.48,153.91-11.48c0,0,2.09,42.26-8.87,54.78-10.96,12.52-173.74,30.78-208.7-68.35"/>
      <path class="cls-8" d="m553.94,748.24c-32.67,6.27-69.77-5.15-95.44-25.97-3.81-3.03-7.44-6.49-10.86-9.95-6.94-7.17-11.95-16.54-14.65-25.72-2.52-7.62-2.42-16.5-6.12-23.46-2.07-4.13-5.32-5.74-9.69-5.68-7.79.06-16.56,2.93-21.89,8.96-5.93,6.24-8.97,15.82-9.75,24.48-1.96,21.84,6.53,44.63,18.84,62.93,11.18,16.79,27.23,30.09,45.29,38.98,47.05,23.3,103.28,18.26,151.19-.2,4.1-1.33,8.72-3.01,12.94-4.09,14.01-3.43,21.96,15.03,9.87,22.87-5.4,3.38-11.12,6.16-16.98,8.63-29.82,11.64-61.89,17.6-93.99,16.56-45.76-1.29-92.91-18.98-122.97-54.62-21.65-26.09-35.81-59.24-32.76-93.89,1.62-16.13,7.59-31.78,19.57-43.37,11.04-10.49,25.78-15.73,41.03-15.72,25.34.29,37.97,19.73,41.03,42.62,1.2,7.98,4.2,15.92,9.76,21.52.42.43,1.65,1.63,2.09,2.08,13.27,12.97,30.23,21.32,48.49,25.03,9.8,1.94,19.89,2.9,29.88,3.18,0,0,.91.03.91.03.26.02.66,0,.68.05l7.66,16.67c1.58,3.33-.51,7.41-4.13,8.08h0Z"/>
    </g>
    <g>
      <path class="cls-13" d="m557.65,782.03s-14.87,40.7-57.91,46.57c-27.93,3.81-48.78-26.22-69.65-10.57-18.97,14.23-16.45,80.62,58.96,95.22,80.87,15.65,151.96-60,150.78-84.26"/>
      <path class="cls-4" d="m433.22,862.64s37.57,25.43,97.04,13.3c59.48-12.13,85.3-68.87,97.43-63.39,12.13,5.48-10.96,92.74-104.48,99.78-93.52,7.04-98.61-48.52-98.61-48.52"/>
      <path class="cls-8" d="m569.39,786.32c-2.82,11.48-9.53,21.41-17.53,29.98-12.78,13.92-31.02,23.76-50,26.24-16.66,2.59-32.37-4.64-46.4-11.16-4.14-1.84-7.85-3.16-10.41-3.52-2.55-.35-3.84-.12-5.84,1.2,0,0-.35.24-.35.24-.28.14-.22.25-.45.35-.72.89-1.27,1.6-1.91,3.18-4.13,10.46-1.5,23.67,3.98,33.75,8.37,15.24,24.04,25.05,40.47,29.91,40.81,12.97,85.36-3.08,116.97-30.46,12.04-10.33,22.55-22.5,29.41-36.44-.16-16.56,23.5-17.77,24.97-1.21.95,10.54-3.65,20.12-8.85,28.63-13.6,20.43-32.34,36.38-52.99,49.08-34.99,21.43-77.92,30.17-117.76,17.87-23.61-6.88-45.59-21.54-57.46-43.6-15.08-26.3-14.6-73.76,22.3-80.68,23.51-3.81,41.01,17.06,60.44,14.89,12.9-1.71,24.44-7.88,33.45-17.48,5.58-5.78,9.77-13.01,14.48-19.36,6.28-15.31,28.54-7.27,23.48,8.58h0Z"/>
    </g>
    <g>
      <path class="cls-13" d="m911.39,634.91c0,.71,0,1.43-.02,2.14-1.23,97.52-66.98,179.5-156.53,205.21-19,5.46-39.08,8.38-59.84,8.38-119.51,0-216.39-96.88-216.39-216.39s96.88-216.39,216.39-216.39c13.84,0,27.39,1.3,40.51,3.78,97.49,18.47,171.85,102.33,175.72,204.25.03.65.05,1.3.06,1.95.02.49.03.98.04,1.47.03.93.04,1.86.04,2.79,0,.94.02,1.87.02,2.81Z"/>
      <path class="cls-4" d="m911.39,634.91c0,.71,0,1.43-.02,2.14-1.23,97.52-66.98,179.5-156.53,205.21,71.84-27.41,124.02-109.87,124.02-207.35,0-106.03-61.73-194.29-143.35-213.27-6.72-1.56-13.58-2.65-20.55-3.25,4.25-.35,8.54-.53,12.87-.53,98.82,0,179.4,92.33,183.4,208.03.03.65.05,1.3.06,1.95.02.49.03.98.04,1.47.02.93.03,1.86.04,2.79,0,.94.02,1.87.02,2.81Z"/>
      <path class="cls-4" d="m479.39,634.91c0,.71,0,1.43.02,2.14,1.23,97.52,66.98,179.5,156.53,205.21-71.84-27.41-124.02-109.87-124.02-207.35,0-106.03,61.73-194.29,143.35-213.27,6.72-1.56,13.58-2.65,20.55-3.25-4.25-.35-8.54-.53-12.87-.53-98.82,0-179.4,92.33-183.4,208.03-.03.65-.05,1.3-.06,1.95-.02.49-.03.98-.04,1.47-.02.93-.03,1.86-.04,2.79,0,.94-.02,1.87-.02,2.81Z"/>
      <path class="cls-8" d="m816.39,827.89c-4.78,0-9.48-2.28-12.39-6.52-4.68-6.83-2.94-16.17,3.9-20.85,54.92-37.63,87.71-99.78,87.71-166.26,0-110.92-90.13-201.18-201-201.39-110.87.21-201,90.47-201,201.39,0,66.48,32.79,128.63,87.71,166.26,6.83,4.68,8.58,14.02,3.9,20.85-4.68,6.83-14.02,8.58-20.85,3.9-63.09-43.23-100.75-114.63-100.75-191.01,0-61.81,24.07-119.91,67.77-163.62s101.16-67.5,162.57-67.77c.09,0,.18,0,.27,0h.78c.09,0,.18,0,.27,0,61.41.27,119.11,24.32,162.57,67.77,43.7,43.7,67.77,101.81,67.77,163.62,0,76.38-37.66,147.78-100.75,191.01-2.59,1.78-5.54,2.63-8.46,2.63Z"/>
      <g>
        <circle class="cls-8" cx="589.58" cy="533.55" r="21.78"/>
        <circle class="cls-8" cx="631.4" cy="496.44" r="15.91"/>
        <circle class="cls-8" cx="641.32" cy="537.76" r="13.17"/>
      </g>
    </g>
    <g>
      <path class="cls-13" d="m852.5,928.97c-18.33-24.07-50.11,10.86-80.02-30.33-7.9-10.87-12.68-22.35-15.49-33.14.06-1.38.1-2.77.1-4.16,0-9.02-1.34-17.66-3.8-25.65,0-2.33.08-24.47.19-26.43h-116.96c.11,1.96.19,24.11.19,26.43-2.46,8-3.8,16.64-3.8,25.65,0,1.4.04,2.78.1,4.16-2.82,10.79-7.6,22.27-15.49,33.14-29.92,41.19-61.7,6.26-80.02,30.33-16.54,21.72.68,73.86,70.63,69.85,53.18-3.05,73.61-35.3,81.02-63.47,1.93.22,3.88.34,5.85.34s3.92-.12,5.85-.34c7.4,28.17,27.84,60.42,81.02,63.47,69.95,4.01,87.17-48.12,70.63-69.85Z"/>
      <path class="cls-4" d="m547.48,977.3s43.43,1.57,81.78-18.78c38.35-20.35,53.22-46.57,53.22-46.57,0,0,.39,42.65-29.35,70.43s-90,11.74-90,11.74"/>
      <path class="cls-8" d="m647.36,814.66c2.53,4.87,3.11,10.33,3.29,15.69.21,5.13.18,10.25-.19,15.37-1.81,26.14-11.4,52.34-29.98,71.43-8.1,8.41-20,15-31.76,16.7-10.09,1.73-20.75.25-29.73.13-3.62,0-5.86.5-7.05,1.13-.63.37-1.21.65-1.85,1.37-2.44,2.5-3.52,5.45-3.88,9.41-.81,13.09,7.89,24.64,19.4,30.94,19.42,10.66,47.99,9.62,68.57,2.6.91-.34,3.14-1.26,4.01-1.58.81-.38,3.02-1.43,3.86-1.82.84-.44,2.89-1.62,3.7-2.04.75-.47,2.75-1.79,3.53-2.27,14.34-9.86,23.13-25.87,26.96-42.67,2.18-8.21,1.96-16.91,4.59-25.05,4.07-12.35,21.63-11.55,24.71.91,2.29,10.15.11,20.48-1.97,30.5-2.34,10.2-5.96,20.16-11.11,29.39-9.11,16.67-23.78,30.39-41.11,38.24-24.82,11.39-58.34,13.56-84.43,5.48-28.23-8.37-51.92-33.85-49.49-65.02,1.9-22.63,18.25-38.96,41.46-38.32,9.39-.01,17.14,1.5,25.28.29,10.3-1.77,16.55-7.76,23.15-17.13,4.46-6.46,7.92-13.55,10.38-21.04,3.76-11.32,5.31-23.73,4.85-35.75-.14-3.74-.69-7.49.12-11.17.03-.11.05-.24.09-.33.04-.07.06-.24.13-.19-2.81-16.29,20.32-21.33,24.45-5.19h0Z"/>
      <path class="cls-4" d="m842.52,977.3s-43.43,1.57-81.78-18.78c-38.35-20.35-53.22-46.57-53.22-46.57,0,0-.39,42.65,29.35,70.43,29.74,27.78,90,11.74,90,11.74"/>
      <path class="cls-8" d="m767.1,819.85c.08-.06.09.11.13.19.04.09.07.22.09.33.81,3.68.26,7.43.12,11.17-.14,4.05-.09,8.13.22,12.17,1.2,15.95,5.94,31.48,15.01,44.62,4.4,6.48,9.42,11.55,14.66,14.32,10.65,5.55,21.37,2.41,33.78,2.52,6.4,0,13.49.92,19.75,4.09,25.67,13.1,26.98,47.78,12.78,69.32-18.2,29.03-55.14,37.35-87.08,34.12-39.83-3.34-71.52-24.15-85.69-62.35-4.31-12.16-7.32-24.88-7.37-37.77.07-2.56.34-5.13.96-7.68,1.67-6.89,8.61-11.13,15.5-9.46,7.8,1.95,9.81,8.65,10.88,15.56.92,6.02,1.44,12.16,2.92,18.05,4.01,17.68,13.63,34.59,29.31,44.18,1.3.9,3.5,2.01,4.88,2.8,1.47.66,3.69,1.8,5.2,2.34,27.68,11.07,79.51,10.5,89.78-23.76,1.79-6.79,1.41-15.75-4.86-19.5-1.19-.63-3.43-1.13-7.05-1.13-9,.12-19.63,1.6-29.73-.13-11.76-1.7-23.65-8.29-31.75-16.7-18.59-19.09-28.17-45.3-29.98-71.43-.37-5.12-.4-10.24-.19-15.37.18-5.36.76-10.83,3.29-15.69,4.06-16.04,27.24-11.21,24.45,5.19h0Z"/>
    </g>
    <circle class="cls-9" cx="695" cy="679.21" r="175.43"/>
  </g>
  <g>
    <path class="cls-2" d="m209.59,144.79l-15.01-49.99v49.99h-11.95v-61.31h22.2l10.68,36.69,11.24-36.69h22.27v61.31h-14.36v-49.99l-15.31,49.99h-9.76Z"/>
    <path class="cls-2" d="m275.36,83.49v61.31h-14.22v-61.31h14.22Z"/>
    <path class="cls-2" d="m329.62,96.96l-12.13,4.09c-1.63-4.85-5.09-7.28-10.36-7.28-5.63,0-8.45,1.84-8.45,5.52,0,1.47.53,2.71,1.58,3.73,1.05,1.02,3.43,1.9,7.14,2.65,6.2,1.26,10.74,2.54,13.62,3.82,2.88,1.29,5.31,3.36,7.28,6.22,1.97,2.86,2.96,6.05,2.96,9.59,0,5.54-2.12,10.33-6.35,14.37-4.23,4.04-10.5,6.06-18.82,6.06-6.24,0-11.54-1.43-15.92-4.29-4.38-2.86-7.27-7.1-8.66-12.73l13.2-3.01c1.48,5.72,5.61,8.58,12.37,8.58,3.26,0,5.69-.64,7.3-1.91,1.6-1.27,2.4-2.79,2.4-4.56s-.73-3.19-2.18-4.18c-1.45-.99-4.26-1.92-8.41-2.79-7.75-1.62-13.27-3.83-16.56-6.63-3.29-2.8-4.94-6.89-4.94-12.28s1.97-10.04,5.9-13.79,9.27-5.61,16.01-5.61c11.94,0,19.61,4.81,23.03,14.42Z"/>
    <path class="cls-2" d="m382.63,96.96l-12.13,4.09c-1.63-4.85-5.09-7.28-10.36-7.28-5.63,0-8.45,1.84-8.45,5.52,0,1.47.53,2.71,1.58,3.73,1.05,1.02,3.43,1.9,7.14,2.65,6.2,1.26,10.74,2.54,13.62,3.82,2.88,1.29,5.31,3.36,7.28,6.22,1.97,2.86,2.96,6.05,2.96,9.59,0,5.54-2.12,10.33-6.35,14.37-4.23,4.04-10.5,6.06-18.82,6.06-6.24,0-11.54-1.43-15.92-4.29-4.38-2.86-7.27-7.1-8.66-12.73l13.2-3.01c1.48,5.72,5.61,8.58,12.37,8.58,3.26,0,5.69-.64,7.3-1.91,1.6-1.27,2.4-2.79,2.4-4.56s-.73-3.19-2.18-4.18c-1.45-.99-4.26-1.92-8.41-2.79-7.75-1.62-13.27-3.83-16.56-6.63-3.29-2.8-4.94-6.89-4.94-12.28s1.97-10.04,5.9-13.79,9.27-5.61,16.01-5.61c11.94,0,19.61,4.81,23.03,14.42Z"/>
    <path class="cls-2" d="m407.82,83.49v61.31h-14.22v-61.31h14.22Z"/>
    <path class="cls-2" d="m442.88,145.74c-8.2,0-14.54-3.1-19.02-9.3-4.48-6.2-6.73-13.7-6.73-22.5s2.27-16.42,6.82-22.41c4.54-5.99,11.02-8.98,19.42-8.98s14.9,3.2,19.22,9.59c4.32,6.39,6.48,13.71,6.48,21.94,0,8.89-2.23,16.39-6.68,22.5-4.46,6.11-10.96,9.16-19.51,9.16Zm.4-51.47c-7.47,0-11.21,6.62-11.21,19.85s3.74,19.9,11.21,19.9,10.86-6.62,10.86-19.85-3.62-19.9-10.86-19.9Z"/>
    <path class="cls-2" d="m525.21,83.49v61.31h-12.16l-23.82-41.41c.03,1.05.06,1.74.09,2.07.12,1.05.18,1.93.18,2.65v36.69h-11.1v-61.31h15.37l20.7,36.15c-.18-1.8-.27-3.16-.27-4.09v-32.07h11.01Z"/>
    <path class="cls-2" d="m609.33,106.3l-14.94.94c-.21-8.65-3.56-12.98-10.05-12.98-7.45,0-11.17,6.66-11.17,19.99,0,7.7,1.01,12.91,3.04,15.65,2.03,2.74,4.85,4.11,8.49,4.11,5.9,0,9.5-3.86,10.81-11.59l13.82.85c-.89,7.34-3.6,12.91-8.14,16.73-4.53,3.82-10.08,5.73-16.65,5.73-8.05,0-14.6-2.8-19.64-8.4s-7.56-13.34-7.56-23.22c0-9.25,2.44-16.83,7.31-22.73,4.87-5.9,11.53-8.85,19.97-8.85,14.62,0,22.86,7.92,24.7,23.76Z"/>
    <path class="cls-2" d="m640.39,145.74c-8.2,0-14.54-3.1-19.02-9.3-4.48-6.2-6.73-13.7-6.73-22.5s2.27-16.42,6.82-22.41c4.54-5.99,11.02-8.98,19.42-8.98s14.9,3.2,19.22,9.59c4.32,6.39,6.48,13.71,6.48,21.94,0,8.89-2.23,16.39-6.68,22.5-4.46,6.11-10.96,9.16-19.51,9.16Zm.4-51.47c-7.47,0-11.21,6.62-11.21,19.85s3.74,19.9,11.21,19.9,10.86-6.62,10.86-19.85-3.62-19.9-10.86-19.9Z"/>
    <path class="cls-2" d="m722.71,83.49v61.31h-12.16l-23.82-41.41c.03,1.05.06,1.74.09,2.07.12,1.05.18,1.93.18,2.65v36.69h-11.1v-61.31h15.37l20.7,36.15c-.18-1.8-.27-3.16-.27-4.09v-32.07h11.01Z"/>
    <path class="cls-2" d="m773.49,83.49v12.13h-15.07v49.18h-14.45v-49.18h-15.16v-12.13h44.67Z"/>
    <path class="cls-2" d="m793.95,120.5v24.3h-14.36v-61.31h26.75c4.93,0,8.89.58,11.88,1.73s5.46,3.27,7.42,6.35c1.96,3.08,2.94,6.51,2.94,10.28,0,7.36-3.52,12.64-10.57,15.84l11.23,27.1h-15.75l-9.35-24.3h-10.21Zm0-26.09v15.63h8.74c2.85,0,4.93-.2,6.22-.61s2.45-1.3,3.46-2.7c1.01-1.39,1.52-2.99,1.52-4.78s-.51-3.23-1.52-4.58c-1.01-1.35-2.11-2.18-3.3-2.49s-3.42-.47-6.69-.47h-8.43Z"/>
    <path class="cls-2" d="m861.25,145.74c-8.2,0-14.54-3.1-19.02-9.3-4.48-6.2-6.73-13.7-6.73-22.5s2.27-16.42,6.82-22.41c4.54-5.99,11.02-8.98,19.42-8.98s14.9,3.2,19.22,9.59c4.32,6.39,6.48,13.71,6.48,21.94,0,8.89-2.23,16.39-6.68,22.5-4.46,6.11-10.96,9.16-19.51,9.16Zm.4-51.47c-7.47,0-11.21,6.62-11.21,19.85s3.74,19.9,11.21,19.9,10.86-6.62,10.86-19.85-3.62-19.9-10.86-19.9Z"/>
    <path class="cls-2" d="m911.21,132.67h24.21v12.13h-38.65v-61.31h14.45v49.18Z"/>
    <path class="cls-2" d="m979.91,120.5v24.3h-14.36v-61.31h26.75c4.93,0,8.89.58,11.88,1.73s5.46,3.27,7.42,6.35c1.96,3.08,2.94,6.51,2.94,10.28,0,7.36-3.52,12.64-10.57,15.84l11.23,27.1h-15.75l-9.35-24.3h-10.21Zm0-26.09v15.63h8.74c2.85,0,4.93-.2,6.22-.61s2.45-1.3,3.46-2.7c1.01-1.39,1.52-2.99,1.52-4.78s-.51-3.23-1.52-4.58c-1.01-1.35-2.11-2.18-3.3-2.49s-3.42-.47-6.69-.47h-8.43Z"/>
    <path class="cls-2" d="m1047.21,145.74c-8.2,0-14.54-3.1-19.02-9.3-4.48-6.2-6.73-13.7-6.73-22.5s2.27-16.42,6.82-22.41c4.54-5.99,11.02-8.98,19.42-8.98s14.9,3.2,19.22,9.59c4.32,6.39,6.48,13.71,6.48,21.94,0,8.89-2.23,16.39-6.68,22.5-4.46,6.11-10.96,9.16-19.51,9.16Zm.4-51.47c-7.47,0-11.21,6.62-11.21,19.85s3.74,19.9,11.21,19.9,10.86-6.62,10.86-19.85-3.62-19.9-10.86-19.9Z"/>
    <path class="cls-2" d="m1105.57,145.74c-8.2,0-14.54-3.1-19.02-9.3-4.48-6.2-6.73-13.7-6.73-22.5s2.27-16.42,6.82-22.41c4.54-5.99,11.02-8.98,19.42-8.98s14.9,3.2,19.22,9.59c4.32,6.39,6.48,13.71,6.48,21.94,0,8.89-2.23,16.39-6.68,22.5-4.46,6.11-10.96,9.16-19.51,9.16Zm.4-51.47c-7.47,0-11.21,6.62-11.21,19.85s3.74,19.9,11.21,19.9,10.86-6.62,10.86-19.85-3.62-19.9-10.86-19.9Z"/>
    <path class="cls-2" d="m1168.04,144.79l-15.01-49.99v49.99h-11.95v-61.31h22.2l10.68,36.69,11.24-36.69h22.27v61.31h-14.36v-49.99l-15.31,49.99h-9.76Z"/>
  </g>
  <path class="cls-15" d="m167.6,530.14l-26.51,9.66c-1.83.67-3.32-.53-3.33-2.68l-.26-108.29c0-2.14,1.47-4.42,3.3-5.08l26.47-9.55c1.83-.66,3.31.54,3.32,2.68l.3,108.17c0,2.15-1.47,4.43-3.3,5.09Z"/>
  <path class="cls-16" d="m213.22,513.52l-26.43,9.63c-1.83.67-3.31-.53-3.32-2.68l-.45-155.56c0-2.14,1.47-4.4,3.29-5.06l26.39-9.49c1.82-.65,3.3.55,3.31,2.68l.51,155.39c0,2.14-1.47,4.42-3.29,5.08Z"/>
  <path class="cls-7" d="m258.71,496.95l-26.36,9.6c-1.82.66-3.3-.53-3.31-2.68l-.44-127.66c0-2.14,1.46-4.4,3.28-5.05l26.32-9.48c1.82-.65,3.29.54,3.3,2.68l.48,127.52c0,2.14-1.46,4.41-3.28,5.07Z"/>
  <path class="cls-6" d="m304.08,480.42l-26.29,9.58c-1.82.66-3.3-.54-3.3-2.67l-.39-98.14c0-2.13,1.46-4.39,3.27-5.05l26.26-9.49c1.81-.65,3.29.54,3.3,2.67l.42,98.03c0,2.14-1.45,4.4-3.27,5.06Z"/>
  <path class="cls-15" d="m349.33,463.93l-26.22,9.55c-1.81.66-3.29-.54-3.3-2.67l-.67-151.12c0-2.13,1.45-4.38,3.26-5.03l26.18-9.41c1.81-.65,3.28.55,3.29,2.67l.73,150.95c.01,2.13-1.45,4.4-3.26,5.05Z"/>
  <rect class="cls-10" x="519.3" y="270.61" width="65.74" height="20.35" rx="1.89" ry="1.89"/>
  <rect class="cls-7" x="831.96" y="270.61" width="46.57" height="20.35" rx="1.89" ry="1.89"/>
  <rect class="cls-12" x="831.96" y="297.22" width="46.57" height="20.35" rx="1.89" ry="1.89"/>
  <rect class="cls-6" x="519.3" y="298.78" width="80.61" height="20.35" rx="1.89" ry="1.89"/>
  <rect class="cls-6" x="519.3" y="326.96" width="80.61" height="20.35" rx="1.89" ry="1.89"/>
  <g>
    <path class="cls-14" d="m1233.43,442.37c.04-2.03-.03-4.12-.22-6.27-2.3-26.36-21.13-54.29-47.02-73.59l-33.76,49.54,81,30.31Z"/>
    <path class="cls-6" d="m1138.88,415.92l33.79-49.56c-12.02-8.96-25.57-16.07-39.71-20.28-44.62-13.31-78.24,7.13-75.04,45.75,3.2,38.69,42.13,80.9,86.9,94.19,42.24,12.54,74.47-5.19,75.09-39.77l-81.03-30.32Z"/>
  </g>
  <g>
    <path class="cls-15" d="m859.18,382.13c0,4.44-1.17,8.6-3.22,12.21l15.16,8.75c3.54-6.19,5.57-13.34,5.57-20.97,0-23.37-19.02-42.39-42.39-42.39v17.52c13.72,0,24.87,11.16,24.87,24.87Z"/>
    <path class="cls-16" d="m855.96,394.35c-4.28,7.55-12.38,12.66-21.66,12.66s-17.38-5.11-21.66-12.66l-15.16,8.75c7.31,12.78,21.07,21.42,36.82,21.42s29.51-8.64,36.82-21.42l-15.16-8.75Z"/>
    <path class="cls-6" d="m809.43,382.13c0-13.72,11.16-24.87,24.87-24.87v-17.52c-23.37,0-42.39,19.02-42.39,42.39,0,7.63,2.03,14.78,5.57,20.97l15.16-8.75c-2.04-3.61-3.22-7.78-3.22-12.21Z"/>
  </g>
  <path class="cls-15" d="m566.26,405.26c-.57,0-1.13-.24-1.52-.7-.72-.84-.61-2.1.23-2.82l34.96-29.74c.47-.4,1.1-.56,1.71-.43l36.56,7.79,36.21-36.46c.68-.68,1.74-.79,2.54-.25l30.17,20.42,32.23-51.65c.29-.46.75-.79,1.29-.9.53-.11,1.09,0,1.54.31l29.91,20.44,32.22-33.23c.77-.79,2.04-.81,2.83-.04.79.77.81,2.04.04,2.83l-33.39,34.43c-.68.7-1.76.81-2.56.26l-29.58-20.21-32.22,51.64c-.29.46-.75.79-1.28.9s-1.09,0-1.54-.3l-30.52-20.66-35.81,36.06c-.48.48-1.17.69-1.84.55l-36.67-7.82-34.21,29.1c-.38.32-.84.48-1.29.48Z"/>
  <path class="cls-15" d="m807.11,311.35c-.07,0-.14,0-.2-.01-1.1-.11-1.9-1.09-1.79-2.19l.98-9.61-10.01-1.31c-1.1-.14-1.87-1.15-1.72-2.24.14-1.1,1.15-1.86,2.24-1.72l11.93,1.57c1.07.14,1.84,1.11,1.73,2.19l-1.17,11.54c-.1,1.03-.97,1.8-1.99,1.8Z"/>
  <g>
    <circle class="cls-3" cx="601.48" cy="373.52" r="7.04"/>
    <path class="cls-15" d="m601.48,382.57c-4.99,0-9.04-4.06-9.04-9.04s4.06-9.04,9.04-9.04,9.04,4.06,9.04,9.04-4.06,9.04-9.04,9.04Zm0-14.09c-2.78,0-5.04,2.26-5.04,5.04s2.26,5.04,5.04,5.04,5.04-2.26,5.04-5.04-2.26-5.04-5.04-5.04Z"/>
  </g>
  <g>
    <circle class="cls-3" cx="675.83" cy="345.15" r="7.04"/>
    <path class="cls-15" d="m675.83,354.2c-4.99,0-9.04-4.06-9.04-9.04s4.06-9.04,9.04-9.04,9.04,4.06,9.04,9.04-4.06,9.04-9.04,9.04Zm0-14.09c-2.78,0-5.04,2.26-5.04,5.04s2.26,5.04,5.04,5.04,5.04-2.26,5.04-5.04-2.26-5.04-5.04-5.04Z"/>
  </g>
  <g>
    <circle class="cls-3" cx="740.78" cy="313.26" r="7.04"/>
    <path class="cls-15" d="m740.78,322.3c-4.99,0-9.04-4.06-9.04-9.04s4.06-9.04,9.04-9.04,9.04,4.06,9.04,9.04-4.06,9.04-9.04,9.04Zm0-14.09c-2.78,0-5.04,2.26-5.04,5.04s2.26,5.04,5.04,5.04,5.04-2.26,5.04-5.04-2.26-5.04-5.04-5.04Z"/>
  </g>
  <g>
    <circle class="cls-3" cx="707.91" cy="365.89" r="7.04"/>
    <path class="cls-15" d="m707.91,374.93c-4.99,0-9.04-4.06-9.04-9.04s4.06-9.04,9.04-9.04,9.04,4.06,9.04,9.04-4.06,9.04-9.04,9.04Zm0-14.09c-2.78,0-5.04,2.26-5.04,5.04s2.26,5.04,5.04,5.04,5.04-2.26,5.04-5.04-2.26-5.04-5.04-5.04Z"/>
  </g>
  <g>
    <circle class="cls-3" cx="639.57" cy="380.24" r="7.04"/>
    <path class="cls-15" d="m639.57,389.28c-4.99,0-9.04-4.06-9.04-9.04s4.06-9.04,9.04-9.04,9.04,4.06,9.04,9.04-4.06,9.04-9.04,9.04Zm0-14.09c-2.78,0-5.04,2.26-5.04,5.04s2.26,5.04,5.04,5.04,5.04-2.26,5.04-5.04-2.26-5.04-5.04-5.04Z"/>
  </g>
  <g>
    <circle class="cls-3" cx="772.87" cy="333.8" r="7.04"/>
    <path class="cls-15" d="m772.87,342.85c-4.99,0-9.04-4.06-9.04-9.04s4.06-9.04,9.04-9.04,9.04,4.06,9.04,9.04-4.06,9.04-9.04,9.04Zm0-14.09c-2.78,0-5.04,2.26-5.04,5.04s2.26,5.04,5.04,5.04,5.04-2.26,5.04-5.04-2.26-5.04-5.04-5.04Z"/>
  </g>
</svg>