<?xml version="1.0" encoding="UTF-8"?>
<svg id="Delphi" xmlns="http://www.w3.org/2000/svg" viewBox="0 0 800 800">
  <defs>
    <style>
      .cls-1 {
        fill: #fff;
      }

      .cls-2 {
        fill: #d1e0f6;
      }

      .cls-3 {
        fill: #c9c9c9;
      }

      .cls-4 {
        fill: #182d33;
      }

      .cls-5 {
        fill: gray;
      }

      .cls-6, .cls-7 {
        fill: #f72d2d;
      }

      .cls-7 {
        opacity: .25;
      }

      .cls-8 {
        fill: #efefef;
      }

      .cls-9 {
        fill: #0b90df;
      }
    </style>
  </defs>
  <g>
    <path class="cls-9" d="m535.07,451.61s55.34.35,88.95-45.7c3.58-4.91,9.06-14.66,9.27-30.49.28-21.26,8.2-36.86,35.27-33.9,39.95,4.37,55.78,60.42,27.41,116.06-32.62,63.95-121.18,96.03-217.87,66.56"/>
    <path class="cls-2" d="m698.1,376.73s-5.5,63.94-58.23,94.3c-52.73,30.36-154.05,9.42-154.05,9.42,0,0,3.64,42.16,16.19,53.08,12.55,10.93,176.3,7.03,197.55-95.91"/>
    <path class="cls-4" d="m535.15,439.11c30.87-4.94,58.11-15.22,77.2-41.18,3.38-4.56,5.25-9.68,6.19-15.62.9-5.92.37-11.7,1.36-17.85,1.18-8.28,3.89-16.7,9.64-23.67,10.72-13.35,29.21-15.69,44.98-12.79,17.03,3.05,31.45,14.51,39.58,29.35,20.07,37.06,9.5,84.06-11.85,117.98-41.9,65.25-128.35,83.97-200.52,69.11-6.24-1.26-12.41-2.81-18.44-4.83-2.99-1.08-5.96-2.22-8.86-3.52-6.35-2.84-9.19-10.28-6.36-16.63,2.31-5.17,7.68-8.02,13.03-7.36,3.1.37,6.15.91,9.16,1.53,2.12.4,6.33,1.17,8.43,1.64,16.65,3.53,33.69,5.92,50.69,5.79,35.96-.04,72.9-9.48,101.54-31.67,14.93-11.43,27.09-26.45,34.76-43.64,9.01-20.07,13.6-43.69,7.48-64.74-2.31-7.76-6.77-15.67-13.2-20.36-6.01-4.49-14.49-5.93-21.73-4.99-2.63.39-5.11,1.18-6.79,3.22-3.4,4.43-3.8,10.98-4,16.79-.19,15.09-4.75,30.15-14.72,42.02-14.62,18.75-35.36,32.73-57.65,40.36-12.87,4.4-26.47,6.94-40.09,6.02-3.67-.17-6.28-3.92-5.19-7.42,0,0,5.35-17.58,5.35-17.58h0Z"/>
  </g>
  <g>
    <path class="cls-9" d="m653.74,514.63c-.09-.46-.15-.92-.19-1.38-13.31-11.37-31.15-19.45-45.03-24.37-27.87-9.87-57.06-55.4-57.06-55.4l-54.29,91.98c29.74,76.63,131.28,72.11,164.22,46.05.34-19.38-3.95-37.47-7.64-56.88Z"/>
    <path class="cls-4" d="m599.28,602.54c-13.09,0-26.33-1.61-38.68-4.96-25.74-7-59.9-24.31-76.48-67.04-1.55-4-1.18-8.49,1-12.18l54.29-91.98c2.47-4.19,6.94-6.79,11.8-6.88.09,0,.17,0,.26,0,4.76,0,9.21,2.42,11.78,6.44,7.42,11.54,30.88,43,49.96,49.76,13.98,4.95,33.91,13.64,49.45,26.92,2.77,2.37,4.51,5.72,4.85,9.34v.13c.56,2.88,1.12,5.72,1.68,8.54,3.21,16.32,6.53,33.19,6.21,51.13-.07,4.19-2.02,8.13-5.31,10.73-16.31,12.91-43.21,20.04-70.8,20.04Zm-86.44-76.08c13.13,27.46,36.88,39.14,55.11,44.09,29.65,8.07,62.12,3.15,79.34-6.45-.56-12.53-3.01-25-5.58-38.07-.34-1.71-.67-3.43-1.01-5.16-12.48-9.38-28.13-15.71-36.84-18.8-19.93-7.06-39.05-27.62-51.22-43.04l-39.8,67.42Zm148.55,45.06h0,0Z"/>
  </g>
  <circle class="cls-9" cx="387.52" cy="326.17" r="216.39"/>
  <g>
    <circle class="cls-4" cx="519.79" cy="346.39" r="44.61"/>
    <circle class="cls-1" cx="529.5" cy="346.61" r="15.46"/>
  </g>
  <g>
    <circle class="cls-4" cx="315.07" cy="346.39" r="44.61"/>
    <circle class="cls-1" cx="324.78" cy="346.61" r="15.46"/>
  </g>
  <path class="cls-2" d="m208.31,323.89c0,57.45,20.36,109.94,53.98,150.07h-37.51c-36.18-38.68-58.34-90.65-58.34-147.79,0-105.49,75.48-193.35,175.38-212.51-78.48,34.74-133.51,115.79-133.51,210.23Z"/>
  <path class="cls-4" d="m387.52,557.57c-61.81,0-119.91-24.07-163.62-67.77-43.7-43.7-67.77-101.81-67.77-163.62s24.07-119.91,67.77-163.62c43.7-43.7,101.81-67.77,163.62-67.77s119.91,24.07,163.62,67.77,67.77,101.81,67.77,163.62-24.07,119.91-67.77,163.62-101.81,67.77-163.62,67.77Zm0-432.78c-111.05,0-201.39,90.34-201.39,201.39s90.34,201.39,201.39,201.39,201.39-90.34,201.39-201.39-90.34-201.39-201.39-201.39Z"/>
  <g>
    <circle class="cls-4" cx="517.96" cy="219.35" r="23.61"/>
    <circle class="cls-4" cx="467.35" cy="176.04" r="21.78"/>
    <circle class="cls-4" cx="442.24" cy="225.67" r="15.91"/>
    <circle class="cls-4" cx="409.7" cy="154.52" r="13.17"/>
  </g>
  <path class="cls-4" d="m455.47,378.02c-5.07,15.64-20.66,26.33-37.03,26.16-16.36.17-31.97-10.52-37.03-26.16-4.06-13.49,14.12-21.22,21.05-9.09,1.68,3.35,4.08,6.04,6.89,7.74,8.86,5.4,20.62,1.83,25.06-7.74,7.01-12.22,25.14-4.29,21.05,9.08h0Z"/>
  <g>
    <path class="cls-9" d="m255.89,480.91s-12.26,61.44-52.55,77.69c-26.15,10.54-53.72-13.45-70.12,6.84-14.9,18.45,3.82,82.19,80.51,77.85,82.24-4.66,132.6-95.44,125.51-118.67"/>
    <path class="cls-2" d="m147.21,607.92s42.66,15.44,97.34-10.91c54.69-26.35,65.81-87.69,78.91-85.35,13.1,2.34,12.13,92.59-76.81,122.36-88.94,29.77-107.5-22.85-107.5-22.85"/>
    <path class="cls-4" d="m264.15,497.22c-.71,11.54-4.88,22.41-10.35,32.51-10.97,20.58-30.41,39.13-53.84,44.6-12.03,2.61-24.11.55-35.12-1.51-6.43-1.06-11.22-2.23-16.35-1.25-1.84.44-2.87,1.31-4.02,2.67,0,0-.14.16-.14.16,0,0-.02.05-.02.05-.16.18-.57.93-.87,2.02-2.27,10.17,2.33,21.24,8.43,29.51,13.23,17.63,36.36,23.9,57.83,23.14,39.61-.69,75.17-26.01,97.67-57.82,9.31-13.09,16.66-27.65,19.93-43.04-4.21-16.02,18.42-22.98,23.91-7.3,7.2,21.54-9.14,49.44-20.87,66.56-25.02,35.57-63.26,63.89-107.3,69.28-41.56,5.21-85.42-8.47-103.33-49.47-6.54-15.78-9.03-35.85,2.41-50.84,4.84-6.14,12.13-10.91,19.7-12.6,9.34-2.35,20.04-.52,28.13,1.01,9.91,1.73,19.13,4.02,28.09.61,13.71-5.47,23.99-16.1,31.14-29.19,3.77-6.91,6.74-14.93,9.78-22.22.15-.37.28-.65.43-1,.02-.05.05-.1.07-.13.02-.02.05-.11.05-.03,1.18-6.8,7.65-11.36,14.45-10.18,6.8,1.18,11.36,7.65,10.18,14.45h0Z"/>
  </g>
  <g>
    <path class="cls-9" d="m247.42,620.89c18.33-24.07,50.11,10.86,80.02-30.33,7.9-10.87,12.68-22.35,15.49-33.14-.06-1.38-.1-2.77-.1-4.16,0-9.02,1.34-17.66,3.8-25.65,0-2.33-.08-24.47-.19-26.43h116.96c-.11,1.96-.19,24.11-.19,26.43,2.46,8,3.8,16.64,3.8,25.65,0,1.4-.04,2.78-.1,4.16,2.82,10.79,7.6,22.27,15.49,33.14,29.92,41.19,61.7,6.26,80.02,30.33,16.54,21.72-.68,73.86-70.63,69.85-53.18-3.05-73.61-35.3-81.02-63.47-1.93.22-3.88.34-5.85.34s-3.92-.12-5.85-.34c-7.4,28.17-27.84,60.42-81.02,63.47-69.95,4.01-87.17-48.12-70.63-69.85Z"/>
    <path class="cls-2" d="m552.44,669.22s-43.43,1.57-81.78-18.78c-38.35-20.35-53.22-46.57-53.22-46.57,0,0-.39,42.65,29.35,70.43s90,11.74,90,11.74"/>
    <path class="cls-4" d="m477.02,511.77c.08-.06.09.11.13.19.04.09.07.22.09.33.81,3.68.26,7.43.12,11.17-.14,4.05-.09,8.13.22,12.17,1.2,15.95,5.94,31.48,15.01,44.62,4.4,6.48,9.41,11.55,14.66,14.32,10.65,5.55,21.37,2.41,33.78,2.52,6.4,0,13.49.92,19.75,4.09,25.67,13.1,26.98,47.78,12.78,69.32-18.2,29.03-55.14,37.34-87.08,34.12-39.83-3.34-71.52-24.15-85.69-62.35-4.31-12.16-7.32-24.88-7.37-37.77.07-2.56.34-5.13.96-7.68,1.67-6.89,8.61-11.13,15.5-9.46,7.8,1.95,9.81,8.65,10.88,15.56.92,6.02,1.44,12.16,2.92,18.05,4.02,17.68,13.63,34.59,29.31,44.18,1.29.9,3.5,2.01,4.88,2.8,1.47.66,3.69,1.8,5.2,2.34,27.68,11.07,79.51,10.5,89.78-23.76,1.79-6.79,1.41-15.75-4.86-19.5-1.19-.63-3.43-1.13-7.05-1.13-9,.12-19.63,1.6-29.73-.13-11.76-1.7-23.65-8.29-31.76-16.7-18.59-19.09-28.17-45.3-29.98-71.43-.37-5.12-.4-10.24-.19-15.37.18-5.36.76-10.83,3.29-15.69,4.06-16.04,27.24-11.21,24.45,5.19h0Z"/>
    <path class="cls-2" d="m257.4,669.22s43.43,1.57,81.78-18.78c38.35-20.35,53.22-46.57,53.22-46.57,0,0,.39,42.65-29.35,70.43-29.74,27.78-90,11.74-90,11.74"/>
    <path class="cls-4" d="m357.28,506.58c2.53,4.87,3.11,10.33,3.29,15.69.21,5.13.18,10.25-.19,15.37-1.81,26.14-11.4,52.34-29.98,71.43-8.1,8.41-20,15-31.76,16.7-10.09,1.73-20.75.25-29.73.13-3.62,0-5.86.5-7.05,1.13-.63.37-1.21.65-1.85,1.37-2.44,2.5-3.52,5.45-3.88,9.41-.81,13.09,7.89,24.64,19.4,30.94,19.42,10.66,47.99,9.62,68.57,2.6.91-.34,3.14-1.26,4.01-1.58.81-.38,3.02-1.43,3.86-1.82.84-.44,2.89-1.62,3.7-2.04.75-.47,2.75-1.79,3.53-2.27,14.34-9.86,23.13-25.87,26.96-42.67,2.18-8.21,1.96-16.91,4.59-25.05,4.07-12.35,21.63-11.55,24.71.91,2.29,10.15.11,20.48-1.97,30.5-2.34,10.2-5.96,20.15-11.11,29.38-9.11,16.67-23.78,30.39-41.11,38.24-24.82,11.39-58.34,13.56-84.43,5.48-28.23-8.37-51.92-33.85-49.49-65.02,1.9-22.63,18.25-38.96,41.46-38.32,9.39-.01,17.14,1.5,25.28.29,10.3-1.77,16.55-7.76,23.15-17.13,4.46-6.46,7.92-13.55,10.38-21.04,3.76-11.32,5.31-23.73,4.85-35.75-.14-3.74-.69-7.49.12-11.17.03-.11.05-.24.09-.33.04-.07.06-.24.13-.19-2.81-16.29,20.32-21.33,24.45-5.19h0Z"/>
  </g>
  <g>
    <path class="cls-3" d="m345.26,410.96s-108.77,116.43-110.81,123.06c-2.04,6.64,54.64,40.85,57.7,40.85s33.7-5.62,36.26-5.62,62.3-73.53,62.3-73.53c0,0,41.36,2.04,44.94,2.04s18.89-21.96,18.89-24.51-21.96-41.87-23.49-41.87-85.79-20.43-85.79-20.43Z"/>
    <path class="cls-5" d="m295.55,566.53l66.46-81.79c2.71-3.33,6.94-5.04,11.2-4.52l23.79,2.91-71.49,83.4"/>
    <path class="cls-4" d="m292.15,588.87c-3.07,0-6.89,0-34.06-17.39-27.27-17.45-32.25-24.2-33.89-26.42-4.55-6.16-4.21-11.64-3.13-15.16,1.28-4.16,2.2-7.17,59.23-69.36,27.18-29.64,54.45-58.85,54.73-59.14,3.45-3.69,8.62-5.24,13.53-4.05,29.65,7.19,77.7,18.75,84.25,20.12,7.17.78,10.59,6.38,14.5,12.8,2.28,3.73,5.21,8.79,8.27,14.25,12.95,23.14,12.95,25.25,12.95,28.73,0,3.03,0,6.8-10.83,21.51-9.36,12.71-14.92,17-22.06,17-2.98,0-25.92-1.1-38.55-1.71-5.6,6.86-15.67,19.17-25.8,31.38-8.92,10.75-16.14,19.32-21.48,25.49-10.53,12.18-13.92,16.1-20.77,16.32-2.02.23-9.55,1.5-15.11,2.43-15.99,2.69-19.45,3.19-21.78,3.19Zm36.62-5.62c-.12,0-.25,0-.37,0,.1,0,.22,0,.37,0Zm-76.36-49.73c10.94,8.51,33.15,22.48,41.83,27,3.81-.57,10.33-1.67,15.05-2.46,6.15-1.03,10.14-1.69,12.86-2.11,8.46-9.18,34.53-40.56,57.68-69.06,2.81-3.46,7.09-5.37,11.56-5.16,12.25.61,30.73,1.49,39.51,1.86,2.43-2.85,5.77-7.39,8.08-10.9-3.99-7.8-11.95-22.02-16.14-28.78-8.83-1.97-28.25-6.6-72.95-17.42-39.83,42.72-82.1,88.88-97.5,107.04Zm75.99,21.73h-.02.02Zm98.82-110.4c1,.29,2.1.47,3.28.52-.55-.03-1.35-.13-3.28-.52Z"/>
    <polyline class="cls-6" points="367.89 458.28 434.62 470.87 426.96 480.23 355.81 469.68"/>
    <path class="cls-9" d="m202.62,403.13s-56.17,75.91-9.53,114.04c46.64,38.13,107.19-43.81,135.74-49.79,25.62-5.36,48.09-31.4,26.98-54.38-18.94-20.62-60.6-32.94-122.38,22.47"/>
    <path class="cls-2" d="m177.09,477.34s13.96,26.21,40.85,21.79c26.89-4.43,76.6-48.34,96.34-51.4,19.74-3.06,41.53-1.7,41.53-1.7,0,0-22.13,4.09-37.11,21.79-14.98,17.7-81.36,67.06-107.57,54.13-26.21-12.94-28.94-27.57-28.94-27.57"/>
    <path class="cls-4" d="m220.34,541.27c-13.23,0-25.31-4.42-36.12-13.26-16.75-13.69-33.31-39.85-17.09-86.73,8.81-25.48,23.61-45.63,24.23-46.47,4.6-6.22,13.37-7.53,19.58-2.93,6.21,4.6,7.53,13.36,2.93,19.57-.75,1.03-47.56,65.75-11.93,94.88,21.43,17.52,48.97-1.2,82.75-27.5,16.2-12.62,29-22.58,41.27-25.15,10.95-2.29,21.11-9.95,23.64-17.81.91-2.84,1.48-7.32-4.1-13.4-8.12-8.84-39.51-33.26-102.73,23.42-5.76,5.16-14.61,4.68-19.77-1.08-5.16-5.76-4.68-14.61,1.08-19.77,65.42-58.66,116.27-49.58,142.04-21.52,11.12,12.11,14.72,26.64,10.14,40.91-5.63,17.52-23.54,32.25-44.56,36.65-5.92,1.24-18.61,11.12-29.8,19.84-15.79,12.3-33.7,26.24-52.77,34.1-10.11,4.17-19.72,6.25-28.79,6.25Z"/>
    <g>
      <path class="cls-4" d="m290.59,540.68l9.53,8.06-3.91,4.62-25.66-21.71,6.47-7.65c1.44-1.71,2.79-2.81,4.04-3.3,1.25-.5,2.79-.58,4.63-.24,1.84.34,3.66,1.27,5.47,2.8,1.27,1.07,2.34,2.3,3.22,3.7s1.38,2.73,1.48,4.01c.11,1.27,0,2.33-.33,3.17-.32.84-1.07,1.95-2.24,3.33l-2.71,3.2Zm-4.79-3.79l2.5-2.96c.95-1.13,1.28-2.21.97-3.25-.3-1.04-.9-1.93-1.79-2.69-1.04-.88-2.08-1.33-3.12-1.34-1.04-.01-2,.5-2.87,1.53l-2.49,2.94,6.8,5.76Z"/>
      <path class="cls-4" d="m309.89,526.9l6.53-7.72,5.08,4.3-10.42,12.32-25.66-21.71,3.9-4.6,20.58,17.42Z"/>
      <path class="cls-4" d="m317.85,508.46l9.53,8.06-3.91,4.62-25.66-21.71,6.47-7.65c1.44-1.71,2.79-2.81,4.04-3.3,1.25-.5,2.79-.58,4.63-.24,1.84.34,3.66,1.27,5.47,2.8,1.27,1.07,2.34,2.3,3.22,3.7.88,1.4,1.38,2.73,1.48,4.01.1,1.28,0,2.33-.33,3.17-.32.84-1.07,1.95-2.24,3.33l-2.71,3.2Zm-4.79-3.79l2.5-2.96c.95-1.13,1.28-2.21.97-3.25-.3-1.04-.9-1.93-1.79-2.69-1.04-.88-2.08-1.33-3.13-1.34-1.04-.01-2,.5-2.87,1.53l-2.49,2.94,6.8,5.76Z"/>
      <path class="cls-4" d="m344.89,496.63c-2.21,2.61-5.22,3.54-9.02,2.77-3.8-.77-7.55-2.71-11.23-5.82-3.75-3.17-6.26-6.54-7.54-10.11-1.28-3.57-.79-6.69,1.48-9.37,2.29-2.71,5.36-3.62,9.2-2.73,3.84.89,7.48,2.79,10.93,5.7,3.72,3.15,6.26,6.51,7.61,10.1,1.36,3.58.88,6.74-1.43,9.46Zm-21.43-18.35c-2.02,2.38-.25,5.92,5.28,10.6,5.55,4.7,9.34,5.85,11.35,3.47,1.95-2.31.16-5.8-5.38-10.49-5.55-4.7-9.3-5.89-11.26-3.59Z"/>
    </g>
  </g>
  <g>
    <circle class="cls-4" cx="647.15" cy="296.14" r="12.91"/>
    <path class="cls-4" d="m653.28,238.14c6.19-2.12,12.45-3.43,18.76-4.25,3.45-.45,6.12-3.2,6.55-6.66.01-.12.03-.24.04-.36.87-6.09,1.99-12.17,4.17-18.26.73-2.01,2.33-3.72,4.5-4.5,3.87-1.38,8.12.63,9.5,4.5,2.08,6.09,3.39,12.25,4.21,18.45.45,3.4,3.12,6.09,6.53,6.52s6.46.97,9.66,1.71c3.04.72,6.09,1.56,9.13,2.83,1.76.74,3.27,2.16,4.07,4.07,1.62,3.87-.2,8.31-4.07,9.93-5.95,2.41-12.03,3.62-18.26,4.48-.04,0-.08.01-.13.02-3.44.44-6.18,3.1-6.63,6.54-.41,3.14-.96,6.26-1.67,9.36-.72,3.04-1.56,6.09-2.83,9.13-.74,1.76-2.16,3.27-4.07,4.07-3.87,1.62-8.31-.2-9.93-4.07-2.41-5.95-3.62-12.03-4.48-18.26-.02-.14-.04-.29-.06-.43-.44-3.49-3.18-6.21-6.67-6.65-.02,0-.04,0-.06,0-6.09-.87-12.17-1.99-18.26-4.17-2.01-.73-3.72-2.33-4.5-4.5-1.38-3.87.63-8.12,4.5-9.5Z"/>
  </g>
  <path class="cls-7" d="m361.26,468.83l-7.57,115.23s38.81,13.79,68.17-2.04c29.36-15.83,34.47-32.68,34.47-32.68l-22.47-77.11-65.62-11.4-6.98,8Z"/>
  <g>
    <rect class="cls-8" x="448.83" y="495.87" width="180.78" height="126.14" transform="translate(94.69 -77.9) rotate(9.06)"/>
    <path class="cls-4" d="m618.56,646.46c-.58,0-1.16-.04-1.73-.14l-178.53-28.45c-6-.96-10.09-6.59-9.13-12.59l19.85-124.57c.46-2.88,2.04-5.46,4.41-7.17,2.36-1.71,5.31-2.42,8.19-1.96l178.53,28.45c6,.96,10.09,6.59,9.13,12.59l-19.85,124.57c-.46,2.88-2.04,5.46-4.41,7.17-1.89,1.37-4.15,2.09-6.46,2.09Zm-165.94-48.58l156.8,24.99,16.39-102.85-156.8-24.99-16.39,102.84Z"/>
  </g>
  <g>
    <path class="cls-9" d="m622.7,492.66c-28,8.17-38.21,36.51-21.45,70.81,12.64,25.85,49.36,34.72,64,8.51,14.64-26.21-6.01-89.98-42.55-79.32Z"/>
    <path class="cls-4" d="m638.67,601.78c-.45,0-.9,0-1.36-.02-19.95-.54-39.5-13.46-48.63-32.15-10.75-21.98-12.46-43.62-4.81-60.92,6.31-14.28,18.71-24.75,34.91-29.48h0c17.42-5.08,34.63,1.07,47.22,16.87,18.38,23.07,23.63,60.95,11.48,82.71-8.19,14.66-22.28,22.98-38.81,22.98Zm-12.04-95.68h0c-8.38,2.44-14.15,7.13-17.15,13.92-4.25,9.62-2.7,22.86,4.36,37.3,4.61,9.42,14.57,16.19,24.24,16.46,6.62.18,11.66-2.72,14.96-8.62,5.97-10.69,3.02-36.61-8.93-51.61-8.1-10.17-14.91-8.19-17.48-7.44Z"/>
  </g>
</svg>