<?xml version="1.0" encoding="UTF-8"?>
<svg id="Delphi" xmlns="http://www.w3.org/2000/svg" viewBox="0 0 800 800">
  <defs>
    <style>
      .cls-1 {
        fill: #fff;
      }

      .cls-2 {
        fill: #d1e0f6;
      }

      .cls-3 {
        fill: #fcdc9d;
      }

      .cls-4 {
        fill: #f4901e;
        opacity: .35;
      }

      .cls-5 {
        fill: #182d33;
      }

      .cls-6 {
        fill: #0b90df;
      }

      .cls-7 {
        fill: #c74141;
      }

      .cls-8 {
        fill: #f7c963;
      }
    </style>
  </defs>
  <g>
    <path class="cls-6" d="m542.83,427.78s54.78,7.83,94.3-33.26c4.21-4.38,10.96-13.3,13.3-28.96,3.15-21.03,13.11-35.41,39.52-28.83,38.99,9.72,47.11,67.4,11.48,118.7-40.96,58.96-133.04,78.78-224.87,36.52"/>
    <path class="cls-2" d="m714.48,375.61s-14.09,62.61-70.43,85.57c-56.35,22.96-153.91-11.48-153.91-11.48,0,0-2.09,42.26,8.87,54.78,10.96,12.52,173.74,30.78,208.7-68.35"/>
    <path class="cls-5" d="m544.59,415.41c31.25-.73,59.64-7.23,82.05-30.37,3.97-4.06,6.51-8.88,8.25-14.64,1.69-5.74,1.94-11.55,3.76-17.51,2.29-8.05,6.11-16.03,12.75-22.15,12.43-11.78,31.07-11.6,46.3-6.59,16.46,5.32,29.2,18.63,35.26,34.43,14.88,39.43-1.95,84.57-27.68,115.3-47.91,56.31-131.56,65.34-198.93,44.32-12.15-3.72-24.21-8.1-35.02-14.89-12.13-7.9-4.08-26.28,9.85-22.87,11.21,3.13,22.08,7.57,33.22,10.9,43.82,13.13,93.56,13.29,134.57-8.45,17.77-9.52,33.26-23.36,43.87-40.55,11.64-18.67,19.38-41.45,16.16-63.13-1.24-8-4.59-16.44-10.33-21.95-2.53-2.32-5.35-4.27-8.6-5.49-3.69-1.5-8.5-2.39-12.25-2.38-2.66.03-5.22.48-7.16,2.28-3.97,3.93-5.25,10.37-6.23,16.09-2.22,14.93-8.78,29.23-20.26,39.65-17.02,16.6-39.45,27.66-62.58,32.2-13.34,2.62-27.16,3.3-40.54.55-3.61-.67-5.69-4.74-4.14-8.05,0,0,7.68-16.69,7.68-16.69h0Z"/>
  </g>
  <g>
    <path class="cls-6" d="m257.17,427.78s-54.78,7.83-94.3-33.26c-4.21-4.38-10.96-13.3-13.3-28.96-3.15-21.03-13.11-35.41-39.52-28.83-38.99,9.72-47.11,67.4-11.48,118.7,40.96,58.96,133.04,78.78,224.87,36.52"/>
    <path class="cls-2" d="m85.52,375.61s14.09,62.61,70.43,85.57,153.91-11.48,153.91-11.48c0,0,2.09,42.26-8.87,54.78-10.96,12.52-173.74,30.78-208.7-68.35"/>
    <path class="cls-5" d="m258.94,440.16c-32.67,6.27-69.77-5.15-95.44-25.97-3.81-3.03-7.44-6.49-10.86-9.95-6.94-7.17-11.95-16.54-14.65-25.72-2.52-7.62-2.42-16.5-6.12-23.46-2.07-4.13-5.32-5.74-9.69-5.68-7.79.06-16.56,2.93-21.89,8.96-5.93,6.24-8.97,15.82-9.75,24.48-1.96,21.84,6.53,44.63,18.84,62.93,11.18,16.79,27.23,30.09,45.29,38.98,47.05,23.3,103.28,18.26,151.19-.2,4.1-1.33,8.72-3.01,12.94-4.09,14.01-3.43,21.96,15.03,9.87,22.87-5.4,3.38-11.12,6.16-16.98,8.63-29.82,11.64-61.89,17.6-93.99,16.56-45.76-1.29-92.91-18.98-122.97-54.62-21.65-26.09-35.81-59.24-32.76-93.89,1.62-16.13,7.59-31.78,19.57-43.37,11.04-10.49,25.78-15.73,41.03-15.72,25.34.28,37.97,19.73,41.03,42.62,1.2,7.98,4.2,15.92,9.76,21.52.42.43,1.65,1.63,2.09,2.08,13.27,12.97,30.23,21.32,48.49,25.03,9.8,1.94,19.89,2.9,29.88,3.18,0,0,.91.03.91.03.26.02.66,0,.68.05l7.66,16.67c1.58,3.33-.51,7.41-4.13,8.08h0Z"/>
  </g>
  <circle class="cls-6" cx="400" cy="326.17" r="216.39"/>
  <path class="cls-2" d="m579.22,323.89c0,57.45-20.36,109.94-53.98,150.07h37.51c36.18-38.68,58.34-90.65,58.34-147.79,0-105.49-75.48-193.35-175.38-212.51,78.48,34.74,133.51,115.79,133.51,210.23Z"/>
  <path class="cls-5" d="m400,557.57c-61.81,0-119.91-24.07-163.62-67.77s-67.77-101.81-67.77-163.62,24.07-119.91,67.77-163.62,101.81-67.77,163.62-67.77,119.91,24.07,163.62,67.77,67.77,101.81,67.77,163.62-24.07,119.91-67.77,163.62-101.81,67.77-163.62,67.77Zm0-432.78c-111.05,0-201.39,90.34-201.39,201.39s90.34,201.39,201.39,201.39,201.39-90.34,201.39-201.39-90.34-201.39-201.39-201.39Z"/>
  <circle class="cls-5" cx="298.26" cy="346.39" r="44.61"/>
  <g>
    <circle class="cls-5" cx="299.3" cy="223.26" r="23.61"/>
    <circle class="cls-5" cx="349.91" cy="179.96" r="21.78"/>
    <circle class="cls-5" cx="375.02" cy="229.59" r="15.91"/>
    <circle class="cls-5" cx="407.57" cy="158.43" r="13.17"/>
  </g>
  <circle class="cls-1" cx="294.54" cy="336.61" r="15.46"/>
  <circle class="cls-5" cx="501.74" cy="346.39" r="44.61"/>
  <circle class="cls-1" cx="498.02" cy="336.61" r="15.46"/>
  <g>
    <path class="cls-6" d="m537.35,473.96s14.87,40.7,57.91,46.57c27.93,3.81,48.78-26.22,69.65-10.57,18.97,14.23,16.45,80.62-58.96,95.22-80.87,15.65-151.96-60-150.78-84.26"/>
    <path class="cls-2" d="m661.78,554.57s-37.57,25.43-97.04,13.3-85.3-68.87-97.43-63.39,10.96,92.74,104.48,99.78c93.52,7.04,98.61-48.52,98.61-48.52"/>
    <path class="cls-5" d="m549.09,469.67c4.71,6.35,8.9,13.58,14.48,19.36,8.35,8.86,18.72,14.81,30.51,17.01,3.3.65,6.62.94,10,.38,8.12-1.26,15.67-5.44,24.01-9.09,7.73-3.58,19.31-7.55,29.37-5.71,20.97,3.72,30.61,21.64,31.58,41.09.81,17.19-4.47,33.45-14.02,47.24-13.23,19.12-34.56,31.34-56.71,37.06-60.07,16.45-124.47-13.91-161.94-61.18-5.39-7.16-9.96-14.59-12.49-23.48-1-3.88-1.65-7.65-1.19-12.03.33-6.9,6.19-12.21,13.09-11.88,6.9.33,12.21,6.19,11.88,13.09.17-.02.31.27.5.7,1.67,3.82,4.05,7.78,6.61,11.39,30.27,42.02,88.02,70.94,139.27,54.81,17.32-5.11,33.89-15.83,41.77-32.48,4.55-9.61,6.48-21.62,2.68-31.19-.64-1.58-1.21-2.28-1.91-3.18-.22-.1-.17-.21-.45-.35-.95-.69-2.2-1.35-3.23-1.49-4.36-.36-7.88,1.3-13.37,3.58-4.15,1.81-8.77,4.07-13.94,6.14-9.43,3.97-21.67,6.72-32.46,5.02-24.92-3.23-47.44-18.83-60.55-39.87-3.08-5.09-5.57-10.55-6.98-16.36-5.07-15.76,17.15-23.95,23.48-8.58h0Z"/>
  </g>
  <g>
    <path class="cls-6" d="m340.57,531.47s-54.13,67.91-155.74,27.57c-88.1-34.97-57.7-97.02-54.13-103.66s39.66-15.66,110.81,21.45c14.31,7.46,42.38,4.6,53.39-19.7"/>
    <path class="cls-2" d="m189.77,523.81s39.49,16.68,79.66,9.19c40.17-7.49,53.45-32,62.98-26.89,9.53,5.11,4.77,50.72-57.53,61.96-62.3,11.23-100.09-22.81-100.09-22.81"/>
    <path class="cls-5" d="m248.94,585.5c-19.76,0-42.77-3.62-68.97-13.32-34.87-12.92-57.31-32.07-66.7-56.94-12.04-31.88,2.14-60.97,5.11-66.48,3.34-6.2,12.48-16.42,36.22-15.2,21.55,1.11,52.83,11.43,92.96,30.65,4.46,2.13,12.22,3.2,19.52.78,7.33-2.44,15.26,1.53,17.7,8.87,2.44,7.34-1.53,15.26-8.87,17.7-13.33,4.43-28.45,3.65-40.45-2.09-72.12-34.55-90.43-27.98-92.77-26.79-2.11,4.17-10.64,23.06-3.23,42.67,6.4,16.95,23.3,30.6,50.23,40.58,40.15,14.87,75.79,15.58,105.93,2.12,22.46-10.03,33.55-24.7,33.66-24.85,4.53-6.26,13.26-7.63,19.52-3.09,6.26,4.53,7.64,13.32,3.1,19.59-.58.81-14.64,19.92-43.17,33.15-14.46,6.71-34.45,12.67-59.8,12.67Z"/>
  </g>
  <g>
    <circle class="cls-8" cx="144.23" cy="509.51" r="67.4"/>
    <path class="cls-4" d="m191.9,461.85c-12.2-12.2-29.05-19.74-47.66-19.74s-35.46,7.54-47.66,19.74l47.66,47.66,47.66-47.66Z"/>
    <path class="cls-4" d="m96.57,557.17c12.2,12.2,29.05,19.74,47.66,19.74s35.46-7.54,47.66-19.74l-47.66-47.66-47.66,47.66Z"/>
    <circle class="cls-3" cx="144.23" cy="509.51" r="13.19"/>
    <path class="cls-5" d="m144.23,589.42c-44.06,0-79.9-35.84-79.9-79.9s35.84-79.9,79.9-79.9,79.9,35.84,79.9,79.9-35.84,79.9-79.9,79.9Zm0-134.81c-30.27,0-54.9,24.63-54.9,54.9s24.63,54.9,54.9,54.9,54.9-24.63,54.9-54.9-24.63-54.9-54.9-54.9Z"/>
  </g>
  <g>
    <path class="cls-6" d="m557.5,620.89c-18.33-24.07-50.11,10.86-80.02-30.33-7.9-10.87-12.68-22.35-15.49-33.14.06-1.38.1-2.77.1-4.16,0-9.02-1.34-17.66-3.8-25.65,0-2.33.08-24.47.19-26.43h-116.96c.11,1.96.19,24.11.19,26.43-2.46,8-3.8,16.64-3.8,25.65,0,1.4.04,2.78.1,4.16-2.82,10.79-7.6,22.27-15.49,33.14-29.92,41.19-61.7,6.26-80.02,30.33-16.54,21.72.68,73.86,70.63,69.85,53.18-3.05,73.61-35.3,81.02-63.47,1.93.22,3.88.34,5.85.34s3.92-.12,5.85-.34c7.4,28.17,27.84,60.42,81.02,63.47,69.95,4.01,87.17-48.12,70.63-69.85Z"/>
    <path class="cls-2" d="m252.48,669.22s43.43,1.57,81.78-18.78c38.35-20.35,53.22-46.57,53.22-46.57,0,0,.39,42.65-29.35,70.43s-90,11.74-90,11.74"/>
    <path class="cls-5" d="m352.36,506.58c2.53,4.87,3.11,10.33,3.29,15.69.21,5.13.18,10.25-.19,15.37-1.81,26.14-11.4,52.34-29.98,71.43-8.1,8.41-20,15-31.76,16.7-10.09,1.73-20.75.25-29.73.13-3.62,0-5.86.5-7.05,1.13-.63.37-1.21.65-1.85,1.37-2.44,2.5-3.52,5.45-3.88,9.41-.81,13.09,7.89,24.64,19.4,30.94,19.42,10.66,47.99,9.62,68.57,2.6.91-.34,3.14-1.26,4.01-1.58.81-.38,3.02-1.43,3.86-1.82.84-.44,2.89-1.62,3.7-2.04.75-.47,2.75-1.79,3.53-2.27,14.34-9.86,23.13-25.87,26.96-42.67,2.18-8.21,1.96-16.91,4.59-25.05,4.07-12.35,21.63-11.55,24.71.91,2.29,10.15.11,20.48-1.97,30.5-2.34,10.2-5.96,20.15-11.11,29.38-9.11,16.67-23.78,30.39-41.11,38.24-24.82,11.39-58.34,13.56-84.43,5.48-28.23-8.37-51.92-33.86-49.49-65.02,1.9-22.63,18.25-38.96,41.46-38.32,9.39-.01,17.14,1.5,25.28.29,10.3-1.77,16.55-7.76,23.15-17.13,4.46-6.46,7.92-13.55,10.38-21.04,3.76-11.32,5.31-23.73,4.85-35.75-.14-3.74-.69-7.49.12-11.17.03-.11.05-.24.09-.33.04-.07.06-.24.13-.19-2.81-16.29,20.32-21.33,24.45-5.19h0Z"/>
    <path class="cls-2" d="m547.52,669.22s-43.43,1.57-81.78-18.78c-38.35-20.35-53.22-46.57-53.22-46.57,0,0-.39,42.65,29.35,70.43,29.74,27.78,90,11.74,90,11.74"/>
    <path class="cls-5" d="m472.1,511.77c.08-.06.09.11.13.19.04.09.07.22.09.33.81,3.68.26,7.43.12,11.17-.14,4.05-.09,8.13.22,12.17,1.2,15.95,5.94,31.48,15.01,44.62,4.4,6.48,9.42,11.55,14.66,14.32,10.65,5.55,21.37,2.41,33.78,2.52,6.4,0,13.49.92,19.75,4.09,25.67,13.1,26.98,47.78,12.78,69.32-18.2,29.03-55.14,37.34-87.08,34.12-39.83-3.34-71.52-24.15-85.69-62.35-4.31-12.16-7.32-24.88-7.37-37.77.07-2.56.34-5.13.96-7.68,1.67-6.89,8.61-11.13,15.5-9.46,7.8,1.95,9.81,8.65,10.88,15.56.92,6.02,1.44,12.16,2.92,18.05,4.01,17.68,13.63,34.59,29.31,44.18,1.29.9,3.5,2.01,4.88,2.8,1.47.66,3.69,1.8,5.2,2.34,27.68,11.07,79.51,10.5,89.78-23.76,1.79-6.79,1.41-15.75-4.86-19.5-1.19-.63-3.43-1.13-7.05-1.13-9,.12-19.63,1.6-29.73-.13-11.76-1.7-23.65-8.29-31.75-16.7-18.59-19.09-28.17-45.3-29.98-71.43-.37-5.12-.4-10.24-.19-15.37.18-5.36.76-10.83,3.29-15.69,4.06-16.04,27.24-11.21,24.45,5.19h0Z"/>
  </g>
  <g>
    <path class="cls-5" d="m361.29,397.52c-.01.37-.03.74-.03,1.11,0,21.5,17.34,38.93,38.74,38.93s38.74-17.43,38.74-38.93c0-.37-.02-.74-.03-1.11h-77.42Z"/>
    <ellipse class="cls-7" cx="400" cy="427.3" rx="24.26" ry="14.41"/>
    <path class="cls-5" d="m400,450.06c-28.25,0-51.24-23.07-51.24-51.43,0-.41.01-.82.03-1.23v-.25c.2-6.76,5.74-12.14,12.5-12.14h77.42c6.76,0,12.3,5.38,12.5,12.14v.25c.02.41.03.82.03,1.23,0,28.36-22.99,51.43-51.24,51.43Zm-23.68-40.04c4.23,8.89,13.25,15.04,23.68,15.04s19.45-6.15,23.68-15.04h-47.35Z"/>
  </g>
  <g>
    <path class="cls-8" d="m144.23,415.75c-3.87,0-7-3.13-7-7v-24.85c0-3.87,3.13-7,7-7s7,3.13,7,7v24.85c0,3.87-3.13,7-7,7Z"/>
    <path class="cls-8" d="m93.72,429.42c-2.42,0-4.77-1.25-6.07-3.5l-12.43-21.52c-1.93-3.35-.79-7.63,2.56-9.56,3.35-1.93,7.63-.79,9.56,2.56l12.43,21.52c1.93,3.35.79,7.63-2.56,9.56-1.1.64-2.31.94-3.49.94Z"/>
    <path class="cls-8" d="m56.79,466.52c-1.19,0-2.39-.3-3.49-.94l-21.52-12.42c-3.35-1.93-4.5-6.21-2.56-9.56,1.93-3.35,6.22-4.49,9.56-2.56l21.52,12.42c3.35,1.93,4.5,6.21,2.56,9.56-1.3,2.25-3.65,3.5-6.07,3.5Z"/>
    <path class="cls-8" d="m43.38,517.11h-24.85c-3.87,0-7-3.13-7-7s3.13-7,7-7h24.85c3.87,0,7,3.13,7,7s-3.13,7-7,7Z"/>
    <path class="cls-8" d="m35.54,580.05c-2.42,0-4.77-1.25-6.07-3.5-1.93-3.35-.79-7.63,2.56-9.56l21.52-12.43c3.35-1.93,7.63-.79,9.56,2.56,1.93,3.35.79,7.63-2.56,9.56l-21.52,12.43c-1.1.64-2.31.94-3.49.94Z"/>
    <path class="cls-8" d="m81.72,626.06c-1.19,0-2.39-.3-3.49-.94-3.35-1.93-4.5-6.21-2.56-9.56l12.43-21.52c1.93-3.35,6.21-4.49,9.56-2.56,3.35,1.93,4.5,6.21,2.56,9.56l-12.43,21.52c-1.3,2.25-3.65,3.5-6.07,3.5Z"/>
    <path class="cls-8" d="m144.75,642.81c-3.87,0-7-3.13-7-7v-24.85c0-3.87,3.13-7,7-7s7,3.13,7,7v24.85c0,3.87-3.13,7-7,7Z"/>
    <path class="cls-8" d="m207.7,625.81c-2.42,0-4.77-1.25-6.07-3.5l-12.43-21.52c-1.93-3.35-.79-7.63,2.56-9.56,3.35-1.93,7.63-.79,9.56,2.56l12.43,21.52c1.93,3.35.79,7.63-2.56,9.56-1.1.64-2.31.94-3.49.94Z"/>
    <path class="cls-8" d="m253.69,579.61c-1.19,0-2.39-.3-3.49-.94l-21.52-12.42c-3.35-1.93-4.5-6.21-2.56-9.56,1.93-3.35,6.22-4.49,9.56-2.56l21.52,12.42c3.35,1.93,4.5,6.21,2.56,9.56-1.3,2.25-3.65,3.5-6.07,3.5Z"/>
    <path class="cls-8" d="m270.45,516.6h-24.85c-3.87,0-7-3.13-7-7s3.13-7,7-7h24.85c3.87,0,7,3.13,7,7s-3.13,7-7,7Z"/>
    <path class="cls-8" d="m231.93,466.08c-2.42,0-4.77-1.25-6.07-3.5-1.93-3.35-.79-7.63,2.56-9.56l21.52-12.43c3.35-1.93,7.63-.79,9.56,2.56,1.93,3.35.79,7.63-2.56,9.56l-21.52,12.43c-1.1.64-2.31.94-3.49.94Z"/>
    <path class="cls-8" d="m194.81,429.16c-1.19,0-2.39-.3-3.49-.94-3.35-1.93-4.5-6.21-2.56-9.56l12.43-21.52c1.93-3.35,6.22-4.49,9.56-2.56,3.35,1.93,4.5,6.21,2.56,9.56l-12.43,21.52c-1.3,2.25-3.65,3.5-6.07,3.5Z"/>
  </g>
  <g>
    <circle class="cls-5" cx="635.96" cy="200.58" r="12.91"/>
    <path class="cls-5" d="m713.4,130.3c-6.19-2.12-12.45-3.43-18.76-4.25-3.45-.45-6.12-3.2-6.55-6.66-.01-.12-.03-.24-.04-.36-.87-6.09-1.99-12.17-4.17-18.26-.73-2.01-2.33-3.72-4.5-4.5-3.87-1.38-8.12.63-9.5,4.5-2.08,6.09-3.39,12.25-4.21,18.45-.45,3.4-3.12,6.09-6.53,6.52s-6.46.97-9.66,1.71c-3.04.72-6.09,1.56-9.13,2.83-1.76.74-3.27,2.16-4.07,4.07-1.62,3.87.2,8.31,4.07,9.93,5.95,2.41,12.03,3.62,18.26,4.48.04,0,.08.01.13.02,3.44.44,6.18,3.1,6.63,6.54.41,3.14.96,6.26,1.67,9.36.72,3.04,1.56,6.09,2.83,9.13.74,1.76,2.16,3.27,4.07,4.07,3.87,1.62,8.31-.2,9.93-4.07,2.41-5.95,3.62-12.03,4.48-18.26.02-.14.04-.29.06-.43.44-3.49,3.18-6.21,6.67-6.65.02,0,.04,0,.06,0,6.09-.87,12.17-1.99,18.26-4.17,2.01-.73,3.72-2.33,4.5-4.5,1.38-3.87-.63-8.12-4.5-9.5Z"/>
  </g>
  <g>
    <circle class="cls-5" cx="161.17" cy="200.58" r="12.91"/>
    <path class="cls-5" d="m83.73,130.3c6.19-2.12,12.45-3.43,18.76-4.25,3.45-.45,6.12-3.2,6.55-6.66.01-.12.03-.24.04-.36.87-6.09,1.99-12.17,4.17-18.26.73-2.01,2.33-3.72,4.5-4.5,3.87-1.38,8.12.63,9.5,4.5,2.08,6.09,3.39,12.25,4.21,18.45.45,3.4,3.12,6.09,6.53,6.52s6.46.97,9.66,1.71c3.04.72,6.09,1.56,9.13,2.83,1.76.74,3.27,2.16,4.07,4.07,1.62,3.87-.2,8.31-4.07,9.93-5.95,2.41-12.03,3.62-18.26,4.48-.04,0-.08.01-.13.02-3.44.44-6.18,3.1-6.63,6.54-.41,3.14-.96,6.26-1.67,9.36-.72,3.04-1.56,6.09-2.83,9.13-.74,1.76-2.16,3.27-4.07,4.07-3.87,1.62-8.31-.2-9.93-4.07-2.41-5.95-3.62-12.03-4.48-18.26-.02-.14-.04-.29-.06-.43-.44-3.49-3.18-6.21-6.67-6.65-.02,0-.04,0-.06,0-6.09-.87-12.17-1.99-18.26-4.17-2.01-.73-3.72-2.33-4.5-4.5-1.38-3.87.63-8.12,4.5-9.5Z"/>
  </g>
</svg>