<?xml version="1.0" encoding="UTF-8"?>
<svg id="Layer_1" data-name="Layer 1" xmlns="http://www.w3.org/2000/svg" viewBox="0 0 800 800">
  <defs>
    <style>
      .cls-1 {
        fill: #d0dff5;
      }

      .cls-2 {
        fill: #fff;
      }

      .cls-3 {
        opacity: .35;
      }

      .cls-3, .cls-4 {
        fill: #eee;
      }

      .cls-5 {
        stroke-width: 15px;
      }

      .cls-5, .cls-6, .cls-7, .cls-8, .cls-9, .cls-10, .cls-11, .cls-12, .cls-13, .cls-14 {
        stroke-linecap: round;
        stroke-linejoin: round;
      }

      .cls-5, .cls-6, .cls-7, .cls-8, .cls-9, .cls-11, .cls-12, .cls-13, .cls-14 {
        stroke: #182d33;
      }

      .cls-5, .cls-8, .cls-9, .cls-10, .cls-11, .cls-12, .cls-13, .cls-14 {
        fill: none;
      }

      .cls-6 {
        fill: #e2e2e2;
      }

      .cls-6, .cls-7, .cls-11 {
        stroke-width: 28px;
      }

      .cls-7 {
        fill: #f38f1e;
      }

      .cls-8 {
        stroke-width: 30px;
      }

      .cls-15 {
        fill: #959595;
      }

      .cls-9 {
        stroke-width: 25px;
      }

      .cls-16 {
        fill: #182d33;
      }

      .cls-17 {
        fill: #c64141;
      }

      .cls-10 {
        stroke: #fff;
        stroke-width: 12px;
      }

      .cls-12 {
        stroke-width: 23px;
      }

      .cls-13 {
        stroke-width: 20px;
      }

      .cls-14 {
        stroke-width: 14px;
      }

      .cls-18 {
        fill: #0b8fde;
      }
    </style>
  </defs>
  <path class="cls-18" d="m265.82,524.34s-106.43,6.78-145.57-68.87c-33.35-64.47,18-97.04,47.74-88.43,29.74,8.61,25.83,59.74-6.26,65.74l5.48,1.57,31.3-27"/>
  <path class="cls-11" d="m265.82,524.34s-106.43,6.78-145.57-68.87c-33.35-64.47,18-97.04,47.74-88.43,29.74,8.61,25.83,59.74-6.26,65.74"/>
  <g>
    <polyline class="cls-6" points="120.71 385 73.45 262.37 95.65 189.77 148.45 240.51 172.34 370.88"/>
    <path class="cls-7" d="m187.61,359.66s-79.29,24.06-80.46,24.13-23.24,4.56-27.88,5.63,24.64,31.03,24.64,31.03l88.32-23.83"/>
    <line class="cls-14" x1="144.59" y1="367.78" x2="95.65" y2="189.77"/>
    <path class="cls-16" d="m172.18,129.36c-6.31-1.73-12.63-2.67-18.98-3.1-3.48-.24-6.31-2.82-6.95-6.24-.02-.12-.04-.24-.07-.35-1.24-6.02-2.73-12.03-5.27-17.97-.85-1.96-2.55-3.58-4.77-4.22-3.94-1.14-8.07,1.13-9.21,5.07-1.71,6.21-2.63,12.43-3.07,18.68-.24,3.42-2.75,6.27-6.12,6.91-3.21.61-6.39,1.36-9.53,2.3-2.99.91-5.98,1.93-8.94,3.39-1.72.85-3.13,2.36-3.81,4.31-1.38,3.96.71,8.28,4.67,9.66,6.08,2.04,12.23,2.88,18.5,3.35.04,0,.08,0,.13,0,3.46.23,6.36,2.71,7.01,6.12.6,3.11,1.34,6.19,2.24,9.24.91,2.99,1.93,5.98,3.39,8.94.85,1.72,2.36,3.13,4.31,3.81,3.96,1.38,8.28-.71,9.66-4.67,2.04-6.08,2.88-12.23,3.35-18.5.01-.15.02-.29.03-.44.22-3.51,2.79-6.39,6.25-7.05.02,0,.04,0,.06-.01,6.02-1.24,12.03-2.73,17.97-5.27,1.96-.85,3.58-2.55,4.22-4.77,1.14-3.94-1.13-8.07-5.07-9.21Z"/>
  </g>
  <path class="cls-1" d="m158.35,442.17s27.91,33.91,80.09,43.83l-46.43-74.09-21.39,16.96"/>
  <circle class="cls-18" cx="402.39" cy="338.04" r="216.39"/>
  <polyline class="cls-16" points="193.11 402.25 197.8 423.25 244.24 423.25 244.24 402.12"/>
  <ellipse class="cls-17" cx="218.8" cy="424.93" rx="20.61" ry="12.24"/>
  <path class="cls-14" d="m240.63,416.04c-5.73-2.62-13.19-4.2-21.35-4.2s-15.84,1.63-21.6,4.31"/>
  <path class="cls-1" d="m581.61,335.75c0,57.45-20.36,109.94-53.98,150.07h37.51c36.18-38.68,58.34-90.65,58.34-147.79,0-105.49-75.48-193.35-175.38-212.51,78.48,34.74,133.51,115.79,133.51,210.23Z"/>
  <circle class="cls-8" cx="402.39" cy="338.04" r="216.39"/>
  <g>
    <circle class="cls-16" cx="275.48" cy="237.6" r="23.61"/>
    <circle class="cls-16" cx="326.09" cy="194.3" r="21.78"/>
    <circle class="cls-16" cx="351.19" cy="243.93" r="15.91"/>
    <circle class="cls-16" cx="383.74" cy="172.78" r="13.17"/>
  </g>
  <circle class="cls-16" cx="321" cy="358.25" r="44.61"/>
  <circle class="cls-2" cx="317.28" cy="348.47" r="15.46"/>
  <path class="cls-18" d="m278.27,632.75c18.33-24.07,50.11,10.86,80.02-30.33,7.9-10.87,12.68-22.35,15.49-33.14-.06-1.38-.1-2.77-.1-4.16,0-9.02,1.34-17.66,3.8-25.65,0-2.33-.08-24.47-.19-26.43h90.87s0,90.08,0,90.08c-.61.61-1.17,1.27-1.65,2-5.03,7.52-8.2,15.77-10.2,24.42-3.43,2.01-5.5,5.87-6,10.12-.59,5.13-1.75,10.2-3.15,15.19-2.36-5.24-4.18-10.55-5.54-15.73-1.93.22-3.88.34-5.85.34s-3.92-.12-5.85-.34c-7.4,28.17-27.84,60.42-81.02,63.47-69.95,4.01-87.17-48.12-70.63-69.85Z"/>
  <path class="cls-1" d="m288.24,681.08s45.38,4.87,81.78-18.78c82.99-53.94,82.47-138.46,82.47-138.46,0,0,49.57,61.57-58.6,162.33-29.78,27.74-90,11.74-90,11.74"/>
  <path class="cls-16" d="m388.12,518.44c2.96,5.68,3.2,12.06,3.38,18.29.59,24.16-5.2,48.85-18.53,69.36-11.11,17.69-27.86,31.1-49.61,32.13-6.68.44-12.75-.06-17.86-.35-5.1-.33-9.28-.26-11.38.4-1.09.32-1.74.63-2.44,1.16-3.08,2.56-4.35,5.8-4.76,10.41-.49,6.97,2.32,14.36,6.74,20.03,21.2,26.79,74.03,21.17,101.07,5.74,36.65-20.35,53.97-63.31,59.74-103.57.87-7.05,1.93-15.31,3.27-22.12,2.53-14.29,22.54-14.2,25,0,1.76,11.79.06,22.97-1.85,34.45-10.02,59.35-43.71,115.2-106.04,128.96-29.68,6.39-62.98,6.14-89.19-11.77-17.28-11.84-29.11-32.31-27.49-53.83.82-16.14,11.77-33.01,28.38-37.15,19.58-5.44,38.97,6.47,54.5-9.75,5.99-5.97,11.13-14.29,14.62-22.28,5.55-12.7,8.01-27.18,7.72-41.19-.01-4.39-.86-8.78.03-13.11.06-.23.11-.61.25-.62-2.81-16.3,20.33-21.32,24.45-5.19h0Z"/>
  <line class="cls-13" x1="334.69" y1="301.69" x2="285.39" y2="327.51"/>
  <path class="cls-12" d="m189.58,399.57c-.26,2.1-.39,4.26-.39,6.46,0,22.49,13.52,40.72,30.2,40.72s30.2-18.23,30.2-40.72c0-2.26-.14-4.48-.41-6.64-16.55,5.49-42.83,5.55-59.6.18Z"/>
  <g>
    <path class="cls-18" d="m294.78,473.3s-14.87,40.7-57.91,46.57c-27.93,3.81-48.78-26.22-69.65-10.57-18.97,14.23-16.45,80.62,58.96,95.22,80.87,15.65,151.96-60,150.78-84.26"/>
    <path class="cls-1" d="m170.35,553.91s37.57,25.43,97.04,13.3c59.48-12.13,85.3-68.87,97.43-63.39,12.13,5.48-10.96,92.74-104.48,99.78-93.52,7.04-98.61-48.52-98.61-48.52"/>
    <path class="cls-16" d="m306.52,477.59c-2.82,11.48-9.53,21.41-17.53,29.98-12.78,13.92-31.02,23.76-50,26.24-16.66,2.59-32.37-4.64-46.4-11.16-4.14-1.84-7.85-3.16-10.41-3.52-2.55-.35-3.84-.12-5.84,1.2,0,0-.35.24-.35.24-.28.14-.22.25-.45.35-.72.89-1.27,1.6-1.91,3.18-4.13,10.46-1.5,23.67,3.98,33.75,8.37,15.24,24.04,25.05,40.47,29.91,40.81,12.97,85.36-3.08,116.97-30.46,12.04-10.33,22.55-22.5,29.41-36.44-.16-16.56,23.5-17.77,24.97-1.21.95,10.54-3.65,20.12-8.85,28.63-13.6,20.43-32.34,36.38-52.99,49.08-34.99,21.43-77.92,30.17-117.76,17.87-23.61-6.88-45.59-21.54-57.46-43.6-15.08-26.3-14.6-73.76,22.3-80.68,23.51-3.81,41.01,17.06,60.44,14.89,12.9-1.71,24.44-7.88,33.45-17.48,5.58-5.78,9.77-13.01,14.48-19.36,6.28-15.31,28.54-7.27,23.48,8.58h0Z"/>
  </g>
  <g>
    <path class="cls-4" d="m287.66,483.69c-61.46-24.36-124.1-69.09-124.1-69.09h-1.04s-2.39,1.71-6.69,4.63v248.17c2.02.41,4.08.78,6.17,1.11h2.09c131.01-20.96,123.57-184.83,123.57-184.83Z"/>
    <path class="cls-15" d="m163.04,450.92c-2.09,1.41-4.51,3.02-7.21,4.79v178.46c2.36.56,4.76,1.05,7.21,1.48,40.71-7.04,68.83-32.58,83.61-75.94,7.38-21.65,9.7-42.9,10.4-55.99-39.61-17.38-77.19-41.47-94.01-52.8Z"/>
    <path class="cls-3" d="m164.88,635.69s63.26-35.27,79.77-132.77h14.21s10.09,88.17-73.81,125.51"/>
    <path class="cls-5" d="m163.04,450.92c16.82,11.32,54.4,35.42,94.01,52.8-.7,13.08-3.03,34.34-10.4,55.99-14.77,43.35-42.9,68.89-83.61,75.94"/>
    <path class="cls-9" d="m163.56,414.6c-24.95,124.11.52,253.92.52,253.92,131.01-20.96,123.57-184.83,123.57-184.83-61.46-24.36-124.1-69.09-124.1-69.09"/>
    <path class="cls-10" d="m175.23,540.53c.21,4.81.51,9.68.95,14.48"/>
    <path class="cls-10" d="m176.57,483.01s-1.78,19.02-1.68,42.39"/>
  </g>
  <g>
    <path class="cls-18" d="m544.27,487.84s11.13,69.55,49.75,89.44c25.06,12.91,54.73-8.45,69.19,13.27,13.14,19.74-11.38,81.49-87.34,70.1-81.46-12.22-123.24-107.25-114.04-129.73"/>
    <path class="cls-1" d="m645.37,631.56s-43.9,11.45-95.92-19.82c-52.03-31.27-62.31-94.94-75.62-95.2-26.09-.52-15.7,94.03,70.12,131.86,85.82,37.83,109.15-12.85,109.15-12.85"/>
    <path class="cls-16" d="m567.45,513.94c.01-.12.03-.02.05,0,.15.38.23.72.34,1.12,2.05,7.57,3.82,15.49,7.09,22.61,5.86,12.81,15.82,23.36,28.9,28.45,5.58,1.74,10.65,1.66,17.2,1.25,11.17-.79,24.19-3.09,35.83,1.02,6.77,2.24,13.19,7.1,17.33,12.99,9.45,12.91,7.65,30.98,2.09,44.74-20.47,48.74-76.22,58.73-122.27,44.09-53.74-17.06-88.39-67.7-106.95-118.15-3.63-10.14-6.55-20.43-7.85-31.21-1.32-15.03,19.23-19.54,24.39-5.5,16.58,51.42,44.01,110.05,99.04,127.62,16.45,5.06,35.39,6.55,51.85,2.03,18.68-4.94,35.83-20.35,37.74-39.89.14-2.5.08-4.69-.91-6.67-1.81-2.83-4.14-3.6-7.69-3.9-6.76-.42-12.97.66-20.68,1.12-10.23.81-22.86.08-32.84-4.6-18.01-8.24-32.86-23.91-40.72-41.83-4.91-11.01-8.13-22.93-6.92-35.03.48-16.56,24.16-16.85,25-.26h0Z"/>
  </g>
  <g>
    <path class="cls-18" d="m545.22,439.65s54.78,7.83,94.3-33.26c4.21-4.38,10.96-13.3,13.3-28.96,3.15-21.03,13.11-35.41,39.52-28.83,38.99,9.72,47.11,67.4,11.48,118.7-40.96,58.96-133.04,78.78-224.87,36.52"/>
    <path class="cls-1" d="m716.87,387.47s-16.77,56.81-67.21,90.84c-64.08,43.24-138.13-4.3-151.04,6.65-8.3,7.04-8.18,18.85,2.78,31.37,10.96,12.52,173.74,30.78,208.7-68.35"/>
    <path class="cls-16" d="m540.07,427.43c21.51-.61,44.28-2.92,63.71-12.46,9.63-4.62,18.28-10.79,25.52-18.32,2.81-2.93,5.1-6.61,6.76-10.81,1.6-3.9,2.48-8.43,3.1-12.65,1.59-8.89,4.12-17.4,9.77-25.13,11.46-15.86,31.14-17.9,48.67-12.82,15.56,4.06,29.26,16.37,35.84,30.75,17.9,39.54,1.55,85.66-23.86,117.5-47.35,58.16-132.39,67.86-200.41,46.69-12.31-3.72-24.52-8.1-35.43-15.02-12.16-8.11-3.69-26.54,10.27-22.77,5.7,1.66,11.23,3.58,16.75,5.49,56.67,21.55,128.81,21.82,175.46-20.67,15.85-14.58,27.55-34.29,33.07-54.91,5.84-21.24,4.32-52.44-19.47-59.61-14.22-3.67-19.28-1.1-22.38,13.49-.19.95-.54,2.9-.69,3.86-2.15,13.41-7.42,26.1-17.13,36.19-26.3,27.05-65.19,39.59-102.22,37.38-2.47-.16-5.12-.52-7.59-.88,0,0-2.83-.5-2.83-.5-16.34-2.68-13.49-26.19,3.08-24.81h0Z"/>
  </g>
</svg>